<svg width="16" height="16" viewBox="0 0 24 24" fill="none" xmlns="http://www.w3.org/2000/svg">
  <path fill-rule="evenodd" clip-rule="evenodd"
    d="M4.5 8.625C4.5 6.34683 6.34683 4.5 8.625 4.5C10.9032 4.5 12.75 6.34683 12.75 8.625C12.75 10.9032 10.9032 12.75 8.625 12.75C6.34683 12.75 4.5 10.9032 4.5 8.625ZM8.625 11.25C7.17525 11.25 6 10.0747 6 8.625C6 7.17525 7.17525 6 8.625 6C10.0747 6 11.25 7.17525 11.25 8.625C11.25 10.0747 10.0747 11.25 8.625 11.25Z"
    fill="currentColor" />
  <path fill-rule="evenodd" clip-rule="evenodd"
    d="M15.4258 10.3101C15.5703 10.0608 15.9303 10.0608 16.0748 10.3102L20.2024 17.4371C20.3472 17.6871 20.1668 18 19.8779 18H11.6209C11.332 18 11.1516 17.687 11.2964 17.437L15.4258 10.3101ZM13.5729 16.5L15.75 12.7425L17.9263 16.5H13.5729Z"
    fill="currentColor" />
  <path
    d="M1.5 3C1.5 3.82843 2.17157 4.5 3 4.5C3.82843 4.5 4.5 3.82843 4.5 3C4.5 2.17157 3.82843 1.5 3 1.5C2.17157 1.5 1.5 2.17157 1.5 3Z"
    fill="currentColor" />
  <path
    d="M19.5 3C19.5 3.82843 20.1716 4.5 21 4.5C21.8284 4.5 22.5 3.82843 22.5 3C22.5 2.17157 21.8284 1.5 21 1.5C20.1716 1.5 19.5 2.17157 19.5 3Z"
    fill="currentColor" />
  <path
    d="M3 22.5C2.17157 22.5 1.5 21.8284 1.5 21C1.5 20.1716 2.17157 19.5 3 19.5C3.82843 19.5 4.5 20.1716 4.5 21C4.5 21.8284 3.82843 22.5 3 22.5Z"
    fill="currentColor" />
  <path
    d="M19.5 21C19.5 21.8284 20.1716 22.5 21 22.5C21.8284 22.5 22.5 21.8284 22.5 21C22.5 20.1716 21.8284 19.5 21 19.5C20.1716 19.5 19.5 20.1716 19.5 21Z"
    fill="currentColor" />
</svg>