<svg width="16" height="16" viewBox="0 0 24 24" fill="none" xmlns="http://www.w3.org/2000/svg">
  <path
    d="M12 15C13.6569 15 15 13.6569 15 12C15 10.3431 13.6569 9 12 9C10.3431 9 9 10.3431 9 12C9 13.6569 10.3431 15 12 15Z"
    fill="currentColor" />
  <g opacity="0.64">
    <path fill-rule="evenodd" clip-rule="evenodd"
      d="M21.0008 12.0001C21.8952 11.5527 21.895 11.5524 21.8948 11.552L21.8932 11.5488L21.8901 11.5427L21.8806 11.5241C21.8727 11.5089 21.8618 11.488 21.8479 11.462C21.8201 11.4099 21.7803 11.3369 21.7283 11.246C21.6245 11.0643 21.4718 10.8102 21.2702 10.5078C20.868 9.90461 20.2647 9.10008 19.4574 8.29287C17.8482 6.6839 15.3587 5 12 5C8.6412 5 6.15204 6.68393 4.54323 8.29297C3.73611 9.1002 3.13309 9.90476 2.73106 10.5079C2.52948 10.8103 2.37689 11.0645 2.27308 11.2462C2.22114 11.3371 2.1813 11.4101 2.15353 11.4622C2.13964 11.4882 2.12877 11.509 2.1209 11.5243L2.11135 11.5429L2.10827 11.549L2.10715 11.5513L2.10669 11.5522C2.1065 11.5526 2.10631 11.5529 3.00079 12.0001L2.10669 11.5522L1.88281 12.0001L2.10631 12.4472L3.00079 12.0001C2.10631 12.4472 2.10611 12.4468 2.10631 12.4472L2.10715 12.4488L2.10827 12.4511L2.11136 12.4572L2.1209 12.4758C2.12877 12.4911 2.13965 12.5119 2.15353 12.5379C2.1813 12.59 2.22114 12.663 2.27308 12.7539C2.37689 12.9356 2.52948 13.1897 2.73106 13.4922C3.13308 14.0953 3.73611 14.8999 4.54322 15.7071C6.15203 17.3161 8.64119 19 12 19C15.3587 19 17.8482 17.3161 19.4574 15.7072C20.2647 14.9 20.868 14.0955 21.2702 13.4923C21.4718 13.1899 21.6245 12.9358 21.7283 12.7541C21.7803 12.6632 21.8201 12.5902 21.8479 12.5381C21.8618 12.5121 21.8727 12.4912 21.8806 12.476L21.8901 12.4574L21.8932 12.4513L21.8943 12.449L21.8948 12.4481C21.895 12.4477 21.8952 12.4474 21.0008 12.0001ZM4.15062 12C4.21871 12.1115 4.30026 12.2404 4.39526 12.3829C4.74308 12.9048 5.26484 13.6002 5.95753 14.293C7.34831 15.6839 9.35873 17 12 17C14.6412 17 16.6521 15.6839 18.0433 14.2929C18.7362 13.6001 19.2582 12.9046 19.6062 12.3828C19.7012 12.2403 19.7827 12.1115 19.8508 12C19.7827 11.8886 19.7011 11.7598 19.6062 11.6173C19.2582 11.0955 18.7362 10.4 18.0433 9.70718C16.6521 8.31613 14.6412 7 12 7C9.35876 7 7.34833 8.3161 5.95754 9.70708C5.26486 10.3999 4.74309 11.0953 4.39527 11.6172C4.30027 11.7597 4.21871 11.8886 4.15062 12Z"
      fill="currentColor" />
    <path d="M21.0008 12.0001L21.8948 12.4481L22.1189 12.0001L21.8948 11.552L21.0008 12.0001Z"
      fill="currentColor" />
  </g>
</svg>