<svg width="16" height="16" viewBox="0 0 24 24" fill="none" xmlns="http://www.w3.org/2000/svg">
  <path
    d="M12.0004 4.92882C13.953 2.9762 17.1188 2.9762 19.0714 4.92882C21.0241 6.88144 21.0241 10.0473 19.0714 11.9999L16.9501 14.1212C14.9975 16.0738 11.8317 16.0738 9.87906 14.1212C9.74869 13.9908 9.62703 13.8551 9.51407 13.7146L11.1247 12.5241C11.1779 12.5868 11.2341 12.6478 11.2933 12.707C12.4648 13.8786 14.3643 13.8786 15.5359 12.707L17.6572 10.5857C18.8288 9.4141 18.8288 7.51461 17.6572 6.34303C16.4857 5.17146 14.5862 5.17146 13.4146 6.34303L12.3267 7.43089L10.6949 6.23425L12.0004 4.92882Z"
    fill="currentColor" />
  <path
    d="M12.0004 19.071C10.0478 21.0236 6.88193 21.0236 4.92931 19.071C2.97669 17.1183 2.97669 13.9525 4.92931 11.9999L7.05063 9.87857C9.00325 7.92595 12.1691 7.92595 14.1217 9.87857C14.2521 10.0089 14.3737 10.1447 14.4867 10.2852L12.876 11.4757C12.8228 11.413 12.7666 11.3519 12.7075 11.2928C11.5359 10.1212 9.63642 10.1212 8.46484 11.2928L6.34352 13.4141C5.17195 14.5857 5.17195 16.4852 6.34352 17.6567C7.5151 18.8283 9.41459 18.8283 10.5862 17.6567L11.674 16.5689L13.3058 17.7655L12.0004 19.071Z"
    fill="currentColor" />
</svg>