<svg width="16" height="16" viewBox="0 0 24 24" fill="none" xmlns="http://www.w3.org/2000/svg">
  <path
    d="M13.2913 14.7089L20.291 21.7086L21.7052 20.2944L3.70523 2.29443L2.29102 3.70865L9.29138 10.709C9.10463 11.1001 9.00008 11.5379 9.00008 12.0002C9.00008 13.657 10.3432 15.0002 12.0001 15.0002C12.4623 15.0002 12.9002 14.8956 13.2913 14.7089Z"
    fill="currentColor" />
  <g opacity="0.64">
    <path
      d="M5.78422 7.19893C5.32465 7.55352 4.91094 7.9252 4.54323 8.29297C3.73611 9.1002 3.13309 9.90476 2.73106 10.5079C2.52948 10.8103 2.37689 11.0645 2.27308 11.2462C2.22114 11.3371 2.1813 11.4101 2.15353 11.4622C2.13964 11.4882 2.12877 11.509 2.1209 11.5243L2.11135 11.5429L2.10827 11.549L2.10715 11.5513L2.10669 11.5522C2.1065 11.5526 2.10631 11.5529 3.00079 12.0001L2.10669 11.5522L1.88281 12.0001L2.10631 12.4472L3.00079 12.0001C2.10631 12.4472 2.10611 12.4468 2.10631 12.4472L2.10715 12.4488L2.10827 12.4511L2.11136 12.4572L2.1209 12.4758C2.12877 12.4911 2.13965 12.5119 2.15353 12.5379C2.1813 12.59 2.22114 12.663 2.27308 12.7539C2.37689 12.9356 2.52948 13.1897 2.73106 13.4922C3.13308 14.0953 3.73611 14.8999 4.54322 15.7071C6.15203 17.3161 8.64119 19 12 19C13.7266 19 15.2235 18.555 16.4892 17.9039L14.985 16.3997C14.0998 16.7696 13.1051 17 12 17C9.35873 17 7.34831 15.6839 5.95753 14.293C5.26484 13.6002 4.74308 12.9048 4.39526 12.3829C4.30026 12.2404 4.21871 12.1115 4.15062 12C4.21871 11.8886 4.30027 11.7597 4.39527 11.6172C4.74309 11.0953 5.26486 10.3999 5.95754 9.70708C6.33099 9.33358 6.7491 8.96549 7.21212 8.62682L5.78422 7.19893Z"
      fill="currentColor" />
    <path
      d="M11.8302 7.00182L10.0287 5.20031C10.6486 5.07195 11.3057 5 12 5C15.3587 5 17.8482 6.6839 19.4574 8.29287C20.2647 9.10008 20.868 9.90461 21.2702 10.5078C21.4718 10.8102 21.6245 11.0643 21.7283 11.246C21.7803 11.3369 21.8201 11.4099 21.8479 11.462C21.8618 11.488 21.8727 11.5089 21.8806 11.5241L21.8901 11.5427L21.8932 11.5488L21.8948 11.552C21.895 11.5524 21.8952 11.5527 21.0008 12.0001C21.8952 12.4474 21.895 12.4477 21.8948 12.4481L21.8943 12.449L21.8932 12.4513L21.8901 12.4574L21.8806 12.476C21.8727 12.4912 21.8618 12.5121 21.8479 12.5381C21.8201 12.5902 21.7803 12.6632 21.7283 12.7541C21.6245 12.9358 21.4718 13.1899 21.2702 13.4923C20.9604 13.9568 20.5314 14.5408 19.9818 15.1534L18.5652 13.7368C19.0044 13.2386 19.3518 12.7643 19.6062 12.3828C19.7012 12.2403 19.7827 12.1115 19.8508 12C19.7827 11.8886 19.7011 11.7598 19.6062 11.6173C19.2582 11.0955 18.7362 10.4 18.0433 9.70718C16.6521 8.31613 14.6412 7 12 7C11.9431 7 11.8865 7.00061 11.8302 7.00182Z"
      fill="currentColor" />
    <path d="M21.0008 12.0001L21.8948 11.552L22.1189 12.0001L21.8948 12.4481L21.0008 12.0001Z"
      fill="currentColor" />
  </g>
</svg>