<svg version="1.1" xmlns="http://www.w3.org/2000/svg" style="display: block;" viewBox="0 0 2048 2048" width="512" height="512">
<path transform="translate(0,0)" fill="rgb(1,1,1)" d="M 1471.93 641.729 C 1493.49 640.956 1532.8 725.263 1526.02 737.082 C 1511.49 740.183 1512.41 725.517 1508.04 714.862 C 1500.29 696.007 1466.74 651.771 1471.93 641.729 z"/>
<path transform="translate(0,0)" fill="rgb(1,1,1)" d="M 1471.93 558.438 C 1485.39 560.02 1502.08 580.647 1510.71 589.723 C 1533.99 614.215 1603.57 717.54 1578.1 749.131 L 1573.66 747.544 C 1569.67 744.17 1569.48 735.051 1568.79 730.116 C 1561.64 678.439 1532.9 628.686 1495.55 592.704 C 1483.9 581.481 1459.41 571.776 1471.93 558.438 z"/>
<path transform="translate(0,0)" fill="rgb(1,1,1)" d="M 1230.64 235.089 C 1301.45 230.886 1316.38 423.696 1312.58 469.374 C 1305.43 555.123 1274.57 564.236 1345.73 657.996 C 1352.75 667.252 1363.14 675.431 1369.11 685.12 C 1380.92 704.269 1369.88 762.588 1364.45 785.536 C 1400 770.782 1432.58 771.348 1467.29 790.655 C 1612.02 871.173 1524.35 1218.55 1364.45 1262.55 C 1374.92 1346.67 1363.48 1311.55 1415.73 1389.51 C 1484.03 1491.38 1447.69 1557.67 1419.7 1654.3 C 1412.34 1679.72 1410.15 1706.27 1400.41 1731.08 C 1360.53 1832.56 1168.94 1847.34 1119.47 1730.02 C 1036.99 1768.83 950.057 1765.59 866.144 1733.29 C 842.414 1789.31 756.825 1817.26 701.78 1811.43 C 657.597 1811.33 610.431 1796.16 582.187 1760.49 C 550.254 1720.16 563.521 1688.48 551.415 1645.66 C 545.31 1624.06 532.415 1605.19 524.403 1584.27 C 501.983 1525.73 500.581 1452.34 535.949 1398.56 C 577.734 1335.02 577.754 1358.41 576.597 1280.52 C 574.432 1134.64 594.164 1056.23 718.881 958.729 C 670.829 935.116 616.753 883.301 590.026 837.451 C 573.2 808.585 543.939 743.806 558.481 710.878 C 567.495 690.467 585.013 673.274 596.325 653.816 C 613.912 623.564 623.128 591.975 631.929 558.438 C 595.204 478.938 589.562 385.053 613.899 300.995 C 620.152 279.399 630.353 252.476 651.037 241.041 C 717.858 238.945 825.325 320.819 866.144 376.834 C 905.086 352.794 1007.03 364.414 1046.79 376.834 C 1084.07 310.17 1156.23 253.231 1230.64 235.089 z M 1245.01 251.437 C 1237.15 259.972 1201.02 275.189 1188 283.455 C 1157 303.127 1125.73 329.887 1102.27 358.3 C 1090.16 372.976 1083.04 398.837 1061.51 399.68 C 1031.41 400.858 997.555 391.431 962.975 392.69 C 948.899 393.202 884.838 408.162 878.824 396.085 C 861.646 401.15 752.418 264.691 669.392 256.854 L 651.037 256.854 C 590.9 327.823 611.78 472.783 644.398 555.227 C 638.097 598.055 623.671 636.695 599.438 672.747 C 579.149 702.931 563.308 709.587 569.709 747.338 C 582.78 824.42 648.681 909.392 718.881 942.498 C 777.817 987.593 926.865 1004.97 996.336 1000.27 C 1074.52 994.996 1142.72 957.607 1211.44 955.37 C 1240.87 933.592 1302.12 884.342 1317.83 850.798 C 1322.28 841.279 1323.33 830.504 1328.43 821.103 C 1333.31 812.113 1341.76 805.472 1346.44 796.424 C 1356.35 777.291 1366.36 714.37 1358.45 695.542 C 1354.25 685.56 1343.53 676.745 1336.64 668.431 C 1278.48 598.267 1282.81 566.248 1295.51 486.485 C 1305.64 422.914 1288.76 292.815 1245.01 251.437 z M 1051.64 1128.95 C 1048.88 1129.37 1044.5 1129.53 1042.16 1130.89 C 1033.92 1136.1 1026.63 1138.02 1019.3 1145.13 C 1045.45 1159.23 1063.93 1170.97 1073.16 1201.03 C 1106.25 1308.84 935.821 1349.94 908.013 1243.78 C 891.142 1179.38 954.44 1150.49 955.297 1145.51 L 955.095 1145.13 C 914.445 1153.36 809.214 1133.68 773.144 1119.05 C 723.442 1098.88 683.476 1068.11 644.398 1128.95 C 652.595 1134.31 664.213 1136.08 673.675 1137.98 C 679.273 1130.34 688.565 1134.66 696.236 1136.96 C 764.432 1157.43 807.798 1213.3 833.766 1277.05 C 893.631 1277.1 913.244 1286.22 944.569 1332.33 C 953.076 1355.29 953.398 1373.19 951.263 1397.34 C 939.98 1428.68 923.145 1446.09 895.625 1463.82 C 859.412 1478.74 836.994 1477.7 799.199 1477.05 C 790.106 1472.06 768.897 1468.82 757.939 1465.21 C 714.085 1450.79 676.062 1423.62 644.398 1390.5 C 639.992 1389.4 635.791 1386.21 631.929 1383.85 C 634.286 1425.63 656.315 1486.5 674.807 1524.43 C 755.809 1690.55 941.86 1802.58 1120.64 1714.5 C 1218.64 1666.21 1296.85 1571.06 1331.54 1468.13 C 1377.32 1332.31 1347.4 1184.78 1284.9 1059.55 C 1281.79 1051.94 1277.97 1044.88 1273.99 1037.69 C 1219.26 1073.49 1178.6 1097.96 1112.79 1115.51 C 1092.6 1120.89 1071.76 1123.58 1051.64 1128.95 z M 854.046 1463.82 L 850.783 1452.05 C 754.821 1465.39 651.919 1373.34 625.726 1287.15 C 608.823 1231.53 617.25 1179.56 644.398 1128.95 C 683.476 1068.11 723.442 1098.88 773.144 1119.05 C 809.214 1133.68 914.445 1153.36 955.095 1145.13 C 954.961 1140.37 954.814 1135.65 955.095 1130.89 C 847.022 1128.42 741.507 1106.68 660.077 1032.24 C 649.518 1042.31 641.36 1054.33 633.716 1066.69 C 520.424 1249.85 638.554 1467.71 854.046 1463.82 z M 589.993 1297.21 C 588.944 1347.87 586.625 1351.85 556.043 1392.33 C 510.238 1452.96 513.019 1531.94 544.612 1597.89 C 551.94 1613.19 560.617 1627.9 564.764 1644.49 C 582.846 1716.84 559.188 1753.04 647.77 1788.86 C 648.8 1783.39 649.661 1777.82 651.037 1772.43 C 595.587 1749.98 601.012 1711.46 586.41 1665.12 C 581.838 1650.61 573.529 1637.28 567.503 1623.32 C 534.588 1547.06 547.249 1462.53 589.301 1392.74 C 603.102 1369.83 599.857 1369.05 613.941 1383.85 C 619.055 1371.34 625.623 1375.97 631.929 1383.85 C 635.791 1386.21 639.992 1389.4 644.398 1390.5 C 619.988 1362.44 601.237 1332.92 589.993 1297.21 z M 1318.88 872.871 C 1293.16 906.922 1262.42 931.286 1230.64 958.729 C 1252.8 977.401 1267.94 993.969 1280.57 1020.65 C 1285.52 1028.59 1289.79 1036.68 1293.98 1045.03 C 1321.7 1010.36 1340.21 965.619 1345.97 921.682 C 1330.21 903.88 1322.39 876.747 1318.88 872.871 z M 733.155 968.575 C 711.996 977.325 682.77 1002.1 669.392 1020.65 L 681.826 1033.92 C 699.015 1012.58 719.037 988.837 741.752 973.348 C 845.126 1017.09 911.477 1042.53 1023.82 1029.28 C 1070.79 1023.73 1161.71 1001.29 1196.14 970.451 L 1196.03 968.575 C 1170.16 971.277 1145.57 980.448 1120.84 988.086 C 998.703 1025.8 889.423 1021.57 767.179 979.4 C 755.943 975.523 744.871 970.784 733.155 968.575 z M 1057.45 379.728 C 1073.39 402.347 1022.67 382.983 1016.02 381.698 C 975.877 373.931 911.447 373.597 872.928 386.075 L 878.824 396.085 C 884.838 408.162 948.899 393.202 962.975 392.69 C 997.555 391.431 1031.41 400.858 1061.51 399.68 C 1083.04 398.837 1090.16 372.976 1102.27 358.3 C 1125.73 329.887 1157 303.127 1188 283.455 C 1201.02 275.189 1237.15 259.972 1245.01 251.437 C 1198.73 231.953 1079.76 341.437 1057.45 379.728 z M 1415.82 929.99 C 1422.5 928.849 1427.76 919.429 1420.09 915.801 C 1408.15 910.153 1394.1 915.93 1376.41 903.526 C 1336.01 875.195 1353.89 814.6 1402.59 808.412 C 1406.96 808.631 1411.44 808.42 1415.82 808.412 C 1432.49 806.63 1448.86 814.644 1464.99 818.191 C 1468.73 819.437 1472.75 820.473 1476.12 822.549 C 1483.49 827.943 1500.83 847.676 1506.35 849.76 C 1482.06 802.742 1420.48 771.718 1370.45 798.237 C 1315.89 827.155 1321.21 908.026 1383.23 925.522 C 1393.41 928.396 1408.87 927.666 1415.82 929.99 z M 1326.76 1519.77 C 1268.4 1625.27 1229.05 1662.37 1132.21 1724.89 C 1141.88 1749.61 1155.31 1765.86 1178.09 1779.73 C 1178.32 1771.36 1178.06 1762.44 1180.47 1754.35 C 1169.59 1747.27 1161.69 1736.84 1156.91 1724.89 C 1230.85 1677.98 1279.45 1632.31 1315.86 1550.37 C 1319.83 1541.43 1326.61 1529.61 1326.76 1519.77 z M 1357.35 929.99 C 1353.61 972.779 1326.9 1027.32 1299 1059.55 C 1303.23 1068.16 1307.94 1076.07 1313 1084.19 C 1336.87 1057.53 1369.31 970.967 1377.69 937.682 C 1370.75 935.614 1364.06 932.712 1357.35 929.99 z M 987.915 1155.67 C 923.186 1160.94 895.771 1229.73 944.569 1277.05 C 943.987 1267.77 935.909 1259.45 935.911 1245.59 C 935.922 1183.89 985.299 1164.85 987.915 1155.67 z M 1192.69 1758.21 C 1191.25 1768.11 1191.55 1776.92 1192.69 1786.82 C 1208.51 1792.23 1224.65 1794.52 1241.04 1797.45 C 1240.76 1790.36 1240.29 1783.26 1241.04 1776.19 C 1224.99 1775.7 1206.32 1765.9 1192.69 1758.21 z M 663.756 1776.19 L 660.077 1792.53 C 681.319 1797.87 700.828 1799.81 722.625 1797.45 L 722.625 1782.91 C 701.843 1783.18 683.858 1781.64 663.756 1776.19 z M 1253.88 1776.19 C 1252.58 1783.22 1253.42 1790.36 1253.88 1797.45 C 1267.32 1797.76 1320.15 1800.23 1313 1779.73 C 1293.93 1782.75 1272.8 1779.36 1253.88 1776.19 z M 733.155 1786.82 C 733.589 1790.44 732.853 1796.83 737.428 1796.78 C 746.723 1796.69 784.164 1788.63 789.682 1782.81 L 789.591 1779.73 C 779.136 1778.83 742.412 1779.3 733.884 1784.17 L 733.155 1786.82 z M 969.692 1130.89 C 969.392 1135.71 969.426 1140.31 969.692 1145.13 C 978.112 1143.3 985.95 1141.85 994.619 1141.92 C 996.057 1125.06 982.009 1131.17 969.692 1130.89 z"/>
<path transform="translate(0,0)" fill="rgb(255,255,255)" d="M 1013.51 1130.89 C 1022.85 1130.04 1032.74 1130.9 1042.16 1130.89 C 1033.92 1136.1 1026.63 1138.02 1019.3 1145.13 L 1013.51 1130.89 z"/>
<path transform="translate(0,0)" fill="rgb(9,126,198)" d="M 1000.48 1102.85 L 1003.06 1103.58 C 1005.57 1107.39 1005.81 1112.65 1006.55 1117.09 L 983.75 1117.09 C 981.99 1117.16 980.79 1116.99 979.108 1116.47 L 979.378 1114.7 C 985.29 1108.94 992.854 1105.7 1000.48 1102.85 z"/>
<path transform="translate(0,0)" fill="rgb(255,255,255)" d="M 862.544 1447.64 C 879.955 1444.72 896.309 1436.76 911.955 1428.98 C 912.006 1446.66 879.884 1456.57 866.144 1460.55 C 865.053 1456.29 864.206 1451.7 862.544 1447.64 z"/>
<path transform="translate(0,0)" fill="rgb(252,98,93)" d="M 987.915 1155.67 C 1023.09 1151.41 1059.32 1183.21 1062.84 1217.72 C 1069.37 1281.89 998.895 1312.76 944.569 1277.05 C 943.987 1267.77 935.909 1259.45 935.911 1245.59 C 935.922 1183.89 985.299 1164.85 987.915 1155.67 z"/>
<path transform="translate(0,0)" fill="rgb(252,98,93)" d="M 1196.03 968.575 C 1230.29 960.003 1254.28 998.861 1267.8 1024.15 C 1205.26 1070.92 1100.1 1118.13 1019.3 1117.09 C 1015.91 1066.59 972.609 1094.14 958.069 1117.09 C 881.138 1125.03 746.268 1087.66 689.035 1040.85 C 686.44 1038.73 683.88 1036.58 681.826 1033.92 C 699.015 1012.58 719.037 988.837 741.752 973.348 C 845.126 1017.09 911.477 1042.53 1023.82 1029.28 C 1070.79 1023.73 1161.71 1001.29 1196.14 970.451 L 1196.03 968.575 z"/>
<path transform="translate(0,0)" fill="rgb(87,98,238)" d="M 1366.39 1339.23 C 1402.24 1399.02 1437.65 1430.46 1439.87 1506.25 C 1441.52 1562.71 1424.32 1591.8 1408.72 1643.64 C 1393.78 1693.27 1392.68 1768.68 1326.76 1782.91 C 1323.11 1767.84 1325.7 1732.61 1316.28 1733.04 C 1303.82 1738.73 1308.65 1770.58 1313 1779.73 C 1293.93 1782.75 1272.8 1779.36 1253.88 1776.19 C 1256.87 1762.19 1262.52 1751.36 1267.51 1738.2 C 1269.66 1732.5 1264.38 1725.98 1258.71 1730.04 C 1249.34 1736.75 1243.13 1765.15 1241.04 1776.19 C 1224.99 1775.7 1206.32 1765.9 1192.69 1758.21 C 1194.17 1748.88 1205.5 1735.54 1201.73 1726.57 C 1187.75 1721.45 1183.48 1745.2 1180.47 1754.35 C 1169.59 1747.27 1161.69 1736.84 1156.91 1724.89 C 1230.85 1677.98 1279.45 1632.31 1315.86 1550.37 C 1319.83 1541.43 1326.61 1529.61 1326.76 1519.77 C 1329.92 1503.68 1339.18 1488.77 1344.38 1473.26 C 1358.83 1430.19 1365.43 1384.52 1366.39 1339.23 z"/>
<path transform="translate(0,0)" fill="rgb(87,98,238)" d="M 651.037 1772.43 C 595.587 1749.98 601.012 1711.46 586.41 1665.12 C 581.838 1650.61 573.529 1637.28 567.503 1623.32 C 534.588 1547.06 547.249 1462.53 589.301 1392.74 C 603.102 1369.83 599.857 1369.05 613.941 1383.85 C 623.02 1397.31 623.125 1417.75 627.308 1433.23 C 654.75 1534.83 708.263 1625.45 793.218 1689.82 C 812.699 1704.57 834.362 1715.71 854.046 1730.02 C 839.106 1750.73 821.172 1763.8 801.734 1779.73 C 799.831 1773.29 779.058 1712.11 766.463 1734.56 C 765.809 1738.65 784.899 1767.98 789.591 1779.73 C 779.136 1778.83 742.412 1779.3 733.884 1784.17 L 733.155 1786.82 C 734.527 1709.27 707.411 1729.31 722.625 1782.91 C 701.843 1783.18 683.858 1781.64 663.756 1776.19 C 665.94 1765.91 674.44 1745.77 673.448 1738.11 C 661.26 1718.18 652.07 1767.07 651.037 1772.43 z"/>
<path transform="translate(0,0)" fill="rgb(87,98,238)" d="M 644.398 1128.95 C 652.595 1134.31 664.213 1136.08 673.675 1137.98 C 672.029 1151.95 684.289 1148.7 698.147 1152.6 C 762.757 1170.82 800.91 1233.73 824.795 1291.92 C 857.742 1291.26 889.17 1290.77 914.769 1315.07 C 946.047 1344.75 946.033 1387.74 923.507 1421.97 C 914.694 1384.87 882.277 1356.33 878.589 1374.49 C 879.855 1382.05 899.002 1395.35 904.189 1404.04 C 908.948 1412.02 908.17 1421.28 911.955 1428.98 C 896.309 1436.76 879.955 1444.72 862.544 1447.64 C 855.912 1428.09 845.891 1413.75 829.648 1400.84 C 815.961 1413.7 827.575 1414.09 836.637 1425.29 C 843.121 1433.31 847.129 1442.49 850.783 1452.05 C 754.821 1465.39 651.919 1373.34 625.726 1287.15 C 608.823 1231.53 617.25 1179.56 644.398 1128.95 z"/>
<path transform="translate(0,0)" fill="rgb(20,187,171)" d="M 1415.82 808.412 C 1432.49 806.63 1448.86 814.644 1464.99 818.191 C 1468.73 819.437 1472.75 820.473 1476.12 822.549 C 1483.49 827.943 1500.83 847.676 1506.35 849.76 C 1530.86 882.622 1527.52 964.551 1522.08 1002.13 C 1507.79 1100.93 1460.45 1212.04 1360.72 1250.13 C 1357.72 1210.91 1344.18 1166.87 1330.54 1130.11 C 1326.23 1118.49 1314.13 1095.15 1313 1084.19 C 1336.87 1057.53 1369.31 970.967 1377.69 937.682 C 1392.05 940.301 1411.39 948.823 1415.82 929.99 C 1422.5 928.849 1427.76 919.429 1420.09 915.801 C 1408.15 910.153 1394.1 915.93 1376.41 903.526 C 1336.01 875.195 1353.89 814.6 1402.59 808.412 C 1406.96 808.631 1411.44 808.42 1415.82 808.412 z"/>
<path transform="translate(0,0)" fill="rgb(1,1,1)" d="M 1464.99 818.191 C 1468.73 819.437 1472.75 820.473 1476.12 822.549 C 1463.1 932.407 1447.92 860.756 1464.99 818.191 z"/>
<path transform="translate(0,0)" fill="rgb(1,1,1)" d="M 1402.59 808.412 C 1406.96 808.631 1411.44 808.42 1415.82 808.412 C 1411.74 827.884 1412.4 852.47 1402.57 869.868 C 1384.36 880.143 1400.29 815.057 1402.59 808.412 z"/>
<path transform="translate(0,0)" fill="rgb(20,187,171)" d="M 1051.64 1128.95 C 1071.76 1123.58 1092.6 1120.89 1112.79 1115.51 C 1178.6 1097.96 1219.26 1073.49 1273.99 1037.69 C 1277.97 1044.88 1281.79 1051.94 1284.9 1059.55 C 1347.4 1184.78 1377.32 1332.31 1331.54 1468.13 C 1296.85 1571.06 1218.64 1666.21 1120.64 1714.5 C 941.86 1802.58 755.809 1690.55 674.807 1524.43 C 656.315 1486.5 634.286 1425.63 631.929 1383.85 C 635.791 1386.21 639.992 1389.4 644.398 1390.5 C 676.062 1423.62 714.085 1450.79 757.939 1465.21 C 768.897 1468.82 790.106 1472.06 799.199 1477.05 C 836.994 1477.7 859.412 1478.74 895.625 1463.82 C 923.145 1446.09 939.98 1428.68 951.263 1397.34 C 953.398 1373.19 953.076 1355.29 944.569 1332.33 C 913.244 1286.22 893.631 1277.1 833.766 1277.05 C 807.798 1213.3 764.432 1157.43 696.236 1136.96 C 688.565 1134.66 679.273 1130.34 673.675 1137.98 C 664.213 1136.08 652.595 1134.31 644.398 1128.95 C 683.476 1068.11 723.442 1098.88 773.144 1119.05 C 809.214 1133.68 914.445 1153.36 955.095 1145.13 L 955.297 1145.51 C 954.44 1150.49 891.142 1179.38 908.013 1243.78 C 935.821 1349.94 1106.25 1308.84 1073.16 1201.03 C 1063.93 1170.97 1045.45 1159.23 1019.3 1145.13 C 1026.63 1138.02 1033.92 1136.1 1042.16 1130.89 C 1044.5 1129.53 1048.88 1129.37 1051.64 1128.95 z M 944.569 1332.33 C 953.076 1355.29 953.398 1373.19 951.263 1397.34 C 956.658 1401.87 963.404 1407.23 969.692 1400.84 C 972.139 1378.04 966.127 1344.88 944.569 1332.33 z"/>
<path transform="translate(0,0)" fill="rgb(255,255,255)" d="M 951.263 1397.34 C 956.658 1401.87 963.404 1407.23 969.692 1400.84 C 963.831 1439.61 932.412 1470.24 895.625 1481.31 C 879.254 1488.5 810.098 1491.91 799.199 1477.05 C 836.994 1477.7 859.412 1478.74 895.625 1463.82 C 923.145 1446.09 939.98 1428.68 951.263 1397.34 z"/>
<path transform="translate(0,0)" fill="rgb(87,98,238)" d="M 1245.01 251.437 C 1288.76 292.815 1305.64 422.914 1295.51 486.485 C 1282.81 566.248 1278.48 598.267 1336.64 668.431 C 1343.53 676.745 1354.25 685.56 1358.45 695.542 C 1366.36 714.37 1356.35 777.291 1346.44 796.424 C 1341.76 805.472 1333.31 812.113 1328.43 821.103 C 1323.33 830.504 1322.28 841.279 1317.83 850.798 C 1302.12 884.342 1240.87 933.592 1211.44 955.37 C 1142.72 957.607 1074.52 994.996 996.336 1000.27 C 926.865 1004.97 777.817 987.593 718.881 942.498 C 648.681 909.392 582.78 824.42 569.709 747.338 C 563.308 709.587 579.149 702.931 599.438 672.747 C 623.671 636.695 638.097 598.055 644.398 555.227 C 611.78 472.783 590.9 327.823 651.037 256.854 L 669.392 256.854 C 752.418 264.691 861.646 401.15 878.824 396.085 C 884.838 408.162 948.899 393.202 962.975 392.69 C 997.555 391.431 1031.41 400.858 1061.51 399.68 C 1083.04 398.837 1090.16 372.976 1102.27 358.3 C 1125.73 329.887 1157 303.127 1188 283.455 C 1201.02 275.189 1237.15 259.972 1245.01 251.437 z M 651.037 256.854 C 590.9 327.823 611.78 472.783 644.398 555.227 C 638.097 598.055 623.671 636.695 599.438 672.747 C 579.149 702.931 563.308 709.587 569.709 747.338 C 582.78 824.42 648.681 909.392 718.881 942.498 L 719.132 941.798 C 717.812 939.728 718.594 940.49 716.662 939.178 C 682.391 915.913 625.612 836.751 608.614 799.169 C 570.059 713.93 630.807 697.764 660.944 632.443 C 675.85 600.136 675.156 570.876 686.651 540.814 C 708.363 484.037 759.207 449.466 812.173 425.667 C 812.349 421.572 813.966 417.764 813.591 413.615 L 812.173 413.144 C 805.808 410.642 803.124 408.497 799.199 402.907 C 764.134 363.306 731.463 325.006 673.675 324.673 C 648.408 325.778 656.248 343.667 643.996 357.146 L 642.328 356.418 C 637.728 347.296 643.626 333.071 647.77 324.673 C 649.904 300.92 657.989 277.701 669.392 256.854 L 651.037 256.854 z"/>
<path transform="translate(0,0)" fill="rgb(1,1,1)" d="M 745.289 768.286 C 751.058 765.221 758.156 764.018 763.361 768.616 C 766.469 778.497 724.98 782.006 713.491 785.536 C 671.413 794.532 700.053 765.237 745.289 768.286 z"/>
<path transform="translate(0,0)" fill="rgb(1,1,1)" d="M 1178.09 808.412 C 1188.79 809.342 1252.91 841.887 1241.04 858.516 C 1229.1 859.502 1217.68 844.793 1208.47 838.447 C 1193.84 828.366 1170.44 822.875 1178.09 808.412 z"/>
<path transform="translate(0,0)" fill="rgb(1,1,1)" d="M 1196.03 756.683 C 1211.71 757.598 1278.95 757.806 1273.99 778.269 C 1258.53 777.951 1185.21 779.096 1196.03 756.683 z"/>
<path transform="translate(0,0)" fill="rgb(1,1,1)" d="M 778.755 808.412 C 785.004 808.093 790.514 813.871 784.699 818.559 C 774.979 826.395 724.428 860.307 713.491 866.531 C 708.842 867.307 704.589 865.189 706.716 860.061 C 712.903 845.148 762.838 816.01 778.755 808.412 z"/>
<path transform="translate(0,0)" fill="rgb(1,1,1)" d="M 673.675 679.82 C 695.556 679.797 767.46 706.624 775.775 720.419 C 776.315 724.001 775.254 726.218 773.887 729.501 C 762.571 726.613 750.944 719.062 740.16 714.312 C 721.151 705.941 663.155 697.829 673.675 679.82 z"/>
<path transform="translate(0,0)" fill="rgb(255,255,255)" d="M 815.458 749.131 C 789.762 710.766 850.258 681.213 839.283 717.913 C 830.419 747.551 837.858 754.857 850.783 778.269 C 829.516 769.476 824.758 753.811 815.458 749.131 z"/>
<path transform="translate(0,0)" fill="rgb(1,1,1)" d="M 1267.8 679.82 C 1273.01 678.47 1281.83 678.091 1281.04 685.531 C 1275.65 691.695 1245.01 697.042 1235.13 700.677 C 1213.26 708.725 1192.26 719.266 1171.36 729.501 C 1169.49 730.354 1167.99 730.641 1165.99 731.07 C 1137 720.176 1241.41 681.645 1267.8 679.82 z"/>
<path transform="translate(0,0)" fill="rgb(1,1,1)" d="M 1102.17 408.356 C 1097.88 410.375 1094.87 408.905 1092.38 404.976 C 1090.95 378.925 1167.39 320.95 1189.44 310.817 C 1200.06 305.937 1203.87 301.527 1211.44 311.918 C 1204.14 319.759 1188.92 324.814 1179.66 330.443 C 1150.84 347.955 1119.37 378.768 1102.17 408.356 z"/>
<path transform="translate(0,0)" fill="rgb(1,1,1)" d="M 1241.04 337.353 C 1276.74 343.327 1267.28 466.522 1258.73 492.795 L 1248.82 487.947 C 1253.51 455.563 1256.32 424.36 1251.76 391.729 C 1249.75 377.267 1239.54 349.733 1241.04 337.353 z"/>
<path transform="translate(0,0)" fill="rgb(1,1,1)" d="M 647.77 324.673 C 668.29 313.436 691.432 309.802 714.048 316.555 C 742.605 325.082 830.971 399.262 812.173 413.144 C 805.808 410.642 803.124 408.497 799.199 402.907 C 764.134 363.306 731.463 325.006 673.675 324.673 C 648.408 325.778 656.248 343.667 643.996 357.146 L 642.328 356.418 C 637.728 347.296 643.626 333.071 647.77 324.673 z"/>
<path transform="translate(0,0)" fill="rgb(1,1,1)" d="M 1111.51 534.361 C 1147.28 531.216 1238.09 567.248 1197.09 588.977 C 1183.89 595.969 1155.16 573.72 1137.21 567.644 C 1098.13 558.679 1086.96 578.544 1057.45 591.71 C 1006.13 565.406 1089.36 536.969 1111.51 534.361 z"/>
<path transform="translate(0,0)" fill="rgb(1,1,1)" d="M 789.591 534.361 C 822.514 528.604 925.073 569.458 866.144 591.71 C 844.683 583.542 831.002 568.275 806.452 567.644 C 767.202 558.651 738.748 603.669 718.837 590.342 C 683.325 566.574 770.555 536.375 789.591 534.361 z"/>
<path transform="translate(0,0)" fill="rgb(1,1,1)" d="M 958.069 729.501 C 944.003 724.002 930.527 717.09 920.083 705.909 C 870.546 652.881 975.684 657.861 1003.55 661.746 C 1062.56 669.972 987.755 718.624 969.692 729.501 C 969.162 738.625 969.034 747.566 969.692 756.683 C 1008.99 795.181 1081.14 797.319 1107.13 742.904 C 1111.23 734.317 1111.82 719.526 1119.65 713.883 C 1141.99 712.385 1110.5 764.131 1101.74 772.756 C 1065.6 808.339 999.368 803.649 965.047 768.286 C 932.167 804.536 877.829 810.468 836.313 785.262 C 825.629 778.775 800.271 761.019 815.458 749.131 C 824.758 753.811 829.516 769.476 850.783 778.269 C 878.225 802.95 934.902 782.729 958.069 756.683 C 956.954 747.612 957.596 738.589 958.069 729.501 z"/>
<path transform="translate(0,0)" fill="rgb(213,211,215)" d="M 1000.48 671.052 L 1013.51 675.869 C 1002.06 693.47 980.415 710.961 960.733 718.304 C 957.57 717.041 954.172 715.915 951.263 714.144 C 962.5 697.364 989.754 685.383 1000.48 671.052 z"/>
<path transform="translate(0,0)" fill="rgb(255,255,255)" d="M 918.183 679.82 C 942.618 667.887 973.959 670.818 1000.48 671.052 C 989.754 685.383 962.5 697.364 951.263 714.144 C 936.856 704.469 925.376 696.124 918.183 679.82 z"/>
<path transform="translate(0,0)" fill="rgb(252,98,93)" d="M 1211.44 311.918 C 1221.54 318.105 1235.27 326.562 1241.04 337.353 C 1239.54 349.733 1249.75 377.267 1251.76 391.729 C 1256.32 424.36 1253.51 455.563 1248.82 487.947 L 1258.73 492.795 C 1253.71 503.034 1241.99 485.629 1234.82 479.601 C 1180.1 433.593 1155.19 435.827 1103.61 409.116 L 1102.17 408.356 C 1119.37 378.768 1150.84 347.955 1179.66 330.443 C 1188.92 324.814 1204.14 319.759 1211.44 311.918 z"/>
<path transform="translate(0,0)" fill="rgb(252,98,93)" d="M 644.398 432.866 C 647.388 436.681 662.742 502.828 663.756 511.594 C 647.055 510.677 643.664 445.29 644.398 432.866 z"/>
<path transform="translate(0,0)" fill="rgb(252,98,93)" d="M 673.675 324.673 C 731.463 325.006 764.134 363.306 799.199 402.907 C 785.794 416.614 752.583 429.345 734.76 441.699 C 711 458.168 693.589 479.452 673.675 499.879 C 647.592 454.616 660.462 372.948 673.675 324.673 z"/>
</svg>