<svg version="1.1" xmlns="http://www.w3.org/2000/svg" style="display: block;" viewBox="0 0 2048 2048" width="512" height="512">
<defs>
	<linearGradient id="Gradient1" gradientUnits="userSpaceOnUse" x1="775.344" y1="221.136" x2="445.648" y2="583.451">
		<stop class="stop0" offset="0" stop-opacity="1" stop-color="rgb(141,189,241)"/>
		<stop class="stop1" offset="1" stop-opacity="1" stop-color="rgb(113,150,247)"/>
	</linearGradient>
	<linearGradient id="Gradient2" gradientUnits="userSpaceOnUse" x1="1305.93" y1="530.833" x2="1577.44" y2="272.688">
		<stop class="stop0" offset="0" stop-opacity="1" stop-color="rgb(168,214,239)"/>
		<stop class="stop1" offset="1" stop-opacity="1" stop-color="rgb(198,238,238)"/>
	</linearGradient>
	<linearGradient id="Gradient3" gradientUnits="userSpaceOnUse" x1="898.068" y1="1656.37" x2="1145.11" y2="1380.89">
		<stop class="stop0" offset="0" stop-opacity="1" stop-color="rgb(142,216,242)"/>
		<stop class="stop1" offset="1" stop-opacity="1" stop-color="rgb(215,242,241)"/>
	</linearGradient>
	<linearGradient id="Gradient4" gradientUnits="userSpaceOnUse" x1="694.033" y1="1289.78" x2="1349.35" y2="431.508">
		<stop class="stop0" offset="0" stop-opacity="1" stop-color="rgb(161,188,246)"/>
		<stop class="stop1" offset="1" stop-opacity="1" stop-color="rgb(204,236,238)"/>
	</linearGradient>
</defs>
<path transform="translate(0,0)" fill="url(#Gradient1)" d="M 499.041 638.092 C 467.356 557.076 448.994 483.242 454.793 395.559 C 461.803 289.548 512.749 172.034 636.262 181.827 C 728.321 189.127 856.804 281.55 915.613 351.055 C 753.651 380.879 572.213 484.162 499.041 638.092 z"/>
<path transform="translate(0,0)" fill="url(#Gradient2)" d="M 1131.1 351.055 C 1141.5 334.412 1159.37 319.537 1174.07 306.503 C 1245.89 242.83 1400.13 131.281 1500.86 194.799 C 1613.06 265.556 1601.15 449.805 1577.88 560.898 C 1571.89 589.48 1563.39 617.451 1557.4 646.018 C 1552 645.329 1545.64 630.145 1543 625.72 C 1459.84 486.614 1317.54 394.504 1160.79 358.415 C 1150.8 356.115 1140.68 354.882 1131.1 351.055 z"/>
<path transform="translate(0,0)" fill="rgb(150,185,247)" d="M 1478.66 1181.78 C 1575.37 1369.99 1579.58 1465.51 1512.42 1674.37 C 1490.44 1742.73 1465.76 1794.57 1398.6 1829.24 C 1319.38 1870.14 1222.84 1856.46 1165.58 1786.72 C 1075.52 1830.16 974.017 1824.86 883.607 1786.72 C 874.111 1795.52 864.736 1804.83 854.52 1812.8 C 777.862 1872.56 656.625 1860.43 591.047 1789.25 C 555.588 1750.76 545.952 1700.23 532.064 1651.49 C 501.844 1545.45 477.648 1459.44 502.468 1345.47 C 514.027 1292.39 540.501 1227.85 573.404 1185.77 L 574.337 1186.65 C 595.362 1206.77 608.958 1224.22 632.245 1243.41 C 702.689 1301.49 782.816 1338.61 871.162 1359.32 C 880.14 1361.42 902.496 1363.94 908.945 1368.06 C 991.003 1311.69 1058.04 1319.71 1136.23 1371.08 C 1142.26 1367.99 1164.54 1366.72 1172.54 1365.09 C 1291.94 1340.87 1399.65 1273.85 1478.66 1181.78 z"/>
<path transform="translate(0,0)" fill="url(#Gradient3)" d="M 908.945 1368.06 C 991.003 1311.69 1058.04 1319.71 1136.23 1371.08 C 1227.21 1445.89 1236.32 1583.19 1143.88 1662.66 C 1066.79 1728.95 947.323 1719.44 881.837 1641.48 C 810.696 1556.79 825.5 1437.94 908.945 1368.06 z"/>
<path transform="translate(0,0)" fill="url(#Gradient4)" d="M 915.613 351.055 L 916.469 351.008 C 982.024 346.932 1017.96 336.798 1090.57 345.955 C 1104 347.65 1117.54 350.918 1131.1 351.055 C 1140.68 354.882 1150.8 356.115 1160.79 358.415 C 1317.54 394.504 1459.84 486.614 1543 625.72 C 1545.64 630.145 1552 645.329 1557.4 646.018 C 1559.37 661.881 1568.99 675.988 1574.4 690.792 C 1639.37 868.534 1598.66 1036.21 1478.66 1181.78 C 1399.65 1273.85 1291.94 1340.87 1172.54 1365.09 C 1164.54 1366.72 1142.26 1367.99 1136.23 1371.08 C 1058.04 1319.71 991.003 1311.69 908.945 1368.06 C 902.496 1363.94 880.14 1361.42 871.162 1359.32 C 782.816 1338.61 702.689 1301.49 632.245 1243.41 C 608.958 1224.22 595.362 1206.77 574.337 1186.65 L 573.404 1185.77 C 568.352 1183.72 562.037 1174.77 558.583 1170.52 C 457.559 1046.05 418.565 881.331 464.818 725.814 C 473.832 695.504 488.777 667.803 499.041 638.092 C 572.213 484.162 753.651 380.879 915.613 351.055 z"/>
<path transform="translate(0,0)" fill="rgb(124,158,247)" d="M 812.599 673.382 C 850.215 666.854 904.453 696.231 900.761 738.38 C 897.278 778.141 852.106 789.105 825.339 751.492 L 823.405 748.999 C 818.327 749.056 809.566 770.902 787.463 774.652 C 726.68 784.964 715.857 684.021 812.599 673.382 z"/>
<path transform="translate(0,0)" fill="rgb(150,185,247)" d="M 1223.59 673.382 C 1259.28 665.561 1314 697.368 1309.7 738.446 C 1305.65 777.235 1258.35 791.382 1230.39 751.492 L 1228.75 749.571 L 1227.09 750.225 C 1196.8 793.939 1147.12 773.705 1145.58 736.096 C 1144 697.431 1190.74 674.163 1223.59 673.382 z"/>
<path transform="translate(0,0)" fill="rgb(182,229,248)" d="M 1018.42 949.076 L 1019.84 948.997 C 1059.92 946.95 1067.12 979.166 1091.89 1001.12 C 1123.55 1029.16 1174.84 1031.61 1210.61 1010.09 C 1240.21 992.28 1258.97 950.761 1296.2 985.715 C 1377.79 1062.31 1135.88 1180.32 1028.32 1069.69 C 1026.67 1069.24 920.123 1158.22 793.789 1087.33 C 773.785 1076.11 743.617 1057.1 737.422 1033.31 C 730.671 1007.38 747.34 981.092 773.38 975.342 C 812.494 966.705 829.319 1027.2 897.986 1024.95 C 978.948 1022.31 969.858 960.398 1018.42 949.076 z"/>
</svg>