<svg version="1.1" xmlns="http://www.w3.org/2000/svg" style="display: block;" viewBox="0 0 2048 2048" width="512" height="512">
<path transform="translate(0,0)" fill="rgb(0,0,0)" d="M 1575.73 1150.1 C 1612.88 1149.82 1627.91 1235.95 1633.8 1264.7 C 1650.07 1344.14 1645.84 1431.13 1620.38 1508.16 C 1613.74 1528.23 1606.68 1559.31 1582.25 1563.77 C 1529.05 1568.75 1569.24 1494.77 1574.52 1477.38 C 1601.69 1387.86 1594.89 1295.36 1563.31 1208.38 C 1554.86 1185.1 1541.8 1157.12 1575.73 1150.1 z"/>
<path transform="translate(0,0)" fill="rgb(0,0,0)" d="M 676.098 447.545 C 654.245 443.653 646.874 429.148 651.586 408.195 C 661.927 362.204 677.216 281.558 716.399 257.221 C 795.775 207.917 900.303 342.25 933.466 407.537 C 997.507 395.634 1051.82 397.287 1115.99 407.537 C 1147.8 344.125 1250.94 212.034 1335.58 255.949 C 1406.72 292.855 1418.45 491.586 1409.72 556.883 C 1402.13 613.686 1404.77 585.569 1420.25 636.692 C 1433.34 679.902 1439 722.108 1438.49 767.198 C 1457.51 770.578 1494.76 774.041 1506.4 791.003 C 1519.74 810.449 1502.37 828.986 1483.99 833.9 C 1467.13 828.826 1450.11 823.948 1432.65 821.451 C 1428.95 839.012 1424.48 856.556 1417.99 873.317 C 1435.96 880.174 1477.18 895.008 1485.41 912.923 C 1491.71 926.634 1484.32 943.087 1470.49 948.526 C 1453.38 955.254 1409.51 928.188 1392.57 921.28 C 1380.23 941.647 1366.8 957.786 1353.46 976.947 C 1436.43 1032.73 1501.64 1147.4 1520.29 1242.93 C 1527.6 1280.37 1536.39 1350.08 1529.5 1386.74 C 1524.73 1412.12 1511.42 1427.52 1496.82 1447.38 C 1495.67 1461.97 1496.76 1477.03 1496.79 1491.68 L 1496.48 1571.9 C 1496.44 1583.07 1497.17 1594.32 1496.82 1605.48 C 1601.87 1744.42 1397.74 1851.37 1383.69 1775.57 C 1365.54 1774.62 1347.02 1775.65 1328.81 1775.57 C 1313.04 1827.06 1220.2 1791.61 1193.17 1757.24 C 1171.62 1758.18 1149.63 1757.27 1128.04 1757.25 L 899.531 1757.26 C 883.263 1757.28 866.427 1758.42 850.246 1757.24 C 830.378 1778.02 811.482 1792.5 782.383 1797.6 C 761.248 1801.31 638.73 1800.88 617.301 1796.83 C 526.122 1779.64 498.368 1677.8 550.48 1605.48 C 551.277 1586.84 550.616 1568.13 550.555 1549.48 L 550.394 1450.06 C 550.422 1426.83 554.248 1396.87 550.48 1374.83 C 543.489 1362.49 533.977 1351.21 525.801 1339.61 C 393.888 1152.43 397.337 993.916 400.67 780.975 C 402.468 666.077 528.749 616.871 610.313 702.994 C 614.075 663.842 633.795 622.59 653.997 589.359 C 643.524 564.886 625.647 509.932 669.3 508.842 C 669.946 498.34 676.494 450.88 676.098 447.545 z"/>
<path transform="translate(0,0)" fill="rgb(255,255,255)" d="M 1324.45 1464.25 L 1317.28 1463.48 C 1315.27 1460.47 1314.08 1454.73 1315.19 1451.21 L 1313.78 1449.45 L 1314.34 1447.38 C 1321.58 1453.06 1328.77 1458.85 1336.22 1464.25 C 1332.23 1464.5 1328.43 1464.54 1324.45 1464.25 z"/>
<path transform="translate(0,0)" fill="rgb(255,255,255)" d="M 700.106 899.659 C 705.509 899.67 711.069 900.55 716.452 901.085 L 721.174 902.048 C 723.727 907.869 713.632 913.292 709.604 915.95 C 705.276 910.909 702.787 905.67 700.106 899.659 z"/>
<path transform="translate(0,0)" fill="rgb(188,222,246)" d="M 657.837 802.778 C 667.082 803.937 676.313 805.884 685.49 807.512 C 687.502 820.218 694.471 835.422 700.106 847.03 C 689.868 846.684 679.546 846.994 669.3 847.03 C 665.623 832.232 661.068 817.695 657.837 802.778 z"/>
<path transform="translate(0,0)" fill="rgb(254,240,131)" d="M 737.376 1010.89 C 746.806 1018.09 756.6 1024.72 766.897 1030.61 C 754.444 1044.21 739.335 1055.65 726.359 1068.92 C 715.571 1061.91 704.637 1055.06 694.234 1047.48 C 705.728 1032.61 722.403 1021.9 737.376 1010.89 z"/>
<path transform="translate(0,0)" fill="rgb(255,255,255)" d="M 1294.49 821.451 C 1323.15 815.884 1350.32 813.21 1379.51 813.981 C 1376.33 828.764 1371.78 843.229 1367.09 857.593 C 1343.32 851.144 1318.97 849.87 1294.49 848.866 C 1298.01 845.128 1311.63 849.167 1317.37 847.795 C 1315.87 845.225 1309.96 845.291 1307.3 843.102 C 1311.26 837.668 1332.46 838.388 1327.21 828.007 C 1313.8 821.465 1300.27 824.31 1294.49 821.451 z"/>
<path transform="translate(0,0)" fill="rgb(121,199,247)" d="M 685.49 807.512 C 708.103 810.568 733 814.583 755.787 813.981 C 747.15 818.502 758.719 841.961 761.197 848.866 C 740.65 848.963 720.592 848.73 700.106 847.03 C 694.471 835.422 687.502 820.218 685.49 807.512 z"/>
<path transform="translate(0,0)" fill="rgb(255,255,255)" d="M 635.795 901.085 C 642.806 907.939 647.347 920.271 653.229 928.458 C 665.521 945.568 679.71 961.704 694.234 976.947 C 687.637 981.998 681.798 987.198 676.098 993.257 C 669.298 998.523 663.657 1004.6 657.837 1010.89 C 627.426 980.511 637.75 939.813 635.795 901.085 z"/>
<path transform="translate(0,0)" fill="rgb(121,199,247)" d="M 1478.75 1351.79 C 1485.76 1463.48 1316.93 1449.73 1328.81 1345.53 C 1327.55 1390.35 1434.7 1447.04 1478.75 1351.79 z"/>
<path transform="translate(0,0)" fill="rgb(254,240,131)" d="M 737.376 310.092 C 763.718 258.144 855.098 388.669 878.868 412.373 C 864.247 419.253 859.356 419.153 850.246 433.966 C 824.064 396.692 804.176 355.866 761.197 333.935 C 748.693 333.072 738.165 322.221 737.376 310.092 z"/>
<path transform="translate(0,0)" fill="rgb(254,240,131)" d="M 1161.62 433.966 C 1177.01 400.68 1268.49 271.627 1314.34 304.612 C 1313.08 323.36 1292.42 330.11 1279.5 340.199 C 1227.92 380.486 1226.31 404.719 1193.17 447.545 L 1192.61 446.078 C 1183.21 439.401 1172.53 437.096 1161.62 433.966 z"/>
<path transform="translate(0,0)" fill="rgb(254,195,2)" d="M 1093.1 1281.18 C 1088.05 1217.24 1044.15 1268.21 1019.34 1264.11 C 971.687 1256.23 976.636 1185.76 1024.3 1181.76 C 1059.1 1178.85 1065.71 1229.56 1103.58 1201.02 C 1114.19 1227.88 1111.11 1258.32 1093.1 1281.18 z"/>
<path transform="translate(0,0)" fill="rgb(254,240,131)" d="M 737.376 310.092 C 738.165 322.221 748.693 333.072 761.197 333.935 L 760.733 335.876 C 750.086 379.654 731.88 423.81 720.74 469.358 C 713.701 498.138 708.93 511.73 726.359 537.211 C 717.652 537.815 701.376 535.302 694.234 537.211 C 690.218 521.608 686.353 512.813 669.3 508.842 C 669.946 498.34 676.494 450.88 676.098 447.545 C 718.548 439.98 705.902 350.343 737.376 310.092 z"/>
<path transform="translate(0,0)" fill="rgb(254,240,131)" d="M 1317.81 1578.07 C 1334.07 1577.99 1350.9 1577.02 1367.09 1578.07 C 1367.5 1615.52 1390.1 1605.17 1416.21 1613.12 C 1464.99 1627.96 1487.51 1679.08 1460.43 1722.1 C 1447.2 1697.77 1447.72 1683.55 1421.59 1662.86 C 1369.74 1621.82 1280.82 1635.07 1247.43 1693.49 C 1242.05 1702.92 1239.75 1713.74 1232.49 1722.1 C 1207.82 1679.2 1222.58 1628.12 1272.72 1612.09 C 1295.17 1604.91 1319.23 1612.43 1317.81 1578.07 z"/>
<path transform="translate(0,0)" fill="rgb(121,199,247)" d="M 657.837 1235.2 C 657.641 1246.05 666.83 1253.19 666.116 1264.83 C 663.393 1309.18 641.895 1356.75 648.986 1406.68 C 692.908 1394.03 684.119 1443.63 685.49 1468.84 C 681.287 1488.21 672.881 1492.57 653.997 1493.78 C 655.706 1515.52 653.771 1537.8 653.997 1559.64 C 634.913 1558.39 620.539 1560.51 602.655 1567.49 L 602.61 1475.19 C 602.601 1408.16 605.367 1343.41 634.775 1282.13 C 640.846 1269.48 656.67 1247.73 657.837 1235.2 z"/>
<path transform="translate(0,0)" fill="rgb(0,0,0)" d="M 648.986 1406.68 C 692.908 1394.03 684.119 1443.63 685.49 1468.84 C 681.287 1488.21 672.881 1492.57 653.997 1493.78 C 626.479 1483.36 628.809 1421.89 648.986 1406.68 z"/>
<path transform="translate(0,0)" fill="rgb(254,195,2)" d="M 761.197 333.935 C 804.176 355.866 824.064 396.692 850.246 433.966 C 881.347 503.626 818.052 482.618 789.268 495.337 C 759.581 508.455 766.682 534.459 726.359 537.211 C 708.93 511.73 713.701 498.138 720.74 469.358 C 731.88 423.81 750.086 379.654 760.733 335.876 L 761.197 333.935 z"/>
<path transform="translate(0,0)" fill="rgb(254,195,2)" d="M 1232.49 1722.1 C 1239.75 1713.74 1242.05 1702.92 1247.43 1693.49 C 1280.82 1635.07 1369.74 1621.82 1421.59 1662.86 C 1447.72 1683.55 1447.2 1697.77 1460.43 1722.1 C 1434.42 1758.68 1385.79 1735.78 1383.85 1772.95 L 1383.69 1775.57 C 1365.54 1774.62 1347.02 1775.65 1328.81 1775.57 C 1323.93 1726.49 1264.91 1766.7 1232.49 1722.1 z"/>
<path transform="translate(0,0)" fill="rgb(254,195,2)" d="M 1314.34 304.612 C 1352.19 334.311 1362.91 499.873 1356.62 554.827 C 1320.91 534.44 1314.64 546.569 1285.92 508.311 C 1260.16 473.988 1182.41 506.887 1193.17 447.545 C 1226.31 404.719 1227.92 380.486 1279.5 340.199 C 1292.42 330.11 1313.08 323.36 1314.34 304.612 z"/>
<path transform="translate(0,0)" fill="rgb(121,199,247)" d="M 568.978 1310.45 C 456.702 1142.61 454.373 1035.5 454.417 845.028 C 454.429 796.978 443.795 723.265 509.429 712.984 C 492.398 755.411 498.763 804.467 498.754 849.038 C 498.726 976.803 495.014 1057.45 547.047 1177.5 C 553.854 1193.21 578.933 1243.39 591.235 1252.2 C 581.833 1270.79 575.557 1290.75 568.978 1310.45 z"/>
<path transform="translate(0,0)" fill="rgb(121,199,247)" d="M 803.014 887.063 C 856.381 1008.88 1076.96 1020.02 1185.45 987.053 C 1231.27 973.132 1299.8 941.759 1324.45 901.085 L 1340.28 905.14 C 1314.37 956.529 1234.26 1001.52 1183 1018.42 C 1043.74 1064.36 802.956 1045.46 709.604 915.95 C 713.632 913.292 723.727 907.869 721.174 902.048 L 716.452 901.085 C 744.208 900.581 783.052 910.65 803.014 887.063 z"/>
<path transform="translate(0,0)" fill="rgb(254,195,2)" d="M 761.197 1596.57 C 791.49 1604.19 810.956 1630.09 824.983 1656.21 L 824.983 1662.93 C 816.44 1755.4 783.694 1746.8 702.418 1746.83 C 667.808 1746.85 625.698 1754.43 597.37 1729.97 C 573.998 1707.31 569.942 1675.11 586.467 1646.53 C 626.995 1576.43 736.386 1639.88 761.197 1596.57 z"/>
<path transform="translate(0,0)" fill="rgb(254,240,131)" d="M 761.197 1596.57 C 791.49 1604.19 810.956 1630.09 824.983 1656.21 L 824.983 1662.93 C 813.532 1673.82 803.508 1685.81 792.398 1696.98 C 752.301 1612.03 628.347 1620.03 603.596 1692.94 C 599.474 1705.08 600.71 1717.9 597.37 1729.97 C 573.998 1707.31 569.942 1675.11 586.467 1646.53 C 626.995 1576.43 736.386 1639.88 761.197 1596.57 z"/>
<path transform="translate(0,0)" fill="rgb(254,195,2)" d="M 1314.34 1010.89 C 1327.45 1024.22 1342.61 1035.17 1356.62 1047.48 C 1309.45 1074.05 1278.85 1093.41 1225.13 1112.07 C 1193.05 1123.23 1135 1124.06 1151.32 1170.18 C 1136.68 1171.7 1121.96 1174.46 1107.59 1177.68 C 1083.05 1116.61 1007.51 1119.38 959.858 1154.05 C 945.049 1131.74 919.26 1137.6 895.696 1132.37 C 835.631 1119.03 779.095 1101.53 726.359 1068.92 C 739.335 1055.65 754.444 1044.21 766.897 1030.61 C 919.176 1113.75 1131.32 1120.87 1281.33 1032.12 C 1292.59 1025.45 1303.09 1017.57 1314.34 1010.89 z"/>
<path transform="translate(0,0)" fill="rgb(254,195,2)" d="M 1336.22 1464.25 C 1375.38 1481.08 1402.53 1486.98 1444.95 1477.89 L 1444.95 1567.49 C 1421.95 1559.74 1375.98 1543.16 1367.09 1578.07 C 1350.9 1577.02 1334.07 1577.99 1317.81 1578.07 C 1296.58 1521.79 1177.1 1583.1 1167.5 1662.93 C 1165.79 1677.43 1166.4 1690.4 1167.5 1704.91 L 874.015 1704.91 C 874.653 1691.04 876.035 1676.73 874.015 1662.93 C 864.641 1637.93 840.452 1636.9 824.983 1656.21 C 810.956 1630.09 791.49 1604.19 761.197 1596.57 C 776.139 1544.44 682.745 1559.56 653.997 1559.64 C 653.771 1537.8 655.706 1515.52 653.997 1493.78 C 672.881 1492.57 681.287 1488.21 685.49 1468.84 C 757.415 1477.74 796.331 1453.1 872.004 1508.34 C 903.479 1531.31 925.679 1558.1 964.648 1571.62 C 992.413 1581.25 1056.15 1580.8 1084.38 1573.78 C 1175.93 1551.01 1175.03 1475.47 1324.45 1464.25 C 1328.43 1464.54 1332.23 1464.5 1336.22 1464.25 z"/>
<path transform="translate(0,0)" fill="rgb(188,222,246)" d="M 509.429 712.984 C 550.446 709.891 579.181 733.341 581.877 774.945 L 582.093 778.774 C 531.777 770.27 521.681 826.101 579.253 829.893 L 582.093 830.073 L 582.05 916.503 C 582.057 978.667 581.278 1011.82 628.625 1058.99 C 704.581 1134.67 835.249 1185.99 939.591 1191.94 C 904.692 1311.29 1055.27 1357.94 1093.1 1281.18 C 1111.11 1258.32 1114.19 1227.88 1103.58 1201.02 C 1107.67 1193.73 1107.92 1185.8 1107.59 1177.68 C 1121.96 1174.46 1136.68 1171.7 1151.32 1170.18 C 1170.31 1187.43 1182.39 1180.69 1204.85 1174.27 C 1290.3 1149.86 1321.99 1121.88 1392.57 1087.2 C 1450.96 1163.75 1481.23 1255.21 1478.75 1351.79 C 1434.7 1447.04 1327.55 1390.35 1328.81 1345.53 C 1329.56 1319.51 1337.55 1275.56 1334.78 1252.13 C 1331.52 1224.57 1292.74 1223.37 1285.51 1249.41 C 1281.45 1264.03 1281.42 1281.15 1280.12 1296.23 C 1274.23 1364.61 1265.08 1390.51 1314.34 1447.38 L 1313.78 1449.45 L 1315.19 1451.21 C 1314.08 1454.73 1315.27 1460.47 1317.28 1463.48 L 1324.45 1464.25 C 1175.03 1475.47 1175.93 1551.01 1084.38 1573.78 C 1056.15 1580.8 992.413 1581.25 964.648 1571.62 C 925.679 1558.1 903.479 1531.31 872.004 1508.34 C 796.331 1453.1 757.415 1477.74 685.49 1468.84 C 684.119 1443.63 692.908 1394.03 648.986 1406.68 C 641.895 1356.75 663.393 1309.18 666.116 1264.83 C 666.83 1253.19 657.641 1246.05 657.837 1235.2 C 641.754 1182.71 607.682 1221.09 591.235 1252.2 C 578.933 1243.39 553.854 1193.21 547.047 1177.5 C 495.014 1057.45 498.726 976.803 498.754 849.038 C 498.763 804.467 492.398 755.411 509.429 712.984 z"/>
<path transform="translate(0,0)" fill="rgb(188,222,246)" d="M 878.868 412.373 C 901.359 475.256 916.555 460.26 971.597 454.018 C 1012.84 449.341 1055.62 449.052 1096.49 457.205 C 1133.07 464.5 1140.46 468.046 1161.62 433.966 C 1172.53 437.096 1183.21 439.401 1192.61 446.078 L 1193.17 447.545 C 1182.41 506.887 1260.16 473.988 1285.92 508.311 C 1314.64 546.569 1320.91 534.44 1356.62 554.827 C 1343.77 609.895 1347.59 591.796 1365.33 641.361 C 1379.56 681.092 1385.78 719.973 1385.16 762.028 C 1359.26 762.054 1282.8 760.76 1264.55 779.318 C 1246.03 798.162 1262.23 825.761 1294.49 821.451 C 1300.27 824.31 1313.8 821.465 1327.21 828.007 C 1332.46 838.388 1311.26 837.668 1307.3 843.102 C 1309.96 845.291 1315.87 845.225 1317.37 847.795 C 1311.63 849.167 1298.01 845.128 1294.49 848.866 C 1260.83 849.387 1239.23 873.459 1263.99 894.977 C 1275.46 904.948 1309.48 901.388 1324.45 901.085 C 1299.8 941.759 1231.27 973.132 1185.45 987.053 C 1076.96 1020.02 856.381 1008.88 803.014 887.063 C 816.025 852.959 786.312 849.83 761.197 848.866 C 758.719 841.961 747.15 818.502 755.787 813.981 C 788.305 819.372 814.68 799.288 793.637 773.531 C 784.403 762.227 765.063 763.273 751.728 762.028 C 729.765 759.262 707.529 757.739 685.49 755.489 C 676.242 753.595 667.037 751.58 657.837 749.464 C 656.084 711.717 670.191 664.156 688.003 631.219 C 695.213 617.887 705.273 607.203 709.604 592.374 C 705.168 573.598 697.499 556.492 694.234 537.211 C 701.376 535.302 717.652 537.815 726.359 537.211 C 766.682 534.459 759.581 508.455 789.268 495.337 C 818.052 482.618 881.347 503.626 850.246 433.966 C 859.356 419.153 864.247 419.253 878.868 412.373 z"/>
<path transform="translate(0,0)" fill="rgb(121,199,247)" d="M 685.49 755.489 L 686.072 753.536 C 690.576 738.192 692.041 721.92 694.905 706.199 C 699.779 679.443 732.219 582.843 758.005 569.693 C 773.891 561.592 761.492 595.305 760.654 598.906 C 747.658 654.744 754.888 706.629 751.728 762.028 C 729.765 759.262 707.529 757.739 685.49 755.489 z"/>
<path transform="translate(0,0)" fill="rgb(0,0,0)" d="M 1167.5 615.231 C 1271.87 606.932 1255.83 743.007 1204.01 704.575 C 1195.28 698.098 1194.68 685.818 1193.17 675.966 C 1190.76 672.83 1187.96 670.137 1185.15 667.366 C 1160.97 659.75 1162.04 681.857 1154.4 697.216 C 1138.37 729.414 1081.33 699.861 1119.04 643.843 C 1130.56 626.728 1147.79 618.916 1167.5 615.231 z"/>
<path transform="translate(0,0)" fill="rgb(0,0,0)" d="M 865.414 615.231 C 907.91 607.876 957.374 656.477 942.644 692.383 C 937.061 705.991 921.348 713.652 907.707 706.924 C 889.226 697.81 899.177 676.422 880.171 667.934 L 878.868 667.366 C 867.484 664.467 862.679 667.242 854.702 675.966 C 853.522 684.894 854.136 694.87 848.432 702.481 C 828.049 729.678 771.467 692.437 818.406 637.943 C 830.956 623.374 846.459 616.617 865.414 615.231 z"/>
<path transform="translate(0,0)" fill="rgb(0,0,0)" d="M 1011.4 721.376 C 1033.41 720.443 1063.89 718.113 1077.7 739.589 C 1094.07 765.069 1068.7 790.325 1048.43 802.778 C 1049.68 823.648 1056.7 841.855 1076.57 851.911 C 1123.66 875.734 1132.29 820.682 1152.36 814.788 C 1203.16 799.863 1197.08 894.606 1112.98 908.673 C 1083.99 913.523 1058.15 903.778 1034.88 887.063 L 1026.31 879.998 C 932.727 960.815 835.062 851.89 874.908 819.723 C 902.711 797.278 912.106 828.192 923.778 842.33 C 952.692 877.355 1000.43 848.682 1003.26 802.778 C 959.596 780.736 955.001 726.853 1011.4 721.376 z"/>
</svg>