<svg version="1.1" xmlns="http://www.w3.org/2000/svg" style="display: block;" viewBox="0 0 2048 2048" width="512" height="512">
<path transform="translate(0,0)" fill="rgb(0,0,0)" d="M 694.227 965.82 C 622.355 898.329 571.878 805.638 616.25 706.273 C 633.084 668.576 654.163 648.722 660.237 604.504 C 671.963 519.139 566.853 259.646 708.266 240.322 C 774.613 230.572 853.707 309.258 894.934 353.387 C 944.073 345.258 1060.22 340.26 1111.03 353.387 C 1152.46 307.392 1245.78 220.668 1315.67 243.581 C 1398.58 270.761 1370.67 443.199 1358.66 503.849 C 1336.94 613.5 1349.38 622.607 1397.13 716.128 C 1473.35 627.228 1610.2 682.219 1607.99 790.094 C 1607.41 818.266 1595.15 842.865 1584.89 868.514 C 1541.88 976.079 1497.57 1039.14 1416 1117.39 C 1422.08 1133.32 1429.25 1148.83 1435.17 1164.85 C 1488.19 1308.44 1490.08 1514.75 1391.54 1641.33 C 1399.14 1660.88 1402.01 1677.88 1402.07 1698.86 C 1400.73 1751.06 1369.52 1796.73 1315.94 1807.12 C 1296.65 1810.86 1276.7 1808.24 1257.17 1808.28 C 1194.86 1808.43 1153.63 1813.64 1111.03 1757.41 C 1038.91 1769.84 978.356 1772.13 906.048 1757.41 C 890.439 1784.42 864.401 1802.06 833.684 1806.71 C 808.068 1810.59 739.537 1809.91 712.436 1807.58 C 625.569 1800.1 605.75 1719.27 628.968 1646.46 C 621.262 1636.03 615.235 1623.23 609.067 1611.83 C 491.959 1395.48 541.512 1148.33 694.227 965.82 z M 708.266 284.335 C 656.034 301.156 682.793 437.85 688.065 477.499 C 706.576 451.602 725.324 429.112 750.948 409.769 C 781.012 388.048 812.549 376.006 846.98 363.41 C 813.36 333.911 756.692 276.231 708.266 284.335 z M 1284.12 284.335 C 1237.62 290.855 1194.66 332.866 1160.85 363.41 C 1199.26 374.382 1235.65 390.515 1266.95 415.739 C 1287.75 433.193 1305.91 454.158 1319.92 477.499 C 1325.54 441.95 1352.89 275.198 1284.12 284.335 z M 971.19 389.918 C 885.217 396.917 799.685 408.901 740.397 479.18 C 721.68 501.367 699.981 528.945 702.653 559.367 C 710.968 654.048 677.675 664.068 652.727 733.197 C 624.645 811.01 670.391 889.962 729.623 939.151 C 821.144 1015.16 920.715 1033.55 1034.58 1033.11 C 1062.74 1029.58 1090.29 1026.1 1117.88 1019.16 C 1225.95 991.979 1381.27 896.296 1363.67 764.987 C 1357.55 719.344 1328.42 683.789 1313.49 641.46 C 1285.73 562.763 1328.42 516.067 1232 443.562 C 1162.74 391.481 1054.47 388.034 971.19 389.918 z M 1486.73 716.128 C 1457.71 716.101 1420.78 743.301 1410.65 771.107 C 1406.88 781.452 1408.02 794.561 1406.79 805.525 C 1399.09 874.042 1360.99 916.389 1316.87 965.82 C 1348.58 994.988 1377.77 1038.47 1397.13 1076.93 C 1411.86 1059.81 1428.42 1044.43 1443.05 1027.18 C 1476.81 987.35 1568.72 839.04 1564.89 783.237 C 1562.3 745.535 1525.69 710.091 1486.73 716.128 z M 1284.12 993.277 C 1260.76 1001.06 1240.05 1017.36 1217.93 1028.37 C 1199.31 1037.64 1179.34 1043.94 1160.85 1053.23 C 1114.01 1202.05 928.088 1222.49 860.587 1086.58 C 855.241 1075.82 851.364 1064.41 846.98 1053.23 C 801.806 1034.1 770.788 1019.07 728.919 993.277 C 583.399 1159.53 535.302 1410.96 655.174 1605.17 C 675.982 1585.56 698.44 1570.23 725.976 1561.75 C 827.821 1534.74 930.51 1606.7 921.925 1716.71 C 962.432 1721.76 1001.09 1725.38 1041.99 1722.84 C 1061.14 1721.65 1080.03 1716.7 1099.2 1716.71 C 1089.06 1563.83 1278.88 1499.86 1366.1 1605.17 C 1371.66 1593.46 1378.34 1582.45 1384.22 1570.91 C 1473.78 1394.99 1423.76 1159.77 1300.23 1011.31 C 1295.99 1006.22 1289.41 996.741 1284.12 993.277 z M 898.297 1065.12 C 937.351 1137.73 1026.24 1157.79 1087.42 1097.85 C 1096.49 1087.58 1104.57 1077.24 1111.03 1065.12 C 1042.56 1077.81 966.522 1083.5 898.297 1065.12 z M 1246.54 1599.28 C 1139.81 1595.5 1094.33 1764.77 1209.56 1765.17 L 1256.1 1764.99 C 1285.67 1765.14 1317.18 1769.9 1340.05 1746.93 C 1397.3 1689.41 1319.54 1581.62 1246.54 1599.28 z M 754.703 1599.28 C 701.243 1608.68 651.731 1656.65 662.594 1714.35 C 674.419 1777.16 742.489 1765.08 789.223 1764.99 C 814.558 1765.22 838.685 1766.22 858.223 1747.3 C 917.954 1689.44 845.501 1590.76 754.703 1599.28 z"/>
<path transform="translate(0,0)" fill="rgb(0,0,0)" d="M 874.337 617.136 C 835.195 608.786 831.766 633.293 808.033 640.445 C 774.051 650.685 764.93 583.735 853.708 573.386 C 901.57 567.192 973.98 613.962 934.076 638.116 C 916.722 648.62 896.928 623.269 874.337 617.136 z"/>
<path transform="translate(0,0)" fill="rgb(0,0,0)" d="M 1160.85 617.136 C 1121.31 613.226 1117.87 633.543 1093.51 640.718 C 1065.35 649.01 1047.33 585.138 1139.32 573.386 C 1188.69 567.601 1260.64 612.789 1220.74 636.809 C 1202.2 647.975 1183.15 622.315 1162.2 617.438 L 1160.85 617.136 z"/>
<path transform="translate(0,0)" fill="rgb(0,0,0)" d="M 785.113 751.679 C 773.731 753.859 728.259 743.856 715.719 739.623 C 693.737 732.202 692.585 707.36 713.065 698.332 C 729.455 695.899 763.177 703.967 779.701 708.721 C 804.259 715.788 807.914 740.747 785.113 751.679 z"/>
<path transform="translate(0,0)" fill="rgb(0,0,0)" d="M 1238.25 751.679 C 1222.09 751.574 1200.79 735.119 1213.22 718.042 C 1223.73 703.602 1262 701.252 1279.56 698.332 C 1302.63 695.603 1315.93 714.722 1304.77 731.134 C 1296.64 743.086 1253.41 748.485 1238.25 751.679 z"/>
<path transform="translate(0,0)" fill="rgb(0,0,0)" d="M 988.307 796.285 C 957.606 769.851 921.561 731.651 988.307 725.071 C 1063.68 721.738 1088.65 732.284 1028.47 796.285 C 1029.66 812.206 1034.29 827.524 1049.45 835.765 C 1085.73 855.473 1098.34 813.618 1115.7 809.118 C 1136.79 803.649 1147.91 829.957 1136.71 845.652 C 1107.14 887.091 1056.52 894.348 1015.55 864.83 L 1006.68 857.509 C 968.767 893.836 906.451 893.166 876.538 848.436 C 865.906 832.536 870.58 808.677 893.518 809.409 C 912.058 810 927.581 860.587 967.377 834.881 C 981.439 825.798 985.054 811.607 988.307 796.285 z"/>
<path transform="translate(0,0)" fill="rgb(0,0,0)" d="M 1302.88 818.015 C 1286.51 819.469 1232.06 816.898 1219 809.725 C 1200.72 799.681 1205.31 774.577 1225.53 770.411 C 1233.72 769.36 1296.67 774.687 1304.13 777.387 C 1325.07 784.967 1321.54 810.75 1302.88 818.015 z"/>
<path transform="translate(0,0)" fill="rgb(0,0,0)" d="M 725.976 818.015 C 682.942 821.361 687.024 787.085 704.421 780.144 C 719.498 774.129 757.33 772.294 774.807 770.411 C 795.749 768.317 813.331 788.397 796.078 805.823 C 786.105 815.895 740.953 817.755 725.976 818.015 z"/>
<path transform="translate(0,0)" fill="rgb(0,0,0)" d="M 953.254 1197.36 C 1056.64 1242.43 1062.45 1378.31 964.14 1420.65 C 904.087 1446.51 865.181 1417.48 817.211 1386.26 C 759.854 1348.94 715.249 1323.17 687.718 1256.8 C 678.693 1235.04 656.923 1182.75 688.065 1170.11 C 716.274 1169.49 714.553 1191.5 719.415 1213.53 C 733.495 1277.31 767.62 1301.65 817.425 1334.5 C 850.511 1356.33 891.449 1394.15 933.492 1384.36 C 972.545 1375.27 998.278 1334.08 988.745 1294.99 C 971.957 1226.13 880.722 1234.24 874.772 1201.05 C 872.039 1185.8 881.464 1178.57 894.934 1176.91 C 915.936 1178.08 934.32 1189.32 953.254 1197.36 z"/>
</svg>