<svg version="1.1" xmlns="http://www.w3.org/2000/svg" style="display: block;" viewBox="0 0 2048 2048" width="512" height="512">
<defs>
	<linearGradient id="Gradient1" gradientUnits="userSpaceOnUse" x1="290.384" y1="914.676" x2="1696.08" y2="1118.54">
		<stop class="stop0" offset="0" stop-opacity="1" stop-color="rgb(107,1,241)"/>
		<stop class="stop1" offset="1" stop-opacity="1" stop-color="rgb(213,10,255)"/>
	</linearGradient>
</defs>
<path transform="translate(0,0)" fill="rgb(212,0,241)" d="M 1554.67 1288.05 C 1580.58 1285.39 1593.85 1330.8 1580.9 1344.6 C 1552.34 1351.37 1540.17 1296.82 1554.67 1288.05 z"/>
<path transform="translate(0,0)" fill="rgb(212,0,241)" d="M 1586.44 1384.94 C 1616.1 1388.89 1609.13 1485.03 1605.48 1491.34 C 1603.09 1495.49 1599.27 1495.84 1594.95 1496.84 C 1571.67 1494.69 1581.52 1457.64 1580.06 1440.9 C 1578.22 1419.79 1564.52 1394.17 1586.44 1384.94 z"/>
<path transform="translate(0,0)" fill="rgb(212,0,241)" d="M 467.782 1352.98 C 494.847 1354.08 478.072 1398.87 475.919 1414.43 C 466.874 1479.83 466.18 1543.9 471.619 1609.63 C 473.638 1634.04 491.083 1677.26 467.782 1687.93 C 423.908 1691.11 443.003 1438.19 449.69 1395.04 C 452.222 1378.7 450.34 1359.92 467.782 1352.98 z"/>
<path transform="translate(0,0)" fill="url(#Gradient1)" d="M 623.998 584.595 C 579.418 490.246 608.958 366.117 648.145 275.176 C 666.679 232.168 664.688 236.981 708.27 252.431 C 784.197 279.348 858.35 328.33 905.581 394.383 C 987.788 369.141 1065.48 374.441 1147.93 394.383 C 1169.17 335.217 1281.07 273.207 1337.4 253.379 C 1392.87 233.854 1388.49 251.574 1406.54 294.721 C 1450.32 399.373 1452.42 500.868 1428.62 609.175 C 1449.01 653.895 1447.74 699.168 1447.85 746.939 C 1457.92 750.386 1527.34 780.103 1487.96 793.114 C 1482.15 795.033 1450.67 776.657 1443.28 772.797 C 1434.99 795.278 1431.31 818.385 1420.32 840.032 C 1424.23 842.427 1492.33 876.561 1457.41 889.173 C 1448.23 892.486 1422.44 871.898 1410.16 866.89 C 1398.14 880.434 1389.06 898.61 1379.21 913.879 L 1443.28 1012.19 C 1493.3 961.855 1524.4 904.192 1538.11 835.027 C 1541.31 818.891 1542.92 802.216 1548.61 786.692 C 1573.55 718.569 1660.77 702.604 1710.76 752.771 C 1744.83 786.964 1738.64 833.618 1731.63 876.649 C 1706.77 1029.22 1601.93 1182.83 1474.37 1266.2 C 1534.27 1365.9 1528.93 1452.14 1529.09 1563.52 C 1529.22 1655.26 1534.16 1717.09 1441.64 1772.47 C 1384.34 1806.77 1331.14 1799.9 1267.57 1799.81 C 1217.71 1799.99 1183.68 1805.11 1147.93 1762.17 C 1071.1 1796.66 976.838 1788.61 898.811 1762.17 C 867.319 1807.81 824.671 1799.8 776.592 1799.76 C 739.798 1799.73 701.448 1803.62 665.083 1796.5 C 595.962 1782.97 537.915 1725.53 523.38 1656.57 C 515.762 1620.43 518.136 1580.76 518.189 1543.95 C 518.33 1446.76 516.668 1343.5 572.154 1258.9 C 436.431 1187.6 326.586 986.46 306.609 841.253 C 293.725 747.61 395.457 686.2 468.448 743.732 C 499.439 768.159 504.827 795.694 509.193 831.582 C 517.281 898.062 549.925 965.822 602.977 1007.53 C 617.925 982.498 652.385 945.404 673.264 922.901 C 656.436 906.722 642.844 887.297 631.645 866.89 C 614.182 876.24 600.206 892.222 582.595 900.025 C 540.041 882.324 604.316 850.389 620.37 840.032 L 618.715 837.449 C 606.993 819.281 600.559 797.162 595.843 776.227 C 582.047 780.222 569.846 787.717 556.367 791.777 C 545.755 794.973 530.055 785.442 537.404 773.535 C 545.062 761.128 578.837 749.792 592.982 746.939 C 591.906 688.823 599.992 637.805 623.998 584.595 z M 1447.85 1043.54 C 1431.87 1057.27 1384.42 1083.42 1363.98 1081.55 C 1352.24 1080.47 1348.42 1063.52 1357.94 1056.89 C 1372.74 1046.6 1396.68 1047.79 1420.32 1029.25 C 1413.29 1014.59 1403.36 1002.29 1394.66 988.695 C 1314.92 1072.58 1186.98 1135.42 1069.21 1135.53 C 1069.23 1145.88 1069.39 1156.26 1069.21 1166.61 C 1171.67 1210.4 1099.73 1383.16 985.8 1333.35 C 915.033 1302.4 909.318 1207.85 975.27 1166.61 C 976.581 1156.17 975.928 1146 975.27 1135.53 C 852.533 1127.5 733.941 1087.78 650.454 993.457 C 640.669 1004.81 631.743 1016.4 623.998 1029.25 C 633.566 1032.3 669.676 1049.08 678.935 1054.79 C 693.399 1063.7 686.859 1089.25 658.373 1077.11 C 564.231 1037 502.463 950.55 483.451 851.848 C 475.956 812.935 481.037 776.952 435.591 757.57 C 399.052 741.987 354.361 759.024 339.321 796.467 C 330.78 817.731 336.002 838.789 339.941 860.418 C 367.357 1010.96 457.664 1151.88 585.972 1235.92 C 594.334 1222.9 622.878 1193.57 624.102 1225.37 C 624.529 1236.46 611.362 1248.94 605.38 1257.93 C 545.118 1348.54 546.994 1427.24 547.027 1528.92 C 547.039 1564.66 543.678 1619.3 551.779 1652.36 C 569.251 1723.67 631.519 1773.41 705.51 1773.42 L 781.017 1773.02 C 811.755 1773.03 845.9 1778.96 869.495 1754.47 C 936.522 1684.89 800.796 1566.23 695.115 1636.62 C 644.116 1670.6 642.886 1633.4 680.724 1612.34 C 705.345 1598.65 729.262 1591.17 757.507 1589.8 C 731.601 1558.13 678.686 1488.28 681.454 1449.92 C 682.303 1438.15 696.786 1432.05 703.61 1442.35 C 708.863 1450.28 712.531 1466.45 716.141 1475.75 C 730.739 1513.35 767.513 1570.7 803.612 1592.34 C 814.805 1599.05 829.856 1599.57 841.903 1605.44 C 888.101 1627.92 927.41 1683.22 909.146 1735.93 C 999.937 1767.12 1049.05 1759.08 1136.2 1739.11 C 1125.04 1681.54 1156.19 1626.79 1210.31 1604.56 C 1270.53 1579.83 1311.59 1533.67 1332.35 1470.7 C 1336.35 1458.57 1339.88 1423.38 1361.69 1439.37 C 1370.78 1446.03 1365.56 1459.92 1363.2 1468.63 C 1347.26 1527.29 1322.05 1547.22 1287.78 1589.8 C 1316.52 1588.54 1396.46 1607.54 1398.63 1641.51 C 1400.72 1674.24 1354.79 1633.98 1349.99 1631.21 C 1263.72 1581.36 1112.46 1662.99 1174.62 1750.94 C 1195.73 1780.81 1243.71 1773.11 1275.02 1772.99 C 1324.43 1771.25 1362.25 1779.06 1409.51 1758.01 C 1513.75 1711.59 1500.3 1632.56 1500.35 1540.89 C 1500.41 1427.14 1501.86 1350.79 1431.94 1249.74 C 1427.92 1243.92 1419.35 1233.94 1420.64 1226.62 C 1426.28 1194.57 1454.81 1231.97 1461.3 1243.52 C 1480.75 1226.96 1501.54 1212.42 1520.35 1194.98 C 1616.68 1105.7 1682.84 991.559 1706.15 862.225 C 1711.12 834.686 1715.33 807.519 1699.48 782.574 C 1677.73 748.341 1633.48 740.456 1599.97 763.04 C 1570.02 783.22 1571.44 816.274 1565.11 848.173 C 1551.13 918.666 1509.91 1003.62 1447.85 1043.54 z M 680.508 273.279 C 639.252 347.141 612.376 477.489 644.702 558.541 C 667.297 512.298 737.326 444.659 788.78 426.86 C 772.837 403.16 753.525 384.472 729.423 369.12 C 716.992 361.203 697.515 355.992 701.775 337.762 C 711.627 295.602 850.86 426.127 815.4 443.76 C 692.497 504.874 622.056 602.499 620.37 738.821 C 661.223 732.134 752.692 724.939 782.174 746.015 C 793.57 754.162 780.932 768.817 770.292 769.174 C 756.012 769.653 740.115 764.174 725.754 762.389 C 691.837 758.173 657.423 761.903 623.998 767.873 C 628.638 789.197 634.233 812.514 644.702 831.763 C 666.087 822.885 753.379 798.942 775.84 808.187 C 782.433 810.901 791.204 819.303 786.787 827.068 C 779.753 839.431 751.673 836.307 739.895 837.17 C 713.719 839.089 682.115 845.307 658.377 856.463 C 738.459 996.628 906.668 1051.61 1059.97 1043.51 C 1180.28 1037.16 1290.03 983.485 1362.65 886.873 C 1369.58 876.985 1377.02 867.141 1382.69 856.463 C 1361.16 848.147 1337.23 842.06 1314.11 840.756 C 1304.82 840.232 1252.27 843.636 1270.33 816.966 C 1282.55 798.918 1378.17 826.39 1394.66 831.763 C 1402.15 809.369 1409.93 787.543 1415.97 764.68 C 1378.28 756.276 1344.73 753.986 1306.62 762.455 C 1300.35 763.848 1256.98 782.902 1264.17 753.675 C 1272.11 721.434 1384.62 729.535 1420.32 738.821 C 1421.63 615.912 1374.84 525.14 1264.81 461.156 C 1254.81 455.346 1225.42 447.19 1225.66 432.761 C 1226.12 405.222 1311.04 329.808 1337.25 332.477 C 1344.39 333.204 1352.76 342.044 1351.53 349.53 C 1349.61 361.198 1323.76 368.594 1314.85 373.457 C 1292.71 385.552 1272.78 406.549 1258.21 426.86 C 1320.65 446.137 1375.3 513.679 1410.16 567.708 C 1421.79 478.968 1412.44 353.854 1367.24 273.279 C 1308.63 284.926 1218.71 344.933 1183.08 389.121 C 1148.81 431.613 1166.38 426.345 1112.39 414.112 C 1058.74 401.955 997.18 401.347 943.29 413.366 C 876.41 428.282 907.733 432.955 857.832 380.722 C 813.203 334.006 742.817 290.613 680.508 273.279 z M 1016.12 1182.37 C 931.611 1191.66 939.433 1321.23 1033.26 1313.03 C 1122.38 1294.51 1098.31 1172.91 1016.12 1182.37 z M 692.725 944.642 C 684.4 953.167 676.6 962.081 668.882 971.153 C 737.729 1049.8 846.638 1098.18 950.173 1105.03 L 954.243 1105.27 C 961.218 1105.97 968.273 1106.92 975.27 1107.25 C 975.258 1095.46 975.092 1083.64 975.27 1071.85 C 877.855 1055.12 817.694 1042.25 732.638 980.448 C 718.211 969.965 705.93 954.183 692.725 944.642 z M 1358.85 934.664 C 1278.27 1021.78 1185.54 1059.87 1069.21 1071.85 L 1069.21 1107.25 C 1075.54 1107.43 1081.98 1107.89 1088.29 1107.25 C 1181.5 1090.96 1256.1 1071.21 1332.74 1008.93 C 1349.28 995.487 1363.09 979.468 1379.21 965.71 C 1374.29 956.68 1367.55 940.308 1358.85 934.664 z M 1003.75 1071.85 L 1003.75 1156.11 C 1017.17 1154.12 1028.28 1154.21 1041.67 1156.11 C 1043.6 1149.72 1041.16 1085.22 1041.67 1071.85 L 1003.75 1071.85 z"/>
<path transform="translate(0,0)" fill="rgb(212,0,241)" d="M 965.294 717.931 C 986.136 717.384 1013.73 773.494 1064.47 730.73 C 1094.2 705.678 1104.75 726.762 1088.29 746.939 C 1027.04 805.352 923.364 746.117 965.294 717.931 z"/>
<path transform="translate(0,0)" fill="rgb(212,0,241)" d="M 1199.3 581.017 C 1228.64 571.946 1301.25 600.772 1307.26 629.405 C 1308.79 636.715 1304.49 644.932 1296.5 645.672 C 1280.88 647.119 1259.63 601.431 1205.58 609.175 C 1147.39 606.004 1122.74 666.465 1103.1 647.351 C 1080.45 625.301 1166.04 580.952 1199.3 581.017 z"/>
<path transform="translate(0,0)" fill="rgb(212,0,241)" d="M 827.49 581.017 C 894.171 573.566 973.984 635.846 938.667 651.459 C 925.806 657.145 913.665 638.164 905.577 630.867 C 893.081 619.596 875.336 614.643 859.804 609.175 C 827.003 605.466 792.731 611.856 767.516 634.289 C 756.201 644.356 740.812 659.089 733.948 631.03 C 738.126 604.767 803.723 582.124 827.49 581.017 z"/>
<path transform="translate(0,0)" fill="rgb(212,0,241)" d="M 876.012 803.14 L 877.096 803.031 C 898.485 801.074 896.516 842.983 943.057 851.375 C 996.499 861.011 1008.06 810.771 1025.93 809.949 C 1039.77 809.312 1064.43 875.717 1123.32 846.103 C 1149.96 832.706 1142.52 824.716 1157.87 808.871 C 1169.96 796.378 1183.71 809.214 1181.23 823.436 C 1158.83 891.979 1075 892.408 1024.23 850.116 C 929.367 930.327 839.589 822.698 876.012 803.14 z"/>
</svg>