<svg version="1.1" xmlns="http://www.w3.org/2000/svg" style="display: block;" viewBox="0 0 2048 2048" width="512" height="512">
<path transform="translate(0,0)" fill="rgb(253,201,1)" d="M 653.185 613.817 C 623.891 497.226 629.489 370.361 676.039 259.217 C 679.379 251.244 684.181 236.704 691.087 231.352 C 701.898 222.972 761.329 247.268 773.038 252.434 C 852.889 287.662 903.024 335.858 954.525 405.023 C 938.522 412.231 919.14 413.146 902.357 419.869 C 874.859 376.405 807.665 315.426 757.265 304.235 C 660.664 282.787 673.884 516.8 692.805 558.031 C 675.836 574.032 663.902 593.32 653.185 613.817 z"/>
<path transform="translate(0,0)" fill="rgb(227,57,19)" d="M 692.805 558.031 C 673.884 516.8 660.664 282.787 757.265 304.235 C 807.665 315.426 874.859 376.405 902.357 419.869 C 833.655 438.25 737.351 498.843 692.805 558.031 z"/>
<path transform="translate(0,0)" fill="rgb(253,201,1)" d="M 384.88 712.563 C 302.147 629.607 465.797 492.414 562.706 591.583 C 588.142 617.612 609.493 671.608 582.537 703.542 C 580.12 706.404 577.074 709.237 575.336 712.563 C 574.693 723.668 574.885 735.051 575.336 746.167 C 511.898 747.132 448.334 746.042 384.88 746.167 C 384.62 734.967 385.046 723.765 384.88 712.563 z"/>
<path transform="translate(0,0)" fill="rgb(227,57,19)" d="M 384.88 712.563 C 402.884 716.952 557.489 717.447 575.336 712.563 C 574.693 723.668 574.885 735.051 575.336 746.167 C 511.898 747.132 448.334 746.042 384.88 746.167 C 384.62 734.967 385.046 723.765 384.88 712.563 z"/>
<path transform="translate(0,0)" fill="rgb(253,201,1)" d="M 1464.79 1311.14 C 1524.57 1298.26 1573.15 1322.35 1620.3 1355.32 C 1596.9 1431.5 1538.03 1568.81 1434.84 1522.19 C 1366.91 1489.66 1357.83 1399.85 1422.47 1364.13 C 1431.16 1359.33 1440.63 1356.13 1448.92 1350.59 C 1457.72 1339.11 1461.18 1324.92 1464.79 1311.14 z"/>
<path transform="translate(0,0)" fill="rgb(227,57,19)" d="M 1383.74 1046.97 C 1454.64 1044.74 1509.77 1054.33 1563.14 1104.82 C 1634.45 1172.27 1644.4 1265.17 1620.3 1355.32 C 1573.15 1322.35 1524.57 1298.26 1464.79 1311.14 C 1471.8 1283.66 1467.2 1261.04 1449.68 1238.77 C 1426.01 1208.68 1433.8 1199.34 1423.04 1163.42 C 1411.41 1124.59 1393.97 1095.61 1375.66 1060.75 C 1377.61 1055.34 1379.08 1050.6 1383.74 1046.97 z"/>
<path transform="translate(0,0)" fill="rgb(253,201,1)" d="M 1095.44 405.023 C 1146.64 333.347 1261.36 230.314 1356.66 229.903 C 1433.53 330.474 1419.42 490.457 1392.76 606.094 C 1391.21 604.747 1358.4 561.015 1356.66 558.031 C 1286.95 489.89 1246.26 453.922 1148.02 419.869 C 1130.77 414.761 1112.11 411.687 1095.44 405.023 z"/>
<path transform="translate(0,0)" fill="rgb(227,57,19)" d="M 1148.02 419.869 C 1181.97 374.104 1274.53 269.452 1330.93 310.222 C 1373.71 341.151 1373.36 505.192 1356.66 558.031 C 1286.95 489.89 1246.26 453.922 1148.02 419.869 z"/>
<path transform="translate(0,0)" fill="rgb(227,57,19)" d="M 384.88 746.167 C 448.334 746.042 511.898 747.132 575.336 746.167 C 575.361 770.545 576.726 795.532 575.336 819.812 C 596.332 891.174 631.638 944.493 702.151 977.359 C 664.575 1000.04 670.893 1024.6 680.808 1060.75 L 680.094 1062.28 C 661.484 1101.66 620.224 1164.45 616.647 1204.72 C 492.175 1145.52 384.475 956.555 384.88 824.659 C 383.82 798.674 384.875 772.204 384.88 746.167 z"/>
<path transform="translate(0,0)" fill="rgb(253,201,1)" d="M 384.88 746.167 C 448.334 746.042 511.898 747.132 575.336 746.167 C 575.361 770.545 576.726 795.532 575.336 819.812 L 574.65 821.703 C 573.048 826.193 572.162 830.834 570.461 835.314 C 542.042 910.157 432.732 917.18 395.452 844.631 C 392.16 838.224 389.533 830.079 384.88 824.659 C 383.82 798.674 384.875 772.204 384.88 746.167 z"/>
<path transform="translate(0,0)" fill="rgb(254,254,254)" d="M 954.525 405.023 C 985.956 405.199 1017.39 401.414 1048.83 403.013 C 1057.17 403.437 1089.78 408.972 1095.44 405.023 C 1112.11 411.687 1130.77 414.761 1148.02 419.869 C 1246.26 453.922 1286.95 489.89 1356.66 558.031 C 1358.4 561.015 1391.21 604.747 1392.76 606.094 C 1395.02 620.76 1401.91 633.961 1407.23 647.647 C 1448.54 753.842 1419.18 862.943 1336.21 937.211 C 1329.65 943.086 1321.38 948.882 1315.6 955.385 C 1299.83 962.456 1285.52 973.229 1269.98 981.023 C 1120.81 1055.86 864.416 1047.48 730.444 955.385 C 729.113 953.79 729.713 954.274 728.11 953.188 C 677.537 918.911 644.537 859.761 631.516 800.875 C 623.203 763.284 631.706 647.765 653.185 613.817 C 663.902 593.32 675.836 574.032 692.805 558.031 C 737.351 498.843 833.655 438.25 902.357 419.869 C 919.14 413.146 938.522 412.231 954.525 405.023 z"/>
<path transform="translate(0,0)" fill="rgb(253,201,1)" d="M 1003.7 678.009 C 1020.75 677.546 1087.71 672.662 1078.95 705.597 C 1074.38 722.775 1055.99 742.398 1040.88 751.38 C 998.458 768.639 922.836 687.299 1003.7 678.009 z"/>
<path transform="translate(0,0)" fill="rgb(81,75,74)" d="M 1025.01 772.884 C 1034.18 773.683 1034.11 780.689 1038.68 787.197 C 1063.92 823.145 1122.25 831.82 1156.59 804.997 C 1162.07 800.717 1169.67 789.314 1176.03 788.136 C 1190.96 785.37 1185.29 802.619 1176.56 811.057 C 1131.64 854.47 1065.52 841.394 1025.01 798.846 C 995.321 825.142 972.66 839.508 931.468 837.248 C 913.6 836.267 857.57 817.67 861.442 795.853 C 864.811 776.872 884.473 799.001 889.612 803.332 C 921.195 829.948 972.155 824.417 1000.89 796.16 C 1008.92 788.26 1014.84 778.219 1025.01 772.884 z"/>
<path transform="translate(0,0)" fill="rgb(62,34,27)" d="M 1165.09 571.323 C 1220.67 565.186 1286.74 613.773 1246.64 636.478 C 1230.66 645.528 1207.9 619.492 1189.86 613.817 C 1151.68 605.812 1128.85 647.894 1110.8 635.817 C 1069.65 608.29 1139.09 575.588 1165.09 571.323 z"/>
<path transform="translate(0,0)" fill="rgb(62,34,27)" d="M 854.609 571.323 C 917.026 563.921 978.8 617.437 933.6 636.914 C 920.548 642.538 899.54 620.466 881.782 613.817 C 835.471 608.7 819.65 649.234 797.869 635.355 C 758.545 610.298 829.71 575.003 854.609 571.323 z"/>
<path transform="translate(0,0)" fill="rgb(222,222,222)" d="M 1328.34 695.209 C 1352.1 681.953 1423.56 744.952 1261.48 769.665 C 1226.95 774.194 1212.36 742.028 1234.21 722.629 C 1248.95 709.537 1305.34 694.424 1328.34 695.209 z"/>
<path transform="translate(0,0)" fill="rgb(222,222,222)" d="M 790.816 790.307 C 812.396 787.177 836.957 801.136 827.054 826.424 C 817.846 849.935 755.484 859.687 730.444 871.004 C 702.339 872.51 676.872 850.981 694.322 826.794 C 707.741 808.195 767.849 794.529 790.816 790.307 z"/>
<path transform="translate(0,0)" fill="rgb(222,222,222)" d="M 702.151 695.209 C 730.965 693.84 782.37 703.948 806.361 715.877 C 834.794 730.016 827.9 755.761 804.501 769.665 C 774.506 769.648 744.721 762.461 716.186 753.589 C 684.552 743.755 666.333 711.693 702.151 695.209 z"/>
<path transform="translate(0,0)" fill="rgb(222,222,222)" d="M 1243.34 786.101 C 1258.55 784.627 1330.18 807.871 1345.18 816.033 C 1371.07 830.117 1358.5 864.831 1332.97 871.004 C 1311.06 870.581 1243.79 845.604 1228.87 835.604 C 1204.63 819.364 1223.91 794.476 1243.34 786.101 z"/>
<path transform="translate(0,0)" fill="rgb(254,254,254)" d="M 730.444 955.385 C 864.416 1047.48 1120.81 1055.86 1269.98 981.023 C 1285.52 973.229 1299.83 962.456 1315.6 955.385 C 1318.75 961.272 1320.73 966.905 1322.16 973.443 C 1362.75 964.018 1399.97 1009.26 1383.74 1046.97 C 1379.08 1050.6 1377.61 1055.34 1375.66 1060.75 C 1393.97 1095.61 1411.41 1124.59 1423.04 1163.42 C 1433.8 1199.34 1426.01 1208.68 1449.68 1238.77 C 1467.2 1261.04 1471.8 1283.66 1464.79 1311.14 C 1461.18 1324.92 1457.72 1339.11 1448.92 1350.59 C 1440.63 1356.13 1431.16 1359.33 1422.47 1364.13 C 1357.83 1399.85 1366.91 1489.66 1434.84 1522.19 C 1434.91 1541.37 1433.61 1618.69 1425.72 1633.45 C 1423.97 1633.66 1424.04 1633.23 1422.71 1632.2 L 1422.46 1633.68 L 1423.37 1635.14 C 1468.39 1706.67 1458.16 1768.8 1375.66 1803.85 C 1361.41 1803.53 1347.2 1804 1332.97 1803.85 C 1319.13 1803.41 1305.25 1803.73 1291.4 1803.85 L 1255.67 1803.85 C 1232.74 1803.76 1209.59 1804.86 1186.7 1803.85 C 1183.55 1804.19 1180.15 1803.91 1176.98 1803.85 C 1156.28 1798 1140.12 1786.88 1123.31 1773.85 C 1117.95 1777.08 1120.48 1782.61 1115.46 1784.46 C 1104.07 1788.65 944.631 1789.09 928.716 1784.58 C 925.181 1783.58 927.031 1776.67 924.716 1773.85 C 909.765 1788.72 888.544 1801.63 867.137 1803.85 C 853.71 1804.5 840.272 1803.79 826.838 1803.85 C 802.958 1803.9 779.067 1804.1 755.188 1803.85 L 749.913 1803.85 C 728.599 1803.69 707.059 1804.91 685.791 1803.85 C 681.805 1804.13 677.718 1803.89 673.72 1803.85 C 596.338 1789.25 569.684 1684.01 627.781 1625.11 L 629.453 1618.59 L 624.83 1619.54 C 610.346 1614.57 606.207 1574.84 603.677 1561.78 C 582.643 1453.22 590.082 1312 616.647 1204.72 C 620.224 1164.45 661.484 1101.66 680.094 1062.28 L 680.808 1060.75 C 670.893 1024.6 664.575 1000.04 702.151 977.359 C 709.971 976.072 716.03 972.524 724.368 973.443 C 726.117 967.359 728.374 961.37 730.444 955.385 z"/>
<path transform="translate(0,0)" fill="rgb(253,201,1)" d="M 1123.31 1773.85 C 1120.5 1768.5 1116.28 1763.31 1113.01 1758.16 C 1033.8 1633.36 1251.02 1487.88 1389.72 1601.76 C 1401.56 1611.49 1411.8 1622.73 1422.46 1633.68 L 1423.37 1635.14 C 1468.39 1706.67 1458.16 1768.8 1375.66 1803.85 C 1361.41 1803.53 1347.2 1804 1332.97 1803.85 C 1319.13 1803.41 1305.25 1803.73 1291.4 1803.85 L 1255.67 1803.85 C 1232.74 1803.76 1209.59 1804.86 1186.7 1803.85 C 1183.55 1804.19 1180.15 1803.91 1176.98 1803.85 C 1156.28 1798 1140.12 1786.88 1123.31 1773.85 z"/>
<path transform="translate(0,0)" fill="rgb(253,201,1)" d="M 627.781 1625.11 C 697.275 1544.29 825.038 1539.05 904.362 1608.25 C 963.878 1660.17 966.718 1711.95 924.716 1773.85 C 909.765 1788.72 888.544 1801.63 867.137 1803.85 C 853.71 1804.5 840.272 1803.79 826.838 1803.85 C 802.958 1803.9 779.067 1804.1 755.188 1803.85 L 749.913 1803.85 C 728.599 1803.69 707.059 1804.91 685.791 1803.85 C 681.805 1804.13 677.718 1803.89 673.72 1803.85 C 596.338 1789.25 569.684 1684.01 627.781 1625.11 z"/>
<path transform="translate(0,0)" fill="rgb(253,201,1)" d="M 730.444 955.385 C 864.416 1047.48 1120.81 1055.86 1269.98 981.023 C 1285.52 973.229 1299.83 962.456 1315.6 955.385 C 1318.75 961.272 1320.73 966.905 1322.16 973.443 C 1362.75 964.018 1399.97 1009.26 1383.74 1046.97 C 1379.08 1050.6 1377.61 1055.34 1375.66 1060.75 C 1305.8 1124.28 1279.44 1152.96 1180.45 1183.34 C 1187.51 1197.21 1195.55 1210.55 1201.04 1225.16 C 1232.9 1309.93 1193.96 1410.38 1113.15 1451.2 C 938.454 1539.47 763.264 1346.6 867.137 1179.51 C 779.053 1160.78 739.673 1116.73 680.808 1060.75 C 670.893 1024.6 664.575 1000.04 702.151 977.359 C 709.971 976.072 716.03 972.524 724.368 973.443 C 726.117 967.359 728.374 961.37 730.444 955.385 z"/>
<path transform="translate(0,0)" fill="rgb(227,57,19)" d="M 987.042 1153.19 C 1007.84 1151.8 1024.37 1168.56 1013.28 1188.17 C 996.095 1218.55 930.429 1275.75 897.914 1284.91 C 881.154 1286.59 864.007 1273.33 870.341 1254.88 C 875.133 1240.92 925.605 1216.41 942.933 1199.13 C 955.855 1186.25 971.537 1160.36 987.042 1153.19 z"/>
<path transform="translate(0,0)" fill="rgb(227,57,19)" d="M 1059.97 1165.02 C 1110.76 1162.81 1083.16 1208.72 1068.24 1230.95 C 1029.67 1288.41 985.487 1323.09 924.716 1355.32 C 914.213 1355.92 903.673 1351.12 898.502 1341.6 C 883.761 1314.46 916.349 1304.27 934.427 1294.62 C 964.55 1278.53 992.994 1254.61 1013.51 1227.19 C 1026.07 1210.41 1042.47 1173.74 1059.97 1165.02 z"/>
<path transform="translate(0,0)" fill="rgb(154,2,0)" d="M 730.444 955.385 C 864.416 1047.48 1120.81 1055.86 1269.98 981.023 C 1285.52 973.229 1299.83 962.456 1315.6 955.385 C 1318.75 961.272 1320.73 966.905 1322.16 973.443 C 1313.74 1037.92 1119.3 1114.06 1051.11 1101.82 C 1011.44 1094.7 1002.37 1106.39 972.248 1105.54 C 958.185 1105.14 942.603 1099.98 928.929 1096.72 C 882.159 1085.58 722.842 1037.26 724.368 973.443 C 726.117 967.359 728.374 961.37 730.444 955.385 z"/>
</svg>