<svg version="1.1" xmlns="http://www.w3.org/2000/svg" style="display: block;" viewBox="0 0 2048 2048" width="512" height="512">
<defs>
	<linearGradient id="Gradient1" gradientUnits="userSpaceOnUse" x1="972.692" y1="1345.8" x2="990.961" y2="1734.07">
		<stop class="stop0" offset="0" stop-opacity="1" stop-color="rgb(146,167,90)"/>
		<stop class="stop1" offset="1" stop-opacity="1" stop-color="rgb(116,189,179)"/>
	</linearGradient>
</defs>
<path transform="translate(0,0)" fill="rgb(60,60,59)" d="M 662.05 253.22 C 738.956 247.068 853.556 351.539 900.086 406.957 C 906.777 414.926 912.79 423.467 920.195 430.815 C 937.072 432.561 1020.06 432.9 1035.04 430.815 C 1085.74 366.389 1213.58 231.389 1295.01 260.042 C 1330.17 272.414 1340.65 307.38 1349.34 339.682 C 1372.27 424.854 1368.36 533.831 1337.97 616.823 C 1397.16 736.484 1384.66 834.641 1307.76 938.115 C 1320.02 951.769 1329.55 969.02 1337.97 985.282 C 1396.07 943.524 1386.58 872.432 1387.2 806.781 C 1387.84 738.604 1374.47 655.131 1430.86 604.774 C 1483.51 557.757 1560.62 567.95 1605.56 619.732 C 1643.74 663.724 1637.64 709.665 1634.03 763.464 L 1614.44 1018.6 C 1611.87 1051.65 1611.15 1083.6 1600.39 1115.41 C 1574.23 1192.77 1492.56 1271.33 1405.99 1265.08 C 1405.82 1269.12 1405.92 1273.15 1405.99 1277.19 C 1401.7 1289.37 1399.33 1303.04 1396.34 1315.62 C 1434.51 1377.25 1436.02 1376.98 1436.08 1453.92 L 1436.1 1593.91 C 1436.08 1629.51 1436.68 1662.01 1414.44 1692.05 C 1405.48 1704.15 1392.65 1711.92 1383.69 1723.53 C 1372.07 1738.59 1370.06 1752.48 1353.71 1768.62 C 1320.2 1801.69 1279.96 1795.11 1236.76 1795.01 L 1127.22 1795.12 C 1096.39 1795.04 1076.26 1785.92 1054.51 1764.07 L 948.504 1764.05 C 930.048 1764.03 911.427 1763.32 892.997 1764.07 C 847.145 1805.4 810.987 1794.86 753.518 1794.95 L 692.078 1795.05 C 647.685 1795.08 601.701 1794.68 576.767 1750.1 C 557.3 1715.29 539.42 1714.31 522.04 1685.5 C 497.443 1644.73 500.972 1602.6 500.961 1557.04 C 500.948 1505.95 496.938 1452.98 509.696 1402.99 C 332.84 1243.89 412.855 1001.13 624.237 926.366 C 575.838 838.775 554.417 764.042 589.254 662.515 C 595.364 644.709 604.815 628.877 611.515 611.529 L 611.854 610.628 C 594.094 521.531 561.962 281.585 662.05 253.22 z M 634.774 1011.97 C 640.463 1023.1 647.608 1030.27 655.793 1039.48 C 660.547 1022.35 662.924 1005.39 668.99 988.343 C 729.069 1034.03 777.883 1058.13 851.319 1076.05 C 992.318 1110.44 1156.85 1092.23 1273.91 1001.4 C 1283.06 994.301 1291.64 986.422 1301.72 980.619 C 1297.43 974.214 1292.97 967.906 1288.79 961.433 C 1188.2 1044.71 1104.9 1071.14 970.787 1071.21 C 859.907 1071.28 726.487 1037.78 652.198 951.876 C 642.314 968.259 637.196 993.038 634.774 1011.97 z M 519.622 1372.56 C 521.342 1367.39 523.106 1362.25 524.475 1356.97 C 512.935 1345.53 503.027 1329.05 495.76 1314.56 C 434.78 1193 488.584 1051.57 608.962 991.988 C 610.386 981.362 613.634 971.566 616.974 961.433 C 568.024 972.323 509.978 1024.07 483.402 1065.66 C 423.12 1160.02 430.601 1299.04 519.622 1372.56 z M 588.644 1321.25 C 599.972 1331.88 610.462 1343.54 621.912 1353.96 C 622.277 1344.58 607.42 1308.29 604.313 1295.9 C 588.225 1231.73 589.982 1124.59 634.774 1075.57 C 695.007 1127.32 726.908 1152.35 802.641 1188.42 C 813.744 1193.71 825.229 1198.29 835.638 1204.92 C 838.014 1200.52 840.455 1196.18 842.983 1191.87 C 755.669 1165.79 672.895 1111.68 616.974 1039.48 C 556.989 1149.47 561.127 1208.68 588.644 1321.25 z M 1352.34 1011.97 C 1355.82 1017.74 1359.69 1023.11 1363.7 1028.53 C 1374.27 1019.34 1386.13 1011.91 1396.37 1002.2 C 1448.93 952.346 1434.25 860.578 1436.03 794.532 L 1436.07 793.517 C 1436.96 788.969 1437.98 784.498 1439.11 780.004 C 1440.47 739.633 1425.14 659.891 1468.4 635.149 C 1471.46 624.804 1472.96 613.703 1484.85 610.628 L 1484.85 606.533 C 1418.13 630.285 1417.42 677.007 1417.48 738.424 C 1417.51 771.903 1415.83 805.287 1415.01 838.743 C 1413.21 911.819 1417.32 963.934 1352.34 1011.97 z M 566.172 1341.37 C 525.195 1410.19 530.526 1465.5 530.463 1542.97 C 530.431 1582.84 524.942 1662.41 563.77 1689.95 C 566.461 1691.85 566.704 1690.16 566.172 1687.52 C 549.858 1659.18 556.941 1589.25 556.951 1555.83 C 556.971 1489.2 551.063 1420.36 585.552 1360.14 C 579.93 1353.47 572.854 1347.01 566.172 1341.37 z M 634.774 579.915 C 640.611 572.738 646.582 565.633 652.198 558.282 C 641.916 525.035 638.662 330.952 674.564 304.883 C 699.203 286.991 724.633 315.35 748.787 315.253 C 725.231 298.163 671.042 261.931 647.716 295.88 C 610.319 350.307 619.275 515.641 634.774 579.915 z M 624.237 1755.78 C 623.852 1748.96 622 1741.84 621.337 1734.94 C 610.211 1619.09 726.819 1556.78 816.813 1602.31 C 824.054 1605.97 834.87 1616.69 842.983 1614.74 C 786.227 1560.61 686.959 1557.47 631.644 1615.68 C 598.949 1650.08 572.415 1725.4 624.237 1755.78 z M 1337.97 1045.13 C 1288.13 1088.37 1239.79 1131.16 1177.94 1157.27 C 1154.03 1167.37 1129.04 1174.01 1105.03 1183.5 C 1108.7 1190.49 1111.69 1197.57 1114.58 1204.92 C 1127.55 1197.27 1143.45 1193.91 1157.63 1188.88 C 1212.95 1169.27 1265.82 1137.4 1310.09 1099.19 C 1322.3 1088.65 1332.9 1076.04 1345.59 1066.14 L 1346.76 1065.24 L 1337.97 1045.13 z M 1064.68 438.404 C 1073.93 441.033 1083.4 442.056 1092.64 444.459 C 1123.7 387.183 1242.11 299.241 1301.72 298.98 C 1250.17 246.352 1100.21 383.094 1064.68 438.404 z M 1083.68 1750.11 C 1083.36 1729.57 1077.11 1713.42 1082.55 1691.57 C 1102.55 1611.34 1197.02 1572.01 1272.64 1591.64 C 1282.32 1594.16 1290.99 1599.89 1300.54 1602.27 L 1301.72 1600.72 C 1243.15 1549.53 1142.73 1565.71 1094.34 1622.74 C 1066.56 1655.48 1046.76 1716.14 1083.68 1750.11 z M 630.168 876.804 C 647.31 915.259 697.362 959.83 734.771 980.619 C 734.204 976.129 708.681 955.214 703.729 949.336 C 685.806 928.065 665.211 895.836 655.793 869.597 C 646.675 871.227 638.813 873.491 630.168 876.804 z M 602.872 735.664 C 602.489 749.054 601.884 762.562 602.872 775.932 C 611.968 775.226 621.053 774.538 630.168 774.108 C 629.864 760.291 629.908 748.786 634.774 735.664 C 624.035 734.887 613.599 734.585 602.872 735.664 z M 605.25 803.26 C 608.406 818.195 611.486 832.779 616.974 847.079 C 625.918 845.268 634.865 843.235 643.958 842.349 C 637.515 829.921 635.321 817.1 634.774 803.26 C 624.887 803.567 615.14 803.593 605.25 803.26 z"/>
<path transform="translate(0,0)" fill="rgb(255,255,255)" d="M 905.906 1348.75 C 816.946 1290.52 856.155 1135.73 980.996 1139.04 C 969.794 1146.77 956.44 1150.53 944.535 1156.97 C 879.669 1192.04 859.55 1268.21 896.541 1330.9 C 899.239 1335.47 905.951 1343.7 905.906 1348.75 z"/>
<path transform="translate(0,0)" fill="rgb(103,202,204)" d="M 652.198 558.282 C 641.916 525.035 638.662 330.952 674.564 304.883 C 699.203 286.991 724.633 315.35 748.787 315.253 C 785.482 332.039 870.901 408.258 886.321 438.404 C 874.863 440.175 863.366 441.804 852.07 444.459 C 833.442 424.117 707.719 303.153 678.379 334.899 C 653.246 362.093 649.617 503.548 662.05 549.146 C 658.867 552.318 655.785 555.56 652.198 558.282 z"/>
<path transform="translate(0,0)" fill="rgb(253,112,105)" d="M 1252.67 362.95 C 1269.17 380.153 1264.75 501.321 1260.77 525.676 C 1238.8 512.585 1217.92 496.951 1196.16 483.312 C 1178.26 474.431 1159.67 467.085 1141.06 459.875 C 1155.01 427.863 1221.52 380.658 1252.67 362.95 z"/>
<path transform="translate(0,0)" fill="rgb(253,112,105)" d="M 697.679 362.95 C 742.093 375.73 788.545 420.826 820.498 453.329 C 799.649 460.483 779.308 467.664 759.324 477.002 C 732.191 490.36 707.106 511.384 683.194 522.529 C 689.192 467.988 675.347 422.45 697.679 362.95 z"/>
<path transform="translate(0,0)" fill="rgb(255,255,255)" d="M 608.962 704.797 C 614.228 667.94 632.521 631.646 653.904 601.443 C 774.01 431.796 1060.59 420.921 1221.03 533.794 C 1214.02 535.205 1188.21 519.006 1179.9 515.603 C 994.126 439.464 689.262 479.812 634.774 704.797 C 626.003 705.018 617.753 705.61 608.962 704.797 z"/>
<path transform="translate(0,0)" fill="rgb(13,155,166)" d="M 1092.64 444.459 C 1123.7 387.183 1242.11 299.241 1301.72 298.98 C 1347.84 368.104 1336.89 510.993 1318.48 586.585 C 1307.35 573.97 1296.35 561.189 1284.6 549.146 C 1296.1 494.488 1297.91 435.784 1287.28 380.822 C 1275.42 319.555 1249.16 324.268 1201.45 359.768 C 1168.84 384.031 1132.64 413.448 1111.01 448.288 C 1104.93 447.097 1098.59 446.161 1092.64 444.459 z"/>
<path transform="translate(0,0)" fill="rgb(143,143,143)" d="M 524.475 1356.97 C 512.935 1345.53 503.027 1329.05 495.76 1314.56 C 434.78 1193 488.584 1051.57 608.962 991.988 C 603.384 1014.73 585.2 1032.41 575.336 1053.26 C 533.941 1140.78 532.758 1219.34 554.971 1310.37 C 542.437 1324.91 532.136 1339.22 524.475 1356.97 z"/>
<path transform="translate(0,0)" fill="rgb(254,203,91)" d="M 1484.85 606.533 C 1539.43 594.648 1593.45 625.071 1605.69 680.934 C 1610.58 703.23 1607.32 757.157 1602.94 780.004 L 1439.11 780.004 C 1440.47 739.633 1425.14 659.891 1468.4 635.149 C 1471.46 624.804 1472.96 613.703 1484.85 610.628 L 1484.85 606.533 z"/>
<path transform="translate(0,0)" fill="rgb(60,60,59)" d="M 1543.04 632.117 C 1549.44 631.366 1556.76 632.327 1560.74 638.083 C 1563.88 642.63 1572.92 708.586 1554.4 718.706 C 1547.85 719.879 1540.56 720.352 1536.36 713.981 C 1532.7 708.429 1525.85 643.317 1543.04 632.117 z"/>
<path transform="translate(0,0)" fill="rgb(60,60,59)" d="M 1484.85 610.628 C 1512.09 610.147 1496.43 636.837 1494.86 652.463 C 1493.41 666.971 1497.78 706.801 1487.58 716.384 C 1456.21 745.837 1466.95 643.435 1468.4 635.149 C 1471.46 624.804 1472.96 613.703 1484.85 610.628 z"/>
<path transform="translate(0,0)" fill="rgb(254,203,91)" d="M 624.237 1755.78 C 623.852 1748.96 622 1741.84 621.337 1734.94 C 610.211 1619.09 726.819 1556.78 816.813 1602.31 C 824.054 1605.97 834.87 1616.69 842.983 1614.74 C 887.884 1655.51 909.417 1744.81 835.638 1764.07 C 835.533 1743.93 847.004 1676.68 817.899 1678.41 C 801.385 1679.4 805.15 1709.22 805.169 1720.1 L 805.286 1764.07 L 752.37 1764.07 C 752.222 1746.86 754.368 1704.05 751.61 1690.02 C 749.426 1678.92 734.134 1675.1 726.748 1683.78 C 719.123 1692.75 723.854 1749.23 723.007 1764.07 L 672.884 1764.07 L 672.924 1714.59 C 672.952 1708.32 674.145 1701.16 673.166 1695.03 C 671.523 1684.74 656.243 1671.56 648.018 1682.75 C 640.141 1693.48 644.505 1748.53 643.958 1764.07 C 637.467 1761.89 629.761 1759.97 624.237 1755.78 z"/>
<path transform="translate(0,0)" fill="rgb(254,203,91)" d="M 1083.68 1750.11 C 1083.36 1729.57 1077.11 1713.42 1082.55 1691.57 C 1102.55 1611.34 1197.02 1572.01 1272.64 1591.64 C 1282.32 1594.16 1290.99 1599.89 1300.54 1602.27 L 1301.72 1600.72 C 1361.53 1634.97 1380.52 1743.39 1301.72 1764.07 L 1301.94 1719.87 C 1302.18 1661.54 1274.52 1674.22 1271.37 1695.05 C 1269.05 1710.36 1271.02 1746.72 1271.13 1764.07 C 1254.93 1764.13 1237.07 1765.88 1221.03 1764.07 C 1221.07 1747.83 1230.7 1677.58 1204.42 1678.68 C 1187.67 1679.38 1190.91 1707.76 1190.94 1718.65 L 1191.11 1764.07 L 1141.06 1764.07 C 1140.97 1749.83 1144.52 1689.56 1136.87 1682.39 C 1101.09 1648.87 1111.26 1756.98 1111.01 1764.07 C 1099.98 1761.51 1091.64 1758.59 1083.68 1750.11 z"/>
<path transform="translate(0,0)" fill="rgb(253,112,105)" d="M 1301.72 980.619 C 1306.96 993.934 1312.74 1007.01 1318.48 1020.12 C 1271.41 1067.14 1219.97 1107.83 1158.44 1134.43 C 1138.04 1143.25 1110.92 1149.74 1092.64 1159.61 C 1047.98 1125.77 1014.9 1102.58 953.682 1110.99 C 919.185 1115.74 875.405 1134.45 859.141 1167.33 C 805.075 1147.07 687.5 1090.91 655.793 1039.48 C 660.547 1022.35 662.924 1005.39 668.99 988.343 C 729.069 1034.03 777.883 1058.13 851.319 1076.05 C 992.318 1110.44 1156.85 1092.23 1273.91 1001.4 C 1283.06 994.301 1291.64 986.422 1301.72 980.619 z"/>
<path transform="translate(0,0)" fill="rgb(254,203,91)" d="M 980.996 1139.04 C 1043.62 1138.06 1094.92 1193.67 1095.31 1254.71 C 1095.92 1352.23 975.79 1408.18 905.906 1348.75 C 905.951 1343.7 899.239 1335.47 896.541 1330.9 C 859.55 1268.21 879.669 1192.04 944.535 1156.97 C 956.44 1150.53 969.794 1146.77 980.996 1139.04 z"/>
<path transform="translate(0,0)" fill="rgb(60,60,59)" d="M 992.259 1216.36 C 1008.31 1216.65 1024.8 1215.27 1040.78 1216.52 C 1060.02 1218.02 1066.44 1234.76 1050.52 1245.86 C 1037.49 1246.43 952.957 1250.81 992.259 1216.36 z"/>
<path transform="translate(0,0)" fill="rgb(60,60,59)" d="M 992.259 1265.08 C 1006.51 1264.97 1036.4 1262.37 1048.62 1267.44 C 1064.52 1274.03 1057.55 1290.37 1044.19 1294.05 C 1031.02 1293.93 1000.17 1297.21 989.418 1292.24 C 977.132 1286.57 980.186 1268.65 992.259 1265.08 z"/>
<path transform="translate(0,0)" fill="rgb(60,60,59)" d="M 899.834 1265.08 C 912.95 1264.24 939.167 1263.23 951.497 1265.38 C 969.257 1268.48 971.002 1285.68 956.595 1294.05 C 947.883 1294.85 911.194 1295.3 903.88 1293.83 C 885.968 1290.24 884.466 1272.81 899.834 1265.08 z"/>
<path transform="translate(0,0)" fill="rgb(60,60,59)" d="M 987.973 1315.62 C 1003.49 1315.12 1026.02 1326.27 1012.18 1339.32 C 1002.99 1347.99 979.355 1344.79 967.25 1344.65 C 953.09 1344.96 920.763 1339.12 941.038 1319.97 C 949.09 1312.36 976.936 1315.55 987.973 1315.62 z"/>
<path transform="translate(0,0)" fill="rgb(60,60,59)" d="M 905.906 1216.36 C 918.175 1216.35 949.648 1213.57 958.936 1219.12 C 972.453 1227.2 965.312 1243.38 952.12 1245.86 C 934.819 1245.73 917.062 1247.19 899.834 1245.86 C 884.396 1234.81 886.59 1217.34 905.906 1216.36 z"/>
<path transform="translate(0,0)" fill="rgb(60,60,59)" d="M 971.663 1167.33 C 1031.26 1165.97 1030.47 1195.45 984.25 1196.86 C 968.968 1196.72 938.631 1204.04 936.732 1181.4 C 935.307 1164.4 961.05 1167.53 971.663 1167.33 z"/>
<path transform="translate(0,0)" fill="rgb(143,143,143)" d="M 1363.7 1028.53 C 1374.27 1019.34 1386.13 1011.91 1396.37 1002.2 C 1448.93 952.346 1434.25 860.578 1436.03 794.532 L 1436.07 793.517 C 1436.24 798.383 1436.41 803.183 1436.07 808.048 L 1602.94 808.048 C 1598.62 830.828 1598.17 854.341 1596.33 877.424 L 1585.87 1015.6 C 1583.66 1043.9 1582.85 1073.62 1574.21 1100.8 C 1551.26 1172.99 1487.58 1230.65 1410.85 1237.48 C 1411.04 1183.63 1403.74 1131.59 1385.23 1080.83 C 1379.25 1064.42 1367.37 1044.67 1363.7 1028.53 z"/>
<path transform="translate(0,0)" fill="url(#Gradient1)" d="M 585.552 1360.14 C 678.428 1446.81 783.845 1517.15 904.193 1559.51 C 963.76 1580.48 975.267 1581.51 1035.1 1562.54 C 1148.16 1526.67 1258.66 1462.21 1344.28 1379.34 C 1355.97 1368.02 1367.21 1353.6 1380.75 1344.65 C 1406.02 1380.56 1406.02 1412.9 1406.01 1454.86 L 1406 1598.35 C 1405.97 1635.67 1405.4 1650.97 1384.93 1684.03 C 1340.83 1455.92 996.204 1527.86 1038.12 1733.18 L 1038.31 1734.08 L 905.906 1734.08 C 935.519 1664.31 876.472 1586.88 814.243 1560.28 C 727.254 1523.1 617.201 1551.65 579.233 1643.41 C 573.255 1657.86 570.992 1672.83 566.172 1687.52 C 549.858 1659.18 556.941 1589.25 556.951 1555.83 C 556.971 1489.2 551.063 1420.36 585.552 1360.14 z"/>
<path transform="translate(0,0)" fill="rgb(254,203,91)" d="M 1346.76 1065.24 C 1378.53 1136.5 1395.4 1232.81 1366.77 1307.22 C 1360 1324.81 1344.17 1337.89 1330.98 1350.74 C 1238.09 1441.29 1126.9 1504.43 1003.02 1540.6 C 957.557 1553.87 946.858 1545.29 901.184 1527.4 C 801.003 1488.15 699.732 1428.7 621.912 1353.96 C 622.277 1344.58 607.42 1308.29 604.313 1295.9 C 588.225 1231.73 589.982 1124.59 634.774 1075.57 C 695.007 1127.32 726.908 1152.35 802.641 1188.42 C 813.744 1193.71 825.229 1198.29 835.638 1204.92 C 804.462 1325.32 906.757 1438.19 1023.32 1394.57 C 1100.34 1365.75 1145.18 1284.32 1114.58 1204.92 C 1127.55 1197.27 1143.45 1193.91 1157.63 1188.88 C 1212.95 1169.27 1265.82 1137.4 1310.09 1099.19 C 1322.3 1088.65 1332.9 1076.04 1345.59 1066.14 L 1346.76 1065.24 z"/>
<path transform="translate(0,0)" fill="rgb(103,202,204)" d="M 634.774 704.797 C 689.262 479.812 994.126 439.464 1179.9 515.603 C 1188.21 519.006 1214.02 535.205 1221.03 533.794 C 1276.13 572.773 1321.33 629.908 1337.97 696.046 C 1296.82 700.798 1224.72 707.053 1185.41 717.294 C 1168.62 721.666 1166.06 746.451 1185.89 746.05 C 1233.85 745.082 1294.09 728.254 1344.91 724.024 C 1344.27 741.346 1345.38 758.63 1344.91 775.932 C 1325.93 775.578 1190.01 763.933 1181.18 772.19 C 1171 781.715 1179.3 796.356 1191.49 797.706 C 1232.92 802.293 1300.3 804.398 1340.5 803.26 C 1337.54 819.459 1334.22 835.846 1327.15 850.842 C 1311.74 846.438 1186.88 817.388 1178.21 821.712 C 1167.46 827.073 1169.25 844.82 1180.14 849.002 C 1203.59 858.012 1289.02 872.717 1314.48 876.804 C 1215.79 1063.74 920.05 1079.66 750.57 989.987 C 745.161 987.125 739.707 984.251 734.771 980.619 C 734.204 976.129 708.681 955.214 703.729 949.336 C 685.806 928.065 665.211 895.836 655.793 869.597 C 672.761 866.193 772.855 849.391 779.274 843.162 C 784.975 837.63 783.307 825.746 777.127 821.252 C 767.742 814.427 733.928 824.382 723.002 826.501 L 643.958 842.349 C 637.515 829.921 635.321 817.1 634.774 803.26 C 651.73 798.599 810.486 808.706 771.338 771.106 C 762.381 762.503 648.22 773.887 630.168 774.108 C 629.864 760.291 629.908 748.786 634.774 735.664 L 710.361 740.64 C 722.719 741.531 769.963 748.24 779.699 741.851 C 790.955 734.464 786.86 719.372 774.711 716.495 C 735.787 707.28 680.793 715.289 635.744 705.028 L 634.774 704.797 z"/>
<path transform="translate(0,0)" fill="rgb(60,60,59)" d="M 1097.57 599.235 C 1162.45 591.331 1208.92 661.05 1179.65 672.911 C 1160.58 680.639 1158.49 641.36 1122.98 627.294 C 1051.74 621.026 1062.22 687.974 1036.35 673.553 C 1021.85 665.468 1033.19 644.237 1039.64 634.434 C 1053.7 613.083 1073.23 604.064 1097.57 599.235 z"/>
<path transform="translate(0,0)" fill="rgb(60,60,59)" d="M 835.638 599.235 C 902.196 586.38 943.491 680.167 902.468 674.986 C 886.432 672.961 888.271 632.687 847.843 627.462 L 846.463 627.294 C 794.912 620.809 795.132 675.036 776.129 675.804 C 742.896 677.147 771.901 601.642 835.638 599.235 z"/>
<path transform="translate(0,0)" fill="rgb(60,60,59)" d="M 963.165 724.024 C 1006.78 705.639 1082.94 761.884 992.259 816.389 C 1002.38 834.77 1019.65 843.83 1041.09 839.366 C 1060.4 835.343 1062.39 822.359 1071.96 808.407 C 1085.53 788.635 1114.25 816.908 1081.87 849.354 C 1052.81 878.47 1002.94 875.596 974.731 847.079 L 971.663 837.275 C 872.886 926.093 816.328 810.299 853.121 803.797 C 877.793 799.438 867.42 854.426 921.003 837.816 C 932.507 834.25 938.473 826.551 943.868 816.389 C 880.276 777.293 895.233 719.922 963.165 724.024 z"/>
<path transform="translate(0,0)" fill="rgb(253,112,105)" d="M 963.165 751.338 C 1011.73 742.832 1019.72 764.981 977.789 793.517 C 955.23 792.735 939.604 782.342 930.964 761.181 C 941.499 754.933 951.218 752.874 963.165 751.338 z"/>
</svg>