<svg version="1.1" xmlns="http://www.w3.org/2000/svg" style="display: block;" viewBox="0 0 2048 2048" width="512" height="512">
<path transform="translate(0,0)" fill="rgb(0,0,0)" d="M 687.964 233.325 C 732.103 220.294 842.719 295.966 877.184 323.864 C 895.151 338.406 910.99 355.674 929.386 369.61 L 930.963 370.792 C 963.57 359.929 1025.98 360.979 1059.03 370.792 C 1104.24 319.333 1210.21 249.412 1276.78 236.12 C 1416.91 208.143 1382.99 434.637 1367.63 512.042 C 1354.67 577.322 1346.3 564.136 1359.25 630.058 C 1391.66 568.019 1441.15 529.978 1515.61 535.222 C 1585.87 540.171 1655.47 596.478 1656.06 670.316 C 1656.51 726.584 1616.16 752.16 1610.39 803.033 C 1606.01 841.58 1615.82 882.146 1620.27 920.378 C 1636.23 1057.51 1608.15 1198.88 1498.84 1292.71 C 1515.73 1425.4 1533.55 1758.09 1359.25 1804.92 C 1295.45 1821.34 1223.98 1793.87 1172.16 1757.29 C 1081.18 1786.93 964.65 1785.48 871.337 1765.47 C 857.82 1762.57 844.038 1758.37 830.233 1757.4 L 828.485 1757.29 C 772.311 1775.62 742.778 1824.05 661.707 1810.16 C 592.646 1798.32 538.068 1744.5 514.985 1679.92 C 491.084 1613.04 480.678 1495.92 487.808 1422.49 C 492.306 1376.16 488.737 1378.94 483.518 1334.81 C 465.406 1181.67 519.427 1053.13 622.807 939.928 C 637.979 923.315 654.287 903.201 672.637 890.37 C 661.234 866.777 647.667 852.334 636.329 824.483 C 623.284 830.887 571.797 859.335 564.685 856.215 C 533.182 842.395 621.706 808.258 629.074 806.131 C 621.718 784.905 615.358 762.39 614.986 739.787 C 603.396 742.812 544.2 764.542 541.035 763.974 C 506.402 744.015 605.655 719.167 613.17 715.776 L 614.986 714.943 C 614.386 668.675 623.414 625.573 636.329 581.472 C 618.551 502.865 583.132 322.738 631.768 260.904 C 645.282 243.724 666.973 235.926 687.964 233.325 z M 1364.24 966.352 C 1335.42 974.761 1315.11 991.828 1291.34 1009.01 C 1233.31 1050.95 1170.78 1087.67 1101.9 1108.5 C 1133.33 1199.73 1042.14 1279.49 958.592 1237.99 C 910.8 1214.25 892.765 1163.64 906.19 1113.81 C 887.29 1109.36 868.323 1100.63 850.404 1093.28 C 767.152 1059.13 719.182 1028.71 657.61 966.352 C 535.175 1080.62 474.492 1309.08 565.103 1459.18 C 611.134 1537.84 696.22 1550.28 713.924 1672.98 C 680.599 1662.3 669.669 1613.28 649.622 1588.14 C 610.042 1538.49 565.189 1519.63 528.971 1459.18 C 528.135 1560.63 538.989 1762.57 679.542 1768.82 C 737.133 1771.39 824.877 1709.42 863.689 1673.36 C 946.394 1596.52 911.629 1494.31 825.022 1436.02 C 751.026 1386.22 692.681 1367.5 673.908 1267.27 C 665.953 1224.79 687.928 1205.37 698.384 1261.4 C 721.405 1384.77 835.163 1385.45 898.829 1468.6 C 926.681 1504.97 941.194 1545.75 935.079 1591.62 C 926.99 1652.3 893.813 1683.03 849.012 1717.46 C 949.413 1726.65 1041.39 1754.46 1146.28 1717.46 C 1105.83 1687.86 1070.99 1651.93 1061.54 1600.87 C 1028.51 1422.32 1262.45 1411.93 1296.36 1265.6 C 1298.34 1257.05 1297.04 1243.57 1302.35 1236.53 C 1312.18 1223.51 1323.79 1235.32 1323.99 1247.39 C 1325.96 1368.31 1197.08 1405.52 1130 1474.45 C 1067.66 1538.51 1070.34 1616.23 1135.15 1677.42 C 1175.27 1715.3 1266.36 1767.57 1321.51 1765.65 C 1457.36 1760.9 1466.82 1547.3 1462.5 1450.47 C 1437.87 1517.23 1381.15 1554.45 1335.43 1605.33 C 1319.38 1623.19 1296.91 1661.55 1280.01 1672.98 C 1292.62 1589.51 1357.34 1555.31 1405.52 1497.25 C 1424.1 1474.86 1435.47 1449.63 1449.25 1424.37 C 1469.34 1359.31 1459.69 1298.22 1445.82 1232.54 C 1444.58 1226.66 1422.95 1164.15 1445.84 1174.28 C 1454.17 1182.83 1469.44 1245.51 1471.82 1259.87 C 1566.21 1174.8 1592.9 1062 1579.76 936.932 C 1573.46 876.936 1555.58 807.922 1581.84 750.306 C 1593.49 724.758 1613.59 701.676 1614.02 672.333 C 1615.81 548.385 1400.82 554.18 1399.07 656.635 C 1398.47 691.145 1433.5 724.914 1443.42 758.404 C 1466.58 836.572 1402.6 906.946 1378.54 976.685 C 1375.91 984.297 1370.36 1010.54 1366.11 1015.09 C 1362.37 1019.09 1355.4 1019.95 1353.75 1013.77 C 1350.21 1000.5 1360.39 978.867 1364.24 966.352 z M 1291.4 274.379 C 1209.65 284.58 1136.86 369.324 1075.71 415.506 C 1037.21 410.744 1011.21 403.745 970.722 407.2 C 951.112 408.874 931.245 415.267 911.755 415.506 L 910.925 414.84 C 892.884 400.124 877.397 382.298 859.685 367.145 C 831.132 342.719 700.258 244.249 664.454 286.509 C 631.686 325.185 658.751 537.539 681.556 588.895 C 663.543 633.187 658.842 671.531 644.003 711.485 C 709.869 705.711 747.939 705.114 813.621 729.052 C 872.825 750.63 841.344 761.64 837.167 761.13 C 825.459 759.7 807.556 749.407 795.311 745.413 C 751.769 731.21 690.124 723.7 644.003 731.999 C 643.863 753.656 644.176 776.325 649.936 797.327 C 685.241 786.45 800.555 766.279 834.762 783.516 C 843.718 788.029 843.264 801.081 832.694 802.16 C 820.085 803.447 801.183 800.003 787.713 799.436 C 744.071 797.6 698.462 803.101 657.61 819.303 C 659.518 823.52 661.274 827.866 663.768 831.775 C 722.899 916.174 825.082 957.881 923.843 975.354 C 1069.25 1001.08 1242.62 954.122 1316.03 816.773 C 1263.36 803.937 1225.08 800.232 1171.67 800.762 C 1150.31 800.975 1149.61 784.581 1158.96 779.544 C 1181.58 767.355 1301.03 786.263 1325.24 797.327 C 1331.77 775.612 1334.38 754.618 1334.28 731.999 C 1275.58 736.844 1246.82 732.606 1183.75 751.724 C 1175.41 754.251 1139.69 770.56 1132.43 764.073 C 1115.29 748.775 1160.52 737.241 1167.38 735.022 C 1231.42 714.319 1269.97 710.874 1334.28 709.511 C 1329.7 684.913 1325.27 660.304 1319.98 635.847 C 1309.53 587.594 1304.54 594.275 1316.3 546.101 C 1330.35 488.608 1368.52 265.218 1291.4 274.379 z M 681.556 941.147 C 727.595 1013.59 841.702 1051.44 918.639 1087.68 C 954.739 1031.34 1043.46 1030.56 1085 1081.29 C 1163.92 1058.11 1251.89 1008.47 1318.01 957.613 C 1310.92 949.111 1303.41 941.029 1295.89 932.907 C 1293.29 929.735 1290.4 926.745 1287.65 923.698 C 1129.24 1052.76 859.386 1061.06 704.373 923.698 L 702.859 921.776 C 697.137 923.846 686.501 936.407 681.556 941.147 z M 1376.74 731.999 C 1373.9 765.789 1370.29 784.272 1364.24 816.773 C 1371.11 820.11 1382.02 824.204 1384.59 832.087 C 1392.24 855.583 1357.08 836.651 1352.7 834.996 C 1343.19 855.354 1332.09 872.898 1318.01 890.37 C 1323.44 896.329 1328.96 902.221 1334.28 908.269 C 1340.29 915.181 1346.34 921.977 1352.7 928.578 C 1375.56 887.113 1414.33 815.927 1400.66 768.079 C 1397.07 755.5 1390.68 735.998 1376.74 731.999 z"/>
<path transform="translate(0,0)" fill="rgb(254,202,4)" d="M 999.607 1068.42 C 1097.72 1062.05 1121.67 1206.05 1011.79 1224.35 C 910.582 1232.96 888.629 1076.79 999.607 1068.42 z"/>
<path transform="translate(0,0)" fill="rgb(254,254,254)" d="M 985.871 1091.2 C 998.116 1090.43 1011.29 1096.1 1022.78 1099.92 C 1004.39 1111.54 988.606 1123.1 973.157 1138.49 C 968.448 1142.95 963.783 1146.94 958.486 1150.68 C 927.574 1123.12 956.186 1098.41 985.871 1091.2 z"/>
<path transform="translate(0,0)" fill="rgb(254,202,4)" d="M 681.556 941.147 C 686.501 936.407 697.137 923.846 702.859 921.776 L 704.373 923.698 C 859.386 1061.06 1129.24 1052.76 1287.65 923.698 C 1290.4 926.745 1293.29 929.735 1295.89 932.907 C 1303.41 941.029 1310.92 949.111 1318.01 957.613 C 1251.89 1008.47 1163.92 1058.11 1085 1081.29 C 1043.46 1030.56 954.739 1031.34 918.639 1087.68 C 841.702 1051.44 727.595 1013.59 681.556 941.147 z M 704.373 923.698 C 705.261 954.265 761.549 977.504 784.247 987.641 C 933.928 1054.49 1106.8 1053.65 1248.35 966.193 C 1264.87 955.981 1279.62 943.365 1295.89 932.907 C 1293.29 929.735 1290.4 926.745 1287.65 923.698 C 1129.24 1052.76 859.386 1061.06 704.373 923.698 z"/>
<path transform="translate(0,0)" fill="rgb(0,0,0)" d="M 833.91 570.304 C 873.466 567.94 932.413 598.044 930.963 641.697 C 908.049 678.565 888.891 627.741 865.612 614.644 C 810.216 591.168 772.961 679.56 758.803 621.914 C 766.165 590.792 805.425 573.737 833.91 570.304 z"/>
<path transform="translate(0,0)" fill="rgb(0,0,0)" d="M 1134.07 570.304 C 1178.59 548.51 1256.19 632.468 1206.09 641.093 C 1184 644.896 1172.47 600.808 1134.07 609.024 C 1109.96 612.157 1100.36 626.555 1086.42 643.978 C 1075.06 658.165 1051.03 648.91 1051.92 630.817 C 1053.38 600.807 1103.32 568.706 1134.07 570.304 z"/>
<path transform="translate(0,0)" fill="rgb(254,202,4)" d="M 977.591 428.985 C 1008.02 428.375 1082.94 421.981 1085 466.585 C 1082.58 501.161 1045.52 513.084 1015.76 515.265 C 985.824 517.415 952.596 515.825 926.725 498.875 C 869.931 461.665 938.643 433.339 977.591 428.985 z"/>
<path transform="translate(0,0)" fill="rgb(0,0,0)" d="M 973.157 714.943 C 991.63 712.254 1045.78 712.964 1059 725.78 C 1077.06 743.295 1017.7 778.337 1007.4 787.294 C 1015.96 835.318 1076.9 853.233 1111.36 819.646 C 1117.72 813.443 1122.83 804.977 1130.53 800.365 C 1179.42 798.493 1089.03 909.076 1007.4 834.996 C 1003.98 831.14 999.721 827.859 995.83 824.483 C 988.319 831.78 980.852 839.405 972.245 845.43 C 901.478 894.964 818.34 807.798 852.219 792.434 C 865.704 786.319 868.548 800.572 873.458 809.628 C 898.04 854.961 966.816 844.954 985.871 787.294 C 954.039 762.297 895.105 724.926 973.157 714.943 z"/>
<path transform="translate(0,0)" fill="rgb(254,202,4)" d="M 1274.61 310.192 C 1285.94 305.274 1299.27 313.999 1305.52 323.042 C 1332.34 361.893 1304.79 499.077 1295.89 546.215 C 1271.69 517.627 1256.35 498.559 1225.91 475.285 C 1202.72 458.453 1178.55 445.083 1152.1 434.055 C 1144.26 430.789 1119.49 425.138 1114.83 420.724 L 1114.93 418.125 C 1128.61 392.193 1216.97 328.196 1241.44 316.637 C 1254.29 310.57 1260.64 309.47 1274.61 310.192 z"/>
<path transform="translate(0,0)" fill="rgb(254,202,4)" d="M 704.373 310.192 C 764.639 307.146 843.734 380.679 879.559 421.585 C 835.461 443.893 814.322 442.787 767.688 478.972 C 731.312 506.694 721.713 524.129 695.847 556.849 C 679.603 506.35 637.63 323.256 704.373 310.192 z"/>
<path transform="translate(0,0)" fill="rgb(0,0,0)" d="M 1551.48 609.024 C 1575.64 601.024 1577.29 632.006 1577.55 647.777 C 1577.42 648.046 1577.3 648.317 1577.17 648.584 L 1576.5 649.912 C 1573.69 655.608 1570.83 658.113 1565.3 661.247 C 1537.76 666.82 1526.32 618.47 1551.48 609.024 z"/>
<path transform="translate(0,0)" fill="rgb(0,0,0)" d="M 1437.43 630.058 C 1456.65 627.317 1462.66 649.844 1466.39 664.928 C 1464.05 675.67 1460.18 680.847 1449.25 684.435 C 1430.43 684.657 1424.9 662.659 1420.42 647.777 C 1423.36 637.453 1426.57 633.014 1437.43 630.058 z"/>
<path transform="translate(0,0)" fill="rgb(0,0,0)" d="M 1490.81 598.026 C 1517.79 597.853 1516.91 627.727 1513.03 647.777 C 1508.66 652.493 1504.96 655.217 1498.84 657.33 C 1469.72 656.754 1463.37 606.078 1490.81 598.026 z"/>
<path transform="translate(0,0)" fill="rgb(254,202,4)" d="M 636.329 1322.2 C 677.479 1307.36 704.789 1367.26 614.986 1384.84 C 545.595 1393.37 561.436 1322.74 636.329 1322.2 z"/>
<path transform="translate(0,0)" fill="rgb(254,202,4)" d="M 1352.7 1322.2 C 1398.03 1316.06 1467.25 1378.73 1401.64 1392.14 C 1371.46 1392.72 1307.35 1371.84 1329.07 1330.65 C 1336.69 1326.19 1344.13 1324.03 1352.7 1322.2 z"/>
<path transform="translate(0,0)" fill="rgb(254,202,4)" d="M 565.103 1459.18 C 583.54 1429.55 614.384 1400.42 649.284 1392.27 C 699.804 1380.48 739.149 1415.26 776.984 1442.22 C 821.418 1473.87 847.01 1494.61 859.439 1550.66 C 880.456 1645.45 806.52 1729.58 713.924 1672.98 C 696.22 1550.28 611.134 1537.84 565.103 1459.18 z"/>
<path transform="translate(0,0)" fill="rgb(0,0,0)" d="M 687.964 1440.98 C 720.453 1439.3 709.002 1513.7 644.003 1519.11 C 636.549 1516.97 626.31 1513.63 627.11 1504.27 C 635.773 1488.61 659.796 1505.17 678.816 1454.19 C 681.237 1447.7 681.943 1444.81 687.964 1440.98 z"/>
<path transform="translate(0,0)" fill="rgb(0,0,0)" d="M 746.611 1494.09 C 775.373 1490.77 764.742 1524.76 756.915 1540.35 C 744.224 1565.63 729.651 1570.89 704.373 1579.28 C 650.134 1565.88 710.209 1548.54 718.519 1540.53 C 733.073 1526.5 736.439 1502.74 746.611 1494.09 z"/>
<path transform="translate(0,0)" fill="rgb(254,202,4)" d="M 1303.7 1381.67 C 1324.57 1387.16 1344.71 1397.96 1365.41 1404.6 C 1392.45 1413.26 1421.53 1417.95 1449.25 1424.37 C 1435.47 1449.63 1424.1 1474.86 1405.52 1497.25 C 1357.34 1555.31 1292.62 1589.51 1280.01 1672.98 C 1275.38 1673.18 1269.76 1676.74 1265.72 1678.87 C 1183.99 1721.82 1109.15 1639.17 1130.91 1555.19 C 1149.02 1485.3 1208.82 1457.52 1261.62 1417.48 C 1276.02 1406.56 1288.37 1390.8 1303.7 1381.67 z"/>
<path transform="translate(0,0)" fill="rgb(0,0,0)" d="M 1241.96 1498.08 C 1263.99 1499.84 1257.32 1527.06 1270.25 1539.83 C 1276.6 1546.09 1342.15 1560.12 1303.7 1579.28 C 1239.09 1584.57 1213.55 1511.16 1241.96 1498.08 z"/>
<path transform="translate(0,0)" fill="rgb(0,0,0)" d="M 1295.89 1440.98 C 1315.5 1438.23 1310.65 1463.75 1318.51 1475.58 C 1328.25 1490.23 1349.04 1489.19 1364.04 1492.97 C 1382.64 1497.65 1378.66 1512.89 1364.24 1519.11 C 1302.74 1533.26 1262.18 1453.2 1295.89 1440.98 z"/>
</svg>