<svg version="1.1" xmlns="http://www.w3.org/2000/svg" style="display: block;" viewBox="0 0 2048 2048" width="1024" height="1024">
<path transform="translate(0,0)" fill="rgb(255,255,255)" d="M 0 0 L 2048 0 L 2048 2048 L 0 2048 L 0 0 z"/>
<path transform="translate(0,0)" fill="rgb(59,43,67)" d="M 45.5495 1936.36 C 59.6822 1935.6 101.637 1933.81 112.811 1937.37 C 116.409 1938.52 118.921 1940.14 120.665 1943.56 C 120.94 1946 120.824 1947.9 119.964 1950.2 C 118.659 1953.68 116.31 1954.68 113.142 1955.96 C 98.6117 1955.97 56.7027 1958.3 44.5434 1954.55 C 40.8526 1953.41 38.4028 1951.89 36.601 1948.4 C 36.4315 1946.32 36.4335 1944.87 37.3219 1942.97 C 39.291 1938.77 41.3681 1937.83 45.5495 1936.36 z"/>
<path transform="translate(0,0)" fill="rgb(59,43,67)" d="M 1819.02 1936.43 C 1858.98 1935.55 1899.15 1936.34 1939.14 1936.05 C 1952.77 1935.95 1989.24 1933.91 2000.82 1936.17 C 2004.46 1936.88 2008.42 1938.67 2010.27 1942.08 C 2011.45 1944.24 2011.41 1946.54 2010.32 1948.72 C 2008.78 1951.83 2005.69 1953.76 2002.48 1954.78 C 1994.28 1957.37 1945.83 1955.66 1934.16 1955.69 L 1718.83 1955.64 L 924.224 1955.41 L 411.369 1955.31 L 255.714 1955.73 C 230.179 1955.84 204.528 1956.56 179.005 1956.09 C 175.218 1956.02 169.318 1956.49 166.079 1954.37 C 163.934 1952.97 162.41 1950.52 162.126 1947.95 C 161.765 1944.69 162.524 1941.37 164.882 1938.97 C 170.415 1933.35 217.027 1936.73 227.785 1936.27 C 252.355 1935.43 277.064 1935.92 301.653 1935.95 L 430.402 1936.23 L 790.485 1936.07 L 1819.02 1936.43 z"/>
<path transform="translate(0,0)" fill="rgb(175,56,62)" d="M 227.785 1936.27 C 226.239 1907.56 225.417 1873.31 226.893 1844.7 C 228.082 1821.67 238.349 1799.08 255.796 1783.81 C 281.888 1760.96 313.071 1761.91 345.668 1764.07 C 374.542 1769 422.209 1766.11 453.217 1766.32 L 690.055 1767.17 L 995.007 1767.14 C 1114.71 1767.33 1234.63 1768.62 1354.31 1766.77 C 1364.58 1767.45 1375.19 1766.77 1385.5 1766.74 L 1460.88 1766.14 L 1602.95 1766.09 C 1620.82 1766.14 1706.93 1768.38 1718.53 1764.22 L 1719.19 1763.9 C 1749.7 1764.19 1773.67 1766.31 1796.11 1789.49 C 1820.88 1815.06 1818.96 1848.51 1818.99 1881.57 L 1819.02 1936.43 L 790.485 1936.07 L 430.402 1936.23 L 301.653 1935.95 C 277.064 1935.92 252.355 1935.43 227.785 1936.27 z"/>
<path transform="translate(0,0)" fill="rgb(236,182,163)" d="M 357.496 1753.89 C 302.164 1698.49 245.525 1604.18 212.297 1533.29 A 968.011 968.011 0 0 1 140.106 932.01 C 148.616 889.364 159.233 846.818 174.114 805.919 A 996.901 996.901 0 0 1 553.354 316.359 C 578.513 299.62 603.566 281.1 631.036 268.309 C 626.007 291.972 621.821 315.639 619.422 339.722 C 618.179 352.206 620.317 367.589 616.984 379.368 C 613.871 390.366 606.621 401.068 601.465 411.265 C 595.34 423.378 590.033 436.335 585.615 449.177 C 555.416 536.946 561.559 643.314 612.83 722.145 A 355.696 355.696 0 0 0 647.538 766.455 C 653.045 772.337 659.757 777.744 664.886 783.844 L 663.843 785.138 C 652.437 791.088 642.394 802.771 634.858 812.981 C 626.494 824.313 619.891 836.971 612.88 849.16 A 1502.42 1502.42 0 0 1 589.894 887.378 C 564.627 928.093 538.5 968.176 513.881 1009.3 C 497.925 1035.95 481.333 1061.01 471.873 1090.95 C 464.744 1113.52 461.59 1136.43 458.917 1159.82 C 439.901 1175.48 421.326 1190.91 405.139 1209.61 C 368.715 1251.69 345.119 1310.56 339.794 1365.93 C 330.534 1462.21 370.915 1575.41 419.86 1656.88 C 388.811 1683.67 370.295 1707.01 358.565 1746.88 L 357.496 1753.89 z"/>
<path transform="translate(0,0)" fill="rgb(59,43,67)" d="M 270.038 964.281 C 271.388 964.724 273.26 965.231 274.392 966.142 C 279.723 970.432 278.761 981.51 279.04 987.668 C 284.155 987.929 292.265 987.775 296.506 990.755 C 298.661 992.269 299.251 993.051 299.769 995.603 C 299.231 996.702 299.186 996.954 298.263 997.968 C 293.884 1002.77 283.799 1002.03 277.934 1002.2 C 277.831 1010.65 278.862 1018.4 273.815 1025.71 C 272.216 1025.28 270.488 1024.85 269.177 1023.76 C 264.033 1019.47 265.732 1008.04 265.849 1002.15 C 261.142 1002.07 255.044 1002.52 250.591 1001.01 C 247.406 999.937 245.527 998.312 244.074 995.333 L 245.061 992.766 C 251.414 987.539 257.951 988.409 265.806 988.256 C 265.997 979.759 265.195 971.727 270.038 964.281 z"/>
<path transform="translate(0,0)" fill="rgb(59,43,67)" d="M 310.592 727.439 C 347.899 727.864 385.265 727.384 422.578 727.361 C 433.229 727.354 453.476 724.978 462.775 727.885 C 466.787 729.14 471.122 732.051 472.747 736.104 C 473.924 739.043 474.167 742.202 472.451 745.009 C 470.308 748.514 467.108 749.882 463.25 750.495 C 442.589 750.299 311.371 752.617 304.961 749.6 C 301.999 748.206 299.121 745.072 298.307 741.907 C 297.446 738.559 298.574 734.887 300.506 732.112 C 303.078 728.418 306.466 728.067 310.592 727.439 z"/>
<path transform="translate(0,0)" fill="rgb(59,43,67)" d="M 631.036 268.309 C 645.796 208.149 678.763 123.146 731.577 86.8621 C 745.832 77.0693 761.167 72.1327 778.562 75.5608 C 819.778 83.6835 848.96 128.355 871.012 160.946 C 884.475 157.072 899.708 155.715 913.621 153.515 C 1001.99 139.539 1068.67 145.804 1156.8 154.18 C 1176.45 124.344 1203.85 84.111 1240.98 76.2706 C 1257.63 72.7569 1273.14 77.8429 1286.98 86.9313 C 1324.61 111.658 1350.43 161.893 1367.05 202.858 C 1394.69 212.525 1423.03 222.017 1449.38 234.882 C 1468.11 192.133 1499.8 158.167 1543.79 141.053 C 1584.93 125.044 1632.83 124.437 1673.36 142.52 C 1709.07 158.453 1739.65 187.816 1753.59 224.662 A 146.152 146.152 0 0 1 1762.37 260.517 C 1765.26 287.962 1763.38 317.238 1763.26 344.847 L 1763.34 475.57 C 1763.32 488.025 1761.31 520.182 1763.66 530.721 C 1774.15 539.966 1782.5 552.493 1790.74 563.744 C 1834.91 624.066 1876.86 700.132 1903.12 770.066 C 1910.12 788.721 1916.56 808.043 1922.43 827.097 C 1925.13 835.855 1926.7 845.955 1930.32 854.259 C 1934.28 858.052 1935.63 867.771 1936.95 873.079 C 1943.36 900.608 1951.07 927.956 1955.58 955.881 A 976.857 976.857 0 0 1 1827.74 1627.25 C 1807.16 1660.42 1783.4 1693.1 1757.64 1722.46 C 1750.37 1730.75 1743.03 1739.06 1735.37 1747.01 C 1730.24 1752.33 1723.33 1757.87 1719.19 1763.9 L 1718.53 1764.22 C 1706.93 1768.38 1620.82 1766.14 1602.95 1766.09 L 1460.88 1766.14 L 1385.5 1766.74 C 1375.19 1766.77 1364.58 1767.45 1354.31 1766.77 C 1234.63 1768.62 1114.71 1767.33 995.007 1767.14 L 690.055 1767.17 L 453.217 1766.32 C 422.209 1766.11 374.542 1769 345.668 1764.07 C 348.99 1764.17 352.095 1764.44 355.318 1763.44 C 357.5 1760.97 357.258 1757.04 357.496 1753.89 L 358.565 1746.88 C 370.295 1707.01 388.811 1683.67 419.86 1656.88 C 370.915 1575.41 330.534 1462.21 339.794 1365.93 C 345.119 1310.56 368.715 1251.69 405.139 1209.61 C 421.326 1190.91 439.901 1175.48 458.917 1159.82 C 461.59 1136.43 464.744 1113.52 471.873 1090.95 C 481.333 1061.01 497.925 1035.95 513.881 1009.3 C 538.5 968.176 564.627 928.093 589.894 887.378 A 1502.42 1502.42 0 0 0 612.88 849.16 C 619.891 836.971 626.494 824.313 634.858 812.981 C 642.394 802.771 652.437 791.088 663.843 785.138 L 664.886 783.844 C 659.757 777.744 653.045 772.337 647.538 766.455 A 355.696 355.696 0 0 1 612.83 722.145 C 561.559 643.314 555.416 536.946 585.615 449.177 C 590.033 436.335 595.34 423.378 601.465 411.265 C 606.621 401.068 613.871 390.366 616.984 379.368 C 620.317 367.589 618.179 352.206 619.422 339.722 C 621.821 315.639 626.007 291.972 631.036 268.309 z"/>
<path transform="translate(0,0)" fill="rgb(236,182,163)" d="M 1437.59 697.693 C 1440.42 708.16 1438.64 786.569 1436.77 801.014 C 1435.18 813.384 1431.91 825.189 1428.03 837.015 C 1422.34 827.265 1415.53 818.088 1409.1 808.813 C 1400.05 796.41 1391.56 783.711 1381.77 771.855 C 1402.74 748.192 1421.36 724.894 1437.59 697.693 z"/>
<path transform="translate(0,0)" fill="rgb(243,199,137)" d="M 907.157 1034.8 C 911.344 1035.23 913.786 1037.24 917.377 1039.19 C 958.724 1061.65 1025.07 1062.85 1071.42 1056.58 C 1087.47 1054.41 1103.04 1050.67 1118.63 1046.42 C 1126.63 1044.24 1133.15 1037.47 1140.52 1035.63 C 1143.38 1034.92 1146.57 1036.01 1148.8 1037.71 C 1149.59 1039.01 1150.32 1040.16 1150.43 1041.73 C 1150.77 1046.65 1148.31 1049.5 1145.12 1052.82 C 1117.18 1068.47 1082.35 1074.03 1050.71 1075.88 C 1008.32 1078.36 966.497 1074.62 926.041 1061.09 C 918.845 1058.68 909.706 1056.26 904.149 1050.92 C 902.055 1048.91 900.34 1045.57 900.604 1042.59 C 900.955 1038.62 904.163 1036.75 907.157 1034.8 z"/>
<path transform="translate(0,0)" fill="rgb(243,199,137)" d="M 1017.88 1636.21 L 1018.02 1748.74 C 982.772 1748.47 940.316 1746.16 905.547 1748.76 C 900.626 1748.84 895.692 1748.72 890.77 1748.68 C 902.293 1745.16 913.621 1741.61 924.524 1736.43 C 964.26 1716.1 1003.75 1679.72 1017.88 1636.21 z"/>
<path transform="translate(0,0)" fill="rgb(243,199,137)" d="M 686.177 1726.88 C 716.071 1706.98 744.461 1683.39 773.116 1661.65 C 788.356 1687.42 803.034 1721.81 827.866 1739.21 C 831.711 1741.65 838.243 1744.58 841.059 1747.91 C 827.224 1748.95 813.309 1747.68 799.499 1748.79 C 795.396 1748.41 791.363 1748.71 787.259 1748.93 C 755.799 1747.97 724.084 1748.89 692.579 1748.62 L 686.177 1726.88 z"/>
<path transform="translate(0,0)" fill="rgb(236,182,163)" d="M 1367.05 202.858 C 1394.69 212.525 1423.03 222.017 1449.38 234.882 C 1436.01 269.567 1437.86 305.037 1438 341.453 A 2905.35 2905.35 0 0 1 1437.88 420.957 C 1430.61 400.233 1415.86 377.907 1402.3 360.671 C 1400.62 306.627 1386.08 253.123 1367.05 202.858 z"/>
<path transform="translate(0,0)" fill="rgb(236,182,163)" d="M 863.598 1751.79 A 1347.4 1347.4 0 0 0 901.998 1751.96 L 1050.37 1752 C 1074.1 1752.01 1099.13 1753.69 1122.68 1751.83 C 1152.93 1752.18 1184.15 1753.41 1214.35 1751.87 C 1263.64 1752.57 1312.97 1751.93 1362.27 1752.05 L 1361.96 1764.87 L 869.223 1765.08 L 755.059 1765.47 C 742.51 1765.52 705.078 1767.39 694.432 1764.32 C 695.06 1760.44 693.782 1755.76 693.177 1751.88 C 720.648 1751.6 748.122 1752.3 775.597 1751.87 C 783.253 1751.93 791.007 1752.25 798.651 1751.9 A 3713.09 3713.09 0 0 0 863.598 1751.79 z"/>
<path transform="translate(0,0)" fill="rgb(175,56,62)" d="M 1247.32 130.232 C 1255.93 129.609 1261.86 130.578 1269.22 135.348 C 1306.04 159.221 1333.73 254.746 1342.59 297.477 C 1332.17 287.782 1321.24 279.191 1309.56 271.068 C 1305.8 267.489 1299.98 264.362 1295.61 261.494 C 1265.88 242.002 1225.48 221.094 1189.76 216.258 A 241.609 241.609 0 0 1 1193.62 204.695 C 1203.27 178.738 1220.64 142.492 1247.32 130.232 z"/>
<path transform="translate(0,0)" fill="rgb(175,56,62)" d="M 763.256 130.296 C 769 129.87 773.507 129.992 778.837 132.431 C 806.571 145.124 822.009 189.157 831.656 215.762 C 788.018 227.068 749.925 245.011 713.564 271.786 C 700.894 281.784 688.92 292.348 677.02 303.242 A 359.508 359.508 0 0 1 701.758 212.552 C 712.301 187.283 736.653 141.215 763.256 130.296 z"/>
<path transform="translate(0,0)" fill="rgb(243,199,137)" d="M 912.31 1059.35 A 244.255 244.255 0 0 0 917.649 1061.51 C 978.258 1085.14 1073.04 1088.16 1133.67 1061.48 C 1129.35 1081.4 1122.29 1097.52 1109.46 1113.43 C 1091.85 1133.74 1069.64 1147.15 1043.07 1152.1 C 1013.36 1157.63 983.116 1150.4 958.377 1133.16 C 933.035 1115.51 917.759 1089.49 912.31 1059.35 z"/>
<path transform="translate(0,0)" fill="rgb(236,182,163)" d="M 871.012 160.946 C 884.475 157.072 899.708 155.715 913.621 153.515 C 1001.99 139.539 1068.67 145.804 1156.8 154.18 C 1146.43 171.978 1134.62 190.725 1126.94 209.849 C 1091.37 210.132 1056.32 217.719 1020.73 218.237 C 979.106 218.843 938.408 211.436 897.042 208.877 C 889.251 192.568 881.082 175.983 871.012 160.946 z"/>
<path transform="translate(0,0)" fill="rgb(175,56,62)" d="M 1244.43 78.4767 C 1244.98 78.4214 1245.52 78.3532 1246.07 78.3108 C 1266.1 76.754 1281.02 84.8982 1295.95 97.4004 C 1343.98 137.607 1375.28 220.834 1388.73 281.237 C 1394.31 306.303 1397.6 331.952 1399.87 357.51 C 1393 350.195 1386.84 342.166 1380.06 334.749 C 1368.85 322.494 1356.81 310.947 1344.95 299.323 C 1340.94 274.847 1334.19 251.699 1326.58 228.133 C 1321.3 214.11 1315.89 199.997 1309.35 186.509 C 1300.09 167.415 1283.26 135.371 1261.36 128.366 C 1253.93 125.991 1246.59 127.019 1239.88 130.927 C 1215.68 145.04 1195.04 189.676 1187.58 215.488 A 230.839 230.839 0 0 0 1157.22 211.135 C 1149.24 210.535 1136.83 212.168 1129.5 209.496 C 1140.35 185.393 1154.68 160.743 1169.88 139.081 C 1187.88 113.429 1211.89 84.2409 1244.43 78.4767 z"/>
<path transform="translate(0,0)" fill="rgb(175,56,62)" d="M 759.242 77.3803 C 768.17 76.4965 776.638 77.3417 785.17 80.0723 C 832.999 95.3784 872.789 166.37 894.996 209.467 C 874.564 209.759 854.05 210.401 834.125 215.347 C 831.888 207.994 829.272 200.711 826.573 193.515 C 818.554 172.134 801.705 138.907 779.416 129.475 C 772.644 126.609 765.564 126.521 758.782 129.391 C 730.892 141.193 704.388 198.056 693.446 225.188 C 684.17 252.536 677.683 278.609 673.492 307.235 C 653.479 328.954 636.125 352.088 620.056 376.822 C 619.925 352.241 623.042 326.984 627.193 302.778 C 636.834 246.555 653.173 195.779 682.419 146.615 C 700.075 116.935 724.26 86.2581 759.242 77.3803 z"/>
<path transform="translate(0,0)" fill="rgb(243,199,137)" d="M 1011.26 925.332 C 1032.7 923.662 1052.74 926.048 1072.33 935.367 A 108.838 108.838 0 0 1 1129.47 998.978 C 1132.03 1006.31 1139.14 1027.79 1134.34 1034.62 C 1124.36 1048.83 1060.51 1054.7 1042.9 1055.97 C 1008.85 1056.78 976.289 1054.88 943.153 1045.97 C 935.986 1044.04 927.65 1042.04 921.242 1038.18 C 919.014 1036.84 916.348 1035.15 915.782 1032.46 C 912.613 1017.41 926.401 984.397 935.209 971.868 C 953.205 946.269 980.701 930.461 1011.26 925.332 z"/>
<path transform="translate(0,0)" fill="rgb(255,255,255)" d="M 982.97 987.216 C 986.99 987.4 991.141 987.98 994.719 989.928 A 21.3369 21.3369 0 0 1 1005.31 1003.52 A 23.7834 23.7834 0 0 1 1002.74 1021.54 C 998.584 1028.57 992.568 1031.57 984.917 1033.57 C 980.716 1033.82 976.84 1033.4 973.021 1031.48 C 967.499 1028.72 963.531 1024.03 961.788 1018.1 A 24.1331 24.1331 0 0 1 964.341 998.591 C 968.818 991.406 974.984 988.864 982.97 987.216 z"/>
<path transform="translate(0,0)" fill="rgb(243,199,137)" d="M 1365.14 1759.19 C 1369.54 1719.5 1387.42 1684.95 1418.75 1659.74 C 1452.49 1632.58 1493.76 1621.77 1536.49 1626.28 C 1581.16 1633 1625.72 1654.47 1653.05 1691.28 A 202.869 202.869 0 0 1 1671.6 1722.16 C 1677.06 1735.95 1680.75 1749.22 1682.73 1763.94 L 1586.51 1764.01 C 1586.47 1751.74 1589.63 1710.14 1583.48 1702.6 C 1582.37 1701.23 1581.31 1700.84 1579.7 1700.33 C 1578.04 1700.61 1576.47 1700.35 1575.4 1701.81 C 1569.47 1709.89 1572.27 1751.96 1572.47 1763.88 L 1524.09 1763.61 C 1524.12 1752.6 1526.71 1712.31 1522.11 1703.72 C 1519.62 1701.51 1518.53 1701.28 1515.37 1700.92 C 1512.7 1701.85 1511.96 1702.05 1510.42 1704.63 C 1507.27 1709.92 1509.33 1754.85 1509.77 1763.97 L 1462.18 1763.93 C 1462.25 1750.53 1465.41 1711.08 1457.63 1701.52 C 1455.14 1700.43 1455.01 1700.41 1452.36 1701 C 1448.7 1704.17 1447.57 1708.88 1447.23 1713.56 C 1446.03 1730.12 1447.08 1747.5 1447.14 1764.15 C 1422.97 1764.12 1389.84 1765.94 1366.75 1763.81 C 1365.6 1762.22 1365.41 1761.11 1365.14 1759.19 z"/>
<path transform="translate(0,0)" fill="rgb(243,199,137)" d="M 510.76 1626.53 C 558.886 1623.69 605.046 1637.91 641.427 1670.14 C 669.634 1695.12 686.346 1727.35 691.962 1764.45 C 681.92 1766.79 668.02 1765.07 657.53 1764.93 C 636.509 1764.64 615.499 1764.15 594.477 1764.56 C 594.123 1749.2 597.121 1718.04 593.569 1704.84 C 592.754 1701.82 591.757 1700.24 589.076 1698.66 C 586.462 1699.34 585.91 1700.12 583.936 1702.03 C 579.72 1714.5 582.247 1750.13 582.366 1764.91 A 2081.21 2081.21 0 0 0 531.039 1764.59 C 531.063 1748.06 533.122 1722.81 530.989 1707.13 C 530.552 1703.93 529.919 1701.34 527.236 1699.28 C 524.934 1699.28 523.741 1699.48 521.968 1701.28 C 516.792 1706.53 519.499 1754.62 519.579 1764.33 C 502.007 1764.05 484.405 1764.25 466.83 1764.25 C 466.926 1749.75 469.229 1717.49 465.899 1705.15 C 465.18 1702.48 464.788 1701.55 462.375 1700.23 C 460.623 1700.58 459.704 1700.4 458.44 1701.81 C 451.77 1709.24 454.629 1752.67 454.647 1764.18 L 359.495 1764.12 C 360.22 1758.35 361.374 1752.73 362.571 1747.04 C 365.541 1728.16 377.343 1706.96 388.873 1691.97 C 419.422 1652.25 462.012 1632.89 510.76 1626.53 z"/>
<path transform="translate(0,0)" fill="rgb(243,199,137)" d="M 492.654 1626.25 C 496.668 1616.38 502.798 1607.06 507.293 1597.33 C 518.999 1571.97 528.173 1544.07 533.427 1516.68 C 537.73 1494.24 540.064 1470.99 540.771 1448.16 C 540.967 1441.85 538.635 1415.58 539.977 1412.36 C 549.876 1421.38 558.386 1431.88 568.425 1440.76 C 602.266 1470.69 643.979 1495.09 686.402 1510.66 C 715.157 1559.47 741.851 1609.77 771.571 1657.96 A 2510.72 2510.72 0 0 1 684.757 1724.25 C 663.783 1680.6 630.499 1649.16 584.527 1632.85 C 561.371 1624.63 530.976 1619.6 506.639 1624.28 C 502.131 1624.16 497.126 1625.51 492.654 1626.25 z"/>
<path transform="translate(0,0)" fill="rgb(175,56,62)" d="M 664.886 783.844 C 736.107 842.702 804.431 877.729 898.481 883.81 C 934.535 886.141 971.072 884.448 1007.19 884.444 L 1085.67 884.606 C 1107.16 884.76 1128.87 885.395 1150.29 883.45 C 1239.18 875.381 1317.28 837.591 1379.77 774.075 C 1395.66 791.474 1415.27 819.597 1426.98 840.115 C 1399.37 905.277 1311.43 956.302 1248.18 981.956 C 1212.38 996.477 1174.56 1006.66 1137 1015.56 C 1128.77 982.906 1114.06 956.737 1084.6 939.085 C 1059.09 923.801 1028.14 917.401 999.02 924.871 A 117.451 117.451 0 0 0 928.489 977.99 C 922.181 988.715 918.19 1000.73 915.015 1012.7 C 813.503 999.937 688.901 941.789 625.298 859.994 A 207.05 207.05 0 0 1 620.524 853.607 C 619.641 851.88 618.397 849.708 618.538 847.71 C 619.655 831.979 650.643 796.728 663.281 787.385 C 663.52 787.209 663.763 787.039 664.003 786.866 L 663.843 785.138 L 664.886 783.844 z"/>
<path transform="translate(0,0)" fill="rgb(243,199,137)" d="M 1188.75 1361.74 C 1206.51 1282.02 1250.23 1212.78 1319.97 1168.61 C 1380.35 1130.37 1450.19 1118.11 1519.84 1134.07 C 1537.02 1138.01 1553.36 1143.97 1569.66 1150.59 C 1555.1 1176 1541.89 1201.71 1531.35 1229.07 C 1492.95 1328.79 1485.28 1444.71 1513.27 1548.09 C 1517.79 1564.8 1522.76 1581.51 1529.07 1597.63 C 1531.74 1604.44 1540.76 1616.41 1539.75 1622.97 L 1536.49 1623.37 A 150.058 150.058 0 0 0 1454.13 1634.48 C 1412.8 1652.35 1384.64 1684.22 1368.08 1725.55 C 1353 1717.96 1337.88 1710.37 1323.7 1701.16 C 1291.59 1680.3 1261.39 1649.64 1240.26 1617.83 A 338.526 338.526 0 0 1 1188.75 1361.74 z"/>
<path transform="translate(0,0)" fill="rgb(236,182,163)" d="M 1763.66 530.721 C 1774.15 539.966 1782.5 552.493 1790.74 563.744 C 1834.91 624.066 1876.86 700.132 1903.12 770.066 C 1910.12 788.721 1916.56 808.043 1922.43 827.097 C 1925.13 835.855 1926.7 845.955 1930.32 854.259 C 1934.28 858.052 1935.63 867.771 1936.95 873.079 C 1943.36 900.608 1951.07 927.956 1955.58 955.881 A 976.857 976.857 0 0 1 1827.74 1627.25 C 1807.16 1660.42 1783.4 1693.1 1757.64 1722.46 C 1750.37 1730.75 1743.03 1739.06 1735.37 1747.01 C 1730.24 1752.33 1723.33 1757.87 1719.19 1763.9 L 1718.53 1764.22 C 1707.84 1763.57 1696.76 1764.05 1686.03 1764.03 C 1683.71 1748.29 1680.05 1734.46 1673.55 1719.91 C 1664.27 1694.34 1641.86 1670.61 1619.72 1655.62 C 1648.98 1598.57 1681.95 1545.87 1698.51 1483.21 C 1719.1 1405.26 1709.22 1313.11 1668.23 1243.1 C 1635.26 1186.78 1586.25 1147.61 1523.05 1131.28 C 1548.92 1107.75 1574.1 1083.44 1596.64 1056.65 C 1665.88 974.387 1713.94 871.734 1740.19 767.927 C 1747.13 740.469 1755.92 710.76 1757.72 682.401 C 1765.88 632.25 1762.16 581.264 1763.66 530.721 z"/>
<path transform="translate(0,0)" fill="rgb(59,43,67)" d="M 1753.06 1114.03 C 1755.83 1113.75 1758.63 1113.37 1761.34 1114.21 C 1765.57 1115.51 1769.27 1118.52 1771.24 1122.5 C 1773.32 1126.71 1773.47 1131.54 1771.93 1135.95 C 1770.07 1141.28 1766.33 1144.61 1761.39 1147.04 C 1759.04 1147.15 1756.55 1147.34 1754.23 1146.92 C 1749.52 1146.08 1745.01 1142.89 1742.62 1138.75 C 1740.36 1134.84 1740.05 1129.97 1741.54 1125.73 C 1743.64 1119.77 1747.68 1116.87 1753.06 1114.03 z"/>
<path transform="translate(0,0)" fill="rgb(59,43,67)" d="M 1797.09 1442.46 C 1799.56 1442.56 1800.9 1442.73 1803.06 1443.97 C 1807.93 1449.78 1805.93 1459.43 1806.99 1466.74 L 1807.19 1468.1 C 1812.38 1467.93 1817.85 1467.47 1823.02 1467.98 C 1826.72 1468.35 1829.2 1469.25 1831.59 1472.25 C 1832.15 1475.19 1832.15 1475.69 1831.16 1478.5 C 1825.46 1483.59 1813.67 1482.05 1806.18 1482.6 C 1806.17 1490.44 1805.62 1497.68 1803.58 1505.26 C 1803.03 1505.66 1802.54 1506.15 1801.93 1506.45 C 1799.44 1507.7 1798.11 1507.35 1795.65 1506.61 C 1790.86 1501.18 1791.34 1489.38 1790.75 1482.26 C 1788.33 1482.26 1785.9 1482.27 1783.48 1482.13 C 1778.2 1481.83 1774.27 1480.66 1770.72 1476.64 C 1770.34 1474.26 1770.15 1473.67 1771.89 1471.68 C 1776.55 1466.33 1786.37 1467.4 1792.66 1467.38 C 1792.97 1458.37 1792.18 1450.48 1797.09 1442.46 z"/>
<path transform="translate(0,0)" fill="rgb(59,43,67)" d="M 1930.32 854.259 C 1934.28 858.052 1935.63 867.771 1936.95 873.079 C 1935.07 875.348 1933.23 877.916 1930.27 878.725 C 1924.05 880.423 1821.76 879.407 1810.08 878.636 C 1807.35 878.456 1804.4 878.389 1802.2 876.56 C 1799.59 874.395 1798.68 871.483 1798.61 868.225 C 1798.51 864.379 1798.94 860.345 1801.94 857.577 C 1804.42 855.289 1807.92 854.406 1811.19 854.037 C 1822.22 852.794 1834.41 854.268 1845.59 854.27 L 1930.32 854.259 z"/>
<path transform="translate(0,0)" fill="rgb(243,199,137)" d="M 880.488 212.433 C 899.153 211.244 917.67 213.751 936.177 215.8 C 959.162 218.344 982.191 220.96 1005.34 221.239 C 1041.53 221.676 1076.41 215.434 1112.33 213.239 C 1190.1 208.485 1261.42 236.151 1321.82 283.746 A 409.776 409.776 0 0 1 1423.26 398.815 C 1429.21 408.865 1436.86 420.263 1437.99 432.139 C 1438.92 441.884 1438.15 452.169 1438.1 461.974 L 1437.97 516.556 L 1438.26 636.447 C 1438.29 649.614 1440.45 679.025 1437.18 690.826 C 1432.25 708.663 1407.61 737.61 1395.15 752.163 C 1327.65 831.002 1242.52 873.907 1139.25 881.908 C 1093.21 882.989 1047.12 881.961 1001.07 882.112 C 964.541 882.231 927.386 883.713 890.988 880.613 A 375.094 375.094 0 0 1 674.136 787.771 C 612.335 732.872 575.66 663.292 570.927 579.978 C 565.483 484.136 600.808 392.997 664.423 321.872 C 721.301 258.279 794.249 217.328 880.488 212.433 z"/>
<path transform="translate(0,0)" fill="rgb(59,43,67)" d="M 913.633 258.214 L 916.257 259.585 C 918.854 267.639 921.767 307.184 923.126 318.477 L 929.379 369.076 C 930.241 376.084 932.011 384.038 931.992 390.993 C 931.989 392.262 931.626 393.175 931.209 394.35 C 930.843 394.071 930.423 393.852 930.111 393.514 C 928.078 391.312 912.488 267.04 913.633 258.214 z"/>
<path transform="translate(0,0)" fill="rgb(59,43,67)" d="M 1162.97 628.366 C 1188.31 627.188 1213.93 628.738 1239.3 628.63 L 1321.9 628.053 C 1329.31 628.029 1340.4 626.318 1347.31 628.086 C 1349.22 628.574 1349 629.042 1349.95 630.638 C 1333.4 632.988 1167.46 632.958 1163.65 631.024 L 1162.97 628.366 z"/>
<path transform="translate(0,0)" fill="rgb(59,43,67)" d="M 961.846 598.123 C 970.358 596.789 981.283 602.086 989.838 603.673 C 997.474 605.089 1005.4 605.737 1013.17 605.798 C 1024.99 605.891 1036.75 604.405 1048.32 602.039 C 1053.51 600.978 1059.9 598.363 1065.07 598.363 L 1065.47 599.558 L 1064.26 601.369 C 1048.51 606.748 1032.81 608.894 1016.26 609.597 C 1016.13 624.696 1014.8 641.328 1018.76 656.004 A 82.3206 82.3206 0 0 0 1057.86 706.382 C 1079.58 718.419 1110.08 723.213 1131.94 708.598 C 1138.21 704.406 1145.72 696.199 1152.83 694.185 C 1151.77 696.776 1149.91 698.638 1148.02 700.657 C 1136.17 713.309 1117.89 720.336 1100.76 720.827 C 1077.1 721.505 1054.45 711.2 1037.37 695.317 C 1026.27 683.487 1020.65 669.014 1015.05 654.078 C 1013.39 660.385 1011.61 666.545 1008.91 672.501 A 82.7907 82.7907 0 0 1 962.702 716.121 A 78.187 78.187 0 0 1 902.858 713.795 C 894.064 709.729 883.675 703.732 880.173 694.11 C 896.644 707.658 912.774 717.324 934.712 717.508 C 954.978 717.677 975.877 708.607 990.109 694.256 C 1014.96 669.199 1013.27 641.941 1013.25 609.329 C 997.763 608.689 975.108 606.81 961.846 598.123 z"/>
<path transform="translate(0,0)" fill="rgb(59,43,67)" d="M 1010.52 523.379 C 1021.75 522.332 1036.01 522.564 1045.29 529.704 C 1049.58 533.003 1052.21 537.604 1052.76 542.994 A 23.6925 23.6925 0 0 1 1046.79 561.192 C 1041.16 567.36 1035.38 569.04 1027.34 569.636 C 1016.6 569.561 1002.76 570.861 993.463 564.722 C 987.61 560.858 983.279 554.19 981.9 547.338 C 980.889 542.314 981.574 537.058 984.729 532.907 C 990.597 525.189 1001.69 524.54 1010.52 523.379 z"/>
<path transform="translate(0,0)" fill="rgb(59,43,67)" d="M 819.614 421.398 A 182.402 182.402 0 0 1 823.227 421.134 C 850.464 419.434 875.414 431.52 895.367 449.392 C 908.062 460.763 921.673 476.118 922.167 494.091 C 922.471 505.143 917.801 514.772 909.969 522.391 C 893.199 538.706 867.364 544.053 844.753 543.732 A 129.81 129.81 0 0 1 776.284 518.457 C 763.528 509.027 741.707 486.499 739.757 470.306 C 739.022 464.198 742.639 457.914 746.399 453.399 C 764.618 431.519 792.583 424.292 819.614 421.398 z"/>
<path transform="translate(0,0)" fill="rgb(255,255,255)" d="M 808.632 426.401 L 810.244 426.329 C 810.319 428.507 807.056 430.734 805.475 432.32 C 794.146 443.687 786.722 452.674 782.99 468.507 C 777.942 489.919 782.967 508.038 794.225 526.406 C 786.686 521.591 779.465 516.532 772.316 511.156 C 761.618 502.527 745.378 483.737 743.222 469.808 C 742.516 465.245 744.667 460.659 747.351 457.094 C 761.23 438.664 786.689 429.508 808.632 426.401 z"/>
<path transform="translate(0,0)" fill="rgb(255,255,255)" d="M 871.539 436.809 C 873.082 437.37 874.523 438.017 875.957 438.824 C 892.203 447.971 912.278 467.381 917.446 485.793 C 919.858 494.386 918.82 503.234 914.414 511.003 C 905.922 525.975 888.858 532.885 873.197 537.519 C 862.02 539.881 851.377 540.996 839.944 540.862 C 844.409 538.867 849.011 536.922 853.164 534.32 C 868.399 524.776 879.222 508.585 883.279 491.14 C 887.843 471.516 881.932 453.378 871.539 436.809 z"/>
<path transform="translate(0,0)" fill="rgb(59,43,67)" d="M 1201.18 421.268 A 118.377 118.377 0 0 1 1250.12 426.629 C 1271.78 433.688 1293.59 446.844 1304.22 467.696 A 91.0036 91.0036 0 0 1 1296.79 487.452 C 1281.37 517.657 1253.61 532.053 1222.71 542.249 L 1221.85 542.421 C 1194.98 547.567 1164.13 542.854 1141.36 527.086 C 1131.61 520.341 1123.73 510.777 1121.76 498.813 C 1119.72 486.415 1125.19 474.462 1132.21 464.568 C 1147.4 443.152 1175.4 425.816 1201.18 421.268 z"/>
<path transform="translate(0,0)" fill="rgb(255,255,255)" d="M 1165.49 438.921 C 1166.99 440.78 1164.99 443.065 1163.89 445.026 C 1155.37 460.146 1153.73 479.686 1158.12 496.358 C 1163.9 518.37 1178.75 530.988 1197.78 541.96 C 1188.49 541.12 1179.76 539.662 1170.75 537.192 C 1156.27 532.092 1140.52 525.28 1131.39 512.275 C 1126.24 504.937 1124.17 496.36 1125.8 487.512 C 1129.66 466.538 1148.68 450.033 1165.49 438.921 z"/>
<path transform="translate(0,0)" fill="rgb(255,255,255)" d="M 1230.96 426.178 A 143.462 143.462 0 0 1 1245.99 429.188 C 1267.28 434.776 1288.88 448.32 1300.23 467.497 C 1295.98 488.512 1283.52 504.097 1267.13 517.244 C 1258.13 523.946 1248.44 529.148 1238.41 534.14 C 1241.38 531.175 1244.29 528.189 1246.85 524.858 C 1258.24 510.032 1262.8 490.631 1260.22 472.196 C 1257.39 451.964 1246.97 438.219 1230.96 426.178 z"/>
<path transform="translate(0,0)" fill="rgb(243,199,137)" d="M 1137.66 1017.82 C 1153.68 1014.83 1169.48 1010.37 1185.17 1005.99 C 1252.4 987.206 1315.18 958.633 1369.46 914.175 C 1398.49 890.402 1423.46 863.059 1434.57 826.418 C 1445.27 791.162 1441.01 733.625 1441.2 695.122 L 1441.06 411.5 L 1441.04 333.144 C 1441 315.035 1440.24 296.584 1442.11 278.555 C 1446.71 234.296 1468.49 195.571 1503.15 167.736 C 1538.46 139.37 1583.82 127.951 1628.56 133.113 A 154.034 154.034 0 0 1 1731.97 191.882 A 136.488 136.488 0 0 1 1758.59 254.61 C 1761.53 273.707 1760.56 293.699 1760.45 312.98 A 7699.46 7699.46 0 0 0 1760.16 391.878 L 1760.32 540.633 C 1760.38 586.657 1761.3 632.751 1755.46 678.511 C 1754.67 684.031 1753.97 689.588 1753.06 695.09 C 1691.04 731.863 1648.57 785.814 1630.83 856.137 C 1621.59 892.758 1618.84 940.425 1639.02 974.18 A 80.1088 80.1088 0 0 0 1645.44 983.474 C 1612.44 1038.65 1567.79 1089.33 1518.04 1129.95 C 1447.83 1114.41 1376.67 1128.4 1316.35 1167.05 A 299.6 299.6 0 0 0 1187.45 1352.86 A 153.144 153.144 0 0 0 1186.62 1356.93 C 1168.45 1449.04 1185.24 1541.64 1237.69 1619.99 A 301.465 301.465 0 0 0 1367.67 1728.38 C 1365.77 1735.29 1363.96 1742.15 1362.59 1749.18 L 1266.21 1748.96 C 1249.76 1748.96 1233.06 1748.36 1216.64 1749.08 C 1206.76 1748.03 1196.13 1748.69 1186.16 1748.64 C 1170.98 1748.56 1155.48 1747.9 1140.33 1748.84 C 1126.85 1747.45 1112.37 1748.38 1098.76 1748.43 L 1020.95 1748.8 L 1020.97 1670.07 C 1020.98 1656.79 1020.3 1643.05 1021.43 1629.83 C 1023.03 1611 1030.19 1595.15 1030.4 1574.28 C 1030.59 1555.4 1022.9 1538.68 1022.13 1520.12 C 1021.22 1498.09 1021.94 1475.75 1021.96 1453.69 L 1021.92 1336.35 L 1021.89 1253.34 C 1021.88 1238.59 1024.26 1216.62 1020.19 1202.74 C 1017.97 1215.24 1018.86 1228.71 1018.86 1241.41 L 1018.89 1302.13 L 1018.96 1521.2 C 1003.67 1489.29 973.797 1452.8 953.451 1422.97 L 877.542 1312.64 C 862.594 1290.85 848.318 1268.01 832.166 1247.12 C 828.922 1213.76 819.633 1183.56 801.139 1155.39 C 784.38 1129.86 764.41 1110.36 739.445 1093.04 C 732.377 1088.14 724.179 1082.35 715.631 1080.56 C 720.268 1087.38 734.34 1093 741.391 1097.74 A 173.677 173.677 0 0 1 756.886 1109.6 C 798.327 1145.27 824.413 1193.09 828.743 1247.67 C 843.18 1267.42 856.543 1288.03 870.373 1308.21 L 940.037 1409.23 L 985.616 1474.65 C 994.22 1487.12 1003.32 1499.58 1010.8 1512.77 C 1029.72 1546.14 1030.41 1582.8 1020.25 1619.09 C 1005.38 1672.2 970.879 1706.73 923.99 1733.26 C 898.06 1743.73 882.225 1748.14 854.114 1748.23 C 845.134 1746.13 837.704 1741.64 829.935 1736.86 C 822.327 1731.54 816.021 1726 810.541 1718.47 C 802.629 1707.6 796.997 1694.77 790.03 1683.24 A 5633.19 5633.19 0 0 1 715.822 1554.86 C 707.957 1541.06 700.355 1523.97 690.172 1511.84 C 682.75 1503.01 656.007 1494.1 644.549 1488.2 A 463.606 463.606 0 0 1 615.028 1471.33 A 360.604 360.604 0 0 1 542.636 1410.39 C 512.307 1373.38 488.166 1332.68 475.221 1286.32 C 456.56 1219.51 454.54 1141.55 480.322 1076.39 C 490.196 1051.43 505.425 1028.84 519.311 1005.98 C 550.895 954.007 585.711 903.553 615.598 850.614 L 620.318 857.85 C 620.96 858.837 621.593 859.795 622.304 860.735 C 686.124 945.112 812.004 1000.46 914.325 1015.46 C 913.071 1020.78 912.414 1026.32 911.544 1031.72 C 907.374 1032.2 904.044 1032.69 900.775 1035.5 C 898.467 1037.49 896.834 1040.17 896.995 1043.33 C 897.374 1050.74 904.005 1055.4 909.317 1059.48 C 912.555 1075.5 916.994 1089.98 925.909 1103.83 A 117.707 117.707 0 0 0 1000.16 1154.95 C 1030.26 1161.3 1061.67 1154.07 1087.2 1137.3 C 1114.87 1119.13 1129.85 1093.25 1136.45 1061.42 C 1140.83 1058.97 1145.17 1056.5 1148.78 1052.97 C 1152.12 1049.71 1154.99 1046.78 1155.07 1041.87 C 1152.68 1035.82 1145.9 1033.71 1140.43 1031.01 C 1138.06 1028.14 1138.12 1021.53 1137.66 1017.82 z"/>
<path transform="translate(0,0)" fill="rgb(59,43,67)" d="M 932.935 1583.58 L 936.925 1584.2 C 942.82 1588.17 984.181 1649.62 986.04 1656.52 C 985.804 1660.04 984.366 1661.6 982.245 1664.21 C 979.996 1664.16 977.513 1664.1 975.445 1663.09 C 972.206 1661.52 930.251 1596.62 928.641 1590.68 C 929.099 1587.36 930.737 1585.9 932.935 1583.58 z"/>
<path transform="translate(0,0)" fill="rgb(59,43,67)" d="M 882.628 1616.63 C 884.742 1616.95 886.301 1617.34 887.92 1618.83 C 895.743 1626.02 938.776 1690.26 939.031 1696.97 C 937.547 1700.43 936.028 1701.19 933.091 1703.46 C 932.102 1703.1 931.397 1702.88 930.454 1702.33 C 926.384 1699.95 877.475 1627.77 876.65 1623.65 C 877.842 1620.29 879.911 1618.83 882.628 1616.63 z"/>
<path transform="translate(0,0)" fill="rgb(59,43,67)" d="M 1689.95 202.199 C 1696.16 201.904 1702.11 202.777 1707.74 205.542 A 30.1627 30.1627 0 0 1 1722.87 222.976 C 1725.56 230.879 1724.63 239.283 1720.67 246.588 C 1715.85 255.5 1708.48 260.064 1699.06 263.036 C 1691.5 263.761 1684.3 263.371 1677.57 259.546 C 1670.66 255.615 1665.87 248.896 1664.02 241.202 C 1661.88 232.299 1663.56 222.401 1668.73 214.82 C 1673.95 207.172 1681.11 203.862 1689.95 202.199 z"/>
<path transform="translate(0,0)" fill="rgb(59,43,67)" d="M 1511.41 202.165 C 1518.26 201.776 1524.15 201.623 1530.62 204.411 A 30.3635 30.3635 0 0 1 1547.5 222.386 A 32.2625 32.2625 0 0 1 1545.59 247.553 C 1540.98 256.318 1533.34 260.909 1524.17 263.793 C 1517.45 264.884 1511.91 264.565 1505.57 261.856 C 1498.17 258.696 1492.39 252.367 1489.44 244.935 C 1486.18 236.728 1486.76 227.721 1490.5 219.775 C 1494.94 210.335 1501.94 205.572 1511.41 202.165 z"/>
<path transform="translate(0,0)" fill="rgb(59,43,67)" d="M 1601.87 167.145 C 1609.89 166.547 1617.05 166.813 1624.34 170.612 C 1632.12 174.667 1637.76 181.815 1640.36 190.147 A 35.8092 35.8092 0 0 1 1637.73 217.974 C 1632.58 227.341 1624.88 232.074 1614.98 235.07 C 1607.54 235.356 1600.85 235.243 1593.88 232.126 A 34.6246 34.6246 0 0 1 1575.13 211.717 C 1572.12 202.906 1573.09 192.858 1577.49 184.677 C 1582.83 174.743 1591.44 170.102 1601.87 167.145 z"/>
<path transform="translate(0,0)" fill="rgb(59,43,67)" d="M 1603.55 264.41 C 1623.72 262.508 1644.65 269.484 1660.12 282.413 C 1675.34 295.129 1685.76 313.018 1687.38 332.957 A 79.3375 79.3375 0 0 1 1668.93 390.072 C 1654.28 407.26 1633 414.716 1611.06 416.6 C 1590.62 418.012 1568.18 410.341 1552.41 397.41 C 1537.85 385.474 1528.28 368.478 1526.54 349.655 C 1524.66 329.368 1531.59 308.319 1544.71 292.789 C 1559.77 274.966 1580.75 266.382 1603.55 264.41 z"/>
</svg>