<svg version="1.1" xmlns="http://www.w3.org/2000/svg" style="display: block;" viewBox="0 0 2048 2048" width="1024" height="1024">
<path transform="translate(0,0)" fill="rgb(254,254,254)" d="M 0 0 L 136.987 0 L 279.899 0 L 1855.91 0 L 1887.36 0 L 2048 0 L 2048 226.147 L 2048 257.217 L 2048 922.877 L 2048 951.027 L 2048 1582.23 L 2048 1679.41 L 2048 1704.56 L 2048 1723.98 L 2048 1734.95 L 2048 1766.93 L 2048 1778.19 L 2048 1816.4 L 2048 1818.78 L 2048 1828.75 L 2048 1840.72 L 2048 1853.52 L 2048 1874.83 L 2048 1887.46 L 2048 1893.92 L 2048 1933.73 L 2048 1941.59 L 2048 1996.85 L 2048 2004.88 L 2048 2048 L 1811.7 2048 L 1801.18 2048 L 1422.96 2048 L 1411.88 2048 L 1039.89 2048 L 1028.71 2048 L 647.852 2048 L 639.424 2048 L 262.104 2048 L 251.972 2048 L 0 2048 L 0 2004.23 L 0 1996.46 L 0 1940.83 L 0 1933.13 L 0 1892.89 L 0 1872.58 L 0 1829.45 L 0 1807.22 L 0 1782.23 L 0 1778.36 L 0 1747.18 L 0 1732.27 L 0 1726.29 L 0 1720.69 L 0 1695.85 L 0 1687.52 L 0 1679.89 L 0 1679.09 L 0 1583.66 L 0 951.267 L 0 922.018 L 0 256.879 L 0 226.039 L 0 0 z"/>
<path transform="translate(0,0)" fill="rgb(0,0,5)" d="M 812.441 1309.59 L 819.668 1309.87 C 821.1 1312.37 821.514 1312.57 821.117 1315.37 L 819.021 1317.52 L 814.914 1316.67 C 814.719 1313.05 814.334 1312.5 812.441 1309.59 z"/>
<path transform="translate(0,0)" fill="rgb(32,49,68)" d="M 565.078 745.312 C 568.243 745.79 569.561 745.802 571.585 748.392 C 577.609 756.101 593.662 787.989 596.658 797.341 C 597.238 799.152 597.069 800.67 596.818 802.518 C 594.567 802.576 593.239 802.534 591.182 801.58 C 585.836 792.206 563.681 753.894 565.078 745.312 z"/>
<path transform="translate(0,0)" fill="rgb(32,49,68)" d="M 854.955 743.426 C 857.73 744.617 858.698 744.589 860.188 747.301 C 858.479 755.385 837.788 795.931 831.989 802.04 C 830.207 801.393 829.228 800.68 827.83 799.407 C 826.786 793.107 850.304 751.48 854.955 743.426 z"/>
<path transform="translate(0,0)" fill="rgb(32,49,68)" d="M 915.057 748.582 C 915.526 748.671 916.02 748.671 916.463 748.848 C 918.507 749.666 918.488 750.858 918.88 752.738 C 915.27 761.964 880.939 792.823 871.687 801.651 C 869.301 800.307 868.832 799.959 867.386 797.651 C 868.99 790.084 906.423 756.857 915.057 748.582 z"/>
<path transform="translate(0,0)" fill="rgb(32,49,68)" d="M 506.112 747.537 L 509.98 747.888 C 517.075 751.978 553.347 790.261 558.792 798.063 C 560.427 800.405 559.858 801.183 559.456 803.919 C 554.972 803.74 553.04 802.511 549.87 799.432 C 541.334 791.14 512.555 762.945 507.31 754.463 C 506.033 752.398 506.135 749.864 506.112 747.537 z"/>
<path transform="translate(0,0)" fill="rgb(254,202,163)" d="M 1025.72 922.607 C 1034.14 923.058 1042.68 922.782 1051.12 922.793 L 1051.21 951.996 L 1025.06 951.991 A 877.573 877.573 0 0 0 1025.72 922.607 z"/>
<path transform="translate(0,0)" fill="rgb(32,49,68)" d="M 600.811 1029.32 C 604.851 1028.71 608.358 1028.57 612.266 1029.96 L 612.312 1032.93 C 608.817 1035.31 566.309 1043.25 556.913 1045.83 A 205.669 205.669 0 0 0 510.382 1064.48 C 509.464 1065 508.431 1065.63 507.435 1065.97 C 505.104 1066.78 503.44 1065.93 501.354 1064.95 C 501.022 1063.12 500.676 1063.45 501.613 1062.16 C 504.929 1057.57 510.846 1055.9 515.74 1053.55 C 542.355 1040.79 571.679 1033.53 600.811 1029.32 z"/>
<path transform="translate(0,0)" fill="rgb(32,49,68)" d="M 820.9 1026.97 C 831.81 1026.34 843.562 1029.65 854.203 1031.9 C 867.646 1034.75 925.067 1048.19 930.546 1058.39 C 931.332 1059.86 930.362 1061.91 929.984 1063.46 C 929.353 1063.43 928.72 1063.42 928.09 1063.37 C 920.582 1062.76 904.569 1053.73 896.521 1050.82 C 881.125 1045.27 864.303 1040.32 848.133 1037.81 C 840.299 1036.59 825.346 1036.45 820.242 1030.45 L 820.9 1026.97 z"/>
<path transform="translate(0,0)" fill="rgb(32,49,68)" d="M 595.856 1002.2 C 598.747 1001.52 601.299 1000.69 604.272 1001.39 C 608.152 1001.67 611.455 1001.49 614.578 1004.02 L 615.633 1005.99 C 614.53 1007.97 614.091 1008.65 611.585 1009.08 C 609.399 1009.45 606.191 1008.98 603.962 1008.68 C 601.769 1008.96 600.366 1008.91 598.225 1008.35 C 573.425 1009.1 549.442 1011.23 525.337 1017.52 C 516.102 1019.93 502.981 1026.01 494.813 1027.19 C 492.474 1027.53 492.118 1027.35 490.328 1026.04 C 490.593 1023.68 490.5 1023.12 492.392 1021.48 C 496.667 1017.78 504.261 1016.12 509.581 1014.51 C 537.59 1006.04 566.469 1000.8 595.856 1002.2 z"/>
<path transform="translate(0,0)" fill="rgb(32,49,68)" d="M 825.046 1002 C 845.24 998.036 923.014 1005.03 939.186 1015.81 C 940.129 1016.43 940.358 1016.68 941.295 1017.47 L 941.567 1019.88 C 939.834 1021.75 938.783 1022.04 936.189 1022.01 C 928.176 1021.92 918.823 1017.9 910.961 1016.01 C 903.366 1014.19 895.507 1012.85 887.778 1011.79 C 865.879 1008.8 844.209 1010.04 822.302 1008.84 C 820.444 1009.45 818.365 1009.81 816.428 1009.26 C 814.268 1008.65 813.971 1007.78 813.274 1005.92 L 814.834 1003.49 C 818.008 1001.41 821.41 1001.93 825.046 1002 z"/>
<path transform="translate(0,0)" fill="rgb(32,49,68)" d="M 609.218 988.621 C 577.832 978.41 544.304 974.631 511.356 975.632 C 503.221 975.879 475.251 980.839 469.346 977.502 L 469.426 975.089 C 470.263 974.087 470.216 974.023 471.473 973.182 C 475.547 970.455 485.209 970.455 490.336 969.919 C 532.283 965.537 571.015 970.151 611.401 981.708 C 615.32 982.703 619.056 983.216 621.892 986.332 L 622.807 988.719 C 621.701 990.496 622.258 990.354 620.428 990.866 C 616.703 991.907 612.67 989.942 609.218 988.621 z"/>
<path transform="translate(0,0)" fill="rgb(32,49,68)" d="M 870.219 970.726 C 889.009 969.708 935.892 965.965 951.293 974.757 L 952.516 976.637 C 951.837 978.532 952.358 978.457 950.689 979.051 C 942.245 982.057 926.359 977.862 917.242 977.285 C 904.489 976.478 889.523 975.579 877.01 978.28 C 874.488 978.824 872.287 978.524 869.758 978.227 C 865.427 979.566 860.948 979.265 856.543 980.241 A 252.092 252.092 0 0 0 819.2 988.513 C 816.668 989.126 813.847 989.984 811.255 990.183 C 808.759 990.374 807.629 989.094 806.091 987.418 L 806.829 985.149 C 809.55 982.657 812.326 982.15 815.841 981.272 C 829.155 977.44 842.343 974.433 856.051 972.381 L 860.591 971.951 L 870.219 970.726 z"/>
<path transform="translate(0,0)" fill="rgb(32,49,68)" d="M 707.61 1007.25 C 710.228 1007.74 714.338 1007.91 716.708 1008.87 C 716.666 1017.56 715.602 1028.45 720.674 1036 C 724.062 1041.05 729.346 1045.83 734.438 1049.03 C 761.627 1066.1 779.353 1039.47 788.985 1041.65 C 789.665 1043.06 790.307 1043.72 790.071 1045.35 C 789.644 1048.3 787.824 1050.13 785.619 1051.95 C 776.25 1059.68 760.545 1064.04 748.667 1062.9 C 732.709 1061.36 721.517 1052.17 711.84 1040.3 C 707.634 1045.97 703.565 1050.77 697.629 1054.78 A 47.3761 47.3761 0 0 1 659.862 1061.79 C 651.953 1059.98 637.908 1054.52 633.982 1047.06 C 632.749 1044.72 632.857 1043.37 633.44 1040.88 C 638.825 1039.4 655.192 1053.34 667.101 1054.71 C 676.728 1055.81 686.458 1052.59 693.892 1046.45 C 709.122 1033.87 705.678 1024.01 707.61 1007.25 z"/>
<path transform="translate(0,0)" fill="rgb(249,158,90)" d="M 707.61 1007.25 C 707.452 1006.87 707.342 1006.48 707.137 1006.13 C 702.833 998.843 671.064 984.314 675.313 968.728 C 676.417 964.679 680.448 961.687 684.099 960.022 C 698.346 953.528 727.817 952.648 742.422 958.408 C 746.057 959.842 750.438 962.471 752.104 966.214 C 753.521 969.397 753.402 972.292 752.003 975.415 C 747.018 986.542 729.773 1001.56 718.941 1006.99 C 716.892 1008.01 717.426 1007.37 716.708 1008.87 C 714.338 1007.91 710.228 1007.74 707.61 1007.25 z"/>
<path transform="translate(0,0)" fill="rgb(32,49,68)" d="M 998.935 518.613 C 996.491 501.866 991.397 482.667 976.99 472.078 C 968.301 465.692 957.985 464.506 947.575 466.285 C 895.559 475.172 814.814 561.432 785.431 603.901 C 783.182 607.151 780.827 612.71 776.824 613.896 C 775.465 614.298 774.983 613.44 773.933 612.703 C 775.315 602.288 787.81 588.718 794.398 580.74 C 821.682 547.702 849.631 518.526 883.73 492.403 C 903.87 476.974 934.788 455.465 961.79 458.938 C 973.876 460.493 983.91 466.997 991.11 476.675 C 999.344 487.742 1005.35 504.65 1005.65 518.435 C 1009.41 539.989 1009.69 562.639 1010.4 584.461 C 1011.8 626.94 1011.41 669.069 1010.97 711.558 C 1010.85 722.887 1012.87 752.793 1008.68 761.791 C 1006.5 762.996 1006.44 763.069 1003.98 762.71 C 1001.54 759.026 1004.52 710.637 1004.66 700.91 C 1005.54 640.159 1006.12 579.022 998.935 518.613 z"/>
<path transform="translate(0,0)" fill="rgb(32,49,68)" d="M 472.845 469.782 C 468.484 468.641 464.034 467.289 459.551 466.777 C 448.882 465.558 439.122 467.634 430.808 474.676 C 423.162 481.153 418.645 489.269 415.617 498.655 C 404.105 534.346 405.7 592.565 405.355 630.676 A 5790.65 5790.65 0 0 0 404.938 733.885 C 405.012 749.918 406.64 767.391 405.249 783.267 C 405.005 786.048 405.451 787.034 403.273 788.867 C 400.991 788.935 400.908 789.427 399.122 787.812 C 398.21 754.981 398.681 721.995 398.567 689.15 C 398.401 641.31 395.006 535.465 410.106 493.011 C 414.798 479.821 423.561 468.89 436.55 463.056 C 449.914 457.054 463.153 459.245 476.382 464.054 C 529.074 487.486 573.45 533.937 608.176 578.878 C 614.724 587.351 624.226 597.322 628.105 607.354 C 629.248 610.311 629.041 610.955 627.797 613.717 C 624.559 612.874 622.402 610.697 620.192 608.289 C 614.748 602.356 610.754 594.891 606.031 588.364 A 419.213 419.213 0 0 0 575.028 549.804 C 553.156 525.66 527.346 501.753 499.746 484.37 C 491.131 478.944 481.674 474.849 472.845 469.782 z"/>
<path transform="translate(0,0)" fill="rgb(32,49,68)" d="M 699.722 622.441 C 718.983 621.839 753.261 622.367 770.777 630.168 C 772.836 631.084 774.704 632.299 775.427 634.513 C 776.465 637.692 775.856 640.509 774.28 643.36 C 771.525 648.345 766.866 652.389 762.727 656.207 C 746.026 671.608 728.604 678.725 707.222 685.249 C 705.789 685.65 704.378 685.996 702.914 686.277 C 688.033 689.132 672.777 692.19 659.516 682.916 C 647.834 674.746 634.463 656.255 632.371 642.038 C 631.929 639.032 632.211 635.778 634.451 633.484 C 642.735 624.997 687.06 622.862 699.722 622.441 z"/>
<path transform="translate(0,0)" fill="rgb(32,49,68)" d="M 1076.71 983.394 C 1080.01 983.74 1082.91 984.287 1085.88 985.823 C 1101.84 994.067 1114.62 1010.96 1120.01 1027.89 C 1125.95 1046.56 1124.91 1066.89 1115.85 1084.38 C 1105.8 1103.77 1088.88 1116.64 1068.36 1123.2 C 1056.34 1125.78 1042.3 1126.96 1030.21 1124.23 C 1026.61 1123.42 1024.65 1122.55 1022.72 1119.37 C 1024.89 1112.55 1033.44 1104.67 1037.58 1098.48 A 234.526 234.526 0 0 0 1053.09 1071.08 C 1066.51 1042.59 1068.58 1013.18 1076.71 983.394 z"/>
<path transform="translate(0,0)" fill="rgb(249,158,90)" d="M 438.278 1095.28 C 445.749 1097.23 457.16 1110.64 464.472 1115.49 C 508.947 1144.98 555.982 1164.28 609.156 1170.71 C 632.799 1173.56 659.909 1177.77 675.681 1155.56 C 680.81 1148.34 685.228 1140.33 692.461 1134.94 C 698.885 1130.16 706.373 1128.09 714.337 1128.5 C 738.972 1129.76 741.433 1148.82 756.78 1162.13 C 763.597 1168.03 772.186 1171.21 780.998 1172.64 C 829.704 1180.53 910.367 1147.99 948.31 1118.82 C 956.736 1112.35 964.262 1105.02 971.659 1097.42 C 975.844 1093.11 980.261 1087.44 985.219 1084.09 C 985.719 1083.75 986.231 1083.43 986.737 1083.09 C 974.088 1118.48 934.129 1149.5 901.347 1165.01 C 802.883 1211.59 651.714 1215.02 549.474 1178.55 A 232.536 232.536 0 0 1 456.641 1118.57 C 450.112 1111.69 442.781 1103.65 438.278 1095.28 z"/>
<path transform="translate(0,0)" fill="rgb(167,189,170)" d="M 849.147 831.384 C 859.142 827.255 866.181 827.57 876.361 830.269 C 876.727 830.248 877.092 830.224 877.458 830.208 C 897.606 829.342 920.089 838.488 934.785 852.171 C 942.549 859.401 947.558 869.486 947.603 880.195 C 947.656 892.968 940.504 905.329 931.585 914.117 C 908.631 936.735 870.675 945.085 839.509 944.114 C 819.269 943.484 796.746 936.834 782.787 921.345 C 776.598 914.478 773.194 906.228 773.942 896.912 C 775.335 879.582 788.022 863.786 800.972 853.143 C 813.667 842.709 832.535 832.825 849.147 831.384 z"/>
<path transform="translate(0,0)" fill="rgb(32,49,68)" d="M 849.147 831.384 C 859.142 827.255 866.181 827.57 876.361 830.269 C 884.678 836.831 887.661 843.328 888.98 853.819 C 891.067 870.412 892.305 914.498 882.308 927.257 C 878.907 931.598 873.949 934.229 868.487 934.848 C 861.176 935.677 852.931 934.052 847.266 929.127 C 839.714 922.561 837.489 912.104 837.091 902.529 C 836.598 890.679 835.774 861.008 837.805 850.423 C 838.918 844.619 841.065 839.799 845.108 835.455 A 111.061 111.061 0 0 1 849.147 831.384 z"/>
<path transform="translate(0,0)" fill="rgb(167,189,170)" d="M 583.652 834.659 C 606.183 841.648 623.042 848.283 638.572 866.873 C 646.756 876.67 653.723 888.859 652.168 902.086 C 650.982 912.172 644.337 920.097 636.681 926.264 C 618.044 941.277 597.093 943.909 574.012 941.316 C 541.256 937.637 505.304 928.281 483.875 901.113 C 476.725 892.049 471.786 880.69 473.411 868.955 C 474.903 858.172 481.295 849.168 489.904 842.762 C 508.288 829.084 536.064 825.359 558.204 828.687 C 568.11 828.474 575.16 829.019 583.652 834.659 z"/>
<path transform="translate(0,0)" fill="rgb(32,49,68)" d="M 558.204 828.687 C 568.11 828.474 575.16 829.019 583.652 834.659 C 584.067 835.145 584.49 835.624 584.896 836.117 C 588.13 840.033 589.673 844.538 590.58 849.482 C 592.385 859.328 592.635 901.551 591.325 911.795 C 590.318 919.666 587.496 926.983 580.912 931.805 C 575.031 936.112 566.266 938.402 559.06 937.03 C 552.152 935.716 546.668 931.162 543.049 925.257 C 539.954 920.205 538.295 914.472 537.541 908.63 C 535.897 895.9 535.953 861.768 539.124 849.673 C 541.829 839.357 549.527 833.835 558.204 828.687 z"/>
<path transform="translate(0,0)" fill="rgb(249,158,90)" d="M 449.563 490.019 C 454.163 489.486 458.497 489.743 462.971 491.004 C 502.893 502.255 578.6 583.142 598.651 620.276 C 585.533 625.941 571.899 630.355 558.818 636.204 C 537.407 645.778 517.164 658.078 497.696 671.086 C 469.118 691.975 445.968 717.785 423.787 745.153 C 423.752 695.561 422.684 646.079 424.241 596.491 C 425.071 570.063 425.281 542.648 431.529 516.83 C 434.8 503.313 437.529 497.441 449.563 490.019 z"/>
<path transform="translate(0,0)" fill="rgb(249,158,90)" d="M 951.048 488.347 C 957.023 488.793 963.467 489.81 967.717 494.502 C 989.686 518.755 985.238 697.848 981.741 736.46 C 960.268 708.795 934.162 686.806 904.817 667.884 C 884.395 655.573 863.633 644.093 841.735 634.599 C 829.693 629.379 817.234 625.188 805.128 620.105 C 808.529 614.221 812.224 608.728 816.295 603.278 C 839.302 572.473 914.142 493.701 951.048 488.347 z"/>
<path transform="translate(0,0)" fill="rgb(249,158,90)" d="M 1141.73 656.409 C 1144.37 656.083 1147.12 656.105 1149.78 656.1 C 1173.43 656.063 1201.19 667.532 1217.74 684.428 C 1228.71 695.626 1237.42 710.811 1240.97 726.115 C 1245.66 746.296 1242.96 772.981 1243.01 793.867 A 7578.91 7578.91 0 0 1 1243.13 906.11 C 1213.83 906.531 1184.46 905.824 1155.14 906.095 A 4992.69 4992.69 0 0 0 1052.77 906.291 L 1052.12 790.23 C 1052.05 770.081 1050.04 747.814 1054.03 728.023 A 79.5652 79.5652 0 0 1 1070.57 692.959 C 1088.79 670.667 1113.59 659.341 1141.73 656.409 z"/>
<path transform="translate(0,0)" fill="rgb(32,49,68)" d="M 1071.59 729.05 C 1074.27 728.91 1077.19 728.616 1079.85 729.054 C 1084.83 729.874 1089.4 733.754 1092.14 737.829 C 1096.82 744.809 1098.19 754.493 1096.63 762.66 C 1095.06 770.91 1091.21 776.177 1084.36 780.81 C 1082.47 781.225 1080.45 781.725 1078.51 781.704 C 1073.72 781.652 1068.84 778.224 1065.99 774.601 C 1060.32 767.386 1058.5 756.062 1060.01 747.179 C 1061.45 738.678 1064.59 733.911 1071.59 729.05 z"/>
<path transform="translate(0,0)" fill="rgb(32,49,68)" d="M 1218.55 726.871 C 1219.98 727.032 1221.39 727.174 1222.79 727.504 C 1227.88 728.709 1232.09 732.145 1234.55 736.737 C 1238.55 744.207 1237.6 753.757 1234.8 761.45 C 1231.51 770.489 1226.63 777.224 1217.97 781.488 C 1216.33 781.282 1214.64 781.075 1213.06 780.597 C 1208.19 779.119 1203.55 774.509 1201.35 770.023 C 1197.59 762.378 1198.09 752.286 1201.12 744.491 C 1204.6 735.52 1209.87 730.627 1218.55 726.871 z"/>
<path transform="translate(0,0)" fill="rgb(32,49,68)" d="M 1110.09 683.025 C 1113.96 682.826 1117.75 682.783 1121.4 684.28 C 1127.88 686.934 1132.47 692.975 1134.93 699.354 C 1139.05 710.012 1139.25 725.426 1134.1 735.738 C 1131.33 741.299 1128.45 744.197 1122.56 746.134 C 1121.62 745.865 1120.66 745.615 1119.74 745.272 C 1110.67 741.889 1103.78 732.036 1099.82 723.499 C 1095.8 714.823 1093.48 704.323 1097.08 695.111 C 1099.64 688.568 1103.94 685.833 1110.09 683.025 z"/>
<path transform="translate(0,0)" fill="rgb(32,49,68)" d="M 1180.95 682.193 C 1181.93 682.155 1181.9 682.13 1183.05 682.238 C 1188.25 682.722 1193.84 685.147 1197.19 689.265 C 1201.31 694.341 1201.31 702.482 1200.31 708.6 C 1197.89 723.416 1188.02 736.024 1176.29 744.818 C 1172.46 745.148 1169.58 745.38 1166.16 743.28 C 1160.94 740.07 1158.23 734.228 1157.02 728.423 C 1154.6 716.762 1156.35 702.208 1163.32 692.35 C 1168.06 685.655 1173.03 683.478 1180.95 682.193 z"/>
<path transform="translate(0,0)" fill="rgb(32,49,68)" d="M 1143.96 760.382 C 1157.54 761.035 1169.39 763.612 1180.52 771.777 C 1193.57 781.353 1202.87 796.02 1205.27 812.069 C 1207.75 828.756 1203.88 845.914 1193.61 859.413 C 1182.67 873.77 1167.67 880.226 1150.24 882.738 C 1137.38 883.739 1122.26 878.491 1111.97 871.031 C 1099.28 861.827 1091.11 847.362 1088.86 831.934 A 61.5132 61.5132 0 0 1 1100.67 785.692 C 1111.43 771.308 1126.21 762.824 1143.96 760.382 z"/>
<path transform="translate(0,0)" fill="rgb(249,158,90)" d="M 616.647 1309.2 A 11660.5 11660.5 0 0 1 812.441 1309.59 C 814.334 1312.5 814.719 1313.05 814.914 1316.67 L 819.021 1317.52 C 816.762 1322.45 818.016 1330.91 819.531 1336.13 C 819.686 1336.66 819.925 1337.16 820.122 1337.68 C 822.517 1339.52 823.044 1339.56 823.796 1342.43 C 823.021 1344.04 822.459 1345.22 821.284 1346.58 C 819.377 1350.27 816.126 1356.16 817.224 1360.47 C 817.431 1361.28 817.77 1361.66 818.219 1362.29 C 857.108 1418.74 863.235 1507.02 850.815 1573.65 C 840.958 1626.53 820.337 1686.43 773.887 1718.2 C 750.034 1734.51 718.499 1741.3 690.117 1735.81 C 653.19 1728.67 620.854 1702.7 600.221 1672.02 C 563.492 1617.41 551.581 1543.91 564.31 1479.88 C 572.859 1436.88 592.383 1402.57 619.522 1368.89 C 620.874 1363.63 618.388 1351.26 616.944 1345.91 C 616.429 1345.33 615.567 1344.44 615.245 1343.75 C 614.109 1341.34 614.978 1340.47 616.146 1338.41 C 618.206 1330.87 618.574 1324.63 617.536 1316.89 C 617.068 1316.48 616.389 1315.93 616.08 1315.4 C 614.733 1313.05 615.839 1311.53 616.647 1309.2 z"/>
<path transform="translate(0,0)" fill="rgb(254,254,254)" d="M 667.508 1513.64 C 668.529 1514.09 669.493 1514.61 670.424 1515.23 C 677.174 1519.72 695.74 1538.54 696.136 1547.41 C 696.285 1550.74 694.27 1551.98 692.199 1554.16 C 690.387 1553.88 689.021 1553.56 687.399 1552.65 C 680.944 1549 664.076 1528.56 662.24 1521.09 C 662.957 1517.76 665.202 1515.96 667.508 1513.64 z"/>
<path transform="translate(0,0)" fill="rgb(254,254,254)" d="M 766.809 1618.77 C 769.981 1618.53 772.074 1618.26 774.583 1620.49 C 781.941 1627 785.098 1646.1 785.823 1655.52 C 786.141 1659.65 785.33 1660.79 782.817 1663.79 C 780.821 1663.73 778.634 1663.85 776.875 1662.72 C 769.439 1657.93 765.864 1637.01 764.597 1628.89 C 763.897 1624.4 764.099 1622.52 766.809 1618.77 z"/>
<path transform="translate(0,0)" fill="rgb(254,254,254)" d="M 622.399 1575.61 C 623.922 1576.3 626.346 1577.34 627.434 1578.72 C 628.553 1580.14 629.017 1581.22 629.001 1582.99 C 628.915 1592.68 610.154 1613.73 603.156 1620.78 C 601.014 1620.17 599.31 1619.22 597.365 1618.17 C 595.956 1615.78 595.233 1614.59 595.665 1611.76 C 597.379 1600.56 613.607 1582.6 622.399 1575.61 z"/>
<path transform="translate(0,0)" fill="rgb(254,254,254)" d="M 721.145 1677.86 C 724.325 1678.89 726.216 1680.56 728.281 1683.05 C 728.434 1684.62 728.842 1685.53 728.009 1686.97 C 722.89 1695.85 697.038 1704.56 687.228 1708.22 L 684.025 1708.57 C 683.297 1708.04 682.278 1707.37 681.71 1706.69 C 679.944 1704.59 679.956 1703.49 680.045 1700.95 C 685.417 1690.23 710.565 1682.13 721.145 1677.86 z"/>
<path transform="translate(0,0)" fill="rgb(254,254,254)" d="M 603.155 1443.44 C 604.486 1443.78 605.823 1444.32 607.124 1444.77 C 612.194 1449.61 626.919 1481.84 626.587 1488.57 C 626.431 1491.72 623.95 1493.4 621.934 1495.55 C 619.997 1495.41 618.679 1495.06 616.894 1494.3 C 611.062 1487.77 597.656 1459.05 598.502 1450.54 C 598.846 1447.09 600.731 1445.6 603.155 1443.44 z"/>
<path transform="translate(0,0)" fill="rgb(254,254,254)" d="M 739.824 1523.65 C 742.44 1523.64 744.214 1523.58 746.416 1525.15 C 754.12 1530.64 780.222 1557.03 781.885 1565.41 C 781.386 1568.47 779.24 1570.15 777.165 1572.26 C 775.69 1571.79 776.022 1571.95 774.3 1571.04 C 765.708 1566.47 738.105 1539.21 735.862 1530.63 C 736.153 1527.53 737.893 1525.91 739.824 1523.65 z"/>
<path transform="translate(0,0)" fill="rgb(254,254,254)" d="M 789.488 1468.46 C 790.756 1468.65 791.687 1468.73 792.934 1469.21 C 800.417 1472.07 826.518 1499.34 829.785 1506.87 C 829.712 1510.46 827.698 1512.45 825.596 1515.13 C 822.848 1515.25 820.99 1515.14 818.709 1513.55 C 811.641 1508.63 786.388 1484.19 785.023 1476.52 C 785.316 1473 787.336 1471.06 789.488 1468.46 z"/>
<path transform="translate(0,0)" fill="rgb(254,254,254)" d="M 705.175 1619.98 C 707.682 1620.31 709.458 1620.8 711.293 1622.68 C 713.115 1624.54 713.237 1626.42 713.116 1628.84 C 707.431 1638.71 675.195 1648.87 663.716 1652.72 C 660.946 1652.24 659.131 1652.17 657.291 1649.71 C 655.979 1647.96 655.919 1645.85 656.801 1643.91 C 660.641 1635.44 695.612 1623.23 705.175 1619.98 z"/>
<path transform="translate(0,0)" fill="rgb(254,202,163)" d="M 616.647 1309.2 A 11660.5 11660.5 0 0 1 812.441 1309.59 C 814.334 1312.5 814.719 1313.05 814.914 1316.67 L 819.021 1317.52 C 816.762 1322.45 818.016 1330.91 819.531 1336.13 C 819.686 1336.66 819.925 1337.16 820.122 1337.68 C 822.517 1339.52 823.044 1339.56 823.796 1342.43 C 823.021 1344.04 822.459 1345.22 821.284 1346.58 C 819.377 1350.27 816.126 1356.16 817.224 1360.47 C 817.431 1361.28 817.77 1361.66 818.219 1362.29 C 805.52 1395.98 789.224 1421.4 755.176 1436.59 C 731.421 1447.19 706.722 1447.38 682.526 1438.07 C 655.462 1427.65 635.309 1404.46 623.93 1378.35 C 622.583 1375.26 621.541 1371.59 619.522 1368.89 C 620.874 1363.63 618.388 1351.26 616.944 1345.91 C 616.429 1345.33 615.567 1344.44 615.245 1343.75 C 614.109 1341.34 614.978 1340.47 616.146 1338.41 C 618.206 1330.87 618.574 1324.63 617.536 1316.89 C 617.068 1316.48 616.389 1315.93 616.08 1315.4 C 614.733 1313.05 615.839 1311.53 616.647 1309.2 z"/>
<path transform="translate(0,0)" fill="rgb(32,49,68)" d="M 820.122 1337.68 C 822.517 1339.52 823.044 1339.56 823.796 1342.43 C 823.021 1344.04 822.459 1345.22 821.284 1346.58 C 809.662 1345.14 797.285 1345.9 785.563 1345.9 A 3887.7 3887.7 0 0 1 719.163 1345.68 C 722.085 1358.52 728.91 1369.29 729.233 1382.93 C 729.469 1392.86 723.222 1422.33 716.946 1428.71 C 714.623 1427.84 713.96 1426.78 712.962 1424.57 C 710.657 1419.47 709.031 1413.58 707.307 1408.23 C 699.227 1383.19 703.405 1369.72 711.922 1345.92 L 699.209 1345.75 C 671.843 1346.47 644.327 1345.9 616.944 1345.91 C 616.429 1345.33 615.567 1344.44 615.245 1343.75 C 614.109 1341.34 614.978 1340.47 616.146 1338.41 A 12021.2 12021.2 0 0 1 749.536 1338.08 C 772.624 1338.12 797.213 1339.88 820.122 1337.68 z"/>
<path transform="translate(0,0)" fill="rgb(254,202,163)" d="M 616.647 1309.2 A 11660.5 11660.5 0 0 1 812.441 1309.59 C 814.334 1312.5 814.719 1313.05 814.914 1316.67 L 819.021 1317.52 C 816.762 1322.45 818.016 1330.91 819.531 1336.13 C 819.686 1336.66 819.925 1337.16 820.122 1337.68 C 797.213 1339.88 772.624 1338.12 749.536 1338.08 A 12021.2 12021.2 0 0 0 616.146 1338.41 C 618.206 1330.87 618.574 1324.63 617.536 1316.89 C 617.068 1316.48 616.389 1315.93 616.08 1315.4 C 614.733 1313.05 615.839 1311.53 616.647 1309.2 z"/>
<path transform="translate(0,0)" fill="rgb(32,49,68)" d="M 616.647 1309.2 A 11660.5 11660.5 0 0 1 812.441 1309.59 C 814.334 1312.5 814.719 1313.05 814.914 1316.67 C 800.015 1318.57 772.155 1316.76 755.851 1316.69 C 709.777 1316.46 663.597 1315.69 617.536 1316.89 C 617.068 1316.48 616.389 1315.93 616.08 1315.4 C 614.733 1313.05 615.839 1311.53 616.647 1309.2 z"/>
<path transform="translate(0,0)" fill="rgb(32,49,68)" d="M 994.577 1067.07 C 1009.89 1088.4 1012.27 1117.6 1008.23 1142.81 C 1007.56 1146.95 1006.53 1151 1005.47 1155.05 C 1041.33 1190.76 1067.09 1250.24 1081 1298.42 C 1085.47 1313.88 1087.87 1330.04 1092.5 1345.34 L 1093.7 1344.69 C 1127.91 1325.87 1166.47 1287.34 1188.66 1255.37 C 1192.34 1250.06 1206.92 1223.72 1211.63 1222.52 C 1212.72 1223.15 1213.67 1223.24 1213.94 1224.6 C 1215.5 1232.55 1189.5 1267.11 1183.56 1274.46 C 1162.08 1301.01 1122.53 1340.66 1091.58 1353.55 C 1100.42 1358.24 1109.72 1362.42 1117.97 1368.1 C 1140.84 1383.82 1159.8 1409.95 1167.86 1436.45 C 1178.53 1471.53 1177.92 1513.79 1167.79 1548.91 C 1141.95 1542.93 1120.25 1534.03 1105.78 1510.46 C 1093.29 1490.12 1090.78 1464.79 1096.53 1441.85 C 1102.2 1419.28 1115.23 1404.58 1132.54 1389.9 C 1117.36 1374.33 1098.16 1360.47 1075.41 1360.32 C 1056.04 1360.19 1039.49 1370.93 1026.44 1384.41 C 1018.29 1392.83 1011.43 1402.08 1005.44 1412.14 C 983.303 1449.3 965.227 1489.1 946.686 1528.13 L 893.445 1639.35 A 5062.78 5062.78 0 0 0 847.246 1738.48 C 841.661 1751.08 835.352 1763.79 830.771 1776.78 C 837.328 1773.9 843.075 1771.9 850.205 1770.88 C 865.284 1768.74 881.412 1769.7 896.644 1769.74 C 924.734 1769.81 952.877 1770.3 980.961 1769.78 C 984.143 1769.77 987.057 1769.32 989.683 1771.42 L 990.756 1773.7 C 989.51 1776.01 989.394 1775.91 986.932 1776.9 L 983.271 1776.46 L 982.339 1776.53 C 972.148 1777.22 961.669 1776.6 951.448 1776.56 L 893.793 1776.26 C 878.582 1776.11 862.003 1774.47 847.171 1778.45 C 833.371 1782.15 820.039 1790.87 810.617 1801.55 C 797.69 1816.19 789.397 1835.17 786.765 1854.46 C 786.716 1858.69 786.891 1863.04 786.552 1867.25 C 789.504 1885.48 796.915 1903.04 812.162 1914.31 C 828.889 1926.67 847.179 1925.23 866.715 1924.87 C 850.726 1906.49 844.216 1889.62 845.909 1864.97 C 846.363 1858.35 846.754 1847.61 851.538 1842.7 C 853.902 1842.3 853.877 1842.21 855.928 1843.43 C 857.497 1847.84 854.054 1856.23 853.459 1861.26 C 851.097 1881.22 854.465 1911.33 874.663 1921.42 C 884.851 1926.51 904.858 1926.67 915.425 1922.54 C 922.717 1919.7 928.095 1914.1 930.848 1906.8 C 940.053 1882.4 922.959 1847.59 926.692 1840.86 L 928.299 1840.42 C 936.617 1847.76 939.643 1872.02 940.278 1882.76 C 941.227 1898.83 937.294 1912.42 926.966 1925.01 C 948.132 1924.98 973.385 1928.3 989.751 1911.94 C 1001.12 1900.58 1004.22 1882.08 1003.75 1866.57 C 1003.47 1857.55 996.322 1844.37 998.904 1836.15 L 1000.66 1835.73 C 1007.35 1840.58 1008.09 1851.62 1009.3 1859.18 C 1012.11 1876.76 1010.35 1895.83 999.445 1910.56 C 995.524 1915.86 990.87 1919.66 985.733 1923.67 C 1011.68 1922.92 1033.55 1921.82 1054.8 1905.24 C 1059.14 1901.86 1062.62 1897.61 1066.81 1894.19 A 5741.18 5741.18 0 0 1 1126.87 1894.04 C 1142.95 1894.01 1159.04 1894.16 1175.11 1893.92 C 1200.43 1893.89 1226.47 1895.16 1251.7 1893.68 C 1268.87 1894.06 1286.69 1894.56 1303.83 1893.6 L 1304.46 1893.67 A 3454.32 3454.32 0 0 0 1377.89 1893.69 L 1397.69 1893.54 L 1406.41 1893.25 A 10769.6 10769.6 0 0 1 1529.72 1893.14 L 1547.34 1893.45 L 1553.5 1893.27 L 1574.35 1893.63 L 1586.4 1893.69 L 1648.65 1893.77 L 1687.2 1893.64 L 1701.76 1893.3 C 1726.67 1893.64 1751.56 1893 1776.47 1893 L 1803.01 1892.86 L 1804.98 1892.99 L 1825.13 1892.95 C 1832.91 1892.92 1840.93 1893.31 1848.68 1892.81 L 1863.78 1892.95 C 1878.63 1892.97 1893.8 1893.66 1908.61 1892.88 A 4570.96 4570.96 0 0 0 1955.27 1893.35 L 1983.42 1893.5 L 2009.43 1893.89 L 2048 1893.92 L 2048 1933.73 L 2048 1941.59 L 2048 1996.85 L 2048 2004.88 L 2048 2048 L 1811.7 2048 L 1801.18 2048 L 1422.96 2048 L 1411.88 2048 L 1039.89 2048 L 1028.71 2048 L 647.852 2048 L 639.424 2048 L 262.104 2048 L 251.972 2048 L 0 2048 L 0 2004.23 L 0 1996.46 L 0 1940.83 L 0 1933.13 L 0 1892.89 L 0 1872.58 L 0 1829.45 L 0 1807.22 L 0 1782.23 L 0 1778.36 L 0 1747.18 L 0 1732.27 L 0 1726.29 L 0 1720.69 L 0 1695.85 L 0 1687.52 L 0 1679.89 L 0 1679.09 C 6.35059 1679.41 12.5143 1679.59 18.8632 1679.14 C 23.6332 1679.27 28.7346 1679.8 33.403 1678.74 L 39.8911 1679.51 C 43.6191 1679.03 47.6413 1680.32 51.0325 1679.5 C 56.7799 1678.77 78.0545 1677.23 82.1886 1680.5 C 82.4373 1680.7 82.6482 1680.94 82.878 1681.16 L 84.3396 1679.44 C 88.1444 1679.54 91.9963 1679.1 95.7897 1678.81 C 98.1613 1678.91 100.571 1679.1 102.942 1679.07 C 108.637 1679.31 114.282 1678.87 119.972 1678.96 C 120.802 1680.5 120.692 1679.69 120.297 1681.39 C 127.09 1679.97 133.93 1678.44 140.89 1679.22 C 144.263 1678.97 147.642 1679.45 150.959 1679.05 L 152.231 1680.51 C 156.747 1677.71 163.897 1677.96 168.984 1679.06 C 172.127 1678.64 174.697 1678.74 177.837 1679.14 L 180.988 1679.12 L 182.428 1680.97 C 183.985 1681.28 186.333 1678.73 188.528 1678 C 193.431 1678.16 198.255 1678.25 203.16 1677.99 C 209.111 1678.32 215.287 1679.09 221.177 1678.03 L 222.36 1678.12 C 227.88 1678.74 233.402 1678.44 238.939 1678.27 C 251.671 1678.41 264.627 1677.39 277.308 1678.25 C 279.554 1678.64 278.61 1678.81 280.186 1678.19 C 283.169 1678.1 286.185 1677.91 289.166 1677.97 C 278.321 1650.7 268.208 1623.47 259.347 1595.49 C 255.717 1584.02 251.411 1572.03 249.373 1560.17 C 244.004 1538.24 240.46 1515.36 240.174 1492.78 C 239.61 1448.31 248.27 1404.7 280.344 1371.98 C 289.929 1363.46 297.688 1358.15 309.692 1353.63 C 316.14 1343.45 322.654 1333.59 329.891 1323.94 L 320.039 1351.93 C 350.952 1352.07 376.73 1364.26 398.503 1386.22 A 183.3 183.3 0 0 1 425.16 1420.43 C 433.626 1434.56 440.29 1449.82 447.279 1464.72 L 476.38 1527.07 L 548.538 1682.33 C 562.54 1712.67 575.977 1743.64 590.699 1773.6 C 599.216 1790.94 615.833 1798.51 624.956 1818.33 C 631.227 1831.95 635.719 1847.56 635.472 1862.66 C 635.29 1873.78 632.655 1884.01 627.773 1893.98 A 10756.4 10756.4 0 0 0 787.384 1894 C 784.223 1886.31 782.266 1878.61 780.633 1870.47 C 779.568 1864.07 779.738 1857.67 780.339 1851.24 C 783.671 1830.08 793.325 1809.06 808.316 1793.57 C 812.258 1789.49 818.052 1786.17 820.325 1780.88 C 839.072 1737.23 860.483 1694.55 880.412 1651.43 A 5426.35 5426.35 0 0 1 959.528 1485.44 C 977.441 1449.66 993.674 1409.19 1021.01 1379.43 C 1039.54 1359.26 1059.3 1354.3 1085.78 1353.18 A 414.135 414.135 0 0 0 1029.36 1199.04 C 1021.7 1186.43 1013.98 1173.49 1003.12 1163.34 C 998.664 1174.9 991.76 1186.1 984.552 1196.13 C 953.574 1239.25 899.896 1266.13 849.396 1278.85 C 835.949 1282.24 822.08 1284.32 808.401 1286.57 C 812.004 1294.42 815.539 1302.28 819.668 1309.87 L 812.441 1309.59 A 11660.5 11660.5 0 0 0 616.647 1309.2 C 620.143 1302.33 623.781 1295.64 626.423 1288.38 C 615.639 1286.32 604.444 1286.06 593.565 1284.28 A 296.778 296.778 0 0 1 502.86 1253.88 C 464.828 1233.75 428.012 1204.08 415.159 1161.27 C 406.237 1131.55 413.312 1104.73 427.666 1078.14 C 430.899 1084.03 433.97 1090.1 438.278 1095.28 C 442.781 1103.65 450.112 1111.69 456.641 1118.57 A 232.536 232.536 0 0 0 549.474 1178.55 C 651.714 1215.02 802.883 1211.59 901.347 1165.01 C 934.129 1149.5 974.088 1118.48 986.737 1083.09 C 990.322 1078.3 992.317 1072.56 994.577 1067.07 z"/>
<path transform="translate(0,0)" fill="rgb(254,202,163)" d="M 626.423 1288.38 C 631.61 1274.72 643.402 1262.49 655.319 1254.44 C 680.429 1237.47 710.65 1233.15 740.095 1239.13 C 769.339 1245.06 792.026 1261.98 808.401 1286.57 C 812.004 1294.42 815.539 1302.28 819.668 1309.87 L 812.441 1309.59 A 11660.5 11660.5 0 0 0 616.647 1309.2 C 620.143 1302.33 623.781 1295.64 626.423 1288.38 z"/>
<path transform="translate(0,0)" fill="rgb(249,158,90)" d="M 280.186 1678.19 C 283.169 1678.1 286.185 1677.91 289.166 1677.97 L 294.701 1690.98 C 308.502 1720.13 325.256 1758.41 326.83 1790.65 C 327.34 1801.09 327.874 1812.11 326.851 1822.53 C 326.237 1828.79 323.283 1839.92 325.244 1845.67 L 323.658 1850.14 L 324.21 1851.05 C 325.033 1858.96 325.899 1865.07 329.418 1872.31 C 333.437 1879.61 338.475 1886.65 342.197 1894.02 C 311.786 1891.99 280.763 1893.04 250.268 1893.02 C 185.034 1892.97 119.651 1893.93 54.4354 1892.7 L 52.8315 1892.87 A 1633.09 1633.09 0 0 1 18.0596 1892.71 C 12.064 1892.99 6.00476 1892.87 0 1892.89 L 0 1872.58 L 0 1829.45 L 0 1807.22 L 0 1782.23 L 0 1778.36 L 0 1747.18 L 0 1732.27 L 0 1726.29 L 0 1720.69 L 0 1695.85 L 0 1687.52 L 0 1679.89 L 0 1679.09 C 6.35059 1679.41 12.5143 1679.59 18.8632 1679.14 C 23.6332 1679.27 28.7346 1679.8 33.403 1678.74 L 39.8911 1679.51 C 43.6191 1679.03 47.6413 1680.32 51.0325 1679.5 C 56.7799 1678.77 78.0545 1677.23 82.1886 1680.5 C 82.4373 1680.7 82.6482 1680.94 82.878 1681.16 L 84.3396 1679.44 C 88.1444 1679.54 91.9963 1679.1 95.7897 1678.81 C 98.1613 1678.91 100.571 1679.1 102.942 1679.07 C 108.637 1679.31 114.282 1678.87 119.972 1678.96 C 120.802 1680.5 120.692 1679.69 120.297 1681.39 C 127.09 1679.97 133.93 1678.44 140.89 1679.22 C 144.263 1678.97 147.642 1679.45 150.959 1679.05 L 152.231 1680.51 C 156.747 1677.71 163.897 1677.96 168.984 1679.06 C 172.127 1678.64 174.697 1678.74 177.837 1679.14 L 180.988 1679.12 L 182.428 1680.97 C 183.985 1681.28 186.333 1678.73 188.528 1678 C 193.431 1678.16 198.255 1678.25 203.16 1677.99 C 209.111 1678.32 215.287 1679.09 221.177 1678.03 L 222.36 1678.12 C 227.88 1678.74 233.402 1678.44 238.939 1678.27 C 251.671 1678.41 264.627 1677.39 277.308 1678.25 C 279.554 1678.64 278.61 1678.81 280.186 1678.19 z"/>
<path transform="translate(0,0)" fill="rgb(254,254,254)" d="M 276.656 1384.11 C 289.696 1369.77 303.395 1359.61 323.59 1358.55 C 348.438 1357.25 372.162 1370.71 390.009 1386.92 C 401.559 1397.41 412.287 1410.15 420.156 1423.65 C 430.024 1440.57 437.719 1459.15 445.93 1476.93 L 485.786 1562.36 L 543.809 1687.84 C 557.583 1717.17 573.347 1746.76 584.697 1777.11 C 577.253 1773.77 569.973 1770.88 561.836 1769.74 C 552.301 1768.39 462.777 1767.91 456.312 1769.87 C 447.267 1769.63 426.457 1767.16 418.906 1771.55 L 418.292 1773.01 C 419.855 1775.15 420.792 1775.68 423.502 1775.92 C 425.745 1776.13 428.091 1775.99 430.342 1775.95 A 6573.09 6573.09 0 0 1 505.807 1775.68 C 523.717 1775.58 550.534 1772.96 567.355 1777.41 C 580.606 1780.91 592.597 1788.37 602.38 1797.87 C 618.903 1813.9 628.771 1839.77 629.046 1862.65 A 60.6004 60.6004 0 0 1 611.232 1906.22 C 598.169 1919.41 581.729 1924.18 563.508 1924.05 C 558.805 1924.02 554.09 1923.71 549.397 1923.42 C 564.912 1907.45 572.023 1896.48 571.821 1873.71 C 571.747 1865.33 571.89 1846.8 565.75 1840.55 C 565.37 1840.16 564.857 1839.93 564.411 1839.63 L 566.18 1841.14 L 562.795 1841.92 C 561.588 1848.7 564.014 1854.6 564.937 1861.2 C 567.68 1880.82 563.946 1905.2 546.636 1917.27 C 536.567 1924.3 522.852 1926.67 510.895 1924.14 C 503.116 1922.49 496.469 1918.34 492.285 1911.48 C 480.949 1892.89 491.46 1848.12 483.039 1842.81 L 481.485 1843.46 C 477.018 1854.78 479.134 1897.18 484.499 1909.1 C 486.913 1914.46 490.421 1919.26 493.953 1923.93 C 472.348 1924.18 439.687 1929.19 423.145 1912.82 C 412.784 1902.56 408.918 1886.18 409.126 1871.98 C 409.262 1862.68 414.481 1852.33 410.972 1843.46 L 409.322 1842.8 C 403.973 1847.5 403.841 1861.52 403.409 1868.39 C 402.007 1890.67 409.738 1905.74 422.512 1923.36 C 394.463 1924.44 368.827 1918.63 347.49 1898.94 L 342.197 1894.02 C 338.475 1886.65 333.437 1879.61 329.418 1872.31 C 325.899 1865.07 325.033 1858.96 324.21 1851.05 L 323.658 1850.14 L 325.244 1845.67 C 323.283 1839.92 326.237 1828.79 326.851 1822.53 C 327.874 1812.11 327.34 1801.09 326.83 1790.65 C 325.256 1758.41 308.502 1720.13 294.701 1690.98 L 289.166 1677.97 C 278.321 1650.7 268.208 1623.47 259.347 1595.49 C 255.717 1584.02 251.411 1572.03 249.373 1560.17 C 274.48 1551.39 292.259 1535.28 303.678 1511.26 C 316.361 1484.59 316.157 1453.44 306.31 1425.9 C 300.35 1409.22 290.685 1394.99 276.656 1384.11 z"/>
<path transform="translate(0,0)" fill="rgb(254,254,254)" d="M 0 1933.13 L 2048 1933.73 L 2048 1941.59 L 2048 1996.85 L 2048 2004.88 L 2048 2048 L 1811.7 2048 L 1801.18 2048 L 1422.96 2048 L 1411.88 2048 L 1039.89 2048 L 1028.71 2048 L 647.852 2048 L 639.424 2048 L 262.104 2048 L 251.972 2048 L 0 2048 L 0 2004.23 L 0 1996.46 L 0 1940.83 L 0 1933.13 z"/>
<path transform="translate(0,0)" fill="rgb(32,49,68)" d="M 1811.73 2004.89 A 20390.2 20390.2 0 0 1 2048 2004.88 L 2048 2048 L 1811.7 2048 L 1811.73 2004.89 z"/>
<path transform="translate(0,0)" fill="rgb(32,49,68)" d="M 0 2004.23 L 252.005 2004.29 L 251.972 2048 L 0 2048 L 0 2004.23 z"/>
<path transform="translate(0,0)" fill="rgb(32,49,68)" d="M 1811.78 1941.56 L 2048 1941.59 L 2048 1996.85 C 1969.35 1995.15 1890.4 1996.41 1811.72 1996.74 L 1811.78 1941.56 z"/>
<path transform="translate(0,0)" fill="rgb(32,49,68)" d="M 0 1940.83 L 252.448 1940.91 L 252.082 1996.18 L 0 1996.46 L 0 1940.83 z"/>
<path transform="translate(0,0)" fill="rgb(32,49,68)" d="M 1039.7 2004.17 L 1411.92 2004.7 L 1411.88 2048 L 1039.89 2048 L 1039.7 2004.17 z"/>
<path transform="translate(0,0)" fill="rgb(32,49,68)" d="M 1422.92 2004.54 L 1801.1 2004.91 L 1801.18 2048 L 1422.96 2048 L 1422.92 2004.54 z"/>
<path transform="translate(0,0)" fill="rgb(32,49,68)" d="M 262.117 2004.23 L 639.405 2004.21 L 639.424 2048 L 262.104 2048 L 262.117 2004.23 z"/>
<path transform="translate(0,0)" fill="rgb(32,49,68)" d="M 647.974 2004.22 L 1028.75 2004.16 L 1028.71 2048 L 647.852 2048 L 647.974 2004.22 z"/>
<path transform="translate(0,0)" fill="rgb(32,49,68)" d="M 1039.61 1941.19 L 1412.01 1941.69 A 2866.06 2866.06 0 0 1 1411.86 1996.49 L 1039.37 1996.43 L 1039.61 1941.19 z"/>
<path transform="translate(0,0)" fill="rgb(32,49,68)" d="M 1423.02 1941.78 L 1801.19 1941.79 L 1801.24 1996.82 L 1422.97 1996.59 L 1423.02 1941.78 z"/>
<path transform="translate(0,0)" fill="rgb(32,49,68)" d="M 262.786 1940.96 L 639.804 1941.06 A 3823.01 3823.01 0 0 0 639.728 1996.01 C 598.091 1997.8 555.708 1996.19 514 1996.22 L 262.655 1996.38 L 262.786 1940.96 z"/>
<path transform="translate(0,0)" fill="rgb(32,49,68)" d="M 648.103 1940.92 C 774.95 1939.53 901.919 1940.81 1028.78 1940.85 L 1028.85 1996.26 L 648.177 1996.15 L 648.103 1940.92 z"/>
<path transform="translate(0,0)" fill="rgb(254,202,163)" d="M 0 0 L 136.987 0 L 279.899 0 L 1855.91 0 L 1887.36 0 L 2048 0 L 2048 226.147 L 2048 257.217 L 2048 922.877 L 2048 951.027 L 2048 1582.23 L 2048 1679.41 L 2048 1704.56 L 2048 1723.98 L 2048 1734.95 L 2048 1766.93 L 2048 1778.19 L 2048 1816.4 L 2048 1818.78 L 2048 1828.75 L 2048 1840.72 L 2048 1853.52 L 2048 1874.83 L 2048 1887.46 L 2048 1893.92 L 2009.43 1893.89 L 1983.42 1893.5 L 1955.27 1893.35 A 4570.96 4570.96 0 0 1 1908.61 1892.88 C 1893.8 1893.66 1878.63 1892.97 1863.78 1892.95 L 1848.68 1892.81 C 1840.93 1893.31 1832.91 1892.92 1825.13 1892.95 L 1804.98 1892.99 L 1803.01 1892.86 L 1776.47 1893 C 1751.56 1893 1726.67 1893.64 1701.76 1893.3 L 1687.2 1893.64 L 1648.65 1893.77 L 1586.4 1893.69 L 1574.35 1893.63 L 1553.5 1893.27 L 1547.34 1893.45 L 1529.72 1893.14 A 10769.6 10769.6 0 0 0 1406.41 1893.25 L 1397.69 1893.54 L 1377.89 1893.69 A 3454.32 3454.32 0 0 1 1304.46 1893.67 L 1303.83 1893.6 C 1286.69 1894.56 1268.87 1894.06 1251.7 1893.68 C 1226.47 1895.16 1200.43 1893.89 1175.11 1893.92 C 1159.04 1894.16 1142.95 1894.01 1126.87 1894.04 A 5741.18 5741.18 0 0 0 1066.81 1894.19 C 1098.22 1849.52 1075.64 1813.83 1085.21 1769.24 C 1091.14 1741.6 1108.68 1714.49 1120.29 1688.73 L 1125.45 1679.01 C 1139.39 1647.83 1151.95 1616.81 1160.65 1583.72 C 1218.82 1581.89 1277.24 1582.68 1335.44 1582.67 L 1686.99 1582.83 C 1742.98 1582.76 1799.13 1583.79 1855.09 1582.36 L 1855.94 951.361 C 1742.36 949.813 1628.58 950.88 1515 951.383 L 1244.08 951.452 L 1244.05 922.835 C 1358.56 924.057 1473.21 922.01 1587.74 921.807 C 1677.03 921.649 1766.34 923.544 1855.64 922.759 C 1855.04 892.957 1855.76 863.046 1855.91 833.235 L 1856.04 705.283 L 1856.03 257.027 L 280.02 256.967 L 279.882 670.634 A 12188.7 12188.7 0 0 0 279.807 922.189 L 383.792 921.947 C 383.963 931.639 384.555 941.287 385.154 950.96 L 279.966 951.017 L 279.019 1220.47 A 9681.25 9681.25 0 0 0 279.347 1320.46 C 279.521 1337.58 279.131 1354.91 280.344 1371.98 C 248.27 1404.7 239.61 1448.31 240.174 1492.78 C 240.46 1515.36 244.004 1538.24 249.373 1560.17 C 251.411 1572.03 255.717 1584.02 259.347 1595.49 C 268.208 1623.47 278.321 1650.7 289.166 1677.97 C 286.185 1677.91 283.169 1678.1 280.186 1678.19 C 278.61 1678.81 279.554 1678.64 277.308 1678.25 C 264.627 1677.39 251.671 1678.41 238.939 1678.27 C 233.402 1678.44 227.88 1678.74 222.36 1678.12 L 221.177 1678.03 C 215.287 1679.09 209.111 1678.32 203.16 1677.99 C 198.255 1678.25 193.431 1678.16 188.528 1678 C 186.333 1678.73 183.985 1681.28 182.428 1680.97 L 180.988 1679.12 L 177.837 1679.14 C 174.697 1678.74 172.127 1678.64 168.984 1679.06 C 163.897 1677.96 156.747 1677.71 152.231 1680.51 L 150.959 1679.05 C 147.642 1679.45 144.263 1678.97 140.89 1679.22 C 133.93 1678.44 127.09 1679.97 120.297 1681.39 C 120.692 1679.69 120.802 1680.5 119.972 1678.96 C 114.282 1678.87 108.637 1679.31 102.942 1679.07 C 100.571 1679.1 98.1613 1678.91 95.7897 1678.81 C 91.9963 1679.1 88.1444 1679.54 84.3396 1679.44 L 82.878 1681.16 C 82.6482 1680.94 82.4373 1680.7 82.1886 1680.5 C 78.0545 1677.23 56.7799 1678.77 51.0325 1679.5 C 47.6413 1680.32 43.6191 1679.03 39.8911 1679.51 L 33.403 1678.74 C 28.7346 1679.8 23.6332 1679.27 18.8632 1679.14 C 12.5143 1679.59 6.35059 1679.41 0 1679.09 L 0 1583.66 L 0 951.267 L 0 922.018 L 0 256.879 L 0 226.039 L 0 0 z"/>
<path transform="translate(0,0)" fill="rgb(254,254,254)" d="M 0 0 L 136.987 0 C 136.894 75.269 137.649 150.786 136.077 226.041 A 8538.33 8538.33 0 0 1 0 226.039 L 0 0 z"/>
<path transform="translate(0,0)" fill="rgb(254,254,254)" d="M 1887.36 0 L 2048 0 L 2048 226.147 L 1887.05 226.12 L 1887.36 0 z"/>
<path transform="translate(0,0)" fill="rgb(254,254,254)" d="M 0 951.267 L 136.203 951.309 L 136.094 1583.16 A 12998.5 12998.5 0 0 1 0 1583.66 L 0 951.267 z"/>
<path transform="translate(0,0)" fill="rgb(254,254,254)" d="M 0 256.879 L 136.821 256.991 L 136.086 604.844 C 136.217 710.74 137.346 816.788 136.044 922.662 A 7496.87 7496.87 0 0 0 0 922.018 L 0 256.879 z"/>
<path transform="translate(0,0)" fill="rgb(254,254,254)" d="M 1887.39 951.119 L 2048 951.027 L 2048 1582.23 L 1887.15 1582.6 C 1885.81 1502.33 1886.9 1421.86 1886.9 1341.58 L 1887.39 951.119 z"/>
<path transform="translate(0,0)" fill="rgb(254,254,254)" d="M 1887.79 256.962 L 2048 257.217 L 2048 922.877 L 1887.12 922.669 L 1886.91 519.754 L 1887.12 352.076 C 1887.21 320.412 1886.72 288.604 1887.79 256.962 z"/>
<path transform="translate(0,0)" fill="rgb(249,158,90)" d="M 1125.45 1679.01 C 1129.68 1679 1133.54 1678.84 1137.62 1680.18 L 1137.87 1680.52 C 1139.62 1680.53 1138.71 1680.79 1140.03 1679.86 C 1141.4 1678.9 1140.84 1679.2 1142.6 1678.85 C 1150.18 1679.03 1158.08 1678.64 1165.6 1679.36 L 1168.12 1679.34 C 1168.06 1681.31 1167.68 1681.84 1166.74 1683.51 L 1168.13 1683.73 C 1169.1 1682.56 1169.96 1681.5 1170.76 1680.2 C 1173.3 1678.98 1176.62 1678.38 1179.3 1679.45 C 1179.68 1679.6 1180.03 1679.83 1180.39 1680.02 C 1180.29 1680.56 1180.17 1681.09 1180.09 1681.62 C 1180.05 1681.98 1180.05 1682.34 1180.02 1682.7 C 1181.7 1681.82 1182.04 1681.02 1183.05 1679.48 C 1184.93 1679.13 1186.13 1679.01 1188 1679.45 C 1192.17 1679.24 1197.81 1678.1 1201.49 1680.16 L 1201.83 1681.84 L 1203.6 1682.96 C 1204.03 1680.36 1203.77 1680.31 1205.86 1678.78 C 1209.32 1678.36 1211.63 1679.14 1214.91 1680.24 L 1216.21 1680.69 C 1220.48 1679.11 1223.71 1678.97 1228.23 1679.23 C 1232.28 1679.24 1236.34 1679.35 1240.39 1679.01 L 1250.53 1679.11 A 459.619 459.619 0 0 1 1269.84 1679.13 C 1274.55 1679.08 1293.31 1677.43 1296.18 1680.02 L 1295.68 1680.89 L 1300.54 1684.23 L 1301.66 1683.68 C 1299.85 1682.3 1298.34 1681.73 1297.66 1679.49 C 1302.73 1677.99 1301.41 1680.72 1305.04 1681.77 L 1306.5 1679.44 C 1315.54 1678.17 1325.54 1679.31 1334.71 1679.29 C 1342.25 1679.01 1350.36 1678.53 1357.84 1679.35 C 1367.47 1679.02 1408.95 1677.51 1415.98 1679.6 C 1426.93 1679.81 1448.84 1681.45 1458.56 1679.08 C 1459.32 1678.89 1460.41 1678.89 1461.22 1678.87 C 1463.66 1681.07 1460.33 1682.14 1464.09 1683.13 C 1464.89 1681.53 1463.26 1680.19 1464.97 1679.69 C 1471.67 1677.74 1492.11 1679.41 1500.11 1679.85 C 1503.5 1679.84 1508.05 1679.19 1511.11 1680.67 L 1511.79 1683.26 L 1512.96 1683.08 L 1514.86 1680.13 L 1517.22 1679.9 C 1530.67 1679.72 1561.11 1677.37 1573.34 1680.35 L 1576.21 1679.34 C 1578.12 1680.55 1577.27 1679.75 1578.65 1681.85 C 1580.17 1681.13 1579.99 1679.82 1580.93 1679.31 C 1582.96 1678.2 1587.82 1678.75 1589.86 1679.73 C 1591.55 1680.53 1592.36 1681.45 1593.59 1682.82 L 1595.16 1683.23 L 1594.55 1680.14 C 1597.11 1678.52 1600.81 1679.04 1603.86 1678.98 C 1609.18 1680.32 1614.2 1679.64 1619.61 1679.67 A 580.569 580.569 0 0 1 1628.75 1680.05 A 2466.68 2466.68 0 0 1 1681.33 1679.79 C 1697.6 1677.98 1716.55 1678.22 1732.82 1679.53 C 1742.14 1678.45 1751.9 1679.4 1761.28 1679.35 C 1778.66 1679.25 1796.79 1678.06 1814.06 1679.73 C 1815.47 1681.5 1815.15 1680.51 1815.09 1682.68 L 1816.59 1682.44 L 1817.34 1680.06 C 1822.71 1677.92 1831.15 1679.11 1837 1679.34 C 1838.37 1680.87 1838.21 1681.31 1838.58 1683.26 C 1839.43 1682.05 1839.71 1681.58 1840.07 1680.09 C 1850.15 1676.48 1864.76 1679.96 1875.34 1680.27 C 1875.61 1680.28 1875.87 1680.15 1876.14 1680.09 C 1884.89 1677.38 1896.19 1681.51 1903.1 1679.96 C 1905.44 1679.44 1907.11 1679.03 1909.54 1679.16 C 1908.86 1680.97 1909.16 1680.35 1908.34 1681.93 C 1908.16 1682.28 1907.97 1682.62 1907.79 1682.96 C 1910.19 1683.03 1909.19 1683.37 1910.88 1682.28 L 1910.75 1679.42 C 1912.53 1678.78 1913.53 1678.98 1915.38 1679.13 C 1916.91 1680.41 1917.46 1680.9 1919.44 1681.43 L 1920.55 1679.17 L 1928.03 1679.07 C 1935.36 1679.09 1942.9 1679.49 1950.19 1679.09 C 1953.53 1679.16 1961.87 1678.32 1964.38 1680.02 L 1964.5 1682.56 L 1965.7 1682.05 L 1966.11 1679.67 C 1975.77 1677.3 1988.99 1679.05 1999.1 1679.18 C 2015.39 1679.2 2031.72 1679 2048 1679.41 L 2048 1704.56 L 2048 1723.98 L 2048 1734.95 L 2048 1766.93 L 2048 1778.19 L 2048 1816.4 L 2048 1818.78 L 2048 1828.75 L 2048 1840.72 L 2048 1853.52 L 2048 1874.83 L 2048 1887.46 L 2048 1893.92 L 2009.43 1893.89 L 1983.42 1893.5 L 1955.27 1893.35 A 4570.96 4570.96 0 0 1 1908.61 1892.88 C 1893.8 1893.66 1878.63 1892.97 1863.78 1892.95 L 1848.68 1892.81 C 1840.93 1893.31 1832.91 1892.92 1825.13 1892.95 L 1804.98 1892.99 L 1803.01 1892.86 L 1776.47 1893 C 1751.56 1893 1726.67 1893.64 1701.76 1893.3 L 1687.2 1893.64 L 1648.65 1893.77 L 1586.4 1893.69 L 1574.35 1893.63 L 1553.5 1893.27 L 1547.34 1893.45 L 1529.72 1893.14 A 10769.6 10769.6 0 0 0 1406.41 1893.25 L 1397.69 1893.54 L 1377.89 1893.69 A 3454.32 3454.32 0 0 1 1304.46 1893.67 L 1303.83 1893.6 C 1286.69 1894.56 1268.87 1894.06 1251.7 1893.68 C 1226.47 1895.16 1200.43 1893.89 1175.11 1893.92 C 1159.04 1894.16 1142.95 1894.01 1126.87 1894.04 A 5741.18 5741.18 0 0 0 1066.81 1894.19 C 1098.22 1849.52 1075.64 1813.83 1085.21 1769.24 C 1091.14 1741.6 1108.68 1714.49 1120.29 1688.73 L 1125.45 1679.01 z"/>
<path transform="translate(0,0)" fill="rgb(254,254,254)" d="M 279.899 0 L 1855.91 0 L 1856.01 225.708 L 279.958 226.868 C 278.806 151.299 280.019 75.5885 279.899 0 z"/>
</svg>