<svg version="1.1" xmlns="http://www.w3.org/2000/svg" style="display: block;" viewBox="0 0 2048 2048" width="1024" height="1024">
<path transform="translate(0,0)" fill="rgb(254,254,254)" d="M 0 0 L 2048 0 L 2048 2048 L 0 2048 L 0 0 z"/>
<path transform="translate(0,0)" fill="rgb(0,0,0)" d="M 895.841 1886.36 C 907.421 1886.05 924.542 1883.68 935.477 1887.49 C 937.926 1888.34 938.731 1889.12 939.741 1891.43 C 939.033 1894.19 939.157 1894.31 936.878 1895.98 C 925.935 1897.34 908.523 1898.37 897.833 1895.68 C 895.262 1895.04 894.34 1894.39 893.023 1892.15 C 893.175 1889.32 894.099 1888.45 895.841 1886.36 z"/>
<path transform="translate(0,0)" fill="rgb(0,0,0)" d="M 1534.34 1768.43 C 1543.66 1768.09 1553.04 1767.54 1562.36 1767.59 C 1567.29 1767.62 1571.81 1767.57 1575.42 1771.24 C 1575.43 1772.48 1575.77 1773.41 1574.88 1774.39 C 1570.77 1778.92 1548.84 1777.53 1542.12 1777.7 C 1531.41 1777.72 1520.62 1778 1509.91 1777.66 C 1505.84 1777.53 1502.1 1777.54 1499.12 1774.42 L 1499.31 1772.45 C 1506.61 1767.32 1525.14 1768.73 1534.34 1768.43 z"/>
<path transform="translate(0,0)" fill="rgb(0,0,0)" d="M 874.087 1803.59 C 901.015 1807.7 929.44 1805.98 956.623 1807.17 C 961.473 1807.38 969.424 1807.29 972.84 1811.05 C 973.161 1813.61 972.947 1813.87 971.77 1816.2 C 957.785 1818.77 886.187 1817.98 876.621 1811.95 C 874.542 1809.15 874.406 1806.93 874.087 1803.59 z"/>
<path transform="translate(0,0)" fill="rgb(0,0,0)" d="M 1444.48 1751.35 C 1458.71 1750.91 1552.12 1748.54 1558.49 1753.22 C 1559.74 1754.14 1559.6 1755.12 1559.93 1756.53 C 1558.37 1759.4 1557.93 1759.35 1554.9 1760.72 C 1540.36 1761.25 1447.66 1763.03 1439.95 1759.65 C 1438.59 1757.77 1438.69 1757.79 1438.9 1755.46 C 1440.85 1752.59 1441.2 1752.58 1444.48 1751.35 z"/>
<path transform="translate(0,0)" fill="rgb(0,0,0)" d="M 960.595 1785.43 C 972.75 1785.02 1044.95 1786.5 1049.9 1790.64 C 1051.05 1793.26 1051.11 1793.46 1050.57 1796.26 C 1045.04 1799.78 996.473 1796.74 985.75 1796.57 C 974.307 1796.35 962.791 1795.82 951.35 1795.99 C 934.812 1796.24 914.889 1799.28 898.774 1795.18 C 896.251 1794.54 895.008 1794.03 893.594 1791.86 L 894.581 1789.75 C 898.35 1787.48 951.657 1786.01 960.595 1785.43 z"/>
<path transform="translate(0,0)" fill="rgb(0,0,0)" d="M 610.627 1865.43 C 629.507 1863.76 655.717 1863.17 674.411 1866.65 C 678.99 1867.51 680.965 1868.05 683.633 1871.97 C 683.635 1874.88 683.482 1875.17 681.897 1877.63 C 674.62 1882.5 644.971 1879.87 634.92 1879.96 A 920.904 920.904 0 0 0 499.757 1892.45 C 486.886 1894.23 446.814 1903.51 437.598 1901.21 C 434.967 1900.55 434.022 1899.81 432.558 1897.6 L 433.241 1895.43 C 441.89 1886.99 461.049 1885.65 472.604 1883.31 C 520.618 1873.63 561.471 1868.23 610.627 1865.43 z"/>
<path transform="translate(0,0)" fill="rgb(0,0,0)" d="M 1255.4 1852.55 C 1282.61 1850.99 1333.74 1850.46 1358.03 1860.25 C 1360.34 1861.19 1362.4 1862.54 1363.03 1865.13 C 1363.64 1867.64 1363.08 1869.6 1361.78 1871.71 C 1361.39 1872 1361.03 1872.33 1360.62 1872.59 C 1353.75 1876.95 1322.66 1869.09 1312.53 1868.53 C 1292.74 1867.42 1272.52 1868.81 1252.7 1869.34 C 1234.22 1869.84 1215.66 1869.57 1197.23 1870.89 C 1180.41 1870.92 1163.34 1872.8 1146.61 1874.64 C 1131.7 1876.28 1107.68 1881.87 1093.42 1878.48 C 1091.35 1876.78 1091.25 1876.67 1090.56 1874.09 C 1090.99 1872.16 1091.29 1870.71 1092.66 1869.17 C 1094.74 1866.84 1097.11 1866.05 1100.08 1865.75 C 1113.23 1864.42 1126.33 1862.2 1139.49 1860.77 A 1248.19 1248.19 0 0 1 1255.4 1852.55 z"/>
<path transform="translate(0,0)" fill="rgb(0,0,0)" d="M 1416.82 1843.41 C 1421.03 1842.88 1425.38 1842.89 1429.63 1842.79 C 1472.6 1841.74 1514.75 1847.8 1557.53 1849 A 1967.01 1967.01 0 0 0 1633.74 1849.97 C 1652.58 1849.93 1672.06 1848.85 1690.76 1851.05 C 1698.59 1851.98 1707.95 1853.82 1713.63 1859.71 C 1715.46 1861.6 1716.32 1863.33 1716.35 1865.98 C 1715.75 1867.45 1715.25 1867.97 1713.92 1868.92 C 1707.11 1873.75 1695.77 1869.94 1688.55 1868.2 C 1666.81 1863.73 1642.11 1867.16 1619.96 1867.22 C 1593.57 1867.29 1567.03 1866.12 1540.65 1865.22 C 1525.59 1864.71 1510.51 1862.34 1495.5 1860.9 C 1466 1858.06 1435.62 1856.52 1406.12 1859.38 C 1399.94 1859.98 1393.01 1860.35 1387.95 1856.2 C 1387.48 1853.95 1387.27 1853.58 1388.77 1851.6 C 1394.2 1844.44 1408.74 1844.18 1416.82 1843.41 z"/>
<path transform="translate(0,0)" fill="rgb(0,0,0)" d="M 1202.6 148.367 C 1205.14 148.26 1207.68 148.203 1210.22 148.451 C 1221.84 149.582 1231.1 155.551 1238.26 164.593 C 1268.17 202.376 1269.07 304.911 1263.83 352.094 C 1271.22 366.456 1280.43 379.997 1287.24 394.614 C 1295.85 413.099 1300.98 435.274 1305.7 455.096 C 1313.3 487.032 1316.37 518.27 1315.59 551.055 C 1313.95 619.543 1298.7 664.255 1262.84 722.553 C 1268.83 741.404 1271.2 764.115 1271.09 783.911 C 1278.56 789.428 1285.08 795.203 1291.34 802.07 C 1353.87 870.662 1378.61 1022.65 1374.7 1113.2 C 1392.95 1132.81 1408.34 1153.64 1420.38 1177.66 C 1457.21 1251.18 1458.07 1367.58 1442.76 1447.06 C 1437.98 1471.85 1430.41 1496.38 1421.59 1520 C 1404.18 1566.67 1377.96 1609.54 1362.29 1656.72 L 1372.72 1670.78 C 1401.8 1667.62 1432.95 1669.02 1462.17 1669.92 C 1494.08 1670.91 1526.44 1671.51 1557.97 1677 C 1580.06 1680.85 1601.57 1687.53 1623.6 1691.53 C 1634.39 1693.48 1645.48 1694.27 1656.42 1695.05 C 1683.23 1696.97 1710.8 1695 1737.73 1694.94 C 1746.5 1694.93 1757.73 1693.67 1766.16 1695.9 C 1769.58 1696.81 1771.44 1697.99 1773.32 1701.05 C 1773.74 1703.89 1773.68 1705.17 1772.53 1707.82 C 1765.15 1715.58 1743.6 1712.05 1733.55 1712.13 C 1696.34 1712.44 1659.87 1714.61 1622.91 1708.46 C 1592 1703.32 1562.48 1692.72 1531.11 1689.7 C 1481.32 1684.92 1428.42 1682.21 1378.65 1687.87 C 1379.03 1689.75 1379.36 1691.6 1379.61 1693.5 C 1382.08 1712.23 1378.94 1728.64 1367.18 1743.79 C 1341.7 1776.63 1292.89 1778.98 1254.66 1778.76 C 1244.83 1778.7 1234.95 1777.56 1225.13 1777.82 C 1217.17 1778.04 1209.04 1779.36 1201.14 1780.36 C 1223.34 1782.21 1245.69 1784.05 1267.99 1783.94 C 1281.09 1783.88 1294.54 1783.57 1307.61 1782.64 C 1324.39 1781.44 1346.73 1775.86 1363.11 1781.01 C 1365.59 1781.79 1366.67 1782.46 1367.95 1784.69 L 1367.07 1786.8 C 1359.11 1790.96 1345.53 1788.69 1336.56 1789.08 C 1323.52 1789.66 1310.56 1791.46 1297.51 1791.97 C 1266.83 1793.16 1236.43 1791.98 1205.83 1789.85 C 1194.78 1789.09 1184.07 1787.07 1173.1 1785.77 C 1165.38 1784.86 1157.17 1784.67 1149.59 1783.03 C 1142.13 1781.42 1135.16 1777.81 1127.63 1776.36 C 1111.65 1773.28 1095.24 1774 1080.47 1765.91 C 1070.36 1760.38 1063.04 1750.66 1055.59 1742.09 C 1027.76 1737.47 995.613 1743.22 967.539 1745.43 C 953.787 1746.51 939.433 1746.67 925.876 1749.08 C 917.472 1765.7 907.246 1779.37 891.706 1789.93 C 839.781 1825.23 799.772 1814.27 743.23 1802.63 C 726.492 1799.18 710.836 1786.96 701.581 1772.87 C 689.653 1754.71 687.055 1732.88 691.515 1711.93 C 636.613 1703.23 565.836 1722.3 509.944 1731.03 C 486.336 1734.71 462.294 1736.08 438.928 1741.11 C 455.738 1742.26 472.925 1744.36 489.548 1747.09 C 511.238 1750.66 602.052 1768.49 617.553 1778.35 C 619.268 1779.44 620.484 1780.08 620.657 1782.24 C 620.882 1785.04 620.287 1786.61 618.604 1788.76 C 615.521 1790.57 613.181 1790.21 609.779 1789.95 C 586.433 1785.7 563.359 1778.32 540.236 1772.84 A 952.387 952.387 0 0 0 428.719 1754.14 C 407.439 1752.01 385.881 1750.46 364.49 1750.49 C 348.311 1750.52 332.047 1750.67 315.879 1751.26 C 305.373 1751.64 287.306 1755.59 277.809 1753.05 C 275.802 1751.32 275.828 1751.51 275.586 1748.88 C 276.43 1747.23 277.072 1746.57 278.665 1745.51 C 294.798 1734.79 363.738 1737.17 386.159 1735.54 C 402.485 1734.35 418.981 1728.79 435.22 1726.21 C 466.94 1721.16 498.767 1716.83 530.442 1711.48 C 564.414 1705.74 598.673 1698.75 632.979 1695.53 C 654.717 1693.48 674.766 1694.35 696.202 1698.08 C 698.673 1694.29 700.9 1690.3 703.23 1686.42 C 686.671 1668.74 669.916 1638.38 659.597 1616.23 C 626.021 1544.15 608.714 1452.11 610.446 1372.95 C 610.845 1354.72 613.201 1336.37 614.665 1318.19 C 617.431 1283.85 620.979 1249.71 629.454 1216.2 C 636.538 1188.19 647.655 1161.89 657.559 1134.88 C 653.102 1133.3 648.625 1131.71 644.278 1129.85 C 585.612 1104.67 549.021 1042.39 526.711 985.362 C 511.676 946.929 501.293 906.093 494.366 865.457 C 486.154 817.274 482.19 768.101 478.886 719.381 C 475.616 671.142 473.063 623.124 471.209 574.805 C 470.065 544.989 465.903 514.642 467.361 484.859 C 468.243 466.826 470.752 448.044 478.213 431.43 C 489.757 405.721 516.749 387.727 542.346 378.217 C 575.197 366.012 604.969 365.09 637.005 380.122 C 665.082 393.295 680.652 415.049 690.101 443.984 C 709.774 504.226 696.047 564.601 699.043 626.224 C 700.996 666.405 706.922 705.364 713.701 744.925 C 718.286 771.685 722.64 799.186 731.737 824.816 C 741.55 814.378 750.1 802.822 759.892 792.335 C 758.623 786.105 757.833 779.944 758.137 773.586 C 758.866 758.349 764.93 743.812 776.279 733.458 L 774.28 730.657 C 765.077 717.645 757.935 703.57 751.19 689.171 C 717.764 617.809 717.613 548.29 734.462 472.657 L 748.104 410.786 C 751.218 397.016 755.441 382.869 756.722 368.821 C 758.038 354.397 756.162 338.879 755.628 324.401 C 754.386 290.719 752.917 253.24 758.81 219.846 C 762.366 199.693 771.455 174.403 789.267 162.522 C 800.432 155.076 816.491 153.406 829.45 156.532 C 865.126 165.135 888.801 199.19 909.558 226.701 C 921.88 243.031 933.824 258.976 944.226 276.652 C 956.838 274.911 969.293 272.228 981.97 270.875 C 1016.07 267.234 1051.96 267.51 1085.94 272.28 C 1094.73 250.641 1120.94 211.31 1136.41 192.585 C 1154.04 171.264 1173.75 151.035 1202.6 148.367 z"/>
<path transform="translate(0,0)" fill="rgb(254,254,254)" d="M 1023.52 812.16 C 1027.39 812.453 1030.91 812.408 1033.94 815.11 C 1042.79 823.02 1041.93 860.09 1043.1 872.871 L 1033.25 872.761 C 1028.07 872.93 1022.88 873.283 1017.71 873.563 C 1017.27 864.188 1011.83 825.18 1014.59 819.443 C 1016.39 815.715 1019.88 813.695 1023.52 812.16 z"/>
<path transform="translate(0,0)" fill="rgb(254,254,254)" d="M 1108.82 969.006 C 1109.52 969.701 1109.06 969.162 1109.68 970.951 C 1107.68 983.397 1098.98 994.018 1089.93 1002.39 C 1081.24 1010.43 1063.98 1023.3 1051.63 1022.76 C 1055.44 1009.14 1053.9 998.183 1049.37 985.133 C 1071.25 985.035 1090.28 980.59 1108.82 969.006 z"/>
<path transform="translate(0,0)" fill="rgb(254,254,254)" d="M 955.134 971.536 C 960.481 973.707 965.518 976.739 970.859 979.01 C 986.464 985.644 1002.32 987.553 1019.15 987.963 C 1016.33 1000.77 1016.09 1010.94 1019.35 1023.67 C 1018.99 1023.68 1018.64 1023.73 1018.29 1023.72 C 1003.23 1023.34 982.484 1011.94 971.727 1001.79 C 963.453 993.971 955.504 983.24 955.134 971.536 z"/>
<path transform="translate(0,0)" fill="rgb(254,254,254)" d="M 1108.93 937.274 C 1110.28 938.541 1111.82 943.294 1112.02 945.16 C 1112.29 947.745 1111.21 950.092 1109.49 951.967 C 1095.39 967.298 1037.62 969.888 1016.57 970.213 C 997.017 970.515 970.949 970.617 955.991 956.11 C 955.9 951.247 957.234 946.148 958.096 941.365 C 964.478 948.817 969.703 952.929 979.312 955.788 C 1013.97 966.101 1077.59 954.727 1108.93 937.274 z"/>
<path transform="translate(0,0)" fill="rgb(254,254,254)" d="M 765.847 803.722 C 773.149 812.118 781.222 819.959 789.027 827.89 C 777.315 850.578 765.796 873.867 756.752 897.778 C 756.225 898.819 756.639 898.214 755.15 899.285 C 752.405 896.978 738.756 853.006 737.992 847.071 C 737.485 843.138 737.883 839.573 739.681 836.009 C 743.129 829.178 759.922 811.159 765.847 803.722 z"/>
<path transform="translate(0,0)" fill="rgb(254,254,254)" d="M 1019.05 891.147 C 1034.01 890.33 1049.41 890.728 1063.91 894.807 C 1079.86 899.291 1093.95 907.171 1102.25 921.995 C 1082.54 932.347 1060.97 935.737 1039.19 938.859 C 1019.69 939.248 992.134 944.804 973.533 939.075 C 969.042 937.692 966.709 937.112 962.032 938.317 C 961.649 938.416 961.27 938.531 960.888 938.638 L 959.647 937.712 C 959.114 934.768 959.405 932.977 960.91 930.42 C 971.105 913.093 999.912 896.179 1019.05 891.147 z"/>
<path transform="translate(0,0)" fill="rgb(254,254,254)" d="M 1282.01 1654.39 C 1292.18 1653.56 1301.73 1653.53 1311.84 1655.08 C 1328.26 1657.59 1343.77 1663.41 1353.79 1677.52 C 1360.71 1687.25 1362.88 1698.99 1361.03 1710.68 C 1357.61 1732.24 1342.79 1741.06 1326.46 1752.77 C 1330.99 1741.15 1335.99 1726.17 1331.67 1713.72 C 1330 1708.91 1325.55 1702.24 1320.9 1699.98 L 1319.17 1700.65 C 1314.34 1709.64 1322.76 1727.4 1317.18 1742.34 L 1316.72 1743.55 C 1314.67 1747.61 1312.19 1751.53 1309.91 1755.47 L 1290.4 1760.21 C 1293.72 1749.47 1299.24 1723.2 1294.03 1712.62 C 1292.91 1710.34 1291.84 1709.46 1289.54 1708.56 C 1281.79 1712.74 1281.63 1736.22 1279.93 1744.75 C 1278.86 1750.09 1277.08 1755.24 1275.27 1760.36 C 1267.98 1761.07 1260.5 1760.86 1253.17 1760.95 C 1261.23 1755.47 1266.59 1748.11 1270.98 1739.54 A 85.8495 85.8495 0 0 0 1280.54 1706.53 C 1281.51 1695.61 1276.58 1661.1 1282.01 1654.39 z"/>
<path transform="translate(0,0)" fill="rgb(195,44,43)" d="M 1251.72 734.725 C 1257.74 741.094 1258.38 772.775 1259.04 782.717 C 1252.05 791.644 1245.04 800.597 1237.01 808.625 C 1194.49 851.122 1124.49 875.27 1064.75 875.031 C 1063.76 874.959 1062.82 874.553 1061.88 874.252 C 1057.86 865.775 1058.95 840.697 1057.94 830.061 C 1126.8 820.128 1206.53 789.529 1251.72 734.725 z"/>
<path transform="translate(0,0)" fill="rgb(195,44,43)" d="M 781.99 742.431 C 787.592 743.242 794.777 753.003 799.309 756.812 C 813.677 768.888 830.869 780.559 847.315 789.579 C 897.009 816.834 936.261 822.48 990.913 830.471 C 996.233 840.917 1003.15 862.37 1000.53 873.896 C 998.319 875.413 996.304 875.073 993.68 875.226 C 982.957 874.965 972.185 873.331 961.538 872.067 C 908.522 865.774 827.751 847.603 789.014 808.759 C 778.426 798.141 772.833 786.211 772.867 771.046 C 772.889 760.974 774.635 749.823 781.99 742.431 z"/>
<path transform="translate(0,0)" fill="rgb(254,254,254)" d="M 817.667 1647.45 A 119.899 119.899 0 0 1 850.061 1649.96 C 871.853 1654.61 896.136 1668.3 908.201 1687.56 A 57.2557 57.2557 0 0 1 914.871 1732.6 C 909.314 1754.1 891.501 1767.49 873.378 1778.23 C 872.796 1766.16 867.258 1743.44 860.838 1733.3 C 859.187 1730.69 857.9 1729.81 854.908 1729.25 C 853.414 1730.41 852.86 1730.56 852.098 1732.38 C 846.511 1745.75 857.501 1769.92 862.708 1782.12 C 850.345 1790.03 836.517 1793.28 822.084 1794.68 C 818.19 1785.3 814.021 1775.84 812.155 1765.8 C 810.593 1757.4 814.178 1746.14 810.015 1738.66 L 806.753 1737.94 C 803 1741.6 802.188 1746.17 801.111 1751.07 C 798.248 1767.75 801.917 1780.03 807.999 1795.48 C 796.75 1794.84 785.566 1793.66 774.546 1791.28 C 766.253 1780.99 759.137 1768.27 758.181 1754.86 C 757.634 1747.19 761.967 1735.43 757.783 1728.75 C 756.321 1728.39 756.023 1727.93 754.636 1728.85 C 750.488 1731.6 748.101 1738.22 747.212 1742.91 C 743.957 1760.1 748.156 1775.32 757.57 1789.62 C 745.852 1787.17 735.898 1784.59 726.27 1776.95 A 59.2119 59.2119 0 0 1 704.226 1735.96 C 702.717 1720.02 708.691 1703.59 719.021 1691.51 C 742.155 1664.46 783.16 1650.2 817.667 1647.45 z"/>
<path transform="translate(0,0)" fill="rgb(254,254,254)" d="M 1376 1136.83 C 1391.69 1147.92 1413.62 1198.96 1419.31 1217.73 C 1444.8 1301.84 1436.45 1419.19 1407.69 1502.17 C 1396.23 1535.25 1379.69 1566.67 1364.77 1598.26 C 1357.58 1613.48 1352.31 1629.91 1344.41 1644.69 C 1342.05 1645.84 1341.05 1644.89 1338.66 1644.12 C 1319.14 1635 1300.63 1634.67 1279.74 1637.51 C 1282.49 1594.73 1301.8 1541.98 1314.02 1500.24 C 1318.07 1486.38 1320.93 1472.19 1324.87 1458.29 C 1354.73 1352.75 1381.76 1247.55 1376 1136.83 z"/>
<path transform="translate(0,0)" fill="rgb(254,254,254)" d="M 1204.34 163.176 C 1208.45 163.38 1212.72 164.509 1216.22 166.706 C 1249.31 187.44 1250.52 282.957 1250.91 319.49 C 1251.04 331.845 1248.81 346.287 1251.66 358.282 C 1254.28 369.26 1261.28 379.657 1265.67 390.076 C 1275.46 413.301 1283.79 436.841 1289.27 461.47 C 1306.37 538.328 1301.07 628.243 1257.69 695.852 C 1248.09 710.814 1238.02 724.937 1225.47 737.637 C 1215.06 748.173 1202.85 756.925 1190.47 764.987 C 1146.58 793.548 1104.23 804.699 1053.99 815.659 C 1051.76 811.069 1049.37 807.086 1045.14 804.059 C 1037.89 798.872 1028.91 797.508 1020.23 798.888 C 1009.78 800.551 1002.53 805.769 996.382 814.119 C 977.462 814.611 957.339 811.462 938.798 807.711 C 886.381 797.105 807.974 759.62 778.073 713.748 C 768.211 698.619 761.622 681.739 755.073 664.995 C 722.115 580.719 735.519 517.566 753.17 432.608 A 387.542 387.542 0 0 1 762.191 397.857 C 765.177 387.914 769.376 377.215 770.463 366.885 C 771.509 356.944 770.351 346.895 769.757 336.952 C 767.275 295.404 760.664 210.226 789.777 179.06 C 795.965 172.435 805.034 169.711 813.943 169.725 C 852.191 169.785 884.231 220.619 904.357 248.071 C 910.125 255.94 917.176 262.757 922.793 270.715 C 927.645 277.588 930.369 285.959 936.497 291.881 C 943.456 295.002 990.204 289.172 1000.81 288.259 C 999.943 297.188 999.919 306.509 1002.43 315.2 A 95.3751 95.3751 0 0 0 1048.17 372.939 C 1069.68 384.612 1097.45 386.849 1120.96 379.826 C 1138.21 374.669 1156.62 363.152 1165.11 346.949 C 1169.66 338.261 1174.07 325.218 1170.71 315.654 C 1167.69 307.033 1158.71 304.315 1151.15 300.691 L 1149.81 300.999 L 1150.73 300.394 L 1149.31 299.429 C 1153.6 298.844 1158.13 301.583 1162.01 303.254 C 1168.01 305.837 1174.89 308.053 1180.21 311.881 C 1190.86 319.553 1200.54 337.854 1212.94 340.993 C 1216.09 340.386 1217.83 339.854 1219.7 337.117 C 1234.57 315.412 1230.11 254.244 1224.63 229.617 C 1221.76 216.685 1216.76 199.502 1204.64 192.303 C 1200.03 189.566 1194.93 188.873 1189.77 190.351 C 1163.79 197.796 1125.32 261.141 1113.03 284.819 C 1107.61 283.868 1102.23 282.448 1096.87 281.191 C 1099.37 275.804 1102.44 270.713 1105.59 265.687 C 1123.21 237.536 1153.17 188.775 1181.66 171.391 C 1188.79 167.043 1196.27 165.016 1204.34 163.176 z"/>
<path transform="translate(0,0)" fill="rgb(0,0,0)" d="M 1086.57 410.227 C 1092.63 412.815 1096.61 420.626 1099.41 426.356 C 1102.74 433.181 1106.16 441.288 1103.62 448.777 C 1098.67 446.477 1096.52 444.129 1093.58 439.523 C 1087.96 430.695 1084.33 420.65 1086.57 410.227 z"/>
<path transform="translate(0,0)" fill="rgb(0,0,0)" d="M 863.389 396.31 C 864.211 396.395 865.812 396.533 866.57 396.742 C 869.41 397.524 870.87 400.447 871.913 402.973 C 875.814 412.417 879.751 431.104 875.992 440.691 C 872.317 439.819 869.869 439.129 867.872 435.63 C 862.564 426.332 860.993 406.465 863.389 396.31 z"/>
<path transform="translate(0,0)" fill="rgb(0,0,0)" d="M 904.453 387.342 C 905.552 387.694 906.667 388.004 907.692 388.558 C 910.091 389.856 911.327 392.384 912.065 394.888 C 915.249 405.696 914.102 421.805 908.865 431.736 C 906.841 431.393 905.61 430.574 903.902 429.473 C 902.595 427.427 901.808 425.821 901.385 423.407 C 899.877 414.807 899.4 394.378 904.453 387.342 z"/>
<path transform="translate(0,0)" fill="rgb(0,0,0)" d="M 1117.61 384.63 C 1118.28 384.796 1118.95 384.959 1119.61 385.159 C 1123.73 386.411 1125.28 389.042 1127.18 392.705 C 1132.68 403.311 1137.37 421.284 1133.53 432.843 L 1131 432.813 C 1129.19 431.918 1127.81 431.285 1126.51 429.69 C 1119.86 421.536 1116.03 394.724 1117.61 384.63 z"/>
<path transform="translate(0,0)" fill="rgb(0,0,0)" d="M 945.513 394.293 C 947.381 394.935 947.873 395.261 949.299 396.501 C 949.821 398.309 950.01 399.646 949.933 401.556 C 949.36 415.664 945.646 436.774 935.064 446.682 C 934.583 446.416 934.088 446.174 933.621 445.886 C 931.599 444.637 930.82 443.798 930.407 441.439 C 928.161 428.615 937.928 404.532 945.513 394.293 z"/>
<path transform="translate(0,0)" fill="rgb(0,0,0)" d="M 1162.82 383.822 C 1164.84 384.136 1166.51 384.635 1168.46 385.221 C 1169.45 386.303 1170.19 387.245 1170.57 388.695 C 1174.34 403.001 1166.04 424.616 1159.5 437.293 C 1158.16 437.619 1157.51 437.745 1156.13 437.388 C 1154.82 437.047 1154.1 436.295 1153.57 434.994 C 1149.27 424.519 1159.17 394.296 1162.82 383.822 z"/>
<path transform="translate(0,0)" fill="rgb(0,0,0)" d="M 1044.83 749.939 C 1048.08 749.683 1050.02 749.433 1052.95 751.19 C 1054.21 753.617 1054.59 754.136 1053.62 756.907 C 1051.73 762.294 1042.96 767.234 1038.12 769.318 C 1027.03 774.089 1015.69 774.711 1004.45 770.211 C 1002.67 769.058 1000.67 767.874 999.212 766.308 C 996.719 763.623 995.22 759.411 995.488 755.808 C 996.467 754.385 996.624 753.69 998.306 752.982 C 1003.52 750.787 1007.92 754.018 1012.85 755.596 C 1024.42 759.293 1034.61 755.3 1044.83 749.939 z"/>
<path transform="translate(0,0)" fill="rgb(0,0,0)" d="M 1108 636.817 C 1109.63 636.727 1109.56 636.695 1111.42 636.786 C 1127 637.549 1182.41 663.155 1192.98 675.475 C 1195.99 678.992 1196.09 681.591 1195.61 685.961 C 1192.11 685.957 1188.67 685.287 1185.51 683.771 C 1174 678.246 1160.02 667.457 1147.54 660.737 C 1136.22 654.64 1122.01 651.431 1111.67 644.06 C 1108.65 641.912 1108.48 640.402 1108 636.817 z"/>
<path transform="translate(0,0)" fill="rgb(0,0,0)" d="M 1135.53 592.415 C 1160.41 592.673 1192.79 593.977 1215.16 605.472 C 1220.23 608.076 1228.06 611.667 1229.84 617.383 L 1228.97 619.027 C 1226.36 620.349 1224 619.986 1221.19 619.813 C 1204.74 616.316 1189.66 608.292 1173.18 604.701 C 1157.42 601.267 1139.86 602.823 1124.68 598.416 L 1123.91 596.508 L 1124.85 594.822 C 1128.21 592.913 1131.76 592.814 1135.53 592.415 z"/>
<path transform="translate(0,0)" fill="rgb(0,0,0)" d="M 938.84 645.012 C 941.377 644.79 942.979 644.8 945.405 645.602 L 945.957 647.667 C 944.051 652.108 897.035 679.432 889.622 684.335 C 881.983 689.388 875.192 695.459 867.813 700.864 C 867.381 700.891 866.949 700.974 866.518 700.946 C 863.607 700.761 863.292 700.341 861.554 698.223 C 861.242 695.747 861 694.696 862.082 692.347 C 869.014 677.284 923.568 650.496 938.84 645.012 z"/>
<path transform="translate(0,0)" fill="rgb(0,0,0)" d="M 1116.95 617.062 C 1121.86 616.695 1126.6 617.522 1131.42 618.347 C 1148.4 621.254 1207.63 634.962 1215.03 649.107 C 1216.47 651.865 1215.85 652.546 1214.9 655.339 C 1213.01 655.357 1211.05 655.271 1209.19 654.95 C 1192.63 652.095 1169.88 638.906 1153.16 632.8 C 1144.87 629.771 1121.12 627.499 1116.31 620.453 L 1116.95 617.062 z"/>
<path transform="translate(0,0)" fill="rgb(0,0,0)" d="M 923.089 623.351 C 925.047 623.053 926.443 622.87 928.38 623.469 C 930.547 624.14 932.049 625.283 932.808 627.377 C 931.938 629.189 930.67 630.17 928.875 631.055 C 925.348 632.795 920.946 633.49 917.203 634.773 C 907.793 637.999 898.213 641.315 889.108 645.327 C 873.843 652.053 859.78 660.863 846.236 670.522 C 843.151 671.797 841.183 672.593 837.896 671.56 L 836.957 669.42 C 837.551 665.994 838.939 663.769 841.043 661.017 C 856.742 640.487 898.417 627.004 923.089 623.351 z"/>
<path transform="translate(0,0)" fill="rgb(0,0,0)" d="M 898.653 596.32 C 905.817 594.938 914.413 595.482 921.63 596.222 C 926.071 596.678 931.823 596.977 934.819 600.654 L 934.572 602.799 C 930.405 605.42 909.766 605.868 903.616 606.936 C 886.417 609.923 870.22 614.613 853.918 620.784 C 848.459 623.196 837.921 630.43 832.407 630.411 C 829.594 630.402 828.746 629.574 826.842 627.816 C 826.394 625.22 826.235 624.538 827.781 622.172 C 836.927 608.174 883.311 598.731 898.653 596.32 z"/>
<path transform="translate(0,0)" fill="rgb(0,0,0)" d="M 1018.16 576.373 C 1021.38 575.829 1024.63 575.742 1027.9 575.87 C 1037.86 576.261 1055.52 579.266 1062.25 587.038 C 1064.45 589.577 1065.41 592.745 1065.09 596.079 C 1062.95 618.651 1038.3 618.333 1032.41 624.195 C 1032.05 624.557 1031.72 624.952 1031.37 625.331 L 1031.18 625.942 C 1029.45 627.276 1027.71 627.89 1025.48 627.717 C 1022.28 627.469 1021.39 625.674 1019.69 623.274 C 1014.07 622.059 1008.48 621.12 1003.5 618.056 C 996.381 613.672 988.875 606.549 987.074 598.033 C 986.262 594.196 986.808 590.111 989.13 586.881 C 995.336 578.252 1008.57 577.562 1018.16 576.373 z"/>
<path transform="translate(0,0)" fill="rgb(0,0,0)" d="M 1135.1 484.194 C 1144.6 483.365 1153.16 484.303 1161.81 488.724 C 1173.55 494.726 1185.14 506.723 1189.09 519.386 C 1190.64 524.373 1191.57 531.432 1189.03 536.195 L 1187.54 536.471 C 1182.04 532.493 1180.97 524.655 1178.28 518.826 C 1171.83 504.876 1157.81 498.266 1144.34 492.979 C 1146.15 496.565 1147.91 500.133 1148.82 504.073 C 1152.35 519.382 1152.59 553.226 1144.37 567.08 C 1141.33 570.381 1138.49 572.361 1133.91 572.891 C 1128.17 573.557 1121.49 571.801 1117.18 567.857 C 1105.37 557.038 1109.38 525.241 1109.12 510.11 C 1102.37 519.435 1095.49 535.53 1087.48 542.885 C 1085.84 544.395 1085.74 544.522 1083.43 544.493 C 1083.14 543.877 1082.78 543.289 1082.54 542.647 C 1080.58 537.204 1086.3 526.434 1089.07 521.818 C 1100.06 503.449 1113.85 489.475 1135.1 484.194 z"/>
<path transform="translate(0,0)" fill="rgb(0,0,0)" d="M 903.99 487.384 C 904.085 487.377 904.181 487.366 904.277 487.363 C 921.42 486.756 938.001 495.991 950.424 507.172 C 957.541 513.577 970.837 526.558 970.713 536.65 C 970.692 538.318 970.858 537.718 969.732 538.94 C 960.568 538.926 951.993 524.076 945.963 518.057 C 941.936 514.038 937.325 510.488 932.908 506.905 C 934.319 513.895 934.79 520.599 934.834 527.723 C 934.905 539.277 936.032 556.306 926.896 564.968 C 921.554 570.033 915.619 569.507 908.815 569.219 C 906.536 568.597 904.154 568.014 901.991 567.054 C 897.486 565.057 894.148 560.167 892.327 555.764 C 885.83 540.054 888.834 514.383 895.309 499.147 C 892.786 499.874 890.213 500.587 887.75 501.507 C 878.511 504.958 867.994 512.353 864.021 521.713 C 862.327 525.705 861.332 530.123 859.228 533.937 C 858.015 536.135 857.005 536.707 854.673 537.333 C 851.969 536.013 851.707 535.852 850.182 533.272 C 849.651 524.88 856.295 514.745 861.442 508.336 C 872.793 494.204 886.449 489.272 903.99 487.384 z"/>
<path transform="translate(0,0)" fill="rgb(0,0,0)" d="M 1021.74 642.538 C 1024.55 642.828 1027.22 642.937 1029.28 645.138 C 1036.9 653.262 1036.13 675.632 1054.4 692.042 C 1061.93 698.811 1070.59 702.727 1080.76 703.229 C 1109.27 704.637 1119.71 683.085 1133.49 682.437 C 1135.61 683.58 1136.78 683.982 1137.41 686.568 C 1138.3 690.226 1135.49 695.567 1133.34 698.386 C 1124.04 710.547 1106.5 718.037 1091.63 719.712 C 1070.76 722.063 1049.69 714.617 1036.03 698.378 C 1032.64 694.35 1030.98 688.657 1026.86 685.367 L 1025.28 685.728 L 1023.27 689.561 C 1021.46 692.274 1019.63 695.016 1017.59 697.566 A 65.4568 65.4568 0 0 1 973.186 721.694 C 953.651 723.796 928.757 718.876 913.42 705.94 C 909.636 702.75 905.906 698.123 905.762 692.925 C 905.689 690.285 906.226 689.305 907.985 687.445 C 916.459 685.473 927.975 695.819 935.359 699.517 A 77.2916 77.2916 0 0 0 952.581 705.791 C 966.22 708.87 980.064 706.797 991.843 699.129 C 1012.06 685.968 1017.26 664.519 1021.74 642.538 z"/>
<path transform="translate(0,0)" fill="rgb(0,0,0)" d="M 809.009 198.188 C 812.769 197.764 816.61 197.464 820.32 198.432 C 840.197 203.618 872.848 244.027 882.981 260.819 C 888.266 269.577 900.44 289.694 896.65 300.293 C 889.887 319.204 854.127 302.285 836.299 312.619 C 835.981 312.804 835.668 312.995 835.352 313.183 C 823.861 323.506 819.781 338.222 810.873 350.256 C 810.014 351.416 809.085 351.145 807.716 351.353 C 802.741 349.641 800.376 346.177 797.817 341.726 C 783.496 316.816 779.432 253.979 787.07 226.471 C 790.617 213.696 797.509 204.667 809.009 198.188 z"/>
<path transform="translate(0,0)" fill="rgb(254,254,254)" d="M 583.882 382.363 C 593.244 381.103 602.796 382.264 611.889 384.593 C 614.249 398.725 616.175 434.626 626.074 444.203 C 627.32 445.408 628.602 446.568 630.37 446.6 L 631.647 445.03 C 634.058 432.485 625.145 403.089 622.833 389.15 C 631.48 392.961 639.839 396.862 647.415 402.587 C 703.636 445.078 684.693 551.883 684.829 613.558 C 684.9 645.584 688.256 677.477 692.647 709.17 C 698.222 749.404 706.398 791.052 717.545 830.098 C 722.33 846.857 728.736 863.473 734.036 880.144 C 736.977 889.396 744.315 917.85 752.096 922.867 C 753.307 923.647 753.876 923.188 755.17 922.924 C 759.657 917.43 762.349 910.389 765.541 904.074 C 770.814 893.641 776.51 883.209 781.154 872.489 C 786.713 859.658 791.369 846.735 798.25 834.508 C 803.201 837.382 807.929 840.664 812.705 843.818 C 801.926 858.389 793.136 875.419 785.648 891.915 C 778.916 906.743 753.13 969.903 760.093 982.102 C 761.401 984.394 762.037 984.426 764.41 984.921 C 767.822 982.785 777.564 950.031 779.753 943.822 A 780.842 780.842 0 0 1 820.704 848.805 C 826.938 851.105 832.688 853.69 838.55 856.82 C 817.967 888.172 794.123 944.64 790.946 982.013 C 790.585 986.265 790.307 992.408 793.159 995.887 L 795.053 995.246 C 799.704 989.824 801.705 981.574 803.873 974.904 C 812.315 948.93 820.43 922.409 830.822 897.142 C 835.983 884.593 842.808 872.947 848.153 860.512 C 854.801 862.396 861.26 864.87 867.749 867.232 C 845.527 903.538 830.926 946.914 822.623 988.535 C 821.586 993.733 817.541 1008.53 821.166 1012.83 C 822.84 1014.81 823.616 1014.82 826.005 1014.99 C 831.921 1010.93 839.172 975.25 841.638 965.983 C 850.097 934.192 862.23 900.647 877.241 871.326 A 504.736 504.736 0 0 0 984.242 890.247 C 975.826 896.161 967.881 902.192 961.226 910.108 C 947.649 926.259 939.9 947.676 942.007 968.808 C 943.972 988.521 955.277 1008.2 970.539 1020.68 C 990.846 1037.29 1019.42 1045.36 1045.45 1042.57 C 1072.11 1039.72 1094.19 1025.86 1110.87 1005.19 C 1124.55 988.228 1131.58 966.996 1129.15 945.163 C 1126.36 920.096 1110.7 902.84 1091.89 887.761 C 1114.82 885.53 1135.61 879.168 1157.51 872.546 A 767.86 767.86 0 0 1 1172.62 919.232 C 1176.43 932.534 1193.69 1006.82 1198.1 1011.95 C 1199.82 1013.95 1201.16 1014.69 1203.72 1014.67 C 1204.77 1013.75 1205.12 1012.58 1205.49 1011.24 C 1210.39 993.41 1191.12 926.767 1183.99 906.391 A 288.515 288.515 0 0 0 1167.69 868.148 C 1174.19 865.151 1180.83 862.418 1187.42 859.601 C 1195.09 878.256 1220.15 978.784 1227.45 984.958 C 1228.62 985.943 1228.44 985.613 1230.09 985.473 C 1230.82 984.837 1231.42 984.384 1231.95 983.526 C 1240.1 970.43 1206.32 874.922 1200.03 854.963 L 1209.87 848.428 L 1232.61 917.618 C 1235.52 926.543 1237.44 936.133 1241.01 944.776 C 1242.47 948.313 1244.08 951.224 1247.18 953.514 L 1250.36 951.102 C 1253.39 930.015 1231.14 861.811 1219.97 842.137 C 1237.67 829.468 1256.39 813.45 1267.82 794.837 C 1303.59 830.912 1322.21 876.366 1335.27 924.651 C 1353.1 990.569 1358.56 1053.74 1359.05 1121.88 C 1359.51 1184.32 1355.28 1244.44 1342.73 1305.7 C 1340.59 1316.15 1338.72 1340.71 1333.87 1349.13 C 1327.08 1349.61 1320.14 1350.25 1313.47 1351.62 C 1307.75 1352.8 1301.45 1354.46 1296.39 1357.43 C 1276.58 1369.04 1254.2 1398.64 1241.81 1418 C 1234.8 1428.96 1221.38 1478.94 1221.39 1491.41 C 1221.4 1496.33 1223.46 1501.53 1224.21 1506.4 C 1225.2 1512.79 1225.13 1519.14 1226.58 1525.49 C 1235.86 1531.24 1232.84 1535.93 1235.16 1542.39 C 1241.58 1560.26 1256.37 1574.34 1273.54 1581.48 C 1269.79 1602.79 1266.45 1624.02 1265.13 1645.64 C 1263.32 1675.27 1272.57 1711.74 1254.29 1737.67 C 1244.87 1751.03 1232.5 1753.82 1217.44 1756.74 C 1220.74 1749.88 1223.68 1743.05 1224.78 1735.47 C 1226.04 1726.78 1225.14 1709.46 1218.71 1702.46 C 1216.43 1699.98 1214.46 1698.75 1211.12 1698.59 C 1208.37 1701.89 1209.97 1730.01 1208.07 1739.52 C 1206.58 1746.98 1204.46 1756.77 1197.54 1761.05 A 13.5266 13.5266 0 0 1 1186.63 1762.52 C 1160.41 1754.96 1171.32 1712.38 1165.34 1702.46 C 1163.68 1702.33 1163.82 1701.96 1162.8 1702.78 C 1156.42 1707.87 1155.2 1719.06 1154.68 1726.69 C 1153.51 1743.92 1160.35 1755.21 1171.3 1767.64 A 141.482 141.482 0 0 1 1169.24 1767.51 C 1153.99 1766.44 1134.84 1763.73 1124.54 1751.16 C 1115.71 1740.4 1117 1725.24 1117.9 1712.28 C 1118.19 1708.15 1118.42 1705.43 1115.49 1702.09 C 1112.96 1700.93 1113.05 1700.65 1110.46 1701.57 C 1109.35 1702.91 1108.6 1704.04 1108.02 1705.71 C 1101.67 1724.18 1105.4 1741.19 1113.27 1758.29 C 1105.63 1756.39 1098.49 1753.74 1091.33 1750.49 C 1087.68 1748.45 1084.39 1746.17 1081.49 1743.13 C 1069.83 1730.96 1066.39 1712.73 1067.07 1696.47 C 1068.5 1662.04 1084.45 1616.82 1091.02 1581.61 C 1093.32 1569.29 1094.87 1556.85 1097.03 1544.51 C 1104.76 1500.32 1112.75 1456.02 1117.61 1411.4 C 1122.01 1371.12 1124.1 1324.37 1124.05 1283.95 C 1124.03 1265.47 1123.51 1164.09 1114.7 1155.3 C 1112.61 1156.29 1113.21 1155.63 1112.08 1157.51 C 1110.75 1159.72 1110.34 1161.97 1110.21 1164.52 C 1109.14 1185.11 1110.34 1205.97 1110.6 1226.58 C 1110.94 1253.3 1110.58 1280.7 1109.75 1307.43 C 1107.84 1368.99 1101.08 1429.69 1091.96 1490.56 C 1087.4 1520.96 1082.17 1551.71 1075.69 1581.76 C 1067.43 1619.99 1043.26 1685.52 1052.48 1722.97 C 1011.64 1722.22 971.306 1729.03 930.523 1730.74 C 931.664 1711.74 928.856 1701.66 922.789 1684.05 C 943.126 1658.99 955.315 1625.97 966.948 1596.2 C 994.759 1525.01 996.784 1449.03 982.69 1374.76 C 976.859 1344.04 968.933 1314.46 956.277 1285.79 C 934.82 1237.18 894.102 1185.21 842.647 1166.61 C 828.874 1161.63 796.666 1155.07 783.329 1162.7 C 780.608 1164.26 780.358 1165.57 779.56 1168.47 C 780.616 1171.15 781.058 1172.19 784.085 1173.05 C 789.918 1174.7 797.12 1174 803.184 1174.34 C 822.854 1175.42 838.595 1181.1 855.519 1190.88 C 912.195 1223.63 940.774 1287.24 956.868 1347.83 C 974.394 1413.8 979.064 1484.97 961.932 1551.57 C 958.262 1565.84 953.012 1579.72 947.889 1593.51 C 938.818 1617.94 928.452 1641.19 915.357 1663.73 C 890.211 1642.96 869.772 1629.24 836.355 1627.02 C 785.429 1623.64 748.695 1643.14 711.478 1675.89 C 693.881 1653.6 675.23 1617.38 666.75 1590.28 C 675.234 1587.22 683.085 1584.29 690.602 1579.2 C 705.116 1569.35 726.547 1544.41 734.518 1529.14 C 740.048 1518.54 743.547 1506.09 747.853 1494.91 C 751.701 1484.92 756.656 1474.43 758.627 1463.9 C 762.606 1442.62 758.73 1422.63 758.519 1401.37 C 758.407 1390.16 759.845 1378.99 759.469 1367.77 C 758.316 1333.46 747.473 1281.5 728.639 1252.31 C 721.974 1241.98 712.377 1234.44 705.533 1224.5 C 692.801 1206.02 670.978 1202.45 650.493 1198.28 C 656.909 1178.7 663.944 1159.02 671.666 1139.92 C 683.53 1141.72 695.336 1143.03 707.347 1142.1 C 717.387 1141.33 737.992 1139.57 744.865 1131.52 C 745.485 1128.99 745.59 1128.83 744.618 1126.44 C 742.91 1125.35 741.686 1124.98 739.7 1124.97 C 733.169 1124.93 726.371 1126.28 719.858 1126.91 C 706.043 1128.25 691.147 1127.84 677.565 1124.83 C 636.175 1115.64 598.99 1079.55 577.032 1044.81 C 515.314 947.15 503.486 825.448 494.712 712.942 L 486.879 612.283 C 485.182 588.34 483.921 564.476 482.828 540.501 C 481.521 511.821 478.367 482.893 484.992 454.532 C 489.699 434.375 499.728 419.003 517.338 408.054 A 242.918 242.918 0 0 0 518.192 430.632 C 518.906 438.385 519.977 449.995 526.288 455.238 L 528.702 454.175 C 533.56 444.472 528.214 426.256 527.84 415.488 C 527.642 409.82 528.269 404.386 529.074 398.786 C 540.167 393.5 550.748 388.269 562.722 385.308 C 566.408 407.657 567.059 426.099 572.779 448.999 L 571.597 449.785 C 558.856 458.394 552.283 471.194 549.502 486.057 C 545.961 504.988 549.838 528.653 561.036 544.568 C 566.99 553.029 575.616 558.424 585.802 560.187 C 595.97 561.948 606.437 559.862 614.861 553.809 C 625.873 545.896 630.949 533.995 632.955 520.977 C 636.056 500.86 632.534 478.652 619.875 462.223 C 610.257 449.74 598.774 445.411 583.671 443.675 C 578.723 423.691 575.186 404.083 572.716 383.647 L 583.882 382.363 z"/>
</svg>