<svg version="1.1" xmlns="http://www.w3.org/2000/svg" style="display: block;" viewBox="0 0 2048 2048" width="1024" height="1024">
<path transform="translate(0,0)" fill="rgb(254,254,254)" d="M 0 0 L 2048 0 L 2048 2048 L 0 2048 L 0 0 z"/>
<path transform="translate(0,0)" fill="rgb(128,174,123)" d="M 296.98 1435.13 C 279.08 1398.65 266.457 1357.23 269.295 1316.28 C 271.813 1279.94 286.196 1247.5 314.028 1223.42 A 119.432 119.432 0 0 1 400.448 1195.41 C 461.862 1200.49 492.858 1237.91 529.674 1281.64 C 529.198 1273.26 528.641 1264.94 529.153 1256.55 C 530.864 1274.35 530.796 1292.01 533.092 1309.84 C 541.727 1376.88 560.853 1439.73 590.093 1500.6 C 595.84 1512.57 601.396 1525.35 608.235 1536.71 C 588.724 1571.75 577.329 1616.74 588.553 1656.33 C 591.591 1667.05 596.261 1676.71 601.732 1686.37 L 378.448 1686.15 C 338.452 1686.17 287.79 1683.28 249.275 1689.64 C 245.962 1686.63 240.445 1684.65 236.428 1682.57 C 223.671 1675.99 212.559 1669.4 202.593 1658.87 A 146.847 146.847 0 0 1 162.97 1551.44 C 164.27 1516.88 177.821 1487.4 203.482 1464.03 C 231.411 1438.6 260.393 1433.49 296.98 1435.13 z"/>
<path transform="translate(0,0)" fill="rgb(254,254,254)" d="M 281.337 1565.46 C 289.133 1566.67 421.514 1609.92 425.527 1613.25 C 426.812 1616.21 425.743 1618.6 424.902 1621.53 C 415.229 1620.14 285.642 1576.36 280.363 1572.92 C 279.565 1569.81 280.391 1568.47 281.337 1565.46 z"/>
<path transform="translate(0,0)" fill="rgb(254,254,254)" d="M 342.763 1428.34 C 343.959 1428.52 344.872 1428.6 346.035 1429.09 C 350.338 1430.89 461.968 1540.52 464.079 1544.54 C 463.995 1547.33 462.296 1549.22 460.774 1551.43 C 453.416 1547.76 348.55 1445.61 340.939 1435.11 C 340.458 1432.01 341.383 1431.09 342.763 1428.34 z"/>
<path transform="translate(0,0)" fill="rgb(254,254,254)" d="M 425.024 1328.25 C 425.373 1328.35 425.733 1328.42 426.07 1328.55 C 427.888 1329.26 428.835 1330.41 429.846 1332 C 442.446 1351.75 456.489 1386.12 466.902 1408.34 C 478.728 1433.57 492.186 1458.53 502.956 1484.19 C 504.553 1488 503.828 1489 502.388 1492.47 C 500.775 1492.31 499.243 1492.02 497.653 1491.71 C 491.281 1484.97 424.656 1342.83 423.065 1335.07 C 422.453 1332.09 423.686 1330.73 425.024 1328.25 z"/>
<path transform="translate(0,0)" fill="rgb(247,206,240)" d="M 1139.84 1693.46 C 1193.56 1694.32 1247.37 1693.88 1301.1 1693.9 L 1616.53 1693.78 L 1724.26 1693.79 C 1749.98 1693.78 1777.3 1691.84 1802.59 1697.07 C 1834.71 1703.73 1863.74 1721.54 1886.4 1744.93 C 1893.22 1751.97 1902.61 1761.7 1906.49 1770.75 C 1905.68 1772.62 1905.28 1773.48 1905.57 1775.58 C 1906.22 1780.4 1908.64 1785.73 1910.16 1790.37 C 1913.88 1801.65 1917.95 1813.27 1919.71 1825.04 C 1922.88 1846.22 1920.29 1868.32 1919.92 1889.65 A 4286.48 4286.48 0 0 0 1919.82 1986.57 C 1882.01 1985.93 1844.19 1986.78 1806.39 1986.75 L 1593.54 1986.49 L 1106.87 1986.03 C 1127.99 1962.14 1146.89 1935.22 1165.54 1909.36 C 1187.26 1879.25 1207.34 1851.85 1226.55 1819.81 C 1216.51 1803.65 1205 1788.55 1194.6 1772.64 C 1177.2 1746.04 1160.3 1717.82 1139.84 1693.46 z"/>
<path transform="translate(0,0)" fill="rgb(254,254,254)" d="M 1715.54 1720.36 C 1718.36 1721.44 1719.98 1722.34 1721.35 1725.07 C 1720.42 1732.45 1667.99 1813.06 1658.23 1824.95 L 1782.92 1825.69 C 1801.25 1825.78 1820.37 1824.53 1838.61 1825.58 C 1841.28 1825.74 1844.41 1825.91 1846.75 1827.36 C 1848.29 1828.31 1847.96 1828.55 1848.35 1830.17 C 1848.15 1830.42 1847.98 1830.71 1847.74 1830.94 C 1845.14 1833.36 1839.83 1833.6 1836.48 1833.83 C 1818.05 1835.09 1798.68 1833.69 1780.15 1833.73 A 11782.2 11782.2 0 0 1 1655.28 1833.69 C 1661.32 1845.41 1669.53 1856.39 1676.7 1867.45 C 1687.3 1883.8 1697.42 1900.43 1707.81 1916.91 C 1711.65 1922.99 1718.1 1930.13 1720.11 1936.94 C 1719.72 1939.46 1720.04 1940.55 1718.09 1942.36 C 1715.28 1941.77 1713.77 1940.26 1711.99 1938.13 C 1704.42 1929.08 1698.46 1918.28 1692.29 1908.25 C 1678.48 1885.81 1665.29 1862.28 1649.42 1841.22 L 1615.25 1895.1 C 1610.01 1903.36 1605.11 1912.17 1599.46 1920.13 C 1596.36 1924.5 1592.93 1928.46 1587.43 1929.36 L 1586.01 1928.19 C 1585.91 1925.94 1586.41 1924.19 1587.52 1922.24 C 1594.69 1909.66 1603.9 1897.55 1611.93 1885.47 A 895.481 895.481 0 0 0 1643.65 1833.99 L 1415.21 1833.63 C 1428.85 1856.75 1443.21 1879.55 1457.39 1902.35 C 1463.23 1911.75 1474.24 1924.77 1477.07 1934.92 C 1477.8 1937.55 1477.59 1938.51 1476.26 1940.82 L 1473.69 1941.49 C 1466.39 1938.07 1417.28 1854.15 1408.4 1840.32 C 1401.65 1849.49 1395.93 1859.7 1389.66 1869.24 C 1376.47 1889.32 1363.21 1909.31 1350.34 1929.59 C 1348.85 1932.2 1347.4 1935.01 1345.64 1937.44 C 1343.95 1939.77 1342.24 1940.49 1339.45 1941.06 C 1338.09 1940.39 1337.49 1940.53 1337.01 1938.93 C 1336.01 1935.62 1337.54 1931.71 1339.17 1928.82 C 1344.72 1919.01 1352.95 1909.33 1359.35 1899.91 A 1692.33 1692.33 0 0 0 1402.39 1833.79 C 1387.8 1832.83 1372.79 1833.66 1358.17 1833.76 L 1279.92 1834.05 C 1268.03 1834.05 1254.24 1835.53 1242.59 1833.96 C 1240.64 1833.7 1239.05 1833.06 1237.43 1831.94 C 1235.68 1830.72 1236.12 1831.41 1235.76 1829.57 C 1238.69 1826.69 1243.85 1826.4 1247.74 1826.07 C 1266.52 1824.52 1286.49 1825.8 1305.39 1825.79 C 1336.33 1825.78 1367.25 1825.2 1398.19 1825.37 C 1386.08 1805.33 1372.92 1785.56 1360.17 1765.9 C 1353.63 1755.82 1345.65 1745.31 1340.64 1734.41 C 1339.22 1731.33 1337.49 1727.19 1338.43 1723.74 C 1338.72 1722.66 1339.79 1722.43 1340.67 1721.95 L 1340.54 1724.7 L 1341.03 1724.78 L 1342.08 1722.18 C 1344.19 1723.34 1345.2 1724.7 1346.54 1726.69 C 1355 1739.26 1362.21 1753.16 1370.21 1766.07 C 1382.53 1785.97 1395.69 1805.35 1407.85 1825.34 C 1424.51 1803.61 1438.61 1778.63 1453.45 1755.56 C 1458.87 1747.14 1465.31 1733.84 1472.93 1727.6 C 1475.33 1727.82 1476.51 1727.88 1478.35 1729.5 C 1479 1736.18 1426.98 1812.8 1419.2 1824.93 C 1444.72 1825.6 1470.37 1825.14 1495.9 1825.17 L 1640.77 1825.08 C 1627.28 1807.42 1616.15 1786.63 1604.5 1767.68 C 1597.42 1756.15 1588.5 1744.08 1582.7 1731.94 C 1581.82 1730.09 1581.59 1728.54 1582.89 1726.77 C 1584.36 1724.76 1585.38 1724.49 1587.61 1724.52 C 1593.6 1730.85 1597.37 1739.53 1602.03 1746.88 C 1618.26 1772.46 1634.4 1798.13 1648.9 1824.73 C 1659.19 1807.47 1670.93 1791.03 1681.86 1774.17 C 1693.37 1756.42 1704.2 1738.23 1715.54 1720.36 z"/>
<path transform="translate(0,0)" fill="rgb(191,232,251)" d="M 1437.15 845.142 C 1437.77 844.9 1438.4 844.668 1439.02 844.415 C 1446.48 841.362 1452.76 834.436 1460.27 830.807 C 1501.66 810.795 1549.04 800.919 1593.24 818.116 C 1631.75 833.098 1661.1 863.932 1677.29 901.703 C 1694.76 942.466 1690.17 988.265 1673.74 1028.51 C 1661.19 1059.25 1637.81 1105.03 1615.06 1128.9 C 1647.66 1106.62 1686.89 1094.53 1726.36 1101.88 C 1763.41 1108.77 1795.11 1129.25 1816.18 1160.38 C 1839.12 1194.28 1847.95 1232.54 1839.9 1272.92 C 1830.13 1321.96 1804.17 1361.42 1778.33 1403.11 C 1813.95 1402.42 1851.07 1414.22 1877.13 1439.36 C 1901.56 1462.91 1916.78 1498.18 1917.17 1531.98 C 1917.65 1572.94 1900.19 1611.69 1871.6 1640.63 C 1859.99 1652.37 1845.87 1661.94 1831.1 1669.25 C 1824.56 1672.48 1788.77 1683.89 1787.45 1684.85 C 1786.79 1685.32 1785.45 1687 1784.98 1687.68 C 1750.69 1686.45 1716.2 1687.37 1681.87 1687.35 L 1495.54 1686.99 C 1501.53 1677.71 1505.77 1668.15 1508.44 1657.4 C 1520.45 1609.25 1503.84 1564.04 1479.25 1523.22 C 1485.58 1509.17 1494.85 1496.14 1501.77 1482.23 C 1525.16 1435.21 1541.71 1386.62 1549.5 1334.6 C 1550.76 1326.23 1554.86 1311.61 1552.65 1303.68 C 1552.08 1301.64 1550.9 1301.66 1549.14 1300.71 L 1550.23 1300.52 C 1550.36 1300.24 1550.52 1299.98 1550.62 1299.69 C 1553.68 1291.09 1554.22 1198.95 1551.32 1191.21 C 1552.36 1190.43 1553.16 1189.45 1554.04 1188.49 C 1556.94 1176.26 1552.31 1154.21 1550.33 1141.34 C 1543.78 1098.64 1533.1 1055.61 1517.76 1015.2 C 1506.68 986.02 1492.38 957.914 1478.58 929.958 L 1437.15 845.142 z"/>
<path transform="translate(0,0)" fill="rgb(254,254,254)" d="M 739.121 331.379 L 771.309 207.862 C 776.397 188.548 785.474 144.022 795.092 129.061 C 803.819 115.485 819.444 106.656 835 103.444 C 873.95 95.3986 894.843 115.243 918.882 142.233 L 949.175 176.372 C 956.569 184.67 964.282 194.098 973.769 200.053 C 988.084 209.039 1018.34 205.843 1035.2 205.987 C 1055.82 206.162 1095.35 209.35 1114.2 203.441 C 1126.75 199.508 1135.02 188.883 1143.56 179.542 C 1158.95 162.695 1190.31 124.874 1207.8 112.8 A 66.5073 66.5073 0 0 1 1232.37 102.488 C 1250.33 98.8485 1268.93 103.147 1284.04 113.357 C 1292.53 119.093 1299.4 126.538 1303.57 135.979 C 1314.73 161.194 1322.9 197.71 1330.64 225.174 C 1344.36 273.804 1358.53 322.531 1371.36 371.386 C 1374.49 383.335 1376.86 395.465 1379.91 407.431 C 1386.41 432.916 1396.23 454.919 1401.13 481.568 C 1412.53 543.552 1400.59 613.08 1364.72 665.424 C 1365.79 679.185 1368.09 693.319 1372.42 706.451 C 1378.32 724.341 1387.92 741.277 1395.94 758.306 C 1400.96 768.971 1405.25 779.96 1410.21 790.652 C 1418.73 809.016 1428.06 827.053 1437.15 845.142 L 1478.58 929.958 C 1492.38 957.914 1506.68 986.02 1517.76 1015.2 C 1533.1 1055.61 1543.78 1098.64 1550.33 1141.34 C 1552.31 1154.21 1556.94 1176.26 1554.04 1188.49 C 1553.16 1189.45 1552.36 1190.43 1551.32 1191.21 C 1554.22 1198.95 1553.68 1291.09 1550.62 1299.69 C 1550.52 1299.98 1550.36 1300.24 1550.23 1300.52 L 1549.14 1300.71 C 1550.9 1301.66 1552.08 1301.64 1552.65 1303.68 C 1554.86 1311.61 1550.76 1326.23 1549.5 1334.6 C 1541.71 1386.62 1525.16 1435.21 1501.77 1482.23 C 1494.85 1496.14 1485.58 1509.17 1479.25 1523.22 C 1503.84 1564.04 1520.45 1609.25 1508.44 1657.4 C 1505.77 1668.15 1501.53 1677.71 1495.54 1686.99 L 1681.87 1687.35 C 1716.2 1687.37 1750.69 1686.45 1784.98 1687.68 C 1834.99 1695.32 1875.49 1716.34 1905.91 1757.74 C 1923.23 1781.31 1933.08 1808.76 1937.21 1837.58 C 1938.11 1843.86 1939.42 1851.34 1938.43 1857.68 C 1938.09 1859.9 1937.99 1859.63 1936.6 1861.08 L 1934.25 1861.29 C 1930 1856.03 1930.53 1833.81 1928.64 1825.74 C 1924.15 1806.6 1917.75 1787.08 1906.49 1770.75 C 1902.61 1761.7 1893.22 1751.97 1886.4 1744.93 C 1863.74 1721.54 1834.71 1703.73 1802.59 1697.07 C 1777.3 1691.84 1749.98 1693.78 1724.26 1693.79 L 1616.53 1693.78 L 1301.1 1693.9 C 1247.37 1693.88 1193.56 1694.32 1139.84 1693.46 C 1075.44 1692.62 1010.99 1693.53 946.585 1693.45 L 539.757 1693.52 L 361.92 1693.59 C 329.335 1693.49 294.907 1691.14 262.566 1694.59 C 237.638 1697.25 213.055 1706.58 191.774 1719.74 C 158.186 1740.49 131.172 1777.92 120.944 1815.87 C 118.723 1824.11 116.749 1832.99 116.059 1841.5 C 115.579 1847.41 116.001 1853.84 114.639 1859.62 C 114.088 1861.96 113.613 1862.69 111.957 1864.29 L 110.205 1863.94 C 109.676 1863.27 109.398 1863.01 109.11 1862.09 C 107.897 1858.21 108.717 1852.8 108.961 1848.8 A 170.695 170.695 0 0 1 133.833 1770.17 C 160.608 1727.24 200.511 1701 249.275 1689.64 C 287.79 1683.28 338.452 1686.17 378.448 1686.15 L 601.732 1686.37 C 596.261 1676.71 591.591 1667.05 588.553 1656.33 C 577.329 1616.74 588.724 1571.75 608.235 1536.71 C 601.396 1525.35 595.84 1512.57 590.093 1500.6 C 560.853 1439.73 541.727 1376.88 533.092 1309.84 C 530.796 1292.01 530.864 1274.35 529.153 1256.55 C 529.239 1198.26 534.256 1142.9 555.912 1088.27 A 450.718 450.718 0 0 1 534.854 1067.34 C 501.904 1031.82 479.898 985.433 469.626 938.274 C 458.725 888.231 460.354 837.734 460.427 786.841 L 460.366 648.291 L 459.348 459.718 C 459.175 426.753 457.828 393.35 459.145 360.426 A 65.3238 65.3238 0 0 1 479.955 315.447 C 495.944 300.824 515.372 297.817 536.267 298.638 C 543.437 282.016 552.24 267.728 569.491 260.058 C 584.481 253.394 604.551 253.364 619.628 259.76 C 637.227 267.225 646.589 281.602 653.689 298.549 C 663.914 296.535 674.454 295.413 684.859 296.479 C 709.777 299.031 723.948 312.879 739.121 331.379 z"/>
<path transform="translate(0,0)" fill="rgb(251,148,14)" d="M 595.166 323.148 C 598.12 322.947 600.923 322.818 603.816 323.578 C 609.639 325.11 614.971 328.471 617.86 333.871 A 17.4555 17.4555 0 0 1 619.073 347.415 C 616.826 354.657 611.538 358.154 605.094 361.4 C 601.219 361.68 597.416 361.914 593.649 360.75 C 588.646 359.203 584.254 355.915 581.855 351.208 C 579.661 346.905 579.396 342.016 580.861 337.448 C 583.213 330.114 588.638 326.55 595.166 323.148 z"/>
<path transform="translate(0,0)" fill="rgb(251,148,14)" d="M 675.792 351.137 C 679.089 350.767 682.717 350.182 685.981 350.966 C 691.039 352.182 695.852 355.625 698.48 360.122 A 19.1483 19.1483 0 0 1 700.114 375.542 C 697.774 382.909 692.688 386.27 686.022 389.453 C 682.76 389.77 679.356 390.038 676.125 389.374 C 671.048 388.332 666.486 385.278 663.892 380.739 C 661.307 376.219 660.944 370.832 662.418 365.892 C 664.588 358.62 669.398 354.718 675.792 351.137 z"/>
<path transform="translate(0,0)" fill="rgb(251,148,14)" d="M 517.253 352.113 C 520.434 351.85 523.759 351.681 526.866 352.552 C 532.61 354.162 537.687 357.741 540.295 363.218 C 542.607 368.075 542.703 373.676 540.873 378.701 C 538.223 385.976 533.335 389.292 526.602 392.523 C 523.933 392.788 521.415 392.886 518.78 392.25 C 512.79 390.805 507.749 387.479 504.831 381.96 A 20.7536 20.7536 0 0 1 503.41 365.858 C 505.747 358.492 510.607 355.329 517.253 352.113 z"/>
<path transform="translate(0,0)" fill="rgb(95,166,243)" d="M 1361.59 1271.21 C 1368.28 1270.69 1374.22 1271.59 1380.23 1274.75 C 1390.43 1280.12 1396.79 1290.39 1399.85 1301.24 C 1405.88 1322.69 1402.68 1348.67 1391.71 1368.03 C 1385.04 1379.8 1376.95 1386.87 1363.96 1390.5 C 1357.18 1390.59 1350.64 1390.05 1344.45 1387.06 C 1333.79 1381.93 1327.31 1372.01 1323.85 1360.97 C 1317.54 1340.78 1321.03 1316.32 1330.78 1297.77 C 1337.81 1284.4 1347.02 1275.63 1361.59 1271.21 z"/>
<path transform="translate(0,0)" fill="rgb(95,166,243)" d="M 1351.02 806.211 C 1366.88 797.489 1383.47 789.305 1397.4 777.584 C 1427.08 840.712 1460.84 902.135 1488.88 966.013 C 1471.34 972.098 1454.66 974.191 1436.15 971.722 C 1407.38 967.887 1380.62 951.709 1363.14 928.622 C 1344.23 903.665 1337.54 867.5 1343.42 837.034 C 1345.28 827.397 1349.74 817.479 1350.85 807.875 C 1350.91 807.321 1350.96 806.766 1351.02 806.211 z"/>
<path transform="translate(0,0)" fill="rgb(95,166,243)" d="M 467.2 697.487 C 467.973 705.725 467.875 713.979 467.882 722.244 C 506.041 737.622 537.231 765.346 553.706 803.54 C 571.047 843.744 571.018 887.732 554.58 928.102 C 543.173 956.114 522.684 982.603 497.112 999.076 C 491.699 990.281 487.867 978.327 484.652 968.599 C 465.278 909.981 466.822 851.542 466.916 790.656 L 467.2 697.487 z"/>
<path transform="translate(0,0)" fill="rgb(247,206,240)" d="M 598.58 443.26 C 618.489 441.675 639.433 447.325 655.508 459.227 C 673.3 472.4 685.447 493.683 688.655 515.527 C 692.026 538.481 686.511 560.829 672.409 579.304 C 658.387 597.673 638.859 608.897 616.144 612.104 C 595.468 613.478 576.041 610.967 558.676 598.917 C 540.386 586.226 526.218 565.606 522.487 543.533 C 518.709 521.186 524.361 496.219 537.741 477.885 C 552.453 457.725 574.445 447.195 598.58 443.26 z"/>
<path transform="translate(0,0)" fill="rgb(95,166,243)" d="M 535.041 1234.87 C 571.221 1235.07 606.684 1245.7 632.488 1272.03 C 660.025 1300.12 673.798 1340.36 673.093 1379.36 C 672.491 1412.65 661.234 1444.05 646.328 1473.46 C 641.061 1483.86 620.132 1507.11 620.179 1516.91 C 617.914 1521.21 614.265 1525.54 611.448 1529.54 C 561.902 1431.77 534.802 1345.43 535.041 1234.87 z"/>
<path transform="translate(0,0)" fill="rgb(0,0,0)" d="M 739.121 331.379 L 771.309 207.862 C 776.397 188.548 785.474 144.022 795.092 129.061 C 803.819 115.485 819.444 106.656 835 103.444 C 873.95 95.3986 894.843 115.243 918.882 142.233 L 949.175 176.372 C 956.569 184.67 964.282 194.098 973.769 200.053 C 988.084 209.039 1018.34 205.843 1035.2 205.987 C 1055.82 206.162 1095.35 209.35 1114.2 203.441 C 1126.75 199.508 1135.02 188.883 1143.56 179.542 C 1158.95 162.695 1190.31 124.874 1207.8 112.8 A 66.5073 66.5073 0 0 1 1232.37 102.488 C 1250.33 98.8485 1268.93 103.147 1284.04 113.357 C 1292.53 119.093 1299.4 126.538 1303.57 135.979 C 1314.73 161.194 1322.9 197.71 1330.64 225.174 C 1344.36 273.804 1358.53 322.531 1371.36 371.386 C 1374.49 383.335 1376.86 395.465 1379.91 407.431 C 1386.41 432.916 1396.23 454.919 1401.13 481.568 C 1412.53 543.552 1400.59 613.08 1364.72 665.424 C 1365.79 679.185 1368.09 693.319 1372.42 706.451 C 1378.32 724.341 1387.92 741.277 1395.94 758.306 C 1400.96 768.971 1405.25 779.96 1410.21 790.652 C 1418.73 809.016 1428.06 827.053 1437.15 845.142 L 1478.58 929.958 C 1492.38 957.914 1506.68 986.02 1517.76 1015.2 C 1533.1 1055.61 1543.78 1098.64 1550.33 1141.34 C 1552.31 1154.21 1556.94 1176.26 1554.04 1188.49 C 1553.16 1189.45 1552.36 1190.43 1551.32 1191.21 C 1546.39 1181.38 1546.87 1160.42 1545.27 1148.83 C 1543.23 1134.05 1540.95 1119.18 1537.75 1104.61 C 1527.05 1055.88 1510.25 1010.97 1488.88 966.013 C 1460.84 902.135 1427.08 840.712 1397.4 777.584 C 1383.47 789.305 1366.88 797.489 1351.02 806.211 C 1258.63 850.484 1176.05 855.438 1075.34 854.723 C 1072.12 856.589 1068.77 858.283 1065.5 860.05 C 1084.88 864.797 1102.37 871.259 1118.09 883.905 C 1147.49 907.557 1165.79 948.571 1169.2 985.678 C 1169.47 988.584 1169.7 990.892 1167.79 993.21 C 1163.25 993.679 1158.92 992.049 1154.59 990.855 C 1151.89 1001.73 1148.9 1012.36 1143.95 1022.45 C 1131.42 1047.98 1109.37 1068.57 1082.23 1077.61 C 1054.74 1086.77 1023.56 1083.62 997.863 1070.51 C 964.538 1053.52 948.405 1024.58 937.44 990.238 C 932.828 991.45 928.976 993.084 924.579 990.744 C 924.059 989.523 923.781 988.467 923.808 987.127 C 923.958 979.828 926.281 971.824 927.934 964.735 C 936.7 927.128 956.557 891.016 991.387 871.97 C 996.269 869.3 1022.18 859.708 1022.7 859.228 C 1019.25 856.533 1016.73 855.509 1012.38 855.008 C 998.315 853.389 983.182 854.404 968.971 854.066 C 939.085 853.358 909.112 851.296 879.721 845.581 C 835.029 836.891 790.871 819.433 755.057 791.029 L 754.952 854.469 C 755.011 870.031 757.422 890.151 753.281 905.073 L 750.32 905.109 L 753.07 905.563 L 752.134 906.786 L 751.599 904.89 L 750.18 904.905 C 746.07 895.756 748.308 841.015 748.321 826.421 L 748.249 553.106 L 748.073 458.604 C 748.012 429.783 751.327 378.388 742.232 352.688 C 735.613 333.985 722.137 316.872 703.969 308.424 C 685.963 300.051 667.078 301.583 648.908 308.305 C 647.185 299.856 645.423 292.712 640.715 285.299 C 633.322 273.661 621.551 265.978 608.139 263.13 C 593.703 260.066 576.842 261.447 564.487 269.954 C 551.81 278.682 544.757 292.097 542.181 306.941 C 537.512 305.829 532.763 304.944 527.952 304.813 C 511.474 304.361 494.283 310.193 482.451 321.868 C 473.99 330.218 467.755 342.456 465.939 354.255 C 464.091 366.262 465.193 379.574 465.342 391.721 A 5571.83 5571.83 0 0 1 465.914 452.155 L 467.2 697.487 L 466.916 790.656 C 466.822 851.542 465.278 909.981 484.652 968.599 C 487.867 978.327 491.699 990.281 497.112 999.076 C 528.953 1063.39 576.497 1107.95 645.26 1130.9 C 693.62 1147.04 744.646 1143.55 794.845 1143.31 C 791.588 1133.09 776.405 1090.03 779.991 1082.01 L 781.918 1080.8 C 783.781 1081.57 783.562 1081.04 784.253 1082.62 C 786.614 1088.03 787.125 1095.6 788.681 1101.49 A 677.861 677.861 0 0 0 801.258 1143.09 C 820.334 1200.53 853 1250.76 901.106 1288.11 C 913.092 1297.42 926.14 1304.38 938.434 1313.06 C 939.272 1325.71 938.735 1338.34 939.014 1351 C 939.287 1363.4 940.24 1375.84 941.02 1388.22 C 942.408 1410.23 946.223 1434.21 947.043 1455.49 C 947.19 1459.28 947.511 1463.35 945.291 1466.55 C 943.252 1465.56 942.43 1464.14 941.608 1462.06 C 938.756 1454.83 939.468 1443.32 938.822 1435.5 C 935.541 1395.82 932.559 1356.42 931.879 1316.58 C 879.091 1282.79 843.235 1249.94 815.284 1192.9 C 808.392 1178.84 803.283 1163.96 796.425 1149.93 C 700.031 1149.95 643.644 1153.97 561.383 1092.38 C 543.051 1141.05 536.179 1183.25 535.041 1234.87 C 534.802 1345.43 561.902 1431.77 611.448 1529.54 C 614.265 1525.54 617.914 1521.21 620.179 1516.91 C 644.101 1486.78 672.012 1464.68 708.701 1452.2 C 759.317 1434.98 810.789 1438.64 858.527 1462.33 C 904.605 1485.19 938.566 1523.42 954.662 1572.45 C 967.389 1611.21 967.039 1650.19 948.523 1686.73 C 1011.03 1688.12 1073.97 1687.29 1136.49 1686.76 C 1130.68 1672.54 1125.92 1658.48 1124.44 1643.11 C 1120.01 1597.14 1134.12 1548.37 1163.49 1512.59 A 434.21 434.21 0 0 1 1140.61 1445.83 C 1114.72 1346.94 1115.64 1198.63 1168.99 1108.41 C 1193.67 1066.68 1238.47 1033.44 1285.59 1021.41 C 1304.13 1016.67 1365.08 1006.43 1381.58 1016.21 L 1381.75 1017.66 C 1376.8 1021.16 1343.76 1018.7 1334.72 1019.27 A 215.58 215.58 0 0 0 1245 1044.62 C 1195.53 1070.82 1167.33 1113.73 1151.07 1166.11 C 1122.7 1257.48 1122.77 1359.98 1148.58 1451.92 C 1153.53 1469.56 1158.92 1489.02 1167.57 1505.19 L 1168.26 1506.46 C 1176.73 1497.84 1185.23 1489.25 1194.65 1481.65 C 1236.72 1447.69 1289.83 1434.79 1343.14 1440.94 C 1396.02 1447.04 1441.75 1474.77 1474.54 1516.23 C 1505.48 1472.98 1526.35 1414.67 1538.16 1363.17 C 1541.14 1350.15 1544.57 1307.69 1549.14 1300.71 C 1550.9 1301.66 1552.08 1301.64 1552.65 1303.68 C 1554.86 1311.61 1550.76 1326.23 1549.5 1334.6 C 1541.71 1386.62 1525.16 1435.21 1501.77 1482.23 C 1494.85 1496.14 1485.58 1509.17 1479.25 1523.22 C 1503.84 1564.04 1520.45 1609.25 1508.44 1657.4 C 1505.77 1668.15 1501.53 1677.71 1495.54 1686.99 L 1681.87 1687.35 C 1716.2 1687.37 1750.69 1686.45 1784.98 1687.68 C 1834.99 1695.32 1875.49 1716.34 1905.91 1757.74 C 1923.23 1781.31 1933.08 1808.76 1937.21 1837.58 C 1938.11 1843.86 1939.42 1851.34 1938.43 1857.68 C 1938.09 1859.9 1937.99 1859.63 1936.6 1861.08 L 1934.25 1861.29 C 1930 1856.03 1930.53 1833.81 1928.64 1825.74 C 1924.15 1806.6 1917.75 1787.08 1906.49 1770.75 C 1902.61 1761.7 1893.22 1751.97 1886.4 1744.93 C 1863.74 1721.54 1834.71 1703.73 1802.59 1697.07 C 1777.3 1691.84 1749.98 1693.78 1724.26 1693.79 L 1616.53 1693.78 L 1301.1 1693.9 C 1247.37 1693.88 1193.56 1694.32 1139.84 1693.46 C 1075.44 1692.62 1010.99 1693.53 946.585 1693.45 L 539.757 1693.52 L 361.92 1693.59 C 329.335 1693.49 294.907 1691.14 262.566 1694.59 C 237.638 1697.25 213.055 1706.58 191.774 1719.74 C 158.186 1740.49 131.172 1777.92 120.944 1815.87 C 118.723 1824.11 116.749 1832.99 116.059 1841.5 C 115.579 1847.41 116.001 1853.84 114.639 1859.62 C 114.088 1861.96 113.613 1862.69 111.957 1864.29 L 110.205 1863.94 C 109.676 1863.27 109.398 1863.01 109.11 1862.09 C 107.897 1858.21 108.717 1852.8 108.961 1848.8 A 170.695 170.695 0 0 1 133.833 1770.17 C 160.608 1727.24 200.511 1701 249.275 1689.64 C 287.79 1683.28 338.452 1686.17 378.448 1686.15 L 601.732 1686.37 C 596.261 1676.71 591.591 1667.05 588.553 1656.33 C 577.329 1616.74 588.724 1571.75 608.235 1536.71 C 601.396 1525.35 595.84 1512.57 590.093 1500.6 C 560.853 1439.73 541.727 1376.88 533.092 1309.84 C 530.796 1292.01 530.864 1274.35 529.153 1256.55 C 529.239 1198.26 534.256 1142.9 555.912 1088.27 A 450.718 450.718 0 0 1 534.854 1067.34 C 501.904 1031.82 479.898 985.433 469.626 938.274 C 458.725 888.231 460.354 837.734 460.427 786.841 L 460.366 648.291 L 459.348 459.718 C 459.175 426.753 457.828 393.35 459.145 360.426 A 65.3238 65.3238 0 0 1 479.955 315.447 C 495.944 300.824 515.372 297.817 536.267 298.638 C 543.437 282.016 552.24 267.728 569.491 260.058 C 584.481 253.394 604.551 253.364 619.628 259.76 C 637.227 267.225 646.589 281.602 653.689 298.549 C 663.914 296.535 674.454 295.413 684.859 296.479 C 709.777 299.031 723.948 312.879 739.121 331.379 z"/>
<path transform="translate(0,0)" fill="rgb(254,138,86)" d="M 1040.54 777.165 C 1048.12 776.636 1054.31 776.834 1061.42 779.955 C 1072.09 784.645 1080.42 794.17 1084.33 805.085 A 38.4292 38.4292 0 0 1 1082.43 835.955 C 1076.28 847.888 1066.01 854.328 1053.54 858.119 C 1045.62 858.776 1038.16 858.247 1030.72 855.198 C 1020.62 851.056 1012.85 842.638 1008.86 832.538 A 38.752 38.752 0 0 1 1009.81 801.715 C 1016.05 788.376 1027.14 781.691 1040.54 777.165 z"/>
<path transform="translate(0,0)" fill="rgb(254,138,86)" d="M 1039.97 978.461 C 1075.72 977.382 1113.64 980.799 1148.41 989.3 A 108.309 108.309 0 0 1 1125.87 1039.98 C 1107.61 1062.48 1081.55 1073.89 1053.21 1076.81 C 1033.78 1077.03 1016.23 1073.64 999.024 1064.26 C 968.8 1047.77 953.505 1020.7 943.947 988.653 C 976.063 982.145 1007.22 979.437 1039.97 978.461 z"/>
<path transform="translate(0,0)" fill="rgb(254,138,86)" d="M 1037.99 865.414 C 1064.97 864.291 1091.41 870.902 1113.06 887.618 C 1144.35 911.766 1158.1 948.989 1162.95 986.931 C 1130.53 975.875 1093.92 973.797 1059.92 972.161 C 1015.46 971.75 973.874 976.577 930.284 984.805 C 936.572 953.402 945.071 924.771 966.486 900.124 C 985.48 878.263 1009.33 867.273 1037.99 865.414 z"/>
<path transform="translate(0,0)" fill="rgb(254,138,86)" d="M 755.054 686.661 C 762.399 693.545 768.547 702.05 776.02 709.056 C 812.17 742.946 862.126 763.486 911.155 768.563 C 931.528 770.673 952.146 770.075 972.606 770.277 C 994.503 770.492 1016.49 771.241 1038.38 770.605 C 1029.34 774.245 1021.24 778.157 1014.26 785.109 C 1003.34 795.969 999.988 808.566 999.748 823.444 C 1001.82 834.008 1005.24 840.499 1012.48 848.333 C 928.068 850.427 820.187 842.143 754.907 782.285 A 6266.53 6266.53 0 0 1 755.054 686.661 z"/>
<path transform="translate(0,0)" fill="rgb(254,138,86)" d="M 1358 674.841 C 1361.59 678.511 1363.6 700.648 1365.76 707.132 C 1372.98 728.846 1385.11 750.301 1394.95 770.982 C 1379.58 785.158 1356.94 796.869 1338.13 805.531 C 1256.14 843.291 1174.85 849.673 1085.75 848.326 L 1083.07 847.786 C 1083.36 845.095 1085.63 842.448 1087.08 840.173 C 1088.14 838.525 1089.24 836.909 1090 835.095 C 1094.34 824.766 1094.44 812.411 1090.43 801.996 C 1084.43 786.457 1072.31 777.976 1057.72 771.523 A 1918.23 1918.23 0 0 1 1138.98 770.209 C 1158.58 770.193 1178.42 770.749 1197.95 768.969 C 1243.99 764.771 1290.23 743.596 1324.16 712.296 C 1336.59 700.826 1347.23 687.832 1358 674.841 z"/>
<path transform="translate(0,0)" fill="rgb(254,254,254)" d="M 759.456 1448.39 C 802.197 1445.2 841.903 1456.89 877.535 1480.45 C 918.171 1507.31 944.77 1549.57 954.108 1597.09 C 960.386 1629.04 958.352 1659.29 940.033 1686.82 C 907.489 1687.55 874.819 1686.92 842.262 1686.86 C 842.236 1675.72 843.917 1599.59 840.528 1594.36 L 838.688 1594.22 L 837.052 1595.77 C 834.888 1605.59 836.174 1617.88 836.201 1627.99 L 836.395 1686.85 L 790.5 1686.79 A 3845.78 3845.78 0 0 1 713.146 1686.37 C 712.808 1665.17 712.984 1643.92 712.952 1622.71 C 712.94 1615 713.858 1606.53 713.161 1598.94 C 712.934 1596.47 712.657 1596.01 711.079 1594.21 L 708.403 1594.4 C 704.808 1599.72 706.831 1674.75 706.784 1686.75 L 610.296 1686.79 C 600.19 1671.13 593.2 1655.98 591.331 1637.23 C 586.922 1593.02 603.894 1546.1 632.017 1512.29 C 664.215 1473.58 709.937 1453.13 759.456 1448.39 z"/>
<path transform="translate(0,0)" fill="rgb(254,254,254)" d="M 1309.96 1445.42 C 1344.7 1443.09 1382.55 1452.67 1412.42 1470.31 C 1456.14 1496.13 1488.16 1536.48 1500.83 1585.91 C 1509.96 1621.58 1507.54 1655.1 1488.65 1687.01 L 1387.97 1687.36 A 2370.59 2370.59 0 0 1 1387.82 1638.44 C 1387.98 1626.81 1388.83 1614.84 1388.16 1603.24 C 1387.97 1600.09 1387.74 1597.96 1385.32 1595.88 L 1383.25 1596.48 C 1381.77 1598.55 1381.71 1600.53 1381.54 1602.99 C 1381.06 1610.39 1381.97 1618.1 1381.92 1625.55 L 1381.06 1687.23 L 1326.75 1687.17 L 1256.64 1687 C 1256.24 1672.12 1259.03 1604.7 1253.26 1597.27 L 1252.03 1598.07 C 1247.21 1610.03 1250 1670.36 1250.21 1687.05 L 1144.3 1686.98 C 1137.13 1671.7 1131.77 1656.98 1130.43 1640.01 A 172.997 172.997 0 0 1 1171.73 1513.01 C 1208.03 1470.91 1255.11 1449.52 1309.96 1445.42 z"/>
<path transform="translate(0,0)" fill="rgb(254,254,254)" d="M 1109.68 211.465 C 1113.75 210.377 1118.07 209.358 1121.8 207.355 C 1131.33 202.248 1138.97 193.536 1146.31 185.809 C 1162.75 168.524 1194.38 129.737 1211.73 117.858 A 63.0105 63.0105 0 0 1 1237.03 107.83 C 1253.01 105.337 1270.09 110.684 1282.79 120.579 C 1290.89 126.89 1296.04 134.322 1299.96 143.673 C 1305.42 156.681 1308.37 171.169 1312.42 184.697 C 1324.12 223.806 1334.45 263.129 1345.22 302.487 C 1352.12 327.715 1364.13 359.362 1367.46 384.456 C 1351.48 357.787 1333.46 333.548 1315.18 308.486 C 1298.27 291.792 1283.18 275.284 1263.91 261.002 A 321.753 321.753 0 0 0 1190.09 220.372 C 1185.31 218.492 1178.68 214.704 1173.49 215.89 C 1171.81 216.273 1171.46 218.103 1170.7 219.502 C 1233.35 243.695 1275.95 270.544 1318.32 322.925 C 1370.94 387.975 1406.82 470.683 1397.57 555.638 A 239.306 239.306 0 0 1 1307.69 718.609 C 1281.75 739.284 1250.13 753.278 1217.68 759.86 C 1193.18 764.827 1168.41 764.157 1143.57 764.134 L 1075.92 764.246 L 985.079 764.072 C 959.726 764.04 934.004 764.829 908.779 761.873 C 846.682 754.596 793.513 725.065 754.993 675.967 C 753.544 618.728 754.931 561.255 754.532 503.983 L 754.114 418.932 C 754.088 404.972 753.299 390.471 754.242 376.566 C 754.591 371.427 756.217 366.803 758.385 362.168 C 776.667 323.084 825.617 271.439 861.745 249.302 C 878.645 238.947 896.585 231.87 915.064 225.032 C 921.663 222.59 928.162 221.679 931.266 214.936 C 923.586 214.778 915.97 217.878 908.766 220.296 A 245.103 245.103 0 0 0 815.319 277.005 C 802.724 289.005 791.528 302.419 780.561 315.892 C 770.46 330.587 760.718 345.225 751.995 360.791 C 749.261 353.915 746.605 346.998 743.489 340.284 C 753.509 297.939 765.42 255.942 776.383 213.827 C 782.126 191.769 788.239 159.686 797.056 139.6 C 800.789 131.097 805.286 124.822 813 119.448 C 822.577 112.777 833.875 109.225 845.472 108.408 C 877.858 106.126 895.165 125.706 915.22 147.848 L 946.374 182.539 C 953.513 190.48 960.864 199.213 969.944 204.989 C 977.36 209.706 984.353 210.892 992.847 212.384 C 986.013 219.299 981.004 223.768 980.543 234.32 C 979.959 247.666 988.611 260.255 997.6 269.398 C 1010.89 282.92 1028.29 290.87 1047.37 290.845 C 1066.02 290.821 1082.6 283.62 1095.66 270.371 C 1108.97 256.878 1117.1 242.521 1117.03 223.192 L 1109.68 211.465 z"/>
<path transform="translate(0,0)" fill="rgb(0,0,0)" d="M 1270.99 483.193 L 1272.17 483.822 C 1273.25 486.292 1273.38 486.243 1272.6 488.798 C 1269.75 490.567 1168.45 520.322 1157.32 522.838 C 1156.25 522.003 1156.75 522.529 1155.85 520.885 C 1154.81 519.001 1154.98 519.961 1155.64 517.732 C 1165.63 511.951 1180.18 509.386 1191.44 506.066 A 6119.54 6119.54 0 0 1 1270.99 483.193 z"/>
<path transform="translate(0,0)" fill="rgb(0,0,0)" d="M 1153.34 354.35 C 1155.51 354.201 1157.67 354.225 1159.85 354.283 C 1169.85 354.553 1195.92 361.033 1201.72 369.39 C 1203.19 371.509 1202.98 372.026 1202.38 374.311 L 1200.44 375.226 C 1192.99 373.582 1187.7 367.054 1180.77 364.223 C 1163.99 357.366 1145.55 361.008 1129.61 367.93 C 1120.19 373.427 1110.66 383.183 1106.8 393.512 C 1105.81 396.143 1104.76 399.826 1102.82 401.902 C 1101.49 403.325 1101.23 403.373 1099.27 403.378 C 1098.43 401.994 1098.59 402.564 1098.41 400.73 C 1097.64 393.001 1104.33 382.767 1108.99 376.923 C 1120 363.12 1136.19 356.368 1153.34 354.35 z"/>
<path transform="translate(0,0)" fill="rgb(0,0,0)" d="M 1145.43 566.563 C 1156.53 571.116 1168.35 574.331 1179.76 578.059 C 1196.36 583.485 1212.89 589.273 1229.59 594.385 C 1240.18 597.626 1259.42 600.986 1268.28 606.667 C 1269.79 609.542 1269.33 610.469 1268.94 613.62 L 1188.73 587.651 C 1174.65 583.126 1157.76 579.547 1144.84 572.598 C 1143.81 569.902 1144.51 569.224 1145.43 566.563 z"/>
<path transform="translate(0,0)" fill="rgb(0,0,0)" d="M 815.282 479.879 C 830.739 481.738 861.656 493.715 878.518 498.885 C 899.609 505.353 922.473 510.076 942.73 518.51 C 944.552 520.975 944.138 521.399 943.916 524.512 C 934.825 523.845 828.456 490.791 816.726 485.892 C 814.823 483.508 815.231 482.843 815.282 479.879 z"/>
<path transform="translate(0,0)" fill="rgb(0,0,0)" d="M 945.038 566.141 C 946.202 566.759 946.503 567.458 947.218 568.533 L 946.679 570.314 C 936.685 578.86 837.941 608.973 818.752 614.807 C 818.457 614.525 818.082 614.308 817.865 613.962 C 816.686 612.083 816.702 611.163 817.448 609.202 C 832.779 601.663 853.338 597.709 869.821 592.221 C 894.9 583.871 919.723 573.559 945.038 566.141 z"/>
<path transform="translate(0,0)" fill="rgb(0,0,0)" d="M 927.33 353.338 C 944.022 352.291 962.006 358.01 975.008 368.509 C 984.285 376.001 994.046 389.418 995.379 401.551 L 992.453 402.76 C 986.999 398.98 983.728 388.544 979.853 382.985 C 977.215 379.201 973.772 376.169 970.355 373.108 C 950.585 358.333 924.283 355.549 902.357 367.54 C 895.758 371.149 893.792 376.258 885.466 375.921 L 884.977 374.453 C 885.666 373.402 885.895 372.985 886.631 372.069 C 896.388 359.943 912.533 355.075 927.33 353.338 z"/>
<path transform="translate(0,0)" fill="rgb(0,0,0)" d="M 1151.27 541.508 C 1181.01 540.955 1210.85 541.572 1240.59 541.667 C 1255.32 541.714 1271.13 540.117 1285.68 541.975 C 1289.29 542.435 1290.66 542.669 1293.4 545.123 C 1291.6 547.162 1290.3 546.984 1287.75 547.566 C 1271.6 547.88 1152.87 549.879 1147.62 546.645 C 1147.23 544.137 1147.58 544.214 1148.66 542.067 L 1151.27 541.508 z"/>
<path transform="translate(0,0)" fill="rgb(0,0,0)" d="M 809.482 541.459 A 6163.97 6163.97 0 0 1 895.751 541.626 C 909.783 541.712 924.821 540.67 938.714 542.155 C 941.421 542.444 942.826 542.557 944.75 544.439 C 944.262 545.297 944.103 545.715 943.285 546.424 C 940.292 549.02 935.501 548.39 931.783 548.325 L 842.874 547.794 C 833.563 547.79 805 549.616 797.843 547.328 C 795.714 546.647 795.412 546.468 794.584 544.486 C 798.001 541.089 804.896 541.593 809.482 541.459 z"/>
<path transform="translate(0,0)" fill="rgb(247,206,240)" d="M 1045.02 544.306 C 1036.62 539.656 1016.88 531.756 1014.7 521.571 C 1014.18 519.135 1014.33 517.021 1015.89 514.987 C 1020.81 508.604 1033.79 508.375 1041.23 508.118 C 1050.25 507.805 1068.57 508.749 1075.7 514.82 C 1077.08 515.995 1077.82 516.683 1077.91 518.504 C 1078.07 522.042 1076.11 524.664 1073.71 527.05 C 1066.59 534.153 1055.72 538.742 1046.82 543.203 C 1047.08 555.012 1047.77 566.79 1048.29 578.588 L 1045.96 578.831 C 1045.63 567.358 1046.48 555.697 1045.02 544.306 z"/>
<path transform="translate(0,0)" fill="rgb(0,0,0)" d="M 1045.96 578.831 L 1048.29 578.588 C 1056.17 590.167 1059.63 600.917 1070.49 610.89 C 1091.15 629.87 1116.88 630.669 1139.82 615.837 C 1143.43 613.501 1151.83 606.101 1155.54 605.963 L 1157.28 608.375 L 1156.63 610.867 C 1151.2 617.25 1143.41 621.449 1136.04 625.219 C 1121.41 632.695 1105.37 634.488 1089.63 629.219 C 1070.43 622.795 1056.39 607.825 1047.54 590.049 C 1040.29 601.715 1032.8 612.555 1021.55 620.725 A 63.8452 63.8452 0 0 1 973.66 632.105 C 961.12 630.03 937.836 619.321 930.736 608.583 C 929.453 606.643 929.619 606.24 930.085 604.115 L 932.314 602.906 C 938.785 605.351 945.191 613.372 951.146 617.341 C 963.903 625.844 981.545 628.442 996.528 625.446 C 1024.09 619.935 1032.14 599.906 1045.96 578.831 z"/>
<path transform="translate(0,0)" fill="rgb(0,0,0)" d="M 1163.17 422.024 C 1165.67 421.857 1168.4 421.859 1170.85 422.478 C 1176.76 423.972 1181.61 428.663 1184.43 433.917 C 1190.95 446.082 1190.67 471.068 1186.45 483.978 C 1183.61 492.67 1179.26 498.866 1171.02 502.958 C 1168 503.171 1164.78 503.338 1161.89 502.238 C 1155.69 499.872 1150.78 494.431 1148.26 488.388 C 1142.84 475.432 1142.82 449.467 1148.32 436.566 C 1151.59 428.89 1155.59 425.231 1163.17 422.024 z"/>
<path transform="translate(0,0)" fill="rgb(0,0,0)" d="M 924.002 420.136 C 926.618 420.036 929.476 420.144 932.039 420.712 C 937.484 421.919 942.23 426.018 945.226 430.585 C 952.778 442.097 953.609 466.71 950.245 479.896 C 947.673 489.974 942.698 495.793 933.862 500.92 C 930.321 501.399 927.244 501.643 923.846 500.291 C 917.281 497.677 912.693 491.933 910.007 485.567 C 904.514 472.551 904.491 447.303 909.903 434.18 C 912.943 426.808 916.783 423.309 924.002 420.136 z"/>
<path transform="translate(0,0)" fill="rgb(251,148,14)" d="M 848.747 136.477 C 855.851 138.45 861.831 140.451 867.84 144.85 C 878.069 152.338 923.489 202.908 931.266 214.936 C 923.586 214.778 915.97 217.878 908.766 220.296 A 245.103 245.103 0 0 0 815.319 277.005 C 802.724 289.005 791.528 302.419 780.561 315.892 C 784.549 291.654 793.299 267.276 799.569 243.448 L 814.839 184.368 C 817.612 173.611 819.626 160.331 824.749 150.529 C 829.477 141.483 839.716 138.955 848.747 136.477 z"/>
<path transform="translate(0,0)" fill="rgb(251,148,14)" d="M 1170.7 219.502 C 1170.23 219.269 1169.75 219.064 1169.3 218.803 C 1167.22 217.605 1166.64 216.611 1165.37 214.673 C 1165.05 211.102 1165.62 210.108 1167.9 207.356 C 1175.86 197.733 1185.17 189.146 1193.51 179.838 C 1203.88 168.272 1214.02 153.066 1226.16 143.566 C 1231.12 139.686 1236.86 136.847 1243.24 136.516 C 1250.89 136.119 1258.33 139.497 1263.81 144.699 C 1268.21 148.87 1271.26 154.021 1273.59 159.575 C 1278.86 172.14 1281.19 186.774 1285.06 199.899 C 1295.68 235.915 1307.17 271.765 1315.18 308.486 C 1298.27 291.792 1283.18 275.284 1263.91 261.002 A 321.753 321.753 0 0 0 1190.09 220.372 C 1185.31 218.492 1178.68 214.704 1173.49 215.89 C 1171.81 216.273 1171.46 218.103 1170.7 219.502 z"/>
</svg>