<svg version="1.1" xmlns="http://www.w3.org/2000/svg" style="display: block;" viewBox="0 0 2048 2048" width="1024" height="1024">
<path transform="translate(0,0)" fill="rgb(88,42,246)" d="M 0 0 L 2048 0 L 2048 2048 L 1832.49 2048 L 1664.56 2048 L 1473.42 2048 L 564.88 2048 L 378.133 2048 L 212.884 2048 L 0 2048 L 0 0 z"/>
<path transform="translate(0,0)" fill="rgb(120,35,63)" d="M 1432.23 899.576 C 1447.74 908.352 1463.72 916.15 1478.89 925.595 C 1489.65 932.294 1500.28 940.573 1510.32 948.326 C 1521.75 957.151 1534.42 968.21 1544.08 978.859 C 1546.62 981.666 1547.55 985.504 1550.07 988.212 C 1554.08 992.515 1559.12 995.982 1563.24 1000.31 C 1583.92 1022.02 1602.29 1045.47 1617.24 1071.45 C 1620.23 1076.64 1624.66 1082.47 1626.22 1088.26 C 1626.95 1090.95 1627.24 1093.81 1627.56 1096.57 L 1635.82 1102.91 C 1638.76 1111.57 1641.06 1122.44 1644.96 1130.56 C 1648.11 1137.14 1653.35 1142.53 1656.07 1149.38 C 1663.61 1168.42 1675.64 1221.42 1674.88 1241.83 C 1674.87 1242.27 1674.92 1242.71 1674.94 1243.15 C 1684.99 1248.78 1698.51 1243.52 1710.76 1248.21 C 1725.45 1241.51 1737.24 1249.6 1744.67 1245.59 C 1745.88 1244.93 1747.1 1244.3 1748.3 1243.63 C 1761.33 1244.36 1774 1243.51 1787 1243.53 C 1797.41 1243.54 1807.82 1244.33 1818.23 1244.27 C 1843.46 1244.11 1868.75 1243.43 1893.99 1244.07 C 1902.4 1244.28 1910.49 1247.45 1918.86 1247.51 C 1940.76 1247.66 1960.64 1242.94 1982.87 1246.22 C 1985.92 1246.67 1988.73 1246.27 1991.75 1245.82 C 1997.15 1249.01 2007.44 1253.94 2008.8 1260.74 C 2010.63 1269.95 1967.02 1366.4 1960.8 1383.03 C 1958.47 1389.28 1958.06 1396.15 1956.12 1402.53 C 1953.81 1410.11 1950.05 1417.41 1947.16 1424.79 C 1944.77 1430.88 1943.03 1437.22 1940.72 1443.34 C 1935.3 1457.65 1927.41 1470.88 1924.4 1485.99 C 1921.12 1502.44 1910.75 1514.58 1908.18 1533.67 C 1898.12 1531.64 1879.18 1529.49 1869.26 1531.15 C 1863.13 1531.85 1856.04 1529.08 1850.44 1530.51 L 1847.83 1534.65 L 1846.34 1534.9 C 1846 1534.55 1845.69 1534.19 1845.33 1533.86 C 1843.79 1532.42 1842.46 1531.94 1840.52 1531.22 C 1836.2 1531.86 1816.16 1535.96 1813.41 1533.63 C 1813.08 1533.35 1812.35 1532.2 1812.08 1531.8 C 1805.05 1530.81 1795.97 1536.32 1790.68 1531.14 C 1786.99 1532.06 1783.8 1533.98 1780.49 1535.77 C 1779 1534.72 1778.48 1533.93 1777.48 1532.45 C 1774.94 1531.91 1774.2 1531.5 1771.89 1532.98 C 1770.87 1533.63 1769.72 1535.01 1768.91 1535.83 L 1766.39 1535.91 C 1766.39 1534.12 1766.63 1534.15 1765.52 1532.59 C 1761.09 1532.46 1754.32 1531.34 1750.24 1532.8 L 1752.51 1536.54 L 1752.11 1537.06 L 1749.14 1537.01 C 1748 1535.45 1746.85 1533.91 1745.65 1532.4 C 1738.72 1532.08 1730.61 1535.05 1724.61 1531.35 C 1724.18 1531.41 1723.76 1531.47 1723.33 1531.53 L 1721.38 1531.76 C 1721.02 1531.81 1720.66 1531.86 1720.3 1531.91 C 1714.12 1532.66 1707.89 1530.88 1701.89 1532.64 L 1699.41 1535.84 C 1696.61 1536 1695.41 1534.79 1693.04 1533.44 C 1691.54 1535.5 1691.56 1539.57 1691.24 1542.17 C 1691.41 1540.07 1691.73 1538.02 1691.03 1535.99 C 1689.41 1531.25 1651.03 1531.58 1645.42 1531.85 C 1639.41 1532.15 1633.14 1534.27 1627.17 1534.05 C 1623.73 1533.92 1620.05 1531.82 1616.87 1530.59 C 1611.83 1528.64 1612.96 1532.83 1608.59 1532.97 C 1601.25 1533.21 1591.4 1529.19 1584.66 1532.41 C 1578.67 1535.27 1577.47 1530.98 1571.88 1530.27 C 1569.28 1529.94 1565.53 1530.98 1562.98 1531.5 C 1550.8 1533.99 1537.67 1530.69 1525.22 1530.76 C 1502.69 1530.89 1480.15 1531.96 1457.66 1532.13 C 1450.11 1532.19 1442.45 1530.6 1434.99 1530.89 C 1431.84 1531.02 1429.1 1532.8 1426.01 1532.84 C 1414.36 1533 1402.31 1531.25 1390.53 1531.13 C 1389.62 1530.54 1388.72 1529.94 1387.78 1529.4 C 1383.39 1526.88 1351.29 1530.41 1343.31 1530.69 C 1332.9 1531.05 1322.45 1530.38 1312.04 1530.35 C 1299.98 1530.32 1287.98 1530.83 1275.92 1530.51 C 1256.19 1529.99 1225.76 1526.89 1207.15 1531.73 C 1204.5 1530.71 1201.26 1529.28 1198.4 1529.17 C 1180.26 1528.48 1162.01 1531.08 1143.87 1530.94 C 1135.72 1530.88 1127.62 1529.75 1119.48 1529.47 C 1112.12 1529.21 1104.75 1529.72 1097.39 1529.25 C 1090.2 1528.78 1082.93 1527.64 1075.74 1527.51 C 1069.53 1527.39 1059.72 1530.48 1054.09 1528.31 C 1052.58 1527.72 1051.05 1526.93 1049.51 1526.31 C 1047.91 1527.43 1047.98 1527.97 1047.25 1529.71 L 1044.43 1530.06 L 1042.97 1529.45 C 1042.36 1529.2 1041.73 1528.97 1041.12 1528.7 C 1036.36 1526.58 1029.1 1528.73 1023.98 1529.52 C 1015.62 1530.8 1009.94 1523.87 1004.59 1524.72 C 999.685 1525.51 995.322 1529.89 989.802 1529.18 C 985.128 1528.57 981.242 1524.48 976.384 1523.78 L 976.241 1526.7 C 972.453 1531.08 960.318 1527.86 954.699 1528.46 C 950.333 1528.92 945.969 1531.02 941.542 1531.81 C 939.629 1530.43 937.226 1528.38 934.878 1528 C 930.354 1527.26 924.473 1528.09 919.864 1528.13 L 872.376 1528.81 C 867.84 1528.88 864.312 1528.36 861.03 1531.72 C 859.444 1532.06 858.809 1532 857.334 1531.29 C 845.061 1525.4 813.046 1530.08 797.551 1528.48 C 791.974 1527.9 786.731 1526.02 781.453 1524.23 C 761.683 1530.24 731.352 1524.12 718.58 1530.1 C 706.189 1525.74 694.71 1526.33 681.857 1527.34 C 676.579 1527.75 673.724 1526.5 668.953 1524.42 C 664.109 1525.54 659.776 1527.46 655.229 1529.42 L 652.737 1527.31 C 631.788 1527.47 625.986 1523.94 603.741 1529.3 A 72.0132 72.0132 0 0 0 602.16 1527.58 C 600.881 1526.24 599.099 1524.45 597.182 1524.14 C 595.417 1523.86 591.68 1526.08 589.788 1526.49 C 584.833 1527.58 578.849 1527.21 573.766 1527.33 C 567.938 1527.48 552.643 1529.27 547.588 1527.78 C 546.459 1527.44 545.187 1525.6 544.076 1525.35 C 542.585 1525.01 515.232 1526.46 510.025 1526.37 C 508.359 1524.74 508.869 1525.4 507.637 1523.63 C 507.366 1523.24 507.108 1522.85 506.844 1522.45 C 502.54 1522.05 495.575 1525.79 491.435 1527.36 C 488.839 1526.77 486.295 1526.11 483.616 1526.1 C 465.799 1526.03 438.402 1529.81 422.002 1526.46 C 412.758 1524.58 411.034 1527.65 403.448 1527.63 C 396.049 1527.61 388.587 1526.13 381.149 1525.97 C 376.183 1525.87 355.957 1524.55 352.805 1527.57 L 349.448 1529.98 C 349.138 1529.86 348.831 1529.75 348.52 1529.64 C 340.874 1526.95 330.19 1526.33 322.101 1527.18 C 310.76 1528.37 298.954 1526.73 287.521 1526.84 C 281.36 1526.9 274.292 1528.22 268.287 1527.78 C 264.778 1527.53 261.513 1526 257.834 1525.88 C 245.135 1525.45 232.252 1528.98 219.553 1528.81 C 213.473 1528.72 192.877 1523.94 188.904 1529.44 C 188.669 1529.76 188.13 1531.05 187.951 1531.46 C 185.153 1530.38 186.486 1528.59 183.035 1528.13 C 175.5 1528.37 168.142 1528.83 160.604 1528.29 C 155.49 1527.93 150.054 1526.54 144.977 1526.67 C 142.135 1526.74 139.56 1528.11 136.777 1528.43 C 131.643 1529 126.435 1526.64 122.655 1523.3 C 109.708 1511.86 102.839 1485.65 101.824 1469.12 C 94.4088 1459.68 92.3691 1453.11 91.8385 1441.16 L 85.3617 1434.06 C 84.7321 1424.9 83.7011 1420.84 77.7236 1413.72 C 78.392 1410.35 79.4704 1406.76 78.7249 1403.35 C 77.7966 1402.52 76.6093 1401.56 75.8382 1400.55 C 73.7704 1397.84 73.5459 1395.6 74.031 1392.3 C 76.171 1377.75 60.5347 1363.67 57.8285 1349.56 C 59.2207 1347.56 60.445 1345.64 61.5921 1343.49 C 60.2698 1340.37 57.7794 1339.45 54.9974 1337.59 C 52.9604 1330.55 49.8583 1323.85 47.7743 1316.8 C 44.8074 1306.78 40.5314 1281.5 35.1393 1274.15 C 32.9155 1273.12 31.1377 1272.4 29.3975 1270.62 C 36.6339 1259.02 30.0531 1261.69 32.0039 1252.72 C 37.5152 1250.67 42.1346 1248.66 46.8547 1245.1 L 48.0542 1244.18 C 55.6934 1244.13 63.3335 1244.95 70.9769 1244.99 L 149.51 1245.3 C 177.581 1245.16 206.793 1242.68 234.757 1245.92 C 238.918 1246.4 241.705 1245.15 245.468 1243.55 C 271.125 1250.35 323.884 1238.89 343.746 1246.92 C 358.111 1243.09 365.332 1246.77 378.972 1246.56 C 390.765 1246.39 402.659 1245.14 414.479 1244.78 C 432.418 1244.23 450.267 1244.7 468.178 1244.47 C 495.916 1244.11 523.955 1243.11 551.669 1244.67 C 554.845 1245.19 558.806 1244.24 562.112 1244.15 C 577.713 1243.74 593.289 1242.38 608.852 1242.04 C 618.348 1241.83 627.351 1244.12 636.662 1244.79 C 642.403 1245.2 648.71 1242.53 654.699 1242.44 C 680.426 1242.04 709.659 1247.43 734.51 1242.58 C 740.963 1241.33 739.725 1244.58 744.733 1244.91 C 751.2 1245.33 758.977 1240.95 764.554 1245.19 C 764.843 1245.41 765.124 1245.64 765.409 1245.87 L 768.004 1245.51 C 766.972 1244.71 766.227 1244.11 765.406 1243.08 C 778.286 1241.26 824.082 1246.95 832.273 1242.9 C 833.009 1243.27 833.682 1243.82 834.482 1244.02 C 834.632 1244.06 890.197 1242.8 895.832 1242.75 L 1134 1243.02 C 1150.42 1242.93 1167.07 1242.5 1183.46 1242.7 C 1196.98 1242.86 1209.94 1244.33 1223.5 1242.97 C 1225.49 1241.15 1227.47 1239.3 1229.34 1237.36 C 1235.45 1231.03 1240.07 1220.69 1244.55 1212.94 C 1266.21 1175.4 1284.99 1137.21 1303.48 1098.06 C 1304.98 1094.87 1311.31 1084.76 1310.97 1081.91 C 1310.77 1080.26 1309.35 1079.32 1309.55 1077.45 C 1310.22 1071.2 1316.24 1061.52 1320.77 1057.18 C 1322.63 1041.1 1330.46 1024.62 1335.56 1009.24 C 1336.32 1008.59 1337.9 1007.46 1338.5 1006.57 C 1340.07 1004.26 1338.25 1000.86 1337.58 998.406 C 1339.14 991.432 1342.24 984.915 1344.11 978.033 C 1344.73 975.772 1344.46 973.175 1345.2 971.028 C 1345.7 969.557 1346.9 968.254 1347.87 967.091 C 1350.64 965.585 1355.29 961.169 1356.95 958.45 C 1358.81 957.988 1360.67 957.487 1362.53 957.007 C 1378.32 952.938 1417.56 919.626 1427.38 906.131 L 1432.23 899.576 z"/>
<path transform="translate(0,0)" fill="rgb(157,104,66)" d="M 1432.23 899.576 C 1447.74 908.352 1463.72 916.15 1478.89 925.595 C 1489.65 932.294 1500.28 940.573 1510.32 948.326 C 1521.75 957.151 1534.42 968.21 1544.08 978.859 C 1546.62 981.666 1547.55 985.504 1550.07 988.212 C 1554.08 992.515 1559.12 995.982 1563.24 1000.31 C 1583.92 1022.02 1602.29 1045.47 1617.24 1071.45 C 1620.23 1076.64 1624.66 1082.47 1626.22 1088.26 C 1626.95 1090.95 1627.24 1093.81 1627.56 1096.57 L 1635.82 1102.91 C 1638.76 1111.57 1641.06 1122.44 1644.96 1130.56 C 1648.11 1137.14 1653.35 1142.53 1656.07 1149.38 C 1663.61 1168.42 1675.64 1221.42 1674.88 1241.83 C 1674.87 1242.27 1674.92 1242.71 1674.94 1243.15 L 1673.95 1244.8 C 1665.43 1246.47 1631.89 1244.04 1620.27 1243.99 C 1612.48 1243.96 1604.17 1245.43 1596.51 1244.83 C 1590.34 1244.34 1584.12 1242.99 1577.96 1242.22 C 1577.65 1242.81 1577.43 1243.45 1577.03 1243.98 C 1576.05 1245.25 1574.76 1244.78 1573.39 1244.78 C 1562.96 1244.81 1552.42 1245.16 1542.01 1244.76 C 1535.33 1244.51 1528.65 1243.59 1521.96 1243.68 C 1514.17 1243.79 1505.08 1245.69 1497.45 1244.76 C 1494.49 1244.4 1487.85 1241.8 1485.37 1243.31 C 1482.99 1244.75 1481.32 1245.89 1478.45 1245.98 C 1476.64 1244.98 1475.42 1243.98 1473.97 1242.51 C 1468.81 1242.43 1463.69 1245.15 1458.71 1246.42 C 1449.22 1241.7 1437.72 1241.93 1427.69 1245.47 C 1426.68 1245.83 1425.72 1246.28 1424.72 1246.65 C 1422.92 1247.31 1421.85 1247.15 1420.02 1246.77 C 1419.26 1246.06 1418.37 1245.36 1417.74 1244.53 L 1417.6 1245.46 L 1415.98 1246.47 C 1409.6 1246.6 1400.31 1246.54 1394.51 1243.85 C 1390.5 1243.76 1383.8 1245.71 1380.36 1245.15 C 1377.59 1244.7 1376.56 1241.5 1372.83 1241.66 C 1366.38 1241.94 1359.7 1245.15 1353.27 1244.86 C 1347.99 1244.62 1341.01 1241.17 1335.93 1242.35 C 1333.78 1242.86 1333.42 1244.7 1330.52 1244.91 L 1329.53 1242.8 C 1323.67 1241.22 1298.1 1243.06 1288.59 1242.32 L 1287.85 1243.24 L 1289.45 1246.57 L 1288.88 1247.67 C 1286.25 1246.43 1283.99 1243.94 1281.41 1242.96 C 1275.77 1240.84 1233.63 1243.27 1223.5 1242.97 C 1225.49 1241.15 1227.47 1239.3 1229.34 1237.36 C 1235.45 1231.03 1240.07 1220.69 1244.55 1212.94 C 1266.21 1175.4 1284.99 1137.21 1303.48 1098.06 C 1304.98 1094.87 1311.31 1084.76 1310.97 1081.91 C 1310.77 1080.26 1309.35 1079.32 1309.55 1077.45 C 1310.22 1071.2 1316.24 1061.52 1320.77 1057.18 C 1322.63 1041.1 1330.46 1024.62 1335.56 1009.24 C 1336.32 1008.59 1337.9 1007.46 1338.5 1006.57 C 1340.07 1004.26 1338.25 1000.86 1337.58 998.406 C 1339.14 991.432 1342.24 984.915 1344.11 978.033 C 1344.73 975.772 1344.46 973.175 1345.2 971.028 C 1345.7 969.557 1346.9 968.254 1347.87 967.091 C 1350.64 965.585 1355.29 961.169 1356.95 958.45 C 1358.81 957.988 1360.67 957.487 1362.53 957.007 C 1378.32 952.938 1417.56 919.626 1427.38 906.131 L 1432.23 899.576 z"/>
<path transform="translate(0,0)" fill="rgb(97,24,48)" d="M 1474.43 1030.36 C 1478.41 1032.81 1482.64 1034.66 1484.25 1039.38 C 1486.34 1045.52 1482.79 1057.14 1481.61 1063.45 C 1469.98 1125.53 1446.13 1182.56 1423.06 1240.98 C 1422.63 1241.21 1422.2 1241.43 1421.77 1241.67 C 1420.27 1242.52 1419.06 1243.43 1417.74 1244.53 L 1417.6 1245.46 L 1415.98 1246.47 C 1409.6 1246.6 1400.31 1246.54 1394.51 1243.85 C 1407.64 1207.3 1425.13 1172.07 1436.95 1135.01 C 1445.49 1108.24 1452.41 1080.82 1459.09 1053.52 C 1460.42 1048.08 1460.21 1042.73 1461.81 1037.19 C 1465.97 1034.85 1470.09 1032.35 1474.43 1030.36 z"/>
<path transform="translate(0,0)" fill="rgb(97,24,48)" d="M 491.435 1527.36 C 495.575 1525.79 502.54 1522.05 506.844 1522.45 C 507.108 1522.85 507.366 1523.24 507.637 1523.63 C 508.869 1525.4 508.359 1524.74 510.025 1526.37 C 515.232 1526.46 542.585 1525.01 544.076 1525.35 C 545.187 1525.6 546.459 1527.44 547.588 1527.78 C 552.643 1529.27 567.938 1527.48 573.766 1527.33 C 578.849 1527.21 584.833 1527.58 589.788 1526.49 C 591.68 1526.08 595.417 1523.86 597.182 1524.14 C 599.099 1524.45 600.881 1526.24 602.16 1527.58 A 72.0132 72.0132 0 0 1 603.741 1529.3 C 625.986 1523.94 631.788 1527.47 652.737 1527.31 L 655.229 1529.42 C 659.776 1527.46 664.109 1525.54 668.953 1524.42 C 673.724 1526.5 676.579 1527.75 681.857 1527.34 C 694.71 1526.33 706.189 1525.74 718.58 1530.1 C 731.352 1524.12 761.683 1530.24 781.453 1524.23 C 786.731 1526.02 791.974 1527.9 797.551 1528.48 C 813.046 1530.08 845.061 1525.4 857.334 1531.29 C 858.809 1532 859.444 1532.06 861.03 1531.72 C 864.312 1528.36 867.84 1528.88 872.376 1528.81 L 919.864 1528.13 C 924.473 1528.09 930.354 1527.26 934.878 1528 C 937.226 1528.38 939.629 1530.43 941.542 1531.81 C 945.969 1531.02 950.333 1528.92 954.699 1528.46 C 960.318 1527.86 972.453 1531.08 976.241 1526.7 L 976.384 1523.78 C 981.242 1524.48 985.128 1528.57 989.802 1529.18 C 995.322 1529.89 999.685 1525.51 1004.59 1524.72 C 1009.94 1523.87 1015.62 1530.8 1023.98 1529.52 C 1029.1 1528.73 1036.36 1526.58 1041.12 1528.7 C 1041.73 1528.97 1042.36 1529.2 1042.97 1529.45 L 1044.43 1530.06 L 1047.25 1529.71 C 1047.98 1527.97 1047.91 1527.43 1049.51 1526.31 C 1051.05 1526.93 1052.58 1527.72 1054.09 1528.31 C 1059.72 1530.48 1069.53 1527.39 1075.74 1527.51 C 1082.93 1527.64 1090.2 1528.78 1097.39 1529.25 C 1104.75 1529.72 1112.12 1529.21 1119.48 1529.47 C 1127.62 1529.75 1135.72 1530.88 1143.87 1530.94 C 1162.01 1531.08 1180.26 1528.48 1198.4 1529.17 C 1201.26 1529.28 1204.5 1530.71 1207.15 1531.73 C 1225.76 1526.89 1256.19 1529.99 1275.92 1530.51 C 1287.98 1530.83 1299.98 1530.32 1312.04 1530.35 C 1322.45 1530.38 1332.9 1531.05 1343.31 1530.69 C 1351.29 1530.41 1383.39 1526.88 1387.78 1529.4 C 1388.72 1529.94 1389.62 1530.54 1390.53 1531.13 C 1402.31 1531.25 1414.36 1533 1426.01 1532.84 C 1429.1 1532.8 1431.84 1531.02 1434.99 1530.89 C 1442.45 1530.6 1450.11 1532.19 1457.66 1532.13 C 1480.15 1531.96 1502.69 1530.89 1525.22 1530.76 C 1537.67 1530.69 1550.8 1533.99 1562.98 1531.5 C 1565.53 1530.98 1569.28 1529.94 1571.88 1530.27 C 1577.47 1530.98 1578.67 1535.27 1584.66 1532.41 C 1591.4 1529.19 1601.25 1533.21 1608.59 1532.97 C 1612.96 1532.83 1611.83 1528.64 1616.87 1530.59 C 1620.05 1531.82 1623.73 1533.92 1627.17 1534.05 C 1633.14 1534.27 1639.41 1532.15 1645.42 1531.85 C 1651.03 1531.58 1689.41 1531.25 1691.03 1535.99 C 1691.73 1538.02 1691.41 1540.07 1691.24 1542.17 C 1691.56 1539.57 1691.54 1535.5 1693.04 1533.44 C 1695.41 1534.79 1696.61 1536 1699.41 1535.84 L 1701.89 1532.64 C 1707.89 1530.88 1714.12 1532.66 1720.3 1531.91 C 1720.66 1531.86 1721.02 1531.81 1721.38 1531.76 L 1723.33 1531.53 C 1723.76 1531.47 1724.18 1531.41 1724.61 1531.35 C 1730.61 1535.05 1738.72 1532.08 1745.65 1532.4 C 1746.85 1533.91 1748 1535.45 1749.14 1537.01 L 1752.11 1537.06 L 1752.51 1536.54 L 1750.24 1532.8 C 1754.32 1531.34 1761.09 1532.46 1765.52 1532.59 C 1766.63 1534.15 1766.39 1534.12 1766.39 1535.91 L 1768.91 1535.83 C 1769.72 1535.01 1770.87 1533.63 1771.89 1532.98 C 1774.2 1531.5 1774.94 1531.91 1777.48 1532.45 C 1778.48 1533.93 1779 1534.72 1780.49 1535.77 C 1783.8 1533.98 1786.99 1532.06 1790.68 1531.14 C 1795.97 1536.32 1805.05 1530.81 1812.08 1531.8 C 1812.35 1532.2 1813.08 1533.35 1813.41 1533.63 C 1816.16 1535.96 1836.2 1531.86 1840.52 1531.22 C 1842.46 1531.94 1843.79 1532.42 1845.33 1533.86 C 1845.69 1534.19 1846 1534.55 1846.34 1534.9 L 1847.83 1534.65 L 1850.44 1530.51 C 1856.04 1529.08 1863.13 1531.85 1869.26 1531.15 C 1867.08 1534.29 1865.45 1536.98 1864.17 1540.59 L 1860.41 1542.5 L 1861.82 1543.89 C 1863.22 1545.28 1864.21 1546.64 1865.23 1548.34 C 1865.01 1552.04 1862.19 1554.77 1859.92 1557.5 C 1861.45 1561.03 1864.42 1562.96 1865.05 1566.69 L 1864.14 1567.93 C 1862.56 1570.1 1859.79 1573.1 1860.33 1575.94 C 1861.21 1580.61 1863.77 1583 1863.34 1588.13 C 1861.82 1588.99 1861.52 1589.05 1859.87 1589.15 C 1860.04 1589.48 1860.22 1589.8 1860.39 1590.13 C 1861.99 1593.28 1863.31 1595.98 1863.4 1599.57 L 1862.23 1600.87 L 1856.99 1599.93 L 1856.38 1601 C 1857.66 1605.69 1862.24 1612.22 1862.36 1616.67 C 1862.53 1622.65 1860.21 1629.67 1859.52 1635.74 C 1858.05 1648.76 1857.3 1662.08 1856.5 1675.16 C 1855.32 1694.41 1857.59 1714 1856.25 1733.11 C 1855.9 1738.2 1851.47 1742.59 1850.74 1747.55 C 1850.1 1751.93 1851.78 1758.36 1852.4 1762.82 C 1850.89 1764.98 1850.08 1764.73 1847.64 1765.51 C 1849.04 1771.82 1854.44 1775.29 1853.41 1782.55 C 1852.24 1783.51 1851.07 1784.39 1849.81 1785.22 C 1850.33 1789.46 1852.34 1797.75 1850.42 1801.51 L 1849.38 1800.15 C 1848.49 1799.01 1847.65 1798.01 1846.64 1797 C 1846.23 1802.38 1850.71 1810.93 1849.1 1815.41 C 1848.44 1817.23 1845.93 1818.86 1845.07 1821.07 L 1845.88 1821.78 L 1848.77 1820.48 C 1851.75 1826.73 1845 1840.34 1844.78 1847.55 C 1844.66 1851.79 1848.53 1855.17 1847.5 1859.52 L 1844.44 1860.68 C 1841.81 1866.98 1846.2 1874.78 1846.68 1881.12 C 1846.97 1884.87 1845.24 1883.83 1844 1886.55 C 1841.24 1892.57 1846.85 1905.73 1842.64 1915.51 C 1842.98 1916.1 1843.39 1916.65 1843.66 1917.28 C 1843.85 1917.72 1843.89 1918.22 1844 1918.69 L 1839.67 1925.58 C 1840.68 1928.42 1844.11 1935.06 1842.56 1937.64 C 1842.29 1938.1 1840.62 1939.65 1840.18 1940.07 C 1839.11 1949.56 1837.24 1959.32 1840.26 1968.54 C 1840.85 1970.33 1840.84 1971.09 1840.3 1972.88 C 1838.54 1975.03 1836.12 1976.86 1836.37 1979.85 C 1836.58 1982.38 1838.73 1985.83 1839.93 1988.03 L 1838.94 1989.19 L 1837.35 1989.1 C 1838.02 1990.82 1838.65 1991.95 1839.65 1993.46 C 1839.03 1994.86 1838.55 1995.74 1837.69 1996.95 C 1838.4 2011.84 1837.02 2028.66 1833.15 2043.11 C 1832.69 2044.81 1832.55 2046.25 1832.49 2048 L 1664.56 2048 L 1473.42 2048 L 564.88 2048 L 378.133 2048 L 212.884 2048 C 212.492 2046.44 212.034 2045.18 211.196 2043.8 C 206.454 2035.98 209.89 2035.48 210.065 2027.65 C 210.137 2024.44 208.925 2021.12 208.482 2017.95 C 204.835 1991.87 206.163 1966.28 204.408 1940.18 C 204.047 1934.8 200.457 1902.16 201.488 1899.54 C 201.735 1898.92 202.222 1898.4 202.699 1897.93 C 203.039 1897.59 203.502 1897.4 203.904 1897.13 C 197.7 1885.26 201.252 1888.74 202.139 1877.24 C 202.467 1872.99 200.389 1866.71 199.379 1862.52 C 198.229 1857.76 198.348 1856.07 200.085 1851.36 C 201.344 1847.95 201.346 1846.77 200.297 1843.31 C 199.824 1841.74 199.293 1840.25 199.009 1838.63 C 198.39 1835.11 199.609 1834.32 201.544 1831.48 C 200.785 1830.86 199.381 1829.75 198.752 1829.07 C 194.987 1824.93 199.555 1820.07 198.645 1815.55 C 198.082 1812.75 195.663 1809.83 194.971 1806.94 C 193.244 1799.72 198.971 1785.1 199.353 1776.77 L 195.468 1776.87 L 195.014 1775.98 C 196.504 1774.5 197.368 1773.79 198.131 1771.8 L 195.438 1770.04 C 193.399 1766.03 197.927 1761.27 198.389 1756.67 L 194.867 1755.52 L 194.361 1753.69 L 197.816 1752.36 C 197.322 1746.92 192.702 1743.08 191.696 1737.75 C 190.93 1733.69 188.979 1712.97 190.856 1709.99 C 191.96 1708.24 193.427 1708.37 193.435 1706.07 L 190.037 1706.8 L 188.855 1705.91 C 187.996 1701.68 190.44 1697.4 191.135 1693.2 L 187.766 1689.64 C 186.46 1684.36 189.85 1679.11 192.245 1674.63 C 191.471 1673.26 190.636 1672.28 189.522 1671.19 L 188.179 1669.89 C 186.643 1661.82 188.812 1653.68 190.272 1645.72 C 189.302 1644.75 187.379 1643.04 186.78 1641.8 C 185.291 1638.72 186.746 1630.04 186.701 1626.5 C 186.555 1615.2 185.803 1603.89 185.669 1592.57 C 185.416 1571.14 185.669 1549.43 183.035 1528.13 C 186.486 1528.59 185.153 1530.38 187.951 1531.46 C 188.13 1531.05 188.669 1529.76 188.904 1529.44 C 192.877 1523.94 213.473 1528.72 219.553 1528.81 C 232.252 1528.98 245.135 1525.45 257.834 1525.88 C 261.513 1526 264.778 1527.53 268.287 1527.78 C 274.292 1528.22 281.36 1526.9 287.521 1526.84 C 298.954 1526.73 310.76 1528.37 322.101 1527.18 C 330.19 1526.33 340.874 1526.95 348.52 1529.64 C 348.831 1529.75 349.138 1529.86 349.448 1529.98 L 352.805 1527.57 C 355.957 1524.55 376.183 1525.87 381.149 1525.97 C 388.587 1526.13 396.049 1527.61 403.448 1527.63 C 411.034 1527.65 412.758 1524.58 422.002 1526.46 C 438.402 1529.81 465.799 1526.03 483.616 1526.1 C 486.295 1526.11 488.839 1526.77 491.435 1527.36 z"/>
<path transform="translate(0,0)" fill="rgb(157,104,66)" d="M 378.133 2048 C 378.027 2043.82 378.416 2039.88 378.553 2035.74 C 378.907 2025.03 376.449 2031.87 372.565 2027.53 C 372.916 2027.18 373.277 2026.84 373.618 2026.48 C 380.524 2019.17 374.315 2019.2 373.967 2012.22 C 375.714 2009.73 376.685 2007.89 377.109 2004.83 C 377.503 2002 377.824 1998.46 375.95 1996.12 C 374.367 1996.9 373.098 1997.36 371.358 1997.66 C 371.4 1994.78 375.666 1994.49 377.418 1991.46 C 376.647 1988.34 374.462 1988.39 373.147 1985.5 L 375.426 1985.47 C 376.382 1981.18 372.469 1976.65 372.604 1972.14 L 375.499 1973.02 L 376.281 1971.94 L 375.494 1970.34 L 371.709 1969.53 L 371.782 1968.45 L 374.627 1967.43 C 376.841 1964.41 378.497 1962.15 382.37 1961.22 C 389.46 1959.51 400.112 1962.25 407.568 1962.31 C 430.091 1962.51 452.892 1961.47 475.452 1961.22 C 486.669 1961.09 498.418 1963.17 509.191 1960.72 C 516.596 1959.03 528.434 1961.09 536.294 1961.15 C 545.839 1961.21 557.099 1959.35 566.351 1960.36 C 567.756 1960.52 568.811 1961.03 570.058 1961.61 C 573.775 1963.36 581.292 1961.45 585.5 1961.19 C 598.424 1960.41 610.601 1960.03 623.461 1961.43 L 628.409 1962.76 C 628.113 1966.23 618.588 1975.91 615.825 1979.38 C 602.494 1996.11 589.373 2012.03 577.088 2029.63 C 572.921 2035.6 568.118 2041.48 564.88 2048 L 378.133 2048 z"/>
<path transform="translate(0,0)" fill="rgb(157,104,66)" d="M 1405.59 1962.46 C 1406.8 1961.77 1408.6 1960.36 1409.88 1960 C 1416.24 1958.18 1506.65 1960.88 1520.58 1961 A 5996.15 5996.15 0 0 0 1665.34 1960 C 1668.39 1961.42 1669.79 1962.62 1672.04 1965.13 C 1671.41 1967.42 1670.86 1966.58 1669.98 1968.18 C 1668.68 1970.55 1668.46 1975.75 1668.39 1978.53 C 1670.29 1979.2 1670.95 1979.04 1672.89 1978.77 C 1673.99 1980.78 1673.73 1982.23 1672.98 1984.37 C 1670.73 1990.77 1663.15 2000.7 1665.1 2007.42 L 1668.69 2008.44 C 1669.73 2013.09 1667.43 2016.23 1665.13 2020.15 C 1666 2023 1668.77 2024.07 1667.9 2026.7 C 1666.29 2026.38 1665.42 2026.11 1663.99 2025.43 C 1663.32 2028.85 1664.37 2030.81 1665.6 2033.9 C 1666.57 2036.35 1667.21 2038.21 1666.12 2040.86 C 1665.68 2041.92 1665.11 2042.64 1664.47 2043.55 L 1664.56 2048 L 1473.42 2048 C 1457.83 2036.71 1448.3 2016 1436.37 2001.27 C 1425.95 1988.41 1414.04 1976.85 1405.59 1962.46 z"/>
<path transform="translate(0,0)" fill="rgb(157,104,66)" d="M 491.435 1527.36 C 495.575 1525.79 502.54 1522.05 506.844 1522.45 C 507.108 1522.85 507.366 1523.24 507.637 1523.63 C 508.869 1525.4 508.359 1524.74 510.025 1526.37 C 515.232 1526.46 542.585 1525.01 544.076 1525.35 C 545.187 1525.6 546.459 1527.44 547.588 1527.78 C 552.643 1529.27 567.938 1527.48 573.766 1527.33 C 578.849 1527.21 584.833 1527.58 589.788 1526.49 C 591.68 1526.08 595.417 1523.86 597.182 1524.14 C 599.099 1524.45 600.881 1526.24 602.16 1527.58 A 72.0132 72.0132 0 0 1 603.741 1529.3 C 625.986 1523.94 631.788 1527.47 652.737 1527.31 L 655.229 1529.42 C 659.776 1527.46 664.109 1525.54 668.953 1524.42 C 673.724 1526.5 676.579 1527.75 681.857 1527.34 C 694.71 1526.33 706.189 1525.74 718.58 1530.1 C 731.352 1524.12 761.683 1530.24 781.453 1524.23 C 786.731 1526.02 791.974 1527.9 797.551 1528.48 C 813.046 1530.08 845.061 1525.4 857.334 1531.29 C 858.809 1532 859.444 1532.06 861.03 1531.72 C 864.312 1528.36 867.84 1528.88 872.376 1528.81 L 919.864 1528.13 C 924.473 1528.09 930.354 1527.26 934.878 1528 C 937.226 1528.38 939.629 1530.43 941.542 1531.81 C 945.969 1531.02 950.333 1528.92 954.699 1528.46 C 960.318 1527.86 972.453 1531.08 976.241 1526.7 L 976.384 1523.78 C 981.242 1524.48 985.128 1528.57 989.802 1529.18 C 995.322 1529.89 999.685 1525.51 1004.59 1524.72 C 1009.94 1523.87 1015.62 1530.8 1023.98 1529.52 C 1029.1 1528.73 1036.36 1526.58 1041.12 1528.7 C 1041.73 1528.97 1042.36 1529.2 1042.97 1529.45 L 1044.43 1530.06 L 1047.25 1529.71 C 1047.98 1527.97 1047.91 1527.43 1049.51 1526.31 C 1051.05 1526.93 1052.58 1527.72 1054.09 1528.31 C 1059.72 1530.48 1069.53 1527.39 1075.74 1527.51 C 1082.93 1527.64 1090.2 1528.78 1097.39 1529.25 C 1104.75 1529.72 1112.12 1529.21 1119.48 1529.47 C 1127.62 1529.75 1135.72 1530.88 1143.87 1530.94 C 1162.01 1531.08 1180.26 1528.48 1198.4 1529.17 C 1201.26 1529.28 1204.5 1530.71 1207.15 1531.73 C 1225.76 1526.89 1256.19 1529.99 1275.92 1530.51 C 1287.98 1530.83 1299.98 1530.32 1312.04 1530.35 C 1322.45 1530.38 1332.9 1531.05 1343.31 1530.69 C 1351.29 1530.41 1383.39 1526.88 1387.78 1529.4 C 1388.72 1529.94 1389.62 1530.54 1390.53 1531.13 C 1402.31 1531.25 1414.36 1533 1426.01 1532.84 C 1429.1 1532.8 1431.84 1531.02 1434.99 1530.89 C 1442.45 1530.6 1450.11 1532.19 1457.66 1532.13 C 1480.15 1531.96 1502.69 1530.89 1525.22 1530.76 C 1537.67 1530.69 1550.8 1533.99 1562.98 1531.5 C 1565.53 1530.98 1569.28 1529.94 1571.88 1530.27 C 1577.47 1530.98 1578.67 1535.27 1584.66 1532.41 C 1591.4 1529.19 1601.25 1533.21 1608.59 1532.97 C 1612.96 1532.83 1611.83 1528.64 1616.87 1530.59 C 1620.05 1531.82 1623.73 1533.92 1627.17 1534.05 C 1633.14 1534.27 1639.41 1532.15 1645.42 1531.85 C 1651.03 1531.58 1689.41 1531.25 1691.03 1535.99 C 1691.73 1538.02 1691.41 1540.07 1691.24 1542.17 C 1692.51 1551.5 1688.01 1561.89 1689.71 1571.56 C 1690.37 1575.3 1690.21 1577.66 1689.28 1581.39 C 1688.85 1583.12 1688.78 1582.15 1689.7 1584.05 L 1692.17 1584.07 L 1692.13 1586.02 L 1692.74 1584.45 C 1692.44 1584.54 1692.14 1584.64 1691.85 1584.72 C 1690.51 1585.11 1689.74 1585.65 1688.59 1586.41 C 1685.97 1596.63 1686.62 1611.02 1687.59 1621.65 L 1690.22 1622.2 L 1690.72 1623.03 L 1688.03 1624.39 C 1686.46 1627.82 1688.6 1630.37 1688.56 1633.93 C 1688.52 1636.71 1687.61 1637.12 1685.61 1638.58 C 1686.22 1648 1686.27 1658.3 1688.71 1667.42 L 1691.28 1668.68 C 1688.97 1671.58 1686.14 1674.7 1685.3 1678.41 C 1684.76 1680.78 1685.15 1682.54 1686.43 1684.56 C 1687.74 1686.63 1687.07 1685 1687.79 1687.34 C 1686.28 1688.55 1685.22 1689.46 1684.23 1691.13 L 1685.51 1694.61 C 1683.06 1693.83 1680.39 1692.78 1677.83 1692.56 C 1670.63 1691.94 1662.76 1692.89 1655.5 1692.93 L 1605.38 1692.85 C 1598.38 1692.78 1585.03 1690.18 1578.76 1692.55 L 1579.06 1694.34 L 1578.09 1694.95 C 1577.17 1693.95 1576.01 1692.4 1574.72 1691.92 C 1570.99 1690.52 1563.81 1693.42 1560.16 1694.8 C 1559.53 1695.04 1558.82 1694.66 1558.17 1694.52 L 1558.34 1692.36 C 1547.95 1691.63 1535.65 1690.8 1525.34 1692.63 L 1524.91 1694.54 C 1523.12 1695.35 1521.21 1692.02 1517.86 1691.88 C 1510.83 1691.6 1507.15 1694.78 1500.01 1692.26 C 1498.99 1692.88 1497.9 1693.61 1496.79 1694.05 C 1493.56 1695.34 1492.28 1694.65 1489.24 1693.31 L 1488.25 1692.86 C 1486.74 1693.28 1485.8 1693.47 1484.55 1694.45 C 1484.87 1695.44 1486.61 1696.13 1487.5 1696.69 L 1486.34 1697.57 C 1483.1 1696.87 1481.92 1695.12 1479.53 1692.88 C 1471.5 1692.86 1463.5 1693.6 1455.46 1693.65 C 1441.45 1693.74 1427.42 1693.19 1413.41 1693.43 C 1404.82 1693.57 1396.22 1694.57 1387.64 1694.43 C 1380.78 1694.32 1373.93 1692.74 1367.05 1692.33 C 1365.43 1693.79 1365.86 1693.33 1364.64 1694.65 C 1364.39 1694.92 1364.16 1695.18 1363.92 1695.45 C 1362.26 1694.37 1359.69 1692.42 1357.57 1692.72 C 1356.14 1692.92 1354.48 1694.58 1353.06 1694.75 C 1344.59 1695.76 1328.88 1689.72 1317.2 1692.27 C 1312.48 1693.3 1309.49 1694.31 1304.78 1692.49 C 1302.58 1691.65 1301.43 1690.95 1299.01 1691.17 L 1298.01 1692.86 C 1295.71 1693.86 1294.11 1691.2 1291.11 1691.04 C 1290.92 1691.58 1290.82 1692.16 1290.52 1692.64 C 1289.56 1694.21 1266.33 1691.81 1261.86 1692.36 C 1261.58 1692.9 1261.39 1693.49 1261.03 1693.97 C 1260.22 1695.03 1246.95 1692.38 1244.62 1692.19 C 1241.98 1693.82 1240.36 1695 1237.1 1694.73 C 1236.12 1693.56 1235.55 1692.87 1234.09 1692.25 C 1230.8 1690.88 1225.02 1693.76 1222.01 1695.07 C 1221.83 1695.15 1221.65 1695.21 1221.46 1695.27 C 1220.27 1694.17 1220.68 1694.67 1219.76 1693.35 C 1219.54 1693.04 1219.34 1692.73 1219.13 1692.42 C 1204.73 1692.89 1190.57 1693.06 1176.21 1694.54 C 1175.28 1693.74 1174.47 1692.98 1173.41 1692.35 C 1172.12 1691.58 1171.01 1691.63 1169.62 1692.01 C 1165.97 1693.01 1162.07 1694.67 1158.25 1694.69 C 1148.18 1694.75 1130.03 1690.63 1121.07 1694.88 C 1119.13 1695.8 1118.31 1696.34 1116.04 1696.32 C 1105.51 1689.78 1103.81 1697.54 1098.41 1695.01 L 1099.27 1693.08 L 1098.48 1692.49 C 1081.17 1698.56 1082.43 1691.19 1071.52 1693.28 L 1072.06 1695.59 C 1067.87 1696.15 1061.95 1693.72 1057.82 1692.64 C 1055.99 1693.62 1056.48 1693.07 1055.38 1694.66 C 1055.14 1695.01 1054.92 1695.39 1054.69 1695.75 C 1053.17 1694.53 1051.76 1693.59 1050.03 1692.71 L 1048.3 1693.66 L 1049.08 1696.31 L 1048.36 1697.43 C 1046.53 1696.14 1044.82 1694.69 1042.55 1694.32 C 1040.83 1694.03 1039.41 1695.55 1038.02 1696.44 L 1037.76 1693.29 L 1035.95 1692.64 C 1035.09 1693.23 1034.4 1694.18 1033.39 1694.41 C 1031.36 1694.88 1002.31 1692.82 996.807 1692.83 C 965.446 1692.85 933.981 1695.91 902.572 1695.5 C 895.699 1695.41 888.834 1694.05 881.949 1693.8 C 872.258 1693.44 796.58 1693.3 793.703 1695.09 C 792.8 1695.65 793.234 1697.4 792.337 1697.97 C 791.998 1698.18 791.553 1697.79 791.162 1697.71 C 781.701 1695.6 782.319 1694.36 773.64 1698.45 C 772.142 1697.29 770.592 1696.06 768.951 1695.11 C 763.864 1692.16 751.626 1695.94 745.662 1696.55 C 740.026 1697.12 734.908 1693.56 729.142 1695.15 L 729.465 1697.53 C 725.87 1695.84 723.095 1694.69 719.087 1694.77 C 675.34 1695.67 631.517 1695.12 587.76 1695.13 C 574.588 1695.13 561.443 1695.88 548.267 1695.86 C 534.786 1695.84 521.294 1695 507.825 1695.12 C 492.754 1695.25 477.685 1696.1 462.613 1696.34 C 450.779 1696.53 434.053 1693.18 422.974 1696.9 C 420.149 1697.85 417.274 1698.65 414.422 1699.52 C 413.618 1698.73 412.861 1697.94 412.126 1697.08 L 411.454 1696.28 C 396.645 1695.25 381.208 1694.73 366.719 1698.68 L 365.709 1700.95 L 364.584 1701.34 C 364.625 1698.84 364.856 1697.1 363.609 1694.84 C 361.526 1694.2 360.488 1693.87 358.725 1692.51 C 357.812 1684.05 359.53 1675.65 359.281 1667.17 L 357.104 1665.67 C 355.998 1662.19 358.128 1664.08 358.996 1661.74 C 360.464 1657.79 354.15 1632.08 355.907 1625.55 L 359.612 1625.37 C 358.342 1621.88 354.092 1619.7 353.061 1616.82 C 351.946 1613.7 355.836 1606.46 353.075 1603.72 C 352.853 1603.5 349.906 1601.69 349.818 1601.55 C 348.159 1599.01 357.233 1582.05 351.936 1572.65 C 351.613 1572.08 351.268 1571.52 350.934 1570.95 C 351.715 1568.84 352.114 1567.66 351.744 1565.42 L 349.072 1563.83 L 349.925 1562.49 L 354.407 1561.67 C 353.98 1558.38 351.553 1555.35 350.112 1552.34 C 350.676 1551.15 351.043 1550.5 352.059 1549.61 C 352.323 1549.38 352.606 1549.17 352.88 1548.95 C 353.202 1544.29 352.792 1539.19 349.998 1535.28 L 348.006 1535.52 L 348.111 1534.33 C 349.746 1532.65 351.127 1531.27 352.12 1529.12 C 352.356 1528.61 352.577 1528.09 352.805 1527.57 C 355.957 1524.55 376.183 1525.87 381.149 1525.97 C 388.587 1526.13 396.049 1527.61 403.448 1527.63 C 411.034 1527.65 412.758 1524.58 422.002 1526.46 C 438.402 1529.81 465.799 1526.03 483.616 1526.1 C 486.295 1526.11 488.839 1526.77 491.435 1527.36 z"/>
<path transform="translate(0,0)" fill="rgb(157,104,66)" d="M 665.152 1928.01 C 662.804 1928.09 660.678 1928.23 658.364 1928.62 C 650.883 1929.89 642.715 1926.12 635.137 1928.75 L 635.033 1931.17 L 634.21 1931.52 L 635.532 1930.55 C 635.276 1930.73 635.041 1930.95 634.763 1931.09 C 633.037 1932.02 631.276 1931.71 629.385 1931.64 C 627.805 1930.37 626.919 1929.21 625.835 1927.5 C 620.422 1926.4 618.095 1931.48 613.992 1931.74 C 610.408 1931.96 606.992 1926.09 603.171 1927.2 C 599.573 1928.23 592.6 1934.38 589.121 1933.42 C 589.757 1931.48 590.439 1930.81 591.782 1929.32 C 587.168 1928.6 582.592 1929.15 577.855 1928.35 C 576.648 1928.14 571.897 1926.82 570.944 1927.11 C 569.664 1927.5 568.719 1928.65 567.457 1929.1 C 561.463 1931.21 550.105 1925.5 541.082 1928.61 C 530.173 1932.37 512.909 1929.06 501.01 1929.15 C 458.105 1929.51 415.353 1930.05 372.457 1929.07 C 369.903 1923.75 376.44 1923.39 369.242 1912.88 C 369.488 1910.64 370.048 1909.18 370.968 1907.17 C 374.744 1898.92 365.641 1882.86 368.601 1877.3 L 371.441 1876.4 C 371.953 1874.24 372.287 1873.4 370.827 1871.41 C 369.791 1870 367.766 1868.67 366.389 1867.55 C 366.44 1864.12 366.383 1860.6 367.508 1857.31 C 368.168 1855.39 371.592 1849.31 371.503 1847.8 C 371.465 1847.16 370.897 1846.67 370.595 1846.11 L 367.374 1845.73 C 366.671 1842.1 369.71 1839.96 365.839 1837.47 C 365.493 1837.25 365.128 1837.05 364.773 1836.84 C 365.067 1833.75 365.629 1830.96 366.397 1827.95 C 369.777 1814.7 363.759 1803.13 364.664 1790.17 L 366.951 1788.98 C 367.601 1786.47 367.744 1785.21 367.05 1782.69 C 364.988 1780.55 363.545 1779.73 360.885 1778.57 L 364.857 1778.2 L 365.431 1777.02 C 363.714 1775.81 361.97 1774.7 360.181 1773.6 C 359.911 1771.09 359.816 1770.84 361.009 1768.66 L 364.033 1767.29 C 363.209 1763.01 361.663 1758.94 360.257 1754.83 C 361.57 1753.13 362.666 1752.46 364.444 1751.31 C 365.156 1748.89 364.875 1749.29 363.859 1747.19 L 360.53 1748.23 L 358.825 1747.03 C 360.142 1746.02 360.809 1745.63 362.29 1745.05 C 361.662 1743.25 361.424 1742.82 360.23 1741.47 C 362.05 1736.97 359.926 1736.41 359.798 1732.05 C 361.906 1732.87 362.38 1733.63 364.572 1732.79 C 363.389 1731.09 362.682 1730.57 361.012 1729.42 C 372.112 1724.69 421.211 1728 436.372 1728.13 C 453.151 1728.27 624.281 1728.22 625.329 1727.8 C 625.866 1727.59 626.208 1727.05 626.66 1726.69 C 628.205 1725.47 629.084 1724.77 631.117 1725.13 C 641.225 1726.9 652.828 1730.38 662.904 1727.15 C 665.842 1726.21 666.779 1728.35 669.917 1728.07 C 691.922 1726.08 757.865 1730.02 772.83 1725.4 L 776.367 1727.5 L 777.894 1726.33 C 777.809 1725.34 777.719 1724.36 777.592 1723.38 C 781.347 1724.78 784.324 1727.41 788.41 1727.83 L 790.986 1725.29 C 796.176 1726.08 801.24 1727.76 806.475 1726.91 C 808.025 1725.15 808.103 1724.65 808.606 1722.46 C 812.921 1722.35 814.012 1726.15 817.553 1727.18 C 821.463 1728.33 867.5 1725.75 876.254 1725.57 C 882.559 1725.44 888.758 1727.69 895.015 1727.47 C 899.399 1727.32 902.971 1723.76 907.332 1724.28 L 909.492 1726.6 C 921.127 1725.96 961.533 1728.42 968.618 1726.1 C 977.486 1723.2 989.381 1725.84 998.789 1725.86 C 1031.25 1725.92 1063.56 1725.73 1096.04 1726.15 C 1112.54 1726.37 1128.83 1725.04 1145.28 1724.88 L 1317.85 1723.78 C 1326.2 1723.71 1397.93 1724.6 1399.84 1724.04 C 1401.22 1723.65 1402.7 1721.85 1403.54 1720.74 C 1405.9 1721.62 1405.56 1722.81 1407.07 1723.5 C 1411.08 1725.34 1480.37 1724.63 1486.25 1721.94 C 1488.82 1720.76 1489.58 1719.97 1492.41 1720.29 C 1492.23 1720.81 1492 1721.31 1491.87 1721.85 C 1491.78 1722.18 1491.79 1722.53 1491.75 1722.88 C 1505.17 1725.39 1520.3 1723.04 1533.94 1722.97 L 1627.65 1722.45 C 1639.01 1722.32 1650.72 1722.34 1662.08 1722.55 C 1668.8 1722.67 1674.39 1723.44 1681.22 1722.81 C 1683.91 1722.56 1685.11 1723.34 1687.04 1724.99 C 1688.16 1725.93 1688.78 1726.98 1689.47 1728.25 C 1689.09 1733.35 1683.36 1734.2 1684.76 1739.48 C 1682.6 1741.16 1680.92 1741.79 1680.12 1744.49 L 1681.58 1746.1 C 1683.24 1745.92 1684.9 1745.73 1686.55 1745.48 C 1685.74 1748.52 1684.87 1751.51 1683.9 1754.5 C 1685.27 1756.11 1685.45 1755.96 1687.34 1756.61 C 1685.99 1760.77 1681.17 1765.72 1681.55 1769.81 L 1685.39 1771.88 C 1686.74 1777.15 1679.12 1793.68 1680.91 1795.06 L 1684.93 1793.76 L 1686.28 1794.46 C 1683.74 1797.88 1682.18 1800.59 1680.6 1804.55 C 1680.71 1804.83 1680.83 1805.1 1680.94 1805.38 C 1682.19 1808.47 1682.79 1810.36 1681.35 1813.59 C 1680.76 1814.91 1680.09 1816.2 1679.42 1817.48 C 1680.11 1819.31 1679.64 1818.62 1680.62 1819.7 L 1680.59 1819.69 C 1681.98 1822.23 1682.2 1822.53 1681.97 1825.39 C 1680.28 1827.81 1678.78 1829.26 1676.45 1831.1 C 1676.23 1833.47 1677.53 1835.07 1678.71 1837.01 L 1678.14 1839.44 C 1680.51 1840.55 1679.29 1840.13 1681.82 1840.7 C 1679.01 1844.83 1675.59 1847.26 1676.27 1852.32 L 1678.18 1854.91 L 1676.33 1855.01 L 1678.83 1855.51 C 1676.83 1857.82 1675 1858.93 1675.48 1862.3 C 1675.73 1864.05 1676.94 1866.19 1677.63 1867.83 L 1679.03 1871.19 C 1677 1871.74 1678.07 1871.51 1675.79 1871.85 C 1673.81 1874.33 1673.32 1875.54 1672.83 1878.68 C 1673.67 1881.6 1675.36 1883.45 1677.26 1885.74 C 1676.11 1890.57 1671.28 1890.71 1674.07 1896.6 L 1676.85 1898.58 C 1675.53 1901.37 1673.6 1899.79 1672.79 1903.44 L 1675.49 1904.01 C 1675.2 1904.62 1674.9 1905.23 1674.62 1905.85 C 1671.74 1912.42 1671.77 1923.99 1671.29 1931.24 C 1662.08 1930.57 1645.57 1924.92 1637.33 1928.02 C 1635.96 1929.55 1635.59 1930.22 1635.37 1932.26 C 1633.81 1931.14 1632.47 1929.94 1631.08 1928.61 C 1618.83 1927.48 1586.6 1931.8 1577.73 1929.32 C 1573.67 1928.19 1489.28 1928.29 1481.81 1928.94 C 1481.69 1930.79 1482.14 1931.42 1482.91 1933.06 C 1479.03 1932.86 1477.86 1929.89 1474.62 1928.52 C 1471.37 1927.16 1460.4 1928.83 1456.57 1929.02 C 1454.88 1930.55 1453.9 1931.99 1452.75 1933.95 L 1451.42 1933.47 L 1452.96 1930.05 L 1452.08 1928.93 L 1447.39 1929.49 L 1445.36 1927.21 C 1442.9 1927.97 1443.19 1929.35 1441.33 1930.39 C 1439.96 1931.16 1430.71 1930.28 1428.23 1930.25 C 1417.37 1930.15 1391.27 1932.18 1382.92 1930.29 C 1382.88 1939.45 1388.73 1947.14 1394.91 1953.66 C 1396.44 1955.28 1398.08 1956.46 1399.98 1957.62 C 1402.08 1957.22 1401.88 1956.86 1403.18 1955.28 C 1404.01 1957.19 1404.06 1958.1 1403.77 1960.16 L 1405.59 1962.46 C 1414.04 1976.85 1425.95 1988.41 1436.37 2001.27 C 1448.3 2016 1457.83 2036.71 1473.42 2048 L 564.88 2048 C 568.118 2041.48 572.921 2035.6 577.088 2029.63 C 589.373 2012.03 602.494 1996.11 615.825 1979.38 C 618.588 1975.91 628.113 1966.23 628.409 1962.76 L 623.461 1961.43 C 646.667 1960.32 643.586 1940.74 660.434 1933.96 C 662.324 1933.2 663.961 1929.75 665.152 1928.01 z"/>
<path transform="translate(0,0)" fill="rgb(120,35,63)" d="M 665.152 1928.01 C 665.598 1927.7 666.047 1927.39 666.488 1927.08 C 673.607 1921.98 679.748 1913.92 686.315 1907.95 C 698.32 1897.04 757.814 1845.45 768.616 1844.79 C 774.295 1844.45 780.953 1835.03 786.644 1832.09 C 818.706 1815.53 850.028 1797.37 883.258 1783.15 C 917.884 1768.34 966.279 1757 1003.7 1755.68 C 1010.11 1755.45 1019.24 1756.91 1025.24 1755.69 C 1030.12 1754.71 1027.52 1751.77 1034.77 1754.14 C 1041.22 1756.24 1048.75 1754.75 1055.49 1755.09 C 1063.02 1755.47 1070.55 1756.47 1078 1757.6 C 1093.98 1760.02 1110.22 1762.64 1125.98 1766.24 C 1136.89 1768.74 1148.5 1773.43 1159.71 1773.99 C 1168.53 1781.95 1184.28 1781.96 1190.09 1788.55 C 1196.69 1796.05 1210.95 1797.98 1219.74 1802.92 C 1226.38 1806.65 1232.63 1811.29 1239.08 1815.36 C 1258.83 1827.79 1278.31 1840.15 1296.23 1855.22 C 1302.5 1860.49 1308.08 1866.79 1314.39 1871.86 C 1319.82 1876.22 1326.12 1879.8 1331.15 1884.61 C 1336.15 1889.4 1354.65 1912.1 1358.21 1913.47 C 1358.5 1913.58 1361.42 1913.64 1361.62 1913.75 C 1366.11 1916.1 1368.4 1924.72 1372.57 1927.96 C 1374.19 1929.22 1375.5 1929.65 1377.54 1929.82 C 1378.81 1929.92 1380.28 1929.7 1381.53 1929.58 L 1382.92 1930.29 C 1382.88 1939.45 1388.73 1947.14 1394.91 1953.66 C 1396.44 1955.28 1398.08 1956.46 1399.98 1957.62 C 1402.08 1957.22 1401.88 1956.86 1403.18 1955.28 C 1404.01 1957.19 1404.06 1958.1 1403.77 1960.16 L 1405.59 1962.46 C 1414.04 1976.85 1425.95 1988.41 1436.37 2001.27 C 1448.3 2016 1457.83 2036.71 1473.42 2048 L 564.88 2048 C 568.118 2041.48 572.921 2035.6 577.088 2029.63 C 589.373 2012.03 602.494 1996.11 615.825 1979.38 C 618.588 1975.91 628.113 1966.23 628.409 1962.76 L 623.461 1961.43 C 646.667 1960.32 643.586 1940.74 660.434 1933.96 C 662.324 1933.2 663.961 1929.75 665.152 1928.01 z"/>
<path transform="translate(0,0)" fill="rgb(157,104,66)" d="M 1102.62 394.954 C 1104.96 396.299 1107.33 397.544 1109.73 398.769 C 1119.63 398.462 1136.93 358.811 1143.34 349.199 C 1147.33 343.227 1153.19 338.455 1157.54 332.699 C 1186.06 295.008 1219.6 249.199 1266.6 233.77 C 1287.31 226.971 1303.19 230.129 1322.34 239.829 C 1357.24 257.499 1381.61 314.242 1396.08 348.507 C 1399.11 355.691 1402.86 362.919 1405.47 370.238 C 1407.47 375.838 1407.86 381.925 1410.07 387.434 C 1415.84 401.826 1422.42 415.187 1427.25 430.049 L 1430.26 431.058 C 1431.28 433.207 1431.19 432.282 1431.04 434.382 C 1430.89 436.594 1430.66 438.802 1431.02 441.013 C 1432.21 448.259 1447.84 500.566 1450.84 506.348 C 1457.49 519.165 1482.03 548.121 1483.63 559.232 C 1485.1 569.517 1492.42 578.837 1496.21 588.403 C 1497.9 592.659 1498.24 597.931 1498.99 602.444 C 1499.37 604.748 1499.56 607.582 1500.57 609.709 C 1501.53 611.741 1503.61 613.522 1505.23 615.036 C 1506.52 616.236 1506.68 616.838 1507.01 618.553 C 1508.26 625.055 1507.31 632.513 1507.96 639.177 C 1508.55 645.167 1510.49 650.836 1511.28 656.776 C 1511.57 658.94 1511.48 665.795 1512.4 667.388 C 1513.08 668.549 1514.19 669.392 1515.08 670.394 C 1515.55 676.047 1515.88 706.528 1514.14 710.243 C 1511.21 716.48 1513.74 720.782 1514.56 727.163 C 1514.87 729.546 1515.03 730.534 1513.48 732.495 L 1510.06 731.534 L 1510.23 733.503 C 1510.31 734.349 1510.33 735.201 1510.45 736.042 C 1511.39 742.706 1507.83 749.568 1505.74 755.91 C 1502.97 764.337 1501.53 774.11 1497.93 782.091 C 1490.59 798.357 1479.13 813.539 1473.65 830.438 L 1473.16 831.971 C 1462.87 840.223 1455.23 848.053 1447.01 858.34 C 1446.4 858.379 1445.78 858.391 1445.17 858.458 C 1441.25 858.89 1420.67 876.436 1417.37 880.607 C 1422.82 885.581 1431.28 891.799 1432.23 899.576 L 1427.38 906.131 C 1417.56 919.626 1378.32 952.938 1362.53 957.007 C 1360.67 957.487 1358.81 957.988 1356.95 958.45 C 1355.29 961.169 1350.64 965.585 1347.87 967.091 C 1346.9 968.254 1345.7 969.557 1345.2 971.028 C 1344.46 973.175 1344.73 975.772 1344.11 978.033 C 1342.24 984.915 1339.14 991.432 1337.58 998.406 C 1338.25 1000.86 1340.07 1004.26 1338.5 1006.57 C 1337.9 1007.46 1336.32 1008.59 1335.56 1009.24 C 1330.46 1024.62 1322.63 1041.1 1320.77 1057.18 C 1316.24 1061.52 1310.22 1071.2 1309.55 1077.45 C 1309.35 1079.32 1310.77 1080.26 1310.97 1081.91 C 1311.31 1084.76 1304.98 1094.87 1303.48 1098.06 C 1284.99 1137.21 1266.21 1175.4 1244.55 1212.94 C 1240.07 1220.69 1235.45 1231.03 1229.34 1237.36 C 1227.47 1239.3 1225.49 1241.15 1223.5 1242.97 C 1209.94 1244.33 1196.98 1242.86 1183.46 1242.7 C 1167.07 1242.5 1150.42 1242.93 1134 1243.02 L 895.832 1242.75 C 890.197 1242.8 834.632 1244.06 834.482 1244.02 C 833.682 1243.82 833.009 1243.27 832.273 1242.9 C 824.082 1246.95 778.286 1241.26 765.406 1243.08 C 766.227 1244.11 766.972 1244.71 768.004 1245.51 L 765.409 1245.87 C 765.124 1245.64 764.843 1245.41 764.554 1245.19 C 758.977 1240.95 751.2 1245.33 744.733 1244.91 C 739.725 1244.58 740.963 1241.33 734.51 1242.58 C 709.659 1247.43 680.426 1242.04 654.699 1242.44 C 648.71 1242.53 642.403 1245.2 636.662 1244.79 C 627.351 1244.12 618.348 1241.83 608.852 1242.04 C 593.289 1242.38 577.713 1243.74 562.112 1244.15 C 558.806 1244.24 554.845 1245.19 551.669 1244.67 C 551.322 1240.81 550.927 1238.2 548.326 1235.11 C 546.479 1232.92 544.941 1230.75 543.418 1228.33 C 544.216 1216.23 529.708 1194.7 526.375 1181.06 C 517.907 1172.81 506.17 1171.41 495.851 1166.47 A 170.064 170.064 0 0 1 447.468 1131.94 C 420.381 1104.48 406.379 1085.07 390.164 1050.5 C 384.875 1039.23 379.489 1027.63 375.731 1015.75 C 370.482 999.149 364.584 983.986 357.964 967.872 C 355.639 962.213 354.63 957.384 351.009 952.246 C 350.74 951.865 350.459 951.491 350.185 951.113 C 350.252 946.107 343.666 898.905 342.717 896.274 C 341.581 893.125 339.108 891.711 337.269 889.147 C 334.206 884.877 331.071 854.206 329.49 846.189 C 327.568 836.44 324.524 826.443 323.214 816.637 C 323.029 815.255 323.228 814.132 323.528 812.786 C 324.655 807.741 323.823 805.274 321.778 800.585 C 316.144 787.67 317.068 770.414 314.475 756.394 C 313.256 749.808 308.265 743.988 307.188 737.554 C 305.992 730.418 309.601 722.961 309.038 716.4 C 308.909 714.898 306.885 711.467 306.233 709.946 C 304.262 705.351 295.539 633.012 295.144 624.412 C 294.787 616.614 295.491 609.178 296.495 601.451 C 293.766 598.12 292.56 596.524 293.018 592.027 C 293.7 585.325 293.027 578.32 292.817 571.575 C 293.435 570.871 295.35 568.867 295.447 567.988 C 296.412 559.301 291.498 549.93 294.282 541.036 C 296.251 534.748 298.41 529.076 301.546 523.256 C 318.561 491.678 349.079 474.71 382.415 464.697 C 403.928 458.235 425.22 456.169 447.531 455.692 C 450.342 455.632 455.491 454.915 458.152 455.608 C 459.634 455.995 461.155 458.022 462.646 458.473 C 468.873 460.361 490.848 454.746 495.096 456.913 C 496.042 457.395 496.807 460.03 497.761 460.591 C 500.235 462.046 505.311 462.822 508.173 463.721 C 516.062 466.198 523.601 468.903 530.874 472.874 C 546.906 481.624 565.33 498.611 571.864 516.048 C 574.604 523.36 575.915 531.574 577.871 539.157 C 580.486 549.299 583.217 559.429 585.219 569.714 C 586.86 578.147 587.389 586.57 589.931 594.82 L 590.394 596.297 C 594.48 582.192 601.21 566.446 608.652 553.837 C 610.185 551.24 613.99 550.808 615.033 548.193 C 615.544 546.911 614.105 543.691 614.453 542.216 C 614.935 540.174 622.521 533.06 624.163 530.965 C 631.699 521.353 637.4 511.274 642.969 500.452 C 647.619 491.417 647.281 480.799 651.773 471.922 C 655.154 465.238 657.088 457.824 659.803 450.839 L 677.642 404.591 C 689.018 374.533 727.006 284.641 749.02 263.87 C 761.174 252.401 781.322 241.659 798.383 242.723 C 804.253 243.089 810.368 246.557 816.083 248.077 C 850.996 257.362 877.805 281.548 900.908 308.29 C 906.584 314.86 912.534 321.317 917.518 328.44 C 928.603 344.284 937.885 361.573 948.613 377.721 C 951.02 381.345 953.962 385.145 955.86 389.056 C 957.516 392.467 956.659 395.935 959.224 398.918 C 959.654 399.044 1047.49 394.366 1055.01 393.57 C 1055.35 393.742 1055.69 393.918 1056.04 394.087 C 1056.49 394.305 1056.95 394.502 1057.4 394.731 C 1062.51 397.363 1071.41 393.894 1077.23 393.942 C 1085.26 394.007 1092.35 395.854 1100.62 395.137 L 1102.62 394.954 z"/>
<path transform="translate(0,0)" fill="rgb(3,1,1)" d="M 501.719 508.51 C 508.35 508.87 510.52 511.141 515.235 515.475 C 518.718 525.495 519.771 536.712 521.342 547.182 C 522.949 557.89 525.517 569.707 518.536 579.155 C 516.604 580.511 514.446 581.8 512.041 582.082 C 510.51 582.261 509.005 582.003 507.775 581.08 C 506.443 580.081 505.562 579.04 504.986 577.468 C 503.566 573.594 503.655 569.079 502.596 565.069 C 501.622 561.379 499.574 558.386 498.89 554.539 L 500.812 551.976 A 190.453 190.453 0 0 1 497.655 536.238 C 496.011 525.792 495.239 517.446 501.719 508.51 z"/>
<path transform="translate(0,0)" fill="rgb(3,1,1)" d="M 427.958 505.995 C 431.168 506.435 433.711 506.722 436.551 508.443 C 437.955 511.463 438.436 514.483 438.899 517.763 C 440.337 527.966 446.448 571.32 440.439 577.838 C 438.025 580.458 434.484 580.342 431.167 580.628 C 429.108 580.022 427.769 579.382 426.459 577.588 C 420.292 569.143 416.153 523.17 418.448 513.095 C 418.992 510.709 419.6 509.427 421.657 508.035 L 425.614 508.968 L 427.958 505.995 z"/>
<path transform="translate(0,0)" fill="rgb(3,1,1)" d="M 345.267 520.998 C 348.904 520.981 351.968 520.706 355.246 522.45 C 362.438 531.052 362.54 564.044 363.08 576.329 C 363.512 586.174 363.136 593.512 356.187 600.985 C 353.577 601.045 351.155 600.615 348.982 599.062 C 342.096 594.143 340.573 576.999 339.704 569.032 C 338.317 556.329 337.053 531.281 345.267 520.998 z"/>
<path transform="translate(0,0)" fill="rgb(3,1,1)" d="M 1036.61 634.421 C 1044.11 632.476 1057.73 633.477 1064.45 637.308 C 1067.99 639.329 1070.65 642.474 1071.66 646.465 C 1072.66 650.397 1071.77 654.596 1069.72 658.045 C 1064.71 666.493 1054.85 669.148 1045.94 671.315 C 1040.77 671.226 1034.86 671.562 1029.95 669.835 C 1029.51 669.68 1029.07 669.5 1028.64 669.337 C 1025.75 668.259 1022.97 667.145 1020.29 665.595 C 1015.38 662.749 1009.1 657.622 1008.03 651.642 C 1007.38 648.047 1008.1 645.385 1010.43 642.579 C 1016.27 635.55 1028.23 635.067 1036.61 634.421 z"/>
<path transform="translate(0,0)" fill="rgb(3,1,1)" d="M 1255.98 711.102 C 1278.67 710.029 1357.21 730.957 1380.68 739.94 C 1389.78 743.421 1398.8 748.359 1406.99 753.621 C 1407.34 757.843 1408.17 762.068 1406.46 766.056 C 1404.22 768.414 1402.89 768.653 1399.84 769.33 C 1397.62 769.179 1394.93 769.151 1392.8 768.538 C 1387.43 766.994 1381.9 763.093 1376.78 760.699 C 1369.98 757.523 1362.87 755.089 1355.79 752.621 C 1331.7 744.219 1306.95 740.483 1282.2 734.622 C 1273.69 732.608 1253.3 734.58 1247.54 727.613 C 1246.01 725.765 1245.33 723.691 1245.84 721.318 C 1246.95 716.218 1251.66 713.182 1255.98 711.102 z"/>
<path transform="translate(0,0)" fill="rgb(3,1,1)" d="M 1291.25 672.477 C 1307.33 670.273 1377.43 678.12 1394.32 681.897 C 1399.39 683.031 1404.85 684.669 1409.06 687.799 C 1411.69 689.752 1412.77 691.548 1413.16 694.857 C 1412.44 697.612 1411.14 699.885 1408.86 701.664 C 1400.59 708.118 1379.97 698.64 1369.91 697.811 C 1369.53 697.779 1369.14 697.76 1368.75 697.735 C 1337.73 695.654 1306.72 692.315 1275.63 691.626 C 1267.27 691.44 1253.42 695.863 1246.36 691.594 C 1244.11 690.232 1242.85 687.929 1242.55 685.369 C 1242.22 682.45 1242.16 679.749 1243.93 677.286 C 1254.08 669.991 1278.66 672.647 1291.25 672.477 z"/>
<path transform="translate(0,0)" fill="rgb(3,1,1)" d="M 839.289 711.398 C 841.549 710.88 844.526 710.65 846.825 710.9 C 851.603 711.419 854.603 713.824 857.643 717.326 C 858.274 719.96 858.252 721.541 857.069 724.062 C 855.224 727.99 852.787 729.451 848.592 730.128 C 817.585 735.126 787.268 741.302 757.197 750.67 C 739.7 756.121 722.806 763.299 705.259 768.665 L 704.302 769.04 C 700.683 770.43 696.783 772.062 693.068 769.93 C 691.012 768.75 689.442 766.961 689.094 764.56 C 688.675 761.675 690.161 758.832 691.973 756.688 C 707.705 738.075 812.314 713.461 839.289 711.398 z"/>
<path transform="translate(0,0)" fill="rgb(88,42,246)" d="M 613.996 795.572 C 612.7 793.098 611.363 790.594 610.506 787.928 C 609.346 784.32 607.989 778.662 609.726 775.122 C 615.355 777.283 625.43 797.774 629.066 803.511 C 640.779 821.997 652.78 838.17 669.228 852.868 C 677.498 860.258 687.065 865.863 693.729 874.926 C 689.636 879.254 686.037 884.298 681.882 888.461 C 675.944 885.791 669.409 884.98 663.275 882.758 C 653.599 879.252 643.983 874.161 634.078 871.5 C 632.274 871.016 630.729 871.179 628.936 871.547 C 627.647 871.811 626.742 871.67 625.473 871.378 C 623.572 868.624 622.119 865.874 620.722 862.841 C 618.036 857.009 616.626 854.959 619.027 848.668 C 619.864 846.474 617.414 841.849 616.824 839.372 C 615.441 833.57 616.532 826.959 616.504 821.011 C 615.83 820.252 615.149 819.498 614.51 818.709 C 610.988 814.366 613.427 801.312 613.996 795.572 z"/>
<path transform="translate(0,0)" fill="rgb(3,1,1)" d="M 764.571 674.479 C 791.463 671.615 819.513 676.375 846.51 674.811 C 851.151 677.344 854.212 678.704 856.194 683.85 C 857.541 687.346 857.646 689.255 856.053 692.645 C 853.972 694.27 852.404 695.19 849.759 695.585 C 837.408 697.428 823.404 695.609 810.917 695.154 C 798.494 694.702 786.173 694.882 773.751 695.264 C 745.579 693.408 720.015 703.172 693.746 703.89 C 691.6 703.949 688.646 703.631 686.898 702.225 C 684.416 700.23 684.263 698.463 683.831 695.494 C 683.47 693.008 682.988 691.318 684.792 689.276 C 692.33 680.745 751.233 675.416 764.571 674.479 z"/>
<path transform="translate(0,0)" fill="rgb(249,208,28)" d="M 879.993 543.242 C 886.566 540.096 900.499 543.996 907.117 546.298 C 929.919 554.23 953.007 570.439 963.385 593.008 C 964.753 595.984 966.052 599.391 965.365 602.684 C 954.701 616.573 902.939 634.908 885.859 637.084 C 883.233 637.419 880.848 637.791 878.319 636.832 C 881.415 634.123 884.318 631.363 886.817 628.078 C 897.931 613.467 902.218 592.462 899.636 574.456 C 897.606 560.298 891.234 551.404 879.993 543.242 z"/>
<path transform="translate(0,0)" fill="rgb(249,208,28)" d="M 1267.25 548.237 C 1283.78 548.015 1311.46 571.376 1322.72 582.324 C 1333.15 592.461 1354.16 612.392 1354.81 627.43 C 1354.91 629.648 1354.3 631.172 1353.41 633.164 C 1345.02 641.047 1290.84 643.426 1276.85 643.022 C 1270.69 642.844 1258.63 643.056 1253.19 640.541 C 1260.76 637.494 1266.72 633.532 1272.12 627.335 C 1281.61 616.451 1287.63 601.767 1286.41 587.269 C 1285.09 571.509 1279.46 558.414 1267.25 548.237 z"/>
<path transform="translate(0,0)" fill="rgb(249,208,28)" d="M 1117.19 604.334 C 1122.02 585.648 1136.65 567.23 1153.09 557.112 C 1169.1 547.253 1177.86 544.871 1195.23 540.326 C 1199.31 539.26 1201.91 537.333 1206.15 538.342 C 1194.2 547.657 1187.91 564.781 1186.11 579.592 C 1184.23 595.097 1189.9 612.989 1199.76 625.078 C 1204.14 630.451 1208.95 633.446 1215.05 636.493 C 1199.1 639.824 1161.44 626.744 1146.54 619.534 C 1136.57 614.712 1127.81 607.755 1117.19 604.334 z"/>
<path transform="translate(0,0)" fill="rgb(249,208,28)" d="M 828.934 639.917 C 827.143 641.867 825.807 643.346 823.087 643.964 C 815.559 645.675 752.657 644.282 742.945 642.893 C 738.802 642.3 734.41 641.245 731.039 638.629 C 728.924 636.988 727.362 634.694 727.241 631.942 C 727.001 626.478 732.185 621.185 734.751 616.67 C 741.475 604.841 744.932 592.616 755.385 583.083 C 768.085 571.502 809.987 543.395 826.911 544.074 C 813.772 553.489 806.782 568.267 804.14 584.006 C 801.602 599.132 805.192 613.621 814.155 625.948 C 817.122 630.028 820.389 633.088 824.341 636.227 L 828.934 639.917 z"/>
<path transform="translate(0,0)" fill="rgb(3,1,1)" d="M 1037.75 697.875 C 1040.36 697.789 1042.76 697.736 1045.04 699.217 C 1049.51 702.119 1053.43 707.976 1056.97 712.073 C 1066.05 722.579 1078.19 730.945 1090.92 736.466 C 1107.17 743.514 1131.78 743.14 1147.04 733.78 C 1153.3 729.939 1159.42 723.701 1166.34 721.221 C 1168.96 720.28 1170.73 720.222 1173.22 721.639 C 1175.94 723.18 1178.29 725.271 1178.84 728.519 C 1179.49 732.421 1177.41 736.301 1175.1 739.267 C 1165.25 751.873 1146.24 760.651 1130.61 762.634 C 1099.37 766.599 1074.83 753.711 1050.97 735.297 C 1049.65 734.196 1043.02 727.846 1041.98 727.746 C 1041.45 727.695 1040.93 727.964 1040.46 728.213 C 1036.02 730.561 1030.94 736.536 1026.9 739.858 C 1011.48 752.541 990.706 762.572 970.532 763.713 C 947.48 765.017 927.419 757.494 910.442 742.289 C 910.299 738.506 909.616 732.974 912.154 729.799 C 914.155 727.295 916.795 727.258 919.726 727.838 C 923.355 728.556 927.014 731.08 930.261 732.844 C 940.862 738.605 951.163 742.552 963.389 742.502 C 1000.93 742.349 1013.96 721.356 1037.75 697.875 z"/>
<path transform="translate(0,0)" fill="rgb(3,1,1)" d="M 826.911 544.074 C 832.077 541.187 837.23 538.788 843.087 537.706 C 854.909 535.522 869.87 536.302 879.993 543.242 C 891.234 551.404 897.606 560.298 899.636 574.456 C 902.218 592.462 897.931 613.467 886.817 628.078 C 884.318 631.363 881.415 634.123 878.319 636.832 C 864.61 644.651 852.533 646.721 837.028 642.477 C 834.289 641.728 831.597 640.902 828.934 639.917 L 824.341 636.227 C 820.389 633.088 817.122 630.028 814.155 625.948 C 805.192 613.621 801.602 599.132 804.14 584.006 C 806.782 568.267 813.772 553.489 826.911 544.074 z"/>
<path transform="translate(0,0)" fill="rgb(3,1,1)" d="M 1206.15 538.342 C 1210.36 534.35 1221.03 532.264 1226.84 532.35 C 1240.22 532.546 1257.83 538.735 1267.25 548.237 C 1279.46 558.414 1285.09 571.509 1286.41 587.269 C 1287.63 601.767 1281.61 616.451 1272.12 627.335 C 1266.72 633.532 1260.76 637.494 1253.19 640.541 C 1240.56 644.446 1226.93 641.402 1215.05 636.493 C 1208.95 633.446 1204.14 630.451 1199.76 625.078 C 1189.9 612.989 1184.23 595.097 1186.11 579.592 C 1187.91 564.781 1194.2 547.657 1206.15 538.342 z"/>
<path transform="translate(0,0)" fill="rgb(97,24,48)" d="M 792.153 288.531 C 793.774 289.364 795.408 289.937 797.183 290.371 C 798.66 290.733 799.903 290.918 801.328 291.458 C 828.765 301.859 842.93 325.41 857.616 349.001 C 861.585 355.377 866.673 361.321 870.171 367.957 C 873.361 374.009 875.814 381.159 878.36 387.541 C 879.934 391.488 880.591 392.153 878.883 396.197 C 881.271 398.8 884.5 402.045 885.004 405.704 C 885.256 407.53 884.684 410.086 883.28 411.393 C 879.816 414.619 832.47 427.517 824.767 429.238 C 822.139 429.825 815.538 430.277 813.473 431.619 C 812.604 432.185 811.261 434.555 810.566 435.478 C 807.038 435.982 807.212 433.17 803.992 432.403 C 803.007 434.584 802.34 436.281 800.6 437.978 C 796.345 439.249 790.089 442.623 786.035 443.229 C 785.284 443.341 782.899 442.409 782.038 442.184 C 780.311 443.616 779.127 444.747 776.963 445.429 C 770.791 447.375 764.839 450.765 758.766 453.148 C 751.421 456.03 743.228 458.063 736.211 461.607 C 734.507 462.468 733.26 463.688 731.916 465.024 C 731.587 465.352 731.285 465.709 730.933 466.013 C 726.66 469.689 719.986 469.474 714.628 468.18 C 712.598 467.69 711.508 465.865 710.783 464.046 C 704.689 448.751 726.299 397.29 733.85 381.831 C 733.537 381.018 732.232 378.192 732.36 377.493 C 733.019 373.901 755.023 327.385 758.533 321.854 C 760.704 318.432 770.991 307.194 771.481 304.742 C 771.739 303.449 770.478 302.075 770.918 299.884 C 776.306 294.143 784.736 290.741 792.153 288.531 z"/>
<path transform="translate(0,0)" fill="rgb(97,24,48)" d="M 1266.76 280.546 C 1266.98 280.562 1267.22 280.509 1267.42 280.594 C 1281.11 286.385 1287.69 285.232 1299.91 296.862 C 1312.88 309.207 1321.93 325.96 1330.31 341.564 C 1330.9 342.678 1333.69 346.93 1333.73 347.993 C 1333.81 349.918 1331.94 349.853 1333.06 352.319 C 1334.75 356.043 1340.25 359.255 1342.47 363.109 C 1345.77 368.827 1364.45 414.449 1364.54 418.566 L 1361.84 419.918 L 1362.29 421.837 C 1363.62 421.274 1363.08 421.582 1364.36 420.692 C 1364.67 420.474 1364.98 420.249 1365.28 420.028 C 1369.7 423.889 1376.37 447.49 1377.39 454.027 C 1377.85 456.95 1378.36 460.322 1376.56 462.867 C 1365.64 464.649 1314.84 442.426 1302.18 437.314 L 1301.43 436.698 C 1298.76 437.553 1295.75 437.764 1293 437.124 C 1287.2 435.778 1280.94 432.4 1275.19 430.483 C 1265.82 427.356 1256.03 425.66 1246.5 423.106 C 1240.8 421.58 1234.78 418.932 1229.01 418.116 C 1227.34 417.88 1226.73 418.979 1225.47 419.961 C 1221.47 419.972 1216.67 415.162 1212.31 413.966 L 1211.89 416.018 C 1209.99 416.664 1177.99 406.722 1175.27 405.501 C 1172.44 404.227 1170.4 403.166 1169.34 400.197 C 1174.01 372.312 1222.27 322.774 1240.41 298.389 C 1247.39 289.016 1255.08 282.163 1266.76 280.546 z"/>
<path transform="translate(0,0)" fill="rgb(97,24,48)" d="M 460.827 615.654 C 468.07 615.586 472.25 617.777 478.426 621.149 C 479.928 620.654 481.284 620.141 482.71 619.44 C 483.141 619.228 483.566 619.004 483.993 618.786 C 488.008 619.716 490.293 624.149 493.887 626.262 L 497.135 625.001 C 506.686 627.323 519.132 638.333 524.333 646.334 C 527.927 651.861 529.843 657.96 533.826 663.409 C 534.095 663.778 534.373 664.141 534.647 664.507 C 531.078 673.074 537.228 675.621 537.757 683.418 C 537.93 685.975 536.084 686.373 535.709 688.424 C 535.051 692.023 536.378 698.122 536.367 702.086 C 536.342 710.514 529.89 723.377 523.902 729.378 C 523.42 729.272 522.936 729.172 522.456 729.061 C 521.93 728.939 521.406 728.806 520.882 728.679 C 514.886 737.922 508.723 746.78 497.654 750.344 C 493.557 751.663 490.454 752.22 487.125 755.287 C 486.493 755.87 485.861 756.454 485.195 756.997 L 484.296 757.716 C 479.309 761.774 468.676 759.097 462.322 760.602 C 457.296 761.793 453.248 762.405 448.155 761.309 C 445.843 760.933 444.547 761.957 442.453 762.881 C 416.787 758.629 399.401 758.262 378.921 739.447 C 374.328 735.228 366.847 727.543 366.544 721.234 C 372.25 712.444 362.615 710.974 363.039 701.52 C 363.233 697.172 362.877 679.678 364.395 676.748 C 365.039 675.505 368.576 673.001 368.761 671.928 C 369.623 666.916 365.522 665.702 368.997 659.437 C 381.964 636.053 410.959 619.91 437.025 617.444 C 442.389 616.936 455.864 617.524 459.564 616.177 C 459.992 616.022 460.406 615.828 460.827 615.654 z"/>
<path transform="translate(0,0)" fill="rgb(246,40,105)" d="M 693.729 874.926 C 694.065 875.022 694.403 875.109 694.737 875.215 C 702.465 877.664 720.059 891.731 729.021 896.963 C 741.673 904.351 756.216 910.863 769.644 916.79 C 803.795 931.865 840.865 940.008 877.111 948.016 C 900.405 953.162 924.247 958.645 947.86 961.922 C 958.354 963.378 969.033 963.369 979.558 964.609 C 992.914 966.183 1006.82 970.25 1020.31 968.682 L 1021.97 967.498 C 1023.79 966.228 1025.72 965.105 1027.93 964.701 C 1028.56 957.905 1028.32 946.036 1034.14 941.414 C 1035.99 939.949 1039.19 938.895 1041.54 939.634 C 1043.64 940.293 1045.68 941.577 1047.6 942.649 C 1057.29 958.934 1053.5 960.601 1056.83 976.279 C 1056.67 972.982 1056.53 970.254 1057.47 967.065 C 1058.89 966.57 1113.93 969.978 1123.16 969.557 C 1176.47 967.134 1261.53 953.048 1311.02 932.917 A 690.447 690.447 0 0 0 1356.27 913.138 C 1365.15 908.893 1374.93 902.414 1384.28 899.751 C 1384.64 899.65 1385 899.56 1385.35 899.465 L 1387.21 894.946 C 1390.82 891.9 1396.44 892.779 1400.93 892.782 C 1404.71 889.87 1408.12 886.129 1412.26 883.746 C 1414.01 882.737 1415.67 881.701 1417.37 880.607 C 1422.82 885.581 1431.28 891.799 1432.23 899.576 L 1427.38 906.131 C 1417.56 919.626 1378.32 952.938 1362.53 957.007 C 1360.67 957.487 1358.81 957.988 1356.95 958.45 C 1355.29 961.169 1350.64 965.585 1347.87 967.091 C 1346.9 968.254 1345.7 969.557 1345.2 971.028 C 1344.46 973.175 1344.73 975.772 1344.11 978.033 C 1342.24 984.915 1339.14 991.432 1337.58 998.406 C 1338.25 1000.86 1340.07 1004.26 1338.5 1006.57 C 1337.9 1007.46 1336.32 1008.59 1335.56 1009.24 C 1330.46 1024.62 1322.63 1041.1 1320.77 1057.18 C 1316.24 1061.52 1310.22 1071.2 1309.55 1077.45 C 1309.35 1079.32 1310.77 1080.26 1310.97 1081.91 C 1311.31 1084.76 1304.98 1094.87 1303.48 1098.06 C 1284.99 1137.21 1266.21 1175.4 1244.55 1212.94 C 1240.07 1220.69 1235.45 1231.03 1229.34 1237.36 C 1227.47 1239.3 1225.49 1241.15 1223.5 1242.97 C 1209.94 1244.33 1196.98 1242.86 1183.46 1242.7 C 1167.07 1242.5 1150.42 1242.93 1134 1243.02 L 895.832 1242.75 C 890.197 1242.8 834.632 1244.06 834.482 1244.02 C 833.682 1243.82 833.009 1243.27 832.273 1242.9 C 828.313 1233.33 821.842 1223.8 817.097 1214.41 C 809.468 1199.3 802.256 1182.27 795.688 1166.62 C 792.494 1159.01 790.632 1150.88 788.158 1143.02 C 783.503 1128.22 778.833 1113.53 774.434 1098.65 C 759.867 1049.38 739.948 1000.34 742.734 948.063 C 738.017 942.907 731.175 938.618 725.588 934.321 C 711.979 923.855 687.387 905.1 681.882 888.461 C 686.037 884.298 689.636 879.254 693.729 874.926 z"/>
<path transform="translate(0,0)" fill="rgb(249,208,28)" d="M 1027.93 964.701 C 1028.56 957.905 1028.32 946.036 1034.14 941.414 C 1035.99 939.949 1039.19 938.895 1041.54 939.634 C 1043.64 940.293 1045.68 941.577 1047.6 942.649 C 1057.29 958.934 1053.5 960.601 1056.83 976.279 C 1056.95 982.944 1056.75 989.468 1058.42 995.967 C 1075.93 1001.28 1090.41 1006.21 1103.16 1020.04 C 1115.46 1032.06 1129.19 1059.45 1130.22 1076.88 C 1131.25 1094.58 1123.25 1114.42 1111.52 1127.57 C 1088.1 1153.85 1052.76 1151.44 1021.11 1153.11 C 1004.33 1143.34 984.787 1138.47 970.784 1124.19 C 961.342 1114.57 952.001 1087.73 952.145 1074.41 C 952.386 1051.99 960.126 1034.83 976 1019.26 C 983.664 1012.85 991.174 1006.81 1000.7 1003.38 C 1006.93 1001.14 1017.99 1002.2 1022.94 998.304 C 1029.98 992.757 1027.85 972.825 1027.93 964.701 z"/>
</svg>