<svg version="1.1" xmlns="http://www.w3.org/2000/svg" style="display: block;" viewBox="0 0 2048 2048" width="1024" height="1024">
<path transform="translate(0,0)" fill="rgb(255,196,39)" d="M 0 0 L 2048 0 L 2048 1770.53 L 2048 1772.61 L 2048 2045.97 L 2048 2048 L 1.38229 2048 L 0 2048 L 0 1779.58 L 0 0 z"/>
<path transform="translate(0,0)" fill="rgb(19,31,39)" d="M 1086.43 329.136 L 1087.39 327.881 C 1097.25 314.961 1104.97 300.117 1113.19 286.117 C 1139.25 241.688 1174.99 177.918 1231.3 170.341 C 1255.29 167.114 1278.36 174.051 1297.39 188.761 C 1319.43 205.796 1331.37 228.562 1334.73 255.987 C 1337.42 277.866 1336.41 300.993 1336.62 323.086 L 1338.11 404.09 C 1338.28 421.633 1337.64 440.552 1339.93 457.92 C 1385.61 523.122 1407.38 590.129 1393.29 670.074 C 1383.58 725.152 1353.75 770.807 1314.21 809.19 C 1382.89 853.987 1426.36 928.047 1443.04 1007.24 C 1452.9 1054.12 1451.96 1100.05 1450.97 1147.66 C 1484.46 1148.65 1517.87 1166.76 1540.49 1190.9 A 148.819 148.819 0 0 1 1579.98 1297.61 C 1578.43 1338.28 1573.21 1379.66 1568.62 1420.12 C 1566.88 1435.54 1564.26 1451.12 1563.36 1466.59 C 1586.5 1434.14 1608.5 1406.63 1650.45 1399.8 C 1681.33 1394.78 1713.7 1405.73 1738.51 1423.96 C 1815 1480.17 1849.18 1588.06 1872.56 1675.91 C 1880.68 1706.42 1889.19 1737.35 1893.68 1768.64 L 1893.9 1770.24 L 2048 1770.53 L 2048 1772.61 L 2048 2045.97 L 2048 2048 L 1.38229 2048 L 0 2048 L 0 1779.58 L 1.89384 1774.95 C 1.95097 1773.74 2.26286 1772.43 2.46024 1771.24 C 6.53882 1768.68 139.998 1770.37 155.279 1770.39 C 175.537 1769.65 196.02 1770.36 216.312 1770.4 L 335.646 1770.62 C 337.965 1734.43 349.348 1692.02 371.968 1663.02 C 395.967 1632.25 432.329 1617.81 470.867 1623.68 C 492.588 1626.98 514.085 1634.91 535.13 1641.14 C 539.776 1642.51 550.618 1646.87 554.982 1645.89 C 555.287 1645.82 555.566 1645.66 555.858 1645.55 C 558.48 1643.27 561.076 1641.24 563.998 1639.36 C 554.897 1610.05 551.132 1578.47 545.576 1548.3 A 4455.63 4455.63 0 0 1 527.687 1442.85 C 520.495 1399.06 512.433 1354.83 513.786 1310.24 C 514.744 1278.66 519.858 1247.36 534.79 1219.17 C 551.247 1188.1 579.537 1162.96 613.523 1152.86 C 642.719 1144.19 677.179 1147.3 704.927 1159.66 A 847.962 847.962 0 0 1 704.881 1126.15 C 638.609 1108.79 589.897 1077.82 554.556 1017.76 C 535.415 985.238 523.29 942.688 522.968 904.853 C 522.733 877.317 530.372 850.229 536.184 823.496 L 559.094 720.776 C 568.261 679.331 574.993 637.357 584.418 595.966 C 573.003 590.16 564.284 583.515 560.245 570.692 C 557.338 561.461 557.833 551.524 562.54 542.973 C 567.333 534.27 574.517 529.564 583.132 525.187 A 2657.57 2657.57 0 0 1 583.046 476.684 C 583.127 467.139 583.914 456.912 582.947 447.452 C 581.743 435.675 576.483 425.181 573.514 413.856 C 565.867 384.685 574.393 351.969 595.475 330.466 C 610.008 315.642 624.985 312.018 643.876 305.408 C 658.48 300.298 669.873 295.955 685.613 295.887 C 714.774 295.762 753.349 309.432 774.09 330.281 C 790.773 347.05 799.097 368.397 798.715 392.01 C 798.432 409.563 790.257 423.945 787.763 440.727 C 785.403 456.608 787.435 474.406 787.044 490.594 C 793.176 480.652 799.217 470.554 805.928 460.991 C 806.967 410.934 806.781 360.751 807.49 310.668 C 807.802 288.708 804.532 265.277 810.16 243.854 C 814.836 226.055 824.925 210.163 838.154 197.482 A 98.1267 98.1267 0 0 1 908.865 169.641 C 937.9 170.357 962.002 188.219 981.115 208.665 C 1014.29 244.158 1036.35 289.037 1064.05 328.722 A 712.789 712.789 0 0 1 1086.43 329.136 z"/>
<path transform="translate(0,0)" fill="rgb(70,170,160)" d="M 1.89384 1774.95 L 1.69998 1968.99 L 1.87573 2022.16 C 1.8981 2030.26 3.02731 2040.19 1.38229 2048 L 0 2048 L 0 1779.58 L 1.89384 1774.95 z"/>
<path transform="translate(0,0)" fill="rgb(35,163,247)" d="M 1431.07 1499.84 C 1453.91 1507.26 1468.29 1518.2 1479.35 1539.81 L 1465.52 1546.9 A 1465.76 1465.76 0 0 0 1441.88 1559.95 C 1439.26 1549.01 1432.82 1538.85 1430.85 1527.99 C 1429.27 1519.27 1430.73 1508.67 1431.07 1499.84 z"/>
<path transform="translate(0,0)" fill="rgb(253,61,62)" d="M 780.181 734.78 C 791.066 760.664 805.304 780.032 823.535 801.127 C 820.008 803.402 816.04 805.111 812.272 806.956 C 801.479 812.034 790.026 816.013 778.781 819.968 C 779.658 791.571 778.964 763.199 780.181 734.78 z"/>
<path transform="translate(0,0)" fill="rgb(255,196,39)" d="M 1071.1 993.191 C 1078.47 992.322 1084.46 992.238 1090.9 996.404 C 1096.98 1000.33 1101 1006.64 1102.34 1013.72 C 1103.75 1021.17 1102.28 1029.26 1097.87 1035.47 C 1093.58 1041.51 1089.35 1043.51 1082.23 1044.87 C 1077.7 1045.22 1072.62 1045.51 1068.22 1044.16 C 1061.94 1042.23 1056.7 1037.52 1053.8 1031.66 C 1050.48 1024.95 1049.95 1016.75 1052.69 1009.75 C 1056.14 1000.93 1062.77 996.715 1071.1 993.191 z"/>
<path transform="translate(0,0)" fill="rgb(255,196,39)" d="M 1060.78 1045.84 C 1072.32 1045.92 1077.2 1048.27 1089.86 1046.12 C 1096.46 1048.93 1103.34 1050.98 1109.87 1053.98 C 1128.32 1062.45 1142.51 1076.97 1154.9 1092.69 C 1141.41 1085.92 1128.71 1081.12 1113.86 1078.25 C 1078.71 1073.5 1047.5 1074.88 1014.93 1089.86 C 1024.95 1069.91 1040.31 1054.77 1060.78 1045.84 z"/>
<path transform="translate(0,0)" fill="rgb(254,254,255)" d="M 784.651 442.698 C 786.861 452.7 785.304 465.572 785.011 475.845 C 784.537 492.421 783.897 508.738 785.106 525.302 C 755.367 522.043 722.804 524.156 692.788 524.134 C 657.178 524.108 620.971 522.475 585.439 524.279 C 584.937 505.67 585.191 486.986 585.111 468.367 C 585.082 461.128 585.366 453.873 585.542 446.635 C 595.12 462.273 606.375 475.04 621.594 485.433 C 646.049 502.133 674.481 509.411 703.743 503.59 C 740.149 496.348 764.713 472.366 784.651 442.698 z"/>
<path transform="translate(0,0)" fill="rgb(35,163,247)" d="M 1442.94 1562.34 C 1471.36 1543.92 1500.97 1531.17 1535.05 1528.57 C 1519.28 1568.81 1494.4 1646.24 1452.49 1664.07 C 1440.45 1669.2 1419.42 1669.52 1406.2 1667.63 L 1404.16 1666.21 L 1406.21 1664.95 C 1413.31 1663.96 1421.45 1655.52 1425.52 1650.12 C 1442.23 1627.95 1448.7 1594.61 1444.07 1567.5 A 60.1752 60.1752 0 0 0 1442.94 1562.34 z"/>
<path transform="translate(0,0)" fill="rgb(255,196,39)" d="M 1073.51 1078.42 C 1096.64 1076.63 1124.99 1079.98 1145.87 1090.67 C 1163.38 1099.63 1166.7 1113.17 1172.34 1130.32 C 1144.15 1135.42 1116.35 1138.74 1087.77 1140.85 C 1054.23 1141.95 1020.49 1139.37 987.013 1141.99 C 989.775 1127.43 995.387 1113.42 1005.24 1102.18 C 1022.33 1082.7 1049.2 1079.91 1073.51 1078.42 z"/>
<path transform="translate(0,0)" fill="rgb(254,254,255)" d="M 1241.21 171.376 C 1264.64 172.21 1285.24 179.711 1302.59 195.725 C 1315.82 207.936 1324.85 222.521 1329.56 239.926 C 1337.43 269.091 1334.28 302.366 1334.65 332.362 A 4302.89 4302.89 0 0 0 1337.43 455.374 C 1333.79 451.348 1330.51 446.937 1327.13 442.688 C 1325.56 395.549 1325.52 348.336 1324.22 301.189 C 1323.06 259.337 1324.63 230.635 1292.31 200.057 C 1287.91 196.789 1283.53 194.082 1278.41 192.061 C 1264.48 186.564 1249.39 186.469 1235.64 192.656 C 1202.21 207.695 1187.53 248.321 1174.13 279.653 A 1121.25 1121.25 0 0 0 1150.93 337.22 C 1130.6 332.266 1109.38 330.807 1088.57 329.406 C 1114.28 292.415 1133.16 250.783 1162.35 216.11 C 1183.41 191.093 1208.14 174.165 1241.21 171.376 z"/>
<path transform="translate(0,0)" fill="rgb(254,254,255)" d="M 897.893 172.366 C 905.609 171.575 913.845 171.787 921.484 173.167 C 981.41 183.991 1029.01 281.463 1061.72 328.891 C 1038.42 330.46 1015.81 333.233 992.886 337.672 A 408.032 408.032 0 0 0 963.198 254.062 C 951.284 229.746 934.987 198.857 907.261 189.989 C 890.959 184.774 876.174 188.88 861.634 196.39 C 855.926 199.884 850.801 203.559 846.094 208.349 C 835.224 219.413 827.301 234.125 823.723 249.199 C 818.13 272.763 820.471 300.074 820.354 324.277 L 820.195 443.3 C 815.983 448.406 812.018 453.694 808.027 458.974 C 808.584 433.997 808.118 409.047 808.357 384.072 C 808.582 360.552 809.493 337.022 809.604 313.509 C 809.7 293.222 806.981 271.364 810.703 251.363 A 94.2825 94.2825 0 0 1 829.22 210.37 C 846.853 187.885 869.718 175.7 897.893 172.366 z"/>
<path transform="translate(0,0)" fill="rgb(255,196,39)" d="M 589.453 526.252 C 623.171 524.529 657.643 525.931 691.454 525.953 C 718.603 525.971 747.057 524.258 774.014 526.56 C 780.12 527.082 786.04 527.907 791.298 531.305 C 798.6 536.024 803.429 543.932 805.117 552.388 C 807.016 561.901 805.392 571.871 799.808 579.858 C 795.055 586.658 788.531 591.718 780.249 593.095 C 743.78 595.376 706.358 593.735 669.795 593.791 L 622.239 593.91 C 612.737 594.023 602.793 594.794 593.327 594.065 C 587.427 593.61 581.77 592.101 576.715 588.963 C 568.455 583.837 562.977 575.293 561.156 565.804 C 559.385 556.58 561.256 546.911 566.889 539.321 C 572.596 531.631 580.17 527.747 589.453 526.252 z"/>
<path transform="translate(0,0)" fill="rgb(255,196,39)" d="M 1168.95 1133.36 L 1171.95 1133.2 C 1175.23 1136.33 1175.42 1140.53 1175.78 1144.87 C 1177.94 1170.86 1171.38 1196.25 1154.31 1216.29 C 1138.42 1234.96 1114.3 1248.14 1089.77 1250.05 C 1062.53 1252.18 1039.63 1242.95 1019.2 1225.4 C 1018.6 1224.81 1017.99 1224.24 1017.41 1223.64 C 994.757 1200.08 986.382 1176.38 986.79 1144.1 C 1017.76 1143.7 1049.11 1144.92 1080 1143.65 C 1110.09 1142.41 1139.3 1138.52 1168.95 1133.36 z"/>
<path transform="translate(0,0)" fill="rgb(35,163,247)" d="M 1033.03 1542.41 C 1094.11 1535.78 1145.83 1567.86 1194.65 1599.58 C 1195.5 1606.53 1196.47 1613.55 1198.28 1620.31 C 1204.18 1642.41 1214.91 1656.53 1234.67 1668.04 L 1151.04 1668.44 C 1133.15 1668.51 1113.64 1669.75 1096.26 1664.97 C 1069.66 1657.65 1045.59 1637.35 1022.77 1622.3 C 997.685 1605.76 972.576 1589.36 947.904 1572.2 C 973.928 1555.92 1002.47 1545.48 1033.03 1542.41 z"/>
<path transform="translate(0,0)" fill="rgb(253,61,62)" d="M 1252.61 190.288 C 1254.74 190.075 1256.84 189.924 1258.98 189.955 C 1273.67 190.163 1286.72 197.099 1296.85 207.335 C 1306.99 217.589 1313.5 229.875 1317.07 243.81 C 1323.81 270.183 1321.76 304.09 1322.28 331.5 C 1322.95 367.016 1324.13 402.488 1323.98 438.013 C 1309.44 420.52 1291.35 405.055 1273.38 391.257 C 1239.39 363.808 1195.06 347.197 1152.89 337.338 C 1163.24 308.325 1188.03 245.942 1204.97 222.332 C 1217.1 205.426 1231.7 193.603 1252.61 190.288 z"/>
<path transform="translate(0,0)" fill="rgb(253,61,62)" d="M 885.666 190.216 C 897.043 188.911 907.915 191.352 917.705 197.322 C 955.357 220.28 980.051 296.38 990.855 338.117 C 951.239 346.689 913.404 365.262 880.461 388.548 C 856.94 405.893 843.364 418.545 822.884 439.736 C 821.818 404.271 822.904 368.528 822.958 333.035 C 822.996 307.852 820.641 280.389 824.72 255.605 A 86.9112 86.9112 0 0 1 837.758 222.01 C 849.317 204.435 865.256 194.403 885.666 190.216 z"/>
<path transform="translate(0,0)" fill="rgb(253,61,62)" d="M 553.552 752.215 C 557.39 754.035 561.292 755.777 565.023 757.811 C 602.494 778.238 626.808 819.853 638.302 859.731 C 658.383 929.403 644.897 1005.95 610.381 1068.59 L 605.779 1076.27 C 590.365 1061.94 576.241 1046.78 564.325 1029.35 C 550.354 1008.92 540.592 986.546 533.996 962.72 C 519.833 911.558 524.986 883.93 536.022 834.039 C 542.036 806.846 548.489 779.601 553.552 752.215 z"/>
<path transform="translate(0,0)" fill="rgb(254,254,255)" d="M 676.668 298.334 C 679.644 297.794 682.794 297.556 685.422 299.017 C 688.484 330.362 682.649 363.138 686.72 394.397 C 690.456 380.801 687.97 315.748 687.906 297.877 C 703.371 298.17 716.308 302.392 730.645 307.686 C 731.462 336.477 727.59 366.057 731.078 394.756 C 734.975 388.505 732.876 320.107 733.046 307.808 A 91.9072 91.9072 0 0 1 769.259 328.357 C 786.845 344.607 795.625 364.223 796.284 388.102 C 797.129 418.754 782.292 447.325 761.624 469.117 C 747.306 482.796 731.167 493.808 712.032 499.517 C 685.74 507.359 657 503.399 633.15 490.153 C 605.192 474.625 585.344 449.975 576.905 419.092 C 570.548 395.83 572.001 369.731 584.183 348.579 C 595.942 328.163 613.482 315.96 635.962 310.007 C 635.916 324.448 633.802 386.357 636.852 395.368 L 637.727 395.553 C 639.623 367.498 638.236 338.528 638.215 310.377 C 650.785 304.539 662.876 300.149 676.668 298.334 z"/>
<path transform="translate(0,0)" fill="rgb(253,61,62)" d="M 1312.82 810.86 C 1331.94 822.405 1348.44 837.922 1363.89 853.878 C 1339.94 874.075 1317.39 894.701 1291.34 912.331 C 1224.71 957.417 1137.5 984.543 1056.94 979.986 C 993.853 976.418 929.074 952.125 886.238 904.153 C 861.923 877.441 844.677 848.109 836.561 812.712 C 848.721 823.037 860.788 833.233 874.15 842.011 C 919.046 871.504 974.015 888.635 1027.18 894.367 C 1105.47 902.807 1190.43 889.096 1259.13 849.482 C 1278.42 838.357 1295.51 824.765 1312.82 810.86 z"/>
<path transform="translate(0,0)" fill="rgb(254,254,255)" d="M 1269.73 1653.92 C 1269.76 1635.39 1271.9 1615.07 1268.41 1596.89 C 1266.04 1605.54 1268.01 1631.9 1267.85 1642.6 C 1267.75 1649.59 1266.73 1658.64 1261.19 1663.61 C 1256.84 1667.51 1250.65 1669.22 1244.9 1668.73 C 1233.42 1667.74 1222.4 1659.84 1215.22 1651.14 C 1199.34 1631.9 1195.1 1601.63 1197.48 1577.59 C 1200.76 1544.47 1218.44 1513.33 1244.11 1492.39 C 1270.42 1470.91 1302.65 1461.9 1336.37 1465.4 C 1366.5 1468.53 1395.76 1486.06 1414.51 1509.57 C 1434.59 1534.76 1446.39 1568.12 1442.68 1600.37 C 1439.58 1627.34 1427.34 1648.36 1406.21 1664.95 L 1404.16 1666.21 C 1398.21 1668.75 1390.95 1670.72 1384.48 1669.44 C 1376.19 1667.81 1371.45 1662.64 1367.02 1655.84 C 1365.84 1636.71 1368.75 1616.36 1365.82 1597.51 L 1365.07 1597.61 C 1363.62 1609.93 1364.03 1622.91 1364.3 1635.3 C 1364.42 1641.13 1365.11 1647.65 1364.17 1653.4 C 1363.34 1658.53 1359.75 1663.55 1355.43 1666.35 C 1349.95 1669.91 1342.65 1670.48 1336.43 1668.78 C 1327.22 1666.27 1322.42 1660.93 1317.96 1652.86 C 1318.11 1635.42 1320.78 1569.66 1317.33 1557.37 C 1313.05 1565.95 1318.02 1634.91 1315.84 1650.75 C 1315.03 1656.61 1313.27 1660.7 1308.43 1664.33 C 1303.52 1668.01 1297.42 1670.42 1291.22 1669.48 C 1281.77 1668.04 1274.98 1661.41 1269.73 1653.92 z"/>
<path transform="translate(0,0)" fill="rgb(254,254,255)" d="M 1451 1149.65 C 1465.54 1149.96 1480.11 1154.13 1493.37 1159.98 A 144.1 144.1 0 0 1 1569.18 1241.25 A 137.67 137.67 0 0 1 1577.96 1285.88 C 1578.43 1300.04 1576.79 1314.28 1575.57 1328.38 A 4708.98 4708.98 0 0 1 1568.55 1400.47 C 1566.49 1420.86 1565.31 1450.16 1560.53 1468.94 C 1556.05 1486.55 1546.23 1504.11 1538.79 1520.67 C 1538.61 1521.13 1538.45 1521.61 1538.27 1522.07 C 1537.79 1523.23 1536.74 1525.65 1535.68 1526.43 C 1534.5 1527.29 1516.85 1528.72 1513.97 1529.22 A 155.177 155.177 0 0 0 1480.86 1538.95 C 1480.7 1538.6 1480.54 1538.24 1480.37 1537.9 C 1469.15 1515.58 1454.32 1505.31 1430.9 1497.82 C 1431.04 1477.48 1433.44 1456.95 1434.29 1436.6 C 1438.29 1340.89 1446.83 1245.41 1451 1149.65 z"/>
<path transform="translate(0,0)" fill="rgb(253,61,62)" d="M 1404.73 1074.33 C 1419.47 1072.44 1435.05 1074.36 1449.23 1078.62 A 2598.72 2598.72 0 0 1 1442.98 1267.03 C 1439.59 1321.06 1434.43 1375.01 1431.89 1429.09 C 1402.85 1429.14 1376.55 1418.67 1353.03 1402.13 C 1311.85 1370.55 1290.25 1331.11 1281.52 1280.17 C 1272.99 1230.44 1282.4 1174.63 1311.87 1133.15 C 1334.98 1100.62 1365.45 1080.88 1404.73 1074.33 z"/>
<path transform="translate(0,0)" fill="rgb(35,163,247)" d="M 838.287 1507.53 C 866.501 1494.08 893.455 1478.97 922.797 1467.89 C 977.797 1447.13 1036.38 1450.13 1091.08 1469.56 C 1123.56 1481.1 1153.41 1497.31 1183.74 1513.46 C 1192.47 1518.11 1202.54 1522.03 1210.59 1527.7 C 1210.6 1530.48 1209.2 1532.54 1207.91 1534.9 C 1198.49 1555.88 1194.52 1574.52 1194.98 1597.47 C 1138.61 1560.11 1084.22 1528.51 1013.45 1542.71 C 988.95 1547.63 967.213 1559.19 945.402 1570.86 C 903.212 1543.87 849.57 1511.71 797.31 1523.44 C 716.943 1541.49 708.229 1660.15 624.658 1661.62 C 615.429 1661.79 606.46 1659.92 597.486 1657.96 C 585.558 1655.36 568.906 1652.99 558.137 1647.39 C 556.906 1646.75 556.884 1646.56 555.858 1645.55 C 584.714 1635.87 640.596 1555.05 664.387 1529.32 C 684.898 1507.14 709.061 1485.71 737.162 1473.91 C 755.962 1466.02 775.384 1463.71 794.204 1473.08 C 811.173 1481.54 824.08 1495.35 838.287 1507.53 z"/>
<path transform="translate(0,0)" fill="rgb(253,61,62)" d="M 825.129 802.891 C 828.734 804.837 831.77 808.549 834.667 811.435 C 838.917 842.121 855.191 870.032 874.379 893.763 C 914.342 943.191 974.988 974.293 1038.07 980.731 C 1125.27 989.632 1218.36 964.111 1290.9 915.069 C 1317.61 897.011 1340.43 875.734 1365.3 855.525 C 1384.73 876.163 1400.04 900.998 1413.12 926.053 C 1392.39 947.618 1365.11 965.678 1340.08 981.878 C 1316.8 996.301 1293.07 1008.94 1267.75 1019.46 C 1228.03 1035.97 1186.9 1045.26 1144.18 1049.31 C 1132.05 1050.46 1119.27 1052.11 1107.18 1049.86 C 1102.17 1048.92 1097.25 1046.61 1092.56 1044.68 C 1092.7 1044.53 1092.85 1044.37 1093 1044.23 C 1099.32 1038.04 1104.32 1030.33 1105.45 1021.35 C 1106.4 1013.89 1104 1006.56 1099.16 1000.85 C 1094.15 994.935 1086.79 991.069 1079.01 990.694 C 1070.92 990.303 1062.15 993.347 1056.4 999.149 C 1050.79 1004.81 1048.64 1012.83 1048.93 1020.63 C 1049.27 1029.83 1053.27 1037.04 1059.92 1043.18 A 1656.91 1656.91 0 0 1 1038.99 1055.09 C 1025.75 1055.11 1012.58 1052.86 999.526 1050.81 C 941.211 1041.65 884.018 1019.09 840.868 977.755 C 796.335 935.099 780.053 882.534 778.99 822.333 C 794.789 817.106 810.542 810.92 825.129 802.891 z"/>
<path transform="translate(0,0)" fill="rgb(254,254,255)" d="M 955.973 1043.78 C 973.796 1048.7 991.688 1051.71 1009.94 1054.52 C 1002.55 1070.86 994.193 1086.13 983.691 1100.7 C 939.429 1162.12 874.092 1200.46 799.935 1212.49 C 814.453 1291.05 845.139 1369.24 893.849 1432.99 C 902.57 1444.4 912.667 1455.02 922.052 1465.91 C 902.734 1474.59 883.638 1482.22 864.838 1492.1 A 566.542 566.542 0 0 1 838.31 1505.27 C 818.353 1486.39 804.026 1473.62 777.691 1464.53 C 768.589 1448.94 762.237 1430 755.915 1413.1 C 721.479 1321.01 706.383 1224.75 707.149 1126.62 C 719.953 1128.97 732.991 1131.01 745.999 1131.66 C 804.432 1134.59 864.724 1113.92 912.151 1080.39 C 927.795 1069.33 941.811 1056.63 955.973 1043.78 z"/>
<path transform="translate(0,0)" fill="rgb(254,254,255)" d="M 1413.8 928.013 C 1435.35 958.819 1448.13 1037.81 1449.21 1076.24 A 127.809 127.809 0 0 0 1428.01 1072.3 C 1394.78 1068.93 1363.06 1081 1337.62 1102.04 C 1300.75 1132.54 1281.53 1178.79 1277.39 1225.69 C 1272.82 1277.61 1286.31 1335.08 1320.54 1375.31 C 1350.34 1410.31 1386.6 1428.31 1432.1 1431.83 C 1430.99 1462.97 1426.4 1495.58 1428.83 1526.63 C 1419.54 1512.1 1410.16 1499.63 1396.41 1489 C 1368.04 1467.05 1337.18 1459.53 1301.78 1464.13 A 115.372 115.372 0 0 0 1297.23 1464.95 C 1259.01 1472.48 1232.04 1496.57 1211.04 1528.14 C 1210.4 1504.16 1213.66 1479.21 1215.42 1455.21 C 1220.93 1379.85 1230.17 1280.76 1212.13 1207.93 C 1207.32 1188.52 1200.66 1168.25 1189.73 1151.36 C 1184.95 1143.96 1178.97 1137.06 1174.57 1129.46 C 1171.11 1123.46 1170.2 1115.84 1167.12 1109.49 C 1155.13 1084.78 1137.05 1066.91 1113.69 1052.78 A 110.868 110.868 0 0 0 1123.5 1052.85 A 444.276 444.276 0 0 0 1375.38 959.929 C 1388.32 950.081 1402.82 940.052 1413.8 928.013 z"/>
<path transform="translate(0,0)" fill="rgb(254,254,255)" d="M 640.708 1150.41 C 662.487 1148.48 684.403 1154.51 704.714 1161.7 C 704.827 1174.61 706.235 1187.61 707.232 1200.49 A 767.199 767.199 0 0 0 754.696 1415.88 C 760.809 1432.28 766.969 1449.37 775.385 1464.73 C 770.872 1464.73 766.264 1464.65 761.775 1465.12 C 700.051 1471.68 645.41 1547.3 609.698 1592.54 C 596.637 1608.72 582.37 1625.9 565.533 1638.19 C 556.361 1608.5 552.48 1574.46 546.889 1543.75 A 4372.36 4372.36 0 0 1 530.498 1447.55 C 525.362 1416.96 519.868 1386.44 517.529 1355.47 C 513.263 1299.01 515.81 1238.09 554.807 1193.16 C 576.953 1167.64 607.176 1152.92 640.708 1150.41 z"/>
<path transform="translate(0,0)" fill="rgb(253,61,62)" d="M 1012.27 1054.6 C 1020.3 1056.62 1028.78 1056.91 1037.01 1057.33 C 1032.51 1061.98 1028.04 1066.65 1024.08 1071.77 C 1019.11 1078.2 1015.08 1085.29 1010.35 1091.9 C 992.945 1116.2 980.843 1132.71 984.866 1164.26 C 988.301 1191.2 1003.72 1216.8 1025.25 1233.24 A 94.2678 94.2678 0 0 0 1095.49 1251.79 C 1120.03 1248.31 1144.37 1233.08 1159.13 1213.31 C 1176.65 1189.84 1180.53 1163.87 1176.51 1135.47 C 1191.27 1156.04 1201.47 1176.91 1208.34 1201.4 C 1233.74 1292.06 1213.14 1429.07 1208.53 1523.63 C 1198.66 1518.92 1189.04 1513.64 1179.37 1508.54 C 1124.06 1478.97 1063.03 1448.74 998.54 1451.04 C 973.265 1451.94 948.443 1457.8 924.279 1464.88 C 913.837 1453.16 903.19 1441.56 893.753 1429 C 846.943 1366.68 816.73 1291.01 802.24 1214.64 A 303.194 303.194 0 0 0 851.43 1202.01 C 904.729 1183.86 954.61 1146.31 986.824 1099.97 C 996.835 1085.57 1004.56 1070.28 1012.27 1054.6 z"/>
<path transform="translate(0,0)" fill="rgb(254,254,255)" d="M 729.46 595.486 C 746.344 595.689 763.27 596.091 780.138 595.185 C 781.453 621.252 779.552 648.058 778.818 674.145 A 6601.67 6601.67 0 0 0 776.982 788.986 C 776.864 815.515 776.049 842.455 780.549 868.712 C 783.688 887.019 789.547 904.219 797.68 920.898 C 830.808 988.844 884.402 1019.37 953.096 1042.98 C 945.789 1049.79 938.522 1056.69 930.935 1063.19 C 879.973 1106.85 808.947 1134.72 741.247 1129.31 C 694.666 1127.67 643.722 1106.85 607.633 1077.91 C 615.232 1064.34 622.571 1050.72 628.524 1036.33 C 654.144 974.379 658.089 897.596 631.9 835.341 C 616.703 799.215 591.581 765.595 554.304 750.576 C 557.922 738.222 560.197 725.254 562.868 712.658 C 571.109 673.801 577.188 634.333 586.676 595.766 C 634.107 597.051 681.999 595.767 729.46 595.486 z"/>
<path transform="translate(0,0)" fill="rgb(254,254,255)" d="M 1056.78 331.428 C 1070.69 330.284 1084.98 331.313 1098.88 332.265 C 1166.76 336.912 1231.32 359.215 1284.28 402.658 C 1343.03 450.858 1386.91 521.703 1394.15 598.146 C 1400.31 663.273 1382.42 728.056 1340.35 778.712 C 1278.29 853.43 1192.77 885.193 1098.74 893.876 C 1083.71 894.177 1068.61 894.545 1053.58 894.026 C 966.044 891 880.115 858.16 819.884 793.219 C 804.143 776.247 788.324 754.664 781.993 732.065 C 777.546 716.19 781.961 618.569 782.756 595.343 C 791.338 591.688 798.245 586.607 803.044 578.455 C 807.96 570.106 809.775 560.163 807.251 550.737 C 804.238 539.488 796.848 532.274 787.235 526.44 C 786.808 516.917 785.518 506.369 787.364 496.988 C 790.351 481.808 815.458 452.016 826.663 439.344 C 888.123 369.84 965.362 337.29 1056.78 331.428 z"/>
<path transform="translate(0,0)" fill="rgb(253,61,62)" d="M 1061.75 633.286 C 1062.04 633.234 1062.32 633.171 1062.61 633.131 C 1075.59 631.32 1104.74 630.903 1115.08 639.217 C 1117.83 641.432 1119.42 644.417 1119.68 647.943 C 1120.24 655.496 1115.49 663.145 1110.8 668.653 C 1102.16 678.814 1092.01 683.612 1078.94 684.451 C 1079.92 697.419 1079.7 709.927 1079.01 722.89 C 1083.69 728.048 1088.53 733.168 1093.5 738.048 C 1110.25 754.497 1131.99 763.477 1155.53 762.879 C 1155.6 762.877 1155.67 762.846 1155.73 762.83 L 1156.33 764.722 C 1154.43 765.474 1152.86 765.466 1150.85 765.409 C 1118.4 764.477 1098.44 746.764 1077.16 724.656 C 1075.92 726.96 1074.59 729.254 1073.11 731.416 C 1059.26 751.76 1036.33 762.777 1012.87 767.312 C 1023.26 788.449 1036 801.794 1057.92 810.552 C 1058.17 810.629 1058.42 810.713 1058.68 810.782 C 1080.78 816.727 1108.56 813.852 1125.85 797.714 C 1130.61 793.269 1134.22 785.323 1139.64 782.122 C 1139.42 783.338 1139.14 784.302 1138.63 785.441 C 1133.78 796.285 1117.62 807.562 1106.59 811.741 C 1088.94 818.43 1064.26 816.929 1047.24 808.931 C 1031.37 801.47 1017.7 784.469 1011.8 768.219 C 1007.89 767.293 1000.31 766.184 997.46 763.444 C 1001.77 761.947 1008.29 764.874 1013.11 764.604 C 1033.89 763.437 1055.47 749.28 1068.61 733.791 C 1080.79 719.429 1077.91 702.221 1076.53 684.764 C 1068.96 682.54 1062.3 679.899 1055.68 675.52 C 1047.19 669.9 1036.49 660.026 1034.85 649.613 C 1034.37 646.574 1035.06 643.085 1037.11 640.707 C 1042.62 634.3 1054.04 634.198 1061.75 633.286 z"/>
<path transform="translate(0,0)" fill="rgb(253,61,62)" d="M 1070.7 370.076 C 1077.37 370.366 1083.53 371.262 1089.45 374.57 C 1100.4 380.691 1107.32 392.085 1110.38 403.992 C 1114.7 420.746 1112.53 442.538 1103.1 457.243 C 1096.61 467.354 1087.98 472.686 1076.33 474.987 C 1069.29 474.572 1062.68 473.311 1056.63 469.516 C 1045.79 462.714 1039.42 450.677 1036.64 438.482 C 1032.76 421.487 1034.93 401.446 1044.6 386.664 C 1051.3 376.436 1059.11 372.272 1070.7 370.076 z"/>
<path transform="translate(0,0)" fill="rgb(19,31,39)" d="M 1238.28 494.431 C 1268 495.63 1289.96 508.39 1313.42 525.455 A 129.52 129.52 0 0 1 1295.81 563.003 C 1273.76 594.892 1243.11 609.043 1205.88 615.925 C 1180.59 620.394 1152.14 613.675 1129.76 601.791 C 1136.84 574.674 1149.29 547.088 1167.91 525.891 C 1186.46 504.774 1210.76 496.331 1238.28 494.431 z"/>
<path transform="translate(0,0)" fill="rgb(254,254,255)" d="M 1230.65 497.337 C 1231.58 497.224 1232.51 497.103 1233.45 497.033 C 1262 494.886 1289.52 508.544 1310.47 526.987 A 219.901 219.901 0 0 1 1308.22 533.844 A 116.772 116.772 0 0 1 1247.66 601.285 C 1258.86 589.644 1265.25 577.094 1265.85 560.665 C 1266.42 545.028 1261.93 528.295 1250.85 516.868 C 1242.85 508.622 1231.86 503.052 1220.25 502.979 C 1207.62 502.9 1197.26 508.496 1188.36 516.945 C 1184.5 521.218 1181.19 525.735 1178.85 531.023 C 1172.24 545.927 1173.29 563.534 1179.39 578.438 C 1187.5 598.249 1198.06 604.111 1216.92 612.173 C 1186.59 616.287 1160.1 614.827 1132.26 600.845 C 1138.48 577.634 1148.43 554.582 1162.96 535.35 C 1181.04 511.417 1201.27 501.429 1230.65 497.337 z"/>
<path transform="translate(0,0)" fill="rgb(19,31,39)" d="M 906.128 495.319 C 923.776 494.11 938.916 496.14 955.063 503.787 C 993.765 522.118 1011.03 563.763 1024.47 601.758 C 1003.35 612.242 984.202 617.089 960.714 619.003 A 128.243 128.243 0 0 1 891.027 600.13 C 865.628 584.849 846.551 557.392 839.461 528.771 C 857.563 511.719 881.395 498.915 906.128 495.319 z"/>
<path transform="translate(0,0)" fill="rgb(254,254,255)" d="M 908.965 497.383 C 923.895 496.456 937.671 498.462 951.414 504.559 C 991.624 522.398 1006.86 562.224 1021.85 600.409 C 996.077 613.758 965.405 620.382 936.66 614.246 A 90.3228 90.3228 0 0 0 948.02 610.309 C 960.276 605.117 969.681 594.777 974.598 582.525 C 981.467 565.41 979.382 547.572 972.252 530.999 C 970.669 528.118 968.794 525.368 966.796 522.758 A 46.5438 46.5438 0 0 0 935.343 504.963 C 923.26 503.497 911.913 507.004 902.528 514.709 C 891.066 524.119 884.56 538.333 883.047 552.91 C 880.916 573.437 888.825 588.092 901.47 603.416 A 238.809 238.809 0 0 1 896.295 600.677 C 869.382 585.952 850.263 558.983 841.715 529.884 C 861.412 512.768 882.58 500.199 908.965 497.383 z"/>
<path transform="translate(0,0)" fill="rgb(33,129,119)" d="M 231.029 1771.96 C 254.553 1773.49 278.67 1772.05 302.276 1772.04 L 429.871 1772.32 L 826.096 1772.11 L 2048 1772.61 L 2048 2045.97 C 1969.99 2047.45 1891.7 2046.09 1813.66 2046.08 L 1378.21 2046.22 L 3.94634 2046.1 L 4.09954 1772.8 C 29.827 1770.97 56.2029 1772.06 82.0174 1772.07 C 131.679 1772.1 181.371 1772.51 231.029 1771.96 z"/>
</svg>