<svg version="1.1" xmlns="http://www.w3.org/2000/svg" style="display: block;" viewBox="0 0 2048 2048" width="1024" height="1024">
<defs>
	<linearGradient id="Gradient1" gradientUnits="userSpaceOnUse" x1="823.312" y1="983.864" x2="803.949" y2="1033.99">
		<stop class="stop0" offset="0" stop-opacity="1" stop-color="rgb(171,178,180)"/>
		<stop class="stop1" offset="1" stop-opacity="1" stop-color="rgb(160,193,216)"/>
	</linearGradient>
</defs>
<path transform="translate(0,0)" fill="rgb(26,65,99)" d="M 0 0 L 2048 0 L 2048 58.6781 L 2048 81.4549 L 2048 180.07 L 2048 234.025 L 2048 472.501 L 2048 1077.97 L 2048 1115.76 L 2048 1129.18 L 2048 1324.06 L 2048 1336.96 L 2048 1353.87 L 2048 1362.95 L 2048 1406.84 L 2048 1421.91 L 2048 2048 L 1752.29 2048 L 1480.79 2048 L 567.268 2048 L 467.911 2048 L 348.466 2048 L 327.283 2048 L 0 2048 L 0 1447.01 L 0 1431.18 L 0 1356.48 L 0 1352.39 L 0 1338.26 L 0 1331.63 L 0 1131.18 L 0 1099.52 L 0 1088.79 L 0 447.075 L 0 232.496 L 0 183.583 L 0 89.4821 L 0 66.8823 L 0 0 z"/>
<path transform="translate(0,0)" fill="rgb(172,197,213)" d="M 896.275 1403.94 C 899.674 1403.94 902.809 1403.41 905.722 1405.24 C 906.55 1408.33 905.181 1411.52 904.35 1414.52 L 902.965 1414.69 C 899.916 1411.74 898.22 1407.67 896.275 1403.94 z"/>
<path transform="translate(0,0)" fill="rgb(154,176,198)" d="M 600.237 548.623 L 601.446 549.843 C 602.307 556.819 603.757 562.621 600.41 569.144 C 597.543 570.41 596.231 569.791 593.19 569.285 C 594.42 564.298 594.643 561.564 598.974 558.48 L 598.804 558.386 L 599.175 557.163 L 598.353 555.855 L 600.237 548.623 z"/>
<path transform="translate(0,0)" fill="rgb(172,197,213)" d="M 1417.62 966.963 C 1414.97 973.395 1411.96 976.994 1406.58 981.351 C 1406.33 980.959 1406.1 980.55 1405.83 980.174 C 1403.39 976.833 1400.49 976.59 1396.7 976.168 C 1403.65 973.069 1410.57 969.828 1417.62 966.963 z"/>
<path transform="translate(0,0)" fill="rgb(136,165,188)" d="M 626.749 583.606 C 629.669 583.282 631.882 582.486 634.569 583.808 C 635.783 589.139 631.921 595.655 629.846 600.677 L 629.475 601.1 L 628.484 601.042 C 626.686 596.071 624.086 590.05 624.573 584.71 L 626.749 583.606 z"/>
<path transform="translate(0,0)" fill="rgb(193,212,229)" d="M 1422.98 1007.91 C 1424.58 1010.5 1423.35 1013.15 1422.85 1016.09 C 1415.72 1020.43 1410.81 1023.84 1402.21 1022.5 L 1400.82 1021.31 C 1403.6 1013.98 1417.79 1013.74 1422.98 1007.91 z"/>
<path transform="translate(0,0)" fill="rgb(172,197,213)" d="M 1236.28 1401 C 1239.72 1400.8 1243.66 1400.23 1246.87 1401.78 C 1249.18 1402.89 1250.33 1403.96 1250.96 1406.49 C 1251.85 1410.06 1248.65 1414.45 1246.98 1417.46 L 1245.36 1420.7 L 1244.03 1420.93 C 1242.23 1414.44 1240.25 1408.58 1237.13 1402.6 L 1236.28 1401 z"/>
<path transform="translate(0,0)" fill="rgb(172,197,213)" d="M 1071.89 1949.98 L 1085.46 1950.03 C 1088.68 1955.06 1091.69 1959.51 1095.94 1963.77 A 1402.07 1402.07 0 0 1 1081.15 1963.74 C 1078.36 1958.63 1075.74 1954.41 1071.89 1949.98 z"/>
<path transform="translate(0,0)" fill="rgb(193,212,229)" d="M 1821.28 308.377 C 1822 308.898 1822.62 309.641 1823.24 310.279 C 1823.3 330.275 1821.86 350.426 1820.52 370.375 C 1819.87 368.957 1819.25 367.551 1818.87 366.03 C 1816.93 358.225 1817.49 314.376 1821.28 308.377 z"/>
<path transform="translate(0,0)" fill="rgb(193,212,229)" d="M 1799.14 321.407 L 1801.16 322.965 C 1805.7 332.047 1805.37 358.298 1803.8 368.983 C 1803.38 371.804 1802.92 371.874 1800.77 373.572 L 1798.89 370.148 C 1801.4 363.532 1799.04 331.712 1799.14 321.407 z"/>
<path transform="translate(0,0)" fill="rgb(154,176,198)" d="M 28.8713 1108.55 C 34.4551 1111.91 40.0242 1115.54 45.8152 1118.52 C 52.0943 1121.75 59.8908 1124.73 64.8531 1129.84 L 60.8868 1131.81 C 50.2195 1123.32 49.0719 1130.56 40.7029 1125.56 C 38.7528 1124.78 37.309 1124.27 35.8551 1122.71 C 34.6756 1119.85 33.7683 1118.79 31.1025 1117.21 C 29.094 1116.02 27.6894 1115.03 26.0685 1113.36 C 26.1863 1110.49 26.7482 1110.56 28.8713 1108.55 z"/>
<path transform="translate(0,0)" fill="rgb(193,212,229)" d="M 1864.13 272.52 L 1865.59 274.121 C 1864.87 284.584 1865.04 295.977 1866.06 306.413 C 1866.96 315.657 1871.83 329.46 1869.84 338.199 C 1867.78 335.668 1866.79 332.97 1865.7 329.932 C 1860.03 314.184 1856.86 287.859 1864.13 272.52 z"/>
<path transform="translate(0,0)" fill="rgb(172,197,213)" d="M 0 1088.79 C 9.4208 1095.69 18.7764 1102.66 28.8713 1108.55 C 26.7482 1110.56 26.1863 1110.49 26.0685 1113.36 C 27.6894 1115.03 29.094 1116.02 31.1025 1117.21 C 33.7683 1118.79 34.6756 1119.85 35.8551 1122.71 C 23.0945 1116.68 11.344 1107.85 0 1099.52 L 0 1088.79 z"/>
<path transform="translate(0,0)" fill="rgb(193,212,229)" d="M 714.214 1035.66 C 728.848 1049.06 728.703 1056.69 749.08 1065.13 C 749.32 1064.87 749.565 1064.62 749.801 1064.36 C 750.704 1063.35 751.434 1062.32 752.19 1061.2 C 756.057 1061.84 759.633 1063.44 763.471 1064.28 C 774.002 1066.59 787.11 1067.22 796.787 1071.4 C 804.481 1072.63 811.165 1074.07 818.2 1077.66 L 818.004 1078.42 C 811.685 1078.68 805.438 1079.34 799.337 1077.33 C 782.756 1075.17 764.112 1072.2 748.44 1066.39 C 739.622 1063.68 731.64 1059.9 723.395 1055.8 C 720.19 1049.16 717.26 1042.37 714.214 1035.66 z"/>
<path transform="translate(0,0)" fill="rgb(172,197,213)" d="M 1213.67 1401.47 L 1223.65 1401.81 C 1228.26 1412.33 1231.53 1423.59 1235.19 1434.47 L 1227.54 1448.64 C 1226.56 1450.23 1226.14 1450.71 1224.6 1451.93 C 1223.03 1444.79 1222.19 1437.85 1220.15 1430.72 C 1217.46 1421.38 1213.56 1412.07 1211.76 1402.53 L 1213.67 1401.47 z"/>
<path transform="translate(0,0)" fill="rgb(136,165,188)" d="M 649.516 533.353 C 650.268 533.184 651.57 533.334 652.356 533.348 L 653.218 534.942 C 653.105 540.583 647.728 548.017 644.932 552.979 C 637.136 557.264 629.063 560.408 620.735 563.491 A 536.18 536.18 0 0 0 615.247 539.732 C 626.589 537.211 638.073 535.351 649.516 533.353 z"/>
<path transform="translate(0,0)" fill="rgb(26,65,99)" d="M 0 1099.52 C 11.344 1107.85 23.0945 1116.68 35.8551 1122.71 C 37.309 1124.27 38.7528 1124.78 40.7029 1125.56 C 49.0719 1130.56 50.2195 1123.32 60.8868 1131.81 C 40.7985 1132.44 20.0555 1132.44 0 1131.18 L 0 1099.52 z"/>
<path transform="translate(0,0)" fill="rgb(172,197,213)" d="M 932.493 1328.86 L 933.326 1329.63 L 931.839 1334.02 L 933.052 1334.3 L 931.786 1334.39 C 923.402 1354.77 916.314 1374.99 909.785 1396.04 L 893.107 1396.42 C 892.391 1395.48 892.847 1396.18 892.236 1394.06 C 898.789 1369.57 915.694 1347.31 932.493 1328.86 z"/>
<path transform="translate(0,0)" fill="rgb(172,197,213)" d="M 1161.11 1946.63 C 1163.37 1946.64 1165.55 1946.67 1167.79 1946.89 C 1172.62 1950.21 1175.72 1955.65 1179.22 1960.31 C 1161.58 1962.39 1142.99 1963.04 1125.25 1963.54 C 1121.16 1962.99 1117.72 1964.4 1113.73 1962.52 C 1112.69 1961.33 1112.07 1960.4 1111.58 1958.89 C 1110.21 1954.66 1108.63 1952.33 1105.74 1949.08 L 1104.7 1947.92 C 1123.37 1947.98 1142.48 1947.79 1161.11 1946.63 z"/>
<path transform="translate(0,0)" fill="rgb(172,197,213)" d="M 899.49 1924.66 C 906.687 1929.72 909.582 1945.35 917.561 1951.87 C 919.982 1953.85 922.115 1954.65 925.177 1954.23 L 926.685 1951.94 C 926.062 1949.73 925.395 1947.84 925.55 1945.52 C 937.387 1945.53 956.749 1946.37 968.122 1948.48 C 971.013 1949.02 972.985 1952.78 974.621 1955.02 L 983.007 1963.69 C 961.915 1964.41 940.582 1963.6 919.499 1962.8 C 911.773 1951.36 904.323 1937.61 899.49 1924.66 z"/>
<path transform="translate(0,0)" fill="rgb(172,197,213)" d="M 981.329 1948.79 C 1007.62 1951.32 1034.79 1949.15 1061.27 1950.45 C 1064.42 1955.39 1068.01 1959.28 1072.15 1963.37 C 1063.95 1964.34 1055.07 1963.76 1046.78 1963.81 L 996.099 1963.91 C 991.462 1958.62 986.312 1953.75 981.329 1948.79 z"/>
<path transform="translate(0,0)" fill="rgb(172,197,213)" d="M 1445.74 483.29 C 1451.23 484.156 1456.98 484.976 1460.84 489.31 C 1461.17 496.593 1460.59 529.224 1457.09 534.103 L 1448.4 534.063 L 1432.45 534.167 C 1433.78 519.504 1438.75 496.208 1445.74 483.29 z"/>
<path transform="translate(0,0)" fill="rgb(136,165,188)" d="M 587.184 481.107 C 601.715 481.839 616.127 481.969 630.678 481.991 C 636.181 490.599 639.448 501.499 643.002 511.069 C 641.392 511.173 639.819 511.307 638.218 511.522 L 636.776 511.728 C 635.864 512.03 634.935 512.375 633.973 512.484 C 623.381 513.683 614.421 516.459 604.344 519.894 C 599.901 505.922 592.928 494.395 587.184 481.107 z"/>
<path transform="translate(0,0)" fill="rgb(172,197,213)" d="M 1262.8 1733.06 C 1265.46 1733.08 1266.38 1732.48 1268.36 1734.48 C 1268.84 1743.51 1265.97 1754.3 1264.69 1763.33 L 1257.4 1814.16 C 1255.57 1826.17 1253.17 1838.04 1252.12 1850.16 C 1246.58 1855.97 1241.12 1861.79 1235.29 1867.3 L 1233.8 1868.55 L 1232.72 1867.93 C 1232.98 1856.93 1238.89 1844.02 1241.42 1833.12 C 1245.97 1813.5 1249.61 1793.26 1252.58 1773.34 C 1253.84 1764.86 1253.2 1741.96 1256.19 1736.09 C 1257.41 1733.69 1260.39 1733.69 1262.8 1733.06 z"/>
<path transform="translate(0,0)" fill="rgb(172,197,213)" d="M 888.637 1403.64 L 889.796 1404.85 C 888.558 1413.64 896.332 1422.14 897.441 1431.27 C 898.309 1438.41 893.053 1447.87 891.299 1455.1 C 887.247 1471.81 884.825 1488.81 882.665 1505.85 C 881.896 1511.92 881.653 1527.19 878.023 1531.86 L 874.767 1531.79 C 870.544 1531.1 866.126 1531.03 861.854 1530.74 C 866.408 1494.68 874.192 1436.56 888.637 1403.64 z"/>
<path transform="translate(0,0)" fill="rgb(172,197,213)" d="M 860.543 1676.41 C 866.251 1676.88 871.703 1676.85 877.427 1677.69 C 879.597 1704.08 881.68 1730.19 884.6 1756.54 C 886.197 1770.94 886.973 1786.16 891.492 1799.99 L 874.398 1800.02 C 870.935 1769.4 866.593 1738.95 863.278 1708.29 C 862.235 1698.63 859.302 1685.91 860.543 1676.41 z"/>
<path transform="translate(0,0)" fill="rgb(172,197,213)" d="M 862.129 1534.62 C 867.577 1538.91 872.127 1545.88 877.258 1550.89 C 876.913 1579.54 874.306 1607.63 875.147 1636.4 C 875.313 1642.06 877.603 1663.5 875.594 1667.54 L 873.24 1668.32 L 859.225 1667.97 C 858.578 1624.44 852.842 1577.73 862.129 1534.62 z"/>
<path transform="translate(0,0)" fill="rgb(172,197,213)" d="M 354.163 1168.39 C 360.733 1168.96 377.001 1166.64 381.755 1170.45 C 379.126 1178.09 398.806 1221.23 401.106 1233.57 L 399.977 1235.19 C 385.373 1233.8 369.519 1234.57 354.888 1235.69 C 353.715 1228.5 352.472 1171.77 354.163 1168.39 z"/>
<path transform="translate(0,0)" fill="rgb(136,165,188)" d="M 1111.34 1042.38 C 1126.22 1041.69 1140.97 1041.89 1155.87 1040.57 C 1212.33 1035.57 1273.65 1022.51 1327.21 1004 C 1350.53 995.945 1372.5 984.153 1395.85 976.443 L 1396.7 976.168 C 1400.49 976.59 1403.39 976.833 1405.83 980.174 C 1406.1 980.55 1406.33 980.959 1406.58 981.351 C 1398.39 987.04 1389.24 991.023 1380.26 995.277 C 1316.9 1025.29 1234.66 1044.45 1165.07 1052.64 C 1139.12 1055.69 1132.98 1059.48 1111.34 1042.38 z"/>
<path transform="translate(0,0)" fill="rgb(135,66,82)" d="M 338.54 1974.24 C 368.031 2000.24 393.879 2018.58 430.338 2033.63 C 439.274 2037.31 461.022 2042.9 467.911 2048 L 348.466 2048 A 1034.44 1034.44 0 0 1 338.54 1974.24 z"/>
<path transform="translate(0,0)" fill="url(#Gradient1)" d="M 650.268 954.717 C 658.763 958.013 667.53 965.292 675.348 970.204 C 685.897 976.832 696.325 982.104 707.804 986.901 C 787.093 1020.04 898.028 1039.73 983.549 1042.38 C 983.137 1044.79 980.571 1046.54 978.859 1048.28 C 977.292 1049.86 976.037 1051.23 973.953 1052.11 C 966.318 1055.37 942.949 1051.5 934.294 1050.58 C 852.392 1041.92 750.133 1021.18 675.393 985.344 C 661.31 978.591 655.248 969.109 650.268 954.717 z"/>
<path transform="translate(0,0)" fill="rgb(172,197,213)" d="M 1040.03 1253.55 C 1048.03 1252.53 1056.54 1253 1064.61 1253.24 C 1101.83 1254.34 1134.27 1263.09 1166.38 1282.14 C 1208.26 1306.98 1235.38 1346.24 1247.26 1393.07 L 1234.46 1394 C 1219.44 1357.8 1202.07 1326.23 1168.92 1303.33 C 1145.37 1287.07 1116.77 1278.13 1088.9 1272.73 C 1082.87 1271.57 1074.91 1269.63 1068.82 1270.77 C 1044.94 1264.9 994.32 1279.49 971.989 1289.83 C 926.55 1310.88 895.592 1349.71 878.712 1396.03 L 863.835 1396 C 873.055 1371.44 885.369 1347.25 901.864 1326.74 C 926.859 1295.65 967.21 1269.1 1005.63 1258.93 C 1016.87 1255.95 1028.51 1254.86 1040.03 1253.55 z"/>
<path transform="translate(0,0)" fill="rgb(154,176,198)" d="M 1689.72 1173.46 C 1692.53 1172.55 1697.65 1173.43 1700.72 1173.54 C 1701.94 1190.76 1703.51 1207.99 1704.51 1225.23 C 1704.66 1227.83 1705.44 1231.53 1703.7 1233.49 C 1694.32 1232.38 1683.26 1234.75 1673.58 1234.82 A 2312.25 2312.25 0 0 1 1619.63 1234.38 C 1607.67 1234.19 1594.92 1233.21 1583.07 1234.89 L 1581.69 1235.09 A 1059.27 1059.27 0 0 1 1560.76 1175.14 C 1574.64 1173.26 1589.48 1174.75 1603.5 1174.81 C 1632.18 1174.93 1661.08 1175.21 1689.72 1173.46 z"/>
<path transform="translate(0,0)" fill="rgb(172,197,213)" d="M 860.67 1403.05 C 866.181 1402.61 871.666 1402.82 877.183 1402.98 C 867.3 1427.89 861.5 1458.86 857.048 1485.32 C 849.611 1529.52 844.96 1575.33 845.075 1620.19 C 845.162 1654.15 848.793 1688.16 852.864 1721.83 A 1342.93 1342.93 0 0 0 871.849 1841.66 C 874.285 1853.39 877.604 1865.18 881.218 1876.6 C 882.867 1881.82 890.822 1899.67 889.92 1903.63 L 888.488 1902.67 C 881.339 1888.13 871.8 1874.63 859.551 1863.94 C 858.423 1848.36 853.986 1832.74 851.191 1817.35 C 847.189 1795.31 844.021 1773.09 840.315 1750.99 C 838.418 1739.67 835.7 1728.47 834.03 1717.12 C 821.339 1630.92 827.263 1529.32 848.504 1444.85 C 851.98 1431.02 855.105 1416.17 860.67 1403.05 z"/>
<path transform="translate(0,0)" fill="rgb(154,176,198)" d="M 1516.7 1084.9 C 1533.57 1086.18 1550.91 1085.42 1567.85 1085.45 L 1652.95 1085.75 C 1653.05 1108.44 1654.82 1130.7 1656.43 1153.31 L 1656.48 1155.5 C 1649.06 1159.91 1569.32 1157.29 1553.98 1157.82 C 1550.41 1150.38 1547.05 1142.72 1543.05 1135.51 C 1534.92 1120.83 1520.87 1100.53 1516.7 1084.9 z"/>
<path transform="translate(0,0)" fill="rgb(154,176,198)" d="M 109.574 224.704 C 125.899 226.704 159.354 225.264 172.69 232.431 L 172.452 234.229 L 173.133 233.468 C 175.477 250.272 172.472 268.78 171.138 285.68 L 166.792 343.467 C 164.665 345.717 161.655 345.418 158.647 345.861 C 143.221 346.031 109.41 348.514 95.8458 345.06 C 94.1865 342.996 94.0277 341.394 93.8026 338.842 C 92.2679 321.444 100.565 247.896 106.42 229.727 C 107.069 227.715 108.238 226.299 109.574 224.704 z"/>
<path transform="translate(0,0)" fill="rgb(154,176,198)" d="M 1930.91 225.373 C 1937.2 226.548 1944.96 225.998 1951.44 226.346 C 1958.76 252.003 1966.99 319.875 1962.17 345.58 C 1946.81 346.819 1930.89 345.988 1915.5 345.433 C 1908.45 345.343 1901.22 346.154 1894.2 345.536 C 1892.69 345.403 1889.93 345.284 1889.08 343.946 C 1886.66 340.103 1881.71 263.389 1881.74 254.213 C 1881.77 246.332 1882.83 238.574 1884.25 230.84 C 1899.21 227.498 1915.61 226.931 1930.91 225.373 z"/>
<path transform="translate(0,0)" fill="rgb(172,197,213)" d="M 308.954 1347.6 C 309.563 1333.15 305.989 1263.65 312.187 1255.59 C 314.362 1252.76 317.105 1251.53 320.532 1250.89 C 330.998 1248.94 343.808 1250.7 354.503 1250.73 C 372.426 1250.78 389.988 1250.18 407.822 1248.47 C 413.601 1260.76 418.168 1273.56 424.306 1285.72 C 434.847 1306.59 448.304 1324.56 462.157 1343.27 C 457.884 1344.62 454.247 1346.11 450.393 1348.4 C 443.609 1346.3 436.298 1343.63 429.095 1344.22 C 423.97 1348.03 419.158 1351.05 413.347 1353.7 L 412.391 1353.09 C 398.938 1347.55 326.376 1347.23 308.954 1347.6 z"/>
<path transform="translate(0,0)" fill="rgb(136,165,188)" d="M 1150.71 1129.33 C 1163.95 1129.28 1177.67 1126.91 1190.78 1125.11 A 863.644 863.644 0 0 0 1387.36 1072.55 C 1411.53 1062.66 1434.33 1050.47 1458.04 1039.69 C 1467.3 1053.4 1477.28 1066.62 1486.35 1080.46 C 1498.76 1099.37 1510.27 1119.94 1520.45 1140.15 C 1519.98 1140.06 1519.51 1140 1519.05 1139.89 C 1512.92 1138.41 1494.14 1119.34 1487.46 1114.3 C 1477.68 1106.93 1466.91 1100.63 1455.11 1097.15 C 1435.82 1091.46 1409.43 1091.38 1389.59 1094.16 C 1349.39 1099.79 1296.04 1120.91 1256.11 1132.9 C 1233 1139.83 1192.24 1147.9 1173.12 1158.23 C 1169.87 1159.99 1168.07 1161.87 1166.24 1165.02 C 1161.4 1173.34 1159.38 1183.51 1155.9 1192.47 C 1151.2 1204.56 1136.4 1231.59 1124.45 1237.52 C 1122.51 1238.48 1120.1 1238.68 1117.99 1239 C 1116.79 1239.18 1115.57 1239.35 1114.38 1239.57 C 1113.07 1239.81 1113.47 1239.76 1112.04 1240.56 C 1097.6 1237.81 1083.13 1236.36 1068.7 1233.81 L 1067.64 1231.91 C 1069.73 1223.16 1088.94 1216.47 1096.31 1212.14 C 1102.68 1208.4 1109.45 1203.97 1115 1199.09 C 1127.85 1187.79 1137.65 1168.3 1142.89 1152.28 C 1145.44 1144.46 1146.87 1136.7 1150.71 1129.33 z"/>
<path transform="translate(0,0)" fill="rgb(154,176,198)" d="M 1582.39 1352.05 C 1586.1 1328.52 1588.84 1304.17 1588.05 1280.33 C 1587.86 1274.8 1587.82 1269.02 1586.9 1263.56 C 1586.25 1259.72 1583.8 1255.36 1584.32 1251.55 C 1588.48 1249.62 1590.43 1249.14 1595.02 1250.23 C 1606.48 1252.95 1627.63 1251.07 1640.27 1251.08 L 1743.96 1250.93 C 1744.8 1284.48 1747.33 1318.45 1747.04 1351.95 C 1734.27 1350.81 1669.86 1349.11 1660.9 1355.35 C 1659.04 1356.64 1657.88 1358.75 1656.75 1360.65 C 1649.11 1362.78 1639.11 1359.66 1631.31 1359.17 L 1629.28 1359.05 C 1622.42 1351.94 1615.44 1351.99 1606.07 1351.85 C 1598.23 1351.72 1590.22 1351.51 1582.39 1352.05 z"/>
<path transform="translate(0,0)" fill="rgb(136,165,188)" d="M 1031.05 1048.57 C 1050.78 1046.12 1076.36 1048.76 1093.48 1059.57 C 1112.2 1071.37 1122.28 1091.92 1126.92 1112.97 C 1131.48 1133.66 1126.74 1156.85 1115.3 1174.62 C 1102.8 1194.06 1085.3 1205.77 1062.89 1210.69 L 1060.93 1210.92 C 1037.26 1213.6 1016.44 1210.57 997.422 1195.25 C 978.211 1179.79 967.011 1160.73 964.549 1136.1 C 962.269 1113.3 967.091 1091.2 981.958 1073.32 C 994.805 1057.87 1011.32 1050.51 1031.05 1048.57 z"/>
<path transform="translate(0,0)" fill="rgb(26,65,99)" d="M 1046.81 1116.14 C 1051.04 1116.12 1055.47 1117.38 1059.28 1119.14 C 1065.64 1122.09 1070.2 1127.98 1072.5 1134.5 C 1076.25 1145.16 1075.08 1158.04 1070.1 1168.12 C 1065.74 1176.92 1060.48 1180.88 1051.33 1183.89 C 1046.29 1183.71 1040.96 1182.37 1036.61 1179.77 C 1029.87 1175.74 1025.82 1168.78 1024.01 1161.29 C 1021.39 1150.45 1022.37 1137.95 1028.54 1128.45 C 1033.11 1121.41 1038.76 1117.94 1046.81 1116.14 z"/>
<path transform="translate(0,0)" fill="rgb(193,212,229)" d="M 1048.22 1151.11 C 1050.61 1149.21 1050.75 1148.64 1053.76 1148.7 C 1055.38 1150.79 1055.95 1151.75 1055.83 1154.59 C 1055.73 1156.92 1055.2 1157.38 1053.48 1158.58 C 1051.87 1158.02 1051.65 1158.19 1050.57 1156.76 C 1047.71 1157.62 1045.93 1158.59 1042.99 1157.01 C 1040.51 1155.69 1040.29 1154.58 1039.85 1152.11 C 1041.11 1150.13 1041.39 1149.5 1043.43 1148.4 L 1046.57 1150.89 L 1048.22 1151.11 z"/>
<path transform="translate(0,0)" fill="rgb(154,176,198)" d="M 1012.42 282.138 C 1013.9 282.472 1015.12 282.558 1016.66 282.58 C 1021.45 282.647 1067.17 282.679 1067.71 282.884 C 1080.97 287.9 1066.68 357.233 1075.33 371.905 C 1076.71 374.24 1077.17 374.555 1079.59 375.312 C 1085.08 373.857 1087.85 370.851 1091.25 366.49 C 1105.18 368.882 1119.99 368.035 1134.08 368.034 L 1192.75 368.005 C 1184.6 375.322 1178.61 384.127 1171.71 392.552 C 1164.26 401.65 1155.92 410.505 1147.56 418.776 C 1142.94 423.345 1136.76 429.077 1130.51 431.029 C 1117.96 434.95 1092.14 430.232 1078.27 429.562 A 636.084 636.084 0 0 0 1043.44 428.892 C 1030.27 428.69 1017.29 429.039 1004.16 430.046 C 986.64 431.39 963.918 437.032 946.865 432.617 C 933.279 429.099 919.638 419.357 909.091 410.381 C 893.555 397.16 880.072 380.752 862.649 369.926 L 861.292 369.092 C 891.954 368.787 922.639 368.99 953.303 369.141 C 965.211 369.199 977.986 367.8 989.764 368.975 C 995.903 369.587 996.494 375.041 1001.93 375.905 C 1005.17 374.443 1007.09 372.857 1008.51 369.595 C 1014.5 355.843 1004.39 297.624 1011.47 283.831 C 1011.76 283.255 1012.1 282.702 1012.42 282.138 z"/>
<path transform="translate(0,0)" fill="rgb(154,176,198)" d="M 1532.03 357.568 A 182.148 182.148 0 0 1 1542.51 356.855 C 1560.89 356.151 1580.83 359.987 1594.63 372.71 C 1594.62 377.247 1594.14 382.899 1596.22 387.093 C 1597.93 390.526 1600.51 392.961 1604.09 394.218 C 1606.1 393.869 1606.79 394.015 1608.41 392.65 C 1612.42 389.263 1612.4 384.891 1612.82 380.013 C 1652.52 379.561 1693.04 378.404 1732.65 380.7 C 1744.65 381.396 1756.65 383.401 1768.64 384.457 C 1745.97 394.019 1717.73 402.498 1693.91 409.298 C 1681.56 412.821 1668.93 415.699 1656.84 420.016 C 1652.58 421.534 1646.75 423.308 1643.76 426.759 L 1644.39 428.6 C 1663.28 431.809 1746.04 404.563 1767.22 396.67 L 1767.09 411.192 C 1750.72 416.859 1687.13 431.388 1677.16 439.21 L 1677.57 440.559 C 1688.64 445.505 1709.39 441.013 1720.43 437.695 A 167.791 167.791 0 0 0 1765.93 421.729 C 1766.64 425.351 1768.08 430.003 1767.45 433.633 C 1765.6 444.279 1744.6 445.762 1736.47 448.653 C 1731.39 450.456 1726.12 453.166 1721.92 456.535 L 1721.92 457.572 C 1734.03 460.524 1746.64 454.031 1758.29 452.196 C 1761.71 451.657 1764.21 451.829 1767.1 453.858 C 1767.92 455.812 1768.5 456.631 1767.26 458.671 C 1764.95 462.458 1759.96 464.068 1755.84 464.714 C 1746.89 466.119 1736.64 465.041 1727.51 464.966 L 1671.96 464.754 C 1659.23 464.753 1645.97 464.129 1633.37 466.195 C 1629.28 466.865 1625.34 467.115 1621.21 467.278 C 1608.04 458.614 1594.62 451.999 1579.13 448.649 C 1554.54 443.332 1524.44 444.451 1501.17 454.69 C 1494.9 457.449 1489.22 462.351 1483.33 465.893 C 1472.71 472.271 1461.02 468.117 1449.96 465.433 C 1458.96 437.322 1463.11 420.05 1466.35 390.392 C 1466.83 386.016 1466.83 381.658 1470.48 378.74 C 1473.22 380.234 1473.98 382.29 1475.6 384.932 C 1476.46 386.329 1477.28 387.763 1478.22 389.111 C 1480.25 392.049 1482.03 392.858 1485.46 393.484 C 1487.26 393 1488.84 392.683 1490.18 391.261 C 1493.99 387.222 1493.25 377.314 1493.75 371.868 C 1504.98 361.793 1517.57 359.269 1532.03 357.568 z"/>
<path transform="translate(0,0)" fill="rgb(172,197,213)" d="M 1053.22 1283.42 C 1073.52 1281.96 1100.48 1287.09 1119.84 1293.33 C 1159.61 1306.14 1189.3 1329.79 1208.58 1366.84 C 1211.88 1373.18 1219.76 1385.38 1217.57 1392.33 C 1215.86 1393.03 1214.79 1392.92 1213.01 1392.67 C 1213 1392.67 1210.95 1392.37 1210.92 1392.35 C 1207.34 1389.72 1190.07 1357.52 1184.82 1350.63 C 1175.74 1338.73 1145.56 1306.08 1130.17 1305.04 C 1128.45 1304.93 1128.9 1305.06 1127.53 1306.37 C 1128.51 1315.84 1150.35 1327.93 1157.57 1334.21 C 1166.34 1341.84 1175.96 1351.67 1180.67 1362.45 C 1183.73 1369.45 1187.43 1387.04 1184.46 1394.25 L 1182.25 1394.82 L 1015.83 1396.03 C 983.728 1396.07 951.51 1394.83 919.436 1396.17 C 926.642 1370.44 936.55 1345.28 945.029 1319.93 C 946.778 1318.24 948.831 1316.9 950.792 1315.47 L 951.162 1315.98 C 950.923 1316.46 950.666 1316.94 950.443 1317.42 C 947.972 1322.84 945.529 1353.1 947.738 1358.4 C 948.449 1360.11 948.051 1359.53 949.93 1360.27 C 963.444 1352.36 951.788 1318.36 958.19 1310.39 C 961.658 1306.07 968.612 1303.89 973.612 1301.84 C 999.487 1291.25 1025.61 1286.56 1053.22 1283.42 z"/>
<path transform="translate(0,0)" fill="rgb(26,65,99)" d="M 1031.39 1296.94 C 1039.98 1297.48 1055.37 1299.8 1062.35 1305.12 C 1063.9 1306.31 1065.29 1308.09 1065.36 1310.09 C 1065.51 1314.43 1062.06 1317.21 1059.26 1320.07 C 1055.73 1321.29 1051.99 1322.02 1048.35 1322.88 A 187.619 187.619 0 0 1 1041.77 1323.6 C 1030.41 1324.58 1023.08 1319.54 1014.77 1312.61 C 1016.25 1309.09 1018.22 1305.89 1020.16 1302.61 L 1031.39 1296.94 z"/>
<path transform="translate(0,0)" fill="rgb(26,65,99)" d="M 988.674 1326.59 C 988.926 1326.51 989.168 1326.38 989.431 1326.36 C 997.088 1325.82 1005.41 1329.97 1011.43 1334.3 C 1023.43 1342.93 1028.55 1350.16 1031.01 1364.73 C 1027.69 1368.81 1024.6 1372.24 1020.45 1375.52 C 1013.21 1375.84 1006.55 1375.49 999.447 1374.07 C 993.505 1371.96 987.396 1367.8 981.174 1367.17 C 980.096 1367.98 978.858 1369.04 977.658 1369.69 C 975.331 1370.96 974.191 1371.38 971.601 1370.59 C 969.622 1369.99 967.697 1368.04 966.705 1366.29 C 962.692 1359.2 956.678 1339.86 959.811 1332.31 C 960.91 1329.66 961.373 1329.42 963.861 1328.5 C 966.173 1329.54 968.149 1330.76 970.699 1329.89 C 977.23 1327.64 981.705 1326.46 988.674 1326.59 z"/>
<path transform="translate(0,0)" fill="rgb(26,65,99)" d="M 1129.12 1319.9 C 1130.93 1319.87 1132.79 1319.77 1134.57 1320.23 C 1142.27 1322.25 1147 1329.53 1150.81 1335.95 L 1151.01 1348.98 C 1146.57 1355.46 1142.08 1360.74 1135.7 1365.37 C 1119.53 1377.12 1100.67 1378.78 1081.39 1375.68 C 1074.88 1373.63 1062.25 1368.58 1058.9 1362.46 C 1057.82 1360.47 1057.91 1358.23 1058.86 1356.2 C 1063.98 1345.3 1102.47 1333.53 1113.72 1329.74 C 1116.92 1328.66 1118.97 1327.79 1121.55 1325.53 C 1124 1323.38 1126.36 1321.64 1129.12 1319.9 z"/>
<path transform="translate(0,0)" fill="rgb(154,176,198)" d="M 503.595 356.274 C 513.322 356.639 522.283 356.06 531.986 357.902 A 790.517 790.517 0 0 1 546.593 370.996 C 546.7 378.536 546.284 386.617 547.711 394.014 C 549.517 394.348 549.152 394.528 550.798 393.967 C 554.079 392.847 555.936 390.229 557.296 387.178 C 559.1 383.132 559.788 378.423 558.093 374.235 C 557.902 373.762 557.689 373.297 557.487 372.828 L 558.949 372.331 C 570.182 373.79 583.114 383.735 592.233 390.109 C 598.84 390.285 605.077 391.06 611.553 392.341 C 613.701 417.504 621.259 443.688 627.921 468.018 C 609.742 467.865 590.905 468.488 572.838 466.726 C 565.202 465.981 557.857 463.354 550.246 462.667 C 530.177 460.857 507.315 475.396 492.643 487.712 C 488.149 481.474 482.366 475.949 477.088 470.352 C 476.873 464.271 476.968 457.352 475.18 451.508 C 474.293 448.605 473.598 446.665 470.901 445.173 C 470.607 445.295 470.294 445.379 470.019 445.539 C 464.958 448.476 463.804 458.063 462.517 463.314 C 459.181 461.906 455.826 460.491 452.306 459.603 C 437.649 455.905 422.087 460.445 409.541 468.147 A 1026.58 1026.58 0 0 0 340.346 467.149 C 328.593 467.339 315.804 468.979 304.222 468.215 C 302.316 468.089 300.717 467.814 299.258 466.47 C 297.194 464.568 297.08 463.36 296.705 460.762 C 297.983 459.129 298.205 458.724 300.394 458.41 C 306.59 457.521 314.121 459.26 320.629 458.897 C 342.868 457.657 366.026 455.244 388.033 451.761 C 391.61 451.194 395.486 450.543 397.658 447.543 L 396.476 445.065 C 384.177 444.936 371.898 444.675 359.616 445.524 C 338.008 447.019 317.011 449.978 295.243 449.244 L 296.035 436.711 C 312.521 436.577 395.098 441.509 403.285 434.116 L 402.048 432.725 C 383.586 426.1 318.633 425.534 297.092 426.315 C 297.037 423.176 296.423 418.34 297.874 415.567 C 298.975 413.463 305.804 415.023 307.9 415.269 C 333.116 418.23 377.064 415.091 401.905 409.477 C 380.914 403.029 323.056 404 298.486 403.967 C 298.376 399.154 297.225 394.039 299.162 389.545 C 300.41 388.306 301.21 387.733 302.953 387.261 C 310.155 385.311 324.886 387.076 332.947 386.86 A 2766.87 2766.87 0 0 0 422.165 383.532 C 429.434 383.149 450.095 380.015 455.758 383.803 C 456.009 386.611 455.972 390.344 458.344 392.293 C 460.549 394.105 461.721 394.061 464.373 393.997 C 468.088 390.851 469.514 379.105 473.23 373.787 C 480.991 362.681 490.656 358.563 503.595 356.274 z"/>
<path transform="translate(0,0)" fill="rgb(172,197,213)" d="M 887.799 1546.32 L 887.107 1542.41 C 888.878 1540.15 890.4 1540.12 893.126 1539.73 A 53.4777 53.4777 0 0 1 912.539 1540.39 C 921.416 1542.41 933.169 1540.85 942.471 1540.83 A 2726.82 2726.82 0 0 0 1020.13 1540.15 C 1073.82 1539.36 1128.34 1541.76 1181.83 1536.6 C 1178.86 1547.97 1176.55 1560.72 1171.27 1571.25 C 1160.02 1573.86 1145.62 1575.08 1138.63 1585.51 C 1136.2 1589.13 1134.58 1593.73 1131.05 1596.46 C 1120.06 1604.99 1064.59 1620.76 1062.96 1632.12 C 1066.24 1639.75 1076.43 1644.78 1083.9 1647.79 C 1095.95 1652.65 1108.87 1653.5 1121.02 1648.41 C 1135.34 1642.41 1143.17 1625.53 1151.96 1613.51 C 1151.29 1619.77 1149.48 1630.61 1153.73 1635.86 C 1153.94 1636.11 1154.2 1636.3 1154.44 1636.53 C 1156.57 1635.74 1156.59 1635.38 1157.53 1633.39 C 1159.78 1628.65 1162.38 1610.8 1163.99 1608.93 C 1164.4 1608.45 1165.14 1608.4 1165.72 1608.14 L 1165.8 1608.79 L 1164.79 1607.06 L 1165.59 1607.4 C 1166.67 1618.31 1164.35 1629.98 1163.52 1640.94 C 1162.83 1649.93 1162.98 1659.02 1163.16 1668.03 C 1120.01 1669.61 1077.01 1668.17 1033.86 1668.64 A 2952.12 2952.12 0 0 1 933.125 1668.54 C 917.759 1668.35 902.544 1669.08 887.211 1667.73 C 885.08 1642.68 883.984 1617.13 884.392 1591.98 C 884.522 1583.92 887.608 1565.75 885.727 1559.11 C 893.741 1566.6 899.23 1576.69 905.02 1585.92 C 919.2 1608.52 937.335 1639.34 961.658 1651.63 C 978.046 1659.91 995.589 1659.02 1012.57 1652.87 C 1020.16 1650.12 1023.64 1645.95 1026.89 1638.76 C 1004.03 1598.31 969.348 1617.8 936.028 1597.33 C 919.032 1586.9 901.128 1561.66 887.799 1546.32 z"/>
<path transform="translate(0,0)" fill="rgb(26,65,99)" d="M 1026.47 1566.42 C 1030.2 1565.26 1035.18 1565.64 1038.99 1566.26 C 1046.25 1567.45 1058.96 1569.81 1062.61 1576.93 C 1063.79 1579.22 1063.86 1581.63 1062.78 1583.96 C 1059.66 1590.71 1049.61 1593.52 1043.33 1596.16 C 1035.07 1598.04 1022.84 1594.36 1015.79 1590.23 C 1011.95 1587.98 1006.19 1583.6 1005.61 1578.74 C 1005.35 1576.46 1005.93 1574.86 1007.25 1573.07 C 1011.3 1567.62 1020.33 1567.29 1026.47 1566.42 z"/>
<path transform="translate(0,0)" fill="rgb(172,197,213)" d="M 1162.38 1402.55 C 1169.66 1402.17 1176.96 1402.07 1184.24 1401.89 C 1184.22 1408.27 1184.94 1415.73 1181 1421.17 C 1177.47 1426.04 1168.45 1428.44 1162.86 1429.21 C 1150.19 1440.19 1138.99 1448.98 1123.37 1455.38 C 1110.69 1460.58 1062.33 1482.88 1058.32 1495.89 C 1057.5 1498.56 1057.65 1500.23 1059.15 1502.61 C 1063.1 1508.88 1081.04 1515.19 1088.18 1516.51 C 1108.11 1520.21 1128.05 1509.67 1139.32 1493.44 C 1144.54 1485.92 1149.1 1476.07 1155.67 1469.7 C 1158.46 1466.99 1162.08 1464.8 1165.31 1462.64 C 1164.89 1476.18 1163.07 1490.2 1161.15 1503.61 C 1171.65 1490.33 1176.21 1476.87 1180.18 1460.71 C 1181.43 1455.61 1182.38 1450.01 1184.3 1445.13 C 1185.89 1441.07 1189.52 1438.42 1191.15 1434.36 C 1194.41 1426.23 1196.02 1417.2 1198.93 1408.85 C 1207.33 1425.18 1210.87 1444.25 1220 1460.03 C 1205.83 1482.5 1195.16 1505.9 1184.01 1529.94 C 1146.65 1531.29 1109.05 1530.85 1071.66 1531.2 C 1042.85 1531.46 1014.07 1532.59 985.25 1532.78 C 952.826 1531.89 920.336 1533.01 887.891 1532 C 889.965 1503.43 896.423 1467.5 904.828 1440.23 C 911.438 1461.03 920.413 1483.04 933.664 1500.5 C 938.967 1507.49 950.461 1516.91 959.682 1517.11 C 962.407 1517.17 962.808 1516.61 964.701 1514.9 C 966.37 1510.28 961.236 1491.94 959.745 1486.35 C 971.435 1501.77 984.907 1517.95 1005.39 1520.73 C 1011.08 1521.51 1017.4 1521.04 1022.02 1517.27 C 1024.72 1515.07 1026.2 1512.02 1026.48 1508.57 C 1027.02 1502.15 1023.4 1495.99 1019.36 1491.3 C 1002.33 1471.51 967.479 1464.18 942.623 1462.77 C 931.282 1453.33 921.059 1435.19 910.348 1423.76 C 911.855 1417.06 914.158 1410.45 916.173 1403.88 C 960.492 1404.68 1004.68 1404.08 1048.99 1404.05 C 1069.38 1404.04 1089.8 1405.19 1110.17 1404.82 C 1127.57 1404.5 1144.95 1402.92 1162.38 1402.55 z"/>
<path transform="translate(0,0)" fill="rgb(26,65,99)" d="M 1186.22 1444.93 C 1189.78 1444.82 1192.05 1444.87 1195.04 1446.95 C 1198.55 1454.86 1193.81 1465.79 1191.12 1473.55 L 1188.57 1477.76 C 1187.87 1475.84 1187.9 1476.53 1187.98 1474.74 C 1188.42 1464.67 1188.04 1454.86 1186.22 1444.93 z"/>
<path transform="translate(0,0)" fill="rgb(26,65,99)" d="M 1016.71 1425.14 L 1018.59 1425 C 1027.61 1424.24 1046.66 1426.4 1054.57 1430.97 C 1057.03 1432.39 1057.53 1433.51 1058.33 1436.13 C 1056.53 1442.14 1051.43 1444.37 1046.43 1447.39 C 1042.05 1449.34 1037.57 1450.81 1032.7 1450.66 C 1025.28 1450.43 1016.53 1446.44 1011.76 1440.7 C 1009.93 1438.49 1008.53 1435.47 1009.18 1432.55 C 1010.07 1428.56 1013.41 1426.83 1016.71 1425.14 z"/>
<path transform="translate(0,0)" fill="rgb(154,176,198)" d="M 629.687 1387.7 C 681.132 1407.33 708.953 1429.97 739.887 1475.21 A 366.034 366.034 0 0 1 771.497 1530.92 C 786.71 1564.89 804.935 1617.42 811.776 1653.5 C 817.037 1681.25 817.953 1710.51 821.429 1738.63 C 824.174 1760.83 829.356 1783.13 833.623 1805.1 C 836.366 1819.21 838.202 1833.55 841.32 1847.58 C 798.284 1824.15 768.102 1816.43 720.431 1808.79 C 711.441 1807.35 702.155 1807.1 693.243 1805.46 L 695.323 1804.39 C 705.375 1771.34 713.964 1736.61 717.671 1702.23 C 719.774 1682.73 719.76 1663.26 719.401 1643.67 C 718.424 1590.55 711.342 1541.49 694.823 1490.91 C 690.292 1477.03 685.588 1462.92 678.945 1449.9 C 672.111 1436.5 663.908 1423.46 653.936 1412.17 C 647.727 1405.14 634.029 1397.71 630.454 1389.6 C 630.179 1388.97 629.943 1388.33 629.687 1387.7 z"/>
<path transform="translate(0,0)" fill="rgb(18,50,81)" d="M 747.468 1556.56 C 748.388 1557.16 749.246 1557.81 749.991 1558.63 C 762.507 1572.35 773.367 1617.97 772.714 1636.7 C 772.274 1636.3 771.798 1635.93 771.393 1635.5 C 766.263 1629.95 747.646 1565.64 747.468 1556.56 z"/>
<path transform="translate(0,0)" fill="rgb(26,65,99)" d="M 717.255 1466.47 C 723.77 1468.7 730.856 1482.01 734.557 1487.99 C 761.815 1532.02 778.46 1570.34 788.068 1621.61 C 790.353 1633.8 793.488 1649.02 790.602 1661.3 C 789.251 1661 787.204 1660.96 786.266 1659.86 C 782.899 1655.9 776.835 1611.02 774.368 1600.62 A 312.878 312.878 0 0 0 757.616 1549.58 C 751.051 1534.28 717.124 1477.13 717.255 1466.47 z"/>
<path transform="translate(0,0)" fill="rgb(172,197,213)" d="M 1413.61 1830.58 C 1422.84 1828.52 1444.41 1831.74 1454.07 1833.28 C 1484.79 1838.17 1517.71 1858.73 1535.87 1883.96 C 1547.54 1900.17 1553.9 1919.95 1550.17 1939.97 C 1547.12 1956.4 1536.82 1970.52 1523.22 1979.96 C 1507.37 1990.96 1485.68 1994.84 1466.85 1991.42 C 1472.74 1978.08 1478.8 1968.25 1481.02 1953.42 C 1483.45 1937.18 1486.39 1901.97 1475.39 1888.21 C 1473.15 1885.41 1470.68 1884.29 1467.1 1884 C 1463.91 1888.59 1466.61 1926.29 1465.99 1935.2 C 1465.4 1943.57 1463.18 1952.07 1460.3 1959.93 C 1454.99 1974.38 1445.77 1989.05 1431.08 1995.33 C 1420.29 1999.95 1399.27 1999.47 1388.41 1995.08 C 1387.82 1994.43 1386.98 1993.94 1386.64 1993.14 C 1386.3 1992.32 1387.2 1990.23 1387.58 1989.47 C 1402.6 1959.3 1402.46 1954.58 1401.5 1921.57 C 1401.46 1920.26 1401.48 1918.95 1401.31 1917.65 C 1400.24 1909.54 1393.73 1898.46 1386.71 1894.09 C 1384.29 1892.59 1383.12 1892.59 1380.43 1893.19 C 1379.14 1895.94 1380.07 1897.82 1380.63 1900.75 C 1383.7 1918.43 1384.87 1935.69 1381.34 1953.43 C 1378.23 1969.03 1371.36 1984.02 1357.52 1992.9 C 1341.08 2003.45 1322.6 2001.96 1304.4 1998.27 A 212.558 212.558 0 0 0 1309.93 1989.24 C 1321.82 1968.39 1325.98 1931.97 1319.21 1909.07 C 1318.06 1905.18 1316 1899.88 1311.85 1898.27 C 1309.36 1897.31 1308.25 1897.77 1305.96 1898.67 C 1304.95 1900.39 1304.84 1901.42 1304.95 1903.34 C 1305.82 1919.15 1306.34 1937.13 1303.2 1952.72 C 1299.8 1969.56 1293.06 1986.35 1278.11 1996.11 C 1277.78 1996.32 1277.45 1996.52 1277.13 1996.73 C 1260.66 1998.32 1238.56 1999.69 1225.22 1988.06 C 1217.32 1981.18 1214.82 1970.73 1214.5 1960.65 C 1213.56 1931.15 1223.7 1908.62 1243.81 1887.59 C 1287.02 1842.41 1353.89 1832.02 1413.61 1830.58 z"/>
<path transform="translate(0,0)" fill="rgb(18,50,81)" d="M 1260.07 1917.19 C 1260.36 1917.17 1260.64 1917.15 1260.92 1917.14 C 1266.33 1917.01 1271.53 1917.61 1275.53 1921.54 C 1276.66 1924.6 1276.59 1924.61 1275.54 1927.7 C 1274.66 1928.05 1273.32 1928.63 1272.4 1928.76 C 1269.77 1929.14 1267.86 1928.3 1265.92 1926.62 C 1262.99 1924.08 1260.35 1920.95 1260.07 1917.19 z"/>
<path transform="translate(0,0)" fill="rgb(172,197,213)" d="M 662.298 1826.41 C 663.427 1826.29 664.555 1826.17 665.688 1826.1 C 704.537 1823.66 777.387 1840.38 812.393 1857.2 A 117.025 117.025 0 0 1 839.354 1875.35 C 860.901 1894.97 878.831 1928 880.095 1957.46 C 880.546 1967.96 879.997 1978.96 872.174 1986.91 C 863.339 1995.89 851.356 1995.36 839.746 1995.44 C 827.88 1995.52 817.836 1993.08 809.305 1984.26 C 793.751 1968.19 791.23 1936.92 791.108 1915.56 C 791.08 1910.78 792.34 1906.13 792.355 1901.35 C 792.366 1897.8 791.48 1896.16 788.991 1893.75 C 786.439 1893.11 784.725 1893.12 782.328 1894.42 C 778.877 1896.28 777.206 1899.69 776.136 1903.31 C 768.693 1928.48 777.498 1970.44 790.222 1993.04 C 783.735 1997.86 778.028 1999.77 769.888 2000.56 C 754.203 2002.08 732.358 1997.76 720.419 1987.21 C 708.025 1976.26 701.778 1956.94 700.724 1940.81 C 696.406 1929.16 703.664 1896.73 697.827 1890.29 C 696.738 1889.09 696.028 1889.4 694.537 1889.29 C 690.66 1891.07 687.773 1894.11 686.177 1898.11 C 683.12 1905.76 682.657 1914.6 682.441 1922.75 C 681.649 1952.62 687.294 1966.48 698.49 1993.3 C 684.774 1999.09 671.363 1996.8 657.73 1992.05 C 621.473 1979.4 611.355 1948.17 616.238 1912.43 C 616.913 1907.49 620.603 1898.05 617.79 1893.71 C 616.39 1891.55 615.686 1891.6 613.347 1891.32 C 609.162 1892.86 605.999 1896.51 604.322 1900.61 C 602.514 1905.03 602.14 1910.9 601.371 1915.67 C 597.007 1942.68 603.192 1962.21 614.605 1986.58 C 594.42 1983.3 575.933 1976.77 559.847 1963.81 C 547.717 1954.04 540.359 1941.87 538.798 1926.13 C 536.426 1902.2 546.562 1875.09 561.869 1856.84 C 581.934 1832.93 632.759 1828.8 662.298 1826.41 z"/>
<path transform="translate(0,0)" fill="rgb(172,197,213)" d="M 887.57 1676.78 L 1060 1676.37 C 1094.89 1676.52 1129.69 1677.57 1164.58 1676.05 L 1171.45 1695.71 C 1160.08 1700.39 1152.83 1710.22 1142.33 1716.27 C 1136.85 1719.43 1130.2 1720.06 1124.41 1722.84 C 1118.84 1732.2 1113.5 1740.34 1105.15 1747.43 C 1099.75 1752.03 1093.64 1756.37 1087.31 1759.6 C 1081.01 1762.81 1067.66 1764.92 1064.64 1772 C 1063.94 1773.65 1063.68 1775.22 1064.2 1776.97 C 1066 1783.05 1074.75 1786.88 1080.12 1789.04 C 1093.22 1794.29 1104.84 1793.2 1117.56 1787.54 C 1126.78 1783.44 1136.06 1777.97 1142.4 1769.99 C 1146.17 1762.61 1150.17 1755.78 1153.34 1748.07 C 1153.49 1754.83 1153.69 1761.44 1151.61 1767.95 C 1151.26 1771.1 1151.07 1771.78 1152.37 1774.62 L 1154.54 1775.97 C 1158.76 1774.29 1162.5 1767.95 1164.22 1763.88 C 1168.37 1754.11 1165.86 1743.27 1169.15 1733.58 C 1173.38 1742.61 1168.25 1757.35 1169.51 1760.49 C 1174.49 1757.19 1176.59 1753.09 1177.87 1747.34 C 1180.33 1736.27 1175.99 1714.51 1180.7 1706.33 C 1190.36 1705.42 1229.33 1731.02 1243.06 1734.28 C 1241.36 1748.67 1240.51 1763.14 1238.57 1777.5 C 1234.86 1804.93 1228.63 1831.39 1220.92 1857.96 C 1214.63 1879.63 1205.16 1900.55 1199.54 1922.31 C 1197.7 1929.46 1195.49 1954.55 1192.91 1958.49 C 1191.24 1955.8 1192.36 1951.26 1193.02 1948.18 L 1184.61 1937.67 C 1187.81 1930.16 1198.91 1913.37 1197.86 1906.49 C 1196.15 1904.67 1196.18 1904.8 1193.68 1904.58 C 1185.11 1907.92 1179.23 1924.69 1173.88 1932.12 C 1145.13 1934.22 1116.38 1933.39 1087.62 1934.17 C 1064.75 1934.79 1042.38 1937.3 1019.41 1936.91 C 984.677 1936.32 949.911 1933.43 915.211 1932.98 C 903.505 1905.09 892.701 1878.07 884.961 1848.75 C 881.299 1834.89 879.25 1820.69 875.724 1806.84 L 892.174 1807.38 C 894.791 1828.66 905.719 1889.62 916.995 1905.96 L 918.568 1906.38 C 919.608 1904.33 920.065 1902.42 919.992 1900.13 C 919.766 1893.06 917.19 1885.07 915.647 1878.13 C 912.117 1862.26 907.939 1846.05 906.115 1829.87 C 906.387 1830.36 906.668 1830.86 906.933 1831.36 C 910.358 1837.85 911.657 1846.6 914.114 1853.63 C 923.072 1879.24 937.414 1909.95 964.999 1919.33 C 980.704 1924.68 1009.25 1924.11 1024.03 1916.49 C 1026.82 1915.05 1029.45 1912.79 1030.16 1909.58 C 1031.39 1904.06 1027.17 1897.74 1023.88 1893.73 C 1015.18 1883.1 1000.87 1878.71 987.61 1877.65 C 956.993 1875.21 949.25 1876.78 927.301 1851.54 C 918.953 1841.94 912.917 1823.76 911.545 1810.99 L 912.394 1809.39 C 914.534 1808.75 916.244 1808.43 918.497 1808.39 C 934.099 1808.11 949.839 1808.94 965.468 1808.93 L 1101.52 1808.47 C 1115.91 1808.37 1173.19 1805.17 1181.73 1807.47 C 1177.6 1810.95 1178.94 1818.77 1175.65 1823.99 C 1169.94 1833.05 1163.83 1841.79 1157.69 1850.56 C 1155.1 1851.12 1152.46 1851.85 1150.09 1853.07 C 1134.75 1861.02 1120.68 1872.89 1106.14 1882.21 C 1094.13 1889.9 1077.88 1895.24 1068.21 1905.79 C 1078.48 1915.1 1089.94 1922.09 1104.38 1921.49 C 1127.34 1920.54 1127.68 1909.8 1140.4 1905.34 C 1142.29 1909.92 1141.28 1914.82 1143.93 1919.12 L 1146 1919.86 C 1152.64 1916.51 1158.13 1897.74 1162.95 1890.86 C 1161.83 1897 1158.74 1905.84 1161.93 1911.69 L 1164.05 1911.87 C 1171.14 1905.46 1176.48 1895.7 1180.1 1886.93 C 1181.35 1883.9 1182.83 1878.26 1184.97 1875.86 C 1189.08 1871.26 1195.85 1878.1 1195.96 1868.36 C 1196.04 1860.8 1195.02 1853.96 1196.04 1846.28 L 1196.96 1845.72 C 1198.76 1851.86 1199.94 1872.37 1204.31 1875.39 C 1210.89 1869.46 1214.13 1803.71 1216.14 1790.04 C 1217.34 1781.9 1220.6 1773.95 1221.08 1765.72 C 1221.37 1760.82 1220.59 1753.69 1217.21 1749.86 C 1215.92 1748.41 1215.2 1748.54 1213.4 1748.06 C 1204.18 1750.8 1193.61 1768.93 1189.14 1777.13 C 1185.71 1783.41 1183.16 1790.26 1181.33 1797.17 A 4775.06 4775.06 0 0 1 988.842 1801.21 C 962.516 1801.14 936.101 1799.78 909.805 1800.08 C 903.622 1776.08 896.655 1751.48 892.617 1727.03 C 889.87 1710.39 888.931 1693.57 887.57 1676.78 z"/>
<path transform="translate(0,0)" fill="rgb(26,65,99)" d="M 995.388 1702.37 C 1011.13 1703.55 1027.54 1702.6 1043.23 1705 C 1045.89 1705.41 1047.32 1705.49 1048.98 1707.76 C 1048.87 1711.18 1047.08 1713.05 1045.1 1715.64 C 1043.28 1716.98 1041.23 1718.46 1039.04 1719.13 C 1024.67 1723.49 1008.17 1714.89 995.948 1707.99 C 994.373 1705.31 994.62 1705.43 995.388 1702.37 z"/>
<path transform="translate(0,0)" fill="rgb(26,65,99)" d="M 1052.42 1825.18 C 1056.09 1824.99 1060.35 1825.44 1063.95 1826.14 C 1066.56 1826.64 1068.43 1827.4 1070 1829.65 C 1069.3 1836.42 1062.67 1834.19 1059.11 1838.41 C 1059.48 1841.09 1060.11 1844.19 1059.65 1846.86 C 1058.99 1850.65 1056.12 1854.1 1052.91 1856.03 C 1045.17 1860.69 1035.76 1859.85 1027.47 1857.52 C 1020.22 1853.88 1014.46 1849.67 1008.75 1843.88 C 1006.59 1841.68 1004.77 1839.67 1004.79 1836.44 C 1005.23 1835.87 1005.47 1835.08 1006.1 1834.72 C 1008.18 1833.52 1016.88 1833.91 1019.89 1833.38 C 1030.91 1831.42 1041.46 1827.45 1052.42 1825.18 z"/>
<path transform="translate(0,0)" fill="rgb(26,65,99)" d="M 900.299 1720.89 C 912.712 1720.64 911.195 1729.85 919.716 1734.49 C 923.948 1736.79 923.633 1733.03 927.608 1732 C 936.932 1734.48 944.545 1741.38 954.012 1743.86 C 974.608 1749.25 1001.62 1740.86 1018.37 1756.94 C 1022.58 1760.99 1027.91 1768.38 1027.52 1774.55 C 1027.33 1777.59 1025.92 1778.44 1023.61 1780.02 C 1014.9 1783.8 1006.09 1786.75 996.682 1788.18 C 978.48 1790.96 953.733 1786.42 938.982 1775.13 A 47.8221 47.8221 0 0 1 929.934 1765.99 C 924.98 1759.36 922.13 1751.33 917.258 1744.7 C 912.542 1738.27 906.174 1732.93 901.943 1726.17 C 900.846 1724.42 900.539 1722.91 900.299 1720.89 z"/>
<path transform="translate(0,0)" fill="rgb(193,212,229)" d="M 0 232.496 C 7.56649 240.784 16.6329 247.664 24.8736 255.271 C 42.2276 271.288 63.0772 292.507 82.137 305.609 C 80.9445 319.062 80.8025 333.173 78.4175 346.437 C 85.8538 363.108 100.303 377.282 117.46 383.892 C 128.604 388.185 144.95 385.982 156.927 385.958 C 181.543 385.908 206.183 386.052 230.795 385.683 C 242.752 385.503 254.777 384.241 266.726 384.762 C 270.744 384.937 277.29 384.791 280.396 387.438 C 280.593 395.933 280.854 404.456 280.539 412.95 C 280.007 427.297 274.696 467.497 284.664 477.639 C 286.399 479.403 288.398 480.99 290.307 482.557 C 306.356 482.79 322.443 483.163 338.488 482.691 C 357.674 482.127 376.312 480.646 395.512 482.148 C 384.848 495.496 379.858 507.903 376.124 524.5 C 362.824 517.561 349.847 513.293 334.797 517.813 C 321.634 521.767 312.253 531.876 306.126 543.788 C 294.019 567.327 295.246 604.516 303.22 629.164 C 309.396 648.256 320.489 662.855 332.621 678.496 C 336.43 702.498 331.599 728.273 332.404 752.665 C 296.378 724.339 263.072 692.606 229.108 661.88 C 213.355 647.629 197.124 633.919 181.445 619.58 C 143.923 585.266 106.952 549.983 70.0335 515.012 C 46.4214 492.645 23.6593 469.397 0 447.075 L 0 232.496 z"/>
<path transform="translate(0,0)" fill="rgb(154,176,198)" d="M 1476.77 489.468 C 1477.41 488.81 1478.05 488.139 1478.74 487.522 C 1499.89 468.519 1530 458.316 1558.33 459.83 C 1578 460.882 1594.46 466.441 1607.83 481.389 A 16074.1 16074.1 0 0 1 1615.01 737.188 L 1618.64 863.25 C 1619.15 886.249 1618.35 909.293 1618.99 932.269 C 1619.54 951.837 1626.35 1056.58 1621.61 1064.85 C 1618.72 1066.7 1614.25 1066.13 1610.87 1066.12 L 1608.48 956 C 1608.3 949.63 1609.64 929.727 1605.22 925.528 L 1606.66 926.887 L 1604.23 925.969 C 1600.72 930.601 1599.79 938.066 1599.74 943.713 C 1599.72 945.693 1599.72 947.562 1599.44 949.527 L 1599.18 951.197 C 1600.83 964.268 1599.89 977.674 1600.32 990.832 C 1600.92 1009.04 1601.19 1027.18 1601.48 1045.4 C 1601.57 1050.66 1602.52 1056.23 1602.14 1061.45 C 1602.03 1063.07 1601.65 1064.36 1600.75 1065.72 C 1599.89 1067.02 1599.02 1066.96 1597.63 1067.41 C 1595.62 1066.98 1594.24 1066.77 1592.44 1065.78 C 1591.81 1057.11 1592.98 1039.54 1588.66 1032.71 C 1588.47 1032.93 1588.28 1033.14 1588.09 1033.36 C 1580.97 1041.9 1583.45 1056.42 1584.23 1066.78 C 1558.69 1066.78 1532.97 1067.6 1507.46 1066.51 C 1502.5 1061.71 1498.66 1054.93 1494.66 1049.29 C 1487.18 1038.72 1479.76 1028.72 1470.72 1019.4 C 1468.29 979.307 1472.74 959.671 1454 921.184 C 1477.73 852.513 1492.99 778.268 1483.85 705.443 C 1481.81 689.155 1479.04 672.627 1475.9 656.515 C 1474.41 648.86 1471.18 641.711 1470.59 633.876 C 1468.74 609.344 1471.01 583.569 1472.21 559.002 C 1473.34 535.93 1473.72 512.364 1476.77 489.468 z"/>
<path transform="translate(0,0)" fill="rgb(18,50,81)" d="M 1598.99 846.319 C 1600.28 847.136 1601.14 847.693 1602.01 849.024 C 1608.27 858.627 1604.23 894.901 1601.1 906.465 C 1599.81 905.424 1598.89 904.44 1598 903.014 C 1591.33 892.385 1595.58 858.179 1598.99 846.319 z"/>
<path transform="translate(0,0)" fill="rgb(18,50,81)" d="M 1586.79 1014.31 C 1583.37 1011.81 1582.72 1009.86 1581.92 1005.84 C 1578.87 990.57 1576.6 931.363 1584.72 919.47 L 1585.9 919.746 C 1590.23 930.768 1588.62 947.531 1588.92 959.357 C 1584.79 975.663 1593 999.337 1586.79 1014.31 z"/>
<path transform="translate(0,0)" fill="rgb(136,165,188)" d="M 1567.06 1415.29 C 1568.09 1415.96 1568.42 1416.12 1569.45 1417.07 C 1578.21 1425.19 1586.15 1436.1 1593.11 1445.74 C 1628.79 1495.22 1647.07 1553.15 1650.6 1613.88 C 1655.05 1690.35 1623.89 1810.85 1590.18 1878.75 C 1584.99 1889.19 1580.41 1900.65 1572.61 1909.41 C 1567.93 1887.87 1556.54 1871.51 1540.94 1856.23 C 1504.93 1820.92 1461.94 1807.19 1412.22 1807.57 C 1400.18 1808.77 1387.98 1808.75 1375.88 1810.11 A 317.342 317.342 0 0 0 1268.06 1842.65 C 1273.12 1804.69 1281.84 1766.85 1283.08 1728.5 C 1308.04 1737.18 1322.95 1731.35 1345.54 1720.49 C 1360.07 1724.97 1375.59 1725.46 1389.5 1718.62 A 52.7368 52.7368 0 0 0 1410.01 1700.85 C 1421.14 1684.41 1427.45 1664.19 1436.6 1646.56 C 1447.71 1625.15 1463.13 1600.9 1475.75 1579.9 C 1494.05 1549.45 1518.81 1523.61 1535.77 1492 C 1548.95 1467.42 1558.01 1441.58 1567.06 1415.29 z"/>
<path transform="translate(0,0)" fill="rgb(18,50,81)" d="M 1627.93 1652.37 C 1629.75 1653.66 1630.32 1653.8 1630.8 1656.09 C 1633.46 1668.85 1631.9 1694.48 1624.2 1705.55 C 1623.55 1704.65 1623.11 1704.17 1622.7 1703.05 C 1619.95 1695.69 1624.49 1659.83 1627.93 1652.37 z"/>
<path transform="translate(0,0)" fill="rgb(18,50,81)" d="M 1611.11 1758.14 C 1613.33 1758.87 1613.68 1758.64 1615.19 1760.57 C 1613.3 1777.63 1603.39 1830.88 1591.39 1842.29 L 1589.39 1842.28 L 1588.46 1841.03 C 1588.78 1823.58 1604.22 1776.03 1611.11 1758.14 z"/>
<path transform="translate(0,0)" fill="rgb(18,50,81)" d="M 1595.37 1736.78 C 1596.72 1737.16 1598.1 1737.03 1598.69 1738.44 C 1603.33 1749.52 1587.48 1800.91 1581.52 1812.71 C 1578.91 1817.89 1574.6 1827.59 1569.28 1830.03 L 1567.85 1828.39 C 1569.05 1821 1572.31 1813.59 1574.65 1806.46 C 1578.33 1795.23 1582.39 1780.87 1583.46 1769.07 C 1587.68 1758.39 1590.95 1747.42 1595.37 1736.78 z"/>
<path transform="translate(0,0)" fill="rgb(172,197,213)" d="M 1583.46 1769.07 C 1577.59 1776.53 1573.09 1785.19 1567.26 1792.77 C 1560.3 1801.84 1551.38 1808.58 1539.75 1809.85 C 1522.68 1811.72 1506.24 1803.05 1493.2 1792.8 C 1471.7 1775.9 1454.16 1746.39 1451.2 1719.06 C 1447.33 1683.34 1467.06 1644.26 1483.76 1613.86 C 1488.79 1604.71 1493.84 1594.95 1500.54 1586.92 C 1510.93 1574.45 1528.95 1565.06 1545.16 1563.82 C 1557.2 1562.89 1568.3 1566.85 1577.33 1574.81 C 1610.91 1604.42 1607.36 1663.69 1600.69 1703.97 C 1599.23 1712.74 1594.19 1727.21 1595.14 1735.17 C 1595.2 1735.71 1595.3 1736.24 1595.37 1736.78 C 1590.95 1747.42 1587.68 1758.39 1583.46 1769.07 z"/>
<path transform="translate(0,0)" fill="rgb(135,66,82)" d="M 567.268 2048 C 547.152 2043.27 526.94 2039.53 506.954 2034.18 C 455.588 2020.42 378.104 1992.94 349.353 1945.82 C 346.11 1940.51 342.829 1933.76 344.421 1927.39 C 349.877 1905.55 379.502 1889.04 397.707 1878.85 C 414.971 1869.2 441.945 1855.39 460.539 1849.47 C 472.933 1874.09 479.492 1901.96 492.642 1926.01 C 502.651 1944.3 544.846 1979.95 562.667 1991.35 A 110.586 110.586 0 0 0 587.755 2003.37 C 603.131 2008.37 617.355 2008.82 633.111 2005.49 C 662.239 2018.45 689.539 2025.12 720.938 2014.43 L 724.446 2016.97 L 725.067 2016 L 726.155 2017.65 C 745.264 2026.27 775.223 2026.93 794.957 2019.15 C 798.993 2017.57 802.686 2015.49 806.315 2013.14 C 823.58 2021.49 850.401 2020.91 868.359 2014.53 C 882.834 2009.38 891.853 1999.53 901.311 1987.97 C 974.263 1987.99 1047.05 1988.33 1119.98 1985.94 C 1144.13 1985.15 1169.93 1986.73 1193.8 1983.08 C 1206 2001.02 1219.53 2012.09 1241.31 2016.09 C 1257.69 2019.09 1274.79 2017.6 1291.1 2014.9 C 1313.75 2024.77 1334.29 2027.96 1357.95 2018.79 C 1362.01 2017.22 1366.01 2015.4 1369.94 2013.53 C 1392.49 2022.22 1421.02 2024.7 1443.59 2014.8 C 1447.24 2013.19 1450.78 2011.34 1454.3 2009.47 C 1476.68 2017.78 1504.26 2014.49 1525.78 2004.52 C 1538.33 1998.71 1549.28 1989.12 1557.46 1978.02 C 1561.59 1972.41 1567.14 1953.85 1572.58 1952.26 C 1574.89 1951.58 1578.33 1950.85 1579.98 1949.04 C 1586.15 1942.3 1591.34 1929.76 1595.71 1921.57 A 858.629 858.629 0 0 0 1615.25 1882.26 C 1619.21 1873.95 1622.9 1864.81 1628.02 1857.16 C 1659.85 1866.69 1718.84 1894.05 1734.4 1923.66 C 1738.46 1931.39 1740.55 1940.23 1737.74 1948.73 C 1731.07 1968.95 1701.69 1985.86 1683.62 1994.34 C 1642.29 2013.73 1594.09 2026.87 1549.13 2034.55 C 1541.05 2035.93 1484.26 2043.92 1481.65 2046.92 C 1481.35 2047.26 1481.08 2047.64 1480.79 2048 L 567.268 2048 z"/>
<path transform="translate(0,0)" fill="rgb(193,212,229)" d="M 1975.88 294.433 C 1992.07 281.437 2006.68 265.57 2020.9 250.483 C 2027.91 243.053 2034.78 234.962 2042.69 228.49 C 2045.31 229.47 2046.36 231.811 2048 234.025 L 2048 472.501 C 2005.57 516.204 1963.32 559.865 1919.34 602.043 C 1904.85 615.933 1881.91 639.691 1865.12 649.318 C 1861.95 651.134 1858.84 653.037 1855.7 654.903 C 1852.96 653.771 1850.21 652.608 1847.37 651.757 C 1841.42 649.973 1836.06 650.364 1830.83 653.939 C 1824.27 658.421 1818.23 664.672 1812.23 669.922 A 2947.49 2947.49 0 0 0 1769.32 708.044 A 869.365 869.365 0 0 1 1662.4 789.72 C 1651.33 797.035 1640.43 804.965 1628.72 811.23 C 1625.31 775.172 1627.06 737.842 1626.14 701.622 L 1623.67 568.001 C 1623.21 539.763 1622.19 511.654 1622.67 483.402 C 1635.08 482.22 1647.56 479.762 1660.03 479.574 C 1693.47 479.07 1733.03 482.364 1765.49 479 C 1773.64 478.154 1776.38 474.506 1781.23 468.545 C 1783.75 441.518 1781.3 414.727 1783.28 387.85 C 1803.4 385.37 1825.26 386.994 1845.61 386.974 C 1864.1 386.955 1882.57 385.864 1901.02 385.892 C 1915.98 385.915 1932.85 387.664 1947.54 384.687 A 178.29 178.29 0 0 0 1965 367.633 C 1978.81 352.096 1978.84 344.914 1977.49 325.035 C 1976.8 314.853 1976.45 304.626 1975.88 294.433 z"/>
<path transform="translate(0,0)" fill="rgb(172,197,213)" d="M 519.991 1929.74 C 492.229 1881.01 473.953 1826.75 458.648 1773.03 C 447.193 1732.82 437.869 1696.57 433.989 1654.69 A 404.372 404.372 0 0 1 438.461 1548.13 C 449.065 1490.15 470.149 1445.7 519.925 1411.73 C 552.92 1389.22 590.358 1380.31 629.687 1387.7 C 629.943 1388.33 630.179 1388.97 630.454 1389.6 C 634.029 1397.71 647.727 1405.14 653.936 1412.17 C 663.908 1423.46 672.111 1436.5 678.945 1449.9 C 685.588 1462.92 690.292 1477.03 694.823 1490.91 C 711.342 1541.49 718.424 1590.55 719.401 1643.67 C 719.76 1663.26 719.774 1682.73 717.671 1702.23 C 713.964 1736.61 705.375 1771.34 695.323 1804.39 L 693.243 1805.46 A 213.325 213.325 0 0 0 684.894 1805.06 C 645.059 1803.73 580.975 1819.86 551.76 1847.69 C 530.245 1868.19 520.842 1900.87 519.991 1929.74 z"/>
<path transform="translate(0,0)" fill="rgb(26,65,99)" d="M 486.867 1464.54 L 488.596 1465.62 C 488.628 1465.97 488.697 1466.32 488.691 1466.67 C 488.548 1475.96 467.794 1515.44 461.553 1522.51 L 459.625 1520.58 C 459.522 1519.2 459.442 1517.95 459.645 1516.57 C 461.668 1502.86 475.884 1472.68 486.867 1464.54 z"/>
<path transform="translate(0,0)" fill="rgb(18,50,81)" d="M 505.733 1752.46 C 509.672 1754.52 511.775 1760.26 513.52 1764.19 C 518.119 1774.54 532.712 1811.29 534.371 1820.86 C 534.686 1822.67 534.248 1823.94 533.595 1825.61 C 531.971 1825.46 530.158 1825.23 528.785 1824.27 C 521.797 1819.37 513.129 1792.63 510.532 1784.27 C 508.354 1777.25 502.18 1759.2 505.733 1752.46 z"/>
<path transform="translate(0,0)" fill="rgb(26,65,99)" d="M 458.821 1691.13 C 461.003 1691.83 463.069 1692.21 464.182 1694.41 C 469.329 1704.58 472.951 1727.55 476.542 1739.66 C 485.789 1770.85 497.808 1801.82 505.223 1833.5 C 506.03 1836.94 506 1838.92 504.795 1842.24 C 502.575 1841.37 501.47 1840.59 500.214 1838.49 C 488.44 1818.83 459.207 1722.63 457.386 1699.82 C 457.142 1696.77 457.902 1694.02 458.821 1691.13 z"/>
<path transform="translate(0,0)" fill="rgb(172,197,213)" d="M 1112.04 1240.56 C 1113.47 1239.76 1113.07 1239.81 1114.38 1239.57 C 1115.57 1239.35 1116.79 1239.18 1117.99 1239 C 1120.1 1238.68 1122.51 1238.48 1124.45 1237.52 C 1136.4 1231.59 1151.2 1204.56 1155.9 1192.47 C 1159.38 1183.51 1161.4 1173.34 1166.24 1165.02 C 1168.07 1161.87 1169.87 1159.99 1173.12 1158.23 C 1192.24 1147.9 1233 1139.83 1256.11 1132.9 C 1296.04 1120.91 1349.39 1099.79 1389.59 1094.16 C 1409.43 1091.38 1435.82 1091.46 1455.11 1097.15 C 1466.91 1100.63 1477.68 1106.93 1487.46 1114.3 C 1494.14 1119.34 1512.92 1138.41 1519.05 1139.89 C 1519.51 1140 1519.98 1140.06 1520.45 1140.15 A 452.108 452.108 0 0 1 1552.41 1215.95 C 1576.57 1290.98 1568.02 1340.67 1545.35 1413.76 A 359.393 359.393 0 0 1 1516.83 1480.58 C 1511.6 1490 1506.33 1499.6 1500.12 1508.43 C 1486.78 1527.41 1471.16 1545.19 1458.85 1564.84 C 1453.85 1572.81 1449.67 1581.32 1444.82 1589.4 C 1434.74 1606.2 1424.39 1622.64 1415.84 1640.32 C 1408.17 1656.19 1402.95 1674.7 1393.38 1689.39 A 35.5118 35.5118 0 0 1 1379.38 1701.73 C 1372.8 1704.99 1364.94 1705.96 1357.99 1703.26 C 1355.65 1702.35 1353.53 1700.89 1351.45 1699.5 C 1348.13 1689.72 1345.03 1679.73 1343.84 1669.43 C 1343.03 1662.48 1343.78 1654.7 1341.63 1648.01 C 1340.82 1645.49 1340 1644.1 1337.64 1642.78 C 1333.41 1644.74 1332.03 1648.39 1330.45 1652.62 C 1326.25 1663.85 1326.52 1680.29 1331.37 1691.33 C 1332.75 1694.47 1334.77 1697.4 1336.66 1700.27 C 1327.02 1709.17 1316.85 1713.2 1304.11 1715.66 L 1302.77 1715.16 C 1292.3 1711.21 1283.34 1703.98 1278.73 1693.57 C 1271.89 1678.12 1276.46 1663.08 1272.2 1648.69 C 1271.4 1645.97 1270.22 1644.55 1267.69 1643.4 C 1264.67 1644.43 1263.14 1645.28 1261.84 1648.32 C 1255.61 1662.91 1258.49 1692.91 1265.07 1707.25 A 136.717 136.717 0 0 0 1266.43 1710.15 C 1254.97 1714.08 1244.61 1715.93 1233.27 1710.06 C 1220.85 1703.63 1215.33 1691.63 1211.64 1678.85 C 1209.7 1672.14 1207.82 1651.9 1202.35 1648.33 C 1198.27 1650.2 1197.23 1653.39 1195.62 1657.38 C 1196.46 1665.08 1201.27 1687.48 1198.52 1693.11 C 1196.39 1693.79 1197.31 1693.93 1195.38 1692.89 C 1188.47 1689.19 1183.38 1682.01 1181.24 1674.59 C 1178.53 1665.24 1179 1655.05 1179.26 1645.42 C 1180.63 1593.82 1197.21 1534.78 1223.07 1490.2 C 1236.72 1466.67 1252.92 1445.1 1267.56 1422.24 C 1288.54 1389.48 1307.8 1356.28 1330.7 1324.72 C 1335.81 1317.67 1341.23 1310.34 1347.09 1303.91 C 1353.22 1297.19 1367.17 1288.32 1368.53 1278.95 C 1367.66 1276.53 1367.45 1276.26 1365.44 1274.66 C 1358.92 1273.57 1353.4 1277.3 1348.28 1280.94 C 1341.71 1285.63 1335.45 1290.77 1328.8 1295.35 C 1329.21 1285.07 1324.84 1249.54 1318.17 1242.79 C 1316.33 1240.93 1315.26 1240.57 1312.71 1240.35 C 1309.9 1242.56 1309.16 1245.1 1308.74 1248.6 C 1306.15 1270.07 1313.3 1296.16 1310.81 1319.31 C 1295.23 1338.81 1282.84 1359.74 1270.23 1381.14 C 1269.12 1383.01 1268.28 1383.9 1266.1 1384.17 C 1262.18 1379.78 1254.66 1354.46 1250.96 1346.86 C 1221.73 1286.8 1175.38 1256.45 1112.04 1240.56 z"/>
<path transform="translate(0,0)" fill="rgb(18,50,81)" d="M 1342.9 1173.15 L 1345.54 1173.94 C 1353.66 1182.37 1353.32 1197.43 1353.21 1208.47 L 1350.59 1206.92 C 1345.16 1199.4 1342.96 1182.27 1342.9 1173.15 z"/>
<path transform="translate(0,0)" fill="rgb(136,165,188)" d="M 1525.12 1385.59 C 1524.63 1383.91 1524.49 1382.64 1524.87 1380.9 C 1527.71 1368.1 1533.03 1355.36 1536.76 1342.74 C 1540.45 1330.28 1542.12 1314.6 1547.93 1303.26 C 1546.43 1315.09 1543.35 1326.57 1541.43 1338.32 C 1539.38 1350.93 1538.56 1363.95 1535.99 1376.43 C 1535.46 1378.97 1535.06 1380.84 1533.36 1382.89 L 1530.99 1384.07 L 1530.72 1383.05 L 1529.29 1382.48 L 1525.12 1385.59 z"/>
<path transform="translate(0,0)" fill="rgb(26,65,99)" d="M 1439.34 1489.42 L 1440.99 1490.58 C 1441.65 1491.77 1441.95 1492.7 1442.04 1494.07 C 1443.35 1514.98 1425.04 1553.09 1410.89 1568.58 L 1409.62 1567.86 C 1408.76 1560.11 1434.49 1503.23 1439.34 1489.42 z"/>
<path transform="translate(0,0)" fill="rgb(26,65,99)" d="M 1525.12 1385.59 L 1529.29 1382.48 L 1530.72 1383.05 L 1530.99 1384.07 C 1530.72 1385.74 1530.4 1387.35 1530.46 1389.05 C 1530.95 1402.38 1522.09 1427.19 1518.23 1440.57 C 1514.85 1452.28 1508.16 1476.65 1496.93 1482.86 L 1495.76 1482.09 C 1493.24 1472.96 1509.17 1426.84 1513.32 1416.18 C 1516.79 1407.26 1523.4 1396.2 1524.92 1386.96 C 1524.99 1386.5 1525.05 1386.05 1525.12 1385.59 z"/>
<path transform="translate(0,0)" fill="rgb(26,65,99)" d="M 1498.23 1411.7 C 1498.59 1412.73 1498.68 1412.73 1498.68 1413.91 C 1498.72 1437.98 1448.18 1552.39 1434.66 1577.32 C 1430.32 1585.32 1425.32 1593.45 1418.71 1599.78 C 1418.35 1598.42 1418.13 1597.13 1418.16 1595.72 C 1418.36 1585.37 1480.32 1440.88 1489.58 1423.16 C 1491.94 1418.63 1494.49 1415.19 1498.23 1411.7 z"/>
<path transform="translate(0,0)" fill="rgb(172,197,213)" d="M 414.427 585.058 C 411.087 560.792 389.924 541.806 399.408 515.65 C 404.149 502.576 415.397 487.205 428.169 481.304 C 436.733 477.347 446.44 477.889 455.067 481.366 C 467.524 486.386 473.708 493.19 479.074 504.959 C 482.43 512.321 491.387 545.468 496.195 548.419 L 497.993 547.237 C 502.817 536.086 500.226 521.749 498.745 510.086 C 515.889 492.17 530.903 482.245 556.191 480.847 C 574.409 496.041 580.24 508.704 583.454 531.863 C 580.58 539.887 577.723 547.557 573.96 555.226 C 572.239 558.598 565.136 568.527 566.28 571.724 C 566.906 573.472 568.357 574.589 569.65 575.852 C 584.523 581.518 595.887 591.879 602.52 606.4 C 606.732 615.621 610.11 626.384 611.124 636.5 C 611.401 639.257 610.813 642.164 611.23 644.836 C 613.586 660.853 606.337 689.094 604.637 706.722 C 599.943 755.424 600.646 820.139 612.435 867.622 C 616.17 882.665 622.072 896.586 627.267 911.111 C 618.805 930.93 619.867 943.218 627.819 962.9 C 635.571 982.084 663.398 1033.36 676.671 1048.16 C 682.236 1054.37 689.516 1059.22 696.528 1063.65 C 742.677 1096.5 886.547 1122 945.571 1128.18 C 945.615 1128.66 945.654 1129.14 945.703 1129.62 C 949.011 1161.54 972.078 1199.07 1000.51 1214.52 C 1011.83 1220.68 1026.28 1224.34 1036.24 1232.45 L 1036.21 1233.79 C 1027.59 1239.07 1015.77 1239.33 1005.99 1241.41 C 968.525 1249.36 942.96 1263.79 914.974 1289.64 C 859.975 1340.44 840.329 1396.56 826.479 1467.8 C 818.53 1508.68 814.388 1549.03 812.731 1590.6 C 807.455 1574.24 801.092 1558.19 794.828 1542.18 C 776.51 1495.39 755.891 1452.77 720.226 1416.48 C 693.243 1389.03 644.088 1361.17 604.705 1360.8 C 611.579 1344.39 616.075 1326.82 621.598 1309.9 C 637.303 1261.79 653.956 1212.77 659.335 1162.14 C 656.606 1158.57 653.575 1154.68 649.404 1152.84 L 647.485 1153.69 C 644.925 1157.57 629.96 1211.94 626.817 1222.12 C 618.166 1250.13 608.383 1277.68 599.172 1305.51 C 593.115 1323.8 587.942 1342.44 581.128 1360.47 C 566.94 1365.63 552.395 1369.84 537.956 1374.24 A 73.2409 73.2409 0 0 1 530.211 1369.65 C 486.535 1340.5 453.187 1292.5 431.39 1245.41 C 419.772 1220.31 412.051 1193.43 404.224 1166.98 A 1242.4 1242.4 0 0 1 354.111 836.991 C 353.488 800.498 352.061 763.469 353.155 727.007 C 353.632 711.119 359.707 692.861 357.377 677.322 C 355.59 665.402 325.847 643.353 320.716 616.424 C 317.312 598.56 314.45 564.003 325.753 548.412 C 330.339 542.088 337.966 538.385 345.607 537.416 C 375.007 533.686 389.913 567.043 401.787 587.906 C 403.871 591.569 406.079 597.005 409.354 599.678 C 410.179 597.699 410.127 598.388 410.152 596.484 C 410.173 594.892 410.019 593.258 410.131 591.67 C 410.384 588.079 411.959 587.429 414.427 585.058 z"/>
<path transform="translate(0,0)" fill="rgb(18,50,81)" d="M 721.31 1299.55 C 722.821 1300.51 723.663 1300.75 724.529 1302.39 C 727.61 1308.22 726.861 1317.76 724.788 1323.78 C 724.11 1323.77 723.423 1323.88 722.752 1323.77 C 720.971 1323.49 720.125 1322.12 719.443 1320.63 C 716.785 1314.84 719.254 1305.28 721.31 1299.55 z"/>
<path transform="translate(0,0)" fill="rgb(18,50,81)" d="M 387.915 841.616 C 388.85 842.463 389.72 843.226 390.371 844.324 C 395.98 853.769 395.237 878.036 392.621 888.449 C 392.285 888.175 391.924 887.931 391.615 887.628 C 384.634 880.78 387.234 851.535 387.915 841.616 z"/>
<path transform="translate(0,0)" fill="rgb(18,50,81)" d="M 408.809 1020.2 C 409.922 1020.74 410.427 1020.78 411.126 1021.72 C 416.122 1028.42 422.524 1065.92 420.523 1074.84 C 418.789 1074.6 417.893 1074.17 416.435 1073.21 C 409.013 1059.9 405.443 1035.11 408.809 1020.2 z"/>
<path transform="translate(0,0)" fill="rgb(154,176,198)" d="M 467.071 539.682 C 470.642 541.142 471.825 543.959 473.955 547.059 C 474.222 555.65 474.989 564.43 468.571 571.199 C 464.951 575.017 459.454 576.97 454.251 577.048 C 448.925 577.129 442.223 575.995 438.126 572.376 L 437.399 569.549 C 440.005 570.138 442.833 570.703 445.517 570.69 C 451.343 570.663 457.352 568.113 461.208 563.723 C 467.415 556.658 467.396 548.464 467.071 539.682 z"/>
<path transform="translate(0,0)" fill="rgb(136,165,188)" d="M 561.931 545.808 L 562.474 547.627 L 558.687 553.449 C 560.297 554.344 562.727 555.294 564.089 556.453 C 565.586 557.727 565.122 559.653 567.365 560.178 C 568.872 558.913 570.345 557.654 571.785 556.312 C 572.814 555.354 572.35 555.709 573.96 555.226 C 572.239 558.598 565.136 568.527 566.28 571.724 C 566.906 573.472 568.357 574.589 569.65 575.852 C 563.353 574.882 565.452 573.037 561.139 571.928 C 550.657 569.231 537.814 571.953 529.234 563.596 C 526.422 560.857 525.305 558.614 525.223 554.722 C 530.05 558.512 535.086 561.787 541.515 561.281 C 550.4 560.581 556.471 551.777 561.931 545.808 z"/>
<path transform="translate(0,0)" fill="rgb(26,65,99)" d="M 368.099 827.451 C 370.152 827.854 373.582 828.535 374.701 830.483 C 378.575 837.228 381.367 890.092 378.733 898.482 C 376.98 897.823 376.202 897.786 374.945 896.305 C 366.698 886.584 366.958 840.604 368.099 827.451 z"/>
<path transform="translate(0,0)" fill="rgb(26,65,99)" d="M 657.313 1245.41 C 658.532 1246.25 660.124 1247.56 660.381 1249.07 C 662.079 1259.04 642.765 1325.11 636.132 1334.83 C 634.032 1333.91 633.25 1333.85 632.444 1331.51 C 628.605 1320.37 650.391 1256.28 657.313 1245.41 z"/>
<path transform="translate(0,0)" fill="rgb(26,65,99)" d="M 382.92 972.528 C 384.107 973.406 384.262 973.39 385.208 974.829 C 388.661 980.081 400.465 1051.09 401.495 1061.58 C 401.957 1066.28 402.369 1070.67 400.956 1075.25 C 399.498 1074.1 398.046 1073 397.072 1071.37 C 388.552 1057.17 378.265 989.167 382.92 972.528 z"/>
<path transform="translate(0,0)" fill="rgb(18,50,81)" d="M 499.067 1196.79 C 500.14 1197.26 500.949 1197.44 501.753 1198.28 C 506.701 1203.4 516.83 1246.94 519.862 1257.33 C 527.426 1283.26 537.867 1308.37 545.308 1334.33 C 546.117 1337.15 546.27 1339.2 545.955 1342.12 C 543.659 1340.55 541.897 1338.65 540.34 1336.36 C 525.98 1315.23 494.048 1220.78 499.067 1196.79 z"/>
<path transform="translate(0,0)" fill="rgb(18,50,81)" d="M 421.743 1101.48 L 423.721 1102.51 C 430.593 1112.29 444.249 1169.86 448.644 1184.84 C 455.625 1208.62 463.822 1232.23 469.761 1256.28 C 470.57 1259.56 471.122 1262.58 470.965 1265.97 C 469.046 1264.92 467.839 1263.96 466.59 1262.12 C 453.705 1243.12 417.625 1122.48 421.743 1101.48 z"/>
<path transform="translate(0,0)" fill="rgb(18,50,81)" d="M 462.449 1166.46 C 463.851 1166.71 464.957 1166.98 466.154 1167.83 C 469.236 1170 470.294 1173.3 471.452 1176.71 C 481.016 1204.85 487.563 1234.27 496.549 1262.64 C 502.369 1281.01 508.823 1299.2 515.044 1317.44 C 518.197 1326.69 522.771 1336.86 523.995 1346.54 C 522.175 1345.94 520.762 1345.77 519.35 1344.43 C 504.767 1330.5 462.76 1191.21 462.449 1166.46 z"/>
<path transform="translate(0,0)" fill="rgb(26,65,99)" d="M 525.223 554.722 C 520.708 548.338 517.914 541.34 518.952 533.384 A 28.5143 28.5143 0 0 1 530.486 513.994 C 535.953 510.085 543.086 508.054 549.749 509.477 C 554.41 510.473 558.287 513.111 560.713 517.24 C 565.776 525.859 564.242 536.625 561.931 545.808 C 556.471 551.777 550.4 560.581 541.515 561.281 C 535.086 561.787 530.05 558.512 525.223 554.722 z"/>
<path transform="translate(0,0)" fill="rgb(26,65,99)" d="M 437.399 569.549 C 429.765 565.729 424.758 560.065 422.09 551.847 C 419.248 543.095 419.293 531.607 423.647 523.34 C 426.509 517.905 431.235 513.82 437.244 512.303 C 442.256 511.038 447.719 511.643 452.13 514.419 C 459.946 519.338 464.927 531.012 467.071 539.682 C 467.396 548.464 467.415 556.658 461.208 563.723 C 457.352 568.113 451.343 570.663 445.517 570.69 C 442.833 570.703 440.005 570.138 437.399 569.549 z"/>
<path transform="translate(0,0)" fill="rgb(26,65,99)" d="M 359.233 574.345 C 362.978 574.382 366.259 574.592 369.659 576.308 C 377.494 580.263 382.908 587.862 385.3 596.181 C 387.882 605.16 387.546 615.701 382.658 623.862 C 378.698 630.473 373.524 633.271 366.267 635.207 C 356.111 631.571 348.991 627.897 343.745 617.799 C 337.81 606.372 338.473 595.525 342.025 583.656 C 347.533 578.611 351.781 575.571 359.233 574.345 z"/>
<path transform="translate(0,0)" fill="rgb(136,165,188)" d="M 611.23 644.836 C 613.586 660.853 606.337 689.094 604.637 706.722 C 599.943 755.424 600.646 820.139 612.435 867.622 C 616.17 882.665 622.072 896.586 627.267 911.111 C 618.805 930.93 619.867 943.218 627.819 962.9 C 635.571 982.084 663.398 1033.36 676.671 1048.16 C 682.236 1054.37 689.516 1059.22 696.528 1063.65 C 691.351 1073.33 683.02 1082.02 676.631 1090.99 C 670.742 1099.26 666.087 1108.82 659.263 1116.32 C 653.6 1110.14 649.562 1103.12 646.094 1095.53 C 637.962 1077.72 632.462 1057.74 625.976 1039.23 C 613.426 1003.42 600.544 967.798 590.094 931.284 C 570.798 863.864 571.77 800.81 587.102 732.772 C 589.78 720.89 593.849 709.406 596.793 697.595 C 600.804 681.503 603.406 658.939 611.23 644.836 z"/>
<path transform="translate(0,0)" fill="rgb(26,65,99)" d="M 483.007 601.453 C 500.507 602.416 514.454 607.099 527.241 619.352 A 70.197 70.197 0 0 1 548.698 669.276 A 68.4714 68.4714 0 0 1 528.023 718.961 C 513.483 733.413 494.864 739.163 474.75 739.073 C 461.08 740.032 444.676 731.668 434.505 722.968 C 420.044 710.598 410.9 693.266 409.692 674.216 C 408.581 656.689 414.916 637.928 426.699 624.847 C 441.603 608.301 461.47 602.666 483.007 601.453 z"/>
<path transform="translate(0,0)" fill="rgb(193,212,229)" d="M 464.669 624.968 L 465.478 625.722 L 465.516 627.607 C 461.284 632.899 455.052 636.684 451.212 642.026 C 448.641 645.603 443.27 658.446 440.887 659.983 L 438.381 657.141 C 437.183 653.647 438.938 648.417 440.488 645.172 C 444.934 635.864 455.069 628.326 464.669 624.968 z"/>
<path transform="translate(0,0)" fill="rgb(136,165,188)" d="M 2048 1077.97 L 2048 1115.76 L 2048 1129.18 L 2048 1324.06 L 2048 1336.96 L 2048 1353.87 L 2048 1362.95 L 2048 1406.84 L 2048 1421.91 L 2048 2048 L 1752.29 2048 C 1756.95 2034.36 1763.94 1957.27 1763.18 1942.46 A 64.6744 64.6744 0 0 0 1757.74 1919.97 C 1737.8 1874.14 1677.2 1853.46 1633.94 1836.45 C 1661.68 1751.52 1679.65 1684.44 1673.14 1593.98 C 1667.61 1517.05 1631.17 1441.49 1572.76 1390.99 C 1575.2 1382.45 1575.87 1372.95 1579.29 1364.87 C 1588.82 1365.05 1598.39 1365.38 1607.92 1365.23 C 1615.7 1365.11 1623.56 1364.91 1629.28 1359.05 L 1631.31 1359.17 C 1639.11 1359.66 1649.11 1362.78 1656.75 1360.65 C 1658.63 1361.98 1660.2 1362.62 1662.5 1362.9 C 1673.05 1364.2 1755.75 1367.31 1760.85 1362.6 C 1767.61 1356.36 1763.93 1345.56 1764.93 1337.55 C 1765 1336.96 1765.09 1336.37 1765.17 1335.79 C 1781.07 1336.99 1903.69 1338.61 1911.37 1335.29 C 1909.19 1333.94 1861.19 1325.76 1853.91 1324.65 C 1835.95 1321.89 1808.02 1327.5 1788.93 1328.97 C 1784.77 1329.29 1768.24 1328.01 1766.51 1328.65 C 1765.69 1328.96 1765.1 1329.7 1764.39 1330.22 C 1760.47 1313.3 1765.56 1248.37 1754.93 1238.52 C 1748.51 1232.56 1729.37 1234.71 1720.86 1234.73 C 1720.22 1220.89 1719.7 1168.09 1711.95 1159.9 C 1707.04 1154.72 1678.5 1157.88 1671.31 1158.03 C 1671.01 1150.28 1671.67 1142.5 1672.13 1134.77 C 1693.56 1133.31 1715.4 1134.25 1736.87 1134.37 A 5875.19 5875.19 0 0 0 1810.22 1133.95 C 1826.86 1133.92 1844.29 1134.97 1860.79 1133.01 C 1881.3 1130.57 1901.91 1120.3 1921.77 1114.44 C 1941.38 1108.66 1961.73 1106.82 1981.23 1101.26 C 2003.73 1094.86 2025.46 1084.82 2048 1077.97 z"/>
<path transform="translate(0,0)" fill="rgb(18,50,81)" d="M 2048 1362.95 C 2043.28 1361.78 2038.56 1360.58 2033.96 1358.99 C 2029.75 1357.54 2022.35 1355.59 2020.28 1351.32 C 2025.95 1348.66 2041.51 1352.85 2048 1353.87 L 2048 1362.95 z"/>
<path transform="translate(0,0)" fill="rgb(18,50,81)" d="M 1827.61 1161.09 L 1829.07 1161.2 C 1830.68 1163.14 1830.91 1162.7 1830.82 1165.41 C 1822.93 1173.35 1802.08 1176.65 1791.11 1178.4 L 1787.74 1178.44 L 1787.06 1177.29 C 1792.97 1169.89 1818.11 1163.91 1827.61 1161.09 z"/>
<path transform="translate(0,0)" fill="rgb(18,50,81)" d="M 2048 1129.18 C 2035.58 1128.49 2023.1 1135.52 2010.9 1134.15 C 2008.86 1133.92 2009.57 1134.29 2008.38 1132.78 C 2014.33 1123.27 2037.77 1118.97 2048 1115.76 L 2048 1129.18 z"/>
<path transform="translate(0,0)" fill="rgb(18,50,81)" d="M 1971.7 1134.05 C 1974.6 1135.01 1976.36 1135.82 1977.78 1138.53 C 1977.46 1139.37 1977.32 1139.91 1976.69 1140.65 C 1968.91 1149.61 1903.84 1161.71 1889.22 1164.89 C 1886.93 1164.82 1887.25 1165.17 1885.34 1163.53 C 1892.85 1152.8 1956.1 1139.55 1971.7 1134.05 z"/>
<path transform="translate(0,0)" fill="rgb(18,50,81)" d="M 2048 1421.91 C 2023.19 1400.11 1987.15 1389.56 1961.78 1365.75 C 1959.21 1363.33 1956.5 1360.9 1956.35 1357.25 C 1958.81 1355.76 1958.8 1355.87 1961.66 1356.32 C 1969.68 1363.34 1992.65 1374.18 2003.43 1380.39 C 2018.41 1389 2032.82 1398.59 2048 1406.84 L 2048 1421.91 z"/>
<path transform="translate(0,0)" fill="rgb(18,50,81)" d="M 2048 1324.06 L 2048 1336.96 C 2030.04 1337.15 1935.6 1343.22 1924.69 1336.45 C 1933.68 1328.58 2029.55 1324.05 2048 1324.06 z"/>
<path transform="translate(0,0)" fill="rgb(136,165,188)" d="M 64.8531 1129.84 C 66.3602 1131.82 66.6361 1131.82 69.2279 1132.11 C 76.4924 1132.91 84.3157 1132.19 91.6565 1132.18 L 138.817 1132.18 L 288.002 1132.26 C 315.035 1132.27 342.78 1130.86 369.702 1132.86 C 372.208 1138.67 375.373 1144.79 376.698 1150.98 C 374.906 1153.15 372.585 1153.5 369.858 1153.77 C 362.43 1154.51 344.804 1152.83 340.456 1160.1 C 336.61 1166.53 338.92 1223.17 338.269 1235.49 C 327.665 1233.92 315.128 1233.79 306.012 1240.26 C 298.886 1245.31 295.923 1253.16 294.737 1261.51 C 292.485 1277.37 293.583 1293.18 293.392 1309.11 C 293.237 1321.95 292.11 1334.77 291.994 1347.62 C 283.505 1348.11 262.19 1347.38 256.375 1353.62 L 256.337 1355.77 C 257.176 1356.62 257.821 1357.72 258.856 1358.31 C 265.38 1362.02 301.071 1361.08 310.548 1361.11 C 337.722 1361.2 385.94 1363.65 410.201 1356.15 L 412.391 1353.09 L 413.347 1353.7 C 419.158 1351.05 423.97 1348.03 429.095 1344.22 C 436.298 1343.63 443.609 1346.3 450.393 1348.4 L 448.682 1352.1 C 449.552 1354.21 449.74 1354.64 451.963 1355.62 C 459.258 1358.84 468.477 1356.73 475.646 1359.46 C 486.795 1363.7 498.408 1379.52 509.054 1386.81 C 510.124 1387.54 511.184 1388.28 512.264 1389.01 C 498.127 1400.28 483.652 1411.55 471.414 1424.93 C 439.617 1459.68 420.573 1509.86 415.323 1556.35 A 543.195 543.195 0 0 0 432.217 1763.99 C 438.242 1785.83 448.003 1807.74 452.888 1829.56 C 409.35 1848.22 338.48 1874.57 319.608 1921.6 C 308.596 1949.04 323.416 2017.17 327.283 2048 L 0 2048 L 0 1447.01 L 0 1431.18 L 0 1356.48 L 0 1352.39 L 0 1338.26 L 0 1331.63 L 0 1131.18 C 20.0555 1132.44 40.7985 1132.44 60.8868 1131.81 L 64.8531 1129.84 z"/>
<path transform="translate(0,0)" fill="rgb(18,50,81)" d="M 0 1352.39 C 5.68697 1349.83 10.9001 1347.88 17.2079 1348.74 L 17.8871 1349.95 C 14.6812 1354.07 5.06945 1355.57 0 1356.48 L 0 1352.39 z"/>
<path transform="translate(0,0)" fill="rgb(18,50,81)" d="M 217.505 1349.47 A 239.952 239.952 0 0 1 222.682 1349.49 C 226.4 1349.56 229.646 1349.48 232.429 1352.35 C 232.831 1354.7 233.014 1354.71 231.769 1356.71 C 222.284 1359.3 213.949 1358.98 204.238 1358.21 C 199.177 1357.84 191.759 1357.83 187.156 1355.76 L 188.039 1354.46 C 197.762 1351.13 207.286 1350.07 217.505 1349.47 z"/>
<path transform="translate(0,0)" fill="rgb(18,50,81)" d="M 26.8568 1325.77 C 40.9578 1323.28 76.6535 1321.83 90.6359 1324.04 C 95.4383 1324.81 99.708 1326.64 103.661 1329.44 C 105.375 1330.66 106.835 1332.04 108.331 1333.51 L 108.185 1334.92 C 106.454 1335.73 105.191 1336.11 103.26 1336.25 C 85.9924 1337.53 68.3067 1336.47 50.9882 1337.2 C 35.4427 1337.86 14.9959 1340.94 0 1338.26 L 0 1331.63 C 8.28084 1331.63 19.3272 1333.26 25.6291 1327.02 C 26.0447 1326.61 26.4476 1326.18 26.8568 1325.77 z"/>
<path transform="translate(0,0)" fill="rgb(26,65,99)" d="M 156.893 1328.42 C 162.32 1328.09 167.825 1328.16 173.263 1328.1 C 187.764 1327.95 236.505 1328.6 247.05 1338.93 L 246.936 1340.5 C 241.919 1344.06 236.149 1343.66 230.25 1343.78 L 165.071 1341.54 C 158.762 1341.28 151.574 1342.16 145.427 1341.15 C 142.578 1340.68 139.032 1338.94 137.477 1336.46 C 136.604 1335.07 137.223 1334.42 137.616 1332.96 C 142.728 1328.3 150.344 1328.87 156.893 1328.42 z"/>
<path transform="translate(0,0)" fill="rgb(18,50,81)" d="M 0 1431.18 C 21.3364 1415.85 98.27 1358.62 119.507 1353.95 L 121.63 1354.65 C 121.936 1357.07 121.318 1358.06 119.767 1359.87 C 104.546 1377.65 70.2686 1397.03 50.1223 1411.41 C 33.6353 1423.18 17.7582 1437.27 0 1447.01 L 0 1431.18 z"/>
<path transform="translate(0,0)" fill="rgb(154,176,198)" d="M 0 0 L 2048 0 L 2048 58.6781 L 2048 81.4549 L 2048 180.07 C 2025.31 184.2 2002.8 189.306 1980.12 193.499 A 5375.51 5375.51 0 0 1 1865.1 212.535 C 1842.66 215.97 1820.1 219.692 1797.5 221.928 C 1762.51 225.392 1729.82 225.18 1695.05 226.951 C 1669.17 228.27 1643.33 230.086 1617.43 230.964 C 1512 234.537 1406.46 234.168 1301 236.099 C 1239.52 237.224 1178.02 240.721 1116.52 241.93 C 1058.07 243.079 999.466 241.528 941 241.564 C 880.668 241.601 820.246 242.914 759.916 241.896 C 749.374 241.719 738.744 241.031 728.363 239.121 C 717.225 237.072 706.212 233.757 694.824 233.577 C 678.041 233.312 661.639 239.162 645.074 241.068 C 621.081 243.828 595.47 242.661 571.256 242.908 A 3397.44 3397.44 0 0 1 403.684 240.202 C 349.827 238.332 293.021 235.83 239.596 228.694 C 210.551 224.814 183.219 214.292 154.382 209.83 C 139.313 207.499 124.219 207.547 109.183 205.606 C 83.0362 202.231 56.1674 195.304 30.3654 189.718 C 20.5876 187.602 9.44107 186.572 0 183.583 L 0 89.4821 L 0 66.8823 L 0 0 z"/>
<path transform="translate(0,0)" fill="rgb(26,65,99)" d="M 0 66.8823 C 19.1754 70.719 38.1677 75.4306 57.3662 79.1746 C 153.595 97.9405 252.36 114.307 350.098 122.12 C 402.205 126.286 453.799 126.54 506.008 126.982 L 628 127.985 A 18569.2 18569.2 0 0 0 1018.89 126.363 L 1351.08 122.124 C 1426.22 121.149 1501.22 121.578 1576.35 118.476 A 2696.72 2696.72 0 0 0 1940.64 79.3774 C 1976.46 73.1137 2012.54 66.7859 2048 58.6781 L 2048 81.4549 C 2010.68 90.1386 1973.01 96.1497 1935.28 102.686 A 2737.6 2737.6 0 0 1 1597.22 141.062 C 1520.53 144.639 1443.65 144.075 1366.9 145.001 L 976.083 148.699 L 639.445 151.146 C 617.633 151.111 595.853 150.247 574.054 150.105 C 503.725 149.647 433.12 151.016 362.935 145.7 C 300.178 140.946 238.442 132.093 176.349 122.162 A 2940.68 2940.68 0 0 1 0 89.4821 L 0 66.8823 z"/>
<path transform="translate(0,0)" fill="rgb(193,212,229)" d="M 0 0 L 2048 0 L 2048 58.6781 C 2012.54 66.7859 1976.46 73.1137 1940.64 79.3774 A 2696.72 2696.72 0 0 1 1576.35 118.476 C 1501.22 121.578 1426.22 121.149 1351.08 122.124 L 1018.89 126.363 A 18569.2 18569.2 0 0 1 628 127.985 L 506.008 126.982 C 453.799 126.54 402.205 126.286 350.098 122.12 C 252.36 114.307 153.595 97.9405 57.3662 79.1746 C 38.1677 75.4306 19.1754 70.719 0 66.8823 L 0 0 z"/>
<path transform="translate(0,0)" fill="rgb(172,197,213)" d="M 1369.54 253.254 A 68.4783 68.4783 0 0 1 1397.02 258.451 C 1414.22 265.421 1425.26 280.602 1433.52 296.561 C 1462.09 351.725 1446.09 419.228 1428.4 475.351 C 1421.07 498.611 1411.69 523.832 1413.25 548.577 C 1414.48 568.226 1429.84 588.424 1437.42 606.419 C 1467.16 676.985 1473.31 759.244 1457.66 833.947 C 1454.34 849.802 1449.37 865.357 1444.59 880.822 C 1439.83 896.204 1435.21 912.231 1428.9 927.033 C 1418.89 950.503 1361.57 969.608 1338.02 978.802 C 1323.21 984.588 1307.55 988.972 1292.27 993.457 C 1240.28 1008.73 1185.03 1022.11 1130.5 1021.76 C 1103.17 1021.59 1076.28 1015.92 1048.98 1016 C 1019.85 1016.09 991.302 1022.89 962.206 1022.9 C 898.565 1022.9 775.449 994.026 716.874 968.058 C 695.203 958.45 668.997 946.598 657.194 924.814 C 651.009 913.397 647.144 899.463 642.421 887.258 C 632.645 865.724 628.987 842.232 626.252 818.874 C 616.869 738.741 628.752 663.978 655.957 588.308 C 659.574 578.246 680.327 543.423 680.607 539.796 C 680.828 536.928 665.593 511.51 663.207 506.336 C 652.468 483.04 642.843 456.474 637.456 431.332 C 627.655 385.592 620.607 324.515 647.466 283.491 C 655.421 271.343 670.35 262.639 684.517 259.81 C 731.205 250.487 783.229 311.328 811.978 341.951 C 828.698 359.761 845.528 377.623 862.605 395.087 C 878.126 410.959 894.943 426.075 913.466 438.39 C 943.219 458.173 956.051 455.71 989.6 452.595 C 1003.23 451.329 1016.87 450.863 1030.5 449.439 C 1035.51 448.915 1040.59 450.045 1045.61 450.094 C 1052.36 450.161 1059.09 448.865 1065.97 449.024 C 1083.39 449.426 1120.63 455.452 1135.66 450.761 C 1158.48 443.637 1190.93 399.449 1208.06 379.97 C 1235.8 348.429 1287.26 295.797 1322.34 273.283 C 1336.65 264.098 1352.87 256.629 1369.54 253.254 z"/>
<path transform="translate(0,0)" fill="rgb(18,50,81)" d="M 659.08 806.832 C 661.161 809.206 662.642 812.44 663.16 815.552 C 663.847 819.682 663.215 822.847 660.91 826.291 C 660.01 825.47 659.344 824.657 658.731 823.582 C 656.124 819.014 657.858 811.534 659.08 806.832 z"/>
<path transform="translate(0,0)" fill="rgb(18,50,81)" d="M 711.015 917.339 C 711.435 917.412 711.859 917.469 712.276 917.56 C 716.114 918.403 718.783 921.016 720.85 924.266 C 723.486 928.409 724.137 932.803 723.222 937.54 C 721.08 937.051 720.011 936.267 718.513 934.732 C 713.68 929.781 710.894 924.304 711.015 917.339 z"/>
<path transform="translate(0,0)" fill="rgb(18,50,81)" d="M 1158.06 846.795 C 1158.88 847.577 1158.36 846.983 1159.13 848.916 C 1157.62 854.112 1153.92 857.498 1149.58 860.499 C 1140.4 866.843 1130.69 864.49 1120.31 862.673 C 1118.74 862.05 1118.43 862.108 1117.32 860.742 A 104.275 104.275 0 0 0 1125.05 860.783 C 1138.7 860.297 1148.58 856.991 1158.06 846.795 z"/>
<path transform="translate(0,0)" fill="rgb(26,65,99)" d="M 1420.28 805.395 L 1423.63 806.721 C 1424.41 807.908 1425.03 808.943 1425.2 810.387 C 1426.02 817.489 1421.24 826.828 1416.98 832.277 C 1416.25 831.826 1415.43 831.37 1414.8 830.778 C 1412.39 828.525 1411.78 824.954 1411.95 821.794 C 1412.31 815.268 1415.67 809.776 1420.28 805.395 z"/>
<path transform="translate(0,0)" fill="rgb(18,50,81)" d="M 1364.57 924.723 C 1365.15 924.732 1365.74 924.694 1366.32 924.749 C 1369 925.004 1369.38 925.113 1370.84 927.182 C 1370.29 936.448 1361.54 946.037 1355.29 952.43 C 1354.02 952.831 1352.59 952.868 1351.27 953.02 L 1349.62 951.705 C 1349.27 944.054 1359.57 930.362 1364.57 924.723 z"/>
<path transform="translate(0,0)" fill="rgb(18,50,81)" d="M 1381.38 604.47 C 1386.63 605.197 1389.39 606.276 1392.55 610.671 C 1399.64 620.522 1403.35 637.62 1401.17 649.524 L 1397.99 649.264 C 1393.67 643.925 1383.89 612.561 1381.38 604.47 z"/>
<path transform="translate(0,0)" fill="rgb(26,65,99)" d="M 686.639 612.258 C 688.802 613.364 688.754 613.213 689.558 615.492 C 688.125 626.448 680.471 651.292 674.678 660.671 C 673.237 659.888 672.709 659.241 671.664 658.013 C 670.667 653.2 670.822 648.998 671.607 644.145 C 673.369 633.251 677.412 618.929 686.639 612.258 z"/>
<path transform="translate(0,0)" fill="rgb(26,65,99)" d="M 683.372 890.283 C 685.753 890.821 687.164 891.212 688.703 893.223 C 692.105 897.671 710.187 935.335 709.563 939.121 C 708.962 939.066 708.359 939.026 707.759 938.957 C 701.778 938.274 696.085 933.341 692.603 928.698 C 685.182 918.8 681.508 902.568 683.372 890.283 z"/>
<path transform="translate(0,0)" fill="rgb(26,65,99)" d="M 655.058 873.195 C 656.689 873.704 658.205 874.134 659.522 875.277 C 665.403 880.385 680.84 918.749 681.352 927.262 C 676.738 926.723 673.27 924.288 670.108 921.014 C 658.837 909.338 654.408 888.957 655.058 873.195 z"/>
<path transform="translate(0,0)" fill="rgb(26,65,99)" d="M 1174.81 540.735 C 1176.83 540.899 1177.8 541.422 1179.5 542.513 C 1179.57 543.282 1179.92 544.078 1179.7 544.818 C 1179 547.199 1149.47 586.028 1145.34 591.467 C 1142.82 591.747 1142.76 591.579 1140.57 590.247 C 1139.87 588.618 1140.27 586.852 1140.71 585.163 C 1144.91 569.09 1160.97 549.532 1174.81 540.735 z"/>
<path transform="translate(0,0)" fill="rgb(26,65,99)" d="M 918.465 538.759 C 919.915 538.766 921.105 538.885 922.503 539.336 C 933.863 543.004 950.457 565.66 955.421 576.291 C 957.996 581.807 959.114 585.285 957.095 591.101 C 953.97 590.684 951.901 589.89 949.789 587.412 C 943.839 580.429 918.117 544.753 918.465 538.759 z"/>
<path transform="translate(0,0)" fill="rgb(26,65,99)" d="M 1400.66 893.604 C 1402.54 893.962 1403.18 894.383 1404.52 895.738 C 1404.57 896.85 1404.63 897.199 1404.55 898.233 C 1403.48 911.563 1381.45 947.967 1371.67 956.53 C 1369.05 955.698 1369 955.818 1367.57 953.507 C 1367.84 942.72 1392.81 904.462 1400.66 893.604 z"/>
<path transform="translate(0,0)" fill="rgb(26,65,99)" d="M 1424.82 871.574 L 1433.84 874.691 C 1429.75 896.788 1419.84 920.023 1405.77 937.535 C 1404.61 938.853 1404.16 939.081 1402.62 939.777 L 1401.04 938.423 C 1399.95 935.149 1400.24 932.665 1401.09 929.33 C 1404.23 916.934 1410.87 905.032 1416.11 893.377 C 1419.32 886.248 1421.94 878.84 1424.82 871.574 z"/>
<path transform="translate(0,0)" fill="rgb(26,65,99)" d="M 637.323 727.699 C 638.61 730.21 639.288 732.687 639.706 735.476 C 642.307 752.85 642.438 770.448 643.922 787.912 C 644.741 797.554 647.026 807.271 647.326 816.918 C 647.41 819.586 647.476 821.43 645.877 823.65 L 643.935 823.376 C 641.684 821.919 640.122 820.845 638.947 818.304 C 628.865 796.52 628.98 749.742 637.323 727.699 z"/>
<path transform="translate(0,0)" fill="rgb(26,65,99)" d="M 676.302 581.587 C 677.096 581.636 677.818 581.658 678.612 581.821 C 681.213 582.355 681.873 582.414 683.322 584.49 C 677.302 598.632 670.848 611.46 666.03 626.192 C 660.692 642.513 658.151 661.419 650.013 676.538 C 649.019 677.572 647.994 678.028 646.741 678.699 C 645.345 677.354 645.581 678.06 645.384 676.618 C 642.522 655.658 651.299 625.199 660.475 606.442 C 664.848 597.505 670.342 589.524 676.302 581.587 z"/>
<path transform="translate(0,0)" fill="rgb(26,65,99)" d="M 1403.75 566.75 C 1410.91 569.471 1415.96 580 1419.19 586.617 C 1426.89 602.405 1448.11 657.155 1442.71 672.694 C 1441.93 672.876 1441.19 673.092 1440.38 673.055 C 1437.92 672.945 1436.2 672.606 1434.8 670.486 C 1433.08 667.885 1419.1 612.16 1415.51 601.837 C 1411.85 591.327 1401.12 577.971 1403.75 566.75 z"/>
<path transform="translate(0,0)" fill="rgb(26,65,99)" d="M 1446.42 717.15 C 1447.31 717.304 1448.77 717.516 1449.57 717.866 C 1451.86 718.879 1452.86 720.623 1453.44 722.946 C 1459.83 748.544 1451.11 812.966 1438.25 836.227 C 1437.24 836.559 1436.28 836.527 1435.22 836.579 L 1433.48 834.435 C 1431.08 825.026 1440.82 784.782 1442.27 770.792 C 1443.92 754.808 1440.37 731.225 1446.42 717.15 z"/>
<path transform="translate(0,0)" fill="rgb(26,65,99)" d="M 920.79 819.262 L 922.917 819.597 L 924.116 821.433 C 923.708 823.991 923.605 825.157 921.46 826.945 C 913.007 833.994 753.746 855.815 733.499 855.998 C 732.76 855.378 731.735 854.552 731.109 853.855 C 729.221 851.752 728.999 851.202 729.072 848.546 C 729.681 847.907 730.099 847.004 730.897 846.629 C 736.82 843.845 772.549 841.862 782.383 840.588 C 808.698 837.178 834.988 832.607 861.24 828.688 C 880.916 825.75 901.423 823.759 920.79 819.262 z"/>
<path transform="translate(0,0)" fill="rgb(26,65,99)" d="M 1181.82 819.168 C 1193.8 819.739 1205.5 821.886 1217.35 823.572 L 1275.38 831.833 C 1306.72 836.302 1338.75 838.992 1369.84 844.856 C 1375.07 845.844 1383.62 847.437 1387.82 850.756 C 1389.27 851.902 1388.94 852.027 1389.19 853.703 C 1386.91 856.031 1385.67 856.096 1382.59 856.942 C 1368.07 857.51 1351.46 853.3 1336.92 851.503 C 1301.45 847.12 1266.3 842.386 1230.96 837.106 C 1216.03 834.874 1198.49 834.062 1184.42 828.769 C 1181.32 827.607 1179.34 826.51 1177.98 823.476 C 1178.81 821.219 1179.9 820.537 1181.82 819.168 z"/>
<path transform="translate(0,0)" fill="rgb(26,65,99)" d="M 735.149 753.766 C 769.879 759.257 804.11 767.784 838.921 772.977 C 853.27 775.118 867.642 777.427 882.084 778.865 C 894.094 780.062 927.491 780.905 936.918 784.36 C 939.379 785.262 940.504 786.896 941.612 789.188 C 941.325 792.298 941.053 792.204 938.765 794.399 A 52.3074 52.3074 0 0 1 933.494 794.83 C 921.388 795.203 908.679 793.398 896.63 792.278 C 854.107 788.327 813.381 780.659 771.58 772.265 C 762.286 770.399 737.385 767.337 731.045 761.386 C 731.24 758.428 733.473 756.095 735.149 753.766 z"/>
<path transform="translate(0,0)" fill="rgb(26,65,99)" d="M 1366.56 755.397 C 1368.99 754.918 1371.65 755.227 1374.02 755.923 C 1376.47 756.645 1377.81 757.933 1379.04 760.141 L 1378.37 762.13 C 1375.84 764.223 1373.21 765.109 1370.04 765.902 C 1352.14 770.376 1332.98 771.544 1314.74 774.371 A 2947.48 2947.48 0 0 1 1228.62 786.582 C 1205.23 789.623 1181.36 793.049 1157.75 793.014 C 1152.83 793.21 1149.67 792.763 1145.68 789.791 C 1144.83 787.201 1144.98 787.174 1145.97 784.606 C 1148.19 782.974 1149.99 782.196 1152.73 781.753 C 1160.29 780.532 1168.38 780.915 1176.03 780.472 C 1186.22 779.884 1196.38 778.69 1206.5 777.459 C 1259.96 770.952 1313.09 761.878 1366.56 755.397 z"/>
<path transform="translate(0,0)" fill="rgb(26,65,99)" d="M 1096.28 690.478 C 1096.46 690.603 1096.65 690.706 1096.81 690.854 C 1101.91 695.558 1100.94 740.362 1101.73 750 C 1106.22 750.713 1110.49 751.793 1114.53 753.962 C 1120.29 757.059 1129.05 763.907 1130.26 770.824 C 1130.73 773.519 1130.4 774.012 1129 776.152 C 1127.81 776.58 1127.63 776.724 1126.21 776.827 C 1119.48 777.317 1113.09 770.652 1108.52 766.578 C 1104 770.34 1100.97 774.981 1096.93 779.15 C 1095.1 781.046 1093.46 782.134 1090.76 782.268 C 1087.48 780.43 1086.85 778.099 1084.6 775.218 C 1073 780.902 1064.14 790.485 1052.31 795.801 C 1041.58 791.454 1031.74 784.728 1021.94 778.625 C 1018.89 782.292 1017.61 783.781 1012.64 784.316 C 1012.54 778.222 1015.42 773.892 1013.08 767.765 C 1011.33 766.173 1010.88 765.445 1008.4 765.335 C 1001.42 765.027 993.46 772.619 988.45 776.862 C 984.305 777.526 981.067 777.73 977.538 775.299 L 977.137 773.072 C 979.882 764.662 989.638 757.073 997.183 753.056 C 1021.5 740.109 1028.27 763.156 1048.9 769.128 L 1050.29 769.514 C 1066.26 766.271 1077.01 754.721 1092.33 750.15 C 1091.99 733.928 1090.69 717.041 1091.82 700.89 C 1092.16 695.962 1092.45 693.807 1096.28 690.478 z"/>
<path transform="translate(0,0)" fill="rgb(26,65,99)" d="M 1050.14 849.81 C 1057.53 853.158 1064.14 859.251 1070.64 864.113 C 1088.57 877.509 1110.55 889.257 1133.6 888.615 C 1158.68 887.916 1167.65 876.426 1183.54 859.702 C 1187.03 856.026 1190.18 853.588 1195.37 853.458 C 1197.47 854.889 1198.15 855.586 1198.5 858.202 C 1199.48 865.581 1197.51 869.101 1193.6 874.962 C 1196.48 874.552 1199.56 874.274 1202.47 874.557 C 1216.18 875.894 1245.77 886.545 1260.79 890.575 C 1279.98 895.722 1300.42 898.757 1319.19 905.16 C 1321.87 906.071 1324.44 907.497 1326.22 909.736 C 1327.7 911.607 1327.88 911.628 1327.61 914.081 C 1327.29 914.297 1326.98 914.537 1326.64 914.727 C 1314.64 921.455 1205.07 891.741 1186.64 885.963 C 1174.68 896.01 1164.26 903.994 1148.33 906.615 C 1110.62 912.819 1081.53 897.294 1051.87 876.242 C 1026.03 895.849 1002.16 906.635 968.938 903.826 C 946.533 901.931 933.275 893.019 918.785 875.998 C 899.237 888.527 828.533 905.801 803.494 912.496 C 796.359 914.404 777.684 920.251 771.535 915.513 C 769.457 913.912 769.362 913.164 769.297 910.787 C 771.381 907.788 775.479 906.595 778.798 905.466 C 794.838 900.014 812.436 896.947 828.925 892.952 C 848.135 888.298 867.106 882.74 886.295 877.97 C 890.909 876.823 910.865 873.121 913.546 870.583 C 913.221 867.254 912.101 863.271 912.258 860.03 C 912.385 857.408 913.218 856.725 914.868 854.918 C 917.36 854.223 918.525 853.709 921.019 854.963 C 929.538 859.248 930.351 877.513 955.829 883.633 C 978.495 889.077 1005.81 882.881 1024.57 869.335 C 1032.95 863.282 1040.37 855.648 1049.24 850.332 C 1049.54 850.154 1049.84 849.984 1050.14 849.81 z"/>
<path transform="translate(0,0)" fill="rgb(26,65,99)" d="M 870.103 596.434 C 874.534 596.03 879.175 596.304 883.604 596.718 C 913.218 599.484 940.732 619.855 957.604 643.666 C 966.696 656.497 973.851 670.818 983.99 682.881 L 985.101 684.191 L 980.024 694.607 C 973.988 692.265 968.554 689.06 962.966 685.827 C 946.293 699.702 924.747 718.405 901.823 718.561 C 883.668 722.158 868.854 721.104 851.084 715.672 C 820.147 706.216 792.501 682.909 777.24 654.411 C 779.953 648.899 783.884 644.005 787.923 639.409 C 810.194 614.062 836.196 598.579 870.103 596.434 z"/>
<path transform="translate(0,0)" fill="rgb(172,197,213)" d="M 909.817 625.693 C 933.663 634.689 945.746 656.095 958.023 676.799 C 951.251 679.23 946.34 683.855 940.846 688.337 C 931.773 694.586 920.115 699.229 909.991 703.567 C 909.926 677.757 908.118 651.409 909.817 625.693 z"/>
<path transform="translate(0,0)" fill="rgb(172,197,213)" d="M 853.673 616.958 L 854.696 617.386 C 856.639 621.747 853.661 632.434 853.296 637.594 C 851.784 658.985 851.042 679.784 851.926 701.231 C 841.936 695.583 832.725 689.758 823.926 682.352 C 815.06 674.315 807.051 665.507 799.256 656.451 C 813.893 636.802 831.238 625.941 853.673 616.958 z"/>
<path transform="translate(0,0)" fill="rgb(26,65,99)" d="M 1239.21 590.58 C 1250.53 591.114 1261.09 593.113 1271.59 597.507 C 1299.21 609.072 1326.12 638.453 1337.42 665.877 C 1334.21 669.521 1330.58 672.684 1326.82 675.748 C 1293.25 703.132 1267.98 721.379 1222.76 716.786 C 1196.88 717.443 1171.31 699.969 1150.65 686.58 C 1149.11 689.293 1147.25 693.689 1144.18 694.98 C 1141.56 696.082 1140.36 695.456 1137.85 694.607 C 1135.44 692.102 1134.46 689.992 1134.3 686.534 C 1133.65 672.405 1156.74 637.762 1166.84 626.862 C 1187.1 604.997 1209.02 591.647 1239.21 590.58 z"/>
<path transform="translate(0,0)" fill="rgb(172,197,213)" d="M 1265.22 615.333 C 1265.4 615.364 1265.58 615.398 1265.76 615.427 C 1266.42 615.532 1267.44 615.635 1268.12 615.872 C 1282.79 620.951 1307.4 649.783 1314.31 663.657 C 1308.29 670.133 1300.85 675.623 1294.06 681.286 C 1285.25 688.353 1276.34 694.221 1266.31 699.441 C 1265.72 685.351 1267.5 671.206 1267.33 657.103 C 1267.16 643.166 1265.24 629.264 1265.22 615.333 z"/>
<path transform="translate(0,0)" fill="rgb(172,197,213)" d="M 1204.52 618.666 C 1206.66 618.656 1206.87 618.641 1208.8 619.807 C 1210.23 624.373 1207.35 637.93 1207.3 644.119 C 1207.18 658.633 1208.92 673.102 1208.99 687.621 C 1209 690.464 1209.5 695.925 1207.57 697.893 C 1197.03 698.183 1183.16 690.36 1173.71 685.957 C 1167.75 682.712 1161.6 679.859 1155.48 676.936 C 1167.38 652.887 1180.48 632.18 1204.52 618.666 z"/>
<path transform="translate(0,0)" fill="rgb(26,65,99)" d="M 682.653 275.061 C 695.958 273.552 708.562 276.305 720.354 282.538 C 754.37 300.515 824.207 382.157 844.81 415.925 C 850.53 425.3 854.288 434.35 857.464 444.85 C 855.206 452.263 852.311 457.923 846.301 463.038 C 842.589 466.197 836.399 469.598 831.368 469.396 C 826.289 469.192 819.614 464.759 814.391 463.486 C 798.048 459.5 776.286 455.576 759.462 454.429 L 757.882 454.329 C 762.908 456.407 768.751 457.516 773.403 460.362 C 775.652 461.739 776.997 463.21 777.702 465.787 L 776.788 467.145 C 772.628 468.76 768.686 469.174 764.358 467.864 C 762.716 467.367 761.892 467.071 760.093 467.096 C 759.673 467.102 759.256 467.169 758.837 467.205 C 751.741 464.524 728.094 462.294 721.048 465.155 C 722.773 470.351 746.521 474.271 752.396 480.875 C 753.935 482.605 753.818 483.115 753.774 485.296 C 749.65 492.217 703.058 517.823 691.629 524.79 C 689.082 523.437 687.931 520.795 686.67 518.321 C 662.924 471.718 633.667 360.542 650.86 310.743 C 656.722 293.765 666.409 282.895 682.653 275.061 z"/>
<path transform="translate(0,0)" fill="rgb(136,165,188)" d="M 692.741 288.827 C 696.415 288.915 700.656 289.433 704.16 290.592 C 716.479 294.668 726.794 304.548 736.326 312.899 C 750.442 325.265 765.09 336.08 776.224 351.448 C 782.453 360.045 787.413 369.615 793.192 378.527 C 799.616 388.434 806.765 398.081 811.753 408.816 C 804.915 402.608 798.746 395.72 791.73 389.665 C 776.62 376.623 744.931 354.012 726.595 346.641 C 739.254 370.306 764.829 395.223 785.231 412.351 C 774.301 408.515 763.274 401.242 753.423 395.177 C 744.281 389.566 734.914 383.394 726.54 376.702 C 720.787 372.105 715.511 366.552 709.438 362.421 C 707.547 361.134 706.113 360.449 703.867 360.071 L 702.71 361.108 C 704.851 371.94 738.347 407.519 747.147 415.2 C 754.277 421.425 762.496 426.741 770.12 432.369 L 769.762 434.667 L 771.631 434.558 L 771.37 433.65 L 771.349 434.679 L 771.614 434.104 L 770.111 432.217 C 769.565 432.728 769.214 433.658 768.472 433.75 C 767.706 433.844 762.846 430.853 761.944 430.377 A 1285.03 1285.03 0 0 1 728.266 412.243 C 717.54 406.146 706.529 398.631 694.83 394.595 C 689.362 392.709 683.732 391.43 677.925 392.27 C 671.519 393.197 669.437 396.302 665.932 401.241 C 660.384 378.158 657.808 353.257 664.132 330.077 C 669.081 311.936 675.843 298.409 692.741 288.827 z"/>
<path transform="translate(0,0)" fill="rgb(26,65,99)" d="M 1376.89 265.201 C 1383.57 264.834 1389.01 265.932 1395 269.029 C 1413.89 278.805 1425.65 297.889 1431.45 317.769 C 1441.92 353.692 1436.29 393.342 1425.44 428.618 C 1420.92 443.31 1415.15 457.674 1410.98 472.464 C 1406.71 487.589 1405.48 504.28 1397.48 518.092 C 1395.24 521.949 1391.6 526.475 1386.94 527.346 C 1376.79 529.243 1360.14 502.984 1353.78 496.047 C 1346.76 488.399 1338.16 479.66 1329.16 474.491 C 1324.17 471.629 1319.31 468.507 1314.41 465.495 C 1313.12 464.347 1313.53 464.925 1312.74 463.316 C 1311.96 461.721 1312.34 461.752 1312.87 460.186 C 1314.71 459.55 1316.03 459.172 1317.59 457.969 C 1311.9 455.708 1278.2 472.129 1263.03 472.426 C 1245.34 472.771 1232.15 464.949 1219.62 453.241 A 586.491 586.491 0 0 0 1215.24 439.41 C 1218.69 429.723 1222.93 420.762 1228.34 412.004 C 1250.65 375.902 1304.61 308.956 1338.37 283.948 C 1350.1 275.256 1362.62 268.526 1376.89 265.201 z"/>
<path transform="translate(0,0)" fill="rgb(136,165,188)" d="M 1375.17 284.273 C 1381.62 283.491 1386.47 287.254 1391.29 291.028 C 1408.01 304.129 1415.44 322.875 1417.94 343.494 C 1422.1 377.919 1417.26 416.752 1395.37 444.689 C 1399.04 435.521 1413.01 405.901 1411.11 397.985 C 1410.72 396.364 1409.92 396.397 1408.59 395.65 C 1399.94 396.258 1388.24 406.955 1382.03 412.725 C 1389.54 403.377 1396.61 393.086 1402.7 382.735 C 1405.56 377.855 1410.42 369.838 1408.48 364.062 C 1407.97 362.546 1407.94 362.98 1406.27 362.196 C 1402.76 362.323 1399.89 364.086 1397.05 366.016 C 1389.11 371.428 1382.56 378.92 1375.1 385.002 C 1360.41 396.983 1344.53 408.572 1328.92 419.343 C 1322.94 423.471 1316.84 427.612 1310.45 431.08 C 1305.36 433.844 1300.35 435.725 1295.49 438.975 C 1293.43 440.353 1291.8 442.028 1289.33 441.517 C 1293.81 434.851 1308.65 425.756 1315.5 420.069 C 1329.83 408.164 1344.48 394.42 1355.65 379.476 C 1358.08 376.125 1359.95 372.258 1361.97 368.642 C 1334.82 380.825 1300.68 409.205 1277.39 428.407 C 1290.87 410.724 1307.74 394.474 1323.47 378.781 C 1331.49 370.789 1346.1 361.258 1350.92 351.253 L 1350.03 350.148 C 1325.74 352.182 1269.26 406.075 1251.14 425.068 C 1251.35 424.528 1251.55 423.986 1251.77 423.45 C 1259 405.636 1274.96 387.856 1286.44 372.48 C 1303.83 349.19 1318.94 324.288 1340.92 304.786 C 1350.98 295.859 1362.72 289.275 1375.17 284.273 z"/>
</svg>