<svg version="1.1" xmlns="http://www.w3.org/2000/svg" style="display: block;" viewBox="0 0 2048 2048" width="1024" height="1024">
<defs>
	<linearGradient id="Gradient1" gradientUnits="userSpaceOnUse" x1="1461.12" y1="1391.95" x2="1781.16" y2="1235.37">
		<stop class="stop0" offset="0" stop-opacity="1" stop-color="rgb(241,195,159)"/>
		<stop class="stop1" offset="1" stop-opacity="1" stop-color="rgb(240,238,218)"/>
	</linearGradient>
</defs>
<path transform="translate(0,0)" fill="rgb(78,92,216)" d="M 0 0 L 2048 0 L 2048 1465.68 L 2048 1468.5 L 2048 1582.35 L 2048 1618.19 L 2048 2048 L 1973.12 2048 L 1963.74 2048 L 1917.07 2048 L 1903.42 2048 L 1376.43 2048 L 1364.14 2048 L 1146.72 2048 L 1138.6 2048 L 1072.22 2048 L 1063.63 2048 L 457.422 2048 L 409.897 2048 L 0 2048 L 0 2030.12 L 0 0 z"/>
<path transform="translate(0,0)" fill="rgb(13,13,20)" d="M 1619.01 752.928 C 1636.34 726.393 1657.78 696.938 1684.89 679.665 C 1703.8 667.612 1716.43 662.562 1738.87 667.557 C 1746.51 675.772 1750.49 683.781 1753.25 694.622 C 1756.12 702.447 1761.87 718.472 1759.99 726.446 L 1757.41 728.143 C 1757.77 728.191 1758.12 728.242 1758.47 728.285 C 1760.17 728.492 1759.54 728.426 1761.51 728.441 C 1761.87 734.49 1763.6 741.503 1762.56 747.437 L 1762.79 749.965 C 1765.76 755.489 1764.19 769.521 1764.83 776.163 C 1767.58 794.648 1770.49 812.737 1769.64 831.533 C 1769.88 835.584 1770.7 839.906 1768.81 843.625 C 1772.21 846.66 1772.77 863.853 1773.04 869.206 C 1773.08 869.885 1773.09 870.565 1773.11 871.244 C 1775.83 882.93 1776.18 895.433 1779.58 906.99 L 1779.67 907.996 C 1781 921.392 1786.12 935.146 1785.78 948.53 L 1785.35 974.342 C 1783.76 974.825 1783.42 974.722 1781.86 974.392 C 1782.48 975.671 1783.23 976.955 1783.81 978.239 C 1788.15 987.732 1780.04 1015.47 1775.79 1024.9 C 1762.89 1053.54 1736.87 1087.9 1706.53 1099.03 A 118.268 118.268 0 0 1 1699.38 1101.42 L 1730.66 1112.86 C 1727.42 1123.86 1725.06 1137.77 1728.33 1149 C 1731.3 1152.46 1735.6 1151.85 1739.06 1154.18 C 1745.93 1158.2 1754.39 1163.99 1758.16 1171.29 C 1777.85 1192.82 1789 1228.71 1790.01 1257.38 L 1789.07 1257.64 L 1788 1256.64 L 1786.7 1256.9 C 1788.25 1260.45 1790.79 1263.55 1791.88 1267.29 C 1794.4 1275.97 1797.24 1302.8 1797.32 1312.34 L 1795.15 1314.05 L 1796.05 1315.43 C 1796.73 1316.5 1797.44 1317.59 1798.1 1318.66 C 1802.11 1325.26 1804.95 1375.57 1802.2 1383.06 C 1801.81 1384.12 1801.37 1384.36 1800.55 1385.22 L 1801.76 1387 L 1799.74 1389.89 C 1801.64 1391.64 1801.91 1391.74 1801.89 1394.46 C 1801.88 1395.36 1801.7 1397.03 1801.61 1397.96 C 1801.15 1406.91 1800.49 1416.88 1797.96 1425.49 C 1796.08 1435.82 1791.17 1443.86 1787.22 1453.4 C 1800.62 1454.65 1814.22 1453.54 1827.66 1453.77 C 1842.66 1454.03 1857.55 1455.48 1872.57 1454.8 C 1889.62 1454.25 1910.18 1454.61 1927.28 1455.48 C 1936.85 1455.96 1946.24 1457.01 1955.85 1456.97 C 1956.94 1458.14 1957.38 1459.11 1959.07 1459.39 C 1964.48 1460.29 1971.86 1458.67 1977.66 1458.94 C 1987.47 1459.41 1997.22 1460.99 2007.02 1461.73 C 2021.07 1462.78 2034.09 1462.73 2048 1465.68 L 2048 1468.5 L 2048 1582.35 L 2048 1618.19 L 2048 2048 L 1973.12 2048 L 1963.74 2048 L 1917.07 2048 L 1903.42 2048 L 1376.43 2048 L 1364.14 2048 L 1146.72 2048 L 1138.6 2048 L 1072.22 2048 L 1063.63 2048 C 1061.8 2034.2 1062.83 2019.11 1062.67 2005.13 C 1062.24 1967.13 1063.11 1929.28 1063.03 1891.31 A 874.967 874.967 0 0 0 1062.57 1858.57 C 1062.24 1850.33 1060.56 1841.43 1061.83 1833.31 C 1061.39 1814.96 1063.57 1796.43 1063.43 1777.98 C 1044.52 1775.46 1013.78 1777.43 994.758 1779.48 C 984.714 1780.85 963.829 1779.85 954.135 1776.58 C 946.939 1768.35 938.424 1761.43 931.137 1753.21 C 929.955 1752.31 928.846 1750.84 927.811 1749.75 C 919.438 1744.52 913.049 1737.91 906.297 1730.8 C 878.436 1702.69 847.623 1678.06 820.826 1648.93 C 812.27 1643.67 805.165 1635.09 797.759 1628.28 C 793.7 1628.13 789.372 1628.24 785.677 1626.34 C 783.075 1625 780.989 1623.38 780.273 1620.39 C 779.536 1617.31 780.548 1615.04 782.071 1612.46 L 784.841 1610.74 C 784.928 1608.51 785.258 1606.31 785.57 1604.11 C 787.255 1592.19 786.155 1580.19 785.158 1568.26 C 784.204 1558.76 784.617 1545.15 786.232 1535.67 C 787.796 1526.49 793.303 1516.6 801.108 1511.31 C 802.927 1510.08 805.087 1508.59 807.323 1508.33 C 811.993 1507.78 817.43 1509.31 822.309 1509.14 C 830.476 1508.85 836.671 1505.83 845.234 1507.64 C 847.408 1506 850.841 1505.68 853.527 1505.29 C 872.373 1502.55 891.554 1501.26 910.468 1498.84 C 934.285 1495.79 957.983 1491.62 981.751 1488.17 C 988.57 1486.98 996.022 1486.03 1002.95 1486.45 C 1010.83 1486.31 1018.71 1486.31 1026.53 1485.22 C 1048.66 1484.12 1070.91 1483.26 1093.02 1481.71 C 1101.54 1481.12 1110.36 1479 1118.84 1479.18 C 1139.19 1475.76 1158.88 1475.46 1179.36 1474.6 C 1187.77 1474.25 1196.07 1473.16 1204.5 1472.98 C 1229.53 1472.45 1253.42 1465.71 1278.2 1463.89 C 1288.48 1463.14 1299.22 1464.45 1309.53 1464.82 C 1316.93 1465.09 1338.57 1466.38 1343.9 1461.44 C 1340.21 1457.08 1337 1453.1 1335.48 1447.5 C 1334.38 1443.57 1333.79 1439.43 1333.14 1435.4 C 1331.64 1426.26 1331.23 1417.64 1336.99 1409.87 C 1338.35 1408.04 1338.77 1407.86 1339.07 1405.54 L 1337.46 1405.4 C 1336.92 1401.62 1342.66 1392.45 1344.68 1388.94 C 1348 1382.81 1356.72 1381.79 1358.92 1375.86 C 1362.46 1366.3 1353 1326.8 1358.5 1310.57 L 1361.33 1311.97 L 1362.25 1311.57 C 1361.33 1308.88 1360.26 1308.93 1357.89 1307.62 L 1356.73 1308.13 L 1356.88 1311.45 L 1355.06 1312.46 C 1336.56 1312.87 1294.89 1292.55 1281.07 1280.28 C 1260.9 1262.37 1252.51 1231.36 1240.19 1208.08 C 1228.35 1185.74 1212.8 1165.2 1200.52 1143.02 C 1192.2 1127.99 1186.4 1111.89 1180.75 1095.71 C 1177.04 1085.1 1172.59 1072.19 1171.94 1061 C 1171.23 1056.52 1170.78 1051.99 1170.23 1047.49 C 1167.4 1005.48 1184.88 987.127 1210.59 957.146 C 1215.6 951.084 1221.9 947.591 1228.64 943.796 C 1244.16 938.558 1260.05 939.572 1275.76 943.29 C 1302.3 953.146 1314.47 972.595 1325.85 997.277 C 1331.97 1010.56 1334.28 1023.27 1337.88 1037.26 C 1338.72 1040.5 1340.49 1043.49 1341.21 1046.73 C 1342.11 1050.86 1341.21 1055.33 1342.35 1059.37 C 1344.38 1066.6 1350.22 1076.17 1350.17 1083.47 L 1348.56 1084.44 C 1354.32 1103.57 1360.05 1122.53 1369.91 1140.01 C 1371.59 1142.99 1373.28 1144.17 1372.04 1147.57 C 1373.98 1148.36 1372.91 1148.28 1375.24 1147.35 C 1379.08 1150.37 1382.48 1153.73 1385.96 1157.15 C 1388.8 1151.65 1392.32 1146.5 1394.5 1140.69 C 1393.72 1139.61 1392.59 1138.71 1392.17 1137.44 C 1391.42 1135.17 1393.59 1115.79 1394.29 1113.28 C 1396.51 1105.31 1413.39 1105.36 1417.33 1095.78 C 1411.84 1091.26 1405.71 1087.43 1400.37 1082.77 C 1388.23 1072.19 1379.24 1056.58 1372.12 1042.28 C 1367.86 1035.93 1364.68 1028.58 1361.89 1021.49 C 1359.42 1015.2 1357.28 1008.76 1355.94 1002.14 C 1352.98 987.548 1347.45 940.313 1352.64 928.292 C 1352.1 926.557 1352.18 925.75 1352.47 923.91 C 1353.82 915.345 1354.86 906.457 1355.21 897.795 C 1356.91 894.523 1357.16 890.562 1358.2 887.015 C 1362.26 873.041 1365.83 858.466 1370.61 844.748 C 1372.37 839.705 1376.46 836.093 1377.52 830.702 C 1379.49 820.711 1377.77 809.988 1379.22 799.837 C 1380.68 799.883 1379.85 799.897 1381.72 799.712 L 1381.95 796.336 L 1380.07 795.699 C 1376.77 789.091 1379.62 773.112 1380.46 765.67 C 1377.8 761.597 1380.63 743.065 1380.88 737.93 C 1381.85 737.633 1382.81 737.319 1383.75 736.953 L 1384.82 736.531 C 1383.23 735.03 1382.04 734.052 1381.33 731.942 C 1381.9 723.594 1384.38 718.451 1388.28 711.18 C 1387.71 710.073 1387.12 709.025 1386.49 707.956 C 1386.83 706.117 1387.2 704.267 1387.78 702.485 C 1390.54 693.975 1395.92 685.474 1403.83 681.09 C 1416.93 674.811 1428.66 679.901 1441.75 683.568 C 1455.97 688.697 1469.03 698.398 1481.02 707.411 C 1497.6 718.954 1510.73 739.662 1520.65 757.01 L 1522.46 758.177 L 1522.59 759.59 C 1525.33 757.301 1528.39 755.142 1531.81 754.023 C 1550.61 747.875 1598.32 751.428 1619.01 752.928 z"/>
<path transform="translate(0,0)" fill="rgb(227,206,183)" d="M 1540.86 1133.8 C 1545.6 1136.24 1552.12 1132.59 1564.41 1141.09 C 1570.15 1145.07 1574.65 1151.08 1575.68 1158.1 C 1577.29 1169.12 1571.16 1179.66 1564.78 1188.13 C 1561.65 1189.72 1558.11 1191.97 1554.71 1192.79 C 1553.11 1193.18 1551.9 1193.32 1550.43 1194.15 C 1550.1 1194.34 1549.79 1194.57 1549.47 1194.78 L 1548.61 1193.49 C 1540.71 1192.97 1527.66 1190.06 1521.74 1184.59 C 1516.14 1179.42 1515.85 1171.73 1515.57 1164.64 L 1515.51 1162.91 L 1514.95 1162.77 L 1511.85 1166.04 L 1511.27 1165.48 L 1512.03 1163.29 C 1513.78 1162.63 1514.5 1162.28 1515.98 1161.03 C 1515.77 1157.66 1514.87 1157.29 1512.69 1154.83 L 1513.11 1153.4 L 1516.07 1152.43 C 1522.61 1141.65 1529.93 1138.78 1540.86 1133.8 z"/>
<path transform="translate(0,0)" fill="rgb(246,221,182)" d="M 1600.88 1424.96 C 1601.91 1422.93 1602.34 1422.04 1602.41 1419.71 C 1602.64 1412.93 1604.63 1404.95 1606.95 1398.55 L 1608.36 1399.02 L 1609.41 1398.41 C 1610.8 1396.13 1612.14 1394.14 1612.7 1391.48 C 1611.4 1390.04 1611.17 1389.83 1610.74 1387.85 C 1612.13 1388 1613.5 1388.11 1614.88 1388.21 C 1618.48 1385.88 1622.67 1383.78 1625.03 1380.12 C 1624.87 1377.86 1624.79 1377.47 1625.84 1375.36 C 1627.41 1376.01 1626.93 1375.67 1628.12 1376.65 C 1629.42 1377.73 1635.74 1374.14 1637.69 1373.28 C 1654.12 1366 1681.64 1362.31 1699.33 1365.12 C 1700.97 1365.38 1702.42 1365.7 1704.09 1365.68 C 1707.27 1365.63 1708.18 1365.72 1710.93 1367.47 C 1713.23 1370.67 1718.85 1372.41 1722.38 1374.26 C 1731.94 1379.26 1739.15 1391.27 1745.61 1399.77 C 1751.08 1413.4 1750.23 1427.6 1748.33 1441.92 C 1748.12 1443.49 1748.17 1442.8 1748.18 1444.39 C 1747.3 1446.68 1745.96 1451.52 1743.7 1452.55 C 1734.26 1456.87 1709.97 1452.4 1698.37 1453.14 C 1692.83 1452.43 1685.81 1451.81 1680.63 1449.71 C 1678.18 1448.72 1676.14 1415.04 1674 1409.38 L 1672.36 1408.94 L 1670.42 1410.49 C 1665.86 1423.03 1672.04 1438.67 1673.21 1451.4 L 1671.92 1452.77 C 1664.49 1454.49 1653.37 1450.84 1646.45 1447.91 C 1646.25 1446.81 1646.08 1445.69 1645.87 1444.59 C 1644.55 1437.63 1647.25 1422.58 1643.71 1417.35 C 1641.27 1418.41 1641.45 1418.87 1640.13 1421.05 C 1641.2 1426.85 1637.73 1431.09 1636.52 1436.54 C 1635.47 1441.24 1638.73 1446.09 1640.99 1449.9 C 1633.77 1449.91 1619.59 1451.23 1613.32 1447.61 C 1610.25 1445.83 1609.47 1443.13 1608.73 1439.86 C 1608.26 1437.8 1608.26 1438.16 1606.77 1436.9 C 1605.91 1432.03 1604.2 1428.62 1600.88 1424.96 z"/>
<path transform="translate(0,0)" fill="rgb(13,13,20)" d="M 1706.04 1413.75 C 1706.32 1413.86 1706.62 1413.93 1706.88 1414.08 C 1712.67 1417.38 1715.66 1430.09 1717.31 1436.25 C 1716.62 1439.23 1716.38 1443.01 1714.19 1445.11 L 1711.95 1442.34 C 1710.66 1443.81 1712.23 1444.94 1710.26 1447.09 L 1709.15 1446.73 C 1707.07 1441.04 1704.26 1419.44 1706.04 1413.75 z"/>
<path transform="translate(0,0)" fill="rgb(214,129,131)" d="M 1533.12 1085.62 L 1533.28 1085.73 C 1533.59 1087.28 1533.96 1088.74 1534.42 1090.25 C 1541.81 1091.85 1565.45 1089.93 1574.46 1090.25 A 479.285 479.285 0 0 1 1695.69 1109.2 C 1701.14 1110.76 1708.04 1111.64 1713.13 1114.07 C 1715.95 1115.41 1715.9 1117.44 1716.81 1120.21 C 1715.6 1118.51 1714.36 1117.07 1712.89 1115.58 C 1712.63 1117.3 1712.77 1117.89 1713.44 1119.53 C 1717.03 1128.34 1717.4 1138.7 1721.95 1147.07 C 1722.09 1147.32 1722.23 1147.57 1722.38 1147.81 C 1716.55 1146.23 1710.54 1145.55 1704.65 1144.18 C 1671.8 1136.51 1631.71 1127.32 1597.86 1127.53 L 1596.17 1127.55 L 1595.96 1125.27 C 1590.94 1123.75 1578.28 1125.36 1571.69 1124.69 L 1570.32 1124.54 C 1568.79 1124 1567.56 1123.43 1565.9 1123.66 C 1561.65 1124.26 1558.07 1124.57 1553.9 1125.95 C 1550.18 1127.17 1546.25 1123.48 1541.83 1124.72 L 1541.32 1126.33 L 1543.07 1128.66 C 1544.13 1128.08 1545.1 1127.45 1546.11 1126.78 L 1546.77 1128.04 L 1545.81 1129.37 C 1537.64 1129.87 1530.18 1125.11 1521.92 1126.37 C 1492.87 1130.78 1463 1134.98 1434.39 1141.55 C 1424.7 1143.77 1412.44 1153.01 1402.37 1150.55 C 1401.23 1145.74 1403.29 1138.32 1403.36 1133.15 C 1402.52 1131.62 1401.93 1130.27 1401.45 1128.58 C 1402.26 1126.15 1403.14 1123.97 1402.68 1121.37 C 1402.34 1119.49 1402.41 1118.57 1402.79 1116.73 C 1409.37 1107.3 1434.07 1101.5 1445.34 1099.33 C 1451.12 1098.22 1459.42 1097.78 1464.57 1095.11 C 1465.96 1094.39 1465.9 1093.13 1466.35 1091.73 C 1467.06 1093.49 1466.74 1093.63 1468.54 1094.53 C 1470.03 1093.9 1471.91 1092.86 1473.59 1092.84 C 1481.01 1092.77 1527.87 1092.32 1531.22 1090.51 C 1532.44 1089.85 1532.76 1086.95 1533.12 1085.62 z"/>
<path transform="translate(0,0)" fill="rgb(246,221,182)" d="M 1353.82 1391.01 L 1354.86 1390.35 C 1371.09 1379.86 1374.03 1376.47 1393.71 1371.17 C 1399.25 1369.68 1405.31 1370.15 1411.01 1369.99 C 1413.6 1369.92 1415.95 1368.66 1418.43 1368.67 C 1432.34 1368.74 1452.55 1373.02 1464.6 1379.99 C 1477.57 1387.5 1486.9 1401.92 1490.28 1416.32 C 1492.31 1424.94 1495.19 1443.43 1490.7 1451.42 C 1489.23 1454.03 1486.61 1455.43 1483.71 1455.86 C 1476.65 1456.92 1469.68 1454.24 1462.81 1456.91 C 1458.03 1458.76 1452.51 1459.25 1447.52 1458.05 L 1446.12 1456.51 C 1446.46 1455.11 1446.8 1453.71 1447.17 1452.32 C 1449.83 1442.37 1446.83 1431.85 1444.86 1421.99 L 1443.6 1421.29 C 1441.55 1423.02 1441.28 1424.3 1441.07 1426.98 C 1440.33 1436.04 1445.89 1451.92 1439.6 1459.3 C 1439.2 1459.15 1438.82 1458.96 1438.41 1458.86 C 1429.74 1456.75 1416.88 1463.52 1408.86 1460.72 C 1409.03 1458.31 1409.2 1455.97 1409.51 1453.57 C 1410.45 1446.16 1402.49 1434.39 1403.37 1423.59 C 1403.45 1422.61 1403.51 1421.62 1403.58 1420.64 L 1402.11 1420.05 C 1400.05 1421.69 1398.33 1423.28 1396.55 1425.22 C 1397.03 1429.9 1397.34 1434.81 1398.35 1439.41 C 1399.71 1445.65 1406.57 1455.56 1402.74 1461.21 C 1398.78 1462.93 1392.63 1462.74 1388.29 1462.83 C 1387.4 1462.85 1386.19 1462.61 1385.29 1462.45 A 143.276 143.276 0 0 1 1378.99 1461.9 C 1367.64 1460.63 1355.06 1465.19 1344.65 1460.08 C 1345.07 1458.8 1345.29 1458.26 1345.56 1457.06 C 1346.45 1453.09 1343.22 1449.45 1341.16 1446.33 C 1338.58 1424.33 1340.85 1409.06 1353.82 1391.01 z"/>
<path transform="translate(0,0)" fill="rgb(13,13,20)" d="M 1368.24 1417.74 L 1369.84 1419.09 C 1371.05 1422.46 1374.44 1454.43 1373.77 1456.5 C 1373.13 1456.46 1372.19 1456.41 1371.58 1456.26 C 1369.36 1455.71 1368.56 1454.56 1367.69 1452.53 C 1363.47 1442.69 1364.81 1427.68 1368.24 1417.74 z"/>
<path transform="translate(0,0)" fill="rgb(88,110,122)" d="M 1963.58 1649.09 C 1965.8 1648.42 1967.38 1648.93 1969.66 1648.45 C 1970.08 1643.16 1970.59 1634.98 1968.42 1630.01 L 1964.31 1629.54 L 1964.1 1627.99 C 1966.77 1628.08 1967.21 1628.55 1969.49 1626.97 C 1969.06 1624.31 1968.32 1621.92 1969.66 1619.42 C 1975.47 1616.63 2025.93 1620.11 2034.85 1620.05 C 2039.24 1620.02 2043.69 1619 2048 1618.19 L 2048 2048 L 1973.12 2048 L 1963.74 2048 L 1917.07 2048 C 1916.53 2019.55 1919.68 1991.25 1918.05 1962.79 C 1917.84 1959.07 1914.53 1929.08 1915.31 1927.57 C 1916.56 1925.12 1917.86 1926.49 1917.99 1923.05 C 1917.05 1921.96 1915.76 1920.73 1915.37 1919.3 C 1913.25 1911.53 1917.56 1884.46 1914.61 1870.44 C 1912.85 1862.04 1916.58 1857.48 1915.19 1849.58 L 1915.88 1847.95 C 1912.34 1832.82 1917.65 1790.32 1915.99 1771.52 C 1915.73 1768.53 1915.49 1768.64 1913.2 1766.82 C 1914.02 1766.16 1913.56 1766.46 1914.84 1765.9 L 1915.9 1765.46 L 1916.05 1762.94 L 1913.96 1761 C 1914.32 1759.37 1914.63 1757.72 1915 1756.09 C 1915.57 1753.55 1916.18 1751.08 1916.27 1748.46 C 1916.65 1737.71 1914.93 1726.53 1914.42 1715.75 C 1913.77 1702.06 1914.76 1687.01 1912.35 1673.56 C 1911.88 1670.9 1911.66 1668.47 1911.61 1665.77 C 1910.55 1661.63 1909.46 1658.09 1907.33 1654.36 C 1914.88 1651.86 1920.21 1649.19 1926.34 1643.95 C 1936.81 1635 1950.5 1629.02 1962.19 1621.55 C 1963.22 1630.49 1960.85 1640.39 1962.72 1649 C 1962.06 1660.13 1961.14 1753.7 1963.18 1757.07 C 1963.99 1758.41 1964.6 1759.66 1965.12 1761.14 C 1963.76 1762.68 1962.36 1761.58 1962.25 1763.61 C 1964.74 1764.98 1966.17 1765.3 1967.47 1767.88 C 1966.37 1767.48 1965.44 1766.7 1964.34 1766.33 C 1963.73 1766.12 1963.06 1766.19 1962.42 1766.12 C 1962.17 1768.24 1962.72 1769.69 1963.38 1771.71 C 1959.6 1777.06 1964.49 1783.43 1962.14 1788.62 C 1961.06 1791.01 1960.25 1794.42 1961.06 1797 C 1961.14 1797.27 1961.3 1797.52 1961.42 1797.79 L 1962.63 1796.89 L 1964.46 1796.98 C 1963.3 1798.61 1962.67 1799.02 1961.02 1800.05 C 1960.6 1802.16 1960.68 1824.48 1961.17 1826.75 L 1962.44 1828.12 C 1965.5 1827.53 1967.14 1826.34 1968.85 1823.67 C 1971.6 1819.38 1970.85 1747.23 1970.99 1734.4 C 1969.13 1732.68 1966.1 1730.47 1965.05 1728.23 C 1966.99 1728.72 1969.27 1731.29 1970.63 1731.04 C 1970.9 1720.02 1971.76 1657.61 1969.08 1650.2 L 1963.58 1649.09 z"/>
<path transform="translate(0,0)" fill="rgb(13,13,20)" d="M 1963.74 2048 C 1963.95 2043.85 1963.58 2036.64 1966.03 2033.23 C 1968.78 2032.43 1968.78 2032.68 1970.17 2030.21 L 1968.8 2031.55 L 1970.01 2030.59 C 1967.98 2031.18 1966.38 2031.7 1964.27 2031.85 L 1963.54 2030.73 C 1964.73 2029.14 1965.86 2027.82 1967.33 2026.48 L 1964.72 2025.38 A 857.505 857.505 0 0 0 1965.16 2004.14 C 1966.33 2004.09 1967.45 2004.06 1968.62 2004.1 L 1964.56 1999.99 L 1965.08 1998.11 L 1966.53 1997.81 L 1969.07 1999.74 L 1969.99 1998.93 C 1968.32 1996.77 1966.82 1996.92 1965.28 1995.26 C 1964.02 1993.91 1964.92 1956.16 1965.58 1951.41 C 1965.84 1949.54 1965.78 1948.19 1967.33 1946.93 C 1967.43 1946.85 1967.57 1946.84 1967.69 1946.8 C 1966.19 1945.21 1965.42 1945.05 1965.23 1942.79 L 1966.33 1941.8 L 1969.71 1943.1 L 1970.53 1942.44 C 1966.97 1937.2 1961.99 1943.17 1965.03 1930.76 C 1965.39 1929.31 1966.18 1928.25 1966.87 1926.94 C 1967.23 1926.25 1967.5 1925.53 1967.82 1924.83 C 1965.74 1923.15 1964.94 1922.66 1964.92 1919.72 C 1964.92 1919.12 1965.25 1917.32 1965.37 1916.54 C 1966.6 1908.64 1965.8 1899.77 1965.04 1891.83 C 1967.13 1893.1 1966.21 1892.1 1967.01 1894.08 C 1967.7 1895.8 1968.26 1896.32 1969.66 1897.42 L 1970.81 1894.23 L 1971.95 1894.84 C 1975.84 1915.45 1973.26 1937.96 1973.39 1958.9 C 1973.54 1983.34 1975.54 2013.15 1973.91 2036.96 A 215.074 215.074 0 0 0 1970.41 2039.88 L 1970.6 2041.66 L 1973.12 2039.67 C 1974.25 2042.8 1972.82 2044.89 1973.12 2048 L 1963.74 2048 z"/>
<path transform="translate(0,0)" fill="rgb(246,221,182)" d="M 1234.84 947.219 C 1242.26 946.52 1250.86 944.034 1258.12 946.05 C 1256.75 948.572 1253.61 952.493 1254.77 955.256 C 1254.99 955.789 1255.32 956.273 1255.6 956.781 L 1254.52 957.642 L 1251.82 957.157 C 1249.62 959.246 1249.38 962.364 1249.32 965.259 C 1249.22 970.237 1250.94 994.486 1252.61 998.385 L 1253.95 998.886 C 1255.35 997.277 1255.17 995.59 1254.98 993.51 C 1254.88 992.407 1254.64 991.321 1254.49 990.225 C 1252.87 978.799 1255.04 961.743 1260.31 951.358 L 1263.74 949.189 C 1263.82 949.176 1263.9 949.15 1263.99 949.15 C 1266.25 949.154 1268.27 949.548 1270.27 948.285 C 1270.54 948.116 1270.78 947.916 1271.04 947.731 L 1272.26 948.285 C 1286.99 950.96 1299.8 962.065 1308.12 974.17 C 1314.64 983.662 1319.1 994.645 1322.94 1005.44 C 1324.2 1008.97 1327.4 1009.22 1327.66 1011.56 C 1326.48 1013.9 1325.28 1015.22 1325.62 1017.88 C 1326.02 1017.92 1326.42 1017.95 1326.81 1018.01 C 1328.46 1018.24 1327.84 1018.03 1329.16 1018.95 C 1327.69 1020.14 1328.56 1019.59 1326.45 1020.44 C 1326.51 1022.8 1326.9 1024.36 1327.77 1026.55 L 1331.31 1029.58 L 1329.24 1030.99 C 1329.14 1042.38 1333.05 1054.42 1335.59 1065.46 C 1342.12 1093.9 1347.82 1131.48 1368.92 1153.34 C 1373.54 1158.11 1379.13 1162.04 1384.65 1165.7 C 1393.94 1162.55 1403.43 1160.49 1412.7 1157.47 C 1422.68 1154.22 1432.56 1149.98 1442.85 1147.82 C 1458.84 1144.45 1475.16 1143.6 1491.06 1140.51 C 1502.1 1138.36 1514.61 1133.09 1525.77 1132.93 L 1525.22 1134.02 C 1524.79 1134.14 1524.36 1134.26 1523.93 1134.38 C 1517.35 1136.3 1514.3 1139.25 1511.08 1145.25 C 1504.53 1157.43 1505.02 1167.17 1508.55 1180.01 C 1509.92 1184.95 1511.72 1188.13 1515.79 1191.32 C 1515.58 1191.57 1515.39 1191.84 1515.16 1192.07 C 1511.58 1195.49 1495.13 1202 1488.41 1206.68 C 1458.47 1227.5 1447.25 1266.53 1444.2 1300.98 C 1443.64 1307.25 1443.52 1310 1446.75 1315.55 C 1446.46 1315.76 1446.15 1315.97 1445.86 1316.19 C 1444.48 1317.25 1444.97 1316.83 1443.91 1318.5 C 1444.1 1326.27 1442.83 1345.53 1445.21 1351.79 L 1447.77 1351.28 L 1448.58 1352.43 C 1447.49 1353.69 1446.5 1354.56 1445.22 1355.6 C 1444.51 1358.05 1443.92 1360.43 1443.46 1362.94 L 1441.41 1363.44 C 1440.09 1362.2 1439.53 1362.13 1437.68 1361.72 C 1436.5 1361.46 1435.54 1361.29 1434.43 1360.77 C 1433.57 1360.36 1433.36 1360.19 1432.45 1359.83 C 1416.07 1353.47 1383.56 1366.22 1368.16 1372.82 C 1368.11 1371.02 1368.1 1369.24 1367.79 1367.46 C 1364.01 1346.06 1366.27 1312.32 1369.15 1290.69 C 1369.93 1284.84 1372.32 1278.86 1373.5 1273.02 C 1376.8 1256.75 1379.56 1240.86 1383.94 1224.79 C 1380.79 1230.82 1376.52 1236.24 1373.5 1242.26 C 1368.23 1252.75 1366.42 1266.81 1364.37 1278.34 C 1363.09 1285.54 1362.55 1302.63 1357.89 1307.62 L 1356.73 1308.13 C 1356.22 1307.83 1355.67 1307.59 1355.21 1307.22 C 1353.36 1305.77 1353.65 1305.13 1351.17 1304.36 C 1350.18 1305.92 1349.81 1306.71 1348.19 1307.68 C 1348.11 1305.56 1348.62 1304.59 1347.07 1303.04 C 1346.6 1303.25 1344.99 1304 1344.56 1304.13 C 1344.03 1304.29 1343.45 1304.69 1342.93 1304.48 C 1342.67 1304.37 1341.39 1301.97 1341 1301.65 C 1340.01 1300.83 1336.64 1300.09 1335.29 1299.61 C 1322.41 1295.04 1306.46 1289.45 1295.17 1281.75 C 1288.22 1277.01 1283.68 1267.77 1276.21 1263.95 L 1277.94 1265.01 L 1276.63 1267.66 C 1274.89 1266.61 1273.93 1265.1 1272.69 1263.52 C 1273.25 1262.75 1273.79 1261.97 1274.31 1261.17 C 1262.21 1243.87 1252.25 1222.12 1244.38 1202.48 C 1242.43 1197.61 1243.11 1191.45 1240.59 1187.07 C 1235.13 1177.6 1224.78 1169.7 1217.98 1161.17 C 1211.53 1153.09 1207.13 1143.17 1200.87 1134.8 C 1198.91 1132.19 1201.12 1131.95 1200.83 1129.34 C 1200.3 1124.43 1193.05 1111.83 1190.63 1106.59 C 1191.03 1105.65 1191.44 1104.71 1191.9 1103.79 L 1192.34 1102.94 C 1190.96 1096.14 1186.81 1090.79 1184.84 1084.24 C 1182.4 1076.14 1181.97 1067.14 1179.08 1059.19 C 1178.95 1058.83 1178.8 1058.48 1178.66 1058.12 C 1178.72 1054.74 1178.42 1052.28 1177.58 1049 C 1175.98 1041.2 1176.51 1035.54 1177.67 1027.67 C 1180.79 1006.64 1186.91 997.856 1197.76 980.311 A 505.809 505.809 0 0 0 1198.56 989.045 C 1199.74 1000.61 1202.83 1022.35 1212.26 1030.06 C 1214.76 1030.61 1214.79 1030.77 1217.03 1029.6 C 1217.17 1027.72 1206.38 1001.04 1205.28 994.711 C 1204.42 989.704 1206.69 984.947 1206.35 980.07 C 1206.17 977.614 1205.24 977.282 1203.51 975.702 C 1203.93 972.099 1211.03 964.142 1213.39 960.832 C 1219.92 954.183 1226.36 950.825 1234.84 947.219 z"/>
<path transform="translate(0,0)" fill="rgb(227,206,183)" d="M 1266.48 1041.38 C 1270.25 1041.71 1274.28 1042.73 1277.63 1044.51 C 1286.54 1049.24 1291.76 1057.97 1294.78 1067.3 C 1298.37 1078.4 1298.94 1091.72 1293.28 1102.18 C 1288.22 1111.53 1280.55 1115.38 1270.79 1118.12 C 1264.96 1118.21 1260.19 1117.96 1254.95 1115.1 C 1246.27 1110.37 1240.85 1102.07 1238.26 1092.68 C 1233.47 1075.34 1238.31 1060.99 1246.92 1046.11 C 1253.44 1043.55 1259.58 1042.21 1266.48 1041.38 z"/>
<path transform="translate(0,0)" fill="url(#Gradient1)" d="M 1515.79 1191.32 C 1516.85 1191.44 1517.51 1191.95 1518.37 1192.59 C 1528.18 1199.9 1539.19 1203 1551.47 1202.05 C 1561.56 1201.28 1568.76 1196.25 1575.14 1188.77 C 1580.09 1182.96 1586.65 1174.49 1586.08 1166.59 C 1584.48 1164.33 1584.02 1164.46 1581.33 1163.62 C 1582.13 1162.82 1582.83 1162.16 1583.5 1161.22 C 1585.07 1159.01 1585.54 1156.85 1585 1154.2 C 1583.35 1146.15 1569.69 1139.29 1563.61 1134.81 L 1563.88 1133.66 C 1580.53 1130.75 1650 1141.01 1669.92 1145.27 C 1680.6 1147.56 1710.73 1156.26 1718.53 1156.63 C 1721.55 1156.77 1724.57 1155.88 1727.55 1155.95 C 1731.53 1156.04 1734.78 1159.29 1737.25 1162.06 C 1739.36 1164.42 1741.5 1166.58 1743.84 1168.72 A 628.412 628.412 0 0 0 1755.33 1179.05 C 1759 1184.59 1766.64 1207.28 1768.45 1209.15 C 1769.15 1209.88 1770.77 1210.14 1771.69 1210.36 C 1771.3 1210.79 1770.9 1211.21 1770.53 1211.66 C 1770.23 1212.03 1769.97 1212.43 1769.69 1212.81 C 1771.48 1221.53 1775.32 1229.85 1776.82 1238.55 C 1778.27 1246.97 1780.19 1288.64 1782.65 1293.6 C 1783.27 1294.85 1784.88 1295.8 1785.97 1296.61 C 1785.39 1298.53 1784.05 1298 1783.55 1299.13 C 1782.78 1300.89 1789.82 1329.68 1789.51 1338.03 C 1789.32 1343.46 1788.97 1346.24 1792.5 1350.69 C 1791.74 1358.33 1789.24 1370.47 1793.27 1377.12 L 1791.16 1378.63 C 1790.87 1382.31 1791.31 1386 1790.7 1389.65 L 1792.14 1390.96 C 1792.05 1391.34 1791.97 1391.72 1791.86 1392.1 C 1791.42 1393.79 1790.76 1395.29 1790.05 1396.89 C 1790.81 1398.91 1791.79 1399.41 1793.56 1400.55 L 1789.35 1402.25 L 1789.36 1403.31 C 1789.36 1407.1 1789.41 1411.67 1787.67 1415.03 C 1786.64 1417.02 1786.01 1419.42 1787.03 1421.55 C 1787.25 1422 1787.6 1422.38 1787.88 1422.79 C 1787.42 1423.14 1786.93 1423.48 1786.48 1423.85 C 1781.36 1428.07 1781.05 1439.27 1777.06 1444.75 C 1772.77 1450.63 1766.2 1446.37 1764.37 1454.77 C 1762.65 1454.01 1762.24 1453.6 1761.01 1452.26 C 1760.67 1452.46 1760.33 1452.67 1759.99 1452.86 C 1758.6 1453.66 1757.18 1454.33 1755.73 1455 L 1754.26 1454 C 1753.92 1451.36 1753.59 1449.65 1755.23 1447.3 C 1755.94 1446.28 1756.73 1445.46 1757.55 1444.54 L 1748.18 1444.39 C 1748.17 1442.8 1748.12 1443.49 1748.33 1441.92 C 1750.23 1427.6 1751.08 1413.4 1745.61 1399.77 C 1746.71 1396.95 1747.58 1395.94 1749.8 1394.03 L 1745.06 1386.37 C 1741.9 1381.16 1738.49 1376.8 1734.02 1372.66 C 1732.25 1371.02 1719.95 1361.96 1719.62 1361.24 C 1719.07 1360.05 1719.8 1357.92 1718.83 1355.93 L 1714.89 1355.84 L 1711.57 1357.67 C 1709.26 1357.15 1707.25 1356.92 1704.87 1356.82 C 1689.05 1356.18 1667.31 1353.29 1652.45 1359.34 C 1651.84 1359.59 1651.2 1359.75 1650.58 1359.95 C 1648.86 1358.75 1648.63 1357.88 1646.31 1358.57 C 1645.87 1358.7 1644.57 1359.61 1644.14 1359.9 C 1639.06 1354.04 1646.13 1309.61 1643.27 1307.61 C 1638.27 1324.29 1641.26 1343.97 1640.32 1361.27 C 1627.32 1362.97 1612.85 1373.87 1605.04 1384.22 C 1597.84 1393.77 1594.63 1405.84 1595.18 1417.69 C 1595.25 1419.27 1595.23 1418.66 1594.69 1420.58 L 1594.77 1420.88 C 1594.15 1424.43 1594.04 1427.31 1594.51 1430.88 C 1596.34 1437.7 1598.78 1444.33 1601.12 1450.98 L 1599.57 1450.69 C 1584.52 1447.76 1550.94 1447.84 1535.62 1449.59 C 1525.8 1450.71 1516.16 1453.9 1506.23 1454.07 C 1503.99 1454.11 1501.06 1454.55 1499.58 1452.54 C 1498.8 1451.48 1497.39 1447.13 1498.08 1445.94 C 1498.27 1445.62 1498.63 1445.43 1498.88 1445.15 C 1501.45 1442.25 1500.98 1437.05 1500.63 1433.45 C 1498.27 1409.44 1492.11 1389.49 1472.54 1373.85 C 1467.1 1369.5 1450.5 1362.15 1443.46 1362.94 C 1443.92 1360.43 1444.51 1358.05 1445.22 1355.6 C 1446.5 1354.56 1447.49 1353.69 1448.58 1352.43 L 1447.77 1351.28 L 1445.21 1351.79 C 1442.83 1345.53 1444.1 1326.27 1443.91 1318.5 C 1444.97 1316.83 1444.48 1317.25 1445.86 1316.19 C 1446.15 1315.97 1446.46 1315.76 1446.75 1315.55 C 1443.52 1310 1443.64 1307.25 1444.2 1300.98 C 1447.25 1266.53 1458.47 1227.5 1488.41 1206.68 C 1495.13 1202 1511.58 1195.49 1515.16 1192.07 C 1515.39 1191.84 1515.58 1191.57 1515.79 1191.32 z"/>
<path transform="translate(0,0)" fill="rgb(23,30,46)" d="M 1711 1338.81 C 1714.29 1340 1717.6 1339.64 1721.03 1339.53 C 1721.06 1341.07 1721.05 1342.14 1720.63 1343.62 C 1720.19 1345.22 1720.31 1346.26 1720.37 1347.9 C 1720.48 1350.98 1719.94 1353.09 1718.83 1355.93 L 1714.89 1355.84 C 1711.42 1351.05 1712.76 1344.46 1711 1338.81 z"/>
<path transform="translate(0,0)" fill="rgb(23,30,46)" d="M 1749.8 1394.03 C 1759.13 1408.59 1757.72 1425.39 1757.04 1441.87 C 1756.98 1443.4 1756.99 1442.87 1757.55 1444.54 L 1748.18 1444.39 C 1748.17 1442.8 1748.12 1443.49 1748.33 1441.92 C 1750.23 1427.6 1751.08 1413.4 1745.61 1399.77 C 1746.71 1396.95 1747.58 1395.94 1749.8 1394.03 z"/>
<path transform="translate(0,0)" fill="rgb(13,13,20)" d="M 1711.95 1279.01 C 1710.78 1277.04 1710.42 1277.01 1710.51 1274.64 C 1710.6 1271.83 1709.75 1269.31 1708.94 1266.66 L 1711.6 1263.74 C 1711.3 1263.41 1710.98 1263.1 1710.69 1262.76 C 1707.13 1258.52 1705.17 1246.59 1705.38 1241 L 1707.71 1238.25 L 1707.51 1236.89 L 1704.45 1234.67 L 1704.52 1232.69 C 1706.72 1231.87 1706.77 1232.04 1709.02 1232.81 C 1716.36 1241.66 1719.43 1271.39 1720.61 1282.85 C 1720.97 1284.81 1721.46 1286.87 1721.68 1288.84 C 1721.86 1290.41 1721.56 1291.33 1721.25 1292.83 C 1719.44 1301.43 1723.85 1314.89 1719.04 1321.98 C 1720.15 1322.71 1721.63 1323.18 1721.93 1324.58 C 1722.73 1328.25 1720.41 1331.65 1721.33 1336.01 C 1721.67 1337.57 1721.58 1338.08 1721.03 1339.53 C 1717.6 1339.64 1714.29 1340 1711 1338.81 C 1711.01 1336.49 1710.94 1335.42 1712.05 1333.31 C 1712.9 1331.7 1713.23 1330.8 1713.54 1329.02 C 1712.24 1326.45 1711.68 1325.4 1712.05 1322.43 C 1710.66 1315.67 1710.28 1307.89 1709.99 1301 C 1710.98 1299.91 1711.66 1299.15 1712.34 1297.83 C 1710.92 1293.68 1709.02 1288.33 1708.99 1283.9 C 1708.98 1281.19 1710.1 1280.73 1711.95 1279.01 z"/>
<path transform="translate(0,0)" fill="rgb(88,110,122)" d="M 1387.11 1470.65 C 1388.43 1471.2 1389.97 1470.64 1391.39 1470.71 C 1402.16 1471.31 1412.89 1467.62 1423.71 1466.94 C 1432.56 1466.39 1441.44 1467.52 1450.28 1466.93 C 1461.4 1466.2 1472.34 1463.71 1483.5 1463.12 C 1490.52 1462.75 1507.27 1464.35 1512.78 1463.13 C 1513.94 1462.87 1515.17 1461.36 1516.34 1461.06 C 1518.56 1460.49 1535.79 1463.17 1541.27 1462.73 C 1544.23 1462.49 1546.17 1461.7 1548.61 1460.05 C 1548.88 1459.87 1549.14 1459.67 1549.41 1459.48 L 1550.88 1459.81 C 1551.64 1459.98 1552.4 1460.12 1553.15 1460.32 C 1570.73 1464.99 1589.73 1458.3 1607.58 1461.78 C 1609.45 1462.14 1610.64 1462.2 1612.55 1461.73 C 1613.42 1459.57 1612.88 1460.49 1614.03 1458.92 C 1614.39 1459.14 1614.76 1459.36 1615.12 1459.57 C 1615.65 1459.87 1616.2 1460.15 1616.72 1460.46 C 1625.69 1465.9 1692.28 1463.16 1707.25 1463.47 C 1715.7 1463.65 1724.2 1465.23 1732.67 1465.69 L 1741.51 1466.02 C 1746.63 1466.2 1753.19 1461.98 1757.47 1463.11 L 1758.91 1465.12 L 1761.55 1465.31 L 1762.58 1464.36 L 1762.62 1462.49 L 1764.48 1462.58 L 1766.45 1465.29 C 1770.12 1465.72 1784.7 1463.07 1785.89 1463.63 C 1786.8 1464.05 1787.12 1465.35 1788.04 1465.73 C 1791.5 1467.14 1802.16 1466.08 1806.28 1466.19 C 1818.89 1466.53 1831.79 1466.18 1844.34 1466.81 C 1850.68 1467.13 1857.08 1468.49 1863.42 1468.53 C 1865.64 1468.54 1867.48 1468.34 1869.49 1467.4 C 1870.92 1467.94 1872.48 1468.55 1874 1468.74 C 1877.86 1469.24 1882.56 1467.7 1886.63 1467.75 C 1899.27 1467.91 1911.97 1468.85 1924.59 1469.54 C 1925.92 1468.75 1926.6 1468.2 1927.66 1467.13 L 1929.09 1469.68 C 1933.61 1470.88 1945.44 1472.7 1949.78 1471.25 C 1948.86 1470.12 1947.93 1469 1947.05 1467.84 L 1948.51 1466.93 C 1951.97 1468.12 1950.63 1469.87 1952.83 1471.39 C 1954.7 1472.68 1977.43 1471.99 1980.98 1471.55 L 1982.94 1468.77 L 1984.19 1469.39 L 1984.54 1471.65 C 1995.02 1475.2 2007.86 1470.71 2017.82 1471.46 C 2021.89 1471.77 2024.91 1474.74 2029.19 1473.95 C 2029.42 1471.52 2029.44 1472.72 2029.14 1470.34 C 2033.33 1468.84 2040.83 1472.54 2043.98 1470.76 C 2046.24 1469.48 2044.74 1468.59 2048 1468.5 L 2048 1582.35 C 2045.72 1583.2 2043.23 1584.24 2040.79 1584.44 C 2033.24 1585.09 2024.82 1583.6 2017.17 1583.48 C 2006.62 1583.32 1996.1 1584.13 1985.54 1583.57 C 1979.08 1583.23 1971.82 1581.5 1965.44 1582.53 C 1952.71 1584.58 1939.46 1582.83 1926.6 1582.27 L 1881.72 1580.63 L 1804.75 1577.34 C 1786.75 1576.46 1768.91 1576.77 1751.03 1573.84 L 1748.96 1575.41 C 1743.72 1571.25 1736.3 1573.2 1730.13 1571.6 C 1728.77 1571.25 1727.95 1571.3 1726.57 1571.48 C 1713.64 1570.28 1700.79 1570.03 1687.86 1569.17 C 1677.52 1568.48 1667.23 1567.16 1656.87 1566.71 C 1650.78 1566.43 1638.85 1568.6 1633.94 1566.28 C 1623.52 1561.35 1591.1 1567.59 1578.54 1566.6 C 1575.75 1566.38 1577.03 1564.82 1575.51 1564.24 C 1574 1563.66 1569.8 1565.22 1568.42 1565.73 A 213.993 213.993 0 0 0 1564.07 1567.41 C 1562.64 1566.69 1561.22 1565.97 1559.83 1565.17 C 1545.8 1565.7 1531.69 1565.12 1517.76 1567.24 C 1513.03 1567.97 1508.03 1565.28 1503.11 1565.22 C 1490.72 1565.07 1448.55 1569.56 1439.85 1566.3 C 1435.41 1564.64 1370.15 1568.08 1357.65 1567.2 C 1351.67 1566.77 1345.86 1568.98 1339.87 1569.17 C 1327.48 1569.55 1314.92 1567.28 1302.42 1567.52 C 1293.91 1567.68 1284.5 1570.62 1276.21 1568.71 C 1273.67 1568.13 1271.1 1567.64 1268.55 1567.08 C 1268 1567.48 1267.47 1567.89 1266.9 1568.26 C 1264.73 1569.68 1211.71 1573.14 1204.6 1573.68 C 1190.89 1574.72 1177.23 1577.49 1163.54 1578.35 C 1155.85 1578.83 1148.3 1576.73 1140.69 1577.03 C 1130.36 1577.45 1120.07 1579.86 1109.67 1580.38 C 1073.21 1582.18 1036.93 1583.36 1000.52 1586.57 C 992.85 1587.25 985.364 1589.01 977.733 1589.79 C 967.053 1590.88 956.241 1590.63 945.559 1591.81 C 915.304 1595.17 885.11 1599.57 855.029 1604.28 C 845.597 1605.76 836.361 1608.78 826.918 1609.93 C 820.95 1610.65 812.643 1611.56 806.788 1610.01 C 805.07 1609.55 804.05 1609.02 802.684 1607.94 C 801.562 1605.21 801.399 1602.62 801.151 1599.72 C 801.01 1583.22 798.736 1549.44 802.664 1534.88 C 802.926 1533.91 803.791 1531.43 804.737 1530.98 C 807.437 1529.7 830.957 1529.25 836.269 1528.48 C 845.207 1527.18 854.029 1523.61 862.99 1521.88 C 873.278 1519.9 922.883 1514.21 927.989 1510.92 C 929.977 1509.64 931.07 1508.57 933.583 1508.25 C 943.924 1506.95 954.816 1507.12 965.257 1506.61 C 992.391 1505.29 1020.59 1503.85 1047.11 1497.76 C 1048.87 1499.72 1047.88 1498.88 1050.09 1500.29 C 1051.27 1499.64 1052.5 1499.04 1053.68 1498.37 C 1061.2 1494.12 1074.6 1498 1083.29 1497.04 C 1129.82 1491.9 1176.47 1488.71 1223.05 1483.99 C 1245.67 1481.7 1268.25 1477.84 1290.88 1475.87 C 1309.69 1474.23 1328.74 1472.41 1347.59 1471.49 C 1356.34 1471.06 1365.78 1471.99 1374.34 1470.96 L 1374.22 1468.99 C 1375.98 1468.88 1375.41 1468.67 1376.7 1469.3 C 1380.04 1470.93 1382.08 1470.98 1385.8 1470.75 C 1386.24 1470.72 1386.67 1470.68 1387.11 1470.65 z"/>
<path transform="translate(0,0)" fill="rgb(13,13,20)" d="M 995.808 1556.52 C 999.626 1556.1 1006.13 1555.44 1009.4 1557.48 C 1005.04 1561.41 955.298 1566.27 946.431 1566.97 C 941.16 1567.38 929.79 1565.54 925.59 1567.87 C 923.137 1569.22 922.463 1568.81 919.74 1568.63 C 917.077 1568.75 914.438 1568.46 911.782 1568.27 L 911.106 1567.26 C 912.966 1566 914.712 1564.71 916.877 1564.03 C 918.626 1563.48 919.471 1564.67 920.935 1565.56 C 923.638 1564.65 923.953 1563.43 925.536 1561.13 C 926.464 1562.43 927.353 1563.5 928.521 1564.59 C 935.377 1562.95 942.218 1560.83 949.178 1559.72 C 964.232 1557.31 980.527 1557.58 995.808 1556.52 z"/>
<path transform="translate(0,0)" fill="rgb(13,13,20)" d="M 1248.35 1519.24 C 1249.97 1520.12 1251.08 1520.46 1252.96 1520.36 C 1257.81 1520.09 1263.51 1520.1 1267.99 1522.23 C 1261.69 1526.62 1248.53 1524.97 1241.02 1526.13 C 1237.21 1526.72 1233.39 1528.33 1229.59 1528.72 C 1224.79 1529.2 1219.77 1526.84 1215.05 1528.24 L 1214.27 1531.13 C 1211.28 1531.29 1212.92 1530.07 1211.08 1528.76 C 1209.59 1527.7 1197.97 1528.63 1195.9 1528.7 C 1187.82 1529 1163.82 1532.41 1158.44 1531.19 C 1156.11 1530.67 1155.15 1530.56 1152.77 1531.39 C 1150.54 1531.77 1148.39 1532.37 1146.19 1531.7 C 1141.06 1530.15 1134.3 1533.83 1129.53 1531.12 L 1129.5 1529.96 C 1133.58 1527.54 1140.48 1528.14 1145.2 1527.41 C 1154.31 1525.99 1163.54 1526.06 1172.72 1525.41 C 1184.18 1524.61 1195.43 1523.46 1206.93 1523.03 C 1207.92 1522.09 1208.79 1521.34 1209.97 1520.63 C 1211.42 1519.77 1211.77 1520.28 1213.32 1520.67 L 1213.55 1523.01 C 1224.75 1517 1236.6 1523.39 1248.35 1519.24 z"/>
<path transform="translate(0,0)" fill="rgb(13,13,20)" d="M 1495.88 1508.53 C 1503.23 1507.47 1522.4 1507.73 1529.15 1510.57 C 1524.75 1513.59 1514.5 1514.2 1509.04 1514.66 C 1501.7 1515.29 1494.17 1513.91 1486.74 1514.12 C 1475.31 1514.46 1463.47 1516.32 1452.06 1515.97 C 1448.24 1515.85 1444.8 1514.31 1440.91 1514.35 C 1419.47 1514.57 1398.25 1516.23 1376.75 1515.7 C 1372.63 1515.34 1355.1 1516.12 1353.63 1514.77 C 1361.53 1512.5 1370.27 1511.36 1378.5 1511.39 C 1382 1511.41 1386.75 1513 1389.98 1512.01 C 1399.89 1508.98 1414.53 1511.46 1425.23 1511.4 C 1435.81 1511.34 1446.47 1511.43 1457.02 1510.84 C 1468.77 1510.19 1482.03 1507.26 1493.64 1509.62 C 1493.92 1509.67 1494.19 1509.74 1494.47 1509.8 L 1495.88 1508.53 z"/>
<path transform="translate(0,0)" fill="rgb(13,13,20)" d="M 1575.61 1503.78 C 1579.14 1501.8 1595.25 1503.7 1599.63 1503.94 C 1641.91 1506.28 1683.96 1511.25 1726.33 1506.49 C 1728.09 1507.53 1727.55 1507.1 1728.94 1508.28 C 1729.24 1508.53 1729.53 1508.79 1729.83 1509.04 C 1737.7 1506.02 1745.22 1507.27 1753.41 1507.37 L 1754.48 1505.35 L 1756.51 1505.08 L 1755.92 1507.49 L 1757.51 1508.09 L 1758.58 1505.65 C 1764.36 1505.17 1770.13 1508.81 1775.88 1507.44 L 1776.42 1504.67 C 1779.5 1505.12 1779.38 1505.15 1781.42 1507.53 C 1783.32 1507.59 1782.58 1507.74 1784.33 1507.14 C 1785.44 1506.76 1786.52 1506.33 1787.64 1505.98 C 1790.48 1505.07 1793.12 1504.65 1795.86 1506.13 L 1796.33 1509.75 L 1797.38 1509.63 L 1798.64 1506.49 C 1800.87 1505.6 1800.87 1505.65 1803.18 1506.36 L 1805.86 1511.62 L 1807.05 1511.44 C 1806.96 1509.44 1807.25 1508.61 1808.22 1506.87 C 1811.59 1505.26 1816.13 1505.81 1819.62 1506.87 L 1822.53 1512.45 L 1823.34 1512.65 C 1823.14 1511.11 1822.9 1509.67 1822.54 1508.15 L 1822.16 1506.63 L 1823.46 1507.12 C 1824.55 1506.82 1824.88 1506.7 1826.14 1506.51 C 1831.21 1505.77 1838.44 1504.65 1842.73 1507.84 C 1843.53 1510.4 1843.5 1510.64 1842.73 1513.21 C 1834.54 1517.56 1825.25 1512.4 1816.9 1513.64 C 1814.68 1513.96 1815.07 1514.67 1812.41 1514.36 C 1775.41 1510.11 1738.89 1513.79 1701.91 1513.77 C 1667.97 1513.75 1633.34 1510.76 1599.53 1508.5 C 1588.6 1507.77 1575.73 1511.05 1565.33 1508.59 L 1565.36 1507.02 C 1567.04 1506.05 1568.79 1504.85 1570.72 1504.53 C 1572.33 1504.26 1573.98 1504.07 1575.61 1503.78 z"/>
<path transform="translate(0,0)" fill="rgb(88,110,122)" d="M 1073.14 1767.47 C 1073.15 1767.33 1073.17 1767.19 1073.16 1767.05 C 1071.88 1751.8 1069.41 1661.72 1072.99 1652.55 C 1079.33 1649.12 1086.49 1647.78 1093.01 1644.73 C 1107.98 1637.73 1122.36 1626.67 1138.67 1623 C 1145.39 1621.48 1153.56 1621.95 1160.5 1621.52 C 1192.69 1619.55 1224.99 1620.26 1257.23 1619.08 C 1274.28 1618.46 1297.61 1613.25 1313.97 1615.79 L 1314.44 1619.31 C 1317.01 1621.03 1318.84 1622.82 1320.9 1625.13 C 1332.24 1634.95 1343.94 1646.54 1358.19 1651.9 L 1359.83 1651.28 C 1358.91 1646.3 1354.5 1642.11 1351.29 1638.41 C 1354.36 1639.95 1358.72 1642.32 1360.16 1645.65 C 1364.41 1655.42 1357.38 1655.37 1368.75 1664.55 C 1368.22 1664.76 1367.68 1664.96 1367.16 1665.19 C 1366.61 1665.45 1366.07 1665.75 1365.53 1666.02 C 1365.4 1680.42 1363.91 1694.48 1363.22 1708.82 C 1362.55 1722.55 1362.86 1736.43 1363.18 1750.17 C 1362.72 1764.94 1364.71 1779.83 1363.22 1794.47 L 1366.08 1797.6 C 1365.28 1805.41 1364.52 1813.2 1363.32 1820.96 C 1364.67 1822.17 1363.84 1821.6 1365.94 1822.51 C 1365.96 1828.39 1366.78 1835.91 1364.4 1841.38 C 1363.6 1843.23 1362.82 1845.1 1362.64 1847.14 C 1361.98 1855.05 1363.21 1863.66 1363.23 1871.66 L 1363.34 1934.34 C 1363.38 1945.45 1362.61 1956.55 1362.65 1967.66 C 1362.71 1985.38 1363.73 2003.13 1364.1 2020.85 C 1364.27 2028.8 1362.77 2037.91 1364.04 2045.5 C 1364.16 2046.18 1364.14 2047.27 1364.14 2048 L 1146.72 2048 L 1138.6 2048 L 1072.22 2048 C 1072.41 2045.63 1072.08 2043.3 1072.36 2040.94 C 1073.12 2034.48 1071.43 2028.18 1071.49 2021.71 C 1071.62 2008.12 1071.75 1994.51 1072.11 1980.91 C 1072.34 1972.38 1073.21 1963.14 1072.45 1954.67 C 1072.2 1951.81 1070.51 1949.57 1070.31 1946.67 C 1069.56 1935.53 1073.89 1920.99 1073.49 1908.59 C 1073.19 1899.09 1070.24 1889.78 1070.25 1880.26 C 1070.27 1863.94 1081.52 1844.04 1073 1827.91 C 1074.59 1825.49 1074.91 1825.19 1074.9 1822.33 L 1074.53 1823.38 C 1074.21 1815.5 1071.9 1807.6 1070.93 1799.74 C 1069.96 1791.93 1069.99 1784 1069.13 1776.12 C 1071.26 1775.63 1070.23 1776.11 1072.11 1774.48 C 1072.31 1772.65 1072.54 1770.85 1072.85 1769.04 L 1073.14 1767.47 z"/>
<path transform="translate(0,0)" fill="rgb(13,13,20)" d="M 1320.43 1989.73 L 1321.6 1991.49 C 1321.66 2001.43 1323.93 2026.97 1319.46 2034.98 A 418.933 418.933 0 0 1 1316.35 2030.83 C 1317.17 2016.94 1318.38 2003.51 1320.43 1989.73 z"/>
<path transform="translate(0,0)" fill="rgb(13,13,20)" d="M 1318.39 1699.68 C 1319.16 1700.34 1319.47 1700.51 1320 1701.53 C 1326.72 1714.55 1321.57 1815.29 1321.54 1836.84 C 1321.51 1854.14 1324.76 1873.13 1321.24 1890.14 C 1320.67 1892.88 1320.89 1896.49 1319.7 1898.85 L 1318.09 1898.79 C 1316.26 1894.94 1317.1 1888.61 1317.35 1884.36 C 1317.37 1884.03 1317.4 1883.7 1317.42 1883.37 C 1317.79 1877.44 1316.24 1879.96 1315.13 1875.53 L 1317.61 1872.98 A 580.134 580.134 0 0 0 1315.99 1836.46 C 1315.53 1830.96 1319.73 1824.24 1318.35 1819.73 C 1317.08 1815.55 1316 1812.74 1316.6 1808.32 C 1317.21 1803.77 1317.61 1799.2 1318.14 1794.64 C 1318.79 1788.93 1316.87 1783.46 1316.34 1777.78 C 1315.28 1766.42 1315.29 1751.78 1317.04 1740.52 L 1319.79 1739.73 L 1316.14 1734.5 C 1316.02 1728.9 1317.52 1723.36 1318.64 1717.9 C 1318.22 1716.97 1317.83 1716.02 1317.46 1715.07 C 1315.27 1709.42 1315.93 1705.12 1318.39 1699.68 z"/>
<path transform="translate(0,0)" fill="rgb(13,13,20)" d="M 1138.6 2048 C 1137.42 2038.65 1137.86 2030.12 1137.76 2020.78 C 1137.37 1981.13 1143.17 1941.62 1142.14 1902 C 1147.12 1915.95 1148.68 1930.09 1151.65 1944.52 C 1150.42 1945.7 1149.39 1946.11 1149.29 1947.99 C 1149.28 1948.27 1149.73 1950.76 1149.74 1950.85 C 1151.11 1959.7 1149.96 1969.28 1149.84 1978.22 C 1149.69 1989.48 1150.53 2000.69 1150.12 2011.96 C 1149.74 2022.56 1148.28 2033.06 1148.09 2043.66 C 1148.06 2045.4 1147.47 2046.49 1146.72 2048 L 1138.6 2048 z"/>
<path transform="translate(0,0)" fill="rgb(13,13,20)" d="M 1142.89 1632.48 C 1143.69 1633.06 1145.05 1634.29 1145.38 1635.23 C 1151.31 1652.11 1152.93 1762.07 1152.22 1785.89 C 1151.88 1797.29 1148.34 1819.88 1149.85 1830.09 C 1150.33 1833.38 1152.42 1836.74 1153.38 1840.02 C 1152.62 1840.67 1150.18 1842.57 1149.94 1843.48 C 1148.44 1849.14 1151.77 1857.04 1149.95 1863.34 L 1146.64 1864.58 L 1145.76 1866.58 L 1144.22 1871.01 L 1143.43 1871.19 C 1142.44 1865.85 1140.5 1861.07 1139.37 1855.92 C 1135.91 1840.16 1137.9 1813.51 1137.8 1796.66 C 1137.59 1758.36 1137.67 1720.19 1138.66 1681.92 C 1139.02 1667.79 1137.96 1651.48 1140.34 1637.65 C 1140.68 1635.65 1141.78 1634.13 1142.89 1632.48 z"/>
<path transform="translate(0,0)" fill="rgb(246,221,182)" d="M 1619.01 752.928 C 1636.34 726.393 1657.78 696.938 1684.89 679.665 C 1703.8 667.612 1716.43 662.562 1738.87 667.557 C 1746.51 675.772 1750.49 683.781 1753.25 694.622 C 1756.12 702.447 1761.87 718.472 1759.99 726.446 L 1757.41 728.143 C 1757.77 728.191 1758.12 728.242 1758.47 728.285 C 1760.17 728.492 1759.54 728.426 1761.51 728.441 C 1761.87 734.49 1763.6 741.503 1762.56 747.437 L 1762.79 749.965 C 1762.33 750.178 1761.88 750.407 1761.41 750.603 C 1759.76 751.3 1758.83 751.429 1757.09 751.442 C 1754.99 756.21 1756.73 765.595 1756.68 771.015 C 1756.67 772.405 1756.97 773.476 1757.36 774.794 C 1759.58 788.143 1763.41 819.263 1761.02 831.587 C 1760.92 832.098 1760.97 832.628 1760.95 833.148 C 1761.75 837.009 1761.87 842.038 1763.59 845.517 C 1763.32 851.908 1764.96 858.138 1765.3 864.495 C 1766.31 870.594 1771.07 908.656 1772.02 910.612 L 1770.89 913.171 C 1771.04 913.514 1771.21 913.847 1771.34 914.199 C 1772.58 917.644 1772.7 921.818 1773.17 925.445 C 1773.97 931.528 1775.44 937.401 1775.67 943.557 C 1775.99 951.809 1774.97 961.419 1776.28 969.492 C 1776.59 971.394 1777.79 972.952 1778.84 974.511 C 1778.09 980.559 1774.03 978.578 1777.11 986.462 C 1774.46 1000.78 1772.42 1017.77 1763.75 1029.86 C 1746.33 1054.16 1732.35 1080.26 1702.95 1091.43 C 1699.01 1092.92 1694.24 1095.16 1690.07 1095.76 C 1672.13 1098.35 1648.28 1087.33 1631.02 1083.03 C 1624.19 1081.33 1616.91 1080.65 1609.92 1079.87 C 1594.98 1078.18 1580.23 1078.38 1565.25 1079.37 C 1559.46 1079.75 1553.64 1080.82 1547.85 1080.95 C 1539.12 1081.14 1530.79 1076.26 1523.36 1082.29 C 1516.98 1082.35 1509.38 1078.9 1503.58 1082.64 L 1502.4 1085.68 C 1501.28 1084.49 1500.69 1083.57 1499.89 1082.17 L 1497.81 1082.38 C 1496.84 1084.08 1496.67 1084.64 1496.41 1086.49 L 1495.62 1086.6 L 1496.29 1083.91 L 1494.93 1082.56 C 1492.94 1082.65 1491.71 1082.98 1489.9 1083.69 C 1483.69 1086.11 1475.62 1083.02 1468.86 1083.98 C 1462.02 1084.95 1430.82 1096.23 1427.96 1095.2 C 1428.24 1093.27 1428.77 1091.95 1429.66 1090.22 C 1425.22 1086.34 1417.7 1082.55 1412.07 1080.92 C 1402 1078 1391.87 1060.74 1386.92 1051.89 C 1386.17 1050.54 1385.73 1049.24 1385.17 1047.82 C 1384.38 1045.85 1383.67 1045.26 1382.03 1044.01 C 1380.24 1040.59 1378.15 1037.45 1376.06 1034.2 C 1360.16 1009.51 1354.93 956.585 1361.08 927.935 C 1363.61 917.057 1365.25 904.045 1365.7 892.898 C 1368.88 871.204 1375.58 838.377 1388.09 820.467 C 1388.13 810.234 1389.36 798.604 1387.18 788.625 C 1386.87 786.703 1386.79 787.257 1387.03 785.691 C 1388.33 777.069 1388.17 769.571 1387.28 760.915 C 1389.42 752.438 1387.69 744.246 1390.77 735.745 C 1392.62 719.468 1394.62 709.655 1404.04 695.897 C 1405.81 693.304 1407.62 691.443 1410.01 689.402 C 1414.01 686.272 1416.74 688.408 1420.82 687.004 L 1420.17 684.439 L 1421.4 684.075 C 1421.76 686.473 1421.49 685.274 1422.24 687.667 C 1426.02 688.707 1423.41 685.641 1426.42 684.001 L 1428.09 687.228 C 1430.49 686.807 1432.68 686.471 1435.13 686.744 C 1435.74 686.812 1436.35 686.896 1436.96 686.971 L 1437.66 685.88 L 1439.1 687.163 L 1439.95 689.711 C 1441.96 689.381 1441.02 689.584 1442.78 689.133 L 1442.9 689.641 C 1455.05 695.65 1466.68 703.344 1477.55 711.426 C 1488.82 719.906 1497.92 732.227 1506.45 743.353 C 1509.22 746.968 1512.32 752.268 1515.75 755.056 C 1517.36 756.361 1518.68 756.624 1520.65 757.01 L 1522.46 758.177 L 1522.59 759.59 C 1525.33 757.301 1528.39 755.142 1531.81 754.023 C 1550.61 747.875 1598.32 751.428 1619.01 752.928 z"/>
<path transform="translate(0,0)" fill="rgb(13,13,20)" d="M 1661.51 990.029 C 1671.57 989.778 1693.04 991.507 1700.6 997.896 C 1702.35 999.371 1702.21 998.828 1702.39 1001.35 C 1702.06 1001.39 1701.74 1001.47 1701.4 1001.48 C 1697.36 1001.66 1663.52 994.708 1661.09 992.733 L 1661.51 990.029 z"/>
<path transform="translate(0,0)" fill="rgb(23,30,46)" d="M 1709.29 694.809 C 1710.6 696.525 1712.18 698.229 1713.05 700.209 C 1712.73 700.523 1712.41 700.841 1712.09 701.152 C 1698.93 713.775 1685.63 716.532 1678.58 736.331 L 1674.05 736.513 C 1683.86 718.405 1691.75 706.434 1709.29 694.809 z"/>
<path transform="translate(0,0)" fill="rgb(13,13,20)" d="M 1447.19 985.38 C 1449.49 984.99 1451.55 985.012 1453.87 985.226 C 1455.99 985.421 1457.54 985.229 1458.95 986.976 C 1456.11 989.932 1450.8 989.271 1447.07 990.806 C 1440.21 993.628 1430.93 994.981 1423.53 995.511 C 1420.67 996.196 1417.04 997.446 1414.15 997.002 C 1412.64 996.771 1412.37 995.824 1411.49 994.71 L 1411.96 993.027 C 1419.29 986.969 1438.01 986.355 1447.19 985.38 z"/>
<path transform="translate(0,0)" fill="rgb(13,13,20)" d="M 1677.59 962.385 C 1685.74 960.896 1706.83 961.103 1713.99 964.857 C 1715.38 965.583 1714.99 965.512 1715.6 967.14 C 1709.88 971.055 1697.07 968.045 1689.9 968.941 C 1689.52 968.99 1689.13 969.048 1688.75 969.101 C 1681.5 968.418 1672.03 971.781 1665.04 973.583 C 1662.44 972.861 1661.64 972.74 1659.74 970.894 L 1660.42 969.118 C 1662.48 967.335 1663.78 965.786 1666.51 965.191 L 1667.06 968.57 L 1668.79 967.587 C 1669.1 966.891 1669.69 965.54 1670.09 964.929 C 1671.69 962.441 1674.89 962.792 1677.59 962.385 z"/>
<path transform="translate(0,0)" fill="rgb(13,13,20)" d="M 1419.12 956.37 C 1428.51 956.283 1437.8 958.159 1447.19 957.028 L 1448.08 956.911 C 1453.1 960.454 1460.57 959.037 1464.53 963.398 L 1464.33 965.083 C 1458.6 966.555 1451.95 964.626 1446.01 964.628 L 1445.04 964.635 C 1436.5 964.299 1422.54 960.614 1414.48 963.872 C 1411.55 965.059 1407.59 966.685 1404.43 965.931 C 1403.56 963.637 1403.44 963.232 1403.85 960.826 C 1406.75 958.148 1412.18 957.744 1416.03 957.473 C 1416.59 957.434 1417.15 957.409 1417.71 957.377 L 1419.12 956.37 z"/>
<path transform="translate(0,0)" fill="rgb(13,13,20)" d="M 1674.05 736.513 L 1678.58 736.331 C 1678.45 736.922 1678.32 737.514 1678.17 738.103 C 1676.83 743.542 1673.74 749.2 1671.44 754.346 C 1676.81 759.899 1689.5 760.611 1696.53 764.775 C 1708.72 771.989 1717.09 787.209 1730.5 792.158 C 1733.04 791.99 1734.57 791.937 1736.84 790.644 C 1736.46 793.323 1736.66 794.889 1734.89 797.042 C 1718.86 795.138 1706.79 778.753 1693.66 770.501 C 1687.44 766.593 1679.79 765.085 1673.25 761.726 C 1671.16 760.652 1668.64 758.936 1668.05 756.53 C 1666.49 750.233 1671.04 741.897 1674.05 736.513 z"/>
<path transform="translate(0,0)" fill="rgb(13,13,20)" d="M 1717.89 690.711 C 1721.4 689.668 1724.32 689.162 1727.99 689.191 C 1729.44 690.814 1729.09 689.989 1729.47 691.44 C 1729.18 693.955 1728.71 693.783 1730.23 695.926 C 1742.24 712.856 1738.24 765.987 1740.23 787.337 L 1738.16 789.308 L 1734.51 788.125 L 1734.41 786.347 L 1736.74 786.442 L 1737.63 785.493 L 1735.59 783.888 C 1734.04 775.224 1735.29 764.776 1735.26 755.902 A 287.491 287.491 0 0 0 1733.32 725.272 C 1732.67 719.19 1731.94 712.986 1730.21 707.097 C 1729.23 703.745 1726.83 700.386 1727.03 696.857 C 1727.15 694.577 1727.56 695.89 1726.22 693.805 C 1722.08 694.056 1718.55 698.67 1714.02 699.952 C 1713.7 700.044 1713.37 700.123 1713.05 700.209 C 1712.18 698.229 1710.6 696.525 1709.29 694.809 C 1712.23 693.679 1715.06 692.11 1717.89 690.711 z"/>
<path transform="translate(0,0)" fill="rgb(13,13,20)" d="M 1413.88 793.905 C 1413.52 793.406 1413.16 792.916 1412.81 792.408 C 1407.56 784.661 1410.6 779.531 1410.72 771.454 C 1410.78 767.611 1407.27 766.835 1407.11 764.025 C 1406.8 758.597 1408.76 732.642 1407.93 730.562 C 1406.14 726.084 1405.07 728.106 1406.33 722.393 C 1407.56 716.869 1412.98 703.542 1410.25 698.43 L 1407.87 696.455 C 1408.15 694.329 1408.85 692.993 1410.81 691.927 C 1414.82 689.741 1419.31 690.726 1423.34 692.273 C 1447.77 701.644 1471.49 728.317 1481.52 751.962 C 1483.59 756.823 1483.88 760.973 1488.65 764.088 C 1488.33 766.114 1488.21 766.407 1486.59 767.641 C 1481.39 771.622 1464.29 772.776 1456.73 775.436 C 1442.26 780.523 1428.14 793.73 1417.63 804.635 L 1416.6 803.637 L 1416.91 800.888 C 1424.82 793.886 1428.45 783.356 1437.54 777.135 C 1449.06 769.257 1470.31 765.552 1477.71 760.185 C 1477.76 759.823 1477.86 759.466 1477.86 759.101 C 1477.86 753.095 1457.4 726.599 1452.63 721.835 C 1446.39 715.617 1438.71 710.826 1433.06 704.038 C 1431.6 702.282 1431.16 704.199 1429.33 704.178 C 1427.17 704.153 1417.06 697.662 1414.53 696.355 C 1410.22 715.661 1409.61 740.013 1411.2 759.794 C 1412.14 771.542 1416.43 781.955 1413.88 793.905 z"/>
<path transform="translate(0,0)" fill="rgb(13,13,20)" d="M 1541.68 938.451 C 1546.95 939.054 1556.38 937.203 1560.85 940.365 L 1559.73 941.425 C 1557.47 940.979 1555.11 940.412 1552.83 940.171 C 1549.79 939.851 1546.74 940.331 1544.46 942.301 C 1544.82 943.91 1545.02 944.395 1546.26 945.589 C 1550.09 949.269 1556.01 944.372 1560.51 944.683 C 1560.82 944.705 1561.12 944.788 1561.43 944.84 C 1562.05 943.63 1562.62 942.43 1563.16 941.182 L 1563.69 939.933 C 1566.44 938.833 1566.69 938.937 1569.61 939.611 C 1571.45 941.592 1571.51 941.668 1571.79 944.352 C 1570.71 946.978 1569.12 949.916 1566.54 951.395 C 1563.95 952.882 1563.23 952.296 1560.6 951.409 L 1559.16 952.657 C 1560.1 953.852 1560.41 954.355 1560.89 955.849 C 1558.83 957.283 1558.12 958.113 1557.12 960.417 C 1557.46 969.142 1556.93 980.919 1561.06 988.676 C 1563.17 992.65 1586.07 1006.14 1590.61 1006.89 C 1594.7 1007.57 1605.61 1007.86 1608.95 1005.51 C 1611.17 1005.56 1610.46 1005.38 1612.34 1005.96 C 1615.7 1007 1635.07 997.198 1639.01 995.593 C 1641.63 994.525 1644.93 993.105 1647.7 994.292 C 1647.36 995.786 1647.57 995.808 1646.69 996.856 C 1633.9 1011.99 1611.24 1011.06 1593.81 1013.71 C 1591.99 1013.15 1592.7 1013.27 1591.07 1013.08 C 1577.84 1011.58 1566.53 1002.28 1555.72 995.064 C 1546.61 1002 1536.09 1009.58 1524.54 1011.35 L 1522.68 1008.89 L 1523.48 1009.27 L 1521.64 1009.5 L 1521.02 1012.11 C 1519.95 1012.49 1519.62 1012.65 1518.59 1012.89 C 1506.42 1015.78 1487.43 1012.19 1477.23 1005.19 C 1475.17 1003.76 1473.67 1002.75 1473.25 1000.2 C 1479.84 997.121 1487.43 1004.19 1494.1 1005.92 C 1508.5 1009.64 1526.8 1006.99 1539.69 999.597 C 1544.02 997.116 1547.64 993.528 1551.96 991.081 C 1553.43 990.248 1554.88 989.393 1556.33 988.524 A 1418.66 1418.66 0 0 0 1552.3 955.817 C 1548.22 953.599 1543.59 951.386 1539.93 948.547 C 1537.76 946.858 1537.07 945.647 1536.71 942.99 C 1538.26 940.8 1539.33 939.756 1541.68 938.451 z"/>
<path transform="translate(0,0)" fill="rgb(227,206,183)" d="M 1543.87 760.814 C 1550.12 759.526 1558.35 758.077 1564.53 760.068 L 1558.59 763.501 L 1558.64 763.445 L 1560.57 765.597 C 1570.1 764.535 1579.09 761.036 1587.32 767.253 C 1588.95 767.192 1589.66 767.576 1590.88 766.331 C 1592.22 764.962 1592.57 763.778 1593.16 762.009 C 1592.21 760.98 1591.29 760.067 1590.25 759.115 L 1590.69 758.45 C 1593.91 758.486 1599.31 757.821 1602.02 759.604 L 1598.62 760.503 C 1597 764.032 1599.46 764.361 1599.44 767.526 C 1599.42 772.47 1593.58 776.887 1593.78 782.091 C 1590.85 789.855 1586.4 798.69 1582.71 806.257 C 1581.72 808.293 1581.01 810.098 1578.83 810.92 L 1578.47 808.499 C 1577.98 808.896 1577.42 809.22 1577 809.692 C 1574.93 812.018 1572.26 817.143 1571.95 820.212 L 1574.32 823.007 L 1573.49 824.304 L 1571.1 824.294 L 1569.94 825.533 C 1570.19 827.26 1570.27 828.783 1570.18 830.525 L 1568.43 831.432 L 1567.31 829.156 C 1565.18 831.027 1564.56 831.962 1561.71 832.41 L 1561.32 833.064 C 1562.29 834.91 1562.74 835.844 1563.04 837.95 L 1561.84 838.245 C 1556.37 834.918 1530.8 776.682 1527.79 768.585 C 1528.85 768.037 1529.92 767.508 1530.97 766.948 C 1534.76 764.935 1537.93 763.427 1542.14 762.461 C 1542.51 762.375 1542.89 762.298 1543.26 762.216 L 1543.87 760.814 z"/>
<path transform="translate(0,0)" fill="rgb(13,13,20)" d="M 1619.01 752.928 C 1636.34 726.393 1657.78 696.938 1684.89 679.665 C 1703.8 667.612 1716.43 662.562 1738.87 667.557 C 1746.51 675.772 1750.49 683.781 1753.25 694.622 C 1756.12 702.447 1761.87 718.472 1759.99 726.446 L 1757.41 728.143 C 1757.77 728.191 1758.12 728.242 1758.47 728.285 C 1760.17 728.492 1759.54 728.426 1761.51 728.441 C 1761.87 734.49 1763.6 741.503 1762.56 747.437 L 1756.63 749.633 C 1756.16 748.061 1756.01 747.185 1756.2 745.525 C 1757.03 738.126 1753.18 731.23 1754.49 724.238 L 1755.26 723.545 L 1753.62 722.257 C 1753.88 718.55 1753.08 715.872 1751.07 712.74 C 1749.93 710.97 1749.68 710.872 1749.49 708.68 L 1751.96 707.22 L 1751.75 706.455 L 1752.51 706.587 L 1749.83 706.767 L 1749.47 704.504 C 1747.38 700.059 1745.25 696.656 1741.64 693.299 C 1741.9 693.107 1742.14 692.868 1742.43 692.723 C 1744.23 691.838 1744.89 691.921 1746.55 690.523 C 1746.33 687.768 1745.46 686.386 1744.11 684.059 L 1743.91 689.274 C 1741.3 690.059 1741.08 690.03 1738.48 689.209 C 1736.02 686.913 1735.05 685.02 1733.76 681.91 L 1733.33 680.817 L 1731.69 680.377 L 1728.45 683.926 C 1726.38 682.942 1727.01 683.464 1725.51 681.979 C 1724.22 680.702 1723.02 679.288 1721.63 678.115 C 1719.69 676.477 1718.64 676.319 1716.21 676.605 C 1716.38 678.065 1716.45 679.471 1716.47 680.94 C 1710.73 682.235 1705.16 682.781 1699.99 685.763 C 1690.86 689.155 1684.79 697.553 1676.02 700.9 C 1675.26 698.585 1677.82 695.501 1676.09 694.296 C 1674.65 695.887 1674.43 696.833 1673.79 698.842 C 1670.95 700.206 1668.4 700.751 1666.79 703.511 C 1667.44 705.081 1667.83 705.408 1669.06 706.502 L 1670.98 701.657 L 1672.21 701.56 L 1673.39 703.612 C 1672.47 705.585 1671.96 706.675 1670.14 707.921 C 1667.7 707.307 1665.01 705.911 1662.74 707.6 C 1660.77 709.057 1659.51 711.384 1658.58 713.567 C 1661.6 713.42 1665.61 709.808 1667.87 710.43 C 1663.55 716.532 1653.84 730.254 1647.01 732.77 L 1644.35 731.475 L 1643.42 732.51 C 1643.82 732.929 1644.23 733.343 1644.63 733.766 C 1644.94 734.099 1645.25 734.44 1645.56 734.777 C 1643.61 737.187 1643.05 736.054 1640.8 737.402 C 1635.52 740.564 1632.93 761.563 1620.94 763.567 C 1618.87 762.944 1618.12 762.576 1616.8 760.845 C 1616.37 760.941 1615.93 761.062 1615.49 761.133 C 1610.63 761.911 1605.55 759.538 1601.02 762.32 L 1600.73 763.945 L 1601.87 764.613 L 1606.26 763.264 C 1605.63 765.093 1604.7 765.814 1603.38 767.163 C 1599.13 771.503 1599.05 778.371 1593.78 782.091 C 1593.58 776.887 1599.42 772.47 1599.44 767.526 C 1599.46 764.361 1597 764.032 1598.62 760.503 L 1602.02 759.604 C 1599.31 757.821 1593.91 758.486 1590.69 758.45 L 1590.25 759.115 C 1591.29 760.067 1592.21 760.98 1593.16 762.009 C 1592.57 763.778 1592.22 764.962 1590.88 766.331 C 1589.66 767.576 1588.95 767.192 1587.32 767.253 C 1579.09 761.036 1570.1 764.535 1560.57 765.597 L 1558.64 763.445 L 1558.59 763.501 L 1564.53 760.068 C 1558.35 758.077 1550.12 759.526 1543.87 760.814 C 1539.19 761.087 1534.56 762.549 1529.94 762.763 C 1526.27 762.934 1525.17 761.805 1522.59 759.59 C 1525.33 757.301 1528.39 755.142 1531.81 754.023 C 1550.61 747.875 1598.32 751.428 1619.01 752.928 z"/>
<path transform="translate(0,0)" fill="rgb(13,13,20)" d="M 1608.65 868.214 C 1616.76 859.028 1628.58 852.113 1640.62 849.987 C 1658.13 846.897 1669.12 856.639 1682.3 866.251 C 1694.22 876.449 1705.49 890.48 1707.4 906.784 C 1707.61 908.514 1707.63 911.992 1706.55 913.366 C 1702.52 918.484 1673.22 933.263 1666 935.955 C 1662.12 937.404 1658.4 938.2 1654.25 938.37 C 1643.8 938.798 1606.23 919.686 1598.25 911.822 C 1595.62 909.229 1591.65 905.093 1591.75 901.178 C 1592.05 890.388 1601.29 875.789 1608.65 868.214 z"/>
<path transform="translate(0,0)" fill="rgb(253,253,243)" d="M 1608.74 879.673 C 1610.28 877.615 1611.85 875.586 1613.33 873.482 C 1618.12 866.662 1626.28 862.3 1633.27 858.106 C 1631.62 873.884 1627.69 909.742 1637.28 922.837 C 1638.11 923.969 1638.62 924.382 1639.57 925.286 C 1642.17 928.143 1645.27 930.739 1648.08 933.402 C 1630.51 929.06 1615.32 919.826 1600.55 909.661 C 1600.89 908.324 1601.77 907.813 1602.73 906.854 L 1601.6 907.218 C 1602.39 905.381 1602.48 903.831 1602.74 901.847 C 1601.76 900.13 1600.89 898.643 1600.54 896.653 C 1599.98 893.454 1600.85 891.127 1602.46 888.473 C 1603.17 887.303 1603.86 886.239 1604.44 884.993 C 1605.63 882.43 1606.3 881.366 1608.74 879.673 z"/>
<path transform="translate(0,0)" fill="rgb(253,253,243)" d="M 1652.71 931.236 L 1652.2 929.063 C 1652.38 928.75 1652.56 928.439 1652.74 928.123 C 1663.57 908.424 1662.94 880.032 1656.73 858.973 C 1662.88 861.569 1668.19 863.527 1673.23 868.051 C 1680.08 873.689 1686.63 879.03 1691.58 886.493 C 1695.13 891.858 1696.6 902.318 1700.65 905.585 C 1697.13 914.058 1669.07 927.236 1660.55 930.87 C 1657.84 932.025 1655.5 931.71 1652.71 931.236 z"/>
<path transform="translate(0,0)" fill="rgb(13,13,20)" d="M 1464.77 839.071 C 1467.62 839.215 1471.2 840.972 1473.89 842.019 C 1491.18 848.745 1509.32 867.338 1516.42 884.447 C 1519.06 890.816 1519.19 898.507 1516.42 904.862 C 1508.36 923.39 1473.93 929.115 1456.76 935.858 C 1455.45 934.639 1454.3 933.97 1452.51 933.638 C 1440.13 931.355 1416.94 916.17 1405.62 909.32 C 1405.89 907.812 1405.93 906.681 1405.84 905.122 C 1405.81 904.574 1405.76 904.027 1405.72 903.479 L 1408.99 904.192 L 1410.11 903.463 L 1407.45 900.48 C 1409.33 892.776 1411.75 884.199 1415.3 877.121 C 1424.23 859.284 1446.5 845.023 1464.77 839.071 z"/>
<path transform="translate(0,0)" fill="rgb(253,253,243)" d="M 1465.25 850.611 C 1470.28 850.88 1473.51 852.121 1477.88 854.62 C 1491.16 862.22 1506.71 874.445 1510.47 890.16 C 1511.8 895.732 1510.56 901.107 1507.58 905.923 C 1499.28 919.298 1481.9 925.039 1467.37 928.117 L 1468.44 926.971 C 1469.28 926.081 1470.12 925.212 1470.88 924.247 C 1480.57 911.968 1485.32 887.649 1482.9 872.417 C 1481.95 866.466 1479.68 860.476 1474.43 857.05 C 1469.24 853.662 1464.18 854.129 1458.36 855.105 C 1456.79 855.921 1455.52 856.728 1454.2 857.938 C 1449.24 862.478 1448.46 873.863 1448.11 880.282 C 1447.33 894.315 1447.23 918.598 1456.9 929.442 L 1457.41 928.598 L 1457.23 929.858 L 1457.97 930.849 C 1457.08 930.899 1456.79 930.965 1455.8 930.725 C 1447.6 928.727 1416.08 911.235 1411.18 904.185 C 1411.7 900.779 1413.92 897.881 1415.71 895.006 L 1415.21 892.852 L 1412.21 891.439 C 1413.02 891.122 1415.05 890.531 1415.81 889.939 C 1417.43 888.681 1421.4 878.006 1424.7 874.303 C 1430.59 867.721 1449.88 857.413 1450.91 855.92 C 1451.51 855.041 1451.89 852.902 1452.25 851.816 C 1455.97 852.207 1460.13 851.834 1463.78 850.976 C 1464.27 850.86 1464.76 850.732 1465.25 850.611 z"/>
<path transform="translate(0,0)" fill="rgb(63,51,58)" d="M 1658.41 1655 C 1674.36 1655.29 1692.29 1656.32 1708.04 1654.42 C 1710.15 1654.16 1709.16 1654.07 1711.16 1654.74 C 1720.44 1657.77 1733.4 1653.54 1743.28 1653.95 C 1751.16 1654.29 1755.5 1657.88 1763.9 1656.01 C 1766.68 1655.39 1768.77 1654.47 1771.33 1655.74 C 1777.05 1658.6 1787.36 1657.09 1793.94 1657.36 C 1805.46 1657.84 1816.95 1658.79 1828.48 1659 C 1840.6 1659.21 1894.93 1656.55 1902.52 1660.3 L 1902.81 1663.73 C 1902.83 1672.56 1900.72 1723.43 1903.49 1727.97 L 1905.93 1728.64 L 1905.77 1730.06 L 1903.65 1730.68 C 1902.79 1734.84 1902.02 1753.46 1903.57 1756.66 C 1904.06 1757.66 1905.13 1758.59 1905.92 1759.36 C 1905.75 1761.42 1906.14 1760.03 1904.89 1761.63 C 1903.07 1763.99 1902.65 1768.39 1903.33 1771.24 C 1904.07 1774.37 1905.32 1777.51 1906.37 1780.55 L 1904.64 1779.76 L 1908.2 1780.56 C 1906.94 1781.04 1905.84 1781.45 1904.52 1781.73 C 1902.55 1793.07 1902.68 1831.74 1904.56 1842.9 L 1907.22 1844.06 L 1907.18 1845.4 L 1904.16 1846.94 C 1903.75 1850.02 1903.89 1852.51 1904.21 1855.59 C 1904.37 1857.14 1904.37 1856.48 1904.19 1857.96 C 1899.25 1867.4 1904.78 1966.1 1904.87 1984.73 C 1904.94 1999.3 1903.71 2013.93 1903.66 2028.49 C 1903.64 2035.67 1907.27 2041.13 1903.42 2048 L 1376.43 2048 C 1377.14 2037.59 1377.9 2026.59 1376.9 2016.18 L 1373.93 2016.03 L 1373.97 2014.56 C 1375.79 2014.54 1374.91 2014.71 1376.61 2014.05 C 1374.97 1988.11 1373.83 1961.09 1374.47 1935.14 C 1374.65 1928.1 1376.53 1921.18 1376.93 1914.13 C 1377.75 1899.79 1377.09 1885.31 1377.42 1870.94 C 1377.63 1861.97 1378.85 1853.04 1379.04 1844.04 C 1379.21 1835.95 1379.67 1827.53 1379.07 1819.47 C 1378.67 1814.12 1377.18 1808.91 1377.22 1803.51 C 1377.36 1784.97 1379.04 1766.97 1376.8 1748.34 C 1378 1744.12 1377.2 1738.47 1377.43 1734.05 C 1378.71 1709.81 1378.98 1687.3 1376.25 1663.08 C 1384.11 1656.81 1437.36 1658.86 1449.56 1658.44 C 1456.83 1658.19 1464 1656.42 1471.3 1656.19 C 1476.31 1656.03 1481.33 1656.68 1486.35 1656.6 C 1543.57 1655.7 1601.31 1658.19 1658.41 1655 z"/>
</svg>