<svg version="1.1" xmlns="http://www.w3.org/2000/svg" style="display: block;" viewBox="0 0 2048 2048" width="1024" height="1024">
<defs>
	<linearGradient id="Gradient1" gradientUnits="userSpaceOnUse" x1="1760.57" y1="524.841" x2="1748.84" y2="659.228">
		<stop class="stop0" offset="0" stop-opacity="1" stop-color="rgb(53,80,131)"/>
		<stop class="stop1" offset="1" stop-opacity="1" stop-color="rgb(83,108,146)"/>
	</linearGradient>
</defs>
<path transform="translate(0,0)" fill="rgb(88,211,181)" d="M 0 0 L 2048 0 L 2048 2048 L 0 2048 L 0 1023.36 L 0 951.968 L 0 0 z"/>
<path transform="translate(0,0)" fill="rgb(254,254,254)" d="M 195.906 1013.57 C 198.391 1013.63 200.898 1013.75 203.021 1015.25 C 205.034 1016.67 206.092 1018.46 206.201 1020.93 C 206.338 1024 204.053 1026.18 202.147 1028.27 C 199.924 1028.08 197.221 1027.55 195.287 1026.35 C 192.837 1024.83 192.419 1023.24 191.71 1020.6 C 192.324 1017.15 193.403 1015.96 195.906 1013.57 z"/>
<path transform="translate(0,0)" fill="rgb(110,140,151)" d="M 2008.73 630.449 C 2015.44 630.193 2023.37 629.349 2029.96 630.846 C 2032.49 631.421 2032.55 631.944 2033.92 634.017 C 2034.02 636.754 2034 637.192 2032.69 639.581 L 2030.25 640.116 C 2022.33 640.105 2013.82 641.512 2006.23 638.912 C 2004.33 636.87 2004.4 636.88 2004.25 634.078 C 2005.65 631.537 2006.02 631.618 2008.73 630.449 z"/>
<path transform="translate(0,0)" fill="rgb(110,140,151)" d="M 666.784 530.5 C 669.917 530.379 673.839 529.877 676.905 530.615 C 679.398 531.215 681.173 532.308 682.613 534.44 L 681.935 536.301 C 675.876 541.204 670.69 540.426 663.25 540.286 C 659.537 540.389 655.426 540.762 651.792 539.993 C 648.76 539.351 646.505 538.294 644.824 535.758 C 645.095 535.334 645.289 534.851 645.637 534.487 C 650.465 529.434 660.486 530.471 666.784 530.5 z"/>
<path transform="translate(0,0)" fill="rgb(110,140,151)" d="M 1383.52 323.099 C 1390.06 322.949 1396.58 322.429 1403.12 322.253 C 1408.24 322.116 1413.84 321.75 1417.72 325.466 C 1418.16 328.42 1417.58 329.532 1416.36 332.128 C 1408.02 332.526 1389.96 335.377 1383.36 330.162 C 1382.25 327.085 1382.77 326.209 1383.52 323.099 z"/>
<path transform="translate(0,0)" fill="rgb(110,140,151)" d="M 1855.15 602.719 C 1872.43 602.31 1971.36 599.84 1980.35 602.921 C 1981.37 604.085 1982.21 604.412 1982.09 606.063 C 1981.95 607.994 1981.17 608.957 1980.12 610.506 C 1974.09 614.219 1877.68 611.105 1860.88 612.248 C 1858.36 609.593 1856.82 605.956 1855.15 602.719 z"/>
<path transform="translate(0,0)" fill="rgb(254,254,254)" d="M 0 951.968 C 10.3288 957.45 16.5812 964.562 22.9648 974.081 C 38.2861 969.949 52.0821 969.286 66.3157 977.73 C 80.0683 985.889 89.4483 999.21 95.068 1013.92 C 107.312 1013.89 147.871 1011.34 156.368 1016.64 L 157.199 1018.5 C 155.763 1020.96 154.235 1021.82 151.462 1022.53 C 142.705 1024.77 120.434 1023.09 110.513 1023.13 L 0 1023.36 L 0 951.968 z"/>
<path transform="translate(0,0)" fill="rgb(110,140,151)" d="M 390.702 435.44 C 398.578 434.955 406.953 435.751 414.575 437.791 C 439.603 444.487 453.7 462.392 466.012 483.844 A 141.56 141.56 0 0 1 474.126 484.421 C 492.252 486.289 505.452 492.627 517.129 506.98 A 6975.82 6975.82 0 0 1 587.815 506.495 C 596.328 506.447 606.369 505.136 614.723 506.198 C 617.069 506.496 617.538 507.276 619.201 508.857 C 619.777 511.684 619.844 511.813 618.624 514.41 C 616.353 516.154 614.379 516.368 611.617 516.618 C 602.022 517.488 591.85 516.729 582.192 516.744 L 523.008 516.89 L 526.612 530.822 L 591.507 530.785 C 602.064 530.763 613.454 529.691 623.91 530.99 C 627.525 531.439 630.283 532.231 633.387 534.118 L 633.795 535.8 C 633.509 536.095 633.249 536.418 632.935 536.685 C 626.086 542.513 564.496 539.967 552.5 539.968 L 317.385 540.964 L 258.168 540.606 C 246.186 540.617 233.812 541.515 221.892 540.546 C 218.127 540.24 215.127 539.806 212.149 537.33 C 211.527 534.954 211.707 534.915 212.742 532.651 C 218.193 528.467 239.219 530.663 246.468 530.652 C 251.288 518.681 257.519 506.999 268.1 499.116 C 283.085 487.952 299.949 488.542 317.354 491.275 C 321.076 480.149 325.681 470.219 333.406 461.269 C 348.624 443.637 368.096 437.187 390.702 435.44 z"/>
<path transform="translate(0,0)" fill="rgb(254,254,254)" d="M 385.803 445.354 C 399.326 443.637 413.733 446.511 425.777 452.781 C 444.358 462.454 453.581 478.505 459.652 497.906 C 461.517 496.91 463.417 495.859 465.404 495.122 C 473.761 492.022 485.047 494.622 492.701 498.518 C 506.327 505.454 512.652 516.927 517.052 530.912 C 472.903 531.657 428.66 531.178 384.5 531.211 A 11993.1 11993.1 0 0 1 255.247 530.962 A 63.9157 63.9157 0 0 1 266.186 513.685 C 278.456 499.844 295.734 495.538 313.3 500.157 C 316.618 501.029 321.545 503.226 324.815 502.762 C 327.323 502.406 329.899 480.805 337.808 470.109 C 349.433 454.389 367.3 448.407 385.803 445.354 z"/>
<path transform="translate(0,0)" fill="rgb(67,81,130)" d="M 359.781 464.681 C 362.407 464.766 363.06 464.219 365.066 466.066 C 364.566 468.406 350.622 481.91 347.105 487.231 C 345.064 488.214 344.868 488.361 342.65 488.025 L 342.366 486.245 C 345.18 476.504 351.248 469.944 359.781 464.681 z"/>
<path transform="translate(0,0)" fill="rgb(67,81,130)" d="M 424.987 478.696 C 425.46 478.701 425.934 478.668 426.405 478.713 C 431.649 479.216 437.331 483.875 440.607 487.764 C 445.588 493.676 447.489 499.137 447.002 506.755 C 445.192 506.978 444.355 506.806 442.682 506.091 A 63.2559 63.2559 0 0 0 432.508 489.113 C 431.018 487.337 426.691 484.144 425.882 482.331 C 425.373 481.192 425.286 479.908 424.987 478.696 z"/>
<path transform="translate(0,0)" fill="rgb(110,140,151)" d="M 1111.73 219.353 C 1122.77 218.233 1133.58 218.763 1144.21 222.092 C 1167.59 229.418 1183.67 246.86 1194.88 267.981 C 1200.34 267.817 1205.83 267.809 1211.23 268.724 C 1229.38 271.799 1241.33 281.752 1251.76 296.175 A 5785.76 5785.76 0 0 0 1319.79 296.098 C 1332.04 296.003 1345.08 295.01 1357.26 296.021 C 1360.03 296.25 1362.12 296.446 1364.5 298.021 C 1365.82 300.52 1365.87 300.68 1365.5 303.484 C 1364.81 304.155 1364.29 305.078 1363.42 305.496 C 1358.73 307.751 1269.34 305.945 1256.15 305.912 C 1257.16 311.327 1257.73 316.708 1258.26 322.185 L 1327.75 322.189 C 1338.37 322.178 1349.31 321.453 1359.89 322.025 C 1363.27 322.207 1365.19 323.1 1367.51 325.622 C 1367.98 328.382 1368 328.243 1366.48 330.595 C 1359.49 334.787 1311.4 332.404 1300.25 332.309 L 1028.64 332.198 L 966 332.02 C 956.695 332.035 946.057 333.487 936.945 331.874 C 933.263 331.223 930.326 330.205 928.168 326.963 L 929.07 324.834 C 937.542 319.84 959.083 322.249 969.259 322.243 C 972.08 311.41 977.124 301.527 985.25 293.671 C 1001.34 278.116 1020.02 276.513 1041.27 277.015 A 67.5353 67.5353 0 0 1 1053.76 250.831 C 1068.49 231.596 1088.21 222.602 1111.73 219.353 z"/>
<path transform="translate(0,0)" fill="rgb(254,254,254)" d="M 1113.57 228.381 C 1122.69 227.9 1131.81 228.805 1140.56 231.495 C 1157.6 236.731 1177.27 250.879 1183.66 268.178 C 1185.95 274.375 1186.14 281.089 1189.24 286.998 C 1190.83 288.144 1191.24 289.058 1193.26 288.811 C 1195.76 286.544 1195.37 281.437 1195.55 278.292 L 1197.68 276.453 C 1206.43 274.435 1218.94 279.982 1226.31 284.745 C 1240.45 293.875 1246.15 306.257 1249.27 322.099 L 1123.5 322.019 C 1075.31 322.313 1026.95 323.225 978.77 322.245 C 983.35 310.15 990.402 300.382 1001.58 293.551 C 1016.7 284.308 1030.34 285.42 1046.74 289.129 C 1050.81 285.603 1051.86 274.307 1054.21 268.948 A 63.0184 63.0184 0 0 1 1062.24 255.707 C 1074.95 239.493 1093.38 230.732 1113.57 228.381 z"/>
<path transform="translate(0,0)" fill="rgb(110,140,151)" d="M 1157.67 266.717 C 1158.73 266.714 1158.99 266.69 1160.16 266.815 C 1164.35 267.268 1168.45 269.92 1171.03 273.228 C 1175.12 278.476 1175.43 283.479 1174.5 289.788 C 1173.41 289.561 1171.96 289.387 1171.07 288.65 C 1169.35 287.224 1163.19 275.154 1158.97 270.886 C 1157.53 269.43 1157.88 268.696 1157.67 266.717 z"/>
<path transform="translate(0,0)" fill="rgb(110,140,151)" d="M 1086.08 249.691 C 1086.54 249.762 1087.02 249.761 1087.47 249.905 C 1089.79 250.659 1090.05 251.411 1090.89 253.474 C 1087.77 259.056 1078.26 263.548 1073.27 271.321 L 1072.51 272.525 C 1071.95 273.14 1071.02 273.442 1070.28 273.809 L 1068.65 272.406 C 1068.42 271.406 1068.19 270.675 1068.28 269.598 C 1069.02 261.36 1079.76 253.914 1086.08 249.691 z"/>
<path transform="translate(0,0)" fill="url(#Gradient1)" d="M 1635.26 581.549 C 1641.28 561.084 1652.3 543.919 1670.85 532.713 C 1690.25 520.993 1715.67 517.1 1737.68 522.645 C 1766.6 529.934 1784.48 550.532 1799.23 575.163 C 1805.07 575.138 1810.74 575.295 1816.49 576.399 C 1833.14 579.595 1845.65 588.816 1855.15 602.719 C 1856.82 605.956 1858.36 609.593 1860.88 612.248 C 1863.48 618.207 1864.99 624.131 1866.43 630.452 C 1883.36 630.432 1978.02 628.005 1986.46 632.519 C 1988.51 633.618 1988.51 633.533 1989.18 635.871 C 1988.6 636.63 1988.33 637.103 1987.45 637.659 C 1984.44 639.557 1979.68 639.996 1976.21 640.078 C 1948.54 640.735 1920.61 639.882 1892.9 640.071 A 19826.3 19826.3 0 0 1 1646.46 640.897 L 1553.09 640.834 C 1542.21 640.822 1529.04 642.68 1518.41 640.755 C 1515.47 640.222 1514.64 639.733 1512.93 637.325 C 1512.8 635.882 1513.3 635.048 1513.82 633.725 C 1520.93 627.114 1545.02 630.258 1554.79 630.316 C 1560.88 614.218 1570.06 599.753 1584.74 590.217 C 1600.26 580.131 1617.32 577.763 1635.26 581.549 z"/>
<path transform="translate(0,0)" fill="rgb(254,254,254)" d="M 1711.31 529.378 A 71.5008 71.5008 0 0 1 1742.02 533.887 C 1766.71 543.427 1783.82 564.104 1794.4 587.662 C 1807.32 585.852 1818.34 584.327 1830.34 591.236 C 1844.78 599.549 1852.6 614.66 1856.61 630.197 L 1689.5 629.787 L 1563.95 629.886 C 1568.34 621.388 1573.51 613.509 1580.18 606.613 C 1593.69 592.643 1616.55 582.377 1635.68 590.72 C 1641.3 593.171 1645.66 600.547 1652.03 600.406 C 1653.37 598.427 1652.99 597.823 1652.98 595.511 C 1650.07 589.934 1647.69 588.114 1642.26 585.001 C 1645.52 575.129 1649.58 566.546 1656.09 558.371 C 1670.09 540.786 1689.32 531.952 1711.31 529.378 z"/>
<path transform="translate(0,0)" fill="rgb(67,81,130)" d="M 1762.33 575.859 C 1766.41 576.558 1770.14 577.165 1773.6 579.567 C 1777.87 582.528 1781.99 586.148 1782.49 591.637 C 1782.79 594.823 1781.46 595.911 1779.33 597.955 C 1775.42 594.707 1776.62 589.807 1773.27 586.652 C 1769.57 583.167 1763.19 584.262 1759.18 581.126 C 1759.37 578.312 1760.43 577.862 1762.33 575.859 z"/>
<path transform="translate(0,0)" fill="rgb(30,45,84)" d="M 1687.91 546.971 C 1688.69 548.047 1688.77 549.203 1689.05 550.485 C 1687.64 554.032 1681.71 556.61 1678.49 558.827 C 1671.1 563.911 1670.45 573.919 1662.61 577.742 L 1661.1 575.467 C 1661.12 573.572 1661.11 571.75 1661.7 569.927 C 1665.26 559.022 1678.17 551.532 1687.91 546.971 z"/>
<path transform="translate(0,0)" fill="rgb(30,45,84)" d="M 1187.81 538.229 C 1193.34 537.497 1198.2 537.117 1203.31 539.775 C 1219.43 548.151 1227.27 572.211 1232.13 588.496 C 1242.15 622.041 1242.51 658.116 1246.42 692.75 C 1253.97 759.56 1273.34 810.068 1244.82 877.283 C 1240.05 888.514 1233.63 899.02 1227.81 909.732 C 1228.58 916.887 1228.92 923.865 1228.93 931.061 C 1266.43 962.844 1286.14 1010.05 1298.91 1056.51 C 1313.67 1110.23 1317.05 1171.16 1296.7 1223.86 C 1291.75 1236.69 1284.76 1248.46 1277.97 1260.37 C 1298.24 1289.84 1312.82 1300.59 1325.45 1337.42 C 1342.8 1388.04 1331.26 1435.49 1308.58 1482.05 C 1324.6 1484.69 1358.05 1488.99 1370.75 1497.39 C 1385.37 1507.05 1397.89 1520.39 1411.36 1531.61 C 1424.23 1542.34 1438.41 1552.04 1450.46 1563.68 C 1453.33 1566.45 1457.76 1570.34 1458.37 1574.37 C 1458.43 1574.78 1458.46 1575.19 1458.51 1575.6 C 1462.47 1605.65 1451.57 1634.06 1441.71 1661.89 L 1526.57 1661.77 C 1538.31 1661.72 1551.79 1659.71 1563.27 1662.07 C 1566.12 1662.66 1567.77 1663.43 1569.38 1665.86 C 1569.07 1668.13 1568.37 1668.63 1567.04 1670.43 C 1565.39 1671.41 1564.39 1671.8 1562.42 1671.91 C 1537.25 1673.33 1511.22 1671.99 1485.94 1672.05 L 1316.09 1672.29 L 787.25 1672.49 L 621.314 1672.54 C 608.752 1672.49 596.163 1672.25 583.605 1672.47 C 576.651 1672.59 569.436 1673.63 562.525 1672.78 C 559.318 1672.39 557.66 1671.7 555.628 1669.21 C 555.583 1666.36 556.531 1665.38 558.143 1663.17 C 564.462 1660.2 640.49 1662.19 653.988 1662.22 C 641.349 1636.33 635.436 1606.61 635.926 1577.89 C 675.921 1532.25 725.561 1492.16 781.514 1468.01 C 764.491 1430.94 753.897 1377.39 764.278 1337.24 C 773.139 1302.96 798.453 1269.57 828.941 1251.73 C 824.289 1222.86 825.935 1192.63 826.022 1163.47 C 807.399 1169.21 786.568 1170.75 767.95 1164.11 C 751.48 1158.24 738.224 1146.78 730.715 1130.92 C 727.402 1123.92 725.699 1116.74 724.734 1109.09 C 722.076 1088.04 721.503 1066.67 720.561 1045.48 A 5550.73 5550.73 0 0 1 716.877 926.534 L 713.841 821.436 C 713.433 803.212 712.496 784.87 713.322 766.65 C 713.869 754.607 715.391 741.538 719.577 730.163 C 724.547 716.656 733.526 704.269 746.996 698.293 C 757.486 693.639 766.398 694.546 776.787 698.365 C 784.188 694.75 791.347 691.532 799.574 690.32 C 813.767 688.229 826.65 693.067 837.813 701.451 C 837.866 688.629 839.285 675.582 841.068 662.888 C 844.952 635.236 857.777 559.58 880.542 543.729 C 886.494 539.585 894.398 538.467 901.437 539.66 C 934.336 545.233 974.056 594.548 992.629 621.618 C 1025.32 622.892 1058.61 621.312 1091.35 621.228 C 1113.81 587.617 1148.1 550.038 1187.81 538.229 z"/>
<path transform="translate(0,0)" fill="rgb(156,125,86)" d="M 1041.87 1279.18 C 1044.95 1281.6 1048 1283.62 1049.75 1287.25 C 1049.7 1290.3 1049.42 1290.98 1047.17 1293.09 C 1044.33 1295.75 1040.27 1297.54 1038.97 1301.4 L 1040.49 1306.99 C 1036.13 1305.32 1029.52 1303.62 1026.81 1299.63 C 1025.69 1297.97 1026.51 1296.79 1026.89 1294.95 C 1031.18 1294.11 1033.76 1293.45 1036.25 1289.68 C 1038.4 1286.42 1040.09 1282.66 1041.87 1279.18 z"/>
<path transform="translate(0,0)" fill="rgb(144,144,79)" d="M 1026.69 1403.35 C 1030.04 1403.13 1032.27 1403.56 1034.75 1400.99 C 1037.84 1397.76 1039.5 1394.09 1043.42 1391.62 C 1045.53 1391.73 1047.12 1392.13 1048.63 1393.76 C 1053.23 1398.75 1048.93 1405.72 1054.34 1410.96 L 1051.96 1412.27 C 1049.61 1413.71 1047.48 1414.76 1044.92 1415.76 C 1041.63 1415.77 1040.22 1414.59 1037.72 1412.73 C 1035.45 1411.83 1033.12 1410.96 1030.94 1409.84 C 1028.19 1408.41 1027.56 1406.11 1026.69 1403.35 z"/>
<path transform="translate(0,0)" fill="rgb(30,45,84)" d="M 1037.72 1412.73 C 1038.46 1409.55 1038.25 1407.93 1040.86 1405.85 C 1044.51 1405.59 1046.39 1406.62 1049.14 1408.97 C 1050.33 1409.98 1051.2 1410.89 1051.96 1412.27 C 1049.61 1413.71 1047.48 1414.76 1044.92 1415.76 C 1041.63 1415.77 1040.22 1414.59 1037.72 1412.73 z"/>
<path transform="translate(0,0)" fill="rgb(253,226,115)" d="M 1035.7 1016.23 C 1046.19 1015.3 1056.03 1015.72 1065.45 1021.09 A 38.2928 38.2928 0 0 1 1083.84 1045.61 C 1086.79 1058.22 1083.41 1068.9 1076.98 1079.64 C 1068.97 1068.61 1062.65 1063.06 1049.24 1060.15 C 1043.98 1059.81 1038.79 1059.73 1033.65 1061.1 C 1022.11 1064.18 1015.59 1072.06 1009.92 1081.98 C 1007.57 1077.88 1005.28 1073.51 1003.91 1068.97 C 1000.65 1058.13 1001.27 1045.97 1006.86 1035.98 C 1013.25 1024.55 1023.75 1019.81 1035.7 1016.23 z"/>
<path transform="translate(0,0)" fill="rgb(242,150,88)" d="M 1217.72 921.895 C 1217.86 922.052 1218.04 922.185 1218.16 922.367 C 1219.26 924.11 1219.19 926.496 1218.99 928.468 C 1217.39 944.396 1199.85 964.411 1188.1 974.317 C 1162.12 996.214 1109.29 1012.09 1075.25 1010.76 C 1064.07 1010.33 1053.74 1004.78 1042.31 1004.72 C 1032.15 1004.66 1022.99 1008.94 1013.08 1010.26 C 1007.18 1011.04 1000.68 1010.47 994.772 1009.94 C 952.096 1006.1 907.636 993.325 879.167 959.422 C 876.465 955.528 874.367 951.278 872.157 947.092 C 872.461 943.158 873.229 939.214 873.835 935.315 C 921.365 981.466 977.369 989.053 1040.91 990.011 C 1091.62 990.775 1143.42 982.35 1184.93 951.445 C 1196.78 942.624 1207.16 932.174 1217.72 921.895 z"/>
<path transform="translate(0,0)" fill="rgb(254,254,254)" d="M 904.385 1474.5 C 924.547 1473.99 943.82 1472.64 960.218 1486.69 C 970.002 1495.08 978.072 1508.75 978.696 1521.9 C 979.125 1530.94 975.873 1539 969.725 1545.56 C 967.483 1547.95 965.402 1549.86 962 1550.03 C 952.504 1543.58 959.168 1524.08 953.322 1514.13 C 950.899 1512.64 950.885 1512.71 948.057 1513.09 C 941.246 1519.69 950.023 1537.13 944.952 1545 C 942.951 1548.1 940.602 1549.52 937.132 1550.47 C 925.674 1547.9 935.291 1522.69 928.702 1514.25 C 927.607 1512.85 926.719 1513.14 925.087 1512.89 C 913.536 1518.27 924.465 1535.54 918.773 1544.83 C 917.029 1547.67 915.062 1547.93 912.142 1549.04 C 909.509 1548.87 906.742 1548.87 904.155 1548.35 C 890.48 1545.55 904.741 1522.99 896.929 1514.86 C 894.985 1512.84 893.845 1513.09 891.348 1513.32 C 883.674 1519.99 888.774 1536.2 886.493 1545.85 C 885.275 1547.27 884.345 1548.4 882.51 1549.07 C 880.547 1549.79 877.761 1549.7 876.014 1548.46 C 868.556 1543.16 873.898 1525.33 871.796 1517.25 C 871.114 1514.62 870.217 1513.95 867.963 1512.64 C 865.253 1512.79 864.58 1512.8 862.309 1514.23 C 858.65 1523.35 862.929 1535.28 860.689 1545.11 C 858.622 1547.56 855.862 1548.6 852.721 1548.97 C 849.452 1549.36 846.762 1548.68 844.157 1546.59 C 838.877 1542.34 837.018 1531.53 836.843 1525.23 C 836.496 1512.77 842.286 1496.54 851.21 1487.76 C 866.476 1472.72 884.724 1474.52 904.385 1474.5 z"/>
<path transform="translate(0,0)" fill="rgb(254,254,254)" d="M 1159.54 1472.31 C 1173.56 1470.95 1206.21 1469.96 1218.96 1473.91 C 1224.02 1475.47 1229.85 1479.3 1234.08 1482.47 C 1245.82 1491.25 1253.05 1506.03 1254.75 1520.49 C 1255.61 1527.83 1255.26 1536.81 1250.19 1542.71 C 1247.87 1545.42 1242.41 1549.04 1238.63 1548.71 C 1226.51 1547.65 1237.12 1520.05 1230.41 1512.69 C 1228.37 1512.14 1227.06 1511.76 1225 1512.82 C 1219.04 1515.9 1224.19 1539.31 1221.28 1545.91 C 1220.34 1548.06 1217.37 1550.11 1215.08 1550.64 C 1212.69 1551.21 1212.13 1550.85 1210.18 1549.69 C 1204.45 1540.17 1209.23 1528.14 1206.17 1517.99 C 1205.39 1515.42 1204.56 1514.61 1202.28 1513.35 C 1199.59 1513.76 1199.19 1513.7 1197.21 1515.53 C 1195.24 1520.46 1196.03 1526.35 1196.15 1531.58 C 1196.25 1534.63 1196.68 1538.38 1196.18 1541.37 C 1195.65 1544.62 1193.64 1548.04 1190.67 1549.66 C 1188.68 1550.74 1186.62 1550.73 1184.61 1549.71 C 1174.45 1544.51 1182.1 1524.62 1178 1516.3 C 1176.73 1513.72 1175.83 1513.44 1173.32 1512.56 C 1162.76 1517.55 1171.9 1541.42 1164.82 1550.48 C 1163.81 1551.77 1163.89 1551.36 1162.03 1551.65 C 1144.92 1545.8 1157.86 1526.14 1150.95 1515.78 C 1149.69 1513.88 1148.07 1513.24 1145.97 1512.72 C 1137.91 1516.62 1143.52 1540.21 1140.21 1548.66 C 1139.22 1549.02 1138.24 1549.4 1137.22 1549.68 C 1134.16 1550.54 1130.94 1550.09 1128.27 1548.35 C 1121.98 1544.27 1118.85 1534.79 1117.54 1527.82 C 1115.09 1514.67 1118.65 1500.67 1126.61 1489.99 C 1134.85 1478.92 1146.3 1474.25 1159.54 1472.31 z"/>
<path transform="translate(0,0)" fill="rgb(253,226,115)" d="M 1274.81 1018.27 C 1283.4 1041.7 1290.06 1065.03 1295.09 1089.47 C 1280.46 1101.63 1271.11 1114.12 1269.33 1133.54 C 1267.96 1148.37 1271.65 1163.35 1281.39 1174.87 C 1285.41 1179.63 1290.45 1183.44 1295.53 1186.98 C 1292.11 1208.39 1283.81 1227.57 1273.9 1246.75 C 1269.38 1236.4 1262.03 1227.92 1255.61 1218.72 C 1240.57 1197.16 1232.97 1169.62 1231.9 1143.49 C 1230.34 1105.58 1248.85 1046.71 1274.81 1018.27 z"/>
<path transform="translate(0,0)" fill="rgb(253,226,115)" d="M 866.261 959.412 C 870.335 962.725 873.738 968.652 877.272 972.709 C 908.045 1008.03 961.576 1017.52 1005.98 1020.6 C 1002.89 1024.32 999.959 1028.34 997.739 1032.65 A 51.2226 51.2226 0 0 0 994.445 1072.82 C 999.573 1088.27 1010.55 1097.03 1024.38 1104.18 A 782.976 782.976 0 0 1 1031.74 1107.25 L 1031.32 1107.6 C 1006.8 1108.59 981.319 1103.41 957.972 1096.04 C 923.508 1085.16 889.688 1062.65 872.784 1029.91 C 861.21 1007.49 858.761 983.428 866.261 959.412 z"/>
<path transform="translate(0,0)" fill="rgb(253,226,115)" d="M 1219.52 954.779 C 1219.6 961.927 1217.32 973.629 1220.21 980.084 C 1221.05 983.991 1221.55 988.143 1221.53 992.149 C 1221.45 1018.99 1207.99 1048.66 1189.03 1067.41 C 1152.5 1103.51 1098.7 1108.85 1049.97 1108.83 C 1059.65 1105.57 1068.65 1102.05 1076.62 1095.47 C 1087.36 1086.6 1094.41 1074.38 1095.48 1060.36 C 1096.65 1045.07 1090.88 1031.65 1081.22 1020.15 A 260.252 260.252 0 0 0 1097.83 1018.72 C 1149.91 1012.47 1186.8 996.419 1219.52 954.779 z"/>
<path transform="translate(0,0)" fill="rgb(254,254,254)" d="M 1271.28 1270.42 C 1292.78 1291.22 1307.94 1318.56 1317.2 1346.72 C 1317.87 1349.38 1318.9 1350.86 1317.58 1353.37 C 1301.87 1358.13 1293.44 1360.91 1285.17 1376.58 A 50.9141 50.9141 0 0 0 1282.04 1416.07 C 1287.19 1431.15 1298.55 1440.1 1312.39 1446.72 A 391.696 391.696 0 0 1 1301.87 1470.75 C 1292.33 1489.16 1281.57 1505.19 1266.6 1519.63 C 1261.18 1503.01 1256.1 1487.99 1242.38 1476.27 C 1223.41 1460.05 1201.23 1460.82 1177.74 1461.42 C 1167.31 1461.68 1156.87 1461.84 1146.48 1462.73 C 1160.65 1441.3 1169.78 1418.4 1179.11 1394.66 C 1186.65 1390.22 1195.23 1385.86 1201.41 1379.6 C 1214.9 1365.91 1224.88 1344.91 1235.01 1328.53 C 1247.02 1309.1 1259.72 1290.12 1271.28 1270.42 z"/>
<path transform="translate(0,0)" fill="rgb(253,226,115)" d="M 1301.87 1470.75 C 1292.25 1467.03 1284.17 1462.31 1277.16 1454.68 C 1265.81 1442.34 1260.35 1426.33 1261.07 1409.65 C 1261.9 1390.34 1269.21 1369.92 1284.05 1356.97 C 1293.91 1348.36 1304.51 1346.02 1317.2 1346.72 C 1317.87 1349.38 1318.9 1350.86 1317.58 1353.37 C 1301.87 1358.13 1293.44 1360.91 1285.17 1376.58 A 50.9141 50.9141 0 0 0 1282.04 1416.07 C 1287.19 1431.15 1298.55 1440.1 1312.39 1446.72 A 391.696 391.696 0 0 1 1301.87 1470.75 z"/>
<path transform="translate(0,0)" fill="rgb(254,254,254)" d="M 773.251 1346.9 C 783.255 1310.4 800.59 1284.07 831.333 1261.76 C 847.695 1303.5 868.571 1341.88 909.035 1364.93 C 913.615 1401.43 921.559 1436.48 943.861 1466.51 C 925.182 1462.9 887.065 1461.6 868.766 1466.21 C 862.353 1467.82 856.626 1470.51 851.186 1474.26 C 836.727 1484.23 830.325 1498.45 826.01 1514.85 C 812.154 1498.79 799.394 1481.31 790.726 1461.83 L 780.465 1437.77 C 786.352 1435.48 791.857 1432.8 796.408 1428.32 C 804.487 1420.36 807.999 1409.83 808.058 1398.63 C 808.155 1380.35 800.986 1365.77 784.946 1356.38 C 780.982 1354.06 775.993 1352.86 772.704 1349.63 L 773.251 1346.9 z"/>
<path transform="translate(0,0)" fill="rgb(253,226,115)" d="M 773.251 1346.9 C 777.128 1347.58 781.151 1345.3 784.851 1343.99 C 803.694 1350.17 817.115 1359.47 826.126 1377.48 C 833.378 1391.98 834.883 1407.52 829.516 1422.99 C 823.207 1441.17 809.26 1453.72 791.915 1461.36 C 791.526 1461.54 791.122 1461.67 790.726 1461.83 L 780.465 1437.77 C 786.352 1435.48 791.857 1432.8 796.408 1428.32 C 804.487 1420.36 807.999 1409.83 808.058 1398.63 C 808.155 1380.35 800.986 1365.77 784.946 1356.38 C 780.982 1354.06 775.993 1352.86 772.704 1349.63 L 773.251 1346.9 z"/>
<path transform="translate(0,0)" fill="rgb(253,226,115)" d="M 1167.96 1392.66 C 1153.33 1432.31 1130.93 1480 1093.28 1502.59 C 1069.21 1517.03 1041.31 1520.79 1014.2 1513.78 C 1006.32 1511.74 998.556 1508.8 991.837 1504.14 C 976.052 1493.19 953.641 1463.48 943.907 1446.58 C 915.768 1397.76 912.009 1328.18 926.606 1274.56 C 936.504 1238.21 958.192 1204.72 991.501 1186.04 C 1016.21 1172.17 1044.32 1167.65 1071.8 1175.66 C 1100.87 1184.13 1121.46 1204.1 1135.81 1230.09 C 1128.6 1248.56 1118.7 1266.52 1109.17 1283.89 C 1093.26 1284.7 1077.62 1285.95 1061.74 1283.84 C 1060.07 1280.84 1058.31 1278.09 1056.06 1275.48 C 1052.72 1271.61 1048.52 1267.8 1043.05 1267.96 C 1033.82 1268.23 1026.64 1279.23 1021.05 1285.61 C 1006.93 1286.22 992.481 1284.62 978.404 1283.64 C 973.407 1277.26 968.64 1271.26 960.313 1269.16 C 956.814 1268.28 953.568 1268.61 950.51 1270.67 C 946.717 1273.22 944.456 1278.46 943.869 1282.83 C 943.112 1288.47 944.972 1294.34 948.683 1298.64 C 951.205 1301.55 954.652 1303.4 958.555 1303.39 C 965.965 1303.38 971.461 1299.03 976.47 1294.13 C 992.908 1295.99 1010.46 1296.96 1026.89 1294.95 C 1026.51 1296.79 1025.69 1297.97 1026.81 1299.63 C 1029.52 1303.62 1036.13 1305.32 1040.49 1306.99 C 1044.31 1307.41 1046.8 1305.39 1049.77 1303.03 A 89.5011 89.5011 0 0 0 1058.84 1294.85 C 1073.47 1295.39 1087.78 1295.58 1102.41 1294.79 C 1095.02 1309.41 1090.44 1321.91 1089.88 1338.42 C 1078.43 1339.21 1065.64 1342.01 1056.33 1333.52 C 1052.64 1330.15 1049.33 1325.83 1045.89 1322.13 C 1036.09 1333.41 1027.43 1339.08 1012.1 1340.18 A 140.596 140.596 0 0 1 976.068 1337.96 C 971.634 1331.99 967.84 1326.49 959.95 1325.14 C 956.06 1324.47 952.255 1325.56 949.158 1327.97 A 17.9037 17.9037 0 0 0 942.507 1339.76 C 941.956 1344.25 943.157 1348.97 946.01 1352.51 C 949.291 1356.58 954.344 1358.65 959.48 1358.99 C 963.617 1359.27 967.353 1358.09 970.513 1355.38 C 972.166 1353.95 973.248 1352.06 974.382 1350.23 C 974.522 1350.01 974.667 1349.79 974.81 1349.56 C 993.487 1351.45 1011.8 1351.44 1030.5 1349.8 C 1034.21 1353.37 1037.84 1357.55 1042.47 1359.86 L 1043.99 1359.51 L 1044.02 1357.69 C 1042.06 1355.74 1036.19 1352.66 1035.83 1350.63 C 1041.28 1349.54 1046.89 1349.96 1052.42 1350.07 C 1052.58 1352.34 1052.37 1354.83 1053.57 1356.8 C 1057.01 1355.33 1057.38 1351.08 1059.59 1350.12 C 1063.93 1348.25 1085.58 1349.03 1091.57 1348.92 C 1093.04 1356.73 1091.76 1370.3 1098.83 1375.22 C 1102.25 1377.6 1104.64 1377.23 1108.55 1376.79 C 1112.46 1380.81 1116.09 1384.72 1121.02 1387.53 C 1100.98 1395.5 1082.12 1398.1 1060.72 1394.38 C 1057.55 1388.94 1053.56 1381.22 1046.87 1379.72 C 1038.49 1377.84 1026.87 1390.89 1018.37 1393.61 C 1006.88 1397.3 988.946 1395.44 977.362 1392.57 C 973.794 1386.56 969.828 1379.99 962.486 1378.28 C 958.282 1377.3 953.05 1378.01 949.377 1380.32 C 945.731 1382.62 943.43 1386.5 942.788 1390.73 A 19.4202 19.4202 0 0 0 946.605 1405.49 C 949.255 1408.94 952.977 1411.55 957.378 1412.03 C 962.127 1412.54 966.248 1410.93 969.794 1407.85 A 52.0602 52.0602 0 0 0 973.97 1403.81 C 991.492 1405.03 1009.26 1406.13 1026.69 1403.35 C 1027.56 1406.11 1028.19 1408.41 1030.94 1409.84 C 1033.12 1410.96 1035.45 1411.83 1037.72 1412.73 C 1040.22 1414.59 1041.63 1415.77 1044.92 1415.76 C 1047.48 1414.76 1049.61 1413.71 1051.96 1412.27 L 1054.34 1410.96 C 1072.74 1398.87 1103.43 1415.06 1132.9 1389.09 C 1135.44 1392.15 1138.31 1395.28 1141.95 1397.02 C 1150.24 1400.97 1159.98 1395.29 1167.96 1392.66 z"/>
<path transform="translate(0,0)" fill="rgb(156,125,86)" d="M 1050.52 1448.71 C 1050.95 1451.08 1051.12 1455.64 1052.97 1457.08 C 1056.15 1459.55 1063.38 1460.06 1067.45 1460.87 C 1055.95 1460.1 1058.63 1465.53 1050.88 1467.98 C 1048.38 1468.77 1044.31 1465.87 1042.13 1464.63 C 1039.41 1465.74 1036.87 1466.98 1034.29 1468.38 L 1032.44 1467.69 C 1030.4 1464.7 1029.14 1461.91 1027.95 1458.49 C 1030.43 1457.04 1032.67 1455.47 1035.58 1455.07 C 1037.9 1458.07 1039.85 1460.42 1042.98 1462.58 C 1044.22 1462.7 1045.4 1463.23 1046.4 1462.32 C 1048.48 1460.45 1049.24 1456.7 1049.5 1454.05 L 1050.52 1448.71 z"/>
<path transform="translate(0,0)" fill="rgb(30,45,84)" d="M 1062.12 1447.96 L 1063.38 1448.17 C 1075.71 1450.08 1092.27 1450.13 1102.58 1442.34 C 1107.5 1438.63 1114.06 1431.29 1120.27 1431.46 C 1121.87 1433.17 1123.19 1434.7 1123.35 1437.17 C 1123.55 1440.34 1121.48 1442.79 1119.24 1444.72 C 1104.7 1457.33 1086.04 1460.66 1067.45 1460.87 C 1063.38 1460.06 1056.15 1459.55 1052.97 1457.08 C 1051.12 1455.64 1050.95 1451.08 1050.52 1448.71 L 1043.15 1436.35 C 1045.56 1433.97 1046.12 1433.09 1049.5 1432.27 C 1053.16 1433.06 1055 1434.5 1057.1 1437.61 C 1059.3 1440.86 1060.76 1444.3 1062.12 1447.96 z"/>
<path transform="translate(0,0)" fill="rgb(30,45,84)" d="M 1027.95 1458.49 C 1011.91 1462.76 992.071 1461.08 976.915 1454.29 C 968.577 1450.55 960.435 1445.35 957.013 1436.52 C 957.374 1433.88 957.389 1433.96 959.397 1432.19 C 967.559 1430.46 975.79 1441.55 983.269 1445.11 C 1001.32 1453.72 1017.88 1448.92 1035.41 1442.68 C 1038.38 1440.85 1040.66 1438.78 1043.15 1436.35 L 1050.52 1448.71 L 1049.5 1454.05 C 1049.24 1456.7 1048.48 1460.45 1046.4 1462.32 C 1045.4 1463.23 1044.22 1462.7 1042.98 1462.58 C 1039.85 1460.42 1037.9 1458.07 1035.58 1455.07 C 1032.67 1455.47 1030.43 1457.04 1027.95 1458.49 z"/>
<path transform="translate(0,0)" fill="rgb(242,150,88)" d="M 1043.15 1436.35 L 1050.52 1448.71 L 1049.5 1454.05 C 1049.21 1454.01 1048.92 1453.98 1048.63 1453.93 C 1041.81 1452.83 1039.25 1447.83 1035.41 1442.68 C 1038.38 1440.85 1040.66 1438.78 1043.15 1436.35 z"/>
<path transform="translate(0,0)" fill="rgb(30,45,84)" d="M 1040.75 1200.43 C 1052.4 1206.45 1054.74 1226.72 1080.78 1232.71 C 1091.04 1235.07 1100.3 1229.93 1109.81 1231.91 C 1111.94 1233.75 1112.33 1234.04 1113.18 1236.69 C 1112.65 1238.39 1112.74 1239 1111.31 1240.2 C 1106.21 1244.48 1094.81 1244.03 1088.36 1243.6 C 1068.08 1242.23 1054.64 1231.61 1041.78 1216.91 C 1039.08 1218.86 1037.35 1221.73 1034.98 1224.04 C 1020.67 1237.99 1000.29 1245.04 980.462 1244.37 C 976.313 1244.23 973.612 1243.6 970.64 1240.48 C 969.67 1238.14 969.503 1237.01 969.866 1234.5 C 975.11 1229.9 991.455 1233.65 998.722 1232.48 C 1019.3 1229.17 1029.08 1215.83 1040.75 1200.43 z"/>
<path transform="translate(0,0)" fill="rgb(242,150,88)" d="M 785.235 1477.85 C 788.343 1478.59 791.704 1487.16 793.394 1490.06 C 801.93 1504.71 812.796 1516.09 824.857 1527.8 C 827.237 1537.82 830.741 1549.08 839.337 1555.55 C 848.123 1562.17 856.292 1558.46 866.051 1557.07 L 867.139 1557.56 C 867.692 1557.8 868.252 1558.03 868.804 1558.28 C 869.138 1558.43 869.465 1558.59 869.799 1558.74 C 876.43 1561.75 883.598 1561.11 890.269 1558.61 C 890.606 1558.48 890.94 1558.35 891.276 1558.22 L 891.323 1558.29 L 894.051 1556.69 C 907.19 1561.55 911.676 1560.13 925.18 1557.51 C 940.469 1567.7 941.805 1554.17 952.728 1558.67 C 955.725 1559.91 958.36 1561.19 961.683 1560.88 C 969.345 1560.17 976.16 1555.59 980.646 1549.5 C 988.335 1539.06 989.771 1527 987.593 1514.6 C 996.575 1518.96 1005.61 1523.03 1015.26 1525.67 C 1049.04 1534.94 1077.85 1523.96 1107.06 1507.36 C 1106.53 1516.54 1105.92 1526.25 1108.05 1535.27 C 1110.03 1543.65 1114.59 1552.44 1122.23 1556.93 C 1131.87 1562.6 1136.46 1558.64 1145.89 1556.72 C 1149.18 1556.05 1150.75 1557.56 1153.4 1559.24 C 1154.69 1560.05 1156.16 1561.2 1157.61 1561.67 C 1164.46 1563.91 1169.38 1557.85 1175.27 1555.52 L 1179 1558.08 C 1180.52 1559.13 1182.27 1560.61 1183.99 1561.28 C 1187.93 1562.82 1192.5 1560.92 1196.04 1559.22 C 1197.75 1558.39 1199.21 1557.62 1201.05 1557.1 C 1202.86 1556.59 1204.75 1558.4 1206.3 1559.35 C 1219.68 1567.48 1218.53 1557.09 1228.62 1556.62 C 1230.74 1557.77 1232.94 1559.06 1235.22 1559.87 C 1239.09 1561.24 1245.4 1559.97 1248.97 1558.16 C 1258.53 1553.28 1262.28 1542.57 1265.46 1533.07 C 1281.4 1521.32 1290.92 1508.61 1302.48 1492.69 C 1317.53 1492.75 1348.46 1497.78 1361.72 1504.61 C 1375.89 1511.9 1388.45 1525.88 1400.65 1536.17 C 1411.62 1545.42 1423.08 1554.05 1434.02 1563.36 C 1390.76 1566.72 1333.74 1567.7 1298.78 1596.02 C 1292.75 1600.91 1278.57 1613.16 1278.32 1621.24 C 1278.27 1622.85 1278.98 1623.14 1279.95 1624.27 C 1285.66 1625.93 1286.31 1624.64 1289.89 1620.36 C 1310.22 1596.08 1334.62 1586.96 1365.14 1581.19 C 1391.89 1575.72 1419.92 1574.8 1447.14 1573.98 C 1450.68 1603.45 1442.86 1636.48 1428.21 1662.11 L 665.787 1662.11 C 653.644 1637.77 647.945 1611.09 646.253 1584.08 C 657.016 1583.67 709.165 1580.27 715.947 1576.11 C 716.338 1574.94 716.651 1574.2 716.756 1572.91 C 716.946 1570.57 715.827 1568.83 714.353 1567.21 C 701.821 1565.13 671.401 1570.62 656.849 1571.71 C 691.211 1534.26 737.815 1497.12 785.235 1477.85 z"/>
<path transform="translate(0,0)" fill="rgb(30,45,84)" d="M 724.962 1620.38 C 727.316 1620.02 730.768 1619.5 733.103 1619.97 C 735.809 1620.52 736.942 1621.74 738.383 1623.95 C 738.377 1625.51 738.655 1626.23 737.719 1627.58 C 735.289 1631.08 731.001 1631.13 727.129 1631.73 C 723.876 1632.21 719.703 1633.21 716.434 1632.53 C 713.877 1631.99 712.512 1630.68 710.953 1628.72 C 710.902 1626.85 710.538 1626.38 711.741 1624.77 C 714.898 1620.54 720.152 1620.87 724.962 1620.38 z"/>
<path transform="translate(0,0)" fill="rgb(182,101,45)" d="M 1097.28 1588.8 C 1106.79 1587.95 1121.14 1585.4 1129.82 1589.85 C 1131.39 1592.01 1132.14 1593.31 1131.6 1596.09 C 1131.38 1597.27 1131.1 1597.87 1130.68 1598.93 C 1119.87 1602.67 1104.94 1599.42 1093.46 1599.81 L 1096.87 1598.64 C 1098.7 1595.69 1097.67 1592.08 1097.28 1588.8 z"/>
<path transform="translate(0,0)" fill="rgb(30,45,84)" d="M 1093.46 1599.81 C 1082.6 1599.88 1072.29 1600.97 1061.91 1604.35 C 1055.84 1606.32 1047.78 1612.95 1041.77 1612.38 C 1038.91 1612.11 1037.61 1611.28 1035.69 1609.25 C 1035.52 1606.66 1035.48 1606.31 1037.41 1604.29 C 1048 1593.25 1082.51 1589.28 1097.28 1588.8 C 1097.67 1592.08 1098.7 1595.69 1096.87 1598.64 L 1093.46 1599.81 z"/>
<path transform="translate(0,0)" fill="rgb(30,45,84)" d="M 723.105 1592.41 C 726.233 1592.2 729.901 1591.59 732.997 1591.88 C 735.853 1592.14 735.947 1592.43 737.584 1594.56 C 737.688 1595.87 738.318 1597.96 737.437 1599.04 C 732.587 1604.96 692.328 1606.41 683.759 1607.17 C 680.38 1607.53 675.634 1608.62 672.284 1608.04 C 669.641 1607.59 668.406 1605.86 666.988 1603.81 C 666.754 1601.13 666.632 1601.25 668.289 1599.15 C 681.005 1593.58 708.639 1593.66 723.105 1592.41 z"/>
<path transform="translate(0,0)" fill="rgb(254,254,254)" d="M 779.162 709.536 C 790.144 702.867 801.896 697.122 815.109 700.664 C 824.602 703.21 834.25 711.266 838.84 719.819 C 843.784 729.031 845.14 743.504 841.899 753.555 C 840.814 756.92 838.98 760.5 835.845 762.339 C 834.284 763.254 833.998 762.772 832.405 762.345 C 825.309 753.118 833.275 738.369 826.145 730.819 C 823.52 730.651 823.33 731.079 821.11 732.576 C 818.285 741.541 823.015 756.583 813.825 762.063 C 811.246 762.026 810.184 761.939 808.1 760.374 C 802.317 750.361 812.999 729.318 803.521 722.543 C 801.785 722.537 801.939 722.148 800.898 723.34 C 795.037 730.05 797.534 748.306 795.601 757.062 C 792.138 758.794 789.29 760.584 785.333 760.4 C 782.83 759.214 781.68 758.672 780.606 756.007 C 777.248 747.671 782.675 735.729 776.061 728.933 C 773.934 729.407 774.484 728.87 773.38 730.46 C 766.603 740.22 768.464 767.474 754.776 771.58 C 752.373 770.702 751.979 770.351 750.993 767.754 C 747.727 759.157 755.836 743.584 751.418 736.163 L 749.289 735.259 C 746.027 736.832 744.508 739.222 743.296 742.609 C 740.182 751.311 739.759 763.524 743.777 771.925 C 745.499 775.526 748.771 779.404 752.868 780.306 C 756.691 781.148 759.877 780.32 763.015 778.045 C 768.59 774.004 770.738 767.104 773.281 760.994 C 776.326 764.806 779.774 769.033 785.09 769.32 C 790.212 769.596 795.481 766.878 800.53 767.094 C 805.363 767.302 808.732 772.039 814.001 771.473 C 818.322 771.01 821.423 766.429 825.441 766.884 C 829.008 775.059 826.206 790.279 825.624 799.274 C 815.458 788.647 804.686 781.962 789.449 781.804 C 776.768 781.673 763.633 786.023 754.598 795.154 C 748.634 801.181 744.581 809.272 744.82 817.883 C 745.019 825.057 748.129 831.447 753.581 836.108 C 764.104 845.104 781.26 847.27 794.659 845.745 C 807.224 844.315 817.969 839.163 828.16 831.864 C 834.691 871.001 844.798 898.951 868.564 931.048 C 853.361 954.788 847.608 980.375 853.852 1008.2 C 861.387 1041.77 882.85 1067.02 911.533 1085.12 C 932.466 1098.33 954.637 1107.21 978.751 1112.75 C 1019.85 1122.2 1082.06 1121.93 1123.3 1112.52 C 1157.73 1104.65 1192.71 1087.14 1211.83 1056.24 C 1221.28 1040.96 1235 1005.73 1230.95 988.022 C 1230.28 985.111 1229.01 983.291 1227.18 980.979 C 1224.57 979.56 1223.07 979.844 1220.21 980.084 C 1217.32 973.629 1219.6 961.927 1219.52 954.779 L 1226.96 941.721 C 1249.06 961.652 1264.58 990.547 1274.81 1018.27 C 1248.85 1046.71 1230.34 1105.58 1231.9 1143.49 C 1232.97 1169.62 1240.57 1197.16 1255.61 1218.72 C 1262.03 1227.92 1269.38 1236.4 1273.9 1246.75 C 1265.3 1263.53 1252.92 1279.29 1242.85 1295.3 C 1230.83 1314.42 1208.16 1356.3 1194.71 1370.74 C 1188.73 1377.16 1181.02 1380.64 1173 1383.72 C 1176.66 1377.59 1182.51 1369.29 1183.61 1362.21 C 1184.03 1359.51 1183.61 1358.53 1182.08 1356.35 C 1180.08 1355.67 1177.69 1355.13 1175.65 1356.11 C 1169.45 1359.09 1165.35 1383.93 1151.32 1388.51 C 1148.36 1388.08 1147.84 1387.78 1145.45 1385.96 C 1143.46 1380.01 1153.18 1365.49 1155.57 1359.38 C 1156.77 1356.31 1158.26 1351.94 1156.16 1348.94 C 1154.73 1346.9 1153.59 1346.5 1151.34 1346.14 C 1144.65 1349.52 1143.15 1360.88 1139.64 1367.18 C 1137.43 1371.16 1133.74 1377.18 1128.88 1378.09 C 1125.34 1378.75 1122.73 1377.68 1120.1 1375.53 C 1117.16 1365.47 1133.56 1351.55 1134.18 1339.91 C 1133.15 1337.62 1132.93 1336.96 1130.25 1336.26 C 1127.73 1335.61 1125.61 1336.36 1123.48 1337.57 C 1119.26 1348.43 1113.4 1358.37 1107.06 1368.11 L 1102.17 1362.6 C 1100.91 1346.88 1100.35 1328.96 1105.03 1313.73 C 1110.34 1296.47 1124.18 1278.37 1132.62 1262.06 L 1204.83 1120.55 C 1207.19 1115.98 1210.18 1111.06 1208.49 1105.83 C 1206.33 1104.01 1206.05 1103.89 1203.25 1103.54 C 1200.72 1105.15 1199.34 1107.67 1197.92 1110.24 C 1188.45 1127.43 1180.36 1145.63 1171.49 1163.16 C 1162.18 1181.6 1152.04 1199.57 1143.25 1218.27 C 1136.66 1209.87 1129.75 1201.3 1122.2 1193.76 A 106.955 106.955 0 0 0 1044.78 1161.76 C 1011.48 1161.78 981.592 1175.19 958.24 1198.7 C 917.475 1239.73 907.91 1295 907.91 1350.71 C 898.994 1344.79 890.596 1338.29 883.062 1330.67 A 157.254 157.254 0 0 1 854.88 1291.08 C 831.955 1246.22 836.496 1205.98 837.008 1157.61 C 840.982 1154.64 847.17 1150.91 849.671 1146.63 C 850.74 1144.81 850.612 1144.41 850.126 1142.5 C 848.568 1141.38 846.614 1140.1 844.58 1140.25 C 839.494 1140.61 832.316 1147.97 827.649 1150.35 C 816.238 1156.16 802.565 1158.69 789.842 1158.06 C 772.644 1157.2 758.001 1150.71 746.428 1137.86 C 736.305 1122.2 735.695 1108.16 735.076 1090 C 738.095 1087.48 741.286 1084.87 743.847 1081.87 C 752.294 1072 755.814 1057.24 754.145 1044.52 C 752.072 1028.72 742.55 1013.32 730.099 1003.54 C 730.059 990.449 729.051 977.328 728.879 964.217 L 724.711 833.177 C 724 805.503 721.575 775.836 726.135 748.508 C 728.194 736.169 732.457 722.504 741.314 713.312 C 746.774 707.647 753.535 704.657 761.415 704.693 C 767.606 704.722 773.562 707.118 779.162 709.536 z"/>
<path transform="translate(0,0)" fill="rgb(253,226,115)" d="M 728.879 964.217 C 753.906 976.185 770.919 990.179 780.321 1017.05 C 789.885 1044.38 787.499 1075.57 774.901 1101.49 C 767.893 1115.91 758.397 1127.31 746.428 1137.86 C 736.305 1122.2 735.695 1108.16 735.076 1090 C 738.095 1087.48 741.286 1084.87 743.847 1081.87 C 752.294 1072 755.814 1057.24 754.145 1044.52 C 752.072 1028.72 742.55 1013.32 730.099 1003.54 C 730.059 990.449 729.051 977.328 728.879 964.217 z"/>
<path transform="translate(0,0)" fill="rgb(254,254,254)" d="M 1094.13 634.585 C 1104.01 618.364 1118.31 602.547 1131.4 588.827 C 1144.39 575.202 1172.39 549.144 1192.51 549.242 C 1197.23 549.265 1201.31 550.988 1204.62 554.35 C 1229.34 579.446 1233.66 676.055 1238.6 713.53 C 1242.54 743.377 1249.81 772.568 1249.32 802.882 C 1248.54 851.632 1231.72 894.012 1196.41 928.002 C 1151.9 970.83 1093.35 981.106 1033.71 979.937 C 978.624 978.857 920.322 969.077 880.644 927.289 C 841.482 886.044 835.082 828.897 836.249 774.587 C 839.456 772.771 842.659 770.866 845.231 768.182 C 861.283 751.437 848.076 722.219 847.751 702.408 C 847.249 671.861 864.188 573.564 884.611 554.106 C 887.758 551.107 891.693 549.896 895.994 550.023 C 919.911 550.729 952.592 586.962 967.152 604.881 C 974.142 613.483 980.184 623.228 987.992 631.091 C 988.256 631.356 988.527 631.615 988.795 631.877 C 1000.75 648.892 1012.51 663.914 1034.15 668.067 C 1047.6 670.649 1061.85 666.852 1072.93 658.987 C 1082.07 652.501 1087.9 643.679 1094.13 634.585 z"/>
<path transform="translate(0,0)" fill="rgb(30,45,84)" d="M 929.655 860.249 C 930.94 860.104 933.087 859.996 934.411 860.312 C 936.407 860.789 937.325 861.595 938.532 863.215 C 939.76 864.863 939.316 864.869 938.961 866.688 C 930.998 874.567 907.153 876.753 896.216 878.962 C 893.844 879.248 891.95 879.047 889.604 878.741 C 887.421 877.161 886.95 876.811 885.823 874.393 L 886.758 872.088 C 896.181 864.213 917.697 862.603 929.655 860.249 z"/>
<path transform="translate(0,0)" fill="rgb(30,45,84)" d="M 889.715 811.118 C 902.422 811.75 919.373 814.445 931.495 818.294 C 934.805 819.345 936.825 820.332 938.53 823.526 C 938.351 826.808 937.72 827.52 935.999 830.219 C 922.733 828.992 904.424 827.561 892.217 822.292 C 889.415 821.082 888.163 819.855 887.036 817.063 C 887.391 814.357 888.033 813.251 889.715 811.118 z"/>
<path transform="translate(0,0)" fill="rgb(30,45,84)" d="M 1189.57 811.325 A 39.6929 39.6929 0 0 1 1195.92 810.726 C 1199.69 810.654 1201.93 812.175 1204.61 814.635 L 1204.52 816.491 C 1198.11 824.063 1174.41 826.139 1164.78 828.035 C 1159.89 828.981 1154.88 830.289 1150.34 828.154 L 1150.36 826.058 L 1149.56 827.445 C 1149.26 827.041 1148.86 826.693 1148.66 826.233 C 1148.11 825.013 1148.15 823.651 1148.9 822.584 C 1153.84 815.564 1180.88 812.711 1189.57 811.325 z"/>
<path transform="translate(0,0)" fill="rgb(30,45,84)" d="M 1148.69 860.947 C 1161.12 860.744 1178.36 864.849 1190.06 868.962 C 1194.41 870.493 1198.58 872.177 1200.68 876.525 C 1200.93 879.521 1200.03 880.644 1198.53 883.103 C 1197.13 883.095 1196.77 883.128 1195.46 883.007 C 1185.02 882.035 1154.13 874.326 1147.74 866.858 C 1147.11 863.814 1147.29 863.754 1148.69 860.947 z"/>
<path transform="translate(0,0)" fill="rgb(30,45,84)" d="M 891.782 839.438 C 904.811 839.079 923.099 836.453 935.355 840.213 C 937.233 840.79 937.519 842.399 938.447 844.02 C 937.71 845.458 938.097 844.928 936.662 846.379 C 932.86 850.222 929.359 850.186 924.154 850.236 C 912.038 850.429 897.473 852.227 885.688 850.24 C 882.488 849.7 880.029 848.992 878.106 846.236 C 878.297 843.71 878.524 843.274 879.939 841.155 C 883.508 839.329 887.848 839.608 891.782 839.438 z"/>
<path transform="translate(0,0)" fill="rgb(30,45,84)" d="M 1192.44 839.426 C 1195.81 839.237 1199.27 838.949 1202.65 839.159 C 1207.73 839.476 1210.32 840.932 1213.61 844.723 C 1213.96 846.226 1214.48 846.878 1213.78 848.303 C 1206.16 854.815 1183.61 851.817 1173.75 851.579 C 1168.32 851.373 1156.65 852.372 1152.25 849.608 C 1150.2 848.316 1150.01 847.46 1149.26 845.304 L 1150.52 843.213 C 1158.99 838.382 1181.64 839.856 1192.44 839.426 z"/>
<path transform="translate(0,0)" fill="rgb(30,45,84)" d="M 1125.41 731.187 C 1133.7 730.626 1141.31 732.13 1148.41 736.681 C 1156.37 741.788 1162.53 750.536 1164.52 759.804 C 1165.56 764.622 1165.67 769.421 1162.86 773.629 L 1161.02 773.859 C 1158.36 771.505 1157.74 767.946 1156.25 764.823 C 1153.49 759.033 1147.09 747.527 1140.75 745.712 C 1139.21 745.27 1138.99 745.884 1137.78 746.675 C 1134.56 753.975 1134.08 763.974 1132.78 771.892 C 1132.39 774.017 1132.04 774.382 1130.63 776.059 L 1129.08 775.377 C 1123.4 767.463 1123.48 757.695 1120.07 748.978 C 1119.15 746.607 1118.77 746.592 1116.55 745.739 C 1106.58 749.953 1105.25 766.852 1098.04 774.269 L 1096.26 774.133 C 1094.78 772.146 1093.77 770.516 1093.29 768.047 C 1091.9 760.893 1096.35 752.289 1100.3 746.641 C 1106.91 737.177 1114.39 733.19 1125.41 731.187 z"/>
<path transform="translate(0,0)" fill="rgb(30,45,84)" d="M 951.149 732.143 A 97.8414 97.8414 0 0 1 957.501 731.745 C 965.932 731.567 974.671 735.082 980.606 741.067 C 986.693 747.205 991.184 756.786 991.103 765.515 C 991.073 768.788 990.592 771.303 988.117 773.588 L 985.889 773.354 C 980.279 767.606 979.021 758.018 973.511 751.502 C 971.738 749.406 970.658 748.468 967.943 748.153 C 966.24 749.964 961.131 770.894 959.065 775.809 C 956.899 777.391 958.109 777.063 955.432 776.783 C 950.206 770.625 949.377 754.266 948.035 746.165 C 941.783 749.799 935.546 753.294 933.101 760.444 C 931.828 764.166 930.694 768.285 928.988 771.82 C 927.802 774.278 927.037 775.338 924.507 776.318 C 922.597 775.013 921.789 774.469 921.121 772.047 C 919.351 765.629 923.378 755.246 926.53 749.783 C 932.618 739.23 939.737 734.997 951.149 732.143 z"/>
<path transform="translate(0,0)" fill="rgb(30,45,84)" d="M 1036.26 787.174 C 1041.86 786.833 1047.89 786.32 1053.33 788.011 C 1058.13 789.506 1062.65 792.595 1064.84 797.229 C 1066.83 801.407 1066.72 806.282 1065.17 810.575 C 1062.31 818.456 1055.28 823.939 1048.03 827.566 L 1047.81 830.593 C 1047.18 839.301 1044.92 851.497 1051.47 858.458 C 1055.24 862.476 1060.68 863.971 1066.05 864.07 C 1087.62 864.47 1086.1 853.639 1096.6 844.774 C 1099.09 842.672 1102.65 841.373 1105.92 842.291 C 1108.59 843.039 1109.2 844.169 1110.49 846.351 C 1110.59 849.324 1110.65 849.55 1109.03 852.013 C 1096.85 856.469 1093.87 869.64 1075.98 873.671 C 1064.08 876.351 1054.26 872.772 1044.47 866.297 L 1043.55 866.286 C 1040.59 868.237 1037.49 870.41 1034.16 871.674 C 1017.3 878.069 1000.24 874.604 986.864 862.523 C 983.618 859.592 980.167 854.812 976.078 853.204 C 974.252 852.486 972.999 851.811 971.38 850.723 C 970.56 847.926 970.735 847.572 971.595 844.753 C 973.549 843.093 975.097 842.286 977.615 841.911 C 986.895 840.53 993.439 854.837 1000.46 859.466 C 1008.22 864.575 1019.24 864.361 1028.09 862.815 L 1029.56 862.552 C 1032.54 860.006 1035.3 857.134 1038.11 854.4 L 1037.97 828.297 C 1031.71 823.822 1026.52 819.528 1023.29 812.318 C 1021.18 807.597 1020.51 802.348 1022.7 797.524 C 1025.41 791.548 1030.58 789.515 1036.26 787.174 z"/>
<path transform="translate(0,0)" fill="rgb(30,45,84)" d="M 900.273 573.016 C 904.267 573.066 907.932 573.431 911.722 574.798 C 930.827 581.691 955.463 611.223 964.166 629.195 C 938.273 637.757 917.833 645.938 896.433 663.214 C 887.657 670.726 874.555 686.888 866.734 691.924 C 865.491 691.118 864.863 691.023 864.284 689.547 C 859.213 676.615 871.511 617.697 876.365 604.584 C 881.094 591.81 887.456 578.965 900.273 573.016 z"/>
<path transform="translate(0,0)" fill="rgb(253,226,115)" d="M 900.503 584.014 C 902.524 583.839 904.628 583.81 906.648 584.047 C 921.992 585.849 940.286 612.288 949.553 623.484 C 932.957 629.657 918.239 636.334 903.509 646.226 C 892.932 653.23 883.487 661.227 873.939 669.536 A 482.836 482.836 0 0 1 874.839 662.282 C 877.757 640.091 881.877 598.317 900.503 584.014 z"/>
<path transform="translate(0,0)" fill="rgb(30,45,84)" d="M 1177.59 573.144 C 1181.06 572.778 1184.88 572.417 1188.32 573.2 C 1195.56 574.851 1201.25 580.626 1204.74 586.925 C 1217.01 609.043 1217.36 646.472 1216.89 671.328 C 1216.8 675.946 1217.48 683.515 1215.63 687.63 C 1214.55 690.038 1214.13 690.342 1211.85 691.227 C 1203.82 683.636 1198.11 673.937 1189.75 666.399 L 1188.4 665.206 C 1167.26 646.482 1145.18 638.732 1119.39 628.889 C 1131.1 606.713 1153.38 581.594 1177.59 573.144 z"/>
<path transform="translate(0,0)" fill="rgb(253,226,115)" d="M 1177.31 582.927 L 1178.46 582.874 C 1183.71 582.68 1187.41 583.276 1191.26 587.087 C 1206.24 601.881 1206.77 647.414 1206.67 668.207 C 1199.76 661.511 1192.78 655.22 1185.35 649.106 A 151.675 151.675 0 0 0 1134.07 623.908 C 1146.63 608.555 1159.05 591.759 1177.31 582.927 z"/>
<path transform="translate(0,0)" fill="rgb(253,226,115)" d="M 988.795 631.877 C 1000.75 648.892 1012.51 663.914 1034.15 668.067 C 1047.6 670.649 1061.85 666.852 1072.93 658.987 C 1082.07 652.501 1087.9 643.679 1094.13 634.585 C 1100.71 634.829 1107.34 636.489 1113.79 637.761 C 1108.81 665.002 1097.21 697.99 1074.9 715.912 C 1063.96 724.7 1050.28 729.591 1036.15 727.87 C 1019.87 725.888 1005.21 715.406 995.299 702.725 C 984.07 688.352 971.433 661.571 974.793 642.766 C 976.259 634.562 982.644 636.643 987.786 632.692 C 988.129 632.429 988.459 632.149 988.795 631.877 z"/>
</svg>