<svg version="1.1" xmlns="http://www.w3.org/2000/svg" style="display: block;" viewBox="0 0 2048 2048" width="1024" height="1024">
<defs>
	<linearGradient id="Gradient1" gradientUnits="userSpaceOnUse" x1="868.095" y1="1841.08" x2="881.947" y2="1842.51">
		<stop class="stop0" offset="0" stop-opacity="1" stop-color="rgb(37,36,42)"/>
		<stop class="stop1" offset="1" stop-opacity="1" stop-color="rgb(17,38,50)"/>
	</linearGradient>
</defs>
<path transform="translate(0,0)" fill="rgb(21,26,37)" d="M 0 0 L 71.9842 0 L 201.933 0 L 776.036 0 L 1272.74 0 L 1508.11 0 L 2048 0 L 2048 261.993 L 2048 663.954 L 2048 711.548 L 2048 810.56 L 2048 847.159 L 2048 1234.26 L 2048 1252.29 L 2048 1595.58 L 2048 1684.96 L 2048 1773.39 L 2048 1801.8 L 2048 1892.65 L 2048 1900.88 L 2048 1972.92 L 2048 2048 L 0 2048 L 0 1972.11 L 0 1903.67 L 0 1895.93 L 0 1795.78 L 0 1779.51 L 0 1685.2 L 0 1597.99 L 0 1250.16 L 0 1232.84 L 0 861.229 L 0 834.199 L 0 698.35 L 0 657.928 L 0 0 z"/>
<path transform="translate(0,0)" fill="rgb(214,49,57)" d="M 1831.22 1381.28 C 1856.81 1379.5 1880.39 1384.28 1903.27 1396.19 C 1922.34 1406.12 1935.07 1419.54 1941.65 1440.13 C 1937.33 1435.88 1933.99 1430.22 1930.06 1425.54 C 1917.67 1410.75 1902.48 1402.21 1884.55 1395.66 A 181.802 181.802 0 0 0 1875.56 1393.62 C 1852.16 1389.13 1818.66 1391.34 1798.48 1405.31 C 1790.24 1411.02 1783.35 1419.34 1774.79 1424.46 C 1772.48 1425.84 1771.21 1426.18 1768.62 1425.64 L 1767.47 1423.43 C 1767.57 1420.93 1768.18 1419.41 1769.64 1417.43 C 1783.71 1398.46 1808.29 1385.2 1831.22 1381.28 z"/>
<path transform="translate(0,0)" fill="rgb(214,49,57)" d="M 200.548 1381.29 C 216.31 1379.2 233.203 1380.7 246.916 1389.32 C 266.751 1401.8 276.665 1423.68 281.72 1445.69 C 269.993 1425.9 257.421 1408.27 235.773 1398.62 C 210.005 1387.14 190.033 1388.81 164.35 1398.85 C 132.391 1411.43 112.985 1439.31 98.231 1468.68 C 100.014 1452.69 104.899 1439 114.154 1425.78 C 134.405 1396.85 167.317 1386.99 200.548 1381.29 z"/>
<path transform="translate(0,0)" fill="rgb(214,49,57)" d="M 2048 663.954 L 2048 711.548 L 2048 810.56 L 2048 847.159 C 2043.28 839.628 2040.35 828.977 2038.02 820.465 C 2026.04 776.518 2025.07 704.413 2048 663.954 z"/>
<path transform="translate(0,0)" fill="rgb(21,26,37)" d="M 2048 810.56 C 2039.32 781.877 2039.17 740.239 2048 711.548 L 2048 810.56 z"/>
<path transform="translate(0,0)" fill="rgb(214,49,57)" d="M 0 657.928 C 24.737 709.794 27.4805 788.962 8.16626 842.634 C 5.92434 848.864 3.4926 855.585 0 861.229 L 0 834.199 L 0 698.35 L 0 657.928 z"/>
<path transform="translate(0,0)" fill="rgb(21,26,37)" d="M 0 698.35 C 13.578 736.424 12.0455 795.903 0 834.199 L 0 698.35 z"/>
<path transform="translate(0,0)" fill="rgb(214,49,57)" d="M 0 1232.84 C 30.4158 1243.15 56.7659 1259.12 71.5869 1288.78 A 93.3628 93.3628 0 0 1 80.4811 1317.18 C 98.1462 1311.67 114.526 1309.63 131.507 1318.56 C 145.407 1325.86 156.469 1339.55 160.768 1354.63 C 163.594 1364.54 163.034 1373.61 160.082 1383.37 C 154.862 1362.6 148.192 1346.34 128.953 1334.78 C 110.603 1323.76 90.8276 1323.41 70.0911 1324.16 C 61.2586 1296.21 44.246 1271.92 17.8423 1258.22 C 12.0397 1255.21 6.04277 1252.64 0 1250.16 L 0 1232.84 z"/>
<path transform="translate(0,0)" fill="rgb(214,49,57)" d="M 2048 1234.26 L 2048 1252.29 C 2039.94 1255.16 2032.3 1258.08 2024.97 1262.53 C 2002.31 1276.29 1984.85 1298.4 1978.44 1324.15 C 1959 1322.16 1937.56 1322.96 1920.64 1333.85 C 1902.7 1345.4 1896.83 1361.88 1892.83 1381.69 C 1889.54 1370.13 1888.28 1360 1892.01 1348.28 C 1896.25 1334.96 1905.47 1323.35 1918.04 1317.03 C 1934.23 1308.89 1951.81 1311.01 1968.31 1316.52 C 1969.1 1305.53 1971.95 1296.15 1977.49 1286.63 C 1993.13 1259.75 2018.29 1242.12 2048 1234.26 z"/>
<path transform="translate(0,0)" fill="rgb(214,49,57)" d="M 2018.01 818.084 L 2018.57 818.624 C 2016.5 823.733 2004.05 832.31 1999.63 836.383 C 1953.28 879.102 1928.06 937.816 1925.75 1000.41 A 213.675 213.675 0 0 0 1973.87 1145.33 C 1982.03 1155.25 1991.7 1163.51 2000.39 1172.91 L 1999.75 1173.52 L 1995.41 1170.89 C 1964.12 1146.25 1944.77 1123.53 1928.97 1086.5 C 1905.09 1030.57 1906.56 968.081 1929.44 912.03 C 1945.74 872.086 1977.93 835.087 2018.01 818.084 z"/>
<path transform="translate(0,0)" fill="rgb(214,49,57)" d="M 26.8247 808.458 C 51.7399 814.968 85.83 855.28 99.0691 876.22 A 227.741 227.741 0 0 1 129.879 1047.25 C 119.178 1094.62 92.4653 1143.59 50.7563 1170.08 C 46.7732 1172.54 42.66 1174.28 38.3616 1176.09 C 63.8312 1157.8 84.2987 1134.74 97.9706 1106.39 C 139.519 1020.26 123.415 920.932 62.3566 848.884 C 56.0975 841.499 29.445 817.911 27.2881 810.351 C 27.1099 809.726 26.9792 809.089 26.8247 808.458 z"/>
<path transform="translate(0,0)" fill="rgb(214,49,57)" d="M 142.692 1056.77 C 158.212 1059.57 174.506 1071.13 186.886 1080.36 C 240.363 1120.21 269.727 1184.64 279.301 1249.2 A 335.116 335.116 0 0 1 291.038 1258.82 C 324.135 1287.62 337.615 1321.1 340.49 1364.13 C 377.664 1379.21 410.186 1399.48 430.308 1435.25 C 442.772 1457.41 449.736 1486.13 442.583 1511.21 C 439.95 1507.95 438.956 1489.36 437.49 1483.73 A 155.757 155.757 0 0 0 425.685 1453.15 C 406.118 1415.79 369.362 1390.27 329.883 1377.71 L 329.552 1373.58 C 326.467 1337.2 315.547 1299.93 288.1 1274.35 C 281.409 1268.11 273.346 1263.52 266.396 1257.58 L 265.743 1257.02 C 261.449 1215.55 242.882 1168.26 218.88 1133.98 C 208.01 1118.46 194.736 1104.08 180.977 1091.04 A 262.984 262.984 0 0 0 159.318 1072.53 C 153.832 1068.37 146.49 1064.56 142.096 1059.38 L 142.692 1056.77 z"/>
<path transform="translate(0,0)" fill="rgb(214,49,57)" d="M 776.036 0 L 1272.74 0 C 1246.09 19.4001 1218.2 33.8649 1185.92 41.5893 C 1127.11 55.6636 1072.07 42.8266 1021.21 11.8749 C 992.648 29.6391 966.889 42.7412 932.888 46.9192 C 872.227 54.3729 823.253 36.9594 776.036 0 z"/>
<path transform="translate(0,0)" fill="rgb(214,49,57)" d="M 71.9842 0 L 201.933 0 C 233.612 19.258 268.006 35.1861 301.182 51.7013 A 2053 2053 0 0 0 778.311 224.555 C 812.529 232.178 847.402 237.671 882.126 242.491 C 899.394 244.889 917.083 245.557 934.116 249.426 L 935.262 249.697 C 924.796 250.252 913.452 248.808 902.947 248.226 A 1190.56 1190.56 0 0 1 785.555 235.628 A 2157.67 2157.67 0 0 1 263.558 90.247 A 1911.99 1911.99 0 0 1 71.9842 0 z"/>
<path transform="translate(0,0)" fill="rgb(239,237,187)" d="M 718.229 1210.07 C 711.016 1198.69 706.206 1185.15 701.7 1172.47 C 669.017 1080.52 691.976 990.47 688.67 896.516 C 687.772 871.017 680.684 851.009 676.499 826.573 C 672.449 802.931 673.568 762.947 688.433 742.73 C 691.748 738.222 697.145 733.456 702.987 732.952 C 704.934 732.785 704.838 733.214 706.259 734.354 C 711.015 729.769 714.91 724.854 721.842 724.06 C 726.14 723.567 727.867 724.97 731.071 727.58 L 731.951 728.31 C 736.484 728.606 738.147 725.243 742.043 723.853 C 753.71 719.693 756.427 731.615 764.646 734.735 C 768.234 736.097 772.496 734.42 775.999 736.214 C 780.158 738.345 781.938 743.996 783.337 748.123 C 791.86 773.266 796.647 795.25 792.172 821.938 C 790.343 832.845 787.386 843.615 786.191 854.622 C 784.226 872.709 785.608 892.306 786.886 910.448 C 789.32 945.007 792.626 981.727 802.395 1014.98 C 807.965 1033.94 816.919 1052.02 821.992 1070.96 C 824.528 1073.8 826.264 1076.58 828.129 1079.89 C 829.02 1081.47 828.565 1080.88 829.794 1082.04 L 829.831 1083.2 C 826.262 1090.23 830.471 1109.47 831.224 1118 C 835.464 1166.03 831.75 1222.47 809.511 1265.97 C 802.494 1279.69 793.424 1291.75 783.721 1303.66 C 776.308 1293.93 767.049 1285.3 759.241 1275.81 C 743.177 1256.29 728.965 1233 718.229 1210.07 z"/>
<path transform="translate(0,0)" fill="rgb(214,49,57)" d="M 782.201 761.622 C 782.544 762.474 782.64 762.655 782.915 763.668 C 785.627 773.63 785.862 786.118 780.491 795.233 C 778.173 799.167 776.095 800.592 771.7 801.723 C 770.191 799.93 768.93 798.444 768.342 796.109 C 765.542 784.994 776.497 770.552 782.201 761.622 z"/>
<path transform="translate(0,0)" fill="rgb(214,49,57)" d="M 761.413 747.13 C 763.842 758.912 764.619 776.413 762.087 788.27 C 761.997 790.142 761.716 791.83 761.246 793.646 C 760.509 796.499 758.857 799.877 755.974 801.093 C 753.844 801.991 751.559 801.988 749.517 800.855 C 747.636 799.81 746.309 797.585 745.651 795.605 C 742.314 785.556 749.547 773.666 753.947 765.017 C 756.51 759.091 759.183 753.191 761.413 747.13 z"/>
<path transform="translate(0,0)" fill="rgb(214,49,57)" d="M 732.38 745.657 C 733.874 747.076 734.268 748.735 734.599 750.738 C 735.73 757.575 739.794 794.845 736.371 798.511 C 733.457 801.631 728.742 801.107 724.856 801.072 C 722.21 799.935 720.577 799.616 719.041 796.929 C 714.457 788.907 729.826 756.749 732.38 745.657 z"/>
<path transform="translate(0,0)" fill="rgb(214,49,57)" d="M 706.21 754.575 C 709.525 757.764 710.201 764.201 710.865 768.654 C 712.417 779.061 713.677 797.723 706.426 806.138 C 704.236 808.679 702.541 808.77 699.345 809.229 C 698.193 808.776 697.06 808.379 695.99 807.734 C 693.573 806.277 692.584 803.333 692.006 800.722 C 688.677 785.679 698.081 766.79 706.21 754.575 z"/>
<path transform="translate(0,0)" fill="rgb(214,49,57)" d="M 722.098 810.294 C 726.558 810.116 731.558 809.589 735.892 810.809 A 27.4253 27.4253 0 0 1 752.8 824.879 C 756.273 831.81 756.978 840.326 754.459 847.684 C 751.893 855.181 746.558 860.238 739.581 863.603 C 733.571 864.868 728.239 865.189 722.631 862.248 C 714.829 858.156 709.498 850.511 707.196 842.117 C 705.139 834.617 705.287 825.983 709.445 819.202 C 712.627 814.013 716.354 811.852 722.098 810.294 z"/>
<path transform="translate(0,0)" fill="rgb(165,207,156)" d="M 821.992 1070.96 C 824.528 1073.8 826.264 1076.58 828.129 1079.89 C 829.02 1081.47 828.565 1080.88 829.794 1082.04 L 829.831 1083.2 C 826.262 1090.23 830.471 1109.47 831.224 1118 C 835.464 1166.03 831.75 1222.47 809.511 1265.97 C 802.494 1279.69 793.424 1291.75 783.721 1303.66 C 776.308 1293.93 767.049 1285.3 759.241 1275.81 C 743.177 1256.29 728.965 1233 718.229 1210.07 C 723.065 1212.96 727.391 1217.23 731.767 1220.77 C 743.831 1230.55 757.6 1236.94 773.375 1237.16 C 785.011 1237.32 795.551 1233 803.879 1224.89 C 837.282 1192.36 820.395 1114.74 821.924 1072.6 L 821.992 1070.96 z"/>
<path transform="translate(0,0)" fill="rgb(214,49,57)" d="M 1508.11 0 L 2048 0 L 2048 261.993 C 1995.28 261.699 1942.66 262.124 1889.95 260.676 C 1851.59 259.622 1812.21 259.084 1774.76 249.837 C 1753.71 244.642 1731.15 235.651 1715.04 220.714 C 1699.58 206.377 1692.91 189.048 1692.28 168.192 C 1691.69 148.842 1698.16 132.123 1711.46 118.054 C 1739.61 88.268 1788.51 82.1309 1827.54 81.0885 C 1862.4 80.1573 1892.88 77.278 1921.23 100.574 C 1924.42 103.199 1928.7 106.176 1931.27 109.28 C 1931.62 109.695 1931.87 110.177 1932.17 110.626 L 1931.27 109.272 L 1933.07 110.572 C 1932.92 107.866 1924.56 101.01 1922.39 99.0143 C 1893.42 72.3474 1850.83 74.5222 1813.9 76.2237 C 1776.01 77.9691 1731.46 87.2762 1704.97 116.7 C 1687.11 136.538 1686.07 157.602 1687.22 182.952 L 1607.41 182.798 C 1550.76 182.785 1501.58 181.756 1451.85 149.917 C 1433.33 138.064 1418.9 122.392 1414.16 100.421 C 1410.34 82.6913 1414.36 64.5915 1424.27 49.5597 C 1442.71 21.5976 1476.33 6.40014 1508.11 0 z"/>
<path transform="translate(0,0)" fill="rgb(239,237,187)" d="M 1068.07 729.13 C 1090.28 695.532 1129.2 635.726 1170.11 626.422 C 1177.77 624.682 1185.39 625.601 1191.95 630.088 C 1207.73 640.889 1214.46 668.098 1217.3 685.866 C 1225.82 739.167 1216.16 792.107 1216.74 845.509 C 1216.88 858.509 1224.95 872.054 1228.22 884.648 C 1241.22 934.636 1238.3 990.543 1210.74 1035.29 C 1213.46 1042.71 1213.91 1054.41 1209.85 1061.62 C 1206.71 1067.2 1182.57 1085.1 1175.78 1088.54 C 1178.11 1088.72 1179.79 1088.99 1182.02 1088.16 C 1184.28 1089.48 1184.38 1089.84 1185.56 1092.21 C 1184.94 1094.81 1185.01 1094.78 1182.85 1096.36 L 1180.91 1096.57 C 1180.27 1094.5 1180.48 1092.73 1180.6 1090.59 C 1174.31 1090.42 1165.67 1097.88 1159.92 1100.75 C 1164.41 1102.39 1166.62 1107.88 1170.26 1107.39 L 1169.35 1108.4 L 1169.57 1107.28 C 1171.83 1105.85 1172.02 1105.52 1174.64 1105.69 L 1175.87 1106.98 C 1173.6 1112.41 1161.53 1115.96 1155.91 1118.27 C 1149.22 1121.02 1142.49 1123.81 1135.55 1125.87 C 1134.18 1127.59 1134.46 1126.69 1134.3 1128.38 C 1125.08 1132.39 1113.76 1135.28 1103.76 1136.39 C 1086.39 1139.82 1066.21 1143.63 1048.55 1142.49 L 1048.18 1141.96 C 1051.2 1141.17 1056.14 1141.45 1058.4 1139.5 C 1054.88 1137.95 1039.85 1140.16 1034.49 1140.39 C 1028.02 1140.04 1020.73 1139.23 1014.39 1140.57 L 1013.41 1141.49 C 1002.42 1142.66 989.452 1140.29 978.349 1139.65 C 964.41 1139.75 937.713 1135.01 925.217 1129.29 C 913.353 1126.36 867.757 1107.53 860.552 1098.17 L 863.12 1097.4 C 865.357 1096.43 867.449 1095.26 869.576 1094.07 C 869.675 1096 869.805 1097.72 870.288 1099.59 C 872.614 1100.58 872.715 1100.29 875.076 1099.94 C 876.706 1098.16 877.848 1097.26 878.118 1094.76 C 875.701 1092.35 873.756 1093.33 870.952 1091.99 C 862.678 1088.02 852.509 1079.24 844.672 1073.8 C 842.638 1075.02 840.527 1076.05 838.404 1077.1 L 836.096 1076.16 L 836.128 1073.7 C 839.541 1070.95 843.122 1068.24 847.591 1067.71 C 841.735 1062.92 837.388 1056.04 832.387 1050.35 C 834.034 1042.71 835.256 1033.46 839.552 1026.83 C 813.265 982.515 811.495 932.46 823.97 883.405 A 455.168 455.168 0 0 1 837.472 839.852 C 830.555 805.573 829.567 715.425 835.869 680.646 C 838.246 667.531 842.267 653.939 849.796 642.791 C 854.995 635.093 862.146 628.793 871.467 626.921 C 884.808 624.242 898.242 630.727 908.883 638.232 C 941.126 660.971 966.474 697.756 986.967 731.079 C 1014.89 724.381 1040.09 727.909 1068.07 729.13 z"/>
<path transform="translate(0,0)" fill="rgb(165,207,156)" d="M 992.297 1031.58 C 994.178 1032.12 995.81 1033.03 997.522 1033.97 C 1012.22 1041.98 1027.4 1045.9 1043.69 1039.95 C 1048.39 1038.23 1053.04 1035.22 1057.9 1034.14 C 1059.98 1033.69 1059 1033.61 1061.06 1034.89 C 1061.33 1037.69 1060.3 1039.27 1059.01 1041.63 C 1051.25 1047.94 1042.81 1052.66 1032.75 1054.03 C 1023.04 1055.36 1010.04 1052.86 1002.22 1046.72 C 997.235 1042.81 993.266 1037.91 992.297 1031.58 z"/>
<path transform="translate(0,0)" fill="rgb(214,49,57)" d="M 1024.81 937.454 C 1018.53 934.349 1002.2 925.57 1000.11 918.796 C 999.661 917.351 1000.37 916.82 1001.02 915.596 C 1003.54 914.034 1005.75 913.239 1008.69 912.748 C 1021.03 910.693 1043.24 908.708 1053.85 916.263 C 1057.59 926.143 1030.77 930.468 1027.41 942.988 L 1025.89 944.017 C 1025.59 947.155 1025.62 950.117 1025.77 953.264 C 1024.99 948.08 1025.02 942.692 1024.81 937.454 z"/>
<path transform="translate(0,0)" fill="rgb(21,26,37)" d="M 1025.77 953.264 C 1025.62 950.117 1025.59 947.155 1025.89 944.017 L 1027.41 942.988 C 1030.19 958.376 1035.34 967.76 1048.44 976.843 C 1061.73 986.063 1077.04 991.164 1093.29 987.956 C 1102.02 986.232 1107.66 982.977 1114.01 977.032 C 1110.01 976.161 1105.79 975.618 1102.24 973.477 C 1106.25 972.685 1111.42 974.467 1115.36 975.336 L 1120.07 968.208 C 1120.7 969.974 1118.73 973.412 1118.04 975.236 C 1128.34 978.854 1152.18 991.28 1160.12 998.687 C 1157.09 998.997 1121.8 980.432 1115.77 977.716 C 1107.03 987.2 1095.39 993.519 1082.33 994.267 C 1066.9 995.15 1051.79 986.506 1040.81 976.303 C 1035.96 971.796 1031.98 966.836 1028.32 961.325 C 1016.91 977.091 1003.1 990.144 983.118 993.437 C 968.657 995.82 953.364 992.697 941.498 983.944 C 938.784 981.942 936.572 979.39 934.47 976.773 C 921.286 983.532 901.471 995.787 887.872 999.648 L 887.242 998.887 C 896.474 991.309 925.829 981.066 931.288 974.244 C 932.417 972.832 932.489 972.112 932.709 970.367 C 933.709 971.42 935.018 973.496 936.519 973.45 C 940.363 973.332 943.976 970.907 948.282 970.669 L 948.156 971.411 C 944.969 972.63 939.866 973.721 937.752 976.32 C 939.59 980.825 945.106 982.812 949.406 984.627 C 965.069 991.238 982.491 989.327 997.971 982.862 C 1008.98 978.263 1019.96 970.59 1024.86 959.351 C 1025.77 957.265 1025.9 955.501 1025.77 953.264 z"/>
<path transform="translate(0,0)" fill="rgb(165,207,156)" d="M 1025.36 750.384 C 1033.41 750.572 1041.53 751.988 1048.57 756.098 C 1054.52 759.565 1059.47 764.833 1061.1 771.666 C 1062.87 779.07 1060.88 787.155 1056.65 793.384 C 1050.81 801.997 1042.19 806.085 1032.28 807.98 C 1022.07 808.314 1013.04 806.429 1005.07 799.592 C 999.136 794.495 995.233 787.389 994.654 779.538 C 994.134 772.479 996.258 765.296 1000.99 759.971 C 1007.77 752.346 1015.81 751.125 1025.36 750.384 z"/>
<path transform="translate(0,0)" fill="rgb(21,26,37)" d="M 1103.68 843.214 C 1113.63 834.192 1124.24 827.547 1138.3 828.467 C 1151.84 829.352 1164.76 836.526 1176.77 842.3 C 1171.97 858.661 1161.58 875.823 1146.42 884.401 C 1129.11 894.193 1111.47 891.789 1092.65 889.41 C 1089.37 889.13 1086.61 889.383 1084.29 886.935 C 1084.48 883.43 1085.4 880.135 1086.23 876.738 C 1090.3 863.782 1094.68 853.477 1103.68 843.214 z"/>
<path transform="translate(0,0)" fill="rgb(239,237,187)" d="M 1106.55 848.482 C 1104.74 858.603 1102.9 869.309 1109.1 878.484 C 1112.68 883.78 1117.72 886.709 1123.18 889.696 C 1113.95 888.57 1104.55 887.097 1095.26 886.722 L 1091.31 885.504 C 1089.58 883.041 1090.04 881.971 1090.13 879.027 C 1093.26 866.602 1097.73 857.853 1106.55 848.482 z"/>
<path transform="translate(0,0)" fill="rgb(239,237,187)" d="M 1140.32 836.468 A 1031.17 1031.17 0 0 1 1154.97 840.026 C 1159.62 845.604 1163.88 849.711 1163.54 857.456 C 1163.14 866.375 1155.7 873.299 1149.43 878.833 L 1136.46 885.213 C 1143.09 878.843 1148.89 872.605 1150.21 863.039 C 1151.69 852.335 1146.49 844.508 1140.32 836.468 z"/>
<path transform="translate(0,0)" fill="rgb(21,26,37)" d="M 946.53 890.669 C 933.377 892.323 920.676 892.479 908.048 887.824 A 47.9269 47.9269 0 0 1 879.869 860.349 C 878.459 856.865 878.114 852.866 876.478 849.553 C 875.748 848.075 873.383 847.79 871.86 847.271 C 872.138 845.357 871.827 845.975 872.902 844.411 C 878.138 836.796 895.674 830.323 904.676 828.803 C 917.232 826.683 929.533 829.228 939.992 836.43 C 957.203 848.226 964.737 868.821 970.417 887.984 C 962.497 888.719 954.315 889.026 946.53 890.669 z"/>
<path transform="translate(0,0)" fill="rgb(239,237,187)" d="M 939.463 843.087 C 951.918 854.363 960.563 869.714 965.088 885.797 C 959.674 886.314 953.853 886.442 948.563 887.669 C 941.854 888.798 935.222 888.99 928.433 889.186 C 935.212 885.172 939.669 881.814 942.544 874.211 C 946.536 863.656 943.8 852.98 939.463 843.087 z"/>
<path transform="translate(0,0)" fill="rgb(239,237,187)" d="M 901.688 835.932 C 903.836 835.83 904.668 835.725 906.693 836.591 C 902.616 846.189 897.862 856.82 899.657 867.485 C 901.237 876.869 908.355 881.127 915.458 886.34 C 913.051 886.493 911.365 885.685 909.13 884.896 C 899.828 880.043 890.497 873.803 885.515 864.219 C 883.374 860.1 882.287 855.24 883.844 850.74 C 886.511 843.028 894.731 839.022 901.688 835.932 z"/>
<path transform="translate(0,0)" fill="rgb(214,49,57)" d="M 1171.84 640.216 C 1178.35 639.919 1183.8 640.409 1188.99 644.734 C 1205.31 658.343 1207.5 689.757 1209.38 709.462 C 1211.29 729.44 1214.98 783.336 1200.91 798.322 C 1199.22 800.122 1197.39 801.344 1194.8 801.056 C 1186.9 800.177 1175.1 784.962 1169.86 779.419 A 276.383 276.383 0 0 0 1159.42 770.024 C 1142.84 756.05 1130.94 752.062 1109.12 754.078 C 1108.9 725.414 1113.9 699.905 1129.06 675.218 C 1139.18 658.75 1152.47 644.828 1171.84 640.216 z"/>
<path transform="translate(0,0)" fill="rgb(214,49,57)" d="M 869.026 640.109 C 871.179 639.962 873.345 639.821 875.504 639.863 C 888.464 640.117 900.479 648.372 909.313 657.292 C 937.374 685.627 943.266 717.145 943.081 755.407 C 938.299 754.511 933.249 753.402 928.387 753.214 C 910.681 752.526 894.046 767.296 881.886 778.501 C 869.94 790.174 860.569 801.105 852.376 815.709 C 839.731 775.999 835.726 707.13 848.301 668.165 C 852.147 656.248 857.489 645.979 869.026 640.109 z"/>
<path transform="translate(0,0)" fill="rgb(214,49,57)" d="M 832.387 1050.35 C 834.034 1042.71 835.256 1033.46 839.552 1026.83 C 873.495 1074.18 919.436 1093.09 975.604 1102.38 C 1043.45 1113.6 1121.08 1107.6 1178.45 1066.42 A 152.211 152.211 0 0 0 1210.74 1035.29 C 1213.46 1042.71 1213.91 1054.41 1209.85 1061.62 C 1206.71 1067.2 1182.57 1085.1 1175.78 1088.54 C 1178.11 1088.72 1179.79 1088.99 1182.02 1088.16 C 1184.28 1089.48 1184.38 1089.84 1185.56 1092.21 C 1184.94 1094.81 1185.01 1094.78 1182.85 1096.36 L 1180.91 1096.57 C 1180.27 1094.5 1180.48 1092.73 1180.6 1090.59 C 1174.31 1090.42 1165.67 1097.88 1159.92 1100.75 C 1164.41 1102.39 1166.62 1107.88 1170.26 1107.39 L 1169.35 1108.4 L 1169.57 1107.28 C 1171.83 1105.85 1172.02 1105.52 1174.64 1105.69 L 1175.87 1106.98 C 1173.6 1112.41 1161.53 1115.96 1155.91 1118.27 C 1149.22 1121.02 1142.49 1123.81 1135.55 1125.87 C 1134.18 1127.59 1134.46 1126.69 1134.3 1128.38 C 1125.08 1132.39 1113.76 1135.28 1103.76 1136.39 C 1086.39 1139.82 1066.21 1143.63 1048.55 1142.49 L 1048.18 1141.96 C 1051.2 1141.17 1056.14 1141.45 1058.4 1139.5 C 1054.88 1137.95 1039.85 1140.16 1034.49 1140.39 C 1028.02 1140.04 1020.73 1139.23 1014.39 1140.57 L 1013.41 1141.49 C 1002.42 1142.66 989.452 1140.29 978.349 1139.65 C 964.41 1139.75 937.713 1135.01 925.217 1129.29 C 913.353 1126.36 867.757 1107.53 860.552 1098.17 L 863.12 1097.4 C 865.357 1096.43 867.449 1095.26 869.576 1094.07 C 869.675 1096 869.805 1097.72 870.288 1099.59 C 872.614 1100.58 872.715 1100.29 875.076 1099.94 C 876.706 1098.16 877.848 1097.26 878.118 1094.76 C 875.701 1092.35 873.756 1093.33 870.952 1091.99 C 862.678 1088.02 852.509 1079.24 844.672 1073.8 C 842.638 1075.02 840.527 1076.05 838.404 1077.1 L 836.096 1076.16 L 836.128 1073.7 C 839.541 1070.95 843.122 1068.24 847.591 1067.71 C 841.735 1062.92 837.388 1056.04 832.387 1050.35 z"/>
<path transform="translate(0,0)" fill="rgb(25,50,57)" d="M 847.591 1067.71 C 873.475 1085.42 898.536 1101.44 928.668 1111.22 C 948.182 1116.08 966.666 1120.54 986.757 1122.34 C 994.653 1122.85 1002.8 1122.82 1010.63 1123.77 L 1018.65 1124.19 C 1063.95 1123.78 1111.53 1120.25 1152.77 1099.79 C 1155.78 1098.3 1164.57 1092.68 1167.13 1094.49 L 1167.79 1093.56 L 1167.71 1093.47 L 1166.16 1094.41 C 1140.95 1109.42 1109.4 1118.44 1080.43 1122.25 C 1078.45 1122.51 1077.45 1122.93 1075.76 1123.94 C 1078.17 1125.47 1080.83 1125.52 1083.58 1124.86 C 1084.05 1124.74 1084.51 1124.58 1084.98 1124.44 C 1085.59 1125.05 1086.37 1125.68 1086.84 1126.42 C 1089.33 1124.56 1091.15 1123.13 1094.3 1122.52 L 1095.77 1123.58 C 1095.7 1125.54 1095.63 1127.04 1096.26 1128.92 L 1098.75 1128.53 C 1099.15 1127.59 1099.56 1126.66 1099.93 1125.72 C 1100.42 1124.48 1100.78 1122.86 1101.56 1121.78 C 1102.8 1120.08 1103.98 1119.63 1105.98 1119.13 C 1112.05 1117.61 1111.11 1121.53 1115.03 1123.9 C 1118.49 1122.89 1118.67 1123.1 1120.62 1120.13 C 1118.28 1119.6 1119.25 1119.6 1116.82 1119.94 C 1116.24 1120.02 1115.67 1120.12 1115.09 1120.22 L 1114.2 1119.14 C 1129.23 1112.3 1145.22 1108.68 1159.92 1100.75 C 1164.41 1102.39 1166.62 1107.88 1170.26 1107.39 L 1169.35 1108.4 L 1169.57 1107.28 C 1171.83 1105.85 1172.02 1105.52 1174.64 1105.69 L 1175.87 1106.98 C 1173.6 1112.41 1161.53 1115.96 1155.91 1118.27 C 1149.22 1121.02 1142.49 1123.81 1135.55 1125.87 C 1134.18 1127.59 1134.46 1126.69 1134.3 1128.38 C 1125.08 1132.39 1113.76 1135.28 1103.76 1136.39 C 1086.39 1139.82 1066.21 1143.63 1048.55 1142.49 L 1048.18 1141.96 C 1051.2 1141.17 1056.14 1141.45 1058.4 1139.5 C 1054.88 1137.95 1039.85 1140.16 1034.49 1140.39 C 1028.02 1140.04 1020.73 1139.23 1014.39 1140.57 L 1013.41 1141.49 C 1002.42 1142.66 989.452 1140.29 978.349 1139.65 C 964.41 1139.75 937.713 1135.01 925.217 1129.29 C 913.353 1126.36 867.757 1107.53 860.552 1098.17 L 863.12 1097.4 C 865.357 1096.43 867.449 1095.26 869.576 1094.07 C 869.675 1096 869.805 1097.72 870.288 1099.59 C 872.614 1100.58 872.715 1100.29 875.076 1099.94 C 876.706 1098.16 877.848 1097.26 878.118 1094.76 C 875.701 1092.35 873.756 1093.33 870.952 1091.99 C 862.678 1088.02 852.509 1079.24 844.672 1073.8 C 842.638 1075.02 840.527 1076.05 838.404 1077.1 L 836.096 1076.16 L 836.128 1073.7 C 839.541 1070.95 843.122 1068.24 847.591 1067.71 z"/>
<path transform="translate(0,0)" fill="rgb(214,49,57)" d="M 1768.82 1252.99 C 1780.28 1180.68 1804.91 1120.18 1866.21 1075.43 C 1879.88 1065.45 1894.02 1058.83 1910.48 1054.87 C 1895.11 1066.62 1879.3 1078.13 1865.16 1091.36 C 1815.48 1137.87 1790.07 1196.18 1779.98 1262.57 C 1752.01 1280.52 1731.62 1302.32 1724.38 1335.68 C 1721.72 1347.95 1720.83 1361.24 1721.07 1373.77 C 1680.35 1385.21 1643.48 1411.32 1622.68 1448.62 C 1616.68 1459.37 1613.06 1470.09 1609.56 1481.78 C 1608.55 1489.51 1607.48 1497.23 1606.91 1505 C 1577.01 1527.2 1559.22 1557.21 1550.54 1593.06 C 1559.64 1595.86 1664.63 1594.44 1682.38 1594.49 L 2048 1595.58 L 2048 1684.96 C 2026.95 1684.91 2003.49 1683.25 1982.77 1686.47 C 1953.84 1675.79 1923.31 1674.37 1894.75 1687.96 C 1890.27 1690.09 1882.73 1695.5 1878.18 1696.34 C 1872.5 1695.92 1760.92 1703.15 1760.18 1703.46 C 1722.01 1690.45 1699.99 1690.71 1663.44 1708.86 C 1662.37 1709.39 1661.35 1710.16 1660.14 1710.29 C 1635.86 1710.35 1611.01 1713.51 1586.69 1714.71 C 1572.41 1715.41 1551.01 1714.39 1537.93 1716.53 C 1510.8 1705.11 1479.79 1700.9 1451.85 1713 C 1446.12 1715.48 1440.67 1718.63 1435.04 1721.36 C 1427.32 1720.9 1278.13 1726.12 1276.47 1726.75 L 1276.28 1727.67 C 1267.66 1726.79 1259.2 1726.01 1250.54 1726.69 C 1243.53 1727.25 1230.45 1730.74 1224.2 1729.77 C 1217.93 1729.47 1211.7 1730.48 1205.44 1730.84 A 752.428 752.428 0 0 1 1174.76 1731.83 L 1095.18 1732.25 C 1082.18 1732.33 1067.47 1731.14 1054.78 1733.58 C 1035.13 1730.91 1018.61 1731.43 998.992 1733.4 C 996.911 1732.28 995.294 1732.21 992.976 1732.05 C 958.664 1729.81 923.857 1730 889.469 1728.81 C 865.668 1727.99 840.736 1725.19 817.01 1726.2 C 813.486 1726.4 809.555 1725.5 805.994 1725.26 C 797.901 1724.72 789.955 1725.02 781.89 1725.75 L 780.987 1724.36 C 767.334 1721.66 751.485 1722.72 737.502 1722.18 L 641.972 1718.98 C 628.809 1718.63 614.947 1716.28 601.865 1717.41 C 591.459 1716.21 582.028 1711.82 571.131 1711.76 C 561.029 1711.7 551.401 1715.41 541.474 1715.92 C 541.083 1715.94 540.691 1715.93 540.299 1715.93 C 529.581 1712.77 515.7 1714.48 504.481 1714.06 L 437.911 1710.99 C 424.818 1710.29 411.055 1707.57 398.028 1708.22 C 392.79 1705.35 387.528 1702.38 382.002 1700.1 C 350.758 1687.21 317.605 1691.04 286.982 1703.59 C 275.248 1702.06 262.463 1702.47 250.581 1701.81 C 225.337 1700.4 200.335 1698.69 175.16 1696.56 C 169.143 1694.34 163.455 1689.22 157.669 1686.2 C 128.95 1671.16 98.2923 1675.44 68.8841 1685.39 C 59.6902 1681.28 12.5631 1684.87 0 1685.2 L 0 1597.99 L 402.842 1597.21 C 420.672 1597.06 490.775 1598.71 501.224 1595.18 L 501.945 1592.88 A 187.739 187.739 0 0 0 471.206 1528.35 C 466.769 1522.27 461.6 1516.84 457.26 1510.67 L 457.597 1509.27 C 458.603 1508.9 459.471 1508.53 460.554 1508.38 C 462.596 1508.1 464.292 1509.47 465.812 1510.63 C 488.977 1528.21 501.969 1565.43 505.505 1593.22 C 506.209 1594.47 506.248 1595.42 507.747 1595.78 C 516.108 1597.75 543.17 1595.94 553.327 1595.93 C 599.476 1595.87 645.555 1594.33 691.694 1594.1 C 708.979 1594.01 726.373 1593.49 743.642 1594.24 C 731.464 1570.65 718.952 1548.44 713.401 1522.1 C 707.993 1502.18 707.19 1482.89 706.861 1462.39 C 706.41 1433.37 713.843 1403.1 725.272 1376.58 C 758.89 1381.96 774.93 1390.83 800.605 1412.89 C 805.009 1425.84 807.787 1439.44 811.659 1452.57 C 816.944 1470.5 823.55 1487.8 830.511 1505.14 C 832.417 1509.33 834.244 1513.65 835.503 1518.09 C 838.505 1528.68 851.94 1587.22 851.838 1594.96 C 853.629 1597.13 855.811 1600.52 857.944 1602.25 C 860.887 1601.38 861.788 1601.23 864.544 1602.66 C 869.061 1605 872.842 1608.14 877.606 1610.14 C 878.518 1608.76 879.187 1608.06 880.583 1607.18 C 874.066 1621.12 871.913 1633.09 877.117 1648.1 C 882.409 1663.36 894.057 1674.51 908.498 1681.12 C 919.612 1686.21 930.565 1688.1 942.508 1689.96 C 944.71 1691.09 944.727 1690.93 947.166 1690.35 C 952.215 1690.18 957.382 1690.24 962.404 1689.73 L 970.468 1689.32 C 976.648 1689.79 981.69 1689.22 987.456 1686.87 C 990.09 1686.45 991.937 1686.08 994.346 1684.83 C 997.362 1684.54 1000.1 1683.92 1002.89 1682.68 C 1009.61 1679.68 1014.52 1675.02 1017 1668.03 C 1023.72 1649.06 1015.43 1630.04 1007.52 1613.19 C 1012.19 1615.54 1015.29 1623.98 1016.91 1628.86 C 1018.9 1634.85 1019.96 1640.67 1020.44 1646.97 C 1025.21 1647.15 1032.19 1648.37 1036.44 1646.12 C 1039.66 1642.7 1039.68 1638.5 1042.46 1635.08 C 1039.77 1645.82 1036.6 1660.5 1042.77 1670.54 C 1044.11 1672.73 1045.98 1674.35 1048.02 1675.85 C 1051.18 1678.35 1053.52 1680.61 1057.63 1681.06 C 1062.83 1683.73 1068.23 1686.82 1074.2 1687.09 C 1077.85 1688.16 1080.5 1688.79 1084.31 1688.45 C 1089.69 1688.68 1096.31 1689.65 1101.48 1688.02 C 1103.96 1689.14 1106.54 1689.41 1109.2 1688.7 C 1109.52 1688.61 1109.82 1688.45 1110.12 1688.32 C 1139.42 1684.98 1153.89 1675.49 1173.67 1654.48 C 1173.75 1654.99 1173.83 1655.5 1173.89 1656.01 C 1174.31 1659.33 1174.55 1661.99 1176.24 1664.97 C 1179.29 1670.35 1184.13 1672.09 1189.79 1673.72 L 1195.69 1674.08 C 1200.72 1677.14 1211.24 1677.14 1217.01 1676.45 L 1225.63 1675.87 C 1231.51 1676.87 1237.34 1676.78 1243.24 1676.02 C 1245.91 1676.05 1248.01 1675.84 1250.61 1675.25 C 1261.87 1675.39 1273.66 1672.91 1284.13 1668.8 C 1297.57 1663.54 1310.37 1654.19 1316 1640.48 C 1320.54 1629.45 1319.2 1618.51 1314.64 1607.77 C 1308.02 1598.54 1299.67 1592.95 1289.33 1588.54 C 1268.86 1579.8 1243.06 1577.9 1221.97 1585.74 C 1214.77 1588.42 1208.51 1593.17 1201.44 1595.91 L 1200.19 1596.39 L 1200.36 1595.61 C 1206.88 1588.13 1224.57 1582.82 1234.23 1580.92 C 1250.92 1577.65 1272.57 1579.11 1288.18 1586.04 C 1296.54 1589.75 1304.26 1595.54 1311.82 1600.65 C 1314.51 1598.92 1315.13 1596.93 1316.64 1594.15 C 1335.23 1593.2 1353.96 1593.66 1372.58 1593.53 A 6021.37 6021.37 0 0 1 1474.53 1593.23 C 1487.41 1593.31 1538.97 1595.38 1546.35 1593.04 L 1547.55 1590.26 C 1548.4 1577.05 1550.62 1564.54 1555.82 1552.29 C 1564.71 1531.36 1583.1 1512.33 1604.24 1503.77 C 1603.32 1495.1 1603.28 1487.1 1604.18 1478.43 C 1604.35 1449.25 1622.4 1419.49 1642.57 1399.6 C 1662.01 1380.41 1683.43 1369.3 1709.63 1362.19 C 1709.97 1328.76 1716.6 1297.56 1741.15 1273.25 C 1749.39 1265.1 1758.84 1258.8 1768.82 1252.99 z"/>
<path transform="translate(0,0)" fill="rgb(175,30,53)" d="M 845.269 1678.06 C 847.193 1677.85 849.122 1677.61 851.022 1677.24 C 857.654 1675.91 863.19 1673.94 866.892 1667.95 C 873.257 1657.65 869.465 1638.45 866.665 1627.3 C 862.63 1611.25 854.902 1596.96 840.175 1588.36 C 823.196 1578.45 795.902 1575.72 777.397 1582.39 C 770.692 1584.8 764.45 1590.27 757.934 1592.01 L 758.475 1590.82 C 769.584 1583.58 780.385 1578.54 793.731 1577.18 C 814.998 1575.01 835.442 1581.47 851.838 1594.96 C 853.629 1597.13 855.811 1600.52 857.944 1602.25 C 860.887 1601.38 861.788 1601.23 864.544 1602.66 C 869.061 1605 872.842 1608.14 877.606 1610.14 C 878.518 1608.76 879.187 1608.06 880.583 1607.18 C 874.066 1621.12 871.913 1633.09 877.117 1648.1 C 882.409 1663.36 894.057 1674.51 908.498 1681.12 C 919.612 1686.21 930.565 1688.1 942.508 1689.96 C 944.71 1691.09 944.727 1690.93 947.166 1690.35 C 952.215 1690.18 957.382 1690.24 962.404 1689.73 L 970.468 1689.32 C 976.648 1689.79 981.69 1689.22 987.456 1686.87 C 990.09 1686.45 991.937 1686.08 994.346 1684.83 C 997.362 1684.54 1000.1 1683.92 1002.89 1682.68 C 1009.61 1679.68 1014.52 1675.02 1017 1668.03 C 1023.72 1649.06 1015.43 1630.04 1007.52 1613.19 C 1012.19 1615.54 1015.29 1623.98 1016.91 1628.86 C 1018.9 1634.85 1019.96 1640.67 1020.44 1646.97 C 1025.21 1647.15 1032.19 1648.37 1036.44 1646.12 C 1039.66 1642.7 1039.68 1638.5 1042.46 1635.08 C 1039.77 1645.82 1036.6 1660.5 1042.77 1670.54 C 1044.11 1672.73 1045.98 1674.35 1048.02 1675.85 C 1051.18 1678.35 1053.52 1680.61 1057.63 1681.06 C 1062.83 1683.73 1068.23 1686.82 1074.2 1687.09 C 1077.85 1688.16 1080.5 1688.79 1084.31 1688.45 C 1089.69 1688.68 1096.31 1689.65 1101.48 1688.02 C 1103.96 1689.14 1106.54 1689.41 1109.2 1688.7 C 1109.52 1688.61 1109.82 1688.45 1110.12 1688.32 C 1139.42 1684.98 1153.89 1675.49 1173.67 1654.48 C 1173.75 1654.99 1173.83 1655.5 1173.89 1656.01 C 1174.31 1659.33 1174.55 1661.99 1176.24 1664.97 C 1179.29 1670.35 1184.13 1672.09 1189.79 1673.72 L 1195.69 1674.08 C 1200.72 1677.14 1211.24 1677.14 1217.01 1676.45 L 1225.63 1675.87 C 1231.51 1676.87 1237.34 1676.78 1243.24 1676.02 C 1245.91 1676.05 1248.01 1675.84 1250.61 1675.25 C 1261.87 1675.39 1273.66 1672.91 1284.13 1668.8 C 1297.57 1663.54 1310.37 1654.19 1316 1640.48 C 1320.54 1629.45 1319.2 1618.51 1314.64 1607.77 C 1315.01 1607.91 1315.38 1608.06 1315.75 1608.2 C 1332.51 1614.44 1388.35 1621.59 1395.96 1636.51 C 1397.32 1639.19 1397.07 1642.18 1395.75 1644.82 C 1387.82 1660.63 1350.85 1673.71 1334.99 1678.25 C 1246.24 1703.64 1144.29 1706.15 1052.23 1704.93 C 1020.22 1704.5 988.225 1704.36 956.25 1702.64 A 1680.49 1680.49 0 0 1 774.235 1682.06 C 739.958 1676.21 694.486 1669.89 664.029 1652.83 C 659.713 1650.41 653.654 1646.59 652.553 1641.33 C 652.044 1638.89 653.006 1636.6 654.585 1634.8 C 668.931 1618.38 704.309 1617.77 724.419 1617.12 A 429.992 429.992 0 0 1 741.212 1617.03 C 740.448 1630.61 741.831 1641.78 751.262 1652.4 C 765.771 1668.74 791.448 1674.89 812.199 1677.66 C 814.77 1677.93 816.404 1678.37 818.737 1677.03 C 823.561 1679.92 834.367 1679.48 839.906 1678.38 L 845.269 1678.06 z"/>
<path transform="translate(0,0)" fill="rgb(239,237,187)" d="M 857.944 1602.25 C 860.887 1601.38 861.788 1601.23 864.544 1602.66 C 869.061 1605 872.842 1608.14 877.606 1610.14 C 874.151 1618.55 872.853 1625.07 872.849 1634.16 C 873.286 1640.16 875.22 1645.22 876.979 1650.9 C 877.839 1653.68 878.89 1656.56 877.523 1659.2 L 874.966 1659.06 C 870.169 1654.49 870.56 1638.37 869.568 1631.66 C 866.587 1620.85 863.841 1611.91 857.944 1602.25 z"/>
<path transform="translate(0,0)" fill="rgb(239,237,187)" d="M 725.272 1376.58 C 758.89 1381.96 774.93 1390.83 800.605 1412.89 C 805.009 1425.84 807.787 1439.44 811.659 1452.57 C 816.944 1470.5 823.55 1487.8 830.511 1505.14 C 832.417 1509.33 834.244 1513.65 835.503 1518.09 C 838.505 1528.68 851.94 1587.22 851.838 1594.96 C 835.442 1581.47 814.998 1575.01 793.731 1577.18 C 780.385 1578.54 769.584 1583.58 758.475 1590.82 L 757.934 1592.01 C 764.45 1590.27 770.692 1584.8 777.397 1582.39 C 795.902 1575.72 823.196 1578.45 840.175 1588.36 C 854.902 1596.96 862.63 1611.25 866.665 1627.3 C 869.465 1638.45 873.257 1657.65 866.892 1667.95 C 863.19 1673.94 857.654 1675.91 851.022 1677.24 C 849.122 1677.61 847.193 1677.85 845.269 1678.06 L 839.906 1678.38 C 834.367 1679.48 823.561 1679.92 818.737 1677.03 C 816.404 1678.37 814.77 1677.93 812.199 1677.66 C 791.448 1674.89 765.771 1668.74 751.262 1652.4 C 741.831 1641.78 740.448 1630.61 741.212 1617.03 C 743.435 1609.21 746.907 1602.34 752.758 1596.63 L 753.883 1595.55 L 753.566 1594.7 L 749.548 1597.39 C 746.269 1597.46 745.985 1596.41 743.642 1594.24 C 731.464 1570.65 718.952 1548.44 713.401 1522.1 C 707.993 1502.18 707.19 1482.89 706.861 1462.39 C 706.41 1433.37 713.843 1403.1 725.272 1376.58 z"/>
<path transform="translate(0,0)" fill="rgb(21,26,37)" d="M 839.906 1678.38 C 840.286 1672.3 839.516 1636.25 840.013 1635.09 C 840.349 1634.31 840.968 1633.68 841.446 1632.98 C 842.728 1633.25 843.587 1634.49 844.313 1635.52 C 851.449 1645.64 847.431 1666.85 845.269 1678.06 L 839.906 1678.38 z"/>
<path transform="translate(0,0)" fill="rgb(21,26,37)" d="M 812.199 1677.66 C 812.017 1668.3 806.839 1637.57 810.052 1631.48 L 811.773 1631.74 C 820.217 1641.94 819.138 1664.5 818.737 1677.03 C 816.404 1678.37 814.77 1677.93 812.199 1677.66 z"/>
<path transform="translate(0,0)" fill="rgb(214,49,57)" d="M 706.861 1462.39 C 718.561 1460.39 727.126 1460.72 737.241 1467.93 C 746.779 1474.73 756.064 1486.54 757.607 1498.4 C 758.449 1504.87 756.912 1511.89 752.611 1516.91 C 747.731 1522.61 739.783 1525.74 732.392 1526.1 C 725.698 1526.43 719.757 1523.7 713.401 1522.1 C 707.993 1502.18 707.19 1482.89 706.861 1462.39 z"/>
<path transform="translate(0,0)" fill="rgb(239,237,187)" d="M 829.794 1082.04 L 831.776 1080.71 C 838.199 1083.33 850.482 1094.25 854.656 1094.98 C 856.213 1095.25 857.983 1094.08 859.39 1093.5 L 861.338 1089.89 L 862.627 1089.74 L 863.574 1090.98 C 863.009 1093.5 862.306 1094.88 863.12 1097.4 L 860.552 1098.17 C 867.757 1107.53 913.353 1126.36 925.217 1129.29 C 937.713 1135.01 964.41 1139.75 978.349 1139.65 C 989.452 1140.29 1002.42 1142.66 1013.41 1141.49 L 1014.39 1140.57 C 1020.73 1139.23 1028.02 1140.04 1034.49 1140.39 C 1039.85 1140.16 1054.88 1137.95 1058.4 1139.5 C 1056.14 1141.45 1051.2 1141.17 1048.18 1141.96 L 1048.55 1142.49 C 1066.21 1143.63 1086.39 1139.82 1103.76 1136.39 C 1113.76 1135.28 1125.08 1132.39 1134.3 1128.38 C 1157.96 1124 1193.05 1103.02 1210.73 1087.11 C 1211.52 1090.36 1212.42 1093.56 1213.38 1096.77 C 1257.09 1151.88 1273.87 1223.78 1272.51 1292.9 C 1272.35 1301.02 1272.66 1309.55 1271.83 1317.63 C 1271.81 1317.88 1271.77 1318.14 1271.73 1318.4 C 1292.93 1328.65 1307.67 1342.32 1320.46 1362.06 C 1340.15 1394.2 1349.31 1424.08 1351.1 1461.88 C 1351.38 1484.97 1347.87 1505.7 1343.47 1528.25 C 1339.83 1541.31 1336.03 1554.56 1330.35 1566.9 C 1326.11 1576.08 1320.45 1584.85 1316.64 1594.15 C 1315.13 1596.93 1314.51 1598.92 1311.82 1600.65 C 1304.26 1595.54 1296.54 1589.75 1288.18 1586.04 C 1272.57 1579.11 1250.92 1577.65 1234.23 1580.92 C 1224.57 1582.82 1206.88 1588.13 1200.36 1595.61 L 1200.19 1596.39 L 1201.44 1595.91 C 1208.51 1593.17 1214.77 1588.42 1221.97 1585.74 C 1243.06 1577.9 1268.86 1579.8 1289.33 1588.54 C 1299.67 1592.95 1308.02 1598.54 1314.64 1607.77 C 1319.2 1618.51 1320.54 1629.45 1316 1640.48 C 1310.37 1654.19 1297.57 1663.54 1284.13 1668.8 C 1273.66 1672.91 1261.87 1675.39 1250.61 1675.25 C 1248.01 1675.84 1245.91 1676.05 1243.24 1676.02 C 1237.34 1676.78 1231.51 1676.87 1225.63 1675.87 L 1217.01 1676.45 C 1211.24 1677.14 1200.72 1677.14 1195.69 1674.08 L 1189.79 1673.72 C 1184.13 1672.09 1179.29 1670.35 1176.24 1664.97 C 1174.55 1661.99 1174.31 1659.33 1173.89 1656.01 C 1173.83 1655.5 1173.75 1654.99 1173.67 1654.48 C 1153.89 1675.49 1139.42 1684.98 1110.12 1688.32 C 1109.82 1688.45 1109.52 1688.61 1109.2 1688.7 C 1106.54 1689.41 1103.96 1689.14 1101.48 1688.02 C 1096.31 1689.65 1089.69 1688.68 1084.31 1688.45 C 1080.5 1688.79 1077.85 1688.16 1074.2 1687.09 C 1068.23 1686.82 1062.83 1683.73 1057.63 1681.06 C 1053.52 1680.61 1051.18 1678.35 1048.02 1675.85 C 1045.98 1674.35 1044.11 1672.73 1042.77 1670.54 C 1036.6 1660.5 1039.77 1645.82 1042.46 1635.08 C 1039.68 1638.5 1039.66 1642.7 1036.44 1646.12 C 1032.19 1648.37 1025.21 1647.15 1020.44 1646.97 C 1019.96 1640.67 1018.9 1634.85 1016.91 1628.86 C 1015.29 1623.98 1012.19 1615.54 1007.52 1613.19 C 1015.43 1630.04 1023.72 1649.06 1017 1668.03 C 1014.52 1675.02 1009.61 1679.68 1002.89 1682.68 C 1000.1 1683.92 997.362 1684.54 994.346 1684.83 C 991.937 1686.08 990.09 1686.45 987.456 1686.87 C 981.69 1689.22 976.648 1689.79 970.468 1689.32 L 962.404 1689.73 C 957.382 1690.24 952.215 1690.18 947.166 1690.35 C 944.727 1690.93 944.71 1691.09 942.508 1689.96 C 930.565 1688.1 919.612 1686.21 908.498 1681.12 C 894.057 1674.51 882.409 1663.36 877.117 1648.1 C 871.913 1633.09 874.066 1621.12 880.583 1607.18 C 879.187 1608.06 878.518 1608.76 877.606 1610.14 C 872.842 1608.14 869.061 1605 864.544 1602.66 C 861.788 1601.23 860.887 1601.38 857.944 1602.25 C 855.811 1600.52 853.629 1597.13 851.838 1594.96 C 851.94 1587.22 838.505 1528.68 835.503 1518.09 C 834.244 1513.65 832.417 1509.33 830.511 1505.14 C 823.55 1487.8 816.944 1470.5 811.659 1452.57 C 807.787 1439.44 805.009 1425.84 800.605 1412.89 C 774.93 1390.83 758.89 1381.96 725.272 1376.58 C 734.153 1356.42 749.215 1336.16 768.077 1324.3 C 773.177 1321.1 780.653 1318.67 784.614 1314.21 C 784.14 1310.71 783.968 1307.18 783.721 1303.66 C 793.424 1291.75 802.494 1279.69 809.511 1265.97 C 831.75 1222.47 835.464 1166.03 831.224 1118 C 830.471 1109.47 826.262 1090.23 829.831 1083.2 L 829.794 1082.04 z"/>
<path transform="translate(0,0)" fill="rgb(21,26,37)" d="M 1189.79 1673.72 C 1185.58 1663.29 1184.01 1645.77 1188.31 1634.95 C 1189.23 1632.64 1190.69 1630.15 1192.93 1628.94 C 1194.56 1630.65 1194.13 1632.35 1194.05 1634.67 C 1193.59 1648.95 1191.89 1659.95 1195.69 1674.08 L 1189.79 1673.72 z"/>
<path transform="translate(0,0)" fill="rgb(21,26,37)" d="M 1048.02 1675.85 C 1045.81 1666.67 1044.03 1644.63 1049.87 1636.84 C 1051.56 1634.58 1052.56 1634.74 1055.12 1634.64 C 1057.97 1645.15 1045.01 1662.27 1057.63 1681.06 C 1053.52 1680.61 1051.18 1678.35 1048.02 1675.85 z"/>
<path transform="translate(0,0)" fill="rgb(21,26,37)" d="M 1243.24 1676.02 C 1242.3 1674.49 1241.32 1672.9 1240.69 1671.21 C 1237.53 1662.75 1239.49 1649.75 1243.23 1641.77 C 1244.65 1638.77 1246.79 1636.9 1249.9 1635.84 L 1250.93 1636.85 C 1250.92 1637.18 1250.97 1637.52 1250.91 1637.84 C 1248.28 1651.65 1247.02 1661.29 1250.61 1675.25 C 1248.01 1675.84 1245.91 1676.05 1243.24 1676.02 z"/>
<path transform="translate(0,0)" fill="rgb(21,26,37)" d="M 1217.01 1676.45 C 1215.68 1673.26 1214.2 1669.9 1213.7 1666.45 C 1212.62 1659.03 1213.25 1640.31 1217.93 1634.49 C 1219.02 1633.13 1219.59 1633.43 1221.18 1633.22 C 1222.62 1634.38 1223.69 1634.92 1223.72 1637.01 C 1223.91 1651.09 1217.55 1660.57 1224.97 1674.63 L 1225.63 1675.87 L 1217.01 1676.45 z"/>
<path transform="translate(0,0)" fill="rgb(21,26,37)" d="M 1074.2 1687.09 C 1071.64 1676.65 1070.03 1656.02 1076.53 1646.56 C 1077.41 1645.27 1077.51 1645.3 1078.55 1644.46 L 1081.07 1644.24 C 1087.18 1652.94 1072.73 1674.84 1084.31 1688.45 C 1080.5 1688.79 1077.85 1688.16 1074.2 1687.09 z"/>
<path transform="translate(0,0)" fill="rgb(21,26,37)" d="M 1101.48 1688.02 C 1097.83 1677.54 1095.89 1664.98 1100.92 1654.59 C 1102.49 1651.33 1104.22 1649.15 1107.46 1647.42 L 1109.54 1647.89 C 1112.37 1653.29 1107.39 1664.4 1107.24 1670.77 C 1107.09 1677.02 1108.44 1682.4 1110.12 1688.32 C 1109.82 1688.45 1109.52 1688.61 1109.2 1688.7 C 1106.54 1689.41 1103.96 1689.14 1101.48 1688.02 z"/>
<path transform="translate(0,0)" fill="rgb(214,49,57)" d="M 1343.47 1528.25 C 1332.55 1526.75 1322.89 1524.5 1315.36 1515.69 A 30.5808 30.5808 0 0 1 1308.11 1491.97 C 1309.32 1482.58 1314.77 1473.89 1322.31 1468.26 C 1330.91 1461.82 1340.69 1460.2 1351.1 1461.88 C 1351.38 1484.97 1347.87 1505.7 1343.47 1528.25 z"/>
<path transform="translate(0,0)" fill="rgb(165,207,156)" d="M 1271.73 1318.4 C 1292.93 1328.65 1307.67 1342.32 1320.46 1362.06 C 1310.64 1371.87 1300.83 1382.83 1289.82 1391.28 C 1280.89 1398.14 1270.64 1403.42 1262.33 1411.05 C 1259.19 1421.09 1255.38 1430.87 1252.23 1440.88 C 1241.45 1475.12 1230.92 1509.06 1216.93 1542.2 C 1213.13 1551.21 1209.48 1561.23 1203.8 1569.19 L 1203.28 1568.51 L 1204.64 1569.03 L 1203.45 1567.5 C 1204.72 1562.08 1208.92 1556.59 1211.12 1551.27 C 1218.12 1534.35 1226.22 1514.37 1232.28 1497.17 C 1247.2 1454.89 1259.11 1409.69 1266.23 1365.4 C 1268.73 1349.83 1269.72 1334.04 1271.73 1318.4 z"/>
<path transform="translate(0,0)" fill="rgb(165,207,156)" d="M 1024.5 1281.81 C 1028.32 1281.76 1032.13 1281.5 1035.94 1281.28 C 1048.23 1301.66 1065.83 1318.79 1089.57 1324.51 C 1105.23 1328.28 1119.42 1325.28 1132.96 1316.92 C 1138.68 1313.39 1143.84 1309.08 1148.81 1304.58 C 1147.1 1315.2 1145.21 1325.53 1141.74 1335.76 C 1135.53 1354.04 1126.68 1370.91 1121.36 1389.64 C 1115.08 1411.78 1111.22 1434.84 1106.94 1457.44 L 1087.42 1560.25 C 1086.18 1566.49 1080.87 1580.22 1081.59 1585.6 L 1083.23 1586.69 C 1059.94 1603.76 1054.85 1608.93 1042.46 1635.08 C 1039.68 1638.5 1039.66 1642.7 1036.44 1646.12 C 1032.19 1648.37 1025.21 1647.15 1020.44 1646.97 C 1019.96 1640.67 1018.9 1634.85 1016.91 1628.86 C 1015.29 1623.98 1012.19 1615.54 1007.52 1613.19 C 998.681 1604.71 992.072 1595.97 981.368 1589.43 L 981.866 1589.91 C 980.889 1572.41 973.58 1554.01 970.355 1536.63 C 961.794 1490.5 955.852 1444.83 942.159 1399.78 C 936.28 1380.43 927.678 1362.7 920.47 1343.91 C 915.837 1331.83 912.349 1319.3 908.852 1306.86 C 925.95 1320.36 939.867 1327.71 962.424 1325.33 C 991.628 1322.24 1007.12 1303.22 1024.5 1281.81 z"/>
<path transform="translate(0,0)" fill="rgb(239,237,187)" d="M 829.794 1082.04 L 831.776 1080.71 C 838.199 1083.33 850.482 1094.25 854.656 1094.98 C 856.213 1095.25 857.983 1094.08 859.39 1093.5 L 861.338 1089.89 L 862.627 1089.74 L 863.574 1090.98 C 863.009 1093.5 862.306 1094.88 863.12 1097.4 L 860.552 1098.17 C 867.757 1107.53 913.353 1126.36 925.217 1129.29 C 937.713 1135.01 964.41 1139.75 978.349 1139.65 C 989.452 1140.29 1002.42 1142.66 1013.41 1141.49 L 1014.39 1140.57 C 1020.73 1139.23 1028.02 1140.04 1034.49 1140.39 C 1039.85 1140.16 1054.88 1137.95 1058.4 1139.5 C 1056.14 1141.45 1051.2 1141.17 1048.18 1141.96 L 1048.55 1142.49 C 1066.21 1143.63 1086.39 1139.82 1103.76 1136.39 C 1113.76 1135.28 1125.08 1132.39 1134.3 1128.38 C 1157.96 1124 1193.05 1103.02 1210.73 1087.11 C 1211.52 1090.36 1212.42 1093.56 1213.38 1096.77 C 1176.01 1139.48 1112.08 1152.48 1058.18 1156.15 C 1078.11 1166.22 1088.66 1182.57 1095.56 1203.31 C 1096.19 1207.4 1097.03 1211.58 1097.25 1215.71 C 1096.62 1222.48 1095.24 1228.81 1093.63 1235.4 C 1091.82 1239.38 1090.17 1243.51 1087.72 1247.15 C 1078.73 1261.85 1066.31 1273.35 1049.17 1277.52 C 1044.81 1278.87 1040.43 1280.42 1035.94 1281.28 C 1032.13 1281.5 1028.32 1281.76 1024.5 1281.81 C 1007.12 1303.22 991.628 1322.24 962.424 1325.33 C 939.867 1327.71 925.95 1320.36 908.852 1306.86 C 912.349 1319.3 915.837 1331.83 920.47 1343.91 C 927.678 1362.7 936.28 1380.43 942.159 1399.78 C 955.852 1444.83 961.794 1490.5 970.355 1536.63 C 973.58 1554.01 980.889 1572.41 981.866 1589.91 L 981.368 1589.43 C 992.072 1595.97 998.681 1604.71 1007.52 1613.19 C 1015.43 1630.04 1023.72 1649.06 1017 1668.03 C 1014.52 1675.02 1009.61 1679.68 1002.89 1682.68 C 1000.1 1683.92 997.362 1684.54 994.346 1684.83 C 991.937 1686.08 990.09 1686.45 987.456 1686.87 C 981.69 1689.22 976.648 1689.79 970.468 1689.32 L 962.404 1689.73 C 957.382 1690.24 952.215 1690.18 947.166 1690.35 C 944.727 1690.93 944.71 1691.09 942.508 1689.96 C 930.565 1688.1 919.612 1686.21 908.498 1681.12 C 894.057 1674.51 882.409 1663.36 877.117 1648.1 C 871.913 1633.09 874.066 1621.12 880.583 1607.18 C 879.187 1608.06 878.518 1608.76 877.606 1610.14 C 872.842 1608.14 869.061 1605 864.544 1602.66 C 861.788 1601.23 860.887 1601.38 857.944 1602.25 C 855.811 1600.52 853.629 1597.13 851.838 1594.96 C 851.94 1587.22 838.505 1528.68 835.503 1518.09 C 834.244 1513.65 832.417 1509.33 830.511 1505.14 C 823.55 1487.8 816.944 1470.5 811.659 1452.57 C 807.787 1439.44 805.009 1425.84 800.605 1412.89 C 774.93 1390.83 758.89 1381.96 725.272 1376.58 C 734.153 1356.42 749.215 1336.16 768.077 1324.3 C 773.177 1321.1 780.653 1318.67 784.614 1314.21 C 784.14 1310.71 783.968 1307.18 783.721 1303.66 C 793.424 1291.75 802.494 1279.69 809.511 1265.97 C 831.75 1222.47 835.464 1166.03 831.224 1118 C 830.471 1109.47 826.262 1090.23 829.831 1083.2 L 829.794 1082.04 z"/>
<path transform="translate(0,0)" fill="rgb(21,26,37)" d="M 942.508 1689.96 C 942.107 1678.48 939.053 1665.62 941.459 1654.35 L 942.421 1654.17 C 946.854 1664 947.082 1679.55 947.166 1690.35 C 944.727 1690.93 944.71 1691.09 942.508 1689.96 z"/>
<path transform="translate(0,0)" fill="rgb(21,26,37)" d="M 962.404 1689.73 L 962.942 1688.57 C 970.55 1671.85 959.154 1652.59 962.53 1646.81 L 964.35 1646.25 C 969.04 1649.35 970.767 1656.92 971.835 1662.21 C 973.669 1671.28 973.649 1680.55 970.468 1689.32 L 962.404 1689.73 z"/>
<path transform="translate(0,0)" fill="rgb(21,26,37)" d="M 987.456 1686.87 C 1001.02 1670.12 986.227 1650.17 990.576 1642.18 C 991.447 1642.07 992.866 1641.85 993.71 1642.02 C 996.067 1642.5 997.47 1644.13 998.563 1646.13 C 1004.37 1656.73 998.585 1674.83 994.346 1684.83 C 991.937 1686.08 990.09 1686.45 987.456 1686.87 z"/>
<path transform="translate(0,0)" fill="rgb(165,207,156)" d="M 784.614 1314.21 C 787.54 1323.4 788.552 1333.71 790.053 1343.24 C 792.965 1361.75 795.464 1380.57 799.705 1398.82 A 749.989 749.989 0 0 0 820.071 1471.46 C 823.844 1482.72 829.223 1493.85 832.392 1505.24 C 840.3 1516.51 845.68 1534.11 851.524 1546.88 C 859.706 1564.75 871.589 1583.72 883.464 1599.37 C 888.366 1595.71 892.863 1591.13 898.559 1588.79 L 899.033 1590.14 L 897.594 1591.11 C 890.949 1595.65 885.716 1601.02 880.583 1607.18 C 879.187 1608.06 878.518 1608.76 877.606 1610.14 C 872.842 1608.14 869.061 1605 864.544 1602.66 C 861.788 1601.23 860.887 1601.38 857.944 1602.25 C 855.811 1600.52 853.629 1597.13 851.838 1594.96 C 851.94 1587.22 838.505 1528.68 835.503 1518.09 C 834.244 1513.65 832.417 1509.33 830.511 1505.14 C 823.55 1487.8 816.944 1470.5 811.659 1452.57 C 807.787 1439.44 805.009 1425.84 800.605 1412.89 C 774.93 1390.83 758.89 1381.96 725.272 1376.58 C 734.153 1356.42 749.215 1336.16 768.077 1324.3 C 773.177 1321.1 780.653 1318.67 784.614 1314.21 z"/>
<path transform="translate(0,0)" fill="rgb(214,49,57)" d="M 829.794 1082.04 L 831.776 1080.71 C 838.199 1083.33 850.482 1094.25 854.656 1094.98 C 856.213 1095.25 857.983 1094.08 859.39 1093.5 L 861.338 1089.89 L 862.627 1089.74 L 863.574 1090.98 C 863.009 1093.5 862.306 1094.88 863.12 1097.4 L 860.552 1098.17 C 867.757 1107.53 913.353 1126.36 925.217 1129.29 C 937.713 1135.01 964.41 1139.75 978.349 1139.65 C 989.452 1140.29 1002.42 1142.66 1013.41 1141.49 L 1014.39 1140.57 C 1020.73 1139.23 1028.02 1140.04 1034.49 1140.39 C 1039.85 1140.16 1054.88 1137.95 1058.4 1139.5 C 1056.14 1141.45 1051.2 1141.17 1048.18 1141.96 L 1048.55 1142.49 C 1066.21 1143.63 1086.39 1139.82 1103.76 1136.39 C 1113.76 1135.28 1125.08 1132.39 1134.3 1128.38 C 1157.96 1124 1193.05 1103.02 1210.73 1087.11 C 1211.52 1090.36 1212.42 1093.56 1213.38 1096.77 C 1176.01 1139.48 1112.08 1152.48 1058.18 1156.15 C 1078.11 1166.22 1088.66 1182.57 1095.56 1203.31 C 1096.19 1207.4 1097.03 1211.58 1097.25 1215.71 C 1096.62 1222.48 1095.24 1228.81 1093.63 1235.4 C 1091.82 1239.38 1090.17 1243.51 1087.72 1247.15 C 1078.73 1261.85 1066.31 1273.35 1049.17 1277.52 C 1044.81 1278.87 1040.43 1280.42 1035.94 1281.28 C 1032.13 1281.5 1028.32 1281.76 1024.5 1281.81 C 1017.68 1280.98 1011.53 1279.92 1005.04 1277.58 C 989.962 1272.89 975.645 1260.82 967.42 1247.45 C 965.451 1244.05 963.88 1240.32 962.172 1236.77 C 958.386 1229.99 958.329 1221.78 958.697 1214.24 L 959.731 1204.69 C 960.275 1202.69 960.875 1200.75 961.581 1198.8 C 968.924 1178.61 985.9 1164.95 1004.96 1156.19 C 973.155 1154.23 942.528 1150.72 912.239 1140.18 C 887.289 1131.5 854.62 1116.9 837.322 1096.17 C 834.115 1092.32 832.011 1087.67 829.831 1083.2 L 829.794 1082.04 z"/>
<path transform="translate(0,0)" fill="rgb(25,50,57)" d="M 1030.68 1167.7 C 1032.04 1167.86 1033.15 1168.11 1034.35 1168.81 C 1039.16 1171.59 1042.28 1176.54 1043.65 1181.84 C 1045.03 1187.22 1044.57 1194.18 1041.62 1198.99 C 1038.9 1203.44 1035.24 1204.11 1030.48 1205.26 C 1025.75 1204.57 1021.87 1204.06 1018.76 1200.1 C 1016.22 1196.89 1015.74 1192.84 1016.42 1188.89 C 1018 1179.7 1023.46 1173.14 1030.68 1167.7 z"/>
<path transform="translate(0,0)" fill="rgb(214,49,57)" d="M 1095.56 1203.31 C 1096.19 1207.4 1097.03 1211.58 1097.25 1215.71 C 1096.62 1222.48 1095.24 1228.81 1093.63 1235.4 C 1091.82 1239.38 1090.17 1243.51 1087.72 1247.15 C 1078.73 1261.85 1066.31 1273.35 1049.17 1277.52 C 1044.81 1278.87 1040.43 1280.42 1035.94 1281.28 C 1032.13 1281.5 1028.32 1281.76 1024.5 1281.81 C 1017.68 1280.98 1011.53 1279.92 1005.04 1277.58 C 989.962 1272.89 975.645 1260.82 967.42 1247.45 C 965.451 1244.05 963.88 1240.32 962.172 1236.77 C 958.386 1229.99 958.329 1221.78 958.697 1214.24 L 959.731 1204.69 C 1001.42 1214.11 1054.6 1217.06 1095.56 1203.31 z"/>
<path transform="translate(0,0)" fill="rgb(21,26,37)" d="M 962.172 1236.77 C 976.965 1237.96 991.692 1240.95 1006.51 1242.35 C 1035.57 1245.11 1065.22 1241.59 1093.63 1235.4 C 1091.82 1239.38 1090.17 1243.51 1087.72 1247.15 C 1050.2 1258.37 1005.42 1253.43 967.42 1247.45 C 965.451 1244.05 963.88 1240.32 962.172 1236.77 z"/>
<path transform="translate(0,0)" fill="rgb(21,26,37)" d="M 1095.56 1203.31 C 1096.19 1207.4 1097.03 1211.58 1097.25 1215.71 C 1086.68 1216.96 1076.21 1219.48 1065.62 1220.87 C 1031.12 1225.4 991.96 1225.74 958.697 1214.24 L 959.731 1204.69 C 1001.42 1214.11 1054.6 1217.06 1095.56 1203.31 z"/>
<path transform="translate(0,0)" fill="rgb(214,49,57)" d="M 967.42 1247.45 C 1005.42 1253.43 1050.2 1258.37 1087.72 1247.15 C 1078.73 1261.85 1066.31 1273.35 1049.17 1277.52 C 1044.81 1278.87 1040.43 1280.42 1035.94 1281.28 C 1032.13 1281.5 1028.32 1281.76 1024.5 1281.81 C 1017.68 1280.98 1011.53 1279.92 1005.04 1277.58 C 989.962 1272.89 975.645 1260.82 967.42 1247.45 z"/>
<path transform="translate(0,0)" fill="rgb(21,26,37)" d="M 1005.04 1277.58 C 1013.31 1273.97 1039.45 1272.88 1047.65 1276.72 C 1048.17 1276.96 1048.66 1277.25 1049.17 1277.52 C 1044.81 1278.87 1040.43 1280.42 1035.94 1281.28 C 1032.13 1281.5 1028.32 1281.76 1024.5 1281.81 C 1017.68 1280.98 1011.53 1279.92 1005.04 1277.58 z"/>
<path transform="translate(0,0)" fill="rgb(21,26,37)" d="M 68.8841 1685.39 C 98.2923 1675.44 128.95 1671.16 157.669 1686.2 C 163.455 1689.22 169.143 1694.34 175.16 1696.56 C 200.335 1698.69 225.337 1700.4 250.581 1701.81 C 262.463 1702.47 275.248 1702.06 286.982 1703.59 C 317.605 1691.04 350.758 1687.21 382.002 1700.1 C 387.528 1702.38 392.79 1705.35 398.028 1708.22 C 411.055 1707.57 424.818 1710.29 437.911 1710.99 L 504.481 1714.06 C 515.7 1714.48 529.581 1712.77 540.299 1715.93 C 540.691 1715.93 541.083 1715.94 541.474 1715.92 C 551.401 1715.41 561.029 1711.7 571.131 1711.76 C 582.028 1711.82 591.459 1716.21 601.865 1717.41 C 614.947 1716.28 628.809 1718.63 641.972 1718.98 L 737.502 1722.18 C 751.485 1722.72 767.334 1721.66 780.987 1724.36 L 781.89 1725.75 C 789.955 1725.02 797.901 1724.72 805.994 1725.26 C 809.555 1725.5 813.486 1726.4 817.01 1726.2 C 840.736 1725.19 865.668 1727.99 889.469 1728.81 C 923.857 1730 958.664 1729.81 992.976 1732.05 C 995.294 1732.21 996.911 1732.28 998.992 1733.4 C 1018.61 1731.43 1035.13 1730.91 1054.78 1733.58 C 1067.47 1731.14 1082.18 1732.33 1095.18 1732.25 L 1174.76 1731.83 A 752.428 752.428 0 0 0 1205.44 1730.84 C 1211.7 1730.48 1217.93 1729.47 1224.2 1729.77 C 1230.45 1730.74 1243.53 1727.25 1250.54 1726.69 C 1259.2 1726.01 1267.66 1726.79 1276.28 1727.67 L 1276.47 1726.75 C 1278.13 1726.12 1427.32 1720.9 1435.04 1721.36 C 1440.67 1718.63 1446.12 1715.48 1451.85 1713 C 1479.79 1700.9 1510.8 1705.11 1537.93 1716.53 C 1551.01 1714.39 1572.41 1715.41 1586.69 1714.71 C 1611.01 1713.51 1635.86 1710.35 1660.14 1710.29 C 1661.35 1710.16 1662.37 1709.39 1663.44 1708.86 C 1699.99 1690.71 1722.01 1690.45 1760.18 1703.46 C 1760.92 1703.15 1872.5 1695.92 1878.18 1696.34 C 1882.73 1695.5 1890.27 1690.09 1894.75 1687.96 C 1923.31 1674.37 1953.84 1675.79 1982.77 1686.47 C 2003.49 1683.25 2026.95 1684.91 2048 1684.96 L 2048 1773.39 L 2048 1801.8 L 2048 1892.65 L 2048 1900.88 L 2048 1972.92 L 2048 2048 L 0 2048 L 0 1972.11 L 0 1903.67 L 0 1895.93 L 0 1795.78 L 0 1779.51 L 0 1685.2 C 12.5631 1684.87 59.6902 1681.28 68.8841 1685.39 z"/>
<path transform="translate(0,0)" fill="rgb(214,49,57)" d="M 0 1895.93 C 48.451 1902.67 96.7918 1905.44 145.49 1909.21 C 171.102 1911.2 196.659 1913.85 222.297 1915.58 L 390.525 1925.43 A 10057.8 10057.8 0 0 0 1030.96 1950.93 C 1050.38 1950.94 1069.87 1949.99 1089.29 1949.68 C 1170.04 1948.43 1250.44 1945.62 1331.11 1942.21 A 10840.4 10840.4 0 0 0 1668.77 1925.66 A 7508.01 7508.01 0 0 0 1906.61 1907.51 C 1953.52 1903.51 2001.68 1901.44 2048 1892.65 L 2048 1900.88 C 2013.51 1907.15 1977.87 1909.21 1943 1912.67 A 8550.83 8550.83 0 0 1 1727.68 1930.05 C 1705.78 1931.46 1683.85 1932.06 1661.96 1933.52 A 11024.8 11024.8 0 0 1 1260.34 1952.71 C 1194.03 1954.91 1127.54 1958.21 1061.18 1958.32 A 10593.5 10593.5 0 0 1 898.592 1956.31 A 7694.12 7694.12 0 0 1 776.768 1953.9 A 13560.3 13560.3 0 0 1 448.894 1936.56 L 241.492 1924.3 C 188.184 1921.07 134.537 1918.47 81.3731 1913.46 C 54.1471 1910.89 27.1447 1906.87 0 1903.67 L 0 1895.93 z"/>
<path transform="translate(0,0)" fill="rgb(253,130,79)" d="M 998.992 1733.4 C 1018.61 1731.43 1035.13 1730.91 1054.78 1733.58 C 1060.03 1735.13 1065.05 1736.89 1070.03 1739.2 A 104.283 104.283 0 0 1 1124.15 1798.43 A 110.488 110.488 0 0 1 1120.66 1883.38 C 1107.87 1910.22 1087.18 1928.34 1059.14 1938 C 1033.27 1946.91 1004.62 1946.03 979.997 1933.68 C 954.624 1920.95 935.511 1897.42 926.933 1870.52 C 917.98 1842.45 919.34 1814.09 933.029 1787.81 C 947.608 1759.82 969.029 1742.75 998.992 1733.4 z"/>
<path transform="translate(0,0)" fill="rgb(21,26,37)" d="M 1013.83 1743.34 C 1036.14 1741.63 1056.34 1744.17 1075.5 1756.58 A 97.7442 97.7442 0 0 1 1117.22 1817.98 A 94.1042 94.1042 0 0 1 1102.85 1889.27 C 1088.16 1911.37 1065.79 1924.67 1040 1929.75 L 1038.89 1929.95 C 1016.17 1933.77 990.292 1926.95 971.756 1913.51 C 951.105 1898.54 938.177 1875.83 934.494 1850.73 C 930.725 1825.05 936.814 1800.96 952.46 1780.24 C 968.092 1759.53 988.068 1746.98 1013.83 1743.34 z"/>
<path transform="translate(0,0)" fill="rgb(25,50,57)" d="M 953.473 1793.58 C 954.852 1791.31 955.592 1788.8 958.165 1787.93 C 958.449 1788.23 959.502 1789.37 959.789 1789.6 C 960.835 1790.41 961.464 1790.83 962.364 1791.84 C 961.23 1794.17 961.337 1794.66 959.01 1795.7 C 957.075 1795.1 955.305 1794.45 953.473 1793.58 z"/>
<path transform="translate(0,0)" fill="rgb(25,50,57)" d="M 1075.14 1896.56 C 1073.33 1894.6 1071.78 1892.92 1070.62 1890.48 L 1072.49 1888.48 C 1075.97 1887.45 1076.15 1890.06 1079.52 1890.32 C 1080.99 1888.82 1081.86 1888.08 1082.18 1885.95 C 1080.54 1885.11 1079.46 1884.47 1078.24 1883.07 C 1078.95 1880.95 1078.59 1881.19 1080.59 1879.71 C 1082.24 1879.71 1083.65 1879.82 1085.21 1879.17 C 1086.49 1878.64 1086.02 1878.71 1086.65 1877.03 C 1085.77 1875.54 1085.31 1874.4 1084.94 1872.71 C 1086.28 1870.74 1086.34 1870.39 1088.55 1869.59 C 1090.15 1871.48 1090.24 1871.78 1090.6 1874.24 C 1093.42 1875.83 1096.33 1875.77 1098.94 1877.29 C 1092.06 1889.63 1083.67 1897.87 1072.85 1906.81 C 1073.15 1905.28 1072.89 1903.4 1072.85 1901.82 C 1068.32 1905.58 1063.95 1908.03 1058.25 1909.59 L 1057.38 1908.96 A 131.08 131.08 0 0 1 1064.31 1902.92 C 1062 1901.5 1061.85 1901.41 1060.78 1898.92 C 1061.96 1896.6 1062.02 1896.72 1064.45 1895.7 C 1065.98 1896.01 1067.18 1896.26 1068.56 1897.03 C 1070.35 1898.03 1073.09 1896.93 1075.14 1896.56 z"/>
<path transform="translate(0,0)" fill="rgb(253,130,79)" d="M 781.89 1725.75 C 789.955 1725.02 797.901 1724.72 805.994 1725.26 C 809.555 1725.5 813.486 1726.4 817.01 1726.2 C 832.202 1730.14 846.313 1734.45 859.441 1743.41 C 880.823 1758 897.949 1783.34 902.518 1808.9 C 907.641 1837.55 899.747 1872.29 882.821 1895.94 C 866.762 1918.38 841.561 1935.03 814.157 1939.36 C 788.066 1943.49 759.43 1937.56 737.952 1921.93 C 713.325 1904.01 696.942 1875.59 692.551 1845.57 C 688.659 1818.98 695.875 1789.95 712.151 1768.51 C 728.938 1746.39 754.176 1729.52 781.89 1725.75 z"/>
<path transform="translate(0,0)" fill="rgb(21,26,37)" d="M 789.608 1737.37 C 810.099 1734.01 836.743 1742.85 853.229 1754.85 A 94.6216 94.6216 0 0 1 890.97 1816.51 A 97.7977 97.7977 0 0 1 871.879 1890.24 C 855.798 1911.57 833.505 1924.07 807.235 1927.84 C 783.3 1929.33 761.163 1923.41 741.847 1908.94 C 721.061 1893.37 708.932 1870.35 705.515 1844.82 C 702.039 1818.86 708.5 1794.14 724.631 1773.46 C 741.31 1752.08 763.008 1740.75 789.608 1737.37 z"/>
<path transform="translate(0,0)" fill="url(#Gradient1)" d="M 867.345 1827.63 C 869.643 1825.21 871.725 1823.34 875.218 1823 C 878.099 1822.72 880.198 1824.02 882.15 1826.04 C 884.22 1828.17 883.693 1829.73 884.607 1832.26 C 884.879 1833.02 885.478 1833.64 885.983 1834.24 C 886.323 1843.76 883.392 1852.62 880.029 1861.39 C 878.661 1856.78 876.74 1855.66 877 1850.58 L 874.835 1850.55 C 872.704 1851.97 872.113 1853.21 871.12 1855.48 C 870.323 1857.3 869.741 1858.74 868.439 1860.27 C 865.999 1860.02 865.687 1859.83 863.722 1858.34 C 862.942 1852.58 867.057 1845.1 867.584 1838.88 C 867.609 1838.58 867.623 1838.28 867.643 1837.98 C 869.086 1836.78 869.31 1836.7 871.043 1836.36 C 872.867 1837.77 871.92 1837.57 873.732 1837.46 C 874.806 1836.59 875.997 1836.08 876.328 1834.66 C 876.928 1832.08 875.699 1828.89 874.205 1826.81 L 872.753 1828.98 C 870.225 1829.75 869.585 1828.78 867.345 1827.63 z"/>
<path transform="translate(0,0)" fill="rgb(253,130,79)" d="M 1224.2 1729.77 C 1230.45 1730.74 1243.53 1727.25 1250.54 1726.69 C 1259.2 1726.01 1267.66 1726.79 1276.28 1727.67 C 1302.32 1730.72 1324.94 1747.18 1340.98 1767.26 C 1359.32 1790.23 1363.87 1819.12 1360.62 1847.77 C 1357.43 1875.83 1345.04 1899.31 1322.75 1916.77 C 1297.82 1936.29 1266.54 1943.61 1235.3 1939.44 C 1209.08 1935.94 1185.83 1920.65 1169.96 1899.8 C 1151.56 1875.6 1144.61 1845.47 1148.82 1815.49 C 1152.53 1789.09 1166.15 1763.24 1187.79 1747.27 C 1198.67 1739.24 1211.25 1733.55 1224.2 1729.77 z"/>
<path transform="translate(0,0)" fill="rgb(21,26,37)" d="M 1160.2 1823.97 C 1161.78 1799.63 1173.97 1777.23 1192.09 1761.15 A 96.6454 96.6454 0 0 1 1262.21 1737.08 C 1287.95 1738.7 1311.57 1751.99 1328.45 1771.2 C 1345.65 1790.78 1351 1815.46 1349.29 1841 C 1347.66 1865.4 1337.4 1888.16 1318.85 1904.32 C 1299.37 1921.3 1271.99 1930.52 1246.18 1928.55 C 1221.32 1926.66 1197 1913.43 1181.06 1894.36 A 86.5845 86.5845 0 0 1 1164.3 1862.1 C 1160.18 1849.29 1159.35 1837.36 1160.2 1823.97 z"/>
<path transform="translate(0,0)" fill="rgb(25,50,57)" d="M 1163.45 1837.55 C 1163.86 1829.69 1164.07 1822.21 1165.61 1814.46 L 1166.76 1821.89 L 1167.3 1814.74 C 1168.01 1818.22 1167.58 1821.69 1167.35 1825.21 C 1165.73 1831.49 1165.85 1840.8 1167.65 1847.04 C 1168.57 1851.73 1169.8 1856.2 1169.55 1861.01 C 1167.39 1858.55 1166.74 1855.72 1166.11 1852.54 C 1164.98 1847.59 1164.26 1842.56 1163.45 1837.55 z"/>
<path transform="translate(0,0)" fill="rgb(25,50,57)" d="M 1318.3 1893.3 L 1318.89 1887.74 C 1317.61 1886.06 1318.13 1886.44 1316.67 1885.44 C 1315.16 1884.39 1313.5 1883.63 1312.45 1882.05 C 1311.72 1880.96 1312.51 1879.71 1312.82 1878.53 C 1313.28 1878.23 1313.83 1878.04 1314.19 1877.63 C 1314.61 1877.16 1314.79 1876.53 1315.08 1875.98 C 1316.34 1875.62 1317.27 1875.24 1318.43 1874.68 C 1318.57 1872.41 1318.39 1870.66 1319.93 1868.84 C 1322.15 1868.61 1322.02 1868.15 1323.87 1869.64 C 1324.09 1872.44 1324.36 1874.1 1325.62 1876.68 L 1327.02 1876.67 C 1326.67 1874.65 1326.02 1873.62 1327 1871.76 C 1329.29 1872.15 1330.95 1873.44 1332.85 1874.69 C 1328.66 1880.72 1324.16 1888.86 1318.3 1893.3 z"/>
<path transform="translate(0,0)" fill="rgb(253,130,79)" d="M 1435.04 1721.36 C 1440.67 1718.63 1446.12 1715.48 1451.85 1713 C 1479.79 1700.9 1510.8 1705.11 1537.93 1716.53 C 1565.41 1733.79 1586.09 1752.4 1593.41 1785.4 C 1599.9 1814.69 1594.48 1849.43 1577.97 1874.67 C 1563.32 1897.07 1538.78 1913.43 1512.6 1918.7 C 1483.74 1924.5 1453.45 1921.01 1428.63 1904.4 C 1404.08 1887.96 1388.67 1863.15 1383.28 1834.32 C 1378.06 1806.45 1383.92 1775.15 1400.29 1751.77 C 1409.04 1739.28 1421.52 1728.39 1435.04 1721.36 z"/>
<path transform="translate(0,0)" fill="rgb(21,26,37)" d="M 1490.56 1718.43 C 1514.85 1718.88 1535.16 1725.14 1553.34 1741.9 C 1572.28 1759.36 1582.54 1781.83 1583.55 1807.56 C 1584.58 1833.89 1576.15 1859.31 1558.06 1878.66 C 1539.17 1898.86 1514.66 1908.42 1487.29 1909.24 C 1464.46 1909.27 1443.72 1902.61 1426.41 1887.43 C 1407.04 1870.43 1395.21 1847.01 1393.8 1821.24 C 1392.36 1794.97 1401.76 1767.69 1419.51 1748.2 C 1438.18 1727.71 1463.56 1719.74 1490.56 1718.43 z"/>
<path transform="translate(0,0)" fill="rgb(25,50,57)" d="M 1416.54 1861.86 C 1423.68 1860.32 1425.06 1866.05 1430.34 1861.33 C 1435.01 1862.2 1441.54 1871.35 1446.12 1874.49 C 1445.9 1874.87 1445.68 1875.25 1445.48 1875.64 C 1444.82 1876.88 1444.42 1877.93 1444.04 1879.26 C 1446.42 1880.8 1446.5 1880.59 1447.16 1883.31 L 1446.52 1885.63 L 1444.98 1884.03 C 1442.89 1885.13 1442.35 1886.83 1441.32 1888.85 C 1430.89 1884.85 1421.55 1871.54 1416.54 1861.86 z"/>
<path transform="translate(0,0)" fill="rgb(253,130,79)" d="M 1660.14 1710.29 C 1661.35 1710.16 1662.37 1709.39 1663.44 1708.86 C 1699.99 1690.71 1722.01 1690.45 1760.18 1703.46 C 1788.13 1716.23 1808.14 1735.72 1819.03 1764.87 A 101.776 101.776 0 0 1 1815.91 1844.45 C 1803.52 1871.33 1779.96 1893.47 1752.09 1903.64 C 1726.24 1913.07 1695.09 1912.85 1669.99 1901.15 C 1643.77 1888.93 1623.41 1864.51 1613.87 1837.45 C 1604.41 1810.61 1607.85 1779.53 1620.16 1754.19 A 105.251 105.251 0 0 1 1660.14 1710.29 z"/>
<path transform="translate(0,0)" fill="rgb(21,26,37)" d="M 1713.4 1707.4 C 1734.77 1706.73 1758.02 1713.75 1775.14 1726.6 A 96.4489 96.4489 0 0 1 1812.22 1789.15 C 1815.65 1813.44 1808.38 1837.87 1793.63 1857.26 C 1775.61 1880.96 1752.78 1892.81 1723.65 1896.9 C 1697.41 1897.73 1674.74 1892.82 1654.09 1875.59 A 93.0342 93.0342 0 0 1 1621.41 1812.01 A 94.0612 94.0612 0 0 1 1643.69 1742.07 C 1661.89 1720.65 1685.71 1709.69 1713.4 1707.4 z"/>
<path transform="translate(0,0)" fill="rgb(25,50,57)" d="M 1791.16 1818.67 C 1791.79 1820.3 1792.01 1821.2 1791.96 1823 C 1791.94 1823.5 1791.89 1824 1791.86 1824.5 C 1793.72 1824.56 1795.14 1824.75 1796.86 1823.88 C 1798.4 1823.1 1798.36 1821.33 1798.83 1819.78 L 1800.75 1819.12 C 1799.23 1834.04 1789.51 1850.83 1778.77 1861.22 A 645.365 645.365 0 0 0 1780.34 1852.73 L 1779.14 1851.05 C 1776.72 1850.93 1774.63 1851.08 1772.63 1849.5 C 1772.11 1847.61 1772.28 1847.73 1772.82 1845.99 C 1775.83 1843.7 1777.64 1842.68 1778.59 1838.99 C 1779.99 1840.78 1779.49 1840.66 1781.95 1841.29 C 1782.81 1840.95 1783.4 1840.78 1784.14 1840.12 C 1786.21 1838.27 1787.76 1834.72 1787.98 1831.97 C 1788.24 1828.81 1787.16 1828.37 1785.14 1826.12 C 1784.51 1824.48 1784.91 1823.89 1785.24 1822.21 C 1787.46 1819.8 1788 1819.62 1791.16 1818.67 z"/>
<path transform="translate(0,0)" fill="rgb(253,130,79)" d="M 540.299 1715.93 C 540.691 1715.93 541.083 1715.94 541.474 1715.92 C 551.401 1715.41 561.029 1711.7 571.131 1711.76 C 582.028 1711.82 591.459 1716.21 601.865 1717.41 C 606.635 1719.12 611.336 1720.89 615.909 1723.08 C 641.625 1735.39 660.225 1757.96 669.545 1784.77 C 679.513 1813.45 676.154 1841.44 662.779 1868.36 C 649.913 1894.26 629.768 1913.36 602.196 1922.55 C 575.049 1931.6 543.788 1931.16 518.029 1917.94 C 492.567 1904.87 472.512 1879.75 464.102 1852.53 C 455.847 1825.82 458.879 1792.76 472.121 1768.12 C 487.241 1740 510.163 1724.86 540.299 1715.93 z"/>
<path transform="translate(0,0)" fill="rgb(21,26,37)" d="M 551.726 1726.6 C 574.239 1721.44 596.721 1726 616.273 1738.11 C 638.898 1752.13 654.743 1773.46 660.643 1799.48 C 666.331 1824.57 660.174 1851.17 646.391 1872.66 C 638.793 1884.5 625.109 1900.25 611.143 1904.47 C 610.914 1904.63 610.691 1904.79 610.456 1904.94 C 593.232 1915.68 565.584 1918.24 545.999 1914.16 A 93.2352 93.2352 0 0 1 487.116 1873.43 C 472.788 1850.96 468.718 1822.28 474.736 1796.46 C 479.879 1774.41 494.728 1753.51 514.073 1741.63 C 524.786 1733.7 538.512 1728.23 551.726 1726.6 z"/>
<path transform="translate(0,0)" fill="rgb(25,50,57)" d="M 628.857 1760.26 L 626.867 1759.71 C 625.314 1761.53 624.139 1762.55 622.028 1763.68 L 620.616 1762.63 C 620.915 1761.06 620.627 1761.43 621.47 1760.39 C 622.719 1758.84 623.839 1757.61 624.709 1755.78 C 624.942 1755.3 625.163 1754.8 625.389 1754.31 L 630.439 1759.73 L 628.857 1760.26 z"/>
<path transform="translate(0,0)" fill="rgb(253,130,79)" d="M 286.982 1703.59 C 317.605 1691.04 350.758 1687.21 382.002 1700.1 C 387.528 1702.38 392.79 1705.35 398.028 1708.22 C 410.977 1716.11 421.858 1727.8 430.141 1740.4 C 447.249 1766.43 451.668 1796.89 445.181 1827.15 C 438.957 1856.18 421.11 1880.35 396.098 1896.18 C 371.615 1911.68 339.622 1914.04 311.869 1907.56 C 283.595 1900.96 260.879 1882.61 245.689 1858.12 C 229.026 1831.25 226.478 1800.67 233.881 1770.28 C 241.295 1739.85 260.879 1719.51 286.982 1703.59 z"/>
<path transform="translate(0,0)" fill="rgb(21,26,37)" d="M 330.242 1704.37 C 354.673 1702.19 379.329 1708.11 398.452 1723.82 C 418.606 1740.38 433.255 1764.75 435.679 1790.95 C 438.085 1816.95 430.949 1844.96 413.847 1865.04 C 397.235 1884.54 374.136 1895.64 348.799 1897.6 C 323.982 1898.73 300.402 1894.49 280.48 1878.78 C 260.792 1863.25 246.068 1838.7 243.311 1813.64 C 240.519 1788.27 246.712 1760.56 262.888 1740.48 C 279.979 1719.28 303.431 1707.37 330.242 1704.37 z"/>
<path transform="translate(0,0)" fill="rgb(253,130,79)" d="M 380.447 1861.42 C 382.601 1861.7 383.442 1862.13 385.115 1863.51 C 385.57 1866.34 385.091 1866.84 383.876 1869.49 C 382.06 1869.17 381.349 1868.7 379.971 1867.49 C 379.317 1864.8 379.647 1864.12 380.447 1861.42 z"/>
<path transform="translate(0,0)" fill="rgb(253,130,79)" d="M 1878.18 1696.34 C 1882.73 1695.5 1890.27 1690.09 1894.75 1687.96 C 1923.31 1674.37 1953.84 1675.79 1982.77 1686.47 C 2003.49 1683.25 2026.95 1684.91 2048 1684.96 L 2048 1773.39 L 2048 1801.8 C 2039.64 1829.96 2029.66 1854 2004.95 1871.71 C 1980.16 1889.48 1948.2 1897.91 1917.97 1892.75 A 103.895 103.895 0 0 1 1850.91 1850.23 C 1834.05 1825.96 1828.57 1793.89 1833.94 1765.01 C 1839.26 1736.43 1854.22 1712.69 1878.18 1696.34 z"/>
<path transform="translate(0,0)" fill="rgb(21,26,37)" d="M 1982.77 1686.47 C 2003.49 1683.25 2026.95 1684.91 2048 1684.96 L 2048 1773.39 C 2046.17 1763.71 2044.3 1754.06 2040.73 1744.84 C 2030.17 1717.56 2009.21 1698.08 1982.77 1686.47 z"/>
<path transform="translate(0,0)" fill="rgb(21,26,37)" d="M 1937.79 1691.42 C 1958.98 1689.53 1983.18 1697.58 1999.72 1710.74 C 2019.83 1726.75 2031.67 1749.53 2034.55 1774.93 C 2037.43 1800.33 2030.61 1825.94 2014.33 1845.86 C 1996.49 1867.69 1971.39 1878.36 1943.86 1880.98 C 1919.04 1881.44 1895.98 1874.6 1876.7 1858.52 C 1857.22 1842.27 1846.92 1819.1 1844.73 1794.09 A 93.8664 93.8664 0 0 1 1866.71 1724.12 C 1885.06 1702.47 1910.17 1693.72 1937.79 1691.42 z"/>
<path transform="translate(0,0)" fill="rgb(25,50,57)" d="M 1994.12 1734.87 L 1995.88 1731.46 L 1994.83 1728.23 C 1996.27 1726.02 1996.55 1725.45 1998.87 1724.27 C 2002.42 1724.41 2004.72 1725.84 2007.05 1728.45 C 2009.44 1731.13 2011.43 1734.32 2013.44 1737.28 C 2010.11 1736.88 2008.68 1737.59 2005.87 1739.13 L 2003.37 1738.95 C 2002.44 1737.63 2001.71 1736.75 2000.52 1735.62 L 1996.33 1739.39 C 1995.4 1737.92 1994.8 1736.47 1994.12 1734.87 z"/>
<path transform="translate(0,0)" fill="rgb(253,130,79)" d="M 68.8841 1685.39 C 98.2923 1675.44 128.95 1671.16 157.669 1686.2 C 163.455 1689.22 169.143 1694.34 175.16 1696.56 C 201.635 1717.01 219.825 1740.51 224.009 1774.69 C 227.603 1804.04 217.105 1835.03 198.758 1857.91 C 180.015 1881.29 153.596 1894.83 123.97 1898.03 C 94.7334 1901.18 68.577 1893.91 45.7196 1875.33 C 19.0834 1853.68 7.6353 1828.5 0 1795.78 L 0 1779.51 L 0 1685.2 C 12.5631 1684.87 59.6902 1681.28 68.8841 1685.39 z"/>
<path transform="translate(0,0)" fill="rgb(21,26,37)" d="M 0 1685.2 C 12.5631 1684.87 59.6902 1681.28 68.8841 1685.39 C 39.4743 1698.77 19.979 1719.09 8.73986 1749.49 C 5.12597 1759.27 2.58118 1769.42 0 1779.51 L 0 1685.2 z"/>
<path transform="translate(0,0)" fill="rgb(21,26,37)" d="M 105.216 1690.4 C 106.122 1690.31 107.028 1690.2 107.937 1690.16 A 96.728 96.728 0 0 1 177.404 1713.93 C 197.365 1731.49 209.542 1755.13 211.22 1781.76 C 212.932 1808.92 203.222 1833.21 185.224 1853.31 C 169.285 1871.11 147.522 1883.75 123.246 1884.97 C 96.5776 1887.66 72.7376 1881.08 51.6523 1864.34 A 99.6737 99.6737 0 0 1 14.6803 1797.76 C 11.8683 1771.21 20.4802 1745 37.3259 1724.41 C 54.6825 1703.21 78.2951 1692.96 105.216 1690.4 z"/>
<path transform="translate(0,0)" fill="rgb(21,26,37)" d="M 2048 1900.88 L 2048 1972.92 C 1969.91 1973.7 1891.79 1972.09 1813.69 1972.08 L 1058.37 1969.87 L 0 1972.11 L 0 1903.67 C 27.1447 1906.87 54.1471 1910.89 81.3731 1913.46 C 134.537 1918.47 188.184 1921.07 241.492 1924.3 L 448.894 1936.56 A 13560.3 13560.3 0 0 0 776.768 1953.9 A 7694.12 7694.12 0 0 0 898.592 1956.31 A 10593.5 10593.5 0 0 0 1061.18 1958.32 C 1127.54 1958.21 1194.03 1954.91 1260.34 1952.71 A 11024.8 11024.8 0 0 0 1661.96 1933.52 C 1683.85 1932.06 1705.78 1931.46 1727.68 1930.05 A 8550.83 8550.83 0 0 0 1943 1912.67 C 1977.87 1909.21 2013.51 1907.15 2048 1900.88 z"/>
<path transform="translate(0,0)" fill="rgb(214,49,57)" d="M 0 1972.11 L 1058.37 1969.87 L 1813.69 1972.08 C 1891.79 1972.09 1969.91 1973.7 2048 1972.92 L 2048 2048 L 0 2048 L 0 1972.11 z"/>
</svg>