<svg version="1.1" xmlns="http://www.w3.org/2000/svg" style="display: block;" viewBox="0 0 2048 2048" width="1024" height="1024">
<path transform="translate(0,0)" fill="rgb(254,254,254)" d="M 0 0 L 2048 0 L 2048 2048 L 0 2048 L 0 0 z"/>
<path transform="translate(0,0)" fill="rgb(0,0,0)" d="M 1129.98 285.626 C 1163.71 234.063 1243.33 162.519 1304.48 149.541 C 1318.4 146.586 1333.23 147.095 1345.54 155.048 A 67.1242 67.1242 0 0 1 1349.03 157.497 C 1377.54 177.898 1389.21 222.95 1394.64 255.452 C 1401.24 294.958 1401.94 335.146 1403.9 375.063 C 1404.92 395.717 1407.46 417.021 1407.1 437.635 C 1412.35 447.468 1419.02 456.643 1424.57 466.338 C 1432.53 480.255 1438.64 495.078 1443.97 510.171 C 1475.37 599.039 1462.91 691.063 1423.06 774.509 C 1436.88 794.774 1451.25 815.296 1463.68 836.451 C 1511.64 918.078 1548.4 1009.32 1567.56 1102.11 C 1575.21 1105.23 1582.67 1108.77 1589.69 1113.13 C 1624.25 1134.59 1647.16 1172.98 1656.16 1212.01 C 1679.67 1314.05 1624.71 1465.7 1581.87 1557.91 C 1569.63 1584.26 1558.62 1607.45 1543.19 1632.23 C 1549.76 1634.22 1556.18 1636.37 1562.48 1639.12 C 1603.04 1656.83 1666.28 1693.68 1682.48 1736.36 C 1684.43 1741.48 1685.4 1746.87 1685.79 1752.32 C 1687.17 1771.77 1685.93 1792.03 1686.06 1811.57 C 1686.2 1831.28 1688 1852.57 1686 1872.03 C 1685.29 1878.97 1683.61 1885.44 1680.73 1891.8 C 1663.58 1929.74 1603.63 1956 1565.97 1969.85 C 1415.11 2025.33 1182.75 2045.18 1020.37 2045.83 C 857.991 2046.48 596.565 2024.42 451.753 1957.37 C 422.563 1943.85 376.702 1919.57 365.762 1887.7 C 364.229 1883.23 363.526 1878.54 363.27 1873.84 C 362.352 1857.03 363.809 1839.78 363.741 1822.92 C 363.642 1798.55 361.829 1771.22 364.095 1747.21 A 56.2218 56.2218 0 0 1 369.62 1727.58 C 391.426 1682.3 460.624 1654.33 505.82 1638.23 C 495.169 1616.73 482.792 1596.07 472.343 1574.48 A 945.305 945.305 0 0 1 431.947 1475.5 C 402.383 1391.89 363.208 1256.05 403.571 1172.6 C 423.749 1130.89 455.088 1110.47 497.475 1095.54 C 468.175 1066.35 442.449 1037.91 421.393 1002.01 C 350.2 880.655 351.007 720.136 361.063 583.952 C 364.468 537.847 367.812 490.218 379.618 445.37 C 387.405 415.787 400.237 392.567 427.538 376.938 C 465.33 355.302 509.49 356.541 550.259 367.695 C 577.011 376.898 600.028 387.551 613.185 414.076 C 622.528 432.913 624.582 453.38 627.45 473.879 C 632.267 464.112 638.098 454.451 642.496 444.535 C 646.686 421.953 645.978 397.404 647.245 374.447 C 649.405 335.306 652.379 296.431 657.749 257.577 C 660.574 243.666 663.298 229.586 667.566 216.036 C 674.041 195.482 685.745 166.028 706.011 155.505 C 724.48 146.585 741.463 148.546 760.335 155.132 C 819.334 175.722 887.588 237.322 922.387 288.854 C 937.537 285.912 954.353 286.368 969.824 285.692 A 1758.5 1758.5 0 0 1 1086.79 284.463 C 1101.04 284.761 1115.81 284.375 1129.98 285.626 z"/>
<path transform="translate(0,0)" fill="rgb(253,190,80)" d="M 1558.32 1675.99 C 1564.08 1675.13 1573.83 1682.32 1579.03 1685.28 C 1558.03 1691.98 1536.8 1697.39 1515.4 1702.64 C 1509.36 1704.42 1502.99 1705.46 1496.82 1706.72 C 1498.97 1701.5 1502.28 1696.34 1505.01 1691.37 C 1523.2 1688.24 1540.99 1682.17 1558.32 1675.99 z"/>
<path transform="translate(0,0)" fill="rgb(253,190,80)" d="M 1014.82 949.185 C 1029.08 948.445 1041.06 950.024 1053.09 958.514 C 1065.12 966.999 1071.35 977.707 1073.88 991.926 A 146.478 146.478 0 0 0 1037.82 982.805 C 1015.42 980.99 997.062 983.877 975.839 990.819 C 976.579 984.93 977.608 979.898 980.472 974.636 C 987.918 960.951 1000.36 953.537 1014.82 949.185 z"/>
<path transform="translate(0,0)" fill="rgb(253,190,80)" d="M 454.431 1710.75 C 472.914 1719.85 491.182 1729.29 509.799 1738.13 C 530.623 1748.02 552.612 1757.49 572.317 1769.46 C 586.357 1765.6 602.556 1759.31 617.132 1760.02 C 625.513 1760.43 633.693 1762.73 642.012 1763.62 C 625.097 1769.73 607.387 1772.89 590.422 1778.68 A 5761.36 5761.36 0 0 1 686.012 1823.91 C 718.606 1839.41 751.306 1854.44 783.328 1871.13 C 842.839 1854.87 902.809 1840.09 962.442 1824.25 L 1007.35 1812.33 C 1016.28 1810.01 1025.73 1808.28 1034.36 1805 C 1008.66 1790.15 979.101 1781.76 953.897 1766.49 C 959.385 1763.45 965.073 1760.55 970.384 1757.22 A 1039.04 1039.04 0 0 0 1021.09 1782.58 C 1032.35 1787.88 1044.38 1792.69 1055.13 1798.92 L 1101.92 1786.21 C 1112.04 1783.45 1122.65 1779.51 1133.14 1778.82 C 1142.39 1778.21 1152.09 1780.82 1161.41 1781.08 C 1135.16 1793.18 1101.46 1800.37 1073.26 1807.41 A 4823.47 4823.47 0 0 1 1186.89 1860.22 C 1206.49 1869.73 1226.82 1881.83 1247.31 1889.09 C 1274.53 1879.34 1303.46 1872.78 1331.4 1865.32 A 3424.63 3424.63 0 0 0 1435.76 1835.14 C 1391.35 1811.13 1345.67 1787.43 1299.47 1767.03 C 1288.84 1762.33 1277.81 1758.63 1267.1 1754.11 L 1265.65 1754.77 L 1266.03 1752.93 C 1264.9 1752.54 1263.94 1752.49 1263.2 1751.53 C 1266.75 1749.39 1269.91 1750.32 1273.79 1751.29 C 1278.26 1752.41 1282.52 1754.27 1287.01 1755.24 C 1299.08 1757.84 1311.66 1758.33 1323.3 1762.62 C 1337.3 1767.79 1350.88 1775.89 1364.15 1782.75 C 1383.88 1792.95 1403.91 1802.44 1423.76 1812.38 C 1435.43 1818.22 1447.03 1825.03 1459.04 1830.06 C 1506.42 1818.24 1553.2 1802.76 1600.29 1789.71 C 1586.42 1800.9 1571.63 1811.41 1555.06 1818.27 C 1544.94 1822.46 1533.57 1824.49 1522.95 1827.1 A 2765.36 2765.36 0 0 0 1476.47 1838.98 C 1480.14 1841.07 1483.77 1843.22 1487.51 1845.19 C 1481.44 1846.89 1475.41 1848.66 1469.19 1849.73 L 1458.06 1843.83 C 1425.17 1851.2 1393.24 1862.42 1360.69 1871.1 C 1324 1880.89 1286.08 1886.66 1248.31 1890.12 C 1240.28 1890.86 1230.3 1893.99 1222.39 1892.15 C 1207.81 1888.77 1158.8 1861.95 1141.17 1853.52 C 1112.78 1839.96 1080.31 1827.87 1053.7 1811.58 C 1038.5 1820.05 1017.26 1822.84 1000.47 1827.26 C 975.165 1833.92 808.961 1875.23 802.769 1880.4 C 809.569 1888.03 823.398 1889.59 829.385 1898.14 C 819.57 1896.87 809.685 1895.78 799.948 1893.99 C 794.096 1889.81 786.996 1887.25 780.366 1884.53 C 771.859 1888.02 761.423 1887.5 752.606 1885.08 L 751.698 1883.76 C 755.372 1880.42 762.044 1880.05 766.756 1879.32 C 745.951 1864.66 720.365 1854.36 697.357 1843.53 C 654.513 1823.35 610.816 1803.96 568.894 1781.94 C 556.983 1787.15 543.5 1789.92 531.037 1793.64 C 512.286 1799.24 493.496 1805.67 474.426 1810.04 C 469.891 1807.49 465.706 1804.93 461.564 1801.76 A 2356.51 2356.51 0 0 1 553.887 1774.9 A 2045.79 2045.79 0 0 0 494.354 1745.12 C 477.049 1736.88 458.395 1729.34 442.374 1718.79 C 446.319 1716 450.2 1713.09 454.431 1710.75 z"/>
<path transform="translate(0,0)" fill="rgb(254,254,254)" d="M 1365.57 1577.42 C 1398.92 1574.44 1439.93 1588.91 1466.67 1608.31 C 1485.28 1621.82 1499.48 1640.29 1503.01 1663.46 C 1505.51 1679.81 1500.92 1694.47 1491.16 1707.54 C 1470.09 1735.73 1436.93 1747.99 1403.12 1752.64 A 412.845 412.845 0 0 1 1402.19 1715.74 C 1402.35 1709 1403.85 1700.89 1402.93 1694.28 C 1402.62 1692.13 1401.61 1690.55 1400.26 1688.92 L 1398.98 1689.05 C 1395.52 1696.38 1397.69 1742.38 1397.98 1753.15 C 1392.52 1754.13 1387.01 1754.71 1381.5 1755.36 C 1369.87 1757.2 1357.5 1757.06 1345.74 1757.16 C 1345.73 1743.24 1348.02 1699.46 1343.98 1689.79 L 1342.55 1689.27 C 1338.74 1696.27 1340.92 1745.73 1340.96 1757.11 C 1316.21 1756.13 1293.92 1752.5 1270.3 1745.24 C 1277.39 1736.36 1283.86 1727.47 1288.02 1716.81 C 1303.77 1676.51 1281.86 1646.02 1266.73 1610.93 C 1298.37 1590.46 1327.97 1580.34 1365.57 1577.42 z"/>
<path transform="translate(0,0)" fill="rgb(254,254,254)" d="M 673.672 1581.42 C 710.111 1579.04 755.32 1585.34 783.911 1610.11 C 777.465 1633.03 762.814 1652.04 758.881 1676.13 C 754.306 1704.15 765.349 1725.04 781.103 1747.2 C 758.457 1753.98 735.356 1757.64 711.839 1759.51 C 711.84 1751.35 713.3 1707.99 710.37 1703.63 L 708.594 1703.56 C 704.257 1708.76 706.864 1750.71 706.968 1760 C 695.179 1760.62 683.436 1760.81 671.633 1760.87 C 665.553 1760.68 659.448 1760.15 653.375 1759.77 C 653.068 1749.88 655.726 1707.85 650.906 1702.13 C 645.425 1710.14 648.703 1747.72 648.938 1759.47 C 622.103 1757.98 596.236 1751.53 574.858 1734.65 C 562.829 1725.14 540.352 1700.59 539.076 1684.92 C 537.684 1667.84 549.912 1643.2 560.7 1630.09 C 587.533 1597.49 633.384 1585.22 673.672 1581.42 z"/>
<path transform="translate(0,0)" fill="rgb(254,254,254)" d="M 1540.8 1635.04 A 381.491 381.491 0 0 1 1554.85 1640.54 C 1594.61 1657.47 1662.31 1695.59 1678.02 1736.83 C 1682.51 1748.61 1681.99 1760.19 1676.83 1771.66 C 1658.84 1811.64 1597.87 1840.28 1558.05 1855.03 C 1296.49 1951.92 712.012 1960.42 457.056 1842.19 C 425.894 1827.74 382.549 1803.81 370.597 1769.18 C 366.128 1756.22 367.407 1742.1 373.251 1729.81 C 394.283 1685.56 464.269 1657.76 508.483 1642.16 C 514.435 1652.06 520.597 1661.85 526.656 1671.68 C 497.308 1681.59 462.616 1693.86 439.675 1715.09 C 428.996 1724.97 421.239 1738.01 421.039 1752.92 C 420.844 1767.43 429.103 1779.75 439.034 1789.58 C 461.266 1811.59 491.537 1825.27 520.231 1836.66 C 588.844 1863.88 659.217 1877.74 732.17 1887.26 C 754.329 1890.15 777.592 1894.19 799.948 1893.99 C 809.685 1895.78 819.57 1896.87 829.385 1898.14 C 860.642 1902.47 893.109 1903.3 924.648 1904.73 A 2029.91 2029.91 0 0 0 1284.41 1890.37 C 1370.91 1879.87 1463.26 1865.26 1543.25 1829.42 C 1572.51 1816.31 1612.4 1795.19 1624.04 1762.92 A 51.1656 51.1656 0 0 0 1621.69 1723.17 C 1605.84 1690.34 1560.37 1666.62 1527.66 1655.22 C 1531.76 1648.32 1536.34 1641.7 1540.8 1635.04 z"/>
<path transform="translate(0,0)" fill="rgb(253,190,80)" d="M 1014.63 987.401 C 1047.69 985.137 1080.63 996.496 1106.97 1016.18 C 1132.46 1035.24 1148.84 1062.28 1153.34 1093.88 C 1157.95 1126.29 1148.38 1158.91 1128.57 1184.8 C 1105.56 1214.85 1073.66 1229.16 1036.83 1233.89 C 1001.77 1235.58 968.87 1226.8 941.075 1204.73 C 915.11 1184.11 899.53 1155.11 896.031 1122.2 A 119.064 119.064 0 0 1 923.407 1033.71 C 946.58 1005.65 978.802 990.946 1014.63 987.401 z"/>
<path transform="translate(0,0)" fill="rgb(0,0,0)" d="M 992.054 1073.88 C 1002.06 1074.72 1011.51 1077.11 1021.72 1077.12 C 1027.36 1077.12 1045.3 1073.86 1048.61 1075.25 L 1048.72 1077.77 A 58.7057 58.7057 0 0 1 1043.24 1079.44 C 1031.75 1082.25 1003.72 1084.88 993.629 1077.92 C 992.101 1076.87 992.373 1075.59 992.054 1073.88 z"/>
<path transform="translate(0,0)" fill="rgb(0,0,0)" d="M 932.971 1090.67 C 942.487 1093.41 951.041 1099.9 960.312 1103.58 C 996.432 1117.93 1033.41 1119.85 1070.62 1108.81 C 1077 1106.92 1083.36 1104.66 1089.36 1101.75 C 1096.47 1098.31 1103.79 1092.5 1111.54 1090.94 L 1112.68 1091.86 L 1111.54 1094.22 C 1081.45 1115.53 1042.79 1124.17 1006.42 1120.32 C 989.759 1118.55 942.674 1106.74 932.356 1093.95 L 932.971 1090.67 z"/>
<path transform="translate(0,0)" fill="rgb(0,0,0)" d="M 927.015 1124.53 C 934.682 1126.12 941.651 1132.16 948.671 1135.62 C 957.547 1140 967.588 1143.53 977.127 1146.14 A 177.674 177.674 0 0 0 1088.95 1139.75 C 1097.74 1136.33 1107.48 1128.62 1116.35 1126.96 L 1117.81 1128.02 L 1117.45 1130.12 C 1094.58 1143.5 1071.06 1153.02 1044.54 1156.18 C 1010.13 1160.28 976.596 1154.01 945.618 1138.85 C 940.202 1136.2 933.611 1133.51 929.003 1129.63 C 926.94 1127.89 927.264 1127.1 927.015 1124.53 z"/>
<path transform="translate(0,0)" fill="rgb(116,120,191)" d="M 1418.97 779.626 C 1427.67 784.445 1466.73 849.373 1471.78 860.953 C 1401.25 926.449 1271.64 965.878 1178.06 980.033 C 1145.97 984.887 1112.52 984.884 1080.79 990.975 L 1079.22 991.284 C 1077.09 983.013 1074.96 975.844 1070.01 968.661 A 58.1138 58.1138 0 0 0 1032.99 944.912 A 52.9131 52.9131 0 0 0 993.458 953.279 C 980.284 962.414 973.775 975.319 970.855 990.649 C 951.135 987.968 930.661 988.277 910.789 986.295 C 839.857 979.221 767.665 961.403 710.641 916.664 C 674.892 888.382 647.323 843.805 633.467 800.561 C 665.562 820.425 696.884 839.53 732.081 853.542 C 861.919 905.228 1046.6 910.557 1183.46 887.527 C 1249.48 876.42 1340.32 852.319 1392.64 808.724 C 1402.85 800.218 1411.29 790.429 1418.97 779.626 z"/>
<path transform="translate(0,0)" fill="rgb(254,254,254)" d="M 501.104 1099.02 C 510.268 1102.7 519.213 1112.01 527.794 1117.39 C 556.107 1135.13 584.98 1147.92 617.052 1157.48 C 627.96 1160.73 637.974 1164.06 649.445 1163.93 A 254.21 254.21 0 0 1 657.354 1172.63 C 733.819 1261.8 771.916 1405.55 782.392 1520 C 784.972 1548.19 786.967 1576.57 784.849 1604.84 C 772.596 1593.7 754.548 1586.88 738.779 1582.68 C 690.995 1569.95 630.622 1576.35 587.708 1601.47 C 557.559 1619.11 543.518 1643.24 534.824 1676.2 C 518.771 1652.55 504.683 1626.74 491.512 1601.39 C 525.153 1598.6 559.142 1585.62 587.228 1567.14 C 619.369 1545.99 647.389 1511.58 660.557 1475.31 C 665.164 1462.62 667.78 1449.37 670.516 1436.19 C 651.611 1445.07 633.187 1457.52 615.186 1468.16 L 512.569 1528.61 C 500.868 1535.47 489.144 1544.02 477.058 1549.95 C 474.332 1551.28 472.23 1552.02 469.194 1552.09 C 467.302 1551 467.44 1551.54 466.75 1549.23 C 472.994 1543.98 481.438 1540.07 488.499 1535.93 L 530.755 1511.15 L 671.759 1428.35 C 675.276 1408.58 672.599 1387.22 668.411 1367.78 C 613.767 1396.51 560.615 1428.74 507.392 1460.02 C 497.156 1466.04 455.981 1492.07 448.289 1494.38 C 446.122 1495.03 445.723 1495.35 443.658 1494.26 L 444.126 1492.02 C 447.299 1487.44 452.305 1485.42 457.116 1482.88 A 5530.26 5530.26 0 0 1 581.512 1410.02 C 609.711 1393.76 637.519 1377.1 666.29 1361.84 A 148.74 148.74 0 0 0 643.155 1310.96 C 623.916 1319.18 605.424 1332.3 587.381 1342.9 L 488.302 1399.98 C 470.322 1410.51 452.42 1422.93 433.923 1432.35 C 430.544 1434.07 427.431 1435.34 423.616 1435.47 L 422.867 1434.33 C 424.672 1431.37 427.046 1429.55 429.905 1427.62 C 437.416 1422.56 445.792 1418.3 453.609 1413.67 L 506.219 1382.65 A 8831.01 8831.01 0 0 1 592.362 1332.76 C 607.657 1323.83 622.651 1314.37 638.112 1305.73 C 628.057 1289.13 615.476 1275.87 600.068 1264.15 C 589.925 1273.09 413.154 1373.56 407.61 1373.84 C 406.518 1371.66 406.337 1371.44 406.661 1369.04 L 595.587 1261.39 C 577.384 1247.07 555.786 1238.79 533.55 1233.22 C 521.102 1239.08 509.146 1246.85 497.11 1253.57 C 477.122 1264.74 456.887 1275.44 436.937 1286.69 C 426.511 1292.57 405.795 1307.36 394.929 1308.99 C 393.631 1307.53 394.142 1306.6 394.173 1304.71 C 396.241 1301.8 507.927 1240.41 523.455 1231.54 L 522.008 1231.23 C 510.561 1228.85 498.833 1228.42 487.169 1228.54 C 450.079 1228.92 422.073 1240.09 391.433 1260.08 C 389.63 1232.64 394.847 1202 406.523 1177.05 C 426.544 1134.27 458.145 1114.5 501.104 1099.02 z"/>
<path transform="translate(0,0)" fill="rgb(254,254,254)" d="M 1518.55 1099.39 C 1545.81 1096.88 1572.97 1106.14 1594.73 1122.32 C 1629.06 1147.86 1648 1186.01 1654.29 1227.64 C 1615.78 1206.94 1582.48 1199.98 1539.09 1210.56 C 1548.88 1218.76 1560 1225.79 1570.43 1233.18 L 1628.1 1273.93 C 1636.05 1279.5 1648.14 1285.95 1654.62 1293.01 C 1656.52 1295.07 1656.13 1295.95 1655.84 1298.51 L 1654.26 1299.14 C 1652.58 1298.55 1533.45 1214.72 1529.97 1211.47 C 1507.76 1216.91 1486.93 1228.61 1468.89 1242.37 C 1489.23 1258.55 1511.37 1273.09 1532.73 1287.91 L 1603.25 1337.39 C 1611.89 1343.34 1639.95 1360.23 1644.82 1365.73 C 1645.6 1368.35 1645.8 1368.27 1644.59 1370.69 C 1632.38 1367.59 1485.57 1261.48 1463.77 1245.95 C 1447.81 1258.67 1434.74 1275.65 1423.46 1292.51 C 1445.56 1310.01 1469.9 1325.55 1493.11 1341.6 L 1577.33 1400.66 C 1588.18 1408.11 1598.95 1415.81 1609.9 1423.08 C 1614.04 1425.83 1618.54 1427.99 1622.49 1431.03 C 1623.95 1432.16 1624.77 1433.27 1625.73 1434.83 C 1625.72 1437.17 1625.77 1437.02 1624.14 1438.7 C 1614.22 1434.99 1567.39 1400.33 1556.43 1392.7 L 1466.83 1330.27 C 1451.34 1319.46 1435.55 1309.04 1420.48 1297.65 C 1409.62 1315.96 1401.56 1337.75 1398.8 1358.89 C 1415.2 1366.27 1438.83 1385.43 1454.26 1396.25 L 1552.88 1464.64 C 1563.65 1471.98 1596.59 1490.55 1601.87 1500.09 L 1600.96 1501.33 C 1597.1 1500.86 1593.92 1499.29 1590.6 1497.29 C 1575.24 1488.04 1560.53 1476.73 1545.79 1466.46 L 1469.27 1413.35 L 1427.33 1384.11 C 1417.47 1377.36 1406.97 1371.23 1398.04 1363.24 C 1394 1390.53 1399.45 1417.43 1407.75 1443.33 L 1505.2 1511.18 C 1528.67 1527.8 1551.7 1544.62 1576.03 1560.01 C 1576.04 1562.54 1575.66 1562.83 1574.21 1564.96 C 1572.95 1565.03 1572.16 1564.92 1571.05 1564.29 C 1548.39 1551.49 1527.31 1533.62 1505.97 1518.63 C 1474.39 1496.46 1441.32 1475.67 1411.19 1451.57 C 1423.57 1486.02 1452.15 1518.87 1481.84 1539.66 C 1494.01 1548.18 1507.33 1555.26 1520.07 1562.9 C 1534.6 1571.62 1548.97 1580.84 1563.99 1588.67 C 1549.58 1615.43 1529.64 1649.27 1508.33 1670.72 C 1506.51 1656.17 1503.49 1643.2 1495.25 1630.81 C 1475.19 1600.7 1437.69 1582.82 1403.2 1575.89 C 1353.95 1565.99 1306.7 1579.09 1265.46 1606.27 C 1264.73 1602.73 1264.27 1599.19 1263.9 1595.59 C 1260.54 1562.68 1262.88 1528.92 1266.35 1496.13 C 1275.77 1406.95 1298.11 1319.64 1341.79 1240.82 C 1352.87 1220.83 1364.58 1201.73 1379.12 1184.01 C 1415.23 1140 1460.24 1105.03 1518.55 1099.39 z"/>
<path transform="translate(0,0)" fill="rgb(250,104,91)" d="M 1681.05 1773.57 C 1681.2 1773.93 1681.39 1774.27 1681.51 1774.65 C 1682.75 1778.57 1682.84 1861.12 1681.81 1871.03 A 58.2872 58.2872 0 0 1 1676.9 1889.44 C 1660.32 1925.7 1600.07 1952.56 1563.8 1965.95 C 1477.12 1997.96 1384.46 2013.06 1292.97 2023.79 A 2212.05 2212.05 0 0 1 711.213 2019.49 C 626.392 2007.57 532.014 1989.82 453.988 1953.63 C 425.306 1940.33 380.712 1916.56 369.245 1885.38 C 366.425 1872.47 367.975 1857.1 368.003 1843.91 L 368.212 1775 C 382.592 1803.72 409.789 1822.21 437.269 1837.21 C 478.196 1859.53 523.678 1873.93 568.613 1885.66 C 756.486 1934.72 999.924 1941.86 1193.12 1927.41 C 1298.07 1919.57 1409.75 1904.88 1510.61 1874.94 C 1568.23 1857.84 1650.79 1829.53 1681.05 1773.57 z"/>
<path transform="translate(0,0)" fill="rgb(254,254,254)" d="M 1129.98 285.626 C 1163.71 234.063 1243.33 162.519 1304.48 149.541 C 1318.4 146.586 1333.23 147.095 1345.54 155.048 A 67.1242 67.1242 0 0 1 1349.03 157.497 C 1377.54 177.898 1389.21 222.95 1394.64 255.452 C 1401.24 294.958 1401.94 335.146 1403.9 375.063 C 1404.92 395.717 1407.46 417.021 1407.1 437.635 L 1402.27 438.022 C 1411.77 453.352 1421.38 468.547 1428.95 484.96 C 1458.92 549.95 1464.07 624.258 1447.71 693.581 C 1435.09 747.049 1417.8 789.85 1369.29 819.958 C 1228.46 907.366 967.636 910.424 811.23 873.395 A 514.461 514.461 0 0 1 674.535 820.923 C 659.86 812.595 646.281 802.338 631.626 794.12 C 623.73 770.371 620.253 744.66 618.822 719.696 C 617.356 694.134 618.416 668.554 619.439 642.997 A 2727.22 2727.22 0 0 1 626.587 527.699 C 627.692 513.769 626.404 499.123 628.379 485.4 C 629.17 479.908 631.257 474.707 633.723 469.769 C 637.9 461.403 643.044 453.356 647.818 445.312 L 642.496 444.535 C 646.686 421.953 645.978 397.404 647.245 374.447 C 649.405 335.306 652.379 296.431 657.749 257.577 C 660.574 243.666 663.298 229.586 667.566 216.036 C 674.041 195.482 685.745 166.028 706.011 155.505 C 724.48 146.585 741.463 148.546 760.335 155.132 C 819.334 175.722 887.588 237.322 922.387 288.854 C 937.537 285.912 954.353 286.368 969.824 285.692 A 1758.5 1758.5 0 0 1 1086.79 284.463 C 1101.04 284.761 1115.81 284.375 1129.98 285.626 z"/>
<path transform="translate(0,0)" fill="rgb(0,0,0)" d="M 883.256 743.395 C 885.747 743.099 888.015 742.745 890.507 743.281 C 892.23 743.652 891.707 743.428 892.597 744.933 L 891.364 745.811 L 891.466 743.491 L 891.319 745.835 C 879.831 749.379 866.475 749.639 854.522 751.962 C 823.893 757.914 793.368 766.81 764.901 779.696 C 762.155 780.714 760.955 781.685 758.099 780.825 L 757.327 779.053 C 761.175 774.704 769.711 772.215 775.108 770.087 A 420.665 420.665 0 0 1 883.256 743.395 z"/>
<path transform="translate(0,0)" fill="rgb(0,0,0)" d="M 1157.95 742.187 C 1176.31 742.623 1196.06 746.656 1214 750.554 C 1229.72 753.972 1290.46 769.584 1297.13 779.956 C 1291.69 782.406 1274.46 773.622 1268.15 771.325 C 1247.15 763.681 1225.73 757.276 1203.72 753.344 C 1190.46 750.975 1175.93 750.218 1163 746.701 C 1159.94 745.869 1159.45 744.887 1157.95 742.187 z"/>
<path transform="translate(0,0)" fill="rgb(0,0,0)" d="M 849.895 709.474 C 858.771 709.349 869.209 707.896 877.926 709.446 C 880.196 709.85 880.891 709.712 882.257 711.67 C 880.563 713.844 878.8 713.761 876.192 713.778 C 826.587 714.105 790.834 716.956 742.762 730.07 C 734.592 732.303 725.086 737.213 716.439 736.234 C 716.764 735.753 717.014 735.213 717.413 734.792 C 721.202 730.791 732.335 728.506 737.689 726.984 C 776.529 715.943 809.56 711.194 849.895 709.474 z"/>
<path transform="translate(0,0)" fill="rgb(0,0,0)" d="M 1173.01 709.288 C 1173.58 709.251 1174.15 709.206 1174.72 709.177 C 1222.01 706.785 1271.76 712.792 1317.19 726.058 C 1323.3 727.845 1334.87 730.484 1339.35 735.136 C 1340.46 736.293 1339.89 737.141 1339.72 738.597 C 1301.11 725.351 1263.25 716.412 1222.33 714.441 C 1207.18 713.711 1190.93 715.67 1176.05 713.662 C 1173.65 713.339 1174 713.333 1172.37 711.927 L 1173.01 709.288 z"/>
<path transform="translate(0,0)" fill="rgb(0,0,0)" d="M 1316.84 662.454 C 1330.12 662.134 1360.31 660.836 1372.06 663.576 C 1374.04 664.038 1374.48 664.153 1375.64 665.857 C 1371.49 669.218 1338.94 666.656 1330.79 666.725 C 1295.85 667.016 1261.76 669.552 1227.23 674.961 C 1218.75 676.275 1181.18 684.377 1176.9 684.213 L 1176.03 683.047 L 1177.37 681.191 C 1182.32 678.756 1187.87 678.1 1193.2 676.786 C 1233.44 666.852 1275.55 663.753 1316.84 662.454 z"/>
<path transform="translate(0,0)" fill="rgb(0,0,0)" d="M 689.589 663.408 C 740.334 660.992 791.061 664.611 841.312 671.369 C 852.75 672.907 869.746 673.462 879.379 680.235 L 879.105 681.013 C 875.604 681.662 873.072 681.251 869.586 680.558 L 868.252 680.283 A 818.278 818.278 0 0 0 741.971 667.645 C 730.724 667.389 685.491 669.613 678.512 666.422 L 678.81 665.132 C 682.396 663.489 685.694 663.534 689.589 663.408 z"/>
<path transform="translate(0,0)" fill="rgb(0,0,0)" d="M 1024.71 683.99 C 1026.11 683.386 1027.85 683.204 1029.35 682.89 L 1029.06 691.593 C 1028.98 703.701 1026.49 719.738 1035.83 729.132 C 1045.39 738.737 1060.7 743.314 1074.09 742.933 C 1085.68 742.603 1097.74 739.119 1105.86 730.419 C 1110 725.98 1112.09 720.67 1114.88 715.395 L 1116.18 715.332 C 1117.3 718.645 1116.95 721.45 1115.53 724.616 C 1110.93 734.799 1099.91 741.879 1089.62 744.852 C 1075.89 748.816 1054.93 747.479 1042.42 740.015 C 1035.76 736.038 1031.39 731.263 1027.23 724.788 C 1019.32 736.697 1010.41 743.374 996.052 746.174 C 980.91 749.129 962.795 747.286 949.786 738.635 C 942.407 733.728 937.18 726.975 935.653 718.138 C 935.418 716.78 935.449 715.739 935.743 714.4 C 938.584 715.602 939.885 719.639 941.388 722.332 C 946.705 731.858 956.295 738.058 966.657 740.932 C 980.363 744.733 998.491 743.706 1010.83 736.346 C 1016.9 732.727 1021.82 726.978 1023.45 719.986 C 1025.32 711.938 1024.88 702.673 1025.01 694.454 L 1024.71 683.99 z"/>
<path transform="translate(0,0)" fill="rgb(33,32,33)" d="M 1024.71 683.99 C 1014.84 677.434 998.533 668.833 993.001 658.162 C 991.005 654.313 990.635 650.06 992.241 646.002 C 995.13 638.699 1003.36 633.211 1010.22 630.114 C 1021.33 625.096 1032.89 624.318 1044.33 628.724 C 1051.97 631.667 1060.78 636.972 1063.91 644.982 C 1065.37 648.718 1065.22 652.687 1063.59 656.335 C 1059.43 665.658 1039.05 679.411 1029.35 682.89 C 1027.85 683.204 1026.11 683.386 1024.71 683.99 z"/>
<path transform="translate(0,0)" fill="rgb(0,0,0)" d="M 796.532 476.341 C 807.222 475.228 818.27 476.783 828.388 480.328 C 867.931 494.182 894.116 533.567 911.717 569.635 C 882.989 601.345 863.357 619.573 819.523 623.87 C 807.164 624.248 795.534 623.707 783.576 620.229 C 750.078 610.489 719.263 584.433 702.426 554.102 C 709.065 542.557 716.215 531.243 724.474 520.778 C 743.254 496.98 765.925 479.993 796.532 476.341 z"/>
<path transform="translate(0,0)" fill="rgb(254,254,254)" d="M 796.266 480.371 A 76.8591 76.8591 0 0 1 824.095 483.136 C 863.987 494.635 887.398 534.339 905.927 568.464 C 905.474 569.08 905.01 569.688 904.529 570.283 C 882.319 597.752 856.458 615.582 821.035 619.629 C 833.727 612.502 842.272 602.296 847.691 588.916 C 856.262 567.756 856.825 540.16 847.631 519.113 C 842.033 506.3 832.905 497.041 819.837 491.982 C 816.074 491.071 812.421 490.674 808.545 491.032 C 797.876 492.019 788.659 497.636 782.087 505.969 C 769.389 522.066 765.402 546.182 767.862 566.121 C 770.655 588.757 780.755 606.258 798.601 620.208 C 759.241 609.505 729.818 588.854 707.464 554.601 C 711.972 545.442 717.729 536.609 723.849 528.452 C 741.898 504.394 765.854 484.81 796.266 480.371 z"/>
<path transform="translate(0,0)" fill="rgb(0,0,0)" d="M 1256.62 476.407 C 1268.96 476.511 1280.23 478.396 1291.68 483.061 C 1321.24 495.102 1345.39 524.111 1357.57 553.039 A 472.866 472.866 0 0 1 1349.01 562.987 C 1317.4 598.576 1289.7 618.731 1241.31 621.548 A 220.049 220.049 0 0 1 1235.04 621.406 C 1196.12 619.905 1165.76 596.37 1140.44 568.866 C 1151.49 551.741 1162.55 534.207 1175.89 518.756 C 1197.72 493.487 1223.21 478.986 1256.62 476.407 z"/>
<path transform="translate(0,0)" fill="rgb(254,254,254)" d="M 1249.57 481.282 C 1264.06 480.183 1276.69 481.539 1290.17 487.281 C 1317.36 498.868 1341.23 525.962 1352.06 553.165 C 1323.22 585.856 1296.74 610.504 1252.11 616.698 C 1244.08 617.476 1236.47 617.715 1228.44 616.783 C 1197.56 613.199 1165.33 592.624 1146.18 568.592 C 1151.62 559.853 1157.1 551.149 1163.02 542.727 C 1185.6 510.634 1210.09 488.171 1249.57 481.282 z"/>
<path transform="translate(0,0)" fill="rgb(0,0,0)" d="M 1239.33 490.149 C 1246.19 489.144 1252.64 490.141 1258.85 493.293 C 1272.04 499.984 1279.76 514.689 1283.79 528.38 C 1289.82 548.846 1289.49 575.292 1278.78 594.257 C 1272.14 606.028 1264.04 611.251 1251.44 614.903 C 1244.65 616.157 1238.85 616.002 1232.44 613.2 C 1220.47 607.969 1212.89 595.952 1208.47 584.116 C 1200.38 562.465 1202.6 536.11 1212.42 515.353 C 1218.23 503.08 1226.51 494.77 1239.33 490.149 z"/>
<path transform="translate(0,0)" fill="rgb(33,32,33)" d="M 657.749 257.577 C 660.574 243.666 663.298 229.586 667.566 216.036 C 674.041 195.482 685.745 166.028 706.011 155.505 C 707.853 156.378 708.786 156.889 710.858 156.984 C 757.004 176.146 787.961 215.711 806.756 261.189 A 230.762 230.762 0 0 1 820.831 309.452 C 741.447 338.303 696.199 376.881 647.818 445.312 L 642.496 444.535 C 646.686 421.953 645.978 397.404 647.245 374.447 C 649.405 335.306 652.379 296.431 657.749 257.577 z"/>
<path transform="translate(0,0)" fill="rgb(33,32,33)" d="M 1342.59 157.396 C 1345.59 158.157 1346.14 158.465 1349.03 157.497 C 1377.54 177.898 1389.21 222.95 1394.64 255.452 C 1401.24 294.958 1401.94 335.146 1403.9 375.063 C 1404.92 395.717 1407.46 417.021 1407.1 437.635 L 1402.27 438.022 C 1360.33 378.333 1303.14 336.785 1234.53 312.607 C 1235.71 278.391 1250.02 243.413 1268.63 215.081 C 1286.8 187.419 1309.29 164.179 1342.59 157.396 z"/>
<path transform="translate(0,0)" fill="rgb(0,0,0)" d="M 1129.98 285.626 C 1163.71 234.063 1243.33 162.519 1304.48 149.541 C 1318.4 146.586 1333.23 147.095 1345.54 155.048 A 67.1242 67.1242 0 0 1 1349.03 157.497 C 1346.14 158.465 1345.59 158.157 1342.59 157.396 C 1332.49 152.997 1322.92 151.471 1312.04 152.859 C 1294.2 155.133 1276.34 163.518 1260.79 172.164 C 1209.54 200.657 1168.64 241.426 1133.03 287.519 C 1141.42 313.796 1142.8 336.494 1134.12 363.065 C 1124.87 391.366 1105.97 416.127 1079.05 429.503 C 1049.42 444.225 1017.71 447.396 986.256 436.452 A 110.226 110.226 0 0 1 923.47 379.381 A 113.584 113.584 0 0 1 919.01 291.331 C 889.008 249.77 843.152 204.647 798.835 178.659 C 771.879 162.851 742.533 148.691 710.858 156.984 C 708.786 156.889 707.853 156.378 706.011 155.505 C 724.48 146.585 741.463 148.546 760.335 155.132 C 819.334 175.722 887.588 237.322 922.387 288.854 C 937.537 285.912 954.353 286.368 969.824 285.692 A 1758.5 1758.5 0 0 1 1086.79 284.463 C 1101.04 284.761 1115.81 284.375 1129.98 285.626 z"/>
<path transform="translate(0,0)" fill="rgb(254,254,254)" d="M 962.767 289.951 C 964.333 290.322 965.848 290.846 967.381 291.332 C 970.07 299.447 968.009 406.275 967.896 423.665 C 966.855 422.924 965.333 422.006 964.421 421.06 C 964.21 420.842 962.941 419.331 962.767 418.843 C 961.433 415.096 962.758 303.592 962.767 289.951 z"/>
<path transform="translate(0,0)" fill="rgb(254,254,254)" d="M 1080.21 288.223 C 1082.2 288.441 1083.72 288.794 1085.58 289.546 C 1087.3 302.176 1087.13 412.092 1084.67 422.892 L 1081.42 423.783 L 1080.07 422.705 L 1080.21 288.223 z"/>
<path transform="translate(0,0)" fill="rgb(254,254,254)" d="M 1021.5 287.303 C 1023.24 287.659 1024.79 288.096 1026.47 288.634 C 1028.98 295.249 1028.16 426.143 1027.76 439.704 C 1025.97 439.388 1024.41 438.856 1022.72 438.223 C 1020.75 432.231 1021.14 304.552 1021.5 287.303 z"/>
<path transform="translate(0,0)" fill="rgb(254,254,254)" d="M 489.506 364.397 C 490.843 364.294 492.16 364.208 493.501 364.168 C 526.599 363.185 570.094 372.301 594.745 395.962 C 637.745 437.236 620.944 536.436 617.524 590.656 C 615.137 628.512 612.717 667.262 613.618 705.174 C 615.432 781.528 640.224 857.226 696.849 910.723 C 755.504 966.139 845.526 985.549 923.547 991.795 C 938.226 992.97 953.434 994.783 968.144 994.41 C 943.941 1006.38 925.562 1020.44 910.728 1043.37 C 892.23 1071.96 885.967 1104.92 893.446 1138.22 A 126.431 126.431 0 0 0 949.653 1217.01 A 141.492 141.492 0 0 0 1056.77 1235.56 C 1091.76 1227.48 1121.22 1207.04 1139.99 1176.33 C 1156.97 1148.55 1163.92 1114.47 1155.93 1082.61 C 1144.78 1038.21 1119.05 1017.1 1081.42 994.676 C 1116.57 991.653 1152.05 988.407 1186.87 982.706 C 1287.5 966.228 1395.02 931.832 1474.33 865.403 C 1513.35 933.254 1546.66 1023.08 1562.09 1099.83 A 132.135 132.135 0 0 0 1544.09 1095.69 C 1503.26 1089.57 1460.08 1105.79 1427.68 1130.05 C 1319.44 1211.13 1270.91 1380.44 1260.6 1509.27 C 1258.29 1538.04 1256.43 1567.86 1259.27 1596.67 C 1262.94 1633.82 1294.53 1652.3 1286.91 1701.68 C 1283.58 1723.29 1269.8 1741.46 1252.43 1754.02 C 1235.25 1765.57 1216.34 1770.84 1196.06 1773.72 C 1196.03 1761.02 1198.39 1719.75 1193.87 1710.23 C 1188.83 1715.57 1191.58 1764.95 1191.73 1774.67 C 1173.11 1775.71 1155.4 1775.87 1136.85 1773.6 A 2110.63 2110.63 0 0 1 1136.76 1737.47 C 1136.81 1730.98 1137.56 1723.55 1136.67 1717.15 C 1136.36 1714.97 1135.38 1713.43 1134.08 1711.72 L 1132.79 1712.02 C 1129.57 1719.58 1131.41 1761.39 1131.32 1772.78 C 1118.68 1769.91 1105.93 1767.12 1094.06 1761.78 A 119.104 119.104 0 0 1 1026 1671.56 C 1024.22 1659.14 1024.95 1646.16 1024.94 1633.64 L 1024.92 1575.21 L 1024.86 1423.78 C 1024.87 1415.6 1026.86 1383.6 1023.19 1378.47 C 1020.08 1379.59 1020.53 1382.82 1020.3 1385.78 C 1018.59 1407.58 1020.25 1430.89 1020.22 1452.85 L 1020.34 1600.02 C 1020.42 1623.26 1022.73 1651.98 1019.22 1674.58 C 1016.73 1690.67 1010.85 1706.96 1002.05 1720.68 C 982.154 1751.7 954.279 1762.5 919.576 1770.17 C 919.614 1755.24 921.603 1723.57 918.709 1710.8 L 917.466 1710.24 C 916.146 1711.59 915.381 1713.01 915.043 1714.9 C 913.149 1725.49 915.099 1757.99 915.251 1770.76 C 897.058 1774.43 877.573 1773.22 859.119 1772.85 C 859.385 1760.98 862.187 1718.56 857.374 1710.26 L 855.386 1711.61 C 852.895 1730.95 854.834 1752.73 854.904 1772.35 C 828.516 1769.29 800.63 1761.07 782.377 1740.57 C 759.807 1715.23 758.226 1681.87 770.966 1651.6 C 778.551 1633.58 788.981 1619.06 789.957 1598.83 C 791.118 1574.77 789.263 1550.19 787.302 1526.21 C 777.339 1404.44 737.174 1253.81 653.55 1161.71 C 664.997 1144.85 676.053 1127.86 682.778 1108.47 C 699.886 1059.16 690.81 1006.11 668.098 960.156 C 641.847 907.044 593.385 861.655 536.831 842.851 C 496.203 829.342 449.579 828.432 409.038 842.969 C 397.112 847.246 385.921 853.303 374.631 858.998 C 369.183 829.832 364.681 801.125 362.863 771.475 C 358.679 703.234 361.531 635.149 366.79 567.066 C 370.089 524.357 373.191 478.626 386.414 437.642 C 391.081 423.18 397.412 409.823 407.611 398.43 C 428.495 375.101 459.092 366.225 489.506 364.397 z"/>
<path transform="translate(0,0)" fill="rgb(253,190,80)" d="M 441.977 406.032 C 444.868 405.982 447.807 406.144 450.591 407.003 C 454.194 408.114 457.17 411.577 458.751 414.895 C 460.69 418.964 460.828 423.413 459.122 427.585 C 457.201 432.281 454.188 434.387 449.618 436.217 C 447.163 436.267 444.232 436.526 441.844 435.891 A 16.9714 16.9714 0 0 1 431.007 427.275 C 429.231 423.817 428.958 419.876 430.376 416.24 C 432.533 410.708 436.78 408.267 441.977 406.032 z"/>
<path transform="translate(0,0)" fill="rgb(253,190,80)" d="M 562.974 412.13 C 565.455 411.943 567.926 411.759 570.377 412.304 C 574.546 413.23 578.019 416.005 580.089 419.717 C 582.417 423.891 582.769 428.467 581.418 433.028 C 579.84 438.357 576.478 441.554 571.805 444.272 C 569.612 444.307 567.411 444.352 565.236 444.012 C 560.878 443.328 556.909 440.493 554.531 436.802 C 552.026 432.913 551.551 428.447 552.731 424.013 C 554.298 418.119 557.936 415.146 562.974 412.13 z"/>
<path transform="translate(0,0)" fill="rgb(253,190,80)" d="M 500.146 401.082 C 501.933 400.936 503.739 400.783 505.533 400.81 A 16.6857 16.6857 0 0 1 518.106 406.959 C 521.083 410.562 522.079 415.11 521.319 419.675 C 520.218 426.279 516.234 429.737 511.014 433.433 C 508.32 433.992 505.91 434.48 503.167 433.936 C 499.236 433.156 495.743 430.61 493.602 427.249 C 490.81 422.864 490.17 417.178 491.34 412.167 C 492.666 406.492 495.38 404.152 500.146 401.082 z"/>
<path transform="translate(0,0)" fill="rgb(253,190,80)" d="M 486.531 469.154 C 502.706 468.346 517 469.895 530.794 479.337 A 60.4209 60.4209 0 0 1 556.203 518.021 C 559.454 535.463 555.946 554.123 545.755 568.731 C 535.041 584.089 521.267 591.463 503.058 594.7 A 61.1489 61.1489 0 0 1 462.976 587.064 C 448.392 578.367 438.264 563.5 434.338 547.092 A 64.5503 64.5503 0 0 1 442.359 497.718 C 452.582 481.511 468.246 473.027 486.531 469.154 z"/>
</svg>