<svg version="1.1" xmlns="http://www.w3.org/2000/svg" style="display: block;" viewBox="0 0 2048 2048" width="1024" height="1024">
<path transform="translate(0,0)" fill="rgb(223,210,186)" d="M 0 0 L 2048 0 L 2048 2048 L 0 2048 L 0 0 z"/>
<path transform="translate(0,0)" fill="rgb(0,0,1)" d="M 840.028 126.265 C 842.168 125.982 844.328 125.71 846.488 125.66 C 886.588 124.725 940.539 186.606 966.023 213.809 A 1029.37 1029.37 0 0 0 996.303 244.778 C 1029.79 248.581 1064.26 244.534 1097.95 246.635 C 1108.02 235.852 1119.17 226.099 1129.25 215.265 C 1158.48 183.853 1194.62 134.981 1239.07 126.657 C 1248 124.985 1256.27 126.424 1263.7 131.754 C 1276.7 141.071 1284.7 157.788 1290.89 172.021 C 1325.39 251.323 1309.08 321.569 1311.12 403.386 C 1312.07 441.525 1319.35 479.045 1318.13 517.356 C 1317.72 530.119 1316.56 543.241 1314.33 555.815 C 1313.37 561.259 1308.41 577.16 1309.48 581.512 C 1309.84 582.952 1313.14 584.266 1314.44 585.018 L 1314.21 585.799 L 1309.46 585.081 C 1307.66 586.581 1287.29 640.037 1277.56 651.857 C 1275.65 654.175 1273.8 656.537 1271.91 658.878 C 1276.88 672.326 1278.11 681.939 1276.59 696.227 C 1291.96 709.715 1308.65 720.381 1325.85 731.306 C 1332.22 724.333 1339.8 720.525 1347.99 716.176 C 1355.42 690.613 1354.17 663.563 1358.09 637.361 C 1361.38 615.407 1366.85 593.797 1370.98 571.99 C 1380.31 522.804 1387.19 459.838 1377.03 410.586 C 1372.63 389.285 1359.15 373.148 1351.38 353.305 C 1341.49 328.032 1341.29 299.174 1352.4 274.219 C 1364.04 248.088 1385.75 232.969 1411.99 223.237 C 1436.25 214.245 1467.86 213.073 1491.61 224.307 C 1512.06 233.978 1528.25 253.576 1535.57 274.819 C 1547.48 309.412 1531.4 344.813 1531.02 379.777 C 1530.75 403.526 1535.71 428.177 1539.37 451.613 C 1545.87 493.213 1553.31 534.817 1557.64 576.718 C 1565.35 651.289 1565.33 743.311 1539.38 814.387 C 1519 870.178 1480.4 922.687 1438.49 964.394 C 1402.56 1000.15 1355.62 1029.52 1332.74 1076.5 C 1375.46 1107.39 1404.44 1151.46 1420.22 1201.48 C 1457.48 1319.66 1390.5 1435.88 1337.76 1537.57 C 1337.71 1537.81 1337.64 1538.04 1337.6 1538.29 C 1337.24 1540.74 1337.84 1543.14 1339.49 1545.05 C 1345.93 1552.46 1392.01 1548.75 1403.92 1549.47 C 1443.72 1588 1485.09 1625.13 1525.83 1662.67 C 1526.51 1751.18 1527.6 1840.22 1525.47 1928.71 L 514.005 1929.25 C 509.768 1929.26 503.29 1930.04 499.966 1927.03 C 497.419 1919.8 499.06 1881.43 499.054 1870.9 L 499.027 1742.27 C 499.009 1715.45 498.174 1688.63 498.482 1661.81 C 509.152 1653.5 519.061 1643.54 528.876 1634.23 C 547.253 1616.81 565.317 1599.03 583.436 1581.34 C 594.587 1570.46 605.639 1556.69 619.325 1549.11 C 641.006 1549.28 662.879 1548.45 684.529 1549.65 C 686.559 1545.93 689.178 1542.45 691.574 1538.95 C 681.048 1516.83 669.348 1495.28 658.875 1473.14 C 625.105 1401.77 597.345 1324.2 605.207 1243.96 C 612.805 1166.42 661.777 1101.72 720.518 1053.73 C 722.687 994.166 739.552 934.919 754.898 877.663 C 765.323 838.769 774.902 800.427 790.487 763.162 A 359.425 359.425 0 0 1 828.739 695.071 A 422.649 422.649 0 0 0 830.757 667.516 C 826.684 660.911 822.525 654.317 818.734 647.547 C 800.568 615.099 790.491 576.721 786.461 539.943 A 388.822 388.822 0 0 1 787.02 456.42 C 789.037 439.16 792.275 422.116 792.907 404.716 C 793.787 380.491 793.625 355.822 792.954 331.591 C 791.664 284.989 788.098 235.916 801.249 190.579 C 807.508 169.002 819.217 137.664 840.028 126.265 z"/>
<path transform="translate(0,0)" fill="rgb(227,205,166)" d="M 965.901 1656.02 A 126.391 126.391 0 0 1 969.646 1657.31 L 970.741 1660.68 C 967.778 1661.3 964.771 1661.23 961.752 1661.33 C 959.981 1661.42 958.311 1661.37 956.544 1661.29 C 957.615 1659.06 963.499 1657.16 965.901 1656.02 z"/>
<path transform="translate(0,0)" fill="rgb(213,152,77)" d="M 887.457 1656.78 C 887.749 1656.79 888.051 1656.74 888.331 1656.82 C 893.279 1658.26 898.7 1659.92 903.452 1661.94 C 901.348 1663.07 899.135 1662.52 896.776 1662.41 L 874.779 1661.87 C 879.126 1660.41 883.261 1658.61 887.457 1656.78 z"/>
<path transform="translate(0,0)" fill="rgb(133,58,12)" d="M 1199.43 215.471 C 1209.22 209.047 1217.37 204.699 1229.38 203.912 C 1228.92 204.216 1228.47 204.534 1228 204.825 C 1224.21 207.179 1216.47 208.344 1211.63 210.482 C 1215.68 210.546 1219.64 210.195 1223.3 212.115 C 1215.1 212.414 1207.46 213.878 1199.43 215.471 z"/>
<path transform="translate(0,0)" fill="rgb(184,107,27)" d="M 1237.73 310.906 C 1245.85 311.828 1256.24 311.371 1262.25 317.711 L 1260.88 318.26 C 1250.31 319.333 1246.36 316.621 1237.73 310.906 z"/>
<path transform="translate(0,0)" fill="rgb(213,152,77)" d="M 1056.01 794.313 C 1040.82 792.812 1038.41 797.548 1025.89 802.453 L 1026.11 800.723 C 1027.92 798.553 1029.71 796.77 1032.11 795.243 C 1040.78 789.713 1051.41 788.844 1061.32 790.814 C 1065.85 793.229 1069.41 795.972 1073.25 799.307 C 1067.59 797.416 1061.92 795.27 1056.01 794.313 z"/>
<path transform="translate(0,0)" fill="rgb(133,58,12)" d="M 538.913 1833.37 C 545.577 1832.59 552.125 1832.09 558.832 1831.89 C 557.228 1832.92 555.659 1833.77 553.935 1834.6 C 543.133 1839.75 520.788 1846.5 509.178 1841.89 C 507.178 1841.09 507.451 1840.67 506.574 1838.85 C 506.845 1836.48 507.17 1835.34 508.556 1833.4 L 511.974 1833.13 C 520.383 1834.72 530.415 1834.41 538.913 1833.37 z"/>
<path transform="translate(0,0)" fill="rgb(133,58,12)" d="M 533.473 1703.08 C 524.88 1703.91 516.202 1705.43 507.58 1705.62 C 507.337 1702.97 506.963 1700.52 507.682 1697.91 C 512.065 1695.62 518.4 1696.95 523.339 1697.32 C 526.97 1698.07 530.416 1698.21 534.116 1698.29 L 537.739 1699.47 C 552.281 1701.48 574.491 1708.11 584.171 1719.7 C 577.84 1719.83 568.275 1711.28 561.502 1709.22 C 552.005 1706.34 543.51 1703.59 533.473 1703.08 z"/>
<path transform="translate(0,0)" fill="rgb(133,58,12)" d="M 1468.34 1693.58 C 1478.33 1689.29 1503.12 1685.61 1513.75 1689.46 C 1516.18 1690.34 1516.21 1691.01 1517.1 1693.23 C 1514.94 1695.59 1511.57 1695.67 1508.56 1695.78 C 1498.95 1696.16 1489.38 1696.03 1479.83 1697.37 L 1464.78 1699.68 L 1460.55 1700.93 C 1455.31 1702.18 1450.18 1704.65 1445.18 1706.65 C 1452.57 1701.77 1459.89 1696.43 1468.34 1693.58 z"/>
<path transform="translate(0,0)" fill="rgb(133,58,12)" d="M 1269.45 1670.3 C 1289.14 1667.39 1313 1671.05 1333.21 1671.2 C 1329.76 1672.98 1326.2 1674.59 1322.69 1676.25 C 1314.57 1680.01 1306.6 1684.16 1298.58 1688.12 C 1289.26 1681.37 1279.72 1675.51 1269.45 1670.3 z"/>
<path transform="translate(0,0)" fill="rgb(133,58,12)" d="M 620.39 1737.14 C 627.608 1749.15 631.72 1762.87 628.174 1776.88 C 627.759 1778.53 627.274 1780.19 626.673 1781.78 C 621.527 1802.1 602.046 1818.45 584.858 1828.78 C 567.291 1839.34 544.229 1848.44 523.799 1851.37 C 521.679 1851.98 519.594 1852.62 517.426 1853.04 C 514.57 1854.08 511.92 1855.16 508.855 1855.39 C 506.965 1852.95 507.052 1850.69 506.579 1847.67 C 508.581 1847.23 510.365 1847.26 512.407 1847.32 C 537.467 1846.88 567.131 1838.53 588.09 1824.51 C 607.629 1811.43 620.487 1794.02 624.961 1770.88 C 625.001 1758.96 623.327 1748.66 620.39 1737.14 z"/>
<path transform="translate(0,0)" fill="rgb(223,210,186)" d="M 830.627 709.753 C 839.78 719.635 844.705 729.123 855.348 738.817 C 850.204 739.227 845.056 740.208 839.955 740.991 C 830.858 742.256 822.387 741.902 813.314 740.657 C 818.375 729.746 823.496 719.485 830.627 709.753 z"/>
<path transform="translate(0,0)" fill="rgb(223,210,186)" d="M 1271.71 711.679 C 1281.55 718.138 1295.26 729.64 1298.83 741.175 C 1298.37 743.911 1298.43 743.804 1296.27 745.536 C 1292.25 746.529 1289.19 745.682 1285.2 744.785 C 1275.13 742.531 1265.99 738.555 1256.68 734.183 C 1262.64 727.273 1267.16 719.555 1271.71 711.679 z"/>
<path transform="translate(0,0)" fill="rgb(133,58,12)" d="M 1480.95 1758.25 C 1493.02 1757.81 1505.78 1759.24 1517.82 1760.27 C 1517.86 1765.7 1519.49 1772.43 1517.09 1777.39 C 1513.83 1779.43 1512.01 1778.68 1508.24 1778.4 C 1500.03 1777.7 1491.63 1777.06 1483.54 1775.41 C 1478.66 1774.41 1473.83 1773.22 1470.98 1768.84 C 1470.88 1766.91 1470.64 1766.34 1471.51 1764.51 C 1473.38 1760.6 1477.07 1759.44 1480.95 1758.25 z"/>
<path transform="translate(0,0)" fill="rgb(133,58,12)" d="M 1494.61 1868.34 A 82.3454 82.3454 0 0 1 1490.7 1867.4 C 1459.68 1859.11 1421.98 1829.27 1406.05 1801.46 A 74.1447 74.1447 0 0 1 1399.14 1744.57 C 1404.56 1725.5 1415.68 1710.31 1433.08 1700.64 C 1437.5 1698.18 1451.64 1690.49 1456.27 1691.79 C 1449.62 1697.09 1440.2 1699.48 1432.72 1703.84 C 1416.56 1713.25 1406.26 1727.61 1401.62 1745.68 C 1396.58 1765.33 1399.28 1784.31 1409.69 1801.73 C 1428.99 1834.03 1464.02 1855.91 1499.82 1865.1 C 1502.31 1865.51 1505.59 1865.69 1507.94 1866.53 C 1511.5 1866.9 1513.42 1866.72 1516.39 1868.8 L 1515.69 1870.08 C 1512.99 1870.63 1511.32 1870.49 1508.67 1870.06 C 1503.99 1869.85 1499.26 1868.97 1494.61 1868.34 z"/>
<path transform="translate(0,0)" fill="rgb(133,58,12)" d="M 1468.17 1846.32 C 1447.21 1835.91 1418.2 1809.46 1409.55 1786.96 C 1403.47 1771.15 1405.35 1754.26 1412.4 1739.07 C 1416.81 1729.59 1428.77 1714.78 1438.82 1710.99 C 1438.04 1714.61 1426.69 1723.09 1423.62 1726.52 C 1412.77 1738.65 1408.43 1753.77 1409.28 1769.76 C 1410.44 1790.16 1423.17 1808.19 1437.99 1821.41 C 1447.17 1829.6 1461.61 1838.94 1473.62 1841.9 L 1474.08 1843.2 C 1481.6 1845.08 1513.86 1851.94 1517.52 1856.1 L 1517.35 1857.95 C 1511.27 1861.61 1501.78 1859.55 1495.19 1857.9 A 97.1801 97.1801 0 0 1 1468.17 1846.32 z"/>
<path transform="translate(0,0)" fill="rgb(133,58,12)" d="M 669.455 1815.61 C 666.465 1771.83 656.653 1739.63 625.958 1706.91 C 649.87 1719.76 668.061 1739.28 676.113 1765.63 C 682.152 1785.4 680.894 1808.23 671.632 1826.83 C 670.094 1830.77 667.237 1834.53 664.985 1838.11 C 667.081 1830.68 668.273 1823.23 669.455 1815.61 z"/>
<path transform="translate(0,0)" fill="rgb(133,58,12)" d="M 1461.8 1755.84 C 1474.87 1744.26 1492.18 1742.92 1508.91 1743.95 C 1512.42 1744.16 1514.7 1744.11 1517.35 1746.42 C 1518.09 1749.44 1517.98 1751.53 1517.52 1754.6 C 1509.55 1758.78 1473.22 1746.55 1468.08 1764.48 C 1467.2 1767.54 1467.69 1770.2 1469.48 1772.8 C 1474.71 1780.39 1491.56 1781.2 1500 1781.87 A 690.474 690.474 0 0 0 1517.81 1782.98 L 1517.66 1798.98 C 1510.85 1797.57 1502.93 1797.95 1495.93 1797.5 C 1485.21 1795.91 1471.74 1793.49 1465.08 1784.03 C 1459.21 1775.69 1460.58 1765.35 1461.8 1755.84 z"/>
<path transform="translate(0,0)" fill="rgb(133,58,12)" d="M 592.588 1701.73 C 582.513 1694.31 569.836 1687.62 557.9 1683.68 C 557.615 1683.59 557.328 1683.5 557.042 1683.41 L 557.57 1682.98 C 570.008 1686.28 584.972 1690.15 595.189 1698.26 C 605.127 1704.46 614.401 1711.6 621.448 1721.07 C 628.313 1730.82 634.758 1740.77 636.746 1752.75 C 637.596 1765.25 638.582 1777.47 633.873 1789.38 C 626.602 1812.67 608.683 1831.24 587.31 1842.4 C 577.547 1847.49 564.367 1853.21 553.28 1854.09 C 539.639 1856.72 525.174 1857.46 511.324 1858.53 C 519.047 1854.92 527.773 1853.14 536.228 1852.32 C 543.997 1850.86 551.799 1849.17 559.191 1846.32 C 587.744 1835.3 618.699 1812.65 631.084 1784.17 C 633.553 1775.17 633.888 1766.6 634.153 1757.34 C 632.236 1743.56 625.916 1734.31 617.584 1723.63 C 610.011 1715.08 601.847 1708.38 592.588 1701.73 z"/>
<path transform="translate(0,0)" fill="rgb(133,58,12)" d="M 1472.03 1681.44 C 1483.11 1679.24 1507.2 1676.04 1517.27 1680.83 C 1515.93 1682.47 1514.93 1682.31 1512.83 1682.49 C 1507.61 1682.94 1502.24 1682.01 1496.99 1682.11 C 1488.88 1682.27 1480.73 1683.35 1472.68 1684.25 C 1456.28 1687.05 1439.33 1691.97 1423.74 1697.78 C 1400.1 1707.55 1358.96 1718.83 1348.7 1744.26 C 1343.42 1757.36 1345 1775.48 1350.65 1788.28 C 1364.46 1819.57 1401.49 1835.79 1430.19 1850.36 C 1441.85 1856.26 1453.75 1862.79 1466.06 1867.22 C 1470.63 1868.95 1475.18 1870.74 1479.84 1872.24 L 1481.19 1872.67 C 1491.08 1875.73 1507.51 1875.61 1515.87 1880.14 L 1514.39 1880.75 L 1514.67 1880.83 L 1513.98 1879.66 L 1513.14 1880.8 C 1501.29 1880.06 1489.71 1878.6 1478.09 1876.19 C 1472.93 1874.6 1467.92 1872.61 1462.89 1870.67 C 1451.5 1865.4 1439.62 1860.22 1428.97 1853.59 C 1401.22 1840.47 1354.47 1816.76 1342.46 1787.8 C 1337.1 1774.89 1338.37 1761.41 1343.92 1748.83 C 1357.74 1717.42 1390.16 1707.12 1419.79 1695.59 C 1436.71 1688.38 1454.09 1684.99 1472.03 1681.44 z"/>
<path transform="translate(0,0)" fill="rgb(133,58,12)" d="M 1202.22 1669.84 C 1251.01 1668.41 1256.61 1665.62 1297.41 1693.32 C 1313.55 1686.78 1329.24 1675.76 1346.42 1672.36 C 1353.64 1670.51 1361.44 1670.43 1368.86 1669.93 L 1358.04 1674.21 C 1334.54 1680.67 1308.98 1697.33 1292.5 1715.14 C 1266.66 1683.03 1240.79 1677.7 1202.22 1669.84 z"/>
<path transform="translate(0,0)" fill="rgb(133,58,12)" d="M 625.226 1670.3 C 635.674 1669.89 646.031 1669.88 656.481 1670.06 C 677.771 1687.81 708.234 1696.82 734.183 1705.55 C 729.15 1712.65 724.809 1719.92 720.718 1727.6 L 714.509 1741.21 C 695.484 1704.73 662.588 1684.81 625.226 1670.3 z"/>
<path transform="translate(0,0)" fill="rgb(133,58,12)" d="M 640.169 1754.78 C 643.632 1763.78 645.815 1774.26 645.698 1783.93 C 645.456 1803.96 634.348 1824.37 620.239 1838.11 C 591.318 1866.3 548.323 1870.75 509.866 1870.13 L 508.042 1869.43 C 507.112 1867.1 507.237 1865.51 507.344 1863.06 C 507.753 1862.57 507.994 1861.86 508.571 1861.59 C 510.677 1860.59 535.841 1860.81 540.641 1860.33 C 571.538 1857.23 600.731 1845.28 620.676 1820.68 C 636.398 1801.29 642.733 1779.49 640.169 1754.78 z"/>
<path transform="translate(0,0)" fill="rgb(223,210,186)" d="M 1249.94 740.76 C 1257.9 745.683 1268.57 759.36 1275.01 766.712 C 1279.33 771.638 1286.52 779.885 1285.03 786.953 C 1284.51 789.398 1283.16 790.85 1281.05 792.054 C 1275.21 795.386 1264.81 791.892 1258.76 790.609 L 1257.51 790.307 C 1241.08 786.205 1228.12 779.241 1219.27 764.332 C 1230.48 757.719 1240.09 749.186 1249.94 740.76 z"/>
<path transform="translate(0,0)" fill="rgb(133,58,12)" d="M 1259 1907.43 C 1293.13 1904.92 1351.09 1907 1382.89 1918.73 C 1364.37 1919.94 1345.67 1919.23 1327.12 1919.05 A 5702.56 5702.56 0 0 0 1252.25 1918.85 L 1180.86 1919 C 1163.96 1919.07 1146.54 1919.85 1129.73 1917.96 C 1144.63 1914.92 1160.77 1914.55 1175.94 1913.29 A 1881.04 1881.04 0 0 1 1259 1907.43 z"/>
<path transform="translate(0,0)" fill="rgb(133,58,12)" d="M 1517.25 1817.03 C 1501.48 1815.3 1485.71 1813.26 1471.36 1806.04 C 1458.38 1799.51 1446.21 1788.27 1441.79 1774.13 C 1439.54 1766.92 1440.03 1759.16 1443.74 1752.52 C 1449.53 1742.15 1460.93 1736.37 1472 1733.34 C 1484.79 1729.82 1506.08 1726.77 1518.06 1733.53 C 1518.04 1734.49 1518.46 1735.58 1517.98 1736.4 C 1515.91 1739.95 1493.58 1739.35 1488.79 1739.92 C 1484.82 1740.4 1480.78 1741.37 1477 1742.66 C 1468.39 1745.59 1462.29 1750.1 1456.17 1756.59 C 1457.69 1766.48 1456.06 1776.11 1461.72 1785.14 C 1468.22 1795.52 1480.67 1798.08 1491.72 1800.78 C 1496.39 1801.27 1501.35 1802.17 1506.04 1801.94 C 1509.46 1802.32 1512.92 1802.4 1516.02 1804 C 1518.17 1807.97 1517.3 1812.55 1517.25 1817.03 z"/>
<path transform="translate(0,0)" fill="rgb(133,58,12)" d="M 697.826 1669.53 C 728.747 1668.35 760.162 1668.33 791.088 1669.22 C 773.249 1674.84 757.763 1683.3 743.615 1695.55 C 740.931 1698.31 738.243 1700.94 735.295 1703.42 C 724.045 1703.62 673.964 1676.64 661.548 1670.04 C 673.625 1669.66 685.743 1669.69 697.826 1669.53 z"/>
<path transform="translate(0,0)" fill="rgb(133,58,12)" d="M 1507.33 1717.27 C 1510.35 1717.15 1514.18 1716.29 1516.57 1718.12 C 1517.11 1721.02 1517.2 1722.32 1516.22 1725.22 C 1510.71 1726.62 1504.24 1724.87 1498.53 1725.03 C 1479 1725.58 1452.54 1730.75 1441.4 1748.61 C 1439.98 1750.89 1438.78 1753.33 1437.66 1755.76 C 1436.72 1761.16 1435.92 1765.84 1437.21 1771.29 C 1439.51 1779.86 1443.08 1786.44 1447.99 1793.76 C 1467.26 1811.8 1486.06 1817.26 1511.65 1820.54 C 1515.16 1820.99 1516.77 1821.68 1517.11 1825.53 C 1517.31 1827.84 1516.93 1829.28 1515.45 1831.06 C 1490.32 1829.34 1459.88 1822.8 1441.61 1804.09 C 1432.37 1795.98 1425.3 1786.79 1423.77 1774.19 C 1422.49 1763.67 1425.09 1752.93 1431.84 1744.67 C 1444.61 1729.06 1469.57 1720.58 1488.98 1718.53 L 1507.33 1717.27 z"/>
<path transform="translate(0,0)" fill="rgb(133,58,12)" d="M 507.273 1707.99 C 520.806 1707.03 538.041 1705.09 550.819 1710.67 C 563.045 1714.66 571.478 1719.9 579.851 1729.83 C 574.516 1727.21 567.694 1724.58 563.178 1720.68 C 547.648 1713.69 525.151 1710.75 508.746 1717.32 C 508.305 1717.5 507.902 1717.76 507.48 1717.98 C 511.928 1719.86 519.107 1717.29 523.966 1716.89 C 541.595 1715.47 560.541 1720.62 574.263 1731.77 C 581.725 1737.75 585.269 1740.71 586.378 1750.63 A 158.649 158.649 0 0 1 586.685 1753.73 C 582.773 1746.21 576.67 1740.15 572.865 1732.84 C 568.969 1730.96 565.778 1729.03 562.456 1726.25 C 557.293 1725.58 552.159 1725.25 546.966 1724.96 C 559.34 1730.65 565.657 1734.16 573.525 1745.54 C 580.27 1754.08 584.248 1768.05 583.547 1778.74 C 582.555 1778.05 574.467 1754.29 571.119 1749.31 C 564.136 1740.02 557.811 1735.07 547.178 1730.5 C 534.961 1728.95 519.131 1727.24 508.147 1734.23 C 508.505 1734.31 508.856 1734.44 509.221 1734.49 C 512.626 1735 516.759 1733.67 520.165 1733.18 C 537.781 1730.61 550.812 1732.79 562.489 1747.38 C 563.363 1748.47 563.403 1748.57 564.063 1749.57 C 567.189 1754.09 569.796 1758.42 572.128 1763.41 C 573.805 1770.29 574.773 1776.75 575.018 1783.86 C 572.94 1779.77 570.328 1775.51 569.176 1771.06 C 567.697 1763.96 565.512 1758.4 560.885 1752.76 C 546.086 1745.19 522.804 1751.24 506.729 1753.5 C 506.677 1746.86 506.605 1740.29 507.247 1733.66 C 506.428 1725.33 507.178 1716.39 507.273 1707.99 z"/>
<path transform="translate(0,0)" fill="rgb(133,58,12)" d="M 1482.46 1701.44 C 1493.06 1700.79 1505.11 1699.37 1515.58 1701.43 C 1517.72 1703.99 1517.02 1709.43 1517.02 1712.87 C 1512.35 1713.13 1507.48 1713.12 1502.87 1713.85 C 1495.18 1714.04 1487.32 1714.19 1479.79 1715.92 C 1465.57 1717.36 1452.1 1724.43 1440.22 1732.01 C 1436.03 1735.8 1431.66 1739.34 1427.29 1742.91 C 1420.47 1750.92 1417.74 1760.47 1418.67 1770.96 C 1420.16 1787.76 1432.11 1802.28 1444.9 1812.38 A 82.9989 82.9989 0 0 0 1470.11 1826.02 C 1477.46 1828.53 1512.72 1834.23 1516.09 1837.12 C 1516.49 1837.47 1516.96 1839.7 1516.98 1839.85 C 1517.22 1841.62 1516.85 1843.82 1516.72 1845.61 C 1513.39 1848.03 1510.08 1847.39 1506.15 1846.8 C 1496.67 1845.37 1486.9 1842.23 1477.85 1839.09 C 1463.15 1833.34 1449.54 1826.59 1438.01 1815.59 C 1421.88 1800.2 1413.47 1782.84 1412.87 1760.56 C 1415.3 1748.52 1418.78 1739.73 1426.77 1730.22 C 1426.84 1730.1 1426.89 1729.96 1426.98 1729.85 C 1438.16 1714.5 1454.78 1707.33 1472.47 1702.62 C 1475.73 1702.58 1479.21 1701.85 1482.46 1701.44 z"/>
<path transform="translate(0,0)" fill="rgb(184,107,27)" d="M 1151.71 932.103 C 1154.07 934.81 1154.35 939.84 1154.92 943.342 C 1144.57 949.132 1134.25 954.517 1123 958.374 C 1071.02 976.199 1006.02 974.936 956.396 950.348 L 955.854 949.887 C 954.018 946.519 956.044 940.001 956.669 936.258 A 210.918 210.918 0 0 0 976.672 944.793 C 1036.02 966.086 1095.62 958.848 1151.71 932.103 z"/>
<path transform="translate(0,0)" fill="rgb(184,107,27)" d="M 934.418 756.467 C 947.484 756.898 963.408 762.986 976.273 766.176 C 1000.12 772.088 1025.74 776.674 1050.35 777.049 C 1071.18 777.366 1092.72 774.241 1113.21 770.547 C 1120.79 769.182 1128.75 766.619 1136.39 766.053 C 1139.25 765.841 1141.73 766.375 1144.43 767.25 C 1146.51 769.206 1146.81 769.515 1147.56 772.245 C 1146.84 775.295 1146.29 776.793 1144.33 779.236 C 1130.17 784.271 1095.99 789.251 1081.23 787.526 C 1071.15 786.348 1061.5 782.295 1051.24 782.08 C 1041.2 781.87 1032.39 786.379 1022.6 787.295 C 996.413 789.745 962.324 779.609 937.287 771.022 L 936.688 769.844 C 934.114 764.702 932.544 762.065 934.418 756.467 z"/>
<path transform="translate(0,0)" fill="rgb(133,58,12)" d="M 1407.86 1687.09 L 1408.32 1687.35 C 1406.82 1690.2 1389.74 1697.79 1385.6 1700.4 C 1365.54 1713.02 1344.14 1734.52 1337.14 1757.78 C 1333.21 1770.87 1335.3 1784.07 1341.97 1795.87 C 1347.31 1805.33 1355.05 1813.24 1363.52 1819.94 C 1384.51 1836.54 1450.37 1871.83 1475.43 1879.76 C 1489.15 1884.1 1503.52 1883.65 1517.24 1887.35 L 1516.77 1889.04 C 1513.22 1890.64 1509.5 1890.2 1505.7 1890.11 A 173.267 173.267 0 0 1 1468.64 1882.85 C 1431.7 1871.13 1343.3 1829.73 1326.21 1794.78 C 1320.6 1783.32 1320.2 1770.05 1324.51 1758.1 C 1327.8 1749 1333.54 1740.86 1339.72 1733.51 C 1359.21 1710.29 1381.07 1699.88 1407.86 1687.09 z"/>
<path transform="translate(0,0)" fill="rgb(213,152,77)" d="M 1046.87 800.268 C 1052.48 800.094 1057.46 800.535 1062.78 802.467 C 1070.9 805.42 1077.49 811.094 1080.95 819.099 A 29.7901 29.7901 0 0 1 1080.66 843.465 C 1075.93 853.882 1067.48 859.44 1057.17 863.31 C 1048.98 864.27 1042.48 864.179 1035.15 859.763 C 1027.01 854.861 1021.61 846.238 1019.52 837.086 C 1017.67 828.981 1018.46 820.339 1023.27 813.381 C 1028.86 805.304 1037.55 801.946 1046.87 800.268 z"/>
<path transform="translate(0,0)" fill="rgb(0,0,1)" d="M 1041.88 821.993 C 1042.23 821.973 1042.59 821.943 1042.94 821.934 C 1047.34 821.816 1051.25 822.135 1054.38 825.638 C 1056.01 827.454 1056.72 829.662 1056.33 832.079 C 1055.68 836.112 1052.94 838.245 1049.89 840.518 C 1045.45 840.728 1041.41 841.023 1037.99 837.609 C 1036.19 835.811 1035.32 833.437 1035.64 830.903 C 1036.18 826.68 1038.79 824.503 1041.88 821.993 z"/>
<path transform="translate(0,0)" fill="rgb(213,152,77)" d="M 1043.58 825.572 C 1043.92 825.604 1044.26 825.622 1044.59 825.666 C 1047.6 826.062 1049.51 826.589 1051.47 828.97 C 1052.11 831.953 1051.57 833.001 1050.37 835.664 C 1049.42 835.748 1047.88 835.918 1046.96 835.835 C 1044.36 835.599 1043.77 834.97 1042.17 833.151 C 1041.76 830.107 1042.49 828.323 1043.58 825.572 z"/>
<path transform="translate(0,0)" fill="rgb(133,58,12)" d="M 506.631 1755.35 C 525.281 1754.73 540.71 1751.39 559.331 1755.89 C 541.772 1766.24 523.406 1768.08 504.103 1773.19 C 516.282 1774.8 532.839 1771.93 544.216 1767.28 C 549.204 1765.24 553.915 1762.24 558.975 1760.46 C 561.26 1759.65 561.423 1759.72 563.516 1760.69 C 564.255 1763.52 563.88 1765.88 562.302 1768.41 C 555.976 1778.55 524.983 1780.54 514.154 1782.11 C 532.872 1785.14 548.808 1781.9 565.159 1772.7 L 569.114 1781.46 C 546.861 1794.11 538.983 1793.1 516.063 1800.48 L 514.922 1800.85 C 534.072 1801.54 553.975 1796.31 570.6 1787.05 L 574.766 1784.04 L 576.139 1784.43 C 576.39 1786.85 575.618 1788.11 574.551 1790.23 L 570.992 1792.9 C 550.91 1804.89 537.37 1809 514.477 1811.99 L 514.624 1812.08 L 512.111 1812.35 C 515.069 1814.79 523.082 1813.72 526.952 1813.34 C 535.443 1812.51 543.803 1810.66 552.015 1808.39 C 558.197 1805.73 564.347 1802.82 570.616 1800.39 L 570.152 1802.11 C 569.693 1802.32 569.232 1802.52 568.776 1802.73 C 563.226 1805.3 559.284 1809.52 554.287 1812.78 C 543.97 1818.75 533.299 1823.02 521.857 1826.31 C 525.069 1826.59 527.814 1826.58 531.021 1826.26 C 541.201 1824.22 552.507 1821.35 560.365 1814.1 C 563.123 1811.56 565.699 1807.54 569.082 1805.98 L 569.806 1806.82 C 567.225 1814.38 560.421 1821.12 553.345 1824.55 C 548.254 1827.02 543.397 1828.36 537.836 1829.32 L 537.343 1829.07 C 532.597 1830.13 528.032 1830.17 523.203 1830.22 C 518.346 1830.18 513.466 1830.35 508.608 1830.42 L 507.75 1829.61 C 504.749 1819.15 506.633 1769.33 506.631 1755.35 z"/>
<path transform="translate(0,0)" fill="rgb(213,152,77)" d="M 934.825 731.817 C 953.188 734.166 973.647 741.06 993.118 743.932 A 421.687 421.687 0 0 0 1109.37 744.57 C 1122.2 742.892 1134.77 739.83 1147.6 738.195 C 1150.36 739.391 1151.35 740.025 1153.14 742.602 C 1153.6 744.721 1153.84 746.203 1153.23 748.327 C 1151.93 752.842 1149.65 754.942 1145.69 757.259 C 1083.75 776.424 999.843 772.994 939.065 751.108 C 935.156 749.7 930.721 747.993 928.819 744.048 C 928.643 739.014 931.621 735.367 934.825 731.817 z"/>
<path transform="translate(0,0)" fill="rgb(133,58,12)" d="M 1364.13 1689.3 C 1385.9 1678.09 1405.44 1672.11 1429.87 1670.19 C 1437.87 1669.57 1446.97 1669.06 1454.89 1670.56 C 1447.44 1673.56 1435.29 1671.84 1427.07 1672.74 C 1418.02 1673.73 1408.83 1675.51 1399.97 1677.61 C 1386.95 1680.68 1378.97 1687.9 1367.71 1692.42 C 1345.28 1708.56 1320.09 1728.98 1307.27 1754.01 C 1340.29 1720.78 1350.34 1700.36 1398.27 1683.63 C 1405.26 1681.19 1416.12 1676.92 1423.44 1676.93 C 1423.93 1676.93 1424.41 1676.95 1424.9 1676.96 C 1416.18 1682.2 1404.52 1683.96 1395.02 1688.14 C 1366.33 1700.78 1328.36 1729.16 1319.95 1761.18 C 1316.48 1774.43 1317.84 1788.59 1325.02 1800.38 C 1342.27 1828.72 1392.93 1854.44 1423.56 1868.44 C 1434.27 1873.33 1447.54 1877.81 1457.25 1884.42 C 1478.93 1892.71 1499.47 1894.85 1522.02 1898.71 C 1499.45 1901.86 1476.81 1896.71 1455.41 1889.54 C 1449.37 1888.05 1443.39 1885.83 1437.53 1883.73 C 1386.39 1865.39 1325.07 1836.21 1300.98 1784.35 C 1295.63 1772.82 1293.22 1760.78 1297.94 1748.57 C 1308.28 1721.77 1338.84 1700.42 1364.13 1689.3 z"/>
<path transform="translate(0,0)" fill="rgb(133,58,12)" d="M 586.531 1684.86 C 592.542 1687.08 598.322 1689.33 604.004 1692.31 C 632.64 1708.43 651.2 1743.23 659.852 1774 C 666.207 1796.6 669.255 1826.81 657.127 1848.06 C 644.446 1870.27 622.875 1881.29 598.89 1887.54 C 583.361 1891.59 522.018 1899.14 508.181 1894.13 L 507.746 1892.44 C 519.984 1880.95 600.757 1900.92 642.236 1847.78 C 653.158 1833.79 658.77 1818.23 659.689 1800.56 C 651.495 1829.81 640.414 1852.23 612.782 1867.55 C 583.714 1883.66 541.265 1883.57 508.562 1883.27 C 507.405 1881.07 507.866 1879.89 508.051 1877.49 C 511.884 1874.49 556.932 1872.53 566.221 1870.74 C 605.119 1863.24 643.536 1832.76 648.849 1791.65 C 651.995 1767.3 640.482 1738.59 625.609 1719.75 C 620.619 1713.43 610.34 1704.94 606.788 1699.78 C 599.868 1695.16 593.329 1689.71 586.531 1684.86 z"/>
<path transform="translate(0,0)" fill="rgb(133,58,12)" d="M 596.604 1670.23 A 154.509 154.509 0 0 1 687.872 1712.55 C 709.339 1733.48 717.645 1758.84 717.948 1788.52 C 718.329 1825.93 703.539 1865.4 676.959 1891.99 C 651.617 1917.34 627.113 1919.39 593.119 1919.4 L 549.021 1919.44 C 544.263 1919.25 538.471 1919.66 534.053 1917.82 C 535.025 1915.83 550.052 1916.2 553.115 1916.12 C 578.711 1915.48 606.774 1910.81 630.774 1901.99 C 659.366 1891.48 678.335 1868.67 690.877 1841.48 C 702.802 1815.63 708.534 1788.12 698.091 1760.74 C 685.999 1729.04 659.544 1702.33 630.334 1685.89 C 619.533 1679.81 607.928 1675.23 596.604 1670.23 z"/>
<path transform="translate(0,0)" fill="rgb(133,58,12)" d="M 560.194 1671.37 C 565.295 1671.05 570.576 1670.72 575.68 1670.96 C 606.612 1672.45 649.539 1700.68 669.756 1723.28 C 687.957 1743.63 700.9 1768.74 699.291 1796.54 C 697.532 1826.94 680.869 1860.98 658.075 1881.16 C 626.661 1908.96 566.181 1913.61 526.247 1911.14 C 521.351 1911.01 515.635 1911.23 511.039 1909.38 C 508.929 1908.53 508.131 1907.87 507.158 1905.77 C 508.662 1900.88 510.521 1901.83 515.086 1901.69 C 553.197 1900.51 596.506 1898.55 630.52 1879.79 C 651.808 1868.05 674.711 1835.95 681.221 1812.88 C 687.591 1790.32 683.25 1764.64 671.636 1744.48 C 648.388 1704.14 603.396 1682.82 560.194 1671.37 z"/>
<path transform="translate(0,0)" fill="rgb(213,152,77)" d="M 1154.81 965.144 L 1155.38 966.273 C 1154.77 979.692 1148.96 994.736 1142.43 1006.36 C 1129.72 1028.96 1107.9 1046.84 1082.81 1053.61 A 100.075 100.075 0 0 1 1006.69 1043.76 C 976.897 1026.61 963.255 1001.25 954.414 969.239 L 966.592 974.171 C 989.755 981.717 1013.01 984.757 1037.11 987.322 C 1030.19 995.157 1023.73 1003.69 1022.98 1014.54 A 29.1114 29.1114 0 0 0 1030.78 1036.22 A 32.676 32.676 0 0 0 1054.07 1046.58 C 1062.65 1046.78 1071.39 1043.57 1077.41 1037.37 C 1083.38 1031.21 1086.06 1022.54 1085.67 1014.05 C 1085.11 1001.72 1077.7 994.143 1069.12 986.313 C 1099.31 985.008 1126.7 975.112 1154.81 965.144 z"/>
<path transform="translate(0,0)" fill="rgb(223,210,186)" d="M 1215.88 765.917 C 1217.22 767.126 1216.81 766.506 1217.53 768.129 A 79.0643 79.0643 0 0 0 1226.77 784.157 C 1235.39 795.614 1251.89 809.644 1252.26 825.229 C 1252.34 828.164 1251.47 831.237 1249.06 833.115 C 1244.74 836.478 1238.08 835.642 1233.14 834.546 C 1217.31 831.032 1197.27 823.015 1186.07 810.809 C 1180.93 805.212 1176.97 797.722 1172.91 791.314 C 1173.2 792.422 1173.52 793.51 1173.83 794.612 C 1179.25 813.835 1203.81 847.133 1197.29 867.01 C 1196.23 870.25 1194.07 872.839 1190.95 874.26 C 1184.52 877.184 1176.33 874.631 1170.14 872.222 C 1151.89 865.109 1138.82 853.598 1130.98 835.547 C 1128.66 829.785 1126.06 824.239 1123.32 818.662 C 1124.09 826.857 1126.18 835.023 1127.68 843.117 C 1129.33 851.985 1134.74 883.483 1129.86 890.573 C 1125.75 889.434 1121.21 885.169 1117.71 882.71 C 1104.15 873.211 1089.72 864.633 1073.01 862.529 L 1071.63 862.368 C 1079.68 854.448 1086.31 845.995 1087.46 834.301 C 1088.52 823.429 1084.45 814.111 1077.84 805.732 C 1136.2 796.99 1162.11 792.732 1215.88 765.917 z"/>
<path transform="translate(0,0)" fill="rgb(184,107,27)" d="M 1226.55 159.959 C 1234.91 155.969 1245.07 150.379 1254.5 154.017 C 1263.87 157.632 1270.71 174.069 1274.22 182.819 C 1298.59 243.571 1295.77 300.206 1291.64 363.871 C 1283.92 353.191 1275.48 342.526 1266.38 332.974 C 1263.77 330.237 1255.33 323.945 1254.91 320.846 C 1256.79 319.842 1258.57 319.207 1260.54 318.449 C 1260.66 318.402 1260.77 318.323 1260.88 318.26 L 1262.25 317.711 C 1262.73 317.882 1263.27 317.642 1263.78 317.563 C 1262.73 314.634 1258.17 311.962 1255.38 310.817 C 1246.65 307.233 1237.24 304.195 1228.05 302.123 C 1236.95 302.115 1245.78 302.936 1254.71 302.676 C 1241.78 299.393 1228.33 299.356 1215.51 295.441 C 1226.85 294.81 1237.96 296.361 1249.21 297.675 C 1237.41 291.728 1227.87 289.736 1214.75 291.885 C 1209.28 292.78 1204.33 288.987 1199.78 286.352 C 1216.07 284.282 1232.45 282.978 1248.76 280.944 C 1235.37 278.698 1221.85 278.956 1208.32 278.405 C 1230.37 274.518 1238.67 277.927 1259.7 280.857 C 1235.85 270.574 1215.8 263.021 1189.88 268.79 C 1207.26 261.406 1221.09 258.202 1239.82 256.942 C 1224.18 253.358 1211.84 254.334 1196.39 258.375 C 1197.74 256.818 1199.11 255.257 1200.63 253.87 C 1213.67 241.976 1236.45 245.782 1252.52 246.502 L 1252.1 245.712 C 1241.86 244.35 1231.11 242.605 1220.95 240.602 C 1220.83 240.611 1220.71 240.638 1220.6 240.627 C 1207.38 239.412 1194.59 245.674 1182.36 250.13 C 1186.59 247.253 1190.76 244.873 1194.9 241.755 C 1208.19 231.728 1222.35 230.556 1238.3 232.758 C 1239.33 232.69 1240.32 232.466 1241.33 232.276 C 1230.98 228.536 1215.97 225.718 1204.99 227.037 C 1201.2 227.492 1197.02 229.557 1193.28 228.851 C 1193.9 226.525 1195.66 225.168 1197.49 223.726 C 1208.83 214.794 1228.85 215.75 1242.28 216.985 C 1236.04 214.584 1229.58 214.159 1223.3 212.115 C 1219.64 210.195 1215.68 210.546 1211.63 210.482 C 1216.47 208.344 1224.21 207.179 1228 204.825 C 1228.47 204.534 1228.92 204.216 1229.38 203.912 C 1236.94 202.611 1243.8 200.823 1251.02 198.213 C 1238.95 200.64 1224.91 199.1 1213.5 202.898 C 1208.24 204.647 1197.64 212.51 1196.97 212.115 C 1202.68 204.931 1211.87 196.316 1220.87 193.784 C 1225.67 192.436 1235.18 192.663 1238.77 189.677 C 1224.87 187.32 1210.3 193.521 1197.47 198.155 C 1209.33 185.61 1222.7 178.281 1240.27 177.764 L 1249.96 177.467 C 1242.9 176.164 1232.55 173.229 1225.46 174.763 C 1219.72 176.001 1213.71 178.246 1207.88 178.587 L 1207.41 176.203 C 1218 167.991 1226.8 164.392 1239.89 161.274 C 1235.44 160.743 1231.02 160.178 1226.55 159.959 z"/>
<path transform="translate(0,0)" fill="rgb(213,152,77)" d="M 1033.08 865.019 C 1051.18 873.962 1066.13 862.956 1085.35 869.365 C 1112.74 878.494 1136.82 900.599 1149.57 926.215 C 1127.11 938.346 1102.76 945.736 1077.79 950.393 C 1037.1 954.908 995.875 949.852 959.036 931.112 C 959.205 930.68 959.369 930.248 959.542 929.818 C 973.112 896.156 1001.45 878.7 1033.08 865.019 z"/>
<path transform="translate(0,0)" fill="rgb(223,210,186)" d="M 852.744 740.935 C 855.104 740.908 857.255 740.798 859.401 741.984 C 866.365 745.834 872.804 751.585 879.477 756.011 C 889.069 762.373 899.628 767.928 909.873 773.17 C 944.68 790.982 984.035 798.384 1022.34 804.188 C 1016.96 812.172 1012.98 820.134 1013.13 830.002 C 1013.35 843.443 1020.35 854.006 1029.71 862.981 C 1012.68 867.971 1000.11 875.777 986.268 886.753 C 977.186 855.787 988.659 848.383 987.644 822.196 C 985.266 823.819 979.227 841.145 976.316 845.599 C 968.091 858.187 954.274 870.176 941.691 878.336 L 940.563 879.052 C 937.308 876.058 934.04 873.402 932.742 869.062 C 934.005 857.357 935.777 845.783 938.663 834.356 C 940.528 826.969 944.093 818.486 944.787 811.068 C 944.954 809.281 945.121 808.658 943.97 807.226 C 941.062 808.988 935.956 824.905 931.995 829.647 C 927.742 834.737 921.674 838.605 915.885 841.773 C 908.741 845.682 895.068 852.367 887.063 850.066 C 886.047 849.146 885.086 848.603 884.642 847.245 C 883.342 843.27 884.694 838.593 885.728 834.675 A 109.002 109.002 0 0 1 900.408 801.716 C 904.586 795.494 909.249 789.822 912.388 782.965 C 912.564 782.58 912.727 782.19 912.897 781.802 C 902.144 790.309 896.025 800.265 882.62 805.509 C 874.906 808.527 857.328 814.226 849.818 809.649 C 847.781 808.406 846.741 806.497 846.509 804.151 C 844.991 788.861 872.101 768.991 881.785 759.729 C 864.226 765.507 854.57 773.57 834.619 774.737 C 829.379 775.043 823.99 775.089 819.823 771.5 C 818.88 769.018 818.509 767.797 819.476 765.225 C 823.93 753.379 841.978 745.329 852.744 740.935 z"/>
<path transform="translate(0,0)" fill="rgb(133,58,12)" d="M 713.202 1841.65 A 159.329 159.329 0 0 0 717.245 1851.48 C 724.872 1868.44 735.727 1877.56 752.573 1884.7 C 765.339 1890.11 778.899 1893.36 792.547 1895.6 C 818.459 1899.86 845.033 1900.83 871.216 1902.44 C 933.26 1906.25 996.748 1908.74 1058.78 1904 A 1478.12 1478.12 0 0 0 1143.89 1894.98 C 1170.08 1891.5 1196.4 1887.28 1222.75 1885.2 C 1256.88 1882.51 1292.34 1881.78 1326.5 1884.05 C 1338.3 1884.83 1376.87 1900.34 1391.46 1904.93 C 1407.09 1909.84 1423.77 1913.28 1439.03 1919.08 C 1427.55 1919.12 1415.9 1919.3 1404.5 1917.87 C 1391.14 1916.18 1378.13 1912.07 1364.94 1909.46 C 1348.55 1906.23 1331.89 1904.59 1315.25 1903.38 C 1237.23 1899.78 1160.98 1913.76 1083.32 1917.4 C 1000.07 1921.3 916.011 1919.09 832.672 1918.94 C 768.192 1918.83 703.265 1921.29 638.865 1918.67 C 646.334 1915.5 653.96 1911.77 661.793 1909.62 C 685.182 1903.19 712.821 1905.18 737.002 1903.57 C 714.602 1898.83 690.697 1902.04 668.105 1904.01 C 691.485 1884.65 701.192 1869.26 713.202 1841.65 z"/>
<path transform="translate(0,0)" fill="rgb(213,152,77)" d="M 647.302 1556.52 C 658.85 1556.36 670.337 1556.16 681.872 1556.89 C 677.065 1569.7 672.986 1582.18 674.625 1596.08 A 50.6404 50.6404 0 0 0 694.134 1630.66 C 710.521 1642.99 729.687 1642.62 748.93 1639.75 C 758.09 1644.72 764.966 1645.84 775.169 1644.4 C 783.408 1643.25 788.334 1645.49 796.148 1645.8 C 802.831 1646.06 809.664 1642.45 816.315 1642.1 C 820.352 1641.9 824.793 1642.78 828.801 1643.33 C 835.886 1650.74 842.593 1656.15 851.546 1661.2 C 809.738 1662.35 767.832 1662.03 726.006 1662.24 L 592.277 1662.12 C 564.565 1661.95 536.27 1660.79 508.634 1662.74 A 3200.06 3200.06 0 0 0 579.161 1594.51 C 591.45 1582.36 604.675 1566.4 619.124 1556.92 C 628.416 1556.17 637.974 1556.56 647.302 1556.52 z"/>
<path transform="translate(0,0)" fill="rgb(223,210,186)" d="M 780.434 1509.41 C 804.582 1509.62 828.375 1512.28 851.602 1519.05 C 854.086 1528.86 853.52 1539.2 856.324 1549 A 130.895 130.895 0 0 0 843.355 1564.77 C 827.721 1587.48 823.189 1612.38 828.298 1639.16 C 823.63 1639.04 819.012 1638.2 814.398 1637.52 C 819.995 1622.9 822.381 1608.18 821.685 1592.53 C 821.332 1584.61 817.835 1553.02 812.991 1548.62 C 812.062 1552.14 814.316 1557.7 815.005 1561.32 C 818.853 1581.52 823.022 1608.75 815.045 1628.39 C 811.696 1636.64 807.037 1639.04 799.343 1642.38 C 793.492 1641.78 787.959 1640.8 782.233 1639.46 C 782.971 1633.61 782.877 1627.59 783.049 1621.69 C 788.249 1614.72 793.392 1608.46 794.477 1599.48 C 795.081 1594.47 794.204 1588.36 790.908 1584.35 C 788.844 1581.85 785.613 1580.07 782.352 1579.88 C 778.842 1579.67 775.518 1581.16 772.932 1583.46 C 769.509 1586.51 767.667 1591.18 767.478 1595.7 C 767.031 1606.46 773.542 1614.79 780.322 1622.32 C 780.466 1626.57 781.832 1635.58 778.573 1638.76 C 775.3 1641.95 769.176 1641.09 764.915 1641.08 C 761.999 1640.34 758.468 1639.74 755.942 1638.04 C 742.463 1629 741.15 1596.69 741.905 1582.2 C 742.498 1570.81 745.659 1558.09 743.161 1546.83 C 742.649 1544.52 743.172 1545.27 741.456 1544.11 C 741.328 1544.42 741.129 1544.71 741.073 1545.04 C 740.265 1549.82 741.788 1556.08 741.458 1561.15 C 739.622 1589.3 735.689 1609.39 748.032 1636.13 C 742.224 1637 736.29 1637.55 730.433 1637.94 C 724.282 1638.36 717.219 1638.05 712.496 1633.55 C 707.826 1629.11 708.63 1623.42 708.562 1617.51 C 714.506 1612.24 718.725 1607.85 719.792 1599.63 C 720.617 1593.27 719.006 1584.89 714.66 1579.96 C 712.561 1577.58 709.877 1576.3 706.674 1576.36 C 703.454 1576.43 700.374 1577.67 698.206 1580.1 C 694.766 1583.95 693.744 1590 693.97 1594.99 C 694.423 1604.97 699.81 1611.89 707.014 1618.16 C 707.019 1623.42 707.711 1628.53 708.396 1633.74 A 67.5295 67.5295 0 0 1 699.44 1627.78 C 689.528 1619.95 682.211 1608.09 680.927 1595.42 C 678.933 1575.74 687.949 1553.96 700.554 1539.18 C 720.849 1515.38 751.284 1511.8 780.434 1509.41 z"/>
<path transform="translate(0,0)" fill="rgb(223,210,186)" d="M 1238.39 1510.39 A 141.284 141.284 0 0 1 1283.04 1514.33 C 1308.03 1520.45 1328.86 1534.95 1342.06 1557.25 C 1349.63 1570.04 1356.45 1588.78 1352.27 1603.55 C 1349.55 1613.16 1342.42 1620.51 1333.85 1625.32 C 1318.85 1633.72 1305.75 1634.13 1289.43 1629.7 L 1292.39 1621.22 C 1296.84 1608.29 1295.24 1567.94 1289.31 1556.74 C 1289.08 1556.31 1288.82 1555.89 1288.58 1555.46 C 1287.05 1552.73 1285.67 1549.34 1282.87 1547.72 C 1282.71 1553.37 1287.41 1560.36 1288.67 1566.03 C 1290.2 1572.87 1290.37 1580.32 1290.88 1587.3 C 1291.75 1599.13 1294.07 1618.86 1285.26 1628.29 C 1276.68 1637.48 1261.38 1635.13 1250.08 1635.8 C 1245.61 1636.07 1241.28 1637.2 1236.78 1637.33 C 1229.93 1637.52 1222.97 1636 1218 1630.98 C 1213.73 1626.68 1213.44 1622.02 1213.38 1616.25 C 1213.53 1603.82 1213.13 1590.93 1214.27 1578.57 C 1215.14 1569.26 1217.41 1560.04 1217.64 1550.67 L 1216.95 1550.72 C 1208.14 1572.72 1209.85 1607.45 1211.4 1631.02 C 1206.14 1633.03 1197.62 1635.54 1192.29 1632.51 C 1178.23 1624.51 1190.6 1595.19 1185.87 1581.62 C 1184.56 1577.86 1181.55 1573.36 1177.57 1572.02 C 1175.14 1571.2 1172.72 1571.41 1170.5 1572.74 C 1165.64 1575.65 1163.24 1584.07 1161.55 1589.25 C 1161.97 1591.35 1162.39 1593.48 1162.98 1595.54 C 1165.62 1604.8 1171.25 1608.87 1179.36 1613.08 C 1180.67 1617.78 1183.88 1623.95 1182.98 1628.76 C 1181.58 1630.14 1181.19 1630.66 1179.14 1630.88 C 1172.3 1631.59 1163.98 1628.03 1158.76 1623.82 C 1150.46 1617.13 1147.04 1607.92 1146.1 1597.55 C 1144.46 1579.4 1146.64 1559.07 1158.74 1544.71 C 1177.91 1521.97 1209.88 1512.65 1238.39 1510.39 z"/>
<path transform="translate(0,0)" fill="rgb(0,0,1)" d="M 1321.81 1570.76 C 1325.11 1570.74 1327.5 1570.68 1330.39 1572.57 A 16.0105 16.0105 0 0 1 1337.47 1583.31 C 1339.47 1594.5 1334.93 1602.65 1329.08 1611.58 L 1326.03 1611.19 C 1319.87 1607.11 1317.34 1600.7 1314.17 1594.29 C 1314.59 1585.03 1315.83 1578.08 1321.81 1570.76 z"/>
<path transform="translate(0,0)" fill="rgb(0,0,1)" d="M 1251.27 1574.57 C 1254.93 1575.29 1257.36 1576.93 1259.71 1579.78 C 1264.65 1585.78 1266.02 1594.04 1265.07 1601.58 C 1264.11 1609.15 1261.32 1614.18 1255.24 1618.74 C 1252.42 1618.01 1250.33 1617.27 1248.03 1615.42 C 1243.52 1611.8 1240.84 1607.03 1240.29 1601.28 C 1239.24 1590.25 1244.85 1582.71 1251.27 1574.57 z"/>
<path transform="translate(0,0)" fill="rgb(223,210,186)" d="M 945.821 1534.44 C 973.692 1533.56 1007.09 1537.64 1030.44 1554.16 C 1039.33 1560.46 1045.27 1568.05 1046.86 1578.98 C 1049.03 1593.84 1048.8 1628.28 1039.55 1640.29 C 1034.78 1646.47 1028.46 1646.97 1021.27 1648.01 C 1025.35 1641.63 1028.14 1635.27 1029.84 1627.89 C 1032.84 1614.9 1032.95 1592.76 1024.94 1581.47 C 1024.14 1580.33 1024.42 1580.55 1023.33 1580.39 C 1023.04 1580.75 1022.55 1581.02 1022.47 1581.47 C 1021.86 1584.94 1026.4 1594.11 1027.2 1598.1 C 1029.26 1608.35 1029 1620.5 1025.99 1630.56 C 1022.34 1642.78 1013.85 1651.14 1002.85 1657.04 L 1001.57 1657.71 C 999.395 1656.03 996.719 1654.34 995.126 1652.08 C 988.85 1643.17 1008.25 1637.17 1009.59 1625.04 C 1010.38 1617.91 1008.3 1612.71 1003.84 1607.25 C 1002.09 1605.11 1000.22 1603.56 997.333 1603.47 C 993.931 1603.37 989.977 1605.25 988.069 1608.05 C 980.666 1618.95 988.139 1633.34 989.715 1644.57 C 990.367 1649.22 990.143 1652.83 987.239 1656.61 C 984.932 1657.9 983.337 1658.43 980.729 1658.19 C 977.083 1657.86 970.183 1656.3 968.079 1652.93 C 966.264 1650.04 965.762 1645.35 965.217 1641.95 C 961.682 1619.88 966.281 1601.11 969.43 1579.48 C 968.979 1579.95 968.481 1580.39 968.077 1580.9 C 965.318 1584.42 965.589 1590.3 964.958 1594.55 C 961.021 1621.05 960.692 1625.85 964.137 1653.07 C 953.352 1658.61 943.781 1660.72 931.749 1661.34 C 925.873 1661.65 920.286 1661.07 914.456 1660.42 C 915.306 1656.66 915.989 1653.14 918.228 1649.93 C 923.333 1642.61 929.151 1635.22 929.979 1625.99 C 930.521 1619.96 928.663 1613.32 924.633 1608.72 C 922.91 1606.75 920.597 1605.18 917.864 1605.29 C 914.61 1605.43 911.832 1607.8 909.915 1610.23 C 905.778 1615.49 904.224 1622.71 905.061 1629.27 C 906.04 1636.94 909.45 1642.59 915.444 1647.35 C 915.761 1647.6 916.083 1647.84 916.403 1648.09 L 912.394 1660.06 C 907.472 1658.99 902.202 1658.12 897.457 1656.47 C 874.163 1648.35 902.333 1595.27 895.105 1580.93 L 893.419 1580.4 C 891.73 1584.89 893.376 1590.51 892.875 1595.33 C 892.304 1600.81 890.265 1606.68 888.941 1612.06 A 89.8065 89.8065 0 0 0 888.266 1653.65 C 880.936 1656.48 871.166 1660.84 863.245 1660.22 C 860.226 1659.98 857.596 1658.73 855.848 1656.2 C 852.777 1651.75 854.667 1645.23 855.365 1640.25 C 861.101 1635.16 865.026 1630.37 865.413 1622.4 C 865.677 1616.98 864.88 1608.7 860.626 1604.71 C 858.708 1602.91 856.545 1601.88 853.85 1602.05 C 850.511 1602.28 847.466 1604.42 845.403 1606.93 C 841.682 1611.47 840.174 1617.62 841.079 1623.39 C 842.258 1630.91 846.325 1635.75 852.227 1640.2 L 851.749 1657.05 C 845.485 1653.19 839.112 1649.55 833.678 1644.54 C 831.458 1636.61 829.536 1628.67 829.038 1620.42 C 827.739 1598.89 839.132 1573.46 853.371 1557.62 C 869.774 1539.36 921.856 1535.52 945.821 1534.44 z"/>
<path transform="translate(0,0)" fill="rgb(213,152,77)" d="M 1362.31 1553.54 C 1375.13 1553.1 1387.88 1552.84 1400.66 1554.05 C 1422.54 1576.48 1446.35 1597.34 1469.22 1618.79 C 1484.22 1632.87 1498.51 1648.39 1514.64 1661.15 L 1110.49 1661.68 C 1074.81 1661.84 1038.91 1662.87 1003.28 1660.75 C 1008.49 1658.14 1013.08 1654.97 1017.83 1651.63 C 1024.55 1651.66 1030.96 1652.12 1037.05 1648.71 C 1046.45 1643.45 1048.64 1631.48 1051.1 1621.89 C 1083.54 1621.39 1116.65 1623.62 1148.95 1620.87 C 1169.34 1640.63 1168.95 1630.42 1190.02 1634.75 C 1192.67 1635.29 1195 1636.7 1197.54 1637.54 C 1202.32 1639.14 1209.12 1636.36 1213.42 1634.11 L 1214.63 1634.76 C 1218.26 1636.76 1221.76 1638.81 1225.84 1639.72 C 1238.33 1642.5 1264.53 1641.98 1276.7 1638.05 C 1281.08 1636.63 1284.89 1634.16 1288.74 1631.7 C 1291.43 1633.14 1294.21 1634.68 1297.13 1635.62 C 1308.56 1639.27 1322.25 1636.71 1332.73 1631.38 C 1343.5 1625.89 1352.73 1616.94 1356.2 1605.11 C 1361.56 1586.84 1353.86 1569.52 1345.39 1553.71 L 1362.31 1553.54 z"/>
<path transform="translate(0,0)" fill="rgb(133,58,12)" d="M 716.42 1747.24 C 724.143 1727.75 732.865 1710.45 749.127 1696.68 C 764.543 1683.63 786.747 1672.97 806.756 1669.76 C 816.29 1668.23 826.686 1668.41 836.343 1668.16 C 865.048 1667.43 893.773 1668.77 922.48 1668.65 L 1078.54 1668.98 C 1113.35 1668.99 1149.15 1667.5 1183.79 1670.36 C 1197.04 1671.46 1210.34 1674.02 1223.2 1677.35 C 1253.9 1685.3 1268.58 1694.98 1288.83 1718.95 A 69.7061 69.7061 0 0 0 1285.14 1724.39 C 1282.58 1728.49 1278.93 1733.9 1280.08 1738.93 L 1281.26 1739.32 C 1284.87 1735.76 1286.9 1729.53 1289.42 1725.09 C 1301.38 1703.98 1338.75 1685.07 1361.3 1678.61 C 1371.27 1675.41 1390.02 1669.33 1400.4 1670.33 C 1388.23 1675.98 1374.99 1679.14 1362.66 1684.69 C 1355.77 1688.34 1348.87 1692.08 1342.23 1696.17 C 1321.79 1708.76 1296.9 1729.76 1291.72 1754.56 C 1288.25 1771.18 1298.78 1791.1 1307.59 1804.64 C 1338.56 1852.22 1416.89 1887.89 1470.76 1899.93 C 1479.21 1901.82 1488.2 1903.83 1496.85 1904.41 C 1503.46 1904.86 1510.07 1903.96 1516.59 1905.37 L 1517.24 1906.48 C 1511.72 1907.76 1505.55 1907.93 1499.9 1908.17 C 1463.79 1909.7 1429.67 1897.56 1396.29 1885.29 C 1356.1 1870.53 1302.57 1847.24 1286.79 1803.85 C 1281.08 1788.12 1280.03 1770.83 1277.64 1754.36 C 1275.19 1737.42 1269.7 1722.38 1256.7 1710.69 C 1210.99 1669.6 1041.15 1678.07 977.217 1677.98 C 933.681 1677.92 889.555 1676.02 846.112 1678.28 C 810.701 1680.13 775.138 1685.59 750.345 1713.5 C 729.003 1737.53 726.369 1768.76 728.554 1799.52 C 729.835 1817.57 734.683 1834.49 749.163 1846.57 C 761.194 1856.61 777.212 1862.91 792.245 1866.73 C 824.185 1874.84 859.887 1876.19 892.744 1878.03 C 965.482 1882.11 1039.65 1883.92 1112.11 1875.21 A 1143.86 1143.86 0 0 0 1184.98 1863.66 C 1216.14 1857.56 1246.54 1850.62 1278.26 1847.86 C 1292.52 1861.36 1308.45 1870.89 1325.6 1880.16 C 1239.12 1873 1154.5 1890.77 1068.72 1897.96 C 998.051 1903.89 926.267 1901.19 855.59 1896.55 C 820.791 1894.27 780.357 1893.65 748.554 1878.07 C 730.156 1869.06 722.121 1855.17 715.828 1836.53 C 723.956 1800.12 724.379 1783.56 716.42 1747.24 z"/>
<path transform="translate(0,0)" fill="rgb(223,210,186)" d="M 1323.25 1102.5 C 1328.85 1107.3 1327.65 1137.46 1328.56 1145.32 A 61.9122 61.9122 0 0 0 1331.75 1158.76 C 1336.61 1172.37 1346.49 1184.55 1359.89 1190.45 C 1374.49 1196.88 1390.8 1194.98 1405.14 1189.09 C 1406.09 1191.18 1406.96 1193.25 1407.73 1195.43 C 1416.22 1219.67 1421.85 1244.94 1422.14 1270.71 C 1423.14 1360.36 1369.02 1455.96 1330.79 1534.74 A 763.88 763.88 0 0 0 1315.9 1524.09 C 1281.84 1503.97 1244.27 1503.97 1206.43 1511.31 C 1256.61 1422.97 1294.31 1329.91 1306.66 1228.46 A 1759.18 1759.18 0 0 0 1312.84 1168.24 C 1314.87 1145.91 1316.04 1123.92 1323.25 1102.5 z"/>
<path transform="translate(0,0)" fill="rgb(223,210,186)" d="M 638.594 1393.28 C 632.322 1379.96 628.54 1364.71 625.126 1350.41 C 613.002 1299.61 608.958 1244.77 627.102 1194.8 C 642.458 1152.5 682.826 1095.11 721.321 1069.51 C 724.297 1154.4 751.684 1231.33 784.434 1308.82 C 794.272 1332.09 805.332 1355.03 814.132 1378.71 C 830.666 1423.2 841.405 1469.45 851.448 1515.75 C 812.516 1503.97 755.183 1499.87 718.171 1519.71 C 712.682 1522.65 707.464 1526.1 702.248 1529.5 A 501.159 501.159 0 0 1 671.684 1470.69 C 664.814 1457.19 658.715 1443.16 652.673 1429.27 C 647.494 1417.48 642.545 1405.54 638.594 1393.28 z"/>
<path transform="translate(0,0)" fill="rgb(0,0,1)" d="M 641.7 1388.77 C 634.665 1352.3 620.518 1303.87 642.918 1270.3 C 649.392 1260.6 659.014 1252.84 670.698 1250.74 C 684.459 1248.27 698.188 1252.65 709.336 1260.69 C 728.969 1274.84 739.393 1296.16 743.065 1319.6 C 746.198 1339.6 746.881 1358.72 756.416 1377.12 C 770.555 1404.42 801.643 1421.21 803.886 1454.25 A 43.6561 43.6561 0 0 1 795.75 1482.57 C 788.019 1493.47 774.005 1498.66 761.173 1500.47 C 738.605 1503.64 714.153 1496.02 696.033 1482.44 C 689.911 1477.86 684.776 1470.83 678.605 1466.72 C 668.248 1454.63 660.924 1441.75 654.103 1427.47 C 648.659 1414.76 644.905 1402.17 641.7 1388.77 z"/>
<path transform="translate(0,0)" fill="rgb(133,58,12)" d="M 849.011 1683.42 C 856.852 1682.64 865.059 1682.77 872.937 1682.77 L 1012.67 1683.08 C 1068.91 1683.15 1229.06 1674.45 1262.88 1723.3 C 1286.93 1758.03 1263.08 1797.17 1305.91 1839.5 C 1340.15 1873.34 1423.22 1905.77 1470.93 1913.59 C 1484.04 1915.74 1496.15 1915.59 1509.33 1915.7 C 1511.84 1915.72 1515.24 1915.7 1517.06 1917.52 L 1515.7 1918.84 C 1495.13 1918.98 1473.17 1920.45 1452.83 1917.52 C 1431.12 1914.4 1408.99 1905.54 1388.23 1898.58 C 1348.41 1886.19 1311.03 1873.01 1280.09 1843.66 C 1245.14 1845.14 1210.74 1854.23 1176.48 1860.65 C 1143.28 1866.87 1109.21 1871.16 1075.56 1874.03 C 1044.44 1876.68 1013.1 1876.44 981.891 1876.1 A 1609.6 1609.6 0 0 1 862.481 1871.29 C 840.083 1869.48 816.94 1868.16 795.021 1863.02 C 779.842 1859.46 763.721 1853.65 751.741 1843.34 C 737.089 1830.74 732.13 1813.03 730.902 1794.47 C 729.114 1767.45 734.457 1736.71 753.09 1715.96 C 778.366 1687.83 813.737 1685.46 849.011 1683.42 z"/>
<path transform="translate(0,0)" fill="rgb(0,0,1)" d="M 940.765 1702.43 C 964.631 1700.58 989.252 1701.84 1013.22 1701.81 C 1065.34 1701.73 1189.42 1697.88 1230.24 1730.74 C 1239.45 1738.16 1246.12 1748.58 1246.91 1760.58 C 1247.82 1774.32 1243.08 1787.32 1234.24 1797.74 C 1199.09 1839.15 1120.63 1847.4 1069.24 1851.85 A 241.917 241.917 0 0 1 1064.07 1852.28 C 1013.52 1855.96 963.748 1854.39 913.251 1850.96 C 881.733 1848.82 848.904 1846.82 818.467 1837.8 C 804.944 1833.79 791.541 1827.92 780.875 1818.5 C 770.491 1809.33 763.433 1797.31 762.718 1783.25 C 761.856 1766.3 769.292 1749.43 780.511 1737 C 807.168 1707.47 846.873 1707.02 883.625 1705.2 L 940.765 1702.43 z"/>
<path transform="translate(0,0)" fill="rgb(133,58,12)" d="M 955.778 1706.48 C 975.763 1705.77 996.012 1706.39 1016.03 1706.3 C 1065.61 1706.08 1190.08 1703.25 1228.86 1735.59 C 1236.56 1742.02 1241.77 1750.48 1242.51 1760.61 C 1243.46 1773.49 1238.54 1785.95 1230.15 1795.56 C 1191.81 1839.54 1109.54 1844.52 1054.75 1848.35 C 1013.21 1851.31 972.3 1849.48 930.783 1847.26 C 896.388 1845.41 860.55 1844.03 827.027 1835.45 C 812.261 1831.67 796.732 1825.94 784.854 1816.11 C 774.675 1807.68 767.833 1795.89 766.937 1782.59 C 765.874 1766.81 772.687 1750.8 783.249 1739.29 C 811.529 1708.48 854.941 1710.15 893.356 1708.84 L 955.778 1706.48 z"/>
<path transform="translate(0,0)" fill="rgb(0,0,1)" d="M 922.399 1729.33 A 2234.23 2234.23 0 0 1 1049.54 1728.68 C 1081.75 1729.13 1115.51 1728.66 1147.29 1734.36 C 1162.83 1737.15 1183.02 1742.25 1195.02 1753.15 C 1199.72 1757.42 1203.15 1763.07 1203.37 1769.55 C 1203.58 1775.92 1200.18 1781.39 1195.84 1785.79 C 1158.06 1824.05 1045.7 1824.54 993.367 1823.78 C 953.869 1823.21 833.033 1820.84 807.374 1793.56 C 803.286 1789.21 800.839 1783.56 801.299 1777.53 C 802.142 1766.47 806.678 1757.27 815.18 1750.19 C 832.041 1736.16 861.316 1731.23 882.578 1731.9 C 894.998 1729.25 909.691 1729.95 922.399 1729.33 z"/>
<path transform="translate(0,0)" fill="rgb(133,58,12)" d="M 931.498 1733.07 L 1045.96 1733.19 C 1079.29 1733.34 1114.09 1732.78 1147 1738.57 C 1161.93 1741.2 1181.11 1745.74 1192.41 1756.58 C 1196.09 1760.11 1199.4 1764.96 1199.3 1770.26 C 1199.19 1775.99 1195.19 1780.82 1191.11 1784.45 C 1140.13 1829.83 972.823 1819.81 905.935 1814.64 C 881.403 1812.74 826.654 1808.97 809.873 1790.52 C 806.364 1786.67 805.123 1781.56 805.509 1776.44 C 806.217 1767.05 811.39 1757.61 818.66 1751.72 C 841.215 1733.43 871.13 1739.2 897.336 1734.08 C 908.453 1734.81 920.348 1733.54 931.498 1733.07 z"/>
<path transform="translate(0,0)" fill="rgb(0,0,1)" d="M 821.874 1754.78 C 823.511 1755.93 824.797 1757.89 826.115 1759.43 C 835.824 1770.71 852.849 1779.72 867.619 1780.85 C 870.227 1779.05 868.438 1772.81 871.731 1769.71 C 888.079 1754.32 1027.28 1757.62 1055.51 1758.09 C 1076.13 1758.43 1122.16 1757.78 1136.45 1772.55 C 1136.73 1773.28 1137.15 1774.3 1137.28 1775.05 C 1137.7 1777.61 1137.12 1778.9 1135.56 1780.93 C 1131.26 1786.5 1117.41 1788.03 1110.94 1789.18 C 1059.75 1798.29 924.488 1796.69 873.003 1786.57 C 859.099 1783.84 844.459 1779.94 832.837 1771.46 C 826.554 1766.88 822.971 1762.54 821.874 1754.78 z"/>
<path transform="translate(0,0)" fill="rgb(133,58,12)" d="M 953.686 1762.43 C 975.768 1761.22 998.174 1761.75 1020.29 1761.81 C 1049.98 1761.89 1080.98 1761.31 1110.37 1765.98 C 1117.28 1767.07 1129.25 1768.92 1133.5 1774.8 C 1133.61 1776.85 1133.35 1777.54 1131.83 1779.07 C 1123.11 1787.79 1068.38 1788.87 1053.6 1789.8 C 1002.65 1790.99 950.444 1790.67 899.742 1785.48 C 892.852 1784.77 885.323 1785 878.607 1783.25 C 875.431 1782.42 874.097 1781.29 872.547 1778.47 C 872.59 1776.21 872.719 1774.65 874.303 1772.89 C 882.236 1764.09 939.414 1763.21 953.686 1762.43 z"/>
<path transform="translate(0,0)" fill="rgb(223,210,186)" d="M 1243.08 131.134 C 1244.45 131.015 1244.38 130.992 1246 131.024 C 1254.67 131.196 1261.82 135.632 1267.5 141.949 C 1276.96 152.471 1283.46 166.698 1288.64 179.709 C 1314.58 244.888 1307.68 313.719 1304.86 382.073 C 1301.9 376.862 1299.02 372.727 1294.97 368.345 C 1300.98 310.877 1302.38 254.051 1284.03 198.544 C 1279.71 185.482 1274.7 171.948 1266.83 160.557 C 1262.89 154.865 1258.28 149.464 1251.1 148.315 C 1240.14 146.561 1228.47 153.732 1219.89 159.871 C 1193.58 178.702 1166.09 210.547 1154.82 241.155 C 1150.76 252.2 1148.96 263.54 1147.01 275.09 C 1161.91 279.254 1177.26 283.18 1191.64 288.947 C 1241.38 308.897 1277.71 346.18 1304.98 391.374 C 1305.01 414.478 1308.19 437.506 1310.17 460.497 C 1312.73 490.255 1313.31 520.038 1309.65 549.728 C 1280.7 546.089 1253.64 541.552 1224.19 542.772 C 1206.85 543.491 1136.77 552.288 1126.27 563.699 C 1128.44 566.41 1142.87 561.68 1146.39 560.75 C 1188.58 549.615 1230.33 545.976 1273.85 548.576 C 1285.27 549.258 1297.4 549.873 1308.55 552.505 C 1308.85 552.576 1309.15 552.654 1309.44 552.729 L 1303.3 580.725 C 1274.49 572.434 1246.42 567.3 1216.37 567.008 C 1203.14 566.88 1190.15 568.119 1177.02 569.557 C 1170.3 570.294 1162.35 572.124 1155.69 571.615 C 1153.46 571.445 1151.18 570.632 1149.07 569.956 L 1147.8 569.537 C 1149.39 570.687 1150.52 571.508 1151.55 573.2 C 1150.23 574.145 1149.69 574.201 1148.03 574.284 C 1142.11 574.581 1134.14 575.001 1128.59 576.937 C 1126.65 577.612 1125.67 577.715 1124.76 579.57 C 1131.02 581.681 1135.57 576.658 1141.54 576.33 C 1148.49 575.948 1155.53 577.325 1162.55 576.864 C 1173.05 576.175 1183.56 574.37 1194.1 573.607 C 1227.88 571.163 1268.36 571.696 1300.53 582.703 L 1301.95 583.196 C 1299.8 592.54 1296.35 601.472 1292.97 610.42 C 1249.24 589.611 1210.15 587.578 1162.76 586.914 A 698.523 698.523 0 0 0 1175.19 591.443 C 1168.66 591.864 1162.01 592.167 1155.54 593.212 C 1152.73 593.667 1149.7 594.018 1147.98 596.431 C 1149.85 596.709 1149.25 596.818 1150.82 596.436 C 1160.96 593.975 1171.34 594.02 1181.73 593.749 C 1220.69 592.73 1255.14 598.339 1290.98 613.503 C 1286.2 623.617 1280.88 633.413 1275.57 643.253 C 1267.36 636.936 1259.04 631.106 1249.81 626.355 C 1221.03 611.542 1188.07 604.537 1155.83 604.1 C 1149.19 604.01 1141.72 603.463 1135.35 605.527 C 1140.27 607.907 1159.82 606.986 1166.74 607.796 C 1206.77 612.479 1239.66 625.038 1273.89 645.829 C 1268.47 654.835 1262.67 663.471 1256.01 671.605 C 1236.42 650.598 1207.39 638.842 1180.41 630.896 L 1180.3 628.695 L 1178.29 630.284 L 1177.85 630.147 C 1207.13 641.942 1230.51 653.46 1252.86 676.37 C 1232.54 702.27 1176.45 724.458 1144.87 732.412 C 1078.75 749.063 994.508 746.355 929.869 724.418 C 910.834 717.957 892.86 708.92 875.669 698.571 C 867.323 693.252 859.909 687.258 852.867 680.309 C 874.148 650.707 898.378 639.501 930.49 624.591 C 929.522 624.139 929.994 624.251 928.496 624.341 C 922.628 624.694 915.691 628.756 910.38 631.276 C 883.325 644.109 869.046 654.443 849.745 677.169 C 843.86 670.745 837.589 664.619 833.375 656.928 C 854.409 628.2 888.898 613.717 923.269 607.82 C 931.707 606.372 943.454 606.396 950.803 602.105 L 950.755 600.615 C 945.789 598.16 932.948 601.261 927.405 602.18 C 889.027 608.546 854.027 621.934 830.828 654.413 L 823.683 642.181 C 854.41 610.458 878.412 595.675 922.929 588.39 C 931.323 587.016 939.882 586.65 948.316 585.514 C 951.08 585.142 954.52 584.846 956.254 582.571 C 952.81 580.224 949.877 580.304 945.899 580.527 C 910.412 582.517 873.239 591.833 845.322 614.949 C 836.724 622.069 829.33 630.475 821.897 638.766 C 815.359 626.738 810.93 613.439 806.377 600.551 C 815.386 594.48 824.386 588.488 834.295 583.956 C 869.346 567.922 912.493 566.878 950.085 572.871 C 962.213 574.804 973.635 579.487 985.894 580.625 L 987.625 580.775 C 983.361 578.645 979.309 576.459 974.554 575.677 C 970.668 575.038 965.241 574.755 961.871 572.807 C 962.474 571.151 962.61 570.793 962.363 568.975 C 960.966 568.598 959.652 568.252 958.218 568.035 C 901.644 559.467 852.791 563.657 805.382 597.606 A 209.07 209.07 0 0 1 797.187 566.179 A 73.5649 73.5649 0 0 1 804.118 562.414 C 863.84 534.174 934.702 546.46 994.489 567.828 C 987.505 561.866 979.15 557.91 970.448 555.143 C 913.462 537.023 850.08 533.592 795.669 561.763 C 787.489 515.69 789.256 466.9 797.443 420.931 C 806.15 372.041 855.939 324.382 894.943 297.266 L 896.007 298.048 L 894.044 297.261 C 895.421 297.254 894.725 297.458 896.001 296.311 C 895.663 296.373 895.318 296.403 894.987 296.497 C 889.895 297.944 883.749 303.221 879.291 306.236 C 842.969 330.798 819.784 364.363 799.157 402.101 L 797.741 318.619 C 796.864 266.957 795.423 218.6 814.717 169.463 C 819.81 156.491 827.548 138.196 841.488 132.723 C 848.694 129.893 857.383 132.654 864.312 135.182 C 905.458 150.197 948.319 202.884 979.028 235.001 C 988.091 244.48 998.716 257.298 1010.82 262.712 C 1010.57 259.535 1002.98 253.289 1000.42 250.759 C 1015.68 250.852 1030.94 252.097 1046.2 251.983 C 1063.12 251.857 1079.97 250.511 1096.9 251.052 C 1093.32 255.137 1087.38 258.628 1084.77 263.168 C 1093.59 260.536 1099.76 252.453 1106.19 246.333 C 1115.75 237.236 1125.4 228.241 1134.33 218.518 C 1165.22 184.88 1196.54 142.461 1243.08 131.134 z"/>
<path transform="translate(0,0)" fill="rgb(0,0,1)" d="M 959.239 686.466 C 967.68 688.256 976.225 696.013 984.124 699.871 C 1015.06 714.983 1055.93 719.752 1089.27 710.701 A 111.651 111.651 0 0 0 1109.82 702.981 C 1116.5 699.699 1130.59 689.025 1136.89 688.342 L 1137.99 689.476 L 1137.67 691.894 C 1116.9 707.453 1093.01 717.253 1067.13 719.471 C 1036.59 722.09 1008.82 716.76 981.112 703.94 C 974.573 700.915 967.311 697.803 961.941 692.891 C 959.533 690.688 959.467 689.669 959.239 686.466 z"/>
<path transform="translate(0,0)" fill="rgb(0,0,1)" d="M 1029.32 539.288 C 1041.13 538.85 1075.7 536.204 1084.44 543.342 C 1086.78 545.253 1087.05 546.353 1086.96 549.339 C 1086.63 561.199 1064.29 565.892 1057.3 573.528 C 1050.54 580.914 1053.82 603.838 1054.14 613.521 C 1072.97 629.145 1112.3 653.217 1138.32 647.123 C 1146.71 645.16 1155.84 639.181 1164.34 639.169 L 1164.68 640.408 C 1160.45 646.659 1149.78 649.495 1142.61 650.899 C 1113.54 656.591 1085.85 642.595 1062.51 626.67 C 1058.54 623.949 1054.92 620.998 1051.27 617.875 C 1039.7 628.17 1026.31 637.25 1012.22 643.709 C 991.764 653.087 966.395 656.47 945.042 647.996 C 941.601 646.631 938.722 644.774 937.205 641.297 L 938.137 640.257 C 942.278 640.419 945.244 642.596 949.027 643.914 C 955.485 646.163 963.356 647.701 970.219 647.956 C 999.157 649.031 1029.13 632.026 1049.74 612.943 C 1049.97 601.03 1049.35 589.249 1050.05 577.315 C 1042.94 570.313 1020.07 558.142 1018.36 548.556 C 1017.97 546.375 1018.25 544.633 1019.73 542.902 C 1021.99 540.251 1026.12 539.88 1029.32 539.288 z"/>
<path transform="translate(0,0)" fill="rgb(223,210,186)" d="M 1044.96 543.411 C 1054.12 542.768 1064.18 543.007 1073.31 543.986 C 1076.76 544.356 1079.35 544.687 1081.6 547.437 L 1081.34 549.816 C 1075.99 557.984 1064.84 562.748 1056.75 567.905 C 1055.16 569.21 1053.52 570.36 1051.84 571.537 C 1042.51 565.227 1030.89 557.672 1023.38 549.271 C 1022.5 548.283 1022.77 548.832 1022.87 547.27 C 1027.55 542.838 1038.85 543.723 1044.96 543.411 z"/>
<path transform="translate(0,0)" fill="rgb(0,0,1)" d="M 1153.83 419.193 C 1181.95 416.934 1206.37 430.051 1227.18 447.444 C 1210.65 471.392 1195.91 483.495 1168.21 492.594 C 1145.01 497.469 1119.57 488.524 1095.9 488.117 C 1097.99 477.364 1101.37 467.485 1106.75 457.904 C 1117.33 439.054 1132.86 425.021 1153.83 419.193 z"/>
<path transform="translate(0,0)" fill="rgb(223,210,186)" d="M 1123.46 442.659 C 1125.3 446.672 1124.71 452.653 1125.45 457.084 C 1127.48 469.146 1134.78 478.584 1141.67 488.272 C 1135.31 487.879 1129.3 487.038 1123.05 485.791 C 1115.67 484.594 1108.23 484.531 1100.78 484.317 C 1105.13 467.218 1111.21 455.389 1123.46 442.659 z"/>
<path transform="translate(0,0)" fill="rgb(223,210,186)" d="M 1175.93 425.849 C 1193.24 428.241 1209.02 436.816 1221.37 449.009 C 1215.42 460.135 1207.83 467.122 1198.05 474.786 C 1190.8 479.732 1183.22 483.42 1175.16 486.851 C 1181.17 478.071 1185.48 468.284 1186.42 457.589 C 1187.51 445.305 1183.63 435.177 1175.93 425.849 z"/>
<path transform="translate(0,0)" fill="rgb(0,0,1)" d="M 929.481 418.325 C 941.311 417.47 953.236 419.83 963.487 425.947 C 988.254 440.726 999.922 461.37 1006.76 488.55 C 989.231 487.685 972.593 491.985 955.249 493.762 C 943.113 494.199 931.281 492.656 920.005 487.932 C 898.816 479.057 885.102 462.117 876.607 441.313 C 899.523 430.516 900.876 422.357 929.481 418.325 z"/>
<path transform="translate(0,0)" fill="rgb(223,210,186)" d="M 973.106 437.487 C 987.711 447.006 996.068 466.882 1000.96 482.776 L 979.085 486.219 C 970.82 487.561 962.722 488.931 954.323 489.023 L 955.325 488.012 C 970.842 472.127 973.201 459.04 973.106 437.487 z"/>
<path transform="translate(0,0)" fill="rgb(223,210,186)" d="M 916.505 425.032 C 917.246 425.186 916.787 425.014 917.63 425.981 C 915.637 431.572 913.663 438.126 912.898 444.007 C 910.674 461.084 918.332 473.633 928.313 486.531 C 920.45 484.434 914.297 481.387 907.613 476.895 C 895.303 467.456 887.416 457.667 881.361 443.402 C 892.774 435.12 902.998 429.297 916.505 425.032 z"/>
<path transform="translate(0,0)" fill="rgb(0,0,1)" d="M 1044.96 297.325 C 1072.89 293.959 1073.36 306.813 1091.09 320.309 C 1096.37 324.328 1103.03 326.661 1108.76 330.036 C 1116.28 334.472 1122.22 341.781 1124.22 350.395 C 1126.17 358.836 1123.95 367.618 1119.05 374.659 C 1112.66 383.844 1104.86 387.24 1094.29 389.03 C 1082.84 380.598 1072.01 378.083 1058.24 376.228 C 1038.28 374.312 1022.45 381.486 1004.07 387.819 C 1000.89 387.293 998.079 385.64 995.438 383.86 C 986.613 377.915 979.014 369.018 977.222 358.262 C 976.158 351.876 977.888 346.108 981.622 340.895 C 989.447 329.969 1001.3 327.761 1011.15 319.865 C 1017.46 314.808 1021.04 306.541 1027.8 302.163 C 1032.8 298.917 1039.19 298.246 1044.96 297.325 z"/>
<path transform="translate(0,0)" fill="rgb(0,0,1)" d="M 844.015 147.138 C 844.584 147.048 845.153 146.95 845.724 146.87 C 857.753 145.188 873.277 156.175 882.411 163.138 C 919.833 191.662 945.643 225.563 952.099 272.895 C 942.6 276.51 931.543 277.825 921.58 280.151 C 895.381 286.27 872.86 298.884 852.407 316.11 A 151.021 151.021 0 0 0 828.586 340.985 C 823.278 347.916 810.206 371.356 804.616 375.126 L 803.103 374.693 C 805.03 372.293 806.063 370.995 806.369 367.891 C 807.641 354.964 805.846 340.677 805.638 327.604 C 805.175 298.468 805.322 268.797 808.647 239.815 C 812.073 209.951 818.844 167.134 844.015 147.138 z"/>
<path transform="translate(0,0)" fill="rgb(184,107,27)" d="M 845.71 149.745 C 856.545 150.824 878.781 164.768 887.569 171.924 C 875.493 168.01 864.247 167.22 852.199 171.561 C 856.914 171.881 861.664 171.292 866.382 171.843 C 879.012 173.316 891.273 180.799 902.419 186.512 C 887.146 182.847 866.519 179.518 851.33 184.372 C 866.37 185.868 882.511 182.887 895.28 193.389 L 895.168 194.68 L 891.453 195.208 C 894.905 197.001 900.361 196.897 904.503 198.884 C 904.875 199.062 905.243 199.25 905.613 199.434 C 885.412 195.891 870.345 194.835 850.316 199.812 C 859.873 200.145 869.468 198.799 878.947 200.309 C 884.484 201.191 895.012 203.22 898.315 207.752 C 894.231 211.789 868.012 209.771 859.387 211.824 C 858.942 211.93 858.501 212.052 858.055 212.152 C 856.099 212.591 854.921 212.85 853.069 213.657 C 856.532 214.657 861.294 213.547 864.961 213.39 C 880.465 212.727 894.096 215.792 907.457 223.671 C 883.859 225.115 867.379 225.145 844.38 232.032 C 853.834 231.628 863.171 229.616 872.603 228.933 C 886.753 227.907 896.936 231.805 907.381 240.962 A 116.259 116.259 0 0 0 845.876 245.856 C 871.292 246.535 878.972 241.324 906.23 248.669 C 903.53 251.362 876.323 254.378 871.08 255.598 C 865.923 256.798 861.123 258.409 856.274 260.544 C 876.997 257.264 897.429 255.809 917.332 263.689 C 895.008 263.44 872.388 267.656 850.651 272.459 L 850.264 273.167 L 852.251 273.925 L 851.334 274.425 C 852.955 274.623 852.512 274.73 853.857 274.411 C 874.915 269.412 885.026 267.68 906.261 274.809 C 879.266 274.907 863.228 279.354 843.363 298.053 C 854.335 290.963 864.85 283.034 878.342 281.888 C 882.658 281.521 887.3 281.246 890.697 284.046 C 854.408 305.408 833.729 326.002 809.973 360.487 C 809.045 322.038 808.511 283.614 811.813 245.248 C 814.347 215.798 821.529 170.14 845.71 149.745 z"/>
<path transform="translate(0,0)" fill="rgb(223,210,186)" d="M 1409.17 230.909 C 1422.35 225.566 1434.79 223.028 1448.94 221.867 C 1449.29 228.072 1449.74 234.029 1450.95 240.133 L 1452.01 241.008 C 1454.27 235.139 1447.4 225.269 1453.34 221.355 C 1456.02 221.302 1457.51 221.88 1460.02 222.855 C 1465.71 225.066 1471.98 224.181 1478.03 225.735 C 1499.83 231.343 1517.47 249.505 1526.65 269.52 C 1544.5 308.461 1523.41 349.049 1525.57 389.56 C 1527.83 432.147 1538.88 484.485 1545.5 527.442 C 1558.57 612.205 1563.25 728.423 1532.63 809.543 C 1512.2 863.666 1469.41 922.364 1427.4 961.956 C 1415.85 972.843 1403.18 982.527 1391.28 993.023 C 1365.14 1016.09 1336.98 1045.15 1321.75 1076.63 C 1301.68 1118.1 1303.13 1169.52 1297.76 1214.65 A 762.322 762.322 0 0 1 1281.33 1304.36 C 1266.65 1363.11 1241.7 1419.44 1214.27 1473.27 C 1206.42 1488.69 1196.35 1503.36 1189.06 1518.95 C 1169.96 1528.67 1152.67 1538.93 1145.8 1560.76 C 1141.12 1575.61 1141.28 1594.06 1143.99 1609.27 L 1051.18 1608.97 C 1051.75 1591.84 1053.37 1572.33 1040.85 1558.74 C 1034.3 1551.63 1025.58 1546.58 1017.03 1542.26 C 1016.13 1517.58 1010.65 1493.71 1009.28 1469.24 C 1005.97 1410.07 1007.51 1350.39 996.845 1291.86 C 992.864 1270.01 986.727 1248.59 980.131 1227.41 C 1027.83 1246.53 1095.07 1240.27 1141.43 1220.28 C 1199.3 1195.33 1245.12 1146.94 1274.52 1091.9 C 1278.85 1083.79 1283.09 1075.57 1286.7 1067.11 C 1289.68 1060.15 1292.17 1052.28 1295.91 1045.72 C 1300.03 1038.5 1306.27 1032.17 1310.99 1025.29 C 1325.68 1003.92 1340.18 978.763 1349.55 954.7 C 1364.62 916.022 1369.41 864.303 1352.28 825.433 C 1347.48 814.538 1337.96 800.66 1326.44 796.368 C 1319.24 793.684 1310.78 794.471 1303.95 797.848 C 1286.15 806.643 1267.58 843.494 1261.77 861.827 C 1254.91 883.492 1257.34 909.127 1267.92 929.249 C 1273.14 939.183 1280.75 947.74 1285.21 958.1 C 1295.42 981.826 1294.61 1028.54 1287.24 1053.14 C 1283.64 1065.17 1277.03 1076.24 1270.76 1087.05 C 1242.45 1135.88 1201.96 1178.23 1151.76 1204.65 C 1099.2 1232.3 1038.05 1235.69 981.612 1218.36 A 107.849 107.849 0 0 1 975.94 1216.42 C 971.23 1205.13 966.158 1194.16 959.96 1183.6 C 946.866 1161.28 913.295 1114.8 891.156 1103.61 L 893.241 1104.78 L 892.827 1106.7 C 917.367 1132.58 941.344 1157.4 958.97 1188.82 C 969.328 1207.28 976.556 1227.47 982.421 1247.76 C 1003.5 1320.7 1000.94 1394.01 1005.54 1468.83 C 1006.41 1483 1009.01 1497.12 1010.81 1511.2 C 1012.08 1521.07 1012.71 1531.03 1013.72 1540.93 C 967.133 1525.45 908.737 1528.16 862.927 1545.71 A 720.827 720.827 0 0 0 824.499 1378.93 C 843.668 1401.05 889.105 1435 918.51 1437.32 C 932.442 1438.41 946.874 1435.24 957.69 1426.01 C 972.044 1413.76 977.288 1395.58 978.419 1377.39 C 981.079 1334.63 965.368 1324.79 950.66 1289.88 C 942.901 1271.46 940.421 1255.16 926.594 1239.74 C 913.56 1225.21 896.284 1215.32 876.494 1214.52 A 62.5415 62.5415 0 0 0 831.633 1231.04 C 810.668 1250.47 805.717 1276.45 804.897 1303.82 L 804.652 1313.61 C 806.036 1323.87 807.678 1333.96 809.664 1344.12 C 804.829 1332.9 799.922 1321.72 795.631 1310.28 C 795.086 1309.49 794.957 1309.34 794.44 1308.37 C 786.416 1293.28 780.786 1276 774.678 1260.01 C 746.165 1185.34 726.916 1109.49 733.603 1029.03 C 734.911 1013.3 736.113 997.028 740.753 981.881 C 741.706 966.677 747.209 950.354 751.411 935.753 C 754.626 916.437 760.831 897.124 765.92 878.218 C 773.854 848.745 781.875 819.839 792.232 791.111 C 795.268 782.691 797.97 773.632 802.262 765.769 C 832.045 825.61 889.18 876.083 952.78 897.495 C 958.741 899.502 964.794 900.845 970.955 902.072 C 955.139 927.729 945.652 946.238 953.027 977.231 A 111.212 111.212 0 0 0 1003.73 1045.92 A 103.665 103.665 0 0 0 1082.71 1057.36 C 1109.34 1050.66 1132.1 1031.97 1145.87 1008.41 C 1158.07 987.552 1163.4 959.11 1157.24 935.525 C 1154.63 925.553 1149.87 916.62 1144.43 907.921 C 1210.01 894.806 1263.24 839.757 1299.04 786.159 C 1310.47 769.047 1321.65 740.169 1337.78 728.204 C 1342.87 724.421 1348.55 722.564 1354.48 720.526 C 1356.34 708.763 1358.52 697.078 1359.78 685.23 C 1361.86 665.586 1362.77 646.043 1365.85 626.495 C 1369.42 603.95 1375.11 581.827 1379.11 559.369 C 1387.28 513.484 1390.53 462.752 1383.87 416.458 C 1378.31 377.751 1347.65 352.329 1349.63 311.227 C 1350.84 285.95 1361.46 261.013 1382.27 245.842 A 275.856 275.856 0 0 1 1386.04 243.159 C 1388.18 249.661 1389.95 256.433 1393.85 262.139 L 1394.58 261.768 C 1393.48 254.31 1391.35 248.994 1387.85 242.276 C 1393.98 238.666 1400.14 235.283 1406.5 232.101 C 1407.66 238.445 1408.3 243.265 1412.75 248.25 L 1414.46 248.93 C 1412.6 243.008 1410.5 236.967 1409.17 230.909 z"/>
<path transform="translate(0,0)" fill="rgb(0,0,1)" d="M 755.597 942.712 C 764.565 928.791 773.122 914.133 790.885 910.716 A 29.5512 29.5512 0 0 1 813.682 915.604 C 823.796 922.706 829.034 934.841 830.574 946.785 C 833.852 972.204 823.664 1001.71 827.774 1030.31 C 831.445 1055.87 849.684 1077.35 850.465 1101.47 C 850.86 1113.67 846.967 1126.95 839.126 1136.48 C 832.331 1144.75 822.082 1149.65 811.488 1150.59 C 797.642 1151.82 784.302 1144.56 774.199 1135.66 C 757.433 1120.88 743.45 1095.67 742.193 1073.12 C 741.27 1056.55 747.341 1039.45 748.809 1022.94 C 750.136 1008.02 746.813 993.18 745.724 978.334 C 746.643 965.594 750.745 954.414 755.597 942.712 z"/>
</svg>