<svg version="1.1" xmlns="http://www.w3.org/2000/svg" style="display: block;" viewBox="0 0 2048 2048" width="1024" height="1024">
<path transform="translate(0,0)" fill="rgb(58,61,81)" d="M 0 0 L 264.678 0 L 271.519 0 L 1772.48 0 L 1779.07 0 L 1805.55 0 L 1833.63 0 L 2048 0 L 2048 23.1494 L 2048 29.4981 L 2048 476.223 L 2048 482.747 L 2048 1435.7 L 2048 1441.73 L 2048 1480.31 L 2048 1491.28 L 2048 1497.53 L 2048 1507.77 L 2048 1515.29 L 2048 1536.43 L 2048 1884.5 L 2048 1915.66 L 2048 1919.54 L 2048 1927.26 L 2048 1931.65 L 2048 1961.62 L 2048 2048 L 1831.25 2048 L 1807.13 2048 L 1779.62 2048 L 1774.05 2048 L 259.155 2048 L 252.289 2048 L 0 2048 L 0 1968.25 L 0 1962.84 L 0 1893.32 L 0 1885.15 L 0 1559.68 L 0 1539.37 L 0 1487.31 L 0 1439.89 L 0 1434.86 L 0 652.165 L 0 631.5 L 0 433.098 L 0 427.657 L 0 40.2859 L 0 34.312 L 0 0 z"/>
<path transform="translate(0,0)" fill="rgb(36,39,63)" d="M 507.822 1487.2 C 510.572 1487.6 511.051 1487.69 513.2 1489.42 C 514.046 1492.41 513.593 1493.67 512.697 1496.53 C 510.494 1496.11 509.159 1495.34 507.28 1494.14 C 506.279 1491.05 506.892 1490.24 507.822 1487.2 z"/>
<path transform="translate(0,0)" fill="rgb(36,39,63)" d="M 1465.19 1295.25 C 1467.81 1296.4 1468.27 1296.71 1470 1298.97 C 1469.91 1301.98 1469.53 1302.58 1467.98 1305.19 C 1465.73 1304.28 1464.31 1303.46 1462.5 1301.83 C 1462.41 1298.63 1463.44 1297.86 1465.19 1295.25 z"/>
<path transform="translate(0,0)" fill="rgb(3,2,8)" d="M 1920.95 914.294 C 1921.26 914.332 1921.56 914.356 1921.86 914.409 C 1925.1 914.976 1926.08 915.872 1927.92 918.406 C 1928.22 921.423 1927.59 922.659 1926.32 925.298 C 1923.27 924.646 1922.3 924.595 1919.9 922.483 C 1918.99 919.431 1920.01 917.184 1920.95 914.294 z"/>
<path transform="translate(0,0)" fill="rgb(3,2,8)" d="M 1542.18 1213.57 C 1545.48 1213.95 1547.92 1214.02 1550.47 1216.42 C 1551.03 1219.72 1550.59 1220.55 1549.5 1223.61 C 1546.37 1223.21 1544.76 1222.93 1542.3 1220.72 C 1541.18 1217.71 1541.44 1216.56 1542.18 1213.57 z"/>
<path transform="translate(0,0)" fill="rgb(36,39,63)" d="M 90.7965 991.259 C 93.9098 992.174 95.538 992.723 97.5525 995.36 C 98.2035 998.411 97.7062 999.467 96.5058 1002.2 C 92.9267 1002 91.5708 1002.06 89.0043 999.578 C 88.4143 996.386 89.6138 994.138 90.7965 991.259 z"/>
<path transform="translate(0,0)" fill="rgb(3,2,8)" d="M 1497.9 358.473 C 1498.65 358.821 1499.1 358.994 1499.8 359.533 C 1501.61 360.931 1502.94 362.611 1503.02 364.977 C 1503.13 368.159 1501.25 370.375 1499.44 372.744 C 1499.14 372.541 1498.83 372.352 1498.55 372.135 C 1495.86 370.103 1494.44 368.395 1493.9 365.047 C 1494.53 361.937 1495.78 360.656 1497.9 358.473 z"/>
<path transform="translate(0,0)" fill="rgb(36,39,63)" d="M 1649.12 1178.38 C 1650.13 1178.63 1652.03 1178.94 1652.97 1179.52 C 1654.45 1180.44 1655.58 1181.41 1656.1 1183.08 C 1657.34 1187.07 1655.38 1190.57 1653.7 1194.09 C 1652.07 1193.72 1649.62 1193.38 1648.2 1192.55 C 1645.68 1191.07 1645.58 1189.76 1644.94 1187.18 C 1645.72 1183.52 1646.95 1181.41 1649.12 1178.38 z"/>
<path transform="translate(0,0)" fill="rgb(3,2,8)" d="M 1193.13 162.643 C 1195.11 162.652 1197.46 162.712 1199.16 163.901 C 1201.49 165.535 1201.53 166.876 1201.91 169.436 C 1200.66 172.637 1199.74 173.185 1197.16 175.327 C 1195.2 175.299 1192.62 175.26 1190.84 174.386 C 1188.45 173.211 1188.4 171.98 1187.96 169.668 C 1189 166.309 1190.53 164.937 1193.13 162.643 z"/>
<path transform="translate(0,0)" fill="rgb(36,39,63)" d="M 1538.83 1234.66 C 1540.21 1235.06 1542.53 1235.53 1543.69 1236.44 C 1545.47 1237.83 1546.66 1239.59 1546.55 1241.92 C 1546.39 1245.12 1544.17 1247.44 1542.14 1249.67 C 1539.84 1249.36 1537.5 1248.89 1535.76 1247.17 C 1534.22 1245.66 1533.58 1243.67 1533.85 1241.56 C 1534.25 1238.34 1536.53 1236.58 1538.83 1234.66 z"/>
<path transform="translate(0,0)" fill="rgb(36,39,63)" d="M 1740.63 915.523 C 1743.14 915.617 1744.44 916.18 1746.64 917.382 C 1747.97 919.298 1748.64 919.986 1748.68 922.41 C 1748.8 928.35 1743.72 934.426 1739.97 938.518 C 1737.17 938.871 1736.44 938.364 1733.8 937.237 C 1732.91 935.925 1732.25 934.869 1732.13 933.224 C 1731.65 926.339 1736.4 920.336 1740.63 915.523 z"/>
<path transform="translate(0,0)" fill="rgb(232,54,90)" d="M 1944.38 1856.63 C 1950.05 1858.24 1968.84 1880.03 1977.26 1885.55 C 1998.67 1903.31 2021.84 1911.48 2048 1919.54 L 2048 1927.26 C 2031.19 1923.58 2015.74 1916.97 2000.46 1909.25 C 1982.14 1898.15 1952.45 1877.51 1944.38 1856.63 z"/>
<path transform="translate(0,0)" fill="rgb(232,54,90)" d="M 1938.08 1842.61 C 1921.67 1826.06 1904.86 1807.47 1891.89 1788.14 C 1861 1742.09 1845.14 1678.95 1854.3 1624.23 C 1856.55 1610.79 1865.12 1587.3 1864.66 1575.12 C 1864.18 1562.15 1858.64 1548.29 1856.11 1535.45 C 1849.44 1501.48 1849.04 1463.09 1855.81 1429.08 C 1859.88 1408.61 1871.08 1367.97 1889.93 1356.12 C 1895.63 1352.54 1901.59 1352.41 1908.01 1353.81 C 1955.28 1364.11 1992.4 1401.8 2017.79 1440.85 A 765.971 765.971 0 0 1 2048 1435.7 L 2048 1441.73 C 2036.74 1443.48 2026 1445.77 2015.05 1448.93 C 1994.32 1413.68 1951.03 1370.93 1910.35 1360.02 C 1905.03 1358.6 1898.68 1357.76 1893.77 1360.87 C 1876.06 1372.08 1864.65 1417.45 1861.09 1436.74 C 1852.57 1482.84 1859.3 1528.93 1873.02 1573.23 C 1868.69 1588.43 1863.94 1603.63 1861.19 1619.2 C 1852.03 1671.12 1861.9 1721.97 1887.3 1767.87 C 1915.37 1818.6 1966.23 1862.78 2022.5 1878.95 C 2030.75 1881.32 2039.51 1883.22 2048 1884.5 L 2048 1915.66 C 2024.02 1908.87 2001.88 1897.48 1981.79 1882.88 C 1969.24 1872.71 1957.83 1861.54 1945.87 1850.74 L 1938.08 1842.61 z"/>
<path transform="translate(0,0)" fill="rgb(232,54,90)" d="M 1780.01 412.037 C 1785.33 411.732 1790 411.803 1795.12 413.465 C 1811.9 418.908 1823.94 433.544 1831.54 448.851 C 1842.81 471.56 1850.04 507.625 1841.2 532.15 C 1837.43 542.611 1831.14 549.067 1821.1 553.573 C 1816.52 554.604 1812.17 554.558 1807.64 553.221 C 1791.46 548.435 1779.7 532.08 1772.34 517.725 C 1760.3 494.246 1752.51 458.435 1761.41 432.749 C 1764.92 422.6 1770.57 416.821 1780.01 412.037 z"/>
<path transform="translate(0,0)" fill="rgb(58,61,81)" d="M 1774.05 2048 C 1791.13 1962.84 1830.05 1879.6 1896.92 1822.08 C 1900.12 1819.33 1903.8 1815.63 1908.14 1815.95 C 1917.37 1821.98 1921.6 1835.23 1931.09 1841.22 C 1933.31 1844.78 1935.73 1848.27 1937.25 1852.2 L 1938.56 1855.23 C 1947.46 1878.67 1973.9 1900.85 1995.7 1911.86 C 2012.17 1921.44 2029.45 1927.47 2048 1931.65 L 2048 1961.62 L 2048 2048 L 1831.25 2048 L 1807.13 2048 L 1779.62 2048 L 1774.05 2048 z"/>
<path transform="translate(0,0)" fill="rgb(232,54,90)" d="M 1807.13 2048 C 1809.48 2041 1813.3 2027.92 1820.98 2025.34 C 1823.11 2024.62 1825.15 2025.01 1826.8 2026.55 C 1831.87 2031.29 1831.05 2041.66 1831.25 2048 L 1807.13 2048 z"/>
<path transform="translate(0,0)" fill="rgb(232,54,90)" d="M 1774.05 2048 C 1791.13 1962.84 1830.05 1879.6 1896.92 1822.08 C 1900.12 1819.33 1903.8 1815.63 1908.14 1815.95 C 1917.37 1821.98 1921.6 1835.23 1931.09 1841.22 C 1933.31 1844.78 1935.73 1848.27 1937.25 1852.2 L 1938.56 1855.23 C 1947.46 1878.67 1973.9 1900.85 1995.7 1911.86 C 2012.17 1921.44 2029.45 1927.47 2048 1931.65 L 2048 1961.62 C 1999.15 1949.61 1951.27 1916.4 1918.44 1878.39 C 1909.1 1867.57 1899.95 1854.02 1901.69 1839.05 C 1902.24 1834.29 1904.1 1829.66 1904.36 1824.9 C 1904.38 1824.37 1904.4 1823.84 1904.42 1823.31 C 1894.18 1830.46 1884.84 1841.24 1876.25 1850.34 C 1840.83 1887.87 1813.2 1936.38 1796.69 1985.19 C 1789.73 2005.75 1784.79 2026.94 1779.62 2048 L 1774.05 2048 z"/>
<path transform="translate(0,0)" fill="rgb(232,54,90)" d="M 1772.48 0 L 1779.07 0 A 364.568 364.568 0 0 0 1772.48 85.5448 C 1776.25 169.623 1810.81 279.455 1858.05 349.409 C 1871.25 368.962 1888.34 390.319 1906.95 404.965 C 1919.62 405.156 1934.65 407.132 1944.51 397.409 C 1947.04 394.923 1948.89 391.706 1950.74 388.713 C 1933.07 383.858 1920.99 366.45 1912.21 351.17 C 1910.69 348.522 1909.69 346.239 1909.44 343.189 L 1910.54 341.287 C 1913.2 341.745 1914.15 343.246 1915.74 345.31 C 1924.14 356.245 1933.51 378.256 1948.27 381.214 C 1954.42 382.446 1963.65 379.525 1968.74 376.103 C 1972.07 373.862 1974.59 370.564 1975.23 366.539 C 1977.43 352.694 1952.39 329.255 1954.8 320.509 C 1956.14 320.147 1956.69 319.585 1957.96 320.445 C 1969.34 328.144 1972.39 363.161 1994.62 360.886 C 2001.16 360.218 2008.82 356.068 2012.91 350.923 C 2015.74 347.366 2017.51 342.697 2016.75 338.119 C 2014.57 324.994 1994.53 301.168 1995.57 292.527 L 1997.05 291.844 C 2004.21 296.798 2019.47 326.56 2022.64 335.215 C 2032.04 324.662 2034.42 312.103 2033.6 298.37 C 2030.66 249.387 1983.13 176.105 1952.43 139.228 C 1957.71 106.032 1983.02 59.8236 2010.46 39.6465 C 2021.68 31.3915 2034.47 26.2203 2048 23.1494 L 2048 29.4981 L 2048 476.223 L 2048 482.747 C 2027.29 479.627 2007.91 475.188 1988.83 466.308 C 1899.75 424.841 1841.1 352.268 1807.14 261.477 A 1138.91 1138.91 0 0 1 1788.79 207.507 C 1785.3 196.041 1782.58 184.201 1778.46 172.949 L 1778.08 171.919 C 1771.73 191.565 1762.68 210.362 1756.27 230.073 C 1728.08 316.612 1713.73 410 1736.71 499.499 C 1750.24 552.156 1773.92 605.535 1822.38 634.269 A 82.8759 82.8759 0 0 1 1824.43 627.442 C 1829.75 612.529 1843.55 600.923 1857.58 594.335 C 1890.64 578.804 1933.84 580.465 1967.57 592.801 C 1994.41 602.615 2026.29 621.025 2038.57 648.205 C 2042.9 657.78 2045.52 668.295 2041.38 678.416 C 2036.76 689.713 2025.53 697.876 2014.45 702.269 C 1988.35 712.62 1958.05 707.39 1933.09 696.601 C 1930.36 698.211 1928.23 699.151 1925.08 699.62 C 1909.19 701.981 1898.81 697.95 1886.07 688.833 C 1869.16 688.309 1849.52 681.652 1836.59 670.532 C 1827.57 662.773 1822.17 653.074 1821.21 641.21 C 1769.82 610.557 1746 558.456 1731.35 502.596 C 1708.2 414.286 1721.07 317.613 1749.82 232.174 C 1757.41 209.634 1765.75 186.625 1777.79 166.051 C 1775.21 150.456 1771.79 135.011 1769.73 119.328 C 1764.3 78.0219 1767.24 41.0152 1772.48 0 z"/>
<path transform="translate(0,0)" fill="rgb(58,61,81)" d="M 1911.29 589.416 C 1937.97 587.133 1976.15 599.739 1998.53 614.582 C 2014.27 625.021 2033.16 641.817 2036.59 661.381 C 2038.01 669.485 2036.52 677.82 2031.39 684.383 C 2023.32 694.703 2005.17 700.793 1992.33 701.467 C 1982.5 701.984 1986.25 687.253 1979.86 681.225 L 1978.39 681.632 C 1976.26 687.126 1977.72 695.471 1978.12 701.297 C 1970.92 701.094 1963.17 700.763 1956.13 699.221 C 1947.87 697.409 1941.92 694.464 1937.29 687.269 C 1936.3 683.055 1935.8 678.456 1934.57 674.35 C 1933.94 672.261 1933.26 670.293 1931.35 669.183 C 1928.63 676.008 1930.01 684.89 1931.15 691.962 C 1920.45 693.77 1907.35 695.554 1897.41 690.227 C 1885.39 683.788 1885.85 671.555 1882.18 660.305 L 1880.97 660.463 C 1880.73 660.888 1880.46 661.301 1880.23 661.739 C 1877.2 667.646 1880.93 677.637 1882.6 683.782 C 1868.84 680.339 1855.04 677.133 1843.31 668.708 C 1835.68 663.234 1829.36 655.6 1828.21 646.009 C 1826.9 635.126 1831.97 623.199 1838.94 615.048 C 1856.75 594.23 1885.89 591.528 1911.29 589.416 z"/>
<path transform="translate(0,0)" fill="rgb(58,61,81)" d="M 2048 29.4981 L 2048 476.223 C 1999.74 473.512 1950.26 441.287 1914.29 410.82 C 1919.75 411.428 1925.27 412.163 1930.73 411.178 C 1938.66 409.745 1945.86 406.019 1950.36 399.123 C 1952.71 395.518 1953.21 394.656 1952.23 390.487 C 1955.58 385.286 1963.27 385.821 1968.43 383.727 C 1975.76 380.756 1979.31 371.598 1982.02 364.78 C 1984.06 365.538 1986.23 366.029 1988.38 366.353 C 1996.26 367.539 2005.19 364.833 2011.44 359.996 C 2017.98 354.924 2031.49 335.075 2035.12 327.547 C 2037.21 323.224 2038.37 318.658 2039.05 313.924 C 2046.5 261.9 1989.64 177.055 1958.29 135.843 C 1965.07 114.874 1974.04 92.7978 1986.14 74.366 C 2001.23 51.3903 2020.75 35.1365 2048 29.4981 z"/>
<path transform="translate(0,0)" fill="rgb(58,61,81)" d="M 1779.07 0 L 1805.55 0 L 1833.63 0 L 2048 0 L 2048 23.1494 C 2034.47 26.2203 2021.68 31.3915 2010.46 39.6465 C 1983.02 59.8236 1957.71 106.032 1952.43 139.228 C 1983.13 176.105 2030.66 249.387 2033.6 298.37 C 2034.42 312.103 2032.04 324.662 2022.64 335.215 C 2019.47 326.56 2004.21 296.798 1997.05 291.844 L 1995.57 292.527 C 1994.53 301.168 2014.57 324.994 2016.75 338.119 C 2017.51 342.697 2015.74 347.366 2012.91 350.923 C 2008.82 356.068 2001.16 360.218 1994.62 360.886 C 1972.39 363.161 1969.34 328.144 1957.96 320.445 C 1956.69 319.585 1956.14 320.147 1954.8 320.509 C 1952.39 329.255 1977.43 352.694 1975.23 366.539 C 1974.59 370.564 1972.07 373.862 1968.74 376.103 C 1963.65 379.525 1954.42 382.446 1948.27 381.214 C 1933.51 378.256 1924.14 356.245 1915.74 345.31 C 1914.15 343.246 1913.2 341.745 1910.54 341.287 L 1909.44 343.189 C 1909.69 346.239 1910.69 348.522 1912.21 351.17 C 1920.99 366.45 1933.07 383.858 1950.74 388.713 C 1948.89 391.706 1947.04 394.923 1944.51 397.409 C 1934.65 407.132 1919.62 405.156 1906.95 404.965 C 1888.34 390.319 1871.25 368.962 1858.05 349.409 C 1810.81 279.455 1776.25 169.623 1772.48 85.5448 A 364.568 364.568 0 0 1 1779.07 0 z"/>
<path transform="translate(0,0)" fill="rgb(232,54,90)" d="M 1805.55 0 L 1833.63 0 C 1838.2 28.9354 1848.86 59.047 1845.38 88.588 C 1844.55 95.6456 1843.05 104.403 1836.9 108.864 C 1834.27 110.768 1831.01 111.412 1827.83 110.898 C 1820.03 109.636 1813.97 103.156 1809.86 96.8317 C 1792.42 69.9494 1799.61 29.4313 1805.55 0 z"/>
<path transform="translate(0,0)" fill="rgb(58,61,81)" d="M 1873.02 1573.23 C 1859.3 1528.93 1852.57 1482.84 1861.09 1436.74 C 1864.65 1417.45 1876.06 1372.08 1893.77 1360.87 C 1898.68 1357.76 1905.03 1358.6 1910.35 1360.02 C 1951.03 1370.93 1994.32 1413.68 2015.05 1448.93 C 2026 1445.77 2036.74 1443.48 2048 1441.73 L 2048 1480.31 L 2048 1491.28 L 2048 1497.53 L 2048 1507.77 L 2048 1515.29 L 2048 1536.43 L 2048 1884.5 C 2039.51 1883.22 2030.75 1881.32 2022.5 1878.95 C 1966.23 1862.78 1915.37 1818.6 1887.3 1767.87 C 1861.9 1721.97 1852.03 1671.12 1861.19 1619.2 C 1863.94 1603.63 1868.69 1588.43 1873.02 1573.23 z"/>
<path transform="translate(0,0)" fill="rgb(232,54,90)" d="M 2024.35 1496.69 C 2030.42 1489.74 2040.1 1484.98 2048 1480.31 L 2048 1491.28 C 2040 1492.6 2032.34 1495.78 2024.35 1496.69 z"/>
<path transform="translate(0,0)" fill="rgb(232,54,90)" d="M 2024.67 1502.52 C 2032.18 1500.16 2040.26 1499.01 2048 1497.53 L 2048 1507.77 C 2039.01 1509.02 2029.17 1511.18 2020.14 1510.05 C 2020.69 1505.73 2021.53 1505.08 2024.67 1502.52 z"/>
<path transform="translate(0,0)" fill="rgb(232,54,90)" d="M 2048 1515.29 L 2048 1536.43 C 2039.71 1532.58 2028.59 1527.84 2022.45 1520.97 C 2020.65 1518.95 2020.69 1518.69 2020.87 1516.14 L 2048 1515.29 z"/>
<path transform="translate(0,0)" fill="rgb(232,54,90)" d="M 1986.86 1749.21 C 1989.3 1748.86 1989.63 1748.35 1991.85 1749.65 L 1990.96 1751.37 C 1976.56 1760.22 1951.09 1765.23 1934.24 1763.66 C 1930.11 1761.81 1926.51 1759.15 1922.79 1756.59 C 1945.11 1756.15 1965.12 1754.39 1986.86 1749.21 z"/>
<path transform="translate(0,0)" fill="rgb(232,54,90)" d="M 1925.76 1592.17 C 1929.66 1591.76 1932.85 1591.41 1936.69 1592.37 C 1936.74 1592.87 1923.38 1602.66 1921.47 1605.63 C 1919.02 1609.43 1918.3 1613.88 1919.38 1618.27 C 1922.1 1629.38 1932.39 1636.42 1941.5 1642.06 C 1942.94 1643.57 1942.74 1643.49 1943.15 1645.36 C 1941.24 1646.38 1942.1 1646.35 1940.16 1645.89 C 1931.12 1643.76 1922.05 1636.67 1917.25 1628.8 C 1913.45 1622.57 1911.08 1613.96 1913.09 1606.74 C 1915 1599.89 1919.69 1595.4 1925.76 1592.17 z"/>
<path transform="translate(0,0)" fill="rgb(232,54,90)" d="M 1915.33 1692.17 C 1917.9 1691.66 1920.37 1691.71 1922.94 1692.12 C 1934.07 1693.88 1945.07 1696.96 1956.18 1698.94 C 1966.22 1700.73 1980.41 1701.2 1989.61 1704.43 C 1992.54 1705.46 1992.5 1706.76 1993.49 1709.46 C 1982.62 1709.7 1970.5 1708.15 1959.79 1706.58 C 1948.44 1704.92 1922.66 1701.92 1915.33 1692.17 z"/>
<path transform="translate(0,0)" fill="rgb(232,54,90)" d="M 1915.18 1725.34 C 1926.75 1724.32 1983.22 1723.01 1991.35 1726.3 L 1991.34 1728.12 L 1988.51 1729.78 C 1969.53 1733.48 1942.17 1737.52 1923.61 1731.66 C 1919.62 1730.4 1917.12 1729.01 1915.18 1725.34 z"/>
<path transform="translate(0,0)" fill="rgb(232,54,90)" d="M 1965.35 1576.16 C 1971.41 1575.88 1976.72 1576 1982.48 1578.13 C 1994.83 1582.68 2006.44 1593.12 2011.64 1605.29 A 34.5495 34.5495 0 0 1 2011.77 1632.59 C 2007.88 1641.68 2000.69 1647.47 1991.73 1651.12 C 1983.03 1652.91 1973.08 1652.96 1964.84 1649.45 C 1955.09 1645.3 1948.35 1637.02 1944.76 1627.21 C 1940.76 1616.27 1940.03 1602.33 1945.54 1591.76 C 1949.94 1583.34 1956.64 1579.17 1965.35 1576.16 z"/>
<path transform="translate(0,0)" fill="rgb(232,54,90)" d="M 1881.39 1574 C 1877.61 1566.96 1875.74 1559.49 1873.85 1551.77 C 1869.89 1535.66 1866.33 1519.19 1864.98 1502.63 C 1862.11 1467.42 1866.67 1417.01 1885.51 1386.42 C 1888.11 1382.2 1893.5 1373.88 1898.63 1373.19 C 1903.98 1372.46 1909.81 1376.89 1913.72 1380.03 A 113.116 113.116 0 0 1 1927.49 1393.27 C 1935.54 1402.39 1975.69 1453.37 1975.93 1462.3 C 1975.97 1463.86 1975.75 1463.49 1974.42 1464.6 C 1969.57 1462.62 1933.45 1410.02 1924.78 1401.44 C 1924.75 1409.57 1967.66 1459.78 1968.39 1467.81 C 1966.9 1469.65 1967.25 1470.04 1964.77 1470.34 L 1960.79 1465.91 C 1942.02 1440.7 1924.32 1414.63 1905.49 1389.53 C 1915.38 1415.3 1940.36 1449.79 1958.76 1470.75 L 1959.9 1473.53 C 1958.49 1476.54 1955.85 1477.47 1953.5 1479.54 C 1947.85 1468.91 1909.37 1411.58 1901.92 1408.65 C 1904.98 1418.84 1943.08 1472.77 1951.02 1482.18 C 1949.34 1483.93 1947.94 1485.94 1945.42 1486.34 C 1927.31 1464.19 1911.58 1437.39 1895.53 1413.6 C 1897.85 1421.01 1900.47 1427.67 1904.35 1434.41 C 1909.15 1442.74 1941.07 1485.95 1940.89 1490.17 C 1939.34 1491.82 1938.35 1492.03 1936.16 1492.47 C 1932.26 1490.22 1922.71 1472.39 1919.67 1467.81 A 362.325 362.325 0 0 0 1895.71 1435.49 C 1896.21 1436.79 1896.74 1438.06 1897.26 1439.35 C 1903.15 1453.94 1930.29 1485.11 1931.78 1497.36 C 1931.98 1498.96 1931.8 1498.57 1930.66 1499.96 L 1927.41 1499.77 C 1922.85 1510.47 1916.79 1518.06 1910.69 1527.76 A 2028.08 2028.08 0 0 1 1881.39 1574 z"/>
<path transform="translate(0,0)" fill="rgb(58,61,81)" d="M 0 0 L 264.678 0 L 271.519 0 C 266.748 8.98565 262.052 18.0526 256.943 26.8508 C 248.623 41.1792 233.592 59.5043 231.112 75.837 C 230.142 82.2257 232.156 89.2929 234.018 95.3915 C 246.197 135.3 261.863 173.825 271.315 214.652 C 296.211 322.192 287.045 452.229 235.332 550.748 C 225.396 569.678 214.583 588.12 199.803 603.736 C 206.373 613.698 211.953 624.279 209.609 636.67 C 207.309 648.829 197.79 657.987 187.774 664.441 C 151.441 687.851 82.7234 697.03 40.8042 687.596 C 22.1967 683.408 12.6743 672.569 3.05022 657.117 L 0 652.165 L 0 631.5 L 0 433.098 L 0 427.657 L 0 40.2859 L 0 34.312 L 0 0 z"/>
<path transform="translate(0,0)" fill="rgb(232,54,90)" d="M 0 34.312 C 43.7054 57.6519 71.9949 106.234 85.8417 152.431 C 105.44 217.818 97.9456 297.007 65.2853 357.019 C 52.3143 380.852 25.1756 421.789 0 433.098 L 0 427.657 C 21.8222 411.756 39.0021 389.936 53.2832 367.194 C 89.4948 309.528 98.7121 232.52 83.5773 166.717 C 72.0862 116.755 43.9257 67.9464 0 40.2859 L 0 34.312 z"/>
<path transform="translate(0,0)" fill="rgb(58,61,81)" d="M 0 40.2859 C 43.9257 67.9464 72.0862 116.755 83.5773 166.717 C 98.7121 232.52 89.4948 309.528 53.2832 367.194 C 39.0021 389.936 21.8222 411.756 0 427.657 L 0 40.2859 z"/>
<path transform="translate(0,0)" fill="rgb(232,54,90)" d="M 264.678 0 L 271.519 0 C 266.748 8.98565 262.052 18.0526 256.943 26.8508 C 248.623 41.1792 233.592 59.5043 231.112 75.837 C 230.142 82.2257 232.156 89.2929 234.018 95.3915 C 246.197 135.3 261.863 173.825 271.315 214.652 C 296.211 322.192 287.045 452.229 235.332 550.748 C 225.396 569.678 214.583 588.12 199.803 603.736 C 206.373 613.698 211.953 624.279 209.609 636.67 C 207.309 648.829 197.79 657.987 187.774 664.441 C 151.441 687.851 82.7234 697.03 40.8042 687.596 C 22.1967 683.408 12.6743 672.569 3.05022 657.117 L 0 652.165 L 0 631.5 A 154.263 154.263 0 0 1 17.4776 612.027 C 47.6261 583.64 89.8724 569.73 130.955 571.013 C 157.242 571.835 177.832 579.549 195.825 598.864 C 216.621 579.457 232.092 547.429 242.541 521.08 C 235.91 526.336 229.993 533.021 222.171 536.575 C 215.652 539.537 207.945 539.442 201.298 536.945 C 188.472 532.126 178.874 518.85 173.755 506.54 C 160.148 473.823 165.045 428.853 178.619 396.928 C 186.123 379.279 198.324 360.511 217.026 353.377 C 226.851 349.63 237.667 349.341 247.239 353.959 C 263.541 361.824 269.867 377.873 275.561 393.775 C 276.911 375.618 278.814 357.272 279.065 339.067 C 279.907 278.086 268.406 219.916 250.379 161.914 C 244.267 142.249 236.701 123.088 230.506 103.459 C 227.62 94.3159 223.811 82.6082 225.035 72.9029 C 225.886 66.1567 258.2 12.5347 264.678 0 z"/>
<path transform="translate(0,0)" fill="rgb(58,61,81)" d="M 223.231 356.196 C 227.98 355.818 232.686 355.534 237.357 356.675 C 248.777 359.464 257.286 366.711 262.901 376.918 C 278.778 405.782 269.566 440.546 261.154 470.228 C 253.872 495.927 244 518.035 219.718 531.564 C 213.687 533.304 208.442 533.133 202.539 530.894 C 191.249 526.612 183.807 516.167 179.322 505.367 C 166.533 474.579 170.323 431.419 182.807 401.117 C 191.023 381.176 202.906 364.701 223.231 356.196 z"/>
<path transform="translate(0,0)" fill="rgb(58,61,81)" d="M 2.88795 641.996 C 15.4566 614.914 44.0819 596.237 71.4601 586.314 C 100.619 575.746 138.99 570.821 167.907 584.761 C 182.224 591.663 197.024 605.371 202.359 620.571 C 204.941 627.927 204.919 635.653 201.369 642.695 C 192.485 660.32 166.641 669.573 148.979 674.806 A 198.911 198.911 0 0 1 123.154 680.834 C 124.951 668.942 127.447 656.47 121.249 645.358 L 119.836 645.159 C 117.923 652.25 119.345 660.536 119.208 667.882 C 119.123 672.423 118.303 677.081 117.685 681.581 C 102.327 684.401 85.1098 685.385 69.4623 684.772 C 70.7237 677.962 72.0357 670.47 71.5339 663.544 C 71.2097 659.068 70.0195 651.843 66.5365 648.859 C 63.2005 653.373 64.7255 676.107 64.0748 683.163 C 56.8875 686.258 42.8317 682.947 35.7822 680.104 C 20.7221 674.032 10.5885 660.672 4.53573 646.074 A 259.963 259.963 0 0 1 2.88795 641.996 z"/>
<path transform="translate(0,0)" fill="rgb(58,61,81)" d="M 26.4883 1436.12 C 50.4525 1404.6 75.529 1378.81 111.828 1361.65 C 122.569 1356.57 134.453 1351.92 146.299 1350.34 C 151.327 1349.67 157.438 1349.79 161.499 1353.27 C 185.723 1374.04 193.161 1438.06 197.225 1469.47 C 227.012 1465.23 250.949 1468.65 275.474 1487.06 C 282.221 1492.13 288.71 1498.16 293.978 1504.76 C 338.111 1558.09 336.151 1636.77 336.107 1702.19 C 336.081 1741.33 335.271 1780.19 331.58 1819.19 C 326.489 1872.99 312.59 1938.27 291.143 1987.7 C 282.03 2008.7 270.878 2028.38 259.155 2048 L 252.289 2048 L 0 2048 L 0 1968.25 L 0 1962.84 L 0 1893.32 L 0 1885.15 L 0 1559.68 L 0 1539.37 L 0 1487.31 L 0 1439.89 L 0 1434.86 C 8.82172 1435.3 17.6603 1435.88 26.4883 1436.12 z"/>
<path transform="translate(0,0)" fill="rgb(232,54,90)" d="M 221.896 1508.74 C 225.65 1509.1 228.474 1509.68 231.385 1512.24 A 13.2611 13.2611 0 0 1 235.855 1522.31 C 235.842 1529.27 232.941 1533.42 228.137 1538.11 C 224.888 1538.45 222.156 1538.13 219.501 1536.02 C 216.124 1533.32 215.075 1528.5 215.123 1524.4 C 215.203 1517.61 216.979 1513.31 221.896 1508.74 z"/>
<path transform="translate(0,0)" fill="rgb(232,54,90)" d="M 269.101 1516.02 C 269.388 1516.1 269.677 1516.18 269.964 1516.27 C 274.054 1517.48 277.221 1519.56 279.148 1523.49 C 281.937 1529.19 281.514 1535.85 279.243 1541.63 C 276.949 1547.47 274.204 1549.85 268.51 1552.2 C 264.065 1550.87 260.09 1549.07 257.65 1544.89 C 254.973 1540.31 254.897 1534.82 256.525 1529.87 C 258.831 1522.87 262.753 1519.36 269.101 1516.02 z"/>
<path transform="translate(0,0)" fill="rgb(232,54,90)" d="M 287.873 1560.14 C 290.411 1559.91 293.249 1559.48 295.778 1559.86 C 299.414 1560.4 302.822 1563.4 304.701 1566.43 C 307.411 1570.8 307.922 1576.34 306.73 1581.28 C 305.093 1588.07 301.962 1591.65 296.093 1595.14 C 290.709 1594.92 285.179 1593.17 281.448 1589.12 C 278.331 1585.73 277.077 1581.13 277.586 1576.6 C 278.385 1569.49 282.421 1564.4 287.873 1560.14 z"/>
<path transform="translate(0,0)" fill="rgb(232,54,90)" d="M 178.834 1511.94 C 179.836 1511.83 180.839 1511.72 181.845 1511.67 C 185.917 1511.47 188.86 1512.6 191.708 1515.44 C 196.336 1520.06 197.964 1527.09 197.667 1533.45 C 197.348 1540.3 195.816 1546.21 190.728 1550.94 C 189.507 1551.04 188.208 1551.19 186.977 1551.13 C 182.858 1550.92 179.916 1549.22 177.274 1546.13 C 172.303 1540.3 170.825 1532.02 171.667 1524.59 C 172.407 1518.07 173.708 1515.95 178.834 1511.94 z"/>
<path transform="translate(0,0)" fill="rgb(232,54,90)" d="M 218.768 1551.26 C 229.332 1550.49 241.034 1551.58 250.248 1557.13 A 34.8209 34.8209 0 0 1 266.155 1579.5 C 267.777 1587.05 266.767 1595.68 262.295 1602.13 C 260.052 1605.36 256.621 1608.08 252.651 1608.69 C 247.013 1609.56 243.637 1606.54 239.46 1603.28 C 225.254 1593.93 208.008 1607.67 195.912 1601.05 C 192.066 1598.94 189.612 1594.91 188.709 1590.69 C 187.067 1583.02 190.521 1574.05 194.641 1567.7 C 200.538 1558.61 208.318 1553.57 218.768 1551.26 z"/>
<path transform="translate(0,0)" fill="rgb(232,54,90)" d="M 297.412 1769.04 C 298.017 1769.01 298.62 1768.98 299.225 1768.97 C 303.574 1768.87 307.237 1770.41 310.207 1773.62 C 317.065 1781.03 317.257 1792.73 316.694 1802.23 C 314.858 1833.18 307.005 1864.25 297.03 1893.48 C 295.332 1898.46 293.32 1907.06 289.392 1910.54 A 95.4562 95.4562 0 0 0 286.575 1910.23 C 282.814 1909.91 282.34 1910.29 279.562 1912.7 L 279.173 1913.92 L 278.319 1913.95 C 278.959 1912.08 279.517 1910.21 280.028 1908.3 C 282.765 1898.07 271.306 1880.57 266.271 1871.85 C 266.402 1846.25 260.516 1819.5 270.854 1794.99 C 276.26 1782.17 284.702 1774.2 297.412 1769.04 z"/>
<path transform="translate(0,0)" fill="rgb(58,61,81)" d="M 26.4883 1436.12 C 50.4525 1404.6 75.529 1378.81 111.828 1361.65 C 122.569 1356.57 134.453 1351.92 146.299 1350.34 C 151.327 1349.67 157.438 1349.79 161.499 1353.27 C 185.723 1374.04 193.161 1438.06 197.225 1469.47 C 227.012 1465.23 250.949 1468.65 275.474 1487.06 C 282.221 1492.13 288.71 1498.16 293.978 1504.76 C 338.111 1558.09 336.151 1636.77 336.107 1702.19 C 336.081 1741.33 335.271 1780.19 331.58 1819.19 C 326.489 1872.99 312.59 1938.27 291.143 1987.7 C 282.03 2008.7 270.878 2028.38 259.155 2048 L 252.289 2048 C 279.727 2004.36 298.558 1959.31 310.163 1909.05 C 327.487 1834.04 330.296 1765.21 330.201 1688.68 C 330.154 1651.18 330.481 1613.48 321.503 1576.8 C 317.471 1560.32 311.743 1540.11 302.913 1525.55 C 299.231 1519.48 294.424 1514.13 290.655 1508.1 C 281.58 1498.82 272.513 1490.21 261.134 1483.79 C 238.044 1470.75 213.803 1470.76 188.889 1477.79 C 174.009 1483.8 157.976 1493.7 151.598 1509.18 C 149.708 1513.77 148.665 1518.93 148.954 1523.9 C 150.161 1544.66 165.488 1576.5 171.256 1598.16 C 185.063 1649.99 193.216 1726.49 180.92 1778.88 C 174.224 1807.41 160.684 1835.59 142.849 1858.82 C 132.011 1872.94 117.191 1881.08 104.522 1892.97 C 75.7133 1919.98 48.3232 1947.69 11.4559 1964.08 C 7.72816 1965.74 3.89205 1967.04 0 1968.25 L 0 1962.84 L 0 1893.32 L 0 1885.15 L 0 1559.68 L 0 1539.37 L 0 1487.31 L 0 1439.89 L 0 1434.86 C 8.82172 1435.3 17.6603 1435.88 26.4883 1436.12 z"/>
<path transform="translate(0,0)" fill="rgb(232,54,90)" d="M 116.246 1609.06 C 119.512 1608.82 124.132 1608.02 127.164 1609.39 C 128.662 1610.07 128.621 1611.32 129.138 1612.76 C 126.465 1614.02 124.773 1614.28 121.895 1614.44 C 118.684 1612.88 118.228 1611.92 116.246 1609.06 z"/>
<path transform="translate(0,0)" fill="rgb(232,54,90)" d="M 112.555 1577.42 C 116.577 1577.25 122.966 1576.16 126.46 1578.34 L 126.189 1580.36 C 122.711 1581.39 119.58 1582.47 115.921 1582.33 C 113.189 1580.74 113.478 1580.51 112.555 1577.42 z"/>
<path transform="translate(0,0)" fill="rgb(232,54,90)" d="M 117.742 1589.38 C 120.846 1589.07 124.33 1588.46 127.436 1588.75 C 129.321 1588.93 129.449 1588.94 130.701 1590.43 L 129.469 1593.35 C 126.163 1594.22 123.407 1595.02 119.978 1594.65 C 117.81 1592.68 118.097 1592.34 117.742 1589.38 z"/>
<path transform="translate(0,0)" fill="rgb(232,54,90)" d="M 25.2847 1581.28 C 27.8155 1582.35 30.9442 1584.55 32.3311 1587 C 33.8648 1589.72 33.178 1590.77 32.2014 1593.43 C 29.4099 1592.15 25.0833 1589.5 23.8974 1586.64 C 23.148 1584.83 24.5426 1583 25.2847 1581.28 z"/>
<path transform="translate(0,0)" fill="rgb(232,54,90)" d="M 50.453 1747.86 C 59.8768 1747.5 71.5759 1752.19 81.0491 1753.9 C 91.137 1755.72 99.9623 1755.69 110.075 1755.78 C 112.608 1755.8 114.564 1755.5 116.417 1757.37 L 114.596 1759.75 C 111.747 1761.65 108.967 1763.22 105.53 1763.71 C 88.9471 1766.07 63.5722 1757.99 50.453 1747.86 z"/>
<path transform="translate(0,0)" fill="rgb(232,54,90)" d="M 122.422 1691.22 C 125.183 1691.18 126.15 1691.43 128.184 1693.12 C 128.022 1693.35 127.89 1693.61 127.697 1693.81 C 120.093 1701.89 70.6625 1708.12 57.2362 1709.34 C 56.7932 1709.44 56.3605 1709.61 55.9073 1709.64 C 53.5792 1709.78 52.9824 1709.26 51.4472 1707.77 L 52.5598 1705.69 C 61.2276 1702.68 71.1467 1701.64 80.1661 1699.88 C 94.2771 1697.14 108.347 1694.14 122.422 1691.22 z"/>
<path transform="translate(0,0)" fill="rgb(232,54,90)" d="M 76.0273 1724.55 C 89.5005 1723.6 106.071 1722.37 119.413 1723.96 C 121.932 1724.26 123.602 1724.42 125.231 1726.47 C 124.924 1726.95 124.707 1727.51 124.311 1727.92 C 119.824 1732.63 105.738 1732.34 99.3134 1732.85 C 86.1473 1732.97 59.8188 1734.52 49.2973 1727.09 L 49.6046 1725.97 C 57.7645 1723.97 67.5981 1724.82 76.0273 1724.55 z"/>
<path transform="translate(0,0)" fill="rgb(232,54,90)" d="M 0 1487.31 C 6.6792 1493.66 12.9711 1500.01 18.2575 1507.59 C 16.6983 1514.54 14.9646 1521.28 12.7241 1528.05 C 10.8016 1532.77 8.42998 1540.97 4.35462 1544.09 C 3.55874 1547.2 2.77504 1548.39 3.98956 1551.43 L 6.90109 1553.28 C 5.82128 1556.45 2.65773 1557.91 0 1559.68 L 0 1539.37 L 0 1487.31 z"/>
<path transform="translate(0,0)" fill="rgb(232,54,90)" d="M 80.1067 1577.13 C 86.4773 1576.72 92.4483 1577.84 97.7056 1581.68 C 104.249 1586.47 107.46 1593.92 108.436 1601.79 C 109.848 1613.17 107.838 1625.39 100.413 1634.44 C 91.6808 1645.09 79.781 1647.9 66.7951 1649.46 C 60.543 1649.24 53.9051 1648.72 48.3798 1645.51 C 43.5194 1642.68 40.2096 1638.63 38.8005 1633.15 C 36.2284 1623.15 39.1224 1611.13 44.2454 1602.38 C 52.3513 1588.55 64.955 1581.13 80.1067 1577.13 z"/>
<path transform="translate(0,0)" fill="rgb(232,54,90)" d="M 26.4883 1436.12 C 50.4525 1404.6 75.529 1378.81 111.828 1361.65 C 122.569 1356.57 134.453 1351.92 146.299 1350.34 C 151.327 1349.67 157.438 1349.79 161.499 1353.27 C 185.723 1374.04 193.161 1438.06 197.225 1469.47 C 227.012 1465.23 250.949 1468.65 275.474 1487.06 C 282.221 1492.13 288.71 1498.16 293.978 1504.76 C 338.111 1558.09 336.151 1636.77 336.107 1702.19 C 336.081 1741.33 335.271 1780.19 331.58 1819.19 C 326.489 1872.99 312.59 1938.27 291.143 1987.7 C 282.03 2008.7 270.878 2028.38 259.155 2048 L 252.289 2048 C 279.727 2004.36 298.558 1959.31 310.163 1909.05 C 327.487 1834.04 330.296 1765.21 330.201 1688.68 C 330.154 1651.18 330.481 1613.48 321.503 1576.8 C 317.471 1560.32 311.743 1540.11 302.913 1525.55 C 299.231 1519.48 294.424 1514.13 290.655 1508.1 C 281.58 1498.82 272.513 1490.21 261.134 1483.79 C 238.044 1470.75 213.803 1470.76 188.889 1477.79 C 174.009 1483.8 157.976 1493.7 151.598 1509.18 C 149.708 1513.77 148.665 1518.93 148.954 1523.9 C 150.161 1544.66 165.488 1576.5 171.256 1598.16 C 185.063 1649.99 193.216 1726.49 180.92 1778.88 C 174.224 1807.41 160.684 1835.59 142.849 1858.82 C 132.011 1872.94 117.191 1881.08 104.522 1892.97 C 75.7133 1919.98 48.3232 1947.69 11.4559 1964.08 C 7.72816 1965.74 3.89205 1967.04 0 1968.25 L 0 1962.84 L 0 1893.32 L 0 1885.15 C 48.5562 1877.07 84.2181 1848.49 115.67 1812.12 C 154.381 1767.36 182.405 1696.58 173.597 1636.7 C 168.902 1604.77 157.038 1574.48 148 1543.64 C 145.791 1536.09 133.87 1513.88 133.803 1511.04 C 133.791 1510.54 133.815 1510.04 133.821 1509.54 C 140.214 1501.59 145.072 1474.3 145.92 1463.96 C 138.916 1477.59 134.482 1492.98 130.221 1507.67 C 127.878 1506.1 125.664 1503.37 123.654 1501.34 C 130.413 1480.81 138.594 1461.07 146.155 1440.87 C 138.843 1448.46 133.579 1458.12 129.314 1467.68 C 126.826 1473.26 122.377 1490.34 118.657 1493.72 C 115.775 1493.65 115.487 1493.09 113.158 1491.3 C 113.562 1474.98 137.515 1444.61 138.741 1427.47 L 137.46 1427.32 C 125.932 1439.5 111.561 1479.88 106.562 1483.93 L 104.551 1483.32 C 102.76 1481.08 101.808 1479.97 101.361 1477.05 C 107.328 1468.56 111.233 1456.28 115.901 1446.8 C 121.792 1434.83 128.92 1423.41 134.469 1411.29 C 135.799 1408.39 136.603 1405.5 137.102 1402.35 A 322.892 322.892 0 0 0 96.2069 1473.21 L 94.974 1474.8 C 91.9225 1474.36 88.6914 1470.66 86.3836 1468.6 C 95.518 1452.24 105.582 1436.5 115.74 1420.76 C 121.475 1411.88 127.849 1403.04 132.77 1393.68 C 116.015 1407.08 102.068 1427.15 91.3648 1445.71 C 88.4855 1450.7 86.4267 1456.33 83.2455 1461.12 C 81.7392 1463.39 80.6086 1464.25 78.0695 1465.07 C 75.6759 1463.94 74.041 1463.22 72.2434 1461.21 C 71.5643 1450.13 109.931 1403.03 119.147 1392.68 C 128.336 1382.36 139.401 1374.39 152.809 1370.56 C 172.265 1391.14 176.947 1427.18 179.607 1454.15 C 180.063 1458.78 179.88 1469.2 182.106 1472.95 C 183.411 1475.14 184.598 1474.73 186.86 1475.17 C 187.126 1474.92 187.408 1474.67 187.659 1474.4 C 190.593 1471.19 189.852 1466.99 189.697 1462.95 C 188.493 1431.59 178.095 1377.01 154.936 1355.49 C 153.986 1355.56 153.035 1355.63 152.089 1355.74 C 98.95 1362.08 58.8139 1404.07 27.1287 1443.55 A 1069.76 1069.76 0 0 0 0 1439.89 L 0 1434.86 C 8.82172 1435.3 17.6603 1435.88 26.4883 1436.12 z"/>
<path transform="translate(0,0)" fill="rgb(58,61,81)" d="M 178.434 1687.73 C 182.403 1696.8 180.309 1739.29 179.225 1750.42 A 215.657 215.657 0 0 1 174.757 1777.52 C 165.035 1819.7 143.421 1859.85 106.115 1883.15 C 106.048 1865.8 111.037 1848.04 106.565 1830.83 A 238.883 238.883 0 0 0 169.741 1726.47 C 173.374 1713.71 175.464 1700.64 178.434 1687.73 z"/>
<path transform="translate(0,0)" fill="rgb(58,61,81)" d="M 101.87 1836.05 C 101.587 1850.4 103.036 1876.09 97.4217 1888.93 C 95.0367 1894.39 90.6028 1898.85 86.3678 1902.92 C 62.575 1925.79 30.8584 1951.12 0 1962.84 L 0 1893.32 C 40.1476 1883.57 71.9657 1864.04 101.87 1836.05 z"/>
<path transform="translate(0,0)" fill="rgb(36,39,63)" d="M 1322.68 1438.13 C 1345.59 1437.49 1411.47 1471.08 1431.28 1484.19 A 282.028 282.028 0 0 1 1469.43 1515.14 C 1495.62 1540.1 1515.16 1573.78 1515.88 1610.67 C 1516.66 1650.65 1499.23 1686.96 1471.73 1715.27 C 1412.11 1776.64 1321.21 1803.53 1237.27 1804.42 C 1184.09 1804.99 1132.35 1799.42 1080.81 1785.93 C 1056.05 1779.45 1031.83 1771.06 1007.23 1764.02 A 557.241 557.241 0 0 0 908.005 1744.47 A 428.878 428.878 0 0 0 824.516 1744.08 C 769.988 1749.08 713.978 1762.21 659.159 1753.13 A 170.627 170.627 0 0 1 567.811 1707.24 C 543.547 1683.64 530.661 1653.95 530.473 1620.07 C 530.237 1577.54 550.399 1536.48 580.235 1506.7 C 587.486 1499.47 611.869 1477.96 620.365 1474.97 C 629.713 1503.72 639.975 1531.33 660.372 1554.3 C 681.624 1578.23 687.344 1580.45 718.655 1582.24 C 742.013 1555.38 759.587 1541.53 796.276 1537.35 C 853.513 1530.82 902.945 1551.17 947.156 1586.03 C 973.71 1590.37 1000.04 1586.85 1025.83 1579.89 C 1028.01 1577.22 1030.16 1574.52 1032.54 1572.04 C 1063.24 1540.06 1122.06 1517.83 1166.01 1517.39 C 1208.79 1516.97 1231.42 1527.79 1260.99 1557.06 C 1289.06 1520.84 1310.22 1482.37 1322.68 1438.13 z"/>
<path transform="translate(0,0)" fill="rgb(254,254,254)" d="M 728.522 1615.68 C 727.447 1602.55 728.945 1592.36 737.767 1581.83 C 754.367 1562.03 782.606 1553.78 807.481 1552.08 C 848.098 1549.32 897.295 1564.28 928.048 1591.32 C 938.315 1600.35 947.352 1611.29 948.242 1625.5 A 213.04 213.04 0 0 1 948.52 1630.89 C 948.36 1635.38 947.356 1639.36 945.36 1643.41 C 940.816 1652.63 932.551 1658.39 922.972 1661.57 C 885.868 1673.87 781.378 1657.68 746.495 1639.71 C 736.028 1634.31 731.991 1626.7 728.522 1615.68 z"/>
<path transform="translate(0,0)" fill="rgb(232,54,90)" d="M 780.414 1640.79 C 780.068 1630.5 780.149 1600.58 787.644 1592.83 C 788.602 1591.84 788.746 1591.85 789.797 1591.27 C 791.807 1592.08 792.178 1592.25 793.152 1594.33 C 798.819 1606.46 793.42 1629.32 791.566 1642.34 C 804.993 1645.5 818.262 1648.18 832.037 1649.38 C 832.156 1633.73 831.117 1611.15 839.425 1597.47 L 841.298 1596.51 C 844.136 1598.42 844.843 1601.78 845.497 1604.96 C 848.48 1619.44 846.307 1635.74 845.455 1650.37 C 858.523 1651.32 871.702 1652.54 884.782 1651.21 C 885.698 1636.45 884.495 1614.89 891.169 1601.63 L 892.725 1600.43 C 896.232 1602.34 896.792 1604.86 897.897 1608.68 C 901.882 1622.44 902.016 1641.08 898.136 1654.8 C 913.271 1654.12 929.205 1654.64 940.516 1642.72 C 943.806 1639.25 946.178 1635.02 948.52 1630.89 C 948.36 1635.38 947.356 1639.36 945.36 1643.41 C 940.816 1652.63 932.551 1658.39 922.972 1661.57 C 885.868 1673.87 781.378 1657.68 746.495 1639.71 C 736.028 1634.31 731.991 1626.7 728.522 1615.68 C 744.303 1628.3 761.288 1634.75 780.414 1640.79 z"/>
<path transform="translate(0,0)" fill="rgb(254,254,254)" d="M 1036.77 1587.12 C 1037.15 1586.69 1037.52 1586.26 1037.9 1585.84 C 1043.98 1579.21 1052.35 1573.85 1059.83 1568.93 C 1090.82 1548.52 1127.39 1532.46 1164.97 1531.09 C 1192.24 1530.09 1223.92 1537.86 1244.2 1557.05 C 1253.73 1566.05 1258.94 1576.08 1259.25 1589.25 C 1262.02 1594.77 1261.98 1599.6 1260.05 1605.47 C 1256.89 1615.11 1247.41 1620.87 1238.71 1624.95 C 1199.25 1643.46 1118.07 1659.77 1076.73 1644.68 C 1062.1 1639.34 1050.69 1629.96 1044.07 1615.64 C 1043.19 1613.75 1042.62 1611.94 1042.32 1609.88 C 1039.14 1602.31 1037.28 1595.31 1036.77 1587.12 z"/>
<path transform="translate(0,0)" fill="rgb(232,54,90)" d="M 1201.57 1630.62 C 1200.8 1618 1199.11 1604.44 1200.59 1591.9 C 1201.19 1586.78 1202.39 1581.13 1206.58 1577.75 C 1208.14 1577.72 1208.45 1577.32 1209.61 1578.58 C 1218.76 1588.55 1216 1612.68 1215.93 1625.46 C 1226.6 1622.52 1240.87 1620.25 1249.46 1613.02 C 1257 1606.68 1258.33 1598.46 1259.25 1589.25 C 1262.02 1594.77 1261.98 1599.6 1260.05 1605.47 C 1256.89 1615.11 1247.41 1620.87 1238.71 1624.95 C 1199.25 1643.46 1118.07 1659.77 1076.73 1644.68 C 1062.1 1639.34 1050.69 1629.96 1044.07 1615.64 C 1043.19 1613.75 1042.62 1611.94 1042.32 1609.88 C 1069.19 1635.68 1074.93 1641.39 1113.92 1642.99 A 134.756 134.756 0 0 1 1109.72 1603.49 C 1109.94 1597.95 1109.96 1591.2 1114.25 1587.18 C 1116.4 1586.85 1117.15 1586.6 1118.9 1588.28 C 1126.49 1595.6 1126.56 1630.86 1127.9 1642.26 C 1136.35 1641.3 1144.87 1640.96 1153.35 1640.49 C 1153.65 1627.93 1153.24 1614.97 1154.29 1602.48 C 1154.9 1595.18 1155.93 1587.3 1162.1 1582.52 C 1162.54 1582.17 1164.7 1582.68 1165.26 1582.75 C 1174.18 1595.11 1170.13 1623.29 1169.31 1637.76 A 948.234 948.234 0 0 0 1201.57 1630.62 z"/>
<path transform="translate(0,0)" fill="rgb(254,254,254)" d="M 1272.75 476.201 C 1296.43 467.515 1326.51 469.891 1349.26 480.379 C 1375.82 492.63 1395.09 518.711 1404.86 545.712 C 1415.29 574.539 1417.9 607.225 1420.34 637.61 C 1428.97 744.728 1421.93 861.046 1375.19 959.462 A 728.58 728.58 0 0 1 1330.14 1040.81 C 1317.36 1060.65 1303.33 1079.79 1290.74 1099.72 C 1297.35 1113.96 1304.31 1128.11 1309.89 1142.8 C 1346.59 1239.46 1351.82 1339.05 1322.68 1438.13 C 1310.22 1482.37 1289.06 1520.84 1260.99 1557.06 C 1231.42 1527.79 1208.79 1516.97 1166.01 1517.39 C 1122.06 1517.83 1063.24 1540.06 1032.54 1572.04 C 1030.16 1574.52 1028.01 1577.22 1025.83 1579.89 C 1000.04 1586.85 973.71 1590.37 947.156 1586.03 C 902.945 1551.17 853.513 1530.82 796.276 1537.35 C 759.587 1541.53 742.013 1555.38 718.655 1582.24 C 687.344 1580.45 681.624 1578.23 660.372 1554.3 C 639.975 1531.33 629.713 1503.72 620.365 1474.97 C 594.573 1392.41 602.353 1294.27 628.661 1212.78 C 630.99 1205.56 644.251 1165.44 648.597 1163.22 C 648.735 1164.19 648.871 1165.17 649.075 1166.14 C 662.169 1227.98 707.306 1356.79 762.704 1392.32 C 772.295 1398.47 785.481 1404.74 797.044 1401.77 C 805.651 1399.56 810.354 1393.34 814.693 1386.16 C 824.675 1385.66 834.637 1385.22 844.57 1384.05 C 851.684 1388.65 857.974 1396.33 864.48 1401.89 C 878.182 1413.62 894.46 1424.71 910.452 1433.12 C 946.126 1451.89 985.823 1459.03 1024.91 1446.79 C 1073.96 1431.44 1110.27 1389.77 1133.35 1345.47 C 1170 1275.11 1185.74 1179.93 1161.15 1103.6 C 1144.59 1052.18 1112.05 1019.28 1064.87 995.19 C 1065.95 981.552 1063.29 971.97 1058.74 959.315 C 1069.81 954.957 1081.12 951.326 1092.16 946.804 C 1096.5 953.078 1098.67 960.349 1103.17 966.475 C 1105.57 967.422 1105.82 967.834 1108.22 967.058 C 1109.8 960.986 1102.15 948.949 1099.4 943.148 C 1102.12 941.59 1105.98 938.631 1109.16 938.735 C 1113.95 946.3 1129.88 975.755 1136.62 978.007 C 1136.83 977.071 1136.94 976.868 1136.85 975.771 C 1136.06 966.064 1121.1 942.534 1113.59 936.117 L 1113.81 934.883 C 1117.26 932.155 1123.74 927.395 1128.21 927.238 C 1132.93 935.837 1140.43 946.017 1147.19 953.129 C 1149.43 955.491 1151.41 957.995 1154.75 958.046 C 1154.8 956.403 1154.95 956.596 1154.56 955.273 C 1151.83 945.827 1139.8 928.767 1131.3 923.941 C 1132.06 923.498 1132.82 923.044 1133.55 922.554 C 1185.5 887.885 1235.89 818.575 1254.09 758.481 C 1265.04 722.336 1267.63 659.892 1259.76 622.632 C 1252.42 587.905 1227.74 558.085 1236.24 521.076 C 1241.03 500.187 1255.34 487.207 1272.75 476.201 z"/>
<path transform="translate(0,0)" fill="rgb(36,39,63)" d="M 1396.95 694.202 C 1399.37 694.8 1400.34 695.177 1402.01 697.05 C 1403.14 700.381 1401.73 703.514 1400.79 706.751 C 1400.25 706.674 1399.71 706.65 1399.18 706.518 C 1396.59 705.863 1396.27 705.184 1394.91 703.054 C 1394.72 699.628 1395.67 697.347 1396.95 694.202 z"/>
<path transform="translate(0,0)" fill="rgb(36,39,63)" d="M 657.884 1258.21 C 659.685 1258.95 661.228 1259.81 662.066 1261.64 C 663.835 1265.5 662.738 1268.92 661.336 1272.69 L 658.639 1272.53 L 656.944 1270.6 C 655.992 1266.29 657.047 1262.46 657.884 1258.21 z"/>
<path transform="translate(0,0)" fill="rgb(36,39,63)" d="M 1311.53 1244.27 C 1313.74 1244.39 1314.77 1244.48 1316.55 1245.84 C 1318.51 1249.36 1317.83 1253.72 1317.71 1257.64 C 1315.2 1257.35 1313.83 1257.32 1311.78 1255.69 C 1309.96 1252.22 1311.08 1248.01 1311.53 1244.27 z"/>
<path transform="translate(0,0)" fill="rgb(36,39,63)" d="M 1340.8 921.162 C 1342.67 921.323 1343.99 921.736 1345.71 922.457 C 1348.69 927.836 1346.09 934.694 1344.81 940.332 C 1344.13 940.269 1343.44 940.306 1342.78 940.144 C 1341.46 939.818 1340.16 938.961 1339.53 937.765 C 1337.11 933.15 1339.7 925.981 1340.8 921.162 z"/>
<path transform="translate(0,0)" fill="rgb(36,39,63)" d="M 639.62 1242.35 C 641.102 1242.59 644.092 1242.79 644.864 1244.16 C 647.584 1249.01 644.669 1258.24 643.707 1263.45 C 641.605 1263.23 640.605 1263.02 638.907 1261.74 C 637.377 1255.46 638.901 1248.71 639.62 1242.35 z"/>
<path transform="translate(0,0)" fill="rgb(36,39,63)" d="M 1390.66 643.388 C 1393.07 643.85 1394.77 643.617 1396.22 645.802 C 1399.25 650.366 1397.77 658.986 1396.25 663.86 C 1393.85 663.271 1392.01 663.313 1390.71 660.924 C 1388.07 656.06 1389.78 648.489 1390.66 643.388 z"/>
<path transform="translate(0,0)" fill="rgb(36,39,63)" d="M 1385.97 715.277 C 1386.64 715.445 1387.6 715.656 1388.19 715.965 C 1390.13 716.971 1391.19 718.749 1391.52 720.885 C 1392.34 726.113 1389.63 731.392 1386.8 735.578 C 1386.57 735.488 1386.33 735.428 1386.11 735.307 C 1383.75 733.995 1383.07 733.172 1382.23 730.554 C 1380.7 725.827 1383.45 719.189 1385.97 715.277 z"/>
<path transform="translate(0,0)" fill="rgb(36,39,63)" d="M 1383.62 678.254 C 1385.02 678.516 1386.22 679.031 1387.53 679.545 C 1390.31 685.523 1385.8 694.593 1384.01 700.789 L 1381.48 700.974 C 1380.32 700.249 1379.67 700.191 1379.2 698.79 C 1377.15 692.656 1380.68 683.62 1383.62 678.254 z"/>
<path transform="translate(0,0)" fill="rgb(36,39,63)" d="M 902.017 1509.6 C 907.589 1510.57 920.145 1510.81 924.127 1514.74 C 925.16 1515.76 924.755 1517.04 924.763 1518.38 C 917.845 1519.34 910.326 1520.38 904.004 1516.98 C 901.908 1514.1 902.18 1513.07 902.017 1509.6 z"/>
<path transform="translate(0,0)" fill="rgb(36,39,63)" d="M 1079.07 1511.07 L 1080.8 1514.01 C 1080.76 1515.94 1080.39 1517.14 1079.35 1518.74 C 1075.6 1524.53 1068.85 1528.52 1062.29 1530.12 L 1060.38 1528.36 C 1061.15 1523.08 1074.65 1514.94 1079.07 1511.07 z"/>
<path transform="translate(0,0)" fill="rgb(36,39,63)" d="M 1063.73 1490.94 C 1065.78 1492.48 1066.17 1492.55 1066.9 1494.97 C 1064.7 1500.75 1052.78 1505.54 1047.37 1508.43 C 1045.25 1507.29 1045.23 1507.15 1044.19 1504.96 C 1045.8 1499.75 1058.91 1494.17 1063.73 1490.94 z"/>
<path transform="translate(0,0)" fill="rgb(36,39,63)" d="M 1045.83 1518.82 C 1047.99 1519.94 1047.88 1519.41 1048.84 1521.9 C 1046.07 1528.1 1032.53 1534.01 1026.33 1536.67 C 1024.6 1535.48 1024.45 1535.19 1023.54 1533.4 C 1025.26 1528.41 1040.82 1521.79 1045.83 1518.82 z"/>
<path transform="translate(0,0)" fill="rgb(36,39,63)" d="M 1095.75 1478.56 C 1098.21 1479.33 1098.46 1479.49 1100.13 1481.47 L 1099.77 1483.96 C 1095.29 1490.63 1088.1 1494.57 1081.44 1498.76 C 1080.55 1498.92 1079.53 1498.67 1078.63 1498.57 L 1077.95 1497.15 C 1080.45 1490.7 1090.66 1483.65 1095.75 1478.56 z"/>
<path transform="translate(0,0)" fill="rgb(36,39,63)" d="M 1283.56 1212.37 C 1285.3 1212.59 1286.2 1212.8 1287.77 1213.42 C 1292.15 1220.28 1291.85 1236.09 1291.12 1243.97 C 1289.42 1243.83 1288.62 1243.62 1287.08 1243.02 C 1282.6 1236.94 1283.51 1219.95 1283.56 1212.37 z"/>
<path transform="translate(0,0)" fill="rgb(36,39,63)" d="M 1130.2 1489.71 C 1132.04 1490.55 1132.06 1490.89 1133.22 1492.44 L 1132.59 1494.78 C 1126.93 1501.07 1118.5 1504.47 1111.03 1508.12 C 1109.02 1506.68 1108.96 1507.11 1108.22 1504.55 C 1110.83 1498.68 1124.37 1492.93 1130.2 1489.71 z"/>
<path transform="translate(0,0)" fill="rgb(36,39,63)" d="M 910.408 1542.54 C 916.745 1542.8 929.236 1542.17 934.455 1546.22 C 936.732 1547.99 936.5 1548.63 936.625 1551.31 C 936.238 1551.39 935.854 1551.48 935.462 1551.54 C 929.705 1552.34 915.235 1552.22 910.964 1548.33 C 909.768 1547.24 910.375 1544.12 910.408 1542.54 z"/>
<path transform="translate(0,0)" fill="rgb(36,39,63)" d="M 1266.05 1089.54 C 1266.54 1089.85 1267.07 1090.11 1267.52 1090.48 C 1272.22 1094.36 1277.04 1105.58 1278.14 1111.48 C 1278.64 1114.16 1278.44 1114.4 1277.01 1116.57 C 1275.46 1116 1274.04 1115.64 1272.83 1114.44 C 1268.77 1110.36 1263.07 1099.26 1263.21 1093.49 C 1263.26 1091.68 1264.86 1090.77 1266.05 1089.54 z"/>
<path transform="translate(0,0)" fill="rgb(36,39,63)" d="M 821.068 1505.81 C 827.244 1506.93 842.234 1508 846.485 1512.6 C 847.573 1513.78 847.017 1516.37 846.973 1517.92 C 840.908 1518.08 827.19 1517.24 823.005 1512.4 C 820.928 1509.99 821.14 1508.83 821.068 1505.81 z"/>
<path transform="translate(0,0)" fill="rgb(36,39,63)" d="M 1239.8 1113.72 C 1239.99 1113.85 1240.19 1113.98 1240.38 1114.13 C 1246.18 1118.54 1249.98 1134.37 1250.78 1141.55 C 1251.11 1144.5 1250.54 1145.45 1248.74 1147.71 C 1242.81 1143.38 1238.52 1127.79 1237.61 1120.62 C 1237.19 1117.26 1237.84 1116.44 1239.8 1113.72 z"/>
<path transform="translate(0,0)" fill="rgb(36,39,63)" d="M 848.281 1484.43 C 848.812 1484.55 849.352 1484.63 849.874 1484.78 C 855.821 1486.48 871.579 1493 874.15 1498.28 C 874.946 1499.92 873.812 1501.28 873.199 1502.85 C 869.154 1502.35 865.201 1501.6 861.432 1500.01 C 856.496 1497.94 848.825 1494.28 847.074 1488.76 C 846.53 1487.05 847.569 1485.96 848.281 1484.43 z"/>
<path transform="translate(0,0)" fill="rgb(36,39,63)" d="M 862.636 1521.64 C 870.73 1522.83 894.364 1524.29 899.405 1529.95 L 899.104 1533.27 C 890.732 1534.09 872.641 1533.07 865.412 1528.15 C 862.577 1526.22 862.997 1524.72 862.636 1521.64 z"/>
<path transform="translate(0,0)" fill="rgb(36,39,63)" d="M 1272.92 1141.5 C 1275.09 1141.58 1276.62 1141.55 1278.55 1142.63 C 1283.11 1149.16 1284.13 1158.35 1285.26 1166.06 C 1285.93 1170.68 1286.24 1173.68 1284.75 1178.17 C 1283.52 1178.17 1282.37 1177.89 1281.16 1177.67 C 1277.57 1173.34 1273.26 1147.81 1272.92 1141.5 z"/>
<path transform="translate(0,0)" fill="rgb(36,39,63)" d="M 1253.3 1168.2 C 1254.84 1168.44 1255.75 1168.75 1257.16 1169.36 C 1262.64 1178.86 1263.48 1198.2 1264.38 1209.29 C 1261.59 1208.52 1259.78 1208.54 1258 1206 C 1253.33 1199.32 1252.07 1176.25 1253.3 1168.2 z"/>
<path transform="translate(0,0)" fill="rgb(36,39,63)" d="M 1298.07 1163.43 C 1299.73 1163.88 1301.24 1164.53 1302.83 1165.18 C 1307.1 1171.07 1311.28 1199.69 1310.64 1207.33 C 1308.03 1207.75 1307.58 1207.9 1305.19 1206.88 C 1299.67 1198.39 1298.82 1173.96 1298.07 1163.43 z"/>
<path transform="translate(0,0)" fill="rgb(232,54,90)" d="M 1311.17 502.908 C 1313.13 502.992 1315.22 503.042 1317.09 503.671 C 1320.29 504.745 1322.98 507.336 1324.48 510.325 C 1326.5 514.374 1326.5 519.054 1324.92 523.257 C 1323.16 527.951 1320.44 530.389 1315.95 532.385 C 1313.91 532.138 1311.82 531.912 1309.82 531.412 C 1306.03 530.458 1302.74 527.694 1300.97 524.237 C 1299.24 520.857 1298.93 516.982 1300.3 513.418 C 1302.39 507.963 1306.02 505.245 1311.17 502.908 z"/>
<path transform="translate(0,0)" fill="rgb(232,54,90)" d="M 1349 509.985 C 1351.16 510.155 1353.42 510.35 1355.52 510.907 C 1360.19 512.144 1364.43 515.663 1366.86 519.785 A 19.305 19.305 0 0 1 1368.73 534.778 C 1366.94 541.163 1362.77 544.974 1357.19 548.162 C 1354.45 548.338 1351.67 548.408 1349.02 547.572 C 1344.77 546.233 1341.05 542.542 1339.04 538.647 C 1336.23 533.212 1336.01 526.673 1338.14 520.976 C 1340.24 515.336 1343.69 512.487 1349 509.985 z"/>
<path transform="translate(0,0)" fill="rgb(232,54,90)" d="M 1260.96 517.018 C 1264.83 516.709 1269.08 516.575 1272.81 517.779 C 1279.04 519.794 1284.31 524.889 1287.08 530.754 C 1289.33 535.528 1290.16 541.174 1288.03 546.138 C 1285.78 551.408 1281.83 553.75 1276.67 555.685 C 1272.65 556.508 1268.41 557.129 1264.37 556.041 C 1258.7 554.511 1253.73 550.017 1251.08 544.855 C 1248.37 539.595 1247.67 533.52 1249.76 527.929 C 1251.84 522.384 1255.83 519.534 1260.96 517.018 z"/>
<path transform="translate(0,0)" fill="rgb(232,54,90)" d="M 1374.73 549.951 C 1376.97 549.985 1379.29 549.912 1381.5 550.313 C 1387.09 551.327 1392.32 556.282 1395.44 560.757 C 1400.39 567.84 1402.83 577.51 1401.25 586.051 C 1400.11 592.177 1397.1 594.543 1392.19 597.898 C 1390.58 598.054 1389.03 598.2 1387.42 598.013 C 1381.04 597.271 1375.49 593.508 1371.77 588.376 C 1366.83 581.553 1364.94 572.071 1366.32 563.813 C 1367.37 557.549 1369.47 553.542 1374.73 549.951 z"/>
<path transform="translate(0,0)" fill="rgb(232,54,90)" d="M 1312.4 547.329 C 1320.49 547.398 1327.04 548.934 1334 553.186 C 1343.95 559.259 1354.69 571.038 1357.07 582.665 C 1358.18 588.042 1357.31 593.571 1354.2 598.144 C 1347.34 608.215 1334.67 609.848 1323.65 611.766 C 1312.16 613.036 1299.94 613.693 1289.56 607.594 C 1283.58 604.077 1279.06 598.398 1277.43 591.604 C 1275.44 583.267 1277.86 574.814 1282.49 567.792 C 1289.51 557.157 1299.87 549.662 1312.4 547.329 z"/>
<path transform="translate(0,0)" fill="rgb(36,39,63)" d="M 1374.47 761.131 C 1376.78 760.94 1379.19 760.717 1381.51 760.911 C 1387.29 761.396 1393.25 765.665 1396.79 770.054 C 1405.7 781.12 1406.97 794.989 1405.33 808.567 C 1402.26 834.018 1386.95 899.245 1367.52 914.501 C 1363.08 915.447 1359.55 914.832 1355.28 913.472 C 1351.38 912.231 1347.1 910.397 1345.23 906.492 C 1339.42 894.355 1350.88 883.815 1351.29 871.962 C 1351.57 863.762 1349.2 855.48 1347.3 847.579 C 1342.49 827.607 1342.46 809.105 1349.44 789.521 C 1354.21 776.142 1361.66 767.24 1374.47 761.131 z"/>
<path transform="translate(0,0)" fill="rgb(232,54,90)" d="M 1281.58 1329.14 C 1287.55 1328.58 1293.22 1329.24 1298.95 1331.05 C 1309.39 1334.34 1317.34 1341.24 1322.09 1351.09 C 1335.52 1378.93 1322.05 1425.06 1311.87 1452.38 C 1302.7 1477 1283.78 1511.51 1259.07 1522.87 C 1253.04 1524.28 1247.48 1523.64 1241.82 1521.06 C 1230.72 1516 1223.42 1504.5 1219.23 1493.42 C 1207.18 1461.58 1214.65 1407.71 1228.47 1377.42 C 1239.24 1353.82 1257.67 1338.21 1281.58 1329.14 z"/>
<path transform="translate(0,0)" fill="rgb(36,39,63)" d="M 1298.66 1346.3 C 1300.58 1346.24 1302.48 1346.27 1304.38 1346.56 C 1309.84 1347.37 1314.77 1350.88 1317.84 1355.4 C 1326.13 1367.59 1323.68 1386.53 1321.14 1400.23 C 1315.15 1432.5 1300.1 1480.54 1271.93 1499.94 C 1270.6 1500.4 1270.59 1500.44 1268.99 1500.79 C 1264.9 1501.67 1260.7 1501.66 1257.17 1499.2 C 1251.61 1495.32 1249.28 1487.86 1248.16 1481.52 C 1242.57 1449.73 1255.67 1388.18 1274.49 1362.11 C 1280.88 1353.27 1287.9 1348.13 1298.66 1346.3 z"/>
<path transform="translate(0,0)" fill="rgb(232,54,90)" d="M 628.939 1438.38 C 626.545 1419.55 626.721 1395.45 638.933 1379.64 C 644.298 1372.7 651.852 1368.26 660.593 1367.23 C 677.642 1365.24 696.34 1374.27 709.203 1384.82 C 734.257 1405.37 747.866 1441.41 750.787 1472.95 C 752.808 1494.77 749.666 1521.39 735.197 1538.85 C 727.061 1548.67 715.14 1554.38 702.526 1555.51 C 691.349 1556.52 680.949 1553.68 672.366 1546.3 C 664.681 1539.69 658.649 1530.09 654.301 1521.02 A 76.0441 76.0441 0 0 1 649.893 1515.58 C 633.52 1493.04 624.334 1466.14 628.939 1438.38 z"/>
<path transform="translate(0,0)" fill="rgb(36,39,63)" d="M 628.939 1438.38 C 633.359 1428.11 638.192 1416.62 649.25 1411.96 C 657.132 1408.64 666.623 1409.94 674.253 1413.34 C 690.311 1420.5 701.533 1438.23 707.305 1454.26 C 713.503 1471.47 714.692 1492.39 706.327 1509.12 C 702.043 1517.69 695.333 1524.37 686.016 1527.14 C 674.363 1530.62 664.331 1526.67 654.301 1521.02 A 76.0441 76.0441 0 0 1 649.893 1515.58 C 633.52 1493.04 624.334 1466.14 628.939 1438.38 z"/>
<path transform="translate(0,0)" fill="rgb(36,39,63)" d="M 774.202 787.526 C 738.499 731.247 715.386 675.779 724.492 607.449 C 726.952 588.991 735.702 570.073 735.875 551.721 C 736.01 537.336 733.953 522.729 732.835 508.392 C 730.629 480.103 728.639 451.245 729.998 422.866 C 731.579 389.842 740.231 337.107 766.48 314.492 C 773.773 308.209 783.055 306.093 792.492 307.118 C 830.662 311.265 881.015 360.679 904.995 389.532 C 910.344 395.967 927.837 417.039 927.123 424.773 L 924.51 425.972 C 925.265 426.742 925.12 426.778 926.226 427.105 C 931.924 428.791 970.988 425.384 981.396 425.61 C 996.139 425.931 1046.25 430.711 1056.16 427.827 C 1065.39 425.14 1080.86 400.592 1088.22 392.477 C 1108.41 370.218 1135.81 350.533 1162.14 336.109 C 1174.97 329.086 1196.18 316.836 1211.15 321.213 C 1212.79 319.671 1213.44 318.813 1215.94 319.25 C 1227.4 321.254 1241.53 344.472 1246.47 354.112 C 1259.79 380.131 1267.3 413.314 1270.25 442.394 C 1271.39 453.553 1271.02 465.169 1272.75 476.201 C 1255.34 487.207 1241.03 500.187 1236.24 521.076 C 1227.74 558.085 1252.42 587.905 1259.76 622.632 C 1267.63 659.892 1265.04 722.336 1254.09 758.481 C 1235.89 818.575 1185.5 887.885 1133.55 922.554 C 1132.82 923.044 1132.06 923.498 1131.3 923.941 C 1139.8 928.767 1151.83 945.827 1154.56 955.273 C 1154.95 956.596 1154.8 956.403 1154.75 958.046 C 1151.41 957.995 1149.43 955.491 1147.19 953.129 C 1140.43 946.017 1132.93 935.837 1128.21 927.238 C 1123.74 927.395 1117.26 932.155 1113.81 934.883 L 1113.59 936.117 C 1121.1 942.534 1136.06 966.064 1136.85 975.771 C 1136.94 976.868 1136.83 977.071 1136.62 978.007 C 1129.88 975.755 1113.95 946.3 1109.16 938.735 C 1105.98 938.631 1102.12 941.59 1099.4 943.148 C 1102.15 948.949 1109.8 960.986 1108.22 967.058 C 1105.82 967.834 1105.57 967.422 1103.17 966.475 C 1098.67 960.349 1096.5 953.078 1092.16 946.804 C 1081.12 951.326 1069.81 954.957 1058.74 959.315 C 1063.29 971.97 1065.95 981.552 1064.87 995.19 C 1112.05 1019.28 1144.59 1052.18 1161.15 1103.6 C 1185.74 1179.93 1170 1275.11 1133.35 1345.47 C 1110.27 1389.77 1073.96 1431.44 1024.91 1446.79 C 985.823 1459.03 946.126 1451.89 910.452 1433.12 C 894.46 1424.71 878.182 1413.62 864.48 1401.89 C 857.974 1396.33 851.684 1388.65 844.57 1384.05 C 834.637 1385.22 824.675 1385.66 814.693 1386.16 C 810.354 1393.34 805.651 1399.56 797.044 1401.77 C 785.481 1404.74 772.295 1398.47 762.704 1392.32 C 707.306 1356.79 662.169 1227.98 649.075 1166.14 C 648.871 1165.17 648.735 1164.19 648.597 1163.22 C 647.285 1151.43 644.818 1139.7 643.274 1127.92 C 639.673 1100.43 638.644 1073.5 640.694 1045.83 C 642.782 1017.64 648.328 990.809 655.863 963.598 C 669.337 914.943 687.867 871.286 722.257 833.348 C 738.164 815.8 756.465 802.849 774.202 787.526 z"/>
<path transform="translate(0,0)" fill="rgb(232,54,90)" d="M 1040.69 1035.94 C 1049.38 1027.86 1056.3 1020.02 1060.19 1008.53 C 1061.38 1005.01 1061.9 1000.51 1063.41 997.226 C 1065.27 1008.23 1060.36 1021.63 1054.11 1030.57 C 1050.48 1035.76 1045.84 1040.44 1041.02 1044.52 L 1038.95 1043.27 C 1030.69 1048.05 1018.82 1056.95 1009.09 1055.24 C 1007.31 1053.61 1007.66 1053.27 1007.26 1050.99 C 1020.01 1048.18 1029.9 1043.25 1040.69 1035.94 z"/>
<path transform="translate(0,0)" fill="rgb(255,113,123)" d="M 928.346 990.92 L 929.646 987.525 C 930.831 1007.1 936.542 1022.89 951.48 1036.11 C 965.195 1048.25 980.998 1053.13 999.202 1051.94 C 1001.93 1051.76 1004.58 1051.53 1007.26 1050.99 C 1007.66 1053.27 1007.31 1053.61 1009.09 1055.24 C 1018.82 1056.95 1030.69 1048.05 1038.95 1043.27 L 1041.02 1044.52 C 1027.88 1056.42 1011.29 1061.01 993.852 1060.05 A 71.6122 71.6122 0 0 1 943.09 1035.27 C 932.174 1022.74 927.1 1007.51 928.346 990.92 z"/>
<path transform="translate(0,0)" fill="rgb(99,97,116)" d="M 1189.72 805.801 C 1222.34 773.687 1252.8 722.951 1255.58 676.482 C 1255.67 674.844 1255.34 675.437 1256.05 674.589 C 1257.84 691.046 1253.53 714.659 1249.32 730.462 C 1247.73 739.669 1245.02 749.042 1241.7 757.773 C 1236.45 771.625 1216.99 811.953 1205.95 820.205 L 1203.09 820.518 C 1202.07 818.525 1202.04 819.387 1202.64 817.457 C 1204.52 811.37 1210.2 804.643 1213.65 799.186 C 1223.43 783.688 1243.59 750.982 1245.8 734.309 L 1245.54 734.388 C 1236.2 747.616 1231.26 764.982 1223.37 779.228 C 1216.67 791.326 1205.91 803.133 1200.57 815.358 L 1189.72 805.801 z"/>
<path transform="translate(0,0)" fill="rgb(254,254,254)" d="M 943.586 998.649 C 941.487 987.422 941.425 977.416 945.518 966.575 C 950.472 953.457 960.599 943.425 973.424 937.879 C 987.659 931.724 1005.83 932.837 1020.04 938.696 C 1031.71 943.508 1042.01 952.288 1046.95 964.035 C 1047.03 971.429 1047.7 981.935 1041.79 987.538 C 1041.55 987.767 1041.26 987.934 1040.99 988.132 C 1038.84 987.255 1038.82 987.097 1037.92 985.031 C 1030.27 967.46 1043.25 953.154 1016.75 941.64 C 1010.65 938.991 1003.42 936.994 996.957 939.631 C 982.446 945.554 978.665 973.891 970.459 986.572 C 959.836 989.128 952.636 992.506 943.586 998.649 z"/>
<path transform="translate(0,0)" fill="rgb(232,54,90)" d="M 1115.61 445.889 C 1115.83 445.656 1116.06 445.425 1116.28 445.19 C 1129.72 430.97 1138.83 412.857 1151.19 397.77 C 1160.45 386.479 1172.44 377.778 1183.99 369.008 C 1188 365.964 1193.98 360.172 1198.91 359.345 L 1200.14 360.742 C 1198.4 372.429 1178.38 385.637 1170.2 394.02 C 1165.59 398.753 1161.69 403.757 1157.9 409.166 C 1170.03 400.91 1181.47 391.819 1194.54 385.019 L 1194.29 383.933 L 1195.32 385.69 C 1197.04 384.487 1196.42 385.202 1197.34 383.678 L 1198.34 383.986 C 1194.91 394.185 1169.99 409.391 1161.33 416.999 C 1155.62 422.015 1150.52 427.88 1145.65 433.699 L 1147.11 433.016 C 1158.21 427.788 1168.97 421.198 1179.38 414.723 C 1184.18 411.736 1190.76 405.639 1195.92 404.107 C 1196.06 408.177 1191.15 412.528 1188.5 415.345 C 1184.04 420.102 1179.08 424.864 1175.28 430.174 C 1180.65 425.955 1188.47 419.272 1195.69 419.959 C 1191.94 427.087 1179.97 431.094 1172.76 433.706 C 1167.03 440.403 1161.36 446.852 1156.96 454.535 C 1162.33 451.558 1176.64 439.994 1181.67 441.172 C 1183.74 443.142 1184.38 444.297 1187.47 444 C 1188.41 443.91 1190.03 443.372 1190.97 443.085 L 1191.99 444.08 C 1190.18 447.143 1184.4 448.014 1184.25 451.032 L 1186.56 453.793 C 1183.85 458.462 1170.46 463.88 1165.46 468.031 C 1174.07 467.434 1182.15 466.62 1189.22 472.771 C 1191.28 474.565 1192.95 477.223 1193.17 479.998 C 1193.54 484.873 1189.89 490.659 1186.44 493.784 C 1185.57 494.568 1184.64 495.295 1183.75 496.042 C 1163.43 475.428 1140.07 460.898 1115.61 445.889 z"/>
<path transform="translate(0,0)" fill="rgb(232,54,90)" d="M 970.459 986.572 C 978.665 973.891 982.446 945.554 996.957 939.631 C 1003.42 936.994 1010.65 938.991 1016.75 941.64 C 1043.25 953.154 1030.27 967.46 1037.92 985.031 C 1038.82 987.097 1038.84 987.255 1040.99 988.132 C 1041.26 987.934 1041.55 987.767 1041.79 987.538 C 1047.7 981.935 1047.03 971.429 1046.95 964.035 C 1051.22 969.626 1052.77 976.936 1052.03 983.924 C 1050.55 998.012 1034.83 1014.67 1023.97 1022.81 C 1011.84 1031.91 996.028 1036.78 980.87 1034.75 C 977.044 1034.23 973.971 1033.34 970.997 1030.86 L 970.613 1029.15 C 978.827 1022.94 1002.61 1022.96 1003.51 1008.77 C 1003.72 1005.53 1001.84 1002.74 999.58 1000.63 C 992.33 993.848 979.666 990.239 970.459 986.572 z"/>
<path transform="translate(0,0)" fill="rgb(232,54,90)" d="M 1035.75 1148.44 C 1035.87 1148.43 1035.98 1148.41 1036.1 1148.41 C 1055.01 1148.09 1072.59 1155.62 1086.6 1168.09 C 1103.69 1183.3 1113.16 1203.14 1114.21 1226.01 C 1115.21 1247.59 1108.52 1269.31 1093.76 1285.35 C 1078.46 1301.99 1057.93 1311.11 1035.53 1312.08 C 1015.49 1310.75 997.716 1305.48 982.255 1292.17 C 966.221 1278.38 956.945 1259.55 955.424 1238.49 A 84.6765 84.6765 0 0 1 976.203 1176.63 C 991.344 1159.5 1013.18 1150 1035.75 1148.44 z"/>
<path transform="translate(0,0)" fill="rgb(232,54,90)" d="M 806.521 812.035 C 812.384 811.195 822.782 821.158 827.67 824.747 C 859.676 848.241 895.129 863.864 934.448 870.475 C 1023.26 885.409 1107.08 864.887 1180.41 812.65 C 1187.22 820.47 1193.27 827.604 1197.45 837.154 C 1187.81 851.813 1177.09 864.81 1164.28 876.805 C 1141.47 897.221 1115.2 915.773 1086.39 926.584 C 1072.84 931.669 1059.03 934.801 1045.87 941.034 C 1037.76 935.208 1029.3 929.814 1019.85 926.431 C 996.592 918.108 975.697 924.258 954.267 934.327 C 931.949 929.195 909.476 924.07 888.271 915.235 C 844.609 897.045 799.852 862.035 781.354 817.223 C 790.212 816.687 798.079 814.637 806.521 812.035 z"/>
<path transform="translate(0,0)" fill="rgb(254,254,254)" d="M 1117.64 858.642 C 1119.7 860.254 1121.84 862.421 1122.52 865.062 C 1123.27 867.965 1122.88 870.177 1121.29 872.684 C 1114.47 883.459 1093.41 894.402 1081.26 897.099 C 1080.4 896.825 1078.75 896.335 1078.01 895.904 C 1075.9 894.683 1075.99 893.656 1075.74 891.504 C 1078.78 882.961 1093.74 879.781 1100.86 874.691 C 1106.89 870.382 1112.39 863.92 1117.64 858.642 z"/>
<path transform="translate(0,0)" fill="rgb(254,254,254)" d="M 891.153 869.58 C 907.002 873.771 922.468 878.244 938.631 881.181 C 944.599 882.266 959.836 883.66 964.381 886.229 C 966.392 887.366 966.394 888.482 967.217 890.457 C 967.074 894.045 966.208 896.137 964.57 899.308 C 957.992 901.092 949.628 900.332 942.987 899.155 C 929.462 896.76 899.326 887.033 891.703 875.374 C 890.023 872.804 890.487 872.452 891.153 869.58 z"/>
<path transform="translate(0,0)" fill="rgb(254,254,254)" d="M 800.014 1391.81 C 798.597 1391.83 797.224 1391.76 795.823 1391.53 C 772.773 1387.79 752.641 1365.26 740.206 1347.1 C 725.241 1325.25 713.822 1301.37 702.834 1277.36 C 663.306 1190.96 637.53 1094.04 655.399 998.951 C 667.593 934.067 712.765 847.988 768.223 810.209 C 770.053 815.583 772.02 820.917 773.931 826.263 C 762.444 831.897 747.401 844.805 741.155 856.152 C 739.815 858.585 739.992 859.107 740.56 861.657 L 743.223 862.083 C 752.463 855.204 766.244 839.636 775.612 831.099 C 796.011 873.178 828.926 902.244 867.852 926.891 C 862.688 940.515 844.487 961.949 843.698 974.465 L 844.886 975.56 C 852.708 972.259 868.777 940.627 874.044 931.615 C 894.187 942.082 913.242 951.173 935.189 957.273 C 932.376 967.217 930.671 977.252 929.646 987.525 L 928.346 990.92 C 892.043 1002.1 855.879 1040.38 838.406 1073.19 A 207.947 207.947 0 0 0 817.793 1132.38 C 826.533 1139.82 835.876 1146.96 842.967 1156.06 C 864.066 1183.13 899.829 1260.33 905.135 1294.51 C 908.331 1303.67 904.598 1318.01 900.655 1326.34 C 891.58 1345.51 874.67 1359.48 854.789 1366.36 C 838.222 1372.1 822.39 1373.33 805.559 1367.91 C 806.733 1373.85 809.518 1381.94 805.382 1387.22 C 804.02 1388.96 801.795 1390.52 800.014 1391.81 z"/>
<path transform="translate(0,0)" fill="rgb(36,39,63)" d="M 689.619 1170.17 C 691.069 1170.58 691.921 1171.04 693.198 1171.8 C 695.716 1176.56 696.702 1182.04 695.46 1187.32 C 693.028 1187 691.435 1187.18 689.858 1185 C 687.084 1181.17 688.872 1174.36 689.619 1170.17 z"/>
<path transform="translate(0,0)" fill="rgb(36,39,63)" d="M 698.583 1211.39 C 698.853 1211.49 699.136 1211.56 699.391 1211.69 C 702.153 1213.11 703.802 1217.02 704.84 1219.77 C 706.317 1223.69 707.582 1227.99 705.835 1231.96 C 705.588 1231.85 703.858 1231.08 703.729 1230.99 C 701.02 1229.24 699.023 1225.07 698.016 1222.08 C 696.582 1217.82 696.634 1215.46 698.583 1211.39 z"/>
<path transform="translate(0,0)" fill="rgb(36,39,63)" d="M 801.761 916.39 C 802.038 916.52 802.343 916.602 802.592 916.78 C 803.605 917.504 804.739 918.4 804.826 919.707 C 805.215 925.543 797.027 935.257 793.313 939.576 C 793.131 939.482 792.936 939.409 792.767 939.292 C 791.733 938.582 790.439 937.989 790.379 936.635 C 790.114 930.612 798.138 921.294 801.761 916.39 z"/>
<path transform="translate(0,0)" fill="rgb(36,39,63)" d="M 709.143 1243.55 C 710.257 1243.53 711.392 1243.47 712.502 1243.62 C 715.173 1243.96 718.325 1248.97 719.545 1251.15 C 721.955 1255.45 723.756 1259.63 722.426 1264.5 C 719.936 1264.07 718.529 1263.54 716.717 1261.69 C 712.708 1257.6 709.183 1249.24 709.143 1243.55 z"/>
<path transform="translate(0,0)" fill="rgb(36,39,63)" d="M 725.082 1197.07 C 726.716 1197.3 727.75 1197.64 729.26 1198.24 C 733.376 1204.56 730.945 1218.33 730.361 1225.73 C 728.444 1225.47 727.531 1225.18 725.974 1224.02 C 722.628 1216.09 724.517 1205.51 725.082 1197.07 z"/>
<path transform="translate(0,0)" fill="rgb(36,39,63)" d="M 709.63 1159.39 C 711.422 1159.9 712.523 1160.55 714.024 1161.65 C 717.287 1169.74 714.876 1182.58 712.7 1190.84 C 710.359 1190.22 709.759 1190.34 707.975 1188.58 C 705.992 1179.51 708.441 1168.55 709.63 1159.39 z"/>
<path transform="translate(0,0)" fill="rgb(36,39,63)" d="M 828.542 913.414 C 829.977 914.122 830.967 914.986 832.191 916.001 C 832.798 920.595 807.792 955.359 803.15 961.499 C 801.404 960.584 801.057 960.065 799.923 958.523 C 799.522 949.513 822.239 921.289 828.542 913.414 z"/>
<path transform="translate(0,0)" fill="rgb(36,39,63)" d="M 706.791 949.659 C 708.567 949.777 710.36 950.168 711.639 951.549 C 713.421 953.473 713.729 955.714 713.393 958.204 C 712.288 966.38 704.282 974.778 697.956 979.417 L 695.532 979.127 C 694.264 978.274 692.622 977.373 691.889 975.965 C 690.924 974.112 691.243 971.112 691.624 969.135 C 693.237 960.752 700.177 954.339 706.791 949.659 z"/>
<path transform="translate(0,0)" fill="rgb(36,39,63)" d="M 847.771 922.415 L 849.605 923.634 C 849.891 924.628 850.159 925.307 850.102 926.404 C 849.729 933.583 819.373 976.221 813.84 981.01 C 812.392 979.721 812.208 979.403 811.575 977.565 C 814.509 965.931 839.69 933.74 847.771 922.415 z"/>
<path transform="translate(0,0)" fill="rgb(232,54,90)" d="M 880.86 1339.16 C 873.755 1325.37 865.489 1309.18 863.025 1293.73 C 862.525 1290.59 862.408 1288.57 864.294 1285.97 L 866.61 1286.45 C 876.197 1294.12 887.674 1318.08 890.232 1329.85 C 899.783 1318.78 902.07 1308.52 905.135 1294.51 C 908.331 1303.67 904.598 1318.01 900.655 1326.34 C 891.58 1345.51 874.67 1359.48 854.789 1366.36 C 838.222 1372.1 822.39 1373.33 805.559 1367.91 C 806.733 1373.85 809.518 1381.94 805.382 1387.22 C 804.02 1388.96 801.795 1390.52 800.014 1391.81 C 797.348 1367.93 775.321 1340.72 776.074 1316.08 C 776.154 1313.44 776.671 1312.37 778.463 1310.53 L 780.371 1311.01 C 790.6 1326.15 796.967 1344.86 803.944 1361.72 C 814.272 1363.55 824.541 1364.25 835.017 1364.27 C 830.166 1349.37 817.758 1324.03 821.03 1308.59 L 822.431 1307.83 C 832.479 1314.23 845.029 1348.22 850.076 1359.45 C 863.273 1355.18 871.041 1348.64 880.86 1339.16 z"/>
<path transform="translate(0,0)" fill="rgb(36,39,63)" d="M 702.643 988.314 C 707.688 988.695 712.385 989.33 716.068 993.176 C 718.297 995.504 719.172 998.59 718.918 1001.75 C 718.206 1010.64 712.628 1015.69 706.286 1021.04 C 718.551 1037.21 727.319 1053.19 730.279 1073.44 C 732.554 1089 732.64 1112.93 722.392 1125.87 C 718.258 1131.09 714.737 1132.89 708.221 1133.74 C 705.797 1133.29 703.325 1132.87 700.992 1132.05 C 690.634 1128.4 683.531 1119.3 678.92 1109.72 C 665.117 1081.05 669.034 1056.23 679.196 1027.46 C 680.878 1022.7 678.183 1018.58 677.367 1013.91 C 676.421 1008.48 677.528 1002.93 680.842 998.467 C 685.416 992.305 695.383 989.299 702.643 988.314 z"/>
<path transform="translate(0,0)" fill="rgb(254,254,254)" d="M 1183.75 496.042 C 1186.26 498.519 1188.61 501.126 1190.91 503.802 A 173.245 173.245 0 0 1 1212.21 534.264 C 1222.71 553.555 1239.42 598.39 1243.42 619.764 C 1246.3 635.19 1246.79 651.337 1245.56 666.96 C 1241.48 718.603 1213.94 764.094 1174.87 796.933 C 1121.59 841.716 1039.47 867.92 970.048 861.835 C 908.185 856.413 830.589 825.355 790.036 776.685 A 227.717 227.717 0 0 1 738.421 609.098 C 740.052 592.745 747.059 575.505 746.508 559.309 C 746.043 545.639 743.586 531.624 742.31 517.96 C 738.898 481.427 736.202 444.267 739.744 407.632 C 742.141 382.848 750.482 336.661 771.478 320.266 C 777.857 315.285 785.607 313.295 793.598 314.365 C 807.77 316.262 821.228 324.971 832.694 332.977 C 870.085 359.086 896.587 390.584 924.51 425.972 C 925.265 426.742 925.12 426.778 926.226 427.105 C 931.924 428.791 970.988 425.384 981.396 425.61 C 996.139 425.931 1046.25 430.711 1056.16 427.827 C 1065.39 425.14 1080.86 400.592 1088.22 392.477 C 1108.41 370.218 1135.81 350.533 1162.14 336.109 C 1174.97 329.086 1196.18 316.836 1211.15 321.213 C 1233.94 335.267 1250.15 378.788 1256.15 403.578 C 1259.05 415.572 1266.77 460.67 1260.2 471.535 C 1259.58 472.556 1259.4 472.627 1258.62 473.303 C 1256.57 469.984 1256.98 463.783 1257.11 459.892 C 1258.08 431.343 1237.97 360.088 1217.87 339.319 C 1214.74 336.087 1210.84 333.071 1206.12 333.175 C 1190.8 333.512 1151.63 367.81 1141.54 379.369 C 1126.3 396.82 1113.01 419.517 1105.63 441.489 L 1115.61 445.889 C 1140.07 460.898 1163.43 475.428 1183.75 496.042 z"/>
<path transform="translate(0,0)" fill="rgb(36,39,63)" d="M 902.287 782.344 C 902.501 782.451 902.729 782.534 902.929 782.664 C 904.936 783.971 905.987 784.865 906.246 787.418 C 906.525 790.169 905.577 792.069 903.977 794.16 C 901.293 792.813 900.197 792.651 898.707 789.972 C 898.874 786.784 900.527 784.855 902.287 782.344 z"/>
<path transform="translate(0,0)" fill="rgb(36,39,63)" d="M 1115.2 782.26 C 1115.75 782.353 1116.31 782.399 1116.85 782.538 C 1118.59 782.988 1119.15 783.264 1120.11 784.794 C 1122.16 788.075 1122.03 792.573 1121.29 796.232 L 1117.8 795.343 C 1114.44 791.272 1114.99 787.231 1115.2 782.26 z"/>
<path transform="translate(0,0)" fill="rgb(36,39,63)" d="M 1193.42 576.017 L 1195.55 575.992 L 1196.4 576.873 C 1194.29 581.41 1190.79 583.681 1186.32 585.538 C 1184.23 585.01 1183.85 584.742 1182.28 583.413 L 1182.45 581.87 C 1185.52 578.876 1189.51 577.622 1193.42 576.017 z"/>
<path transform="translate(0,0)" fill="rgb(36,39,63)" d="M 931.501 706.963 C 936.101 706.627 940.567 706.534 944.906 708.35 C 947.904 709.605 948.807 710.975 950.025 713.905 C 949.776 717.233 948.875 718.611 946.936 721.149 C 944.529 722.068 942.214 722.817 939.625 723.025 C 936.296 723.292 934.048 722.27 931.58 720.044 C 929.025 715.056 929.869 712.107 931.501 706.963 z"/>
<path transform="translate(0,0)" fill="rgb(36,39,63)" d="M 1055.41 709.07 C 1057.08 709.173 1058.86 709.243 1060.49 709.654 C 1063.07 710.307 1064.58 711.793 1065.84 714.071 C 1065.99 715.486 1066.08 716.673 1065.57 718.039 C 1063.59 723.295 1059.64 724.598 1054.8 726.586 C 1052.99 726.426 1050.76 726.386 1049.04 725.822 C 1046.4 724.957 1045.37 723.638 1044.13 721.282 C 1044.04 719.404 1044.02 718.132 1044.94 716.405 C 1047.22 712.149 1051.15 710.753 1055.41 709.07 z"/>
<path transform="translate(0,0)" fill="rgb(36,39,63)" d="M 905.189 516.58 C 907.74 516.654 910.066 516.89 912.421 517.95 C 921.044 521.833 940.435 535.68 942.784 545.112 C 943.764 549.046 942.637 551.395 940.602 554.576 C 938.331 554.828 935.786 555.23 933.553 554.54 C 926.795 552.451 906.182 530.137 903.836 523.209 C 902.746 519.991 903.631 519.388 905.189 516.58 z"/>
<path transform="translate(0,0)" fill="rgb(36,39,63)" d="M 1088.48 510.741 C 1091.2 511.286 1094.3 511.844 1096.31 513.968 C 1097.94 515.693 1098.27 517.532 1097.96 519.809 C 1096.8 528.31 1072.41 550.763 1065.19 554.894 C 1062.43 554.621 1059.63 554.353 1057.44 552.415 C 1055.77 550.934 1055.34 549.025 1055.68 546.881 C 1057.34 536.266 1080.46 517.341 1088.48 510.741 z"/>
<path transform="translate(0,0)" fill="rgb(232,54,90)" d="M 864.679 731.415 C 866.94 731.212 868.611 731.012 870.856 731.519 C 872.696 731.935 872.463 732.247 873.411 733.689 C 873.296 734.076 873.22 734.477 873.066 734.85 C 868.777 745.245 835.482 756.29 824.313 760.973 C 822.524 761.675 821.977 761.642 820.123 761.516 C 817.755 759.728 816.216 757.985 815.906 754.89 C 815.564 751.482 816.816 748.588 818.909 745.978 C 828.095 734.522 851.144 732.944 864.679 731.415 z"/>
<path transform="translate(0,0)" fill="rgb(36,39,63)" d="M 1032.26 792.676 C 1034.16 794.679 1034.44 795.522 1034.23 798.322 C 1033.63 806.333 1026.98 814.625 1020.92 819.386 A 34.9703 34.9703 0 0 1 993.929 826.424 C 982.201 824.638 973.495 817.134 966.69 807.891 C 966.03 806.142 965.297 804.33 964.887 802.505 C 964.287 799.831 963.876 797.744 965.215 795.354 C 973.335 797.497 979.404 812.586 998.676 812.575 C 1012.94 812.566 1023 802.113 1032.26 792.676 z"/>
<path transform="translate(0,0)" fill="rgb(232,54,90)" d="M 1112.04 732.45 C 1126.02 732.995 1163.1 738.078 1175.09 744.354 C 1178.22 745.994 1179.87 747.607 1180.97 751.066 C 1180.4 754.398 1180.04 754.64 1177.67 757.112 C 1167.46 760.181 1154.46 758.454 1144.07 756.775 C 1133.79 755.114 1118.1 752.06 1112.08 742.715 C 1109.74 739.094 1111.08 736.279 1112.04 732.45 z"/>
<path transform="translate(0,0)" fill="rgb(232,54,90)" d="M 808.433 699.336 C 828.197 697.782 854.318 699.939 872.578 708.109 C 875.095 709.235 876.403 709.961 877.464 712.508 C 877.292 712.767 877.153 713.05 876.95 713.285 C 873.062 717.784 859.457 719.069 853.775 720.092 C 835.606 723.039 815.875 725.17 797.587 722.652 C 792.173 721.907 786.999 721.25 783.522 716.679 C 783.262 713.315 783.606 711.772 785.698 709.08 C 791.809 701.217 799.213 700.527 808.433 699.336 z"/>
<path transform="translate(0,0)" fill="rgb(232,54,90)" d="M 795.599 663.169 A 218.633 218.633 0 0 1 826.016 663.318 C 841.53 664.535 867.825 669.463 877.719 682.663 C 879.44 684.959 879.59 686.314 879.321 689.078 C 877.512 691.008 876.304 691.237 873.75 691.753 A 1255.44 1255.44 0 0 1 843.119 689.091 C 832.478 687.994 793.342 685.104 788.021 676.288 C 787.371 675.21 786.836 673.632 787.159 672.366 C 788.202 668.284 792.087 665.128 795.599 663.169 z"/>
<path transform="translate(0,0)" fill="rgb(232,54,90)" d="M 1157.48 704.419 C 1168.76 703.585 1188.57 702.91 1197.37 710.958 C 1200.09 713.437 1201.97 716.906 1201.62 720.675 C 1201.28 724.333 1198.87 727.314 1195.96 729.339 C 1186.51 735.904 1174.11 733.385 1163.58 731.74 C 1151.8 729.802 1123.49 724.559 1115.49 716.675 C 1115.15 715.26 1114.55 714.662 1115.54 713.382 C 1121.42 705.778 1147.75 705.187 1157.48 704.419 z"/>
<path transform="translate(0,0)" fill="rgb(232,54,90)" d="M 1162.84 666.404 C 1174.17 665.585 1189.24 665.492 1198.75 672.523 C 1201.74 674.733 1204.7 678.268 1204.81 682.179 C 1204.9 685.379 1204.02 687.902 1201.67 690.141 C 1195.49 696.03 1161.5 694.033 1151.81 694.158 C 1142.6 694.945 1121.2 699.039 1113.74 693.984 C 1111.56 692.506 1109.96 690.801 1109.58 688.091 C 1109.22 685.512 1110.41 683.583 1112.06 681.739 C 1119 674.011 1152.65 667.309 1162.84 666.404 z"/>
<path transform="translate(0,0)" fill="rgb(232,54,90)" d="M 943.365 475.159 C 942.496 473.258 941.787 471.602 941.339 469.541 C 940.396 465.21 942.464 460.592 945.044 457.22 C 953.783 445.795 972.827 438.874 986.752 437.163 C 1003.73 435.076 1025.88 436.653 1039.61 447.945 C 1047.87 454.738 1049.72 461.653 1050.48 471.78 C 1036.91 469.749 1023.88 466.156 1010.75 462.24 C 998.538 459.749 990.61 458.926 978.862 463.749 C 966.771 469.335 957.047 474.402 943.365 475.159 z"/>
<path transform="translate(0,0)" fill="rgb(36,39,63)" d="M 978.862 463.749 C 990.61 458.926 998.538 459.749 1010.75 462.24 C 1023.88 466.156 1036.91 469.749 1050.48 471.78 C 1047.1 486.072 1034.23 499.403 1021.9 506.919 C 1011.23 513.431 999.164 516.386 986.82 513.539 C 970.863 509.86 956.07 497.669 947.728 483.76 C 946.055 480.971 944.598 478.166 943.365 475.159 C 957.047 474.402 966.771 469.335 978.862 463.749 z"/>
<path transform="translate(0,0)" fill="rgb(36,39,63)" d="M 980.516 663.348 C 993.707 661.326 1014.36 661.164 1026.68 666.514 C 1031.11 668.439 1034.19 670.656 1035.99 675.198 C 1036.04 677.215 1036.01 678.427 1035.07 680.278 C 1030.65 688.983 1012.74 693.342 1004.06 695.925 C 1003.92 699.768 1003.74 703.689 1003.93 707.53 C 1004.52 719.465 1010.81 730.144 1019.5 738.054 C 1035.25 752.397 1056.37 755.127 1074.18 742.843 C 1079.02 739.506 1085.1 731.387 1090.8 731.076 C 1092.96 732.799 1093.65 733.874 1094.64 736.448 C 1094.62 739.58 1094.08 741.469 1092.18 743.929 C 1084.61 753.75 1070.11 761.067 1058.03 762.62 C 1040.06 764.927 1023.69 759.78 1009.6 748.664 C 1005.09 744.786 1002.19 739.726 999.136 734.717 C 991.683 746.396 982.221 755.037 968.723 759.268 C 954.077 763.858 938.757 763.403 924.998 756.082 C 917.663 752.18 909.001 746.24 906.978 737.734 C 906.338 735.044 906.429 733.807 907.915 731.533 C 913.475 730.436 933.364 747.211 948.271 748.527 C 958.978 749.472 968.767 746.262 976.746 739.062 C 989.543 727.517 991.489 714.23 992.148 697.982 C 985.019 694.343 977.128 692.652 969.932 689.195 C 965.37 687.004 960.583 683.726 959.248 678.524 C 958.59 675.963 958.796 672.763 960.216 670.484 C 963.948 664.494 974.261 664.18 980.516 663.348 z"/>
<path transform="translate(0,0)" fill="rgb(36,39,63)" d="M 1186.09 574.857 L 1181.64 576.315 C 1177.54 581.441 1180.08 580.815 1180.54 585.937 C 1180.61 586.658 1178.49 590.525 1178.1 591.414 C 1182.24 592.992 1186.81 588.309 1191.2 589.985 L 1190.82 591.828 C 1187.46 595.064 1181.05 595.627 1176.6 596.59 L 1175.54 598.32 L 1176.3 599.442 L 1182.31 600.504 L 1183.06 602.387 C 1181.97 604.622 1181.78 604.575 1179.52 605.683 C 1176.61 605.464 1174.24 605.134 1171.47 606.29 L 1172.06 607.286 C 1174.57 607.548 1176.94 607.455 1178.87 609.282 L 1178.36 611.375 C 1175.41 613.68 1174.93 613.338 1171.32 613.317 C 1173.05 614.106 1173.24 614.441 1174.31 615.927 L 1173.58 617.404 C 1169.93 616.196 1165.52 614.128 1161.69 614.142 C 1163.9 615.093 1166.4 616.025 1168.45 617.284 C 1170.42 618.493 1170.85 619.92 1171.36 622.031 L 1169.92 623.549 C 1167.57 623.983 1166.32 623.572 1164.16 622.75 C 1161.25 621.641 1158.15 619.931 1155.18 621.199 L 1155.57 622.063 C 1158.12 622.727 1160.63 623.4 1163.09 624.357 C 1165.48 625.285 1164.67 624.497 1165.67 626.745 C 1161.66 633.027 1155.5 636.719 1148.79 639.652 C 1126.74 649.294 1106.61 644.556 1083.93 641.274 C 1075.93 640.116 1066.77 639.766 1059.29 636.612 C 1056.89 635.599 1053.22 633.681 1052.39 631.006 C 1050.61 625.287 1054.42 616.878 1056.7 611.563 C 1066.33 589.051 1084.6 565.181 1108 555.896 C 1125.38 549.004 1149.67 550.629 1166.55 558.35 C 1173.84 561.684 1177.13 565.53 1179.75 572.899 L 1180.25 574.331 C 1182.14 571.45 1184.49 566.713 1187.97 565.728 C 1189.1 565.406 1189.89 565.455 1191.02 565.437 C 1193.05 566.95 1192.86 567.028 1193.37 569.549 C 1192.31 571.831 1191.43 573.045 1189 574.037 C 1187.87 574.495 1187.22 574.603 1186.09 574.857 z"/>
<path transform="translate(0,0)" fill="rgb(254,254,254)" d="M 1152.11 563.03 C 1156.33 563.062 1161.61 563.623 1165.56 565.249 C 1168.88 566.618 1171.42 569.754 1172.48 573.131 C 1175.23 581.91 1170.74 592.96 1166.52 600.655 C 1165.1 602.778 1164.21 603.808 1161.96 605.04 C 1161.61 604.71 1161.07 604.507 1160.92 604.052 C 1159.63 600.177 1161.95 592.643 1161.38 588.078 C 1160.24 579.056 1155.22 571.398 1152.11 563.03 z"/>
<path transform="translate(0,0)" fill="rgb(254,254,254)" d="M 1080.34 590.624 C 1083.28 602.316 1086.62 613.966 1094.12 623.67 C 1097.14 627.581 1100.9 631.022 1103.16 635.443 C 1100.3 636.366 1097.73 635.638 1094.8 635.238 C 1092.69 634.563 1090.67 633.802 1088.64 632.9 C 1082.4 630.122 1075 626.708 1072.65 619.701 C 1069.62 610.611 1076.35 598.662 1080.34 590.624 z"/>
<path transform="translate(0,0)" fill="rgb(36,39,63)" d="M 806.606 560.362 C 832.839 550.49 860.348 540.292 887.531 552.816 C 915.568 565.733 934.088 594.128 944.517 622.229 C 945.485 624.835 945.309 626.606 944.388 629.229 C 937.132 637.92 904.405 644.437 892.646 645.433 C 873.765 647.033 858.701 643.698 841.361 636.357 C 838.126 634.988 832.552 633.058 830.19 630.539 C 829.976 630.311 829.85 630.015 829.679 629.753 C 831.195 627.943 831.889 628.153 834.159 627.955 C 844.814 627.029 855.846 630.332 866.405 629.092 C 862.541 627.037 857.532 627.979 854.37 626.213 C 846.695 625.552 825.743 627.717 820.554 622.574 L 820.872 621.33 C 829.449 620.237 838.406 621.501 847.069 621.398 L 846.75 620.612 C 838.238 619.25 829.717 619.438 821.345 617.093 C 816.255 615.667 815.102 614.739 811.242 610.986 C 817.629 610.943 824.995 612.62 831.17 611.279 C 824.674 607.339 813.538 606.992 806.174 606.056 L 805.783 605.202 C 814.48 602.722 821.971 602.501 830.931 602.438 C 822.749 597.747 805.82 597.508 800.391 589.926 C 799.422 588.575 799.791 588.791 800.12 586.96 C 804.683 586.392 811.328 590.462 816.13 591.394 L 817.739 590.412 C 810.69 585.483 801.945 584.653 795.211 579.426 L 793.507 577.636 C 792.818 573.468 793.121 569.408 794.663 565.491 C 797.449 562.378 802.69 561.533 806.606 560.362 z"/>
<path transform="translate(0,0)" fill="rgb(254,254,254)" d="M 818.857 588.233 C 818.92 587.756 819.005 587.281 819.046 586.801 C 819.503 581.469 808.383 572.733 813.621 568.238 C 819.136 563.505 832.234 562.249 839.426 561.463 C 834.931 572.019 831.505 581.714 828.673 592.798 C 826.147 593.342 823.811 592.784 821.516 591.415 C 820.26 590.666 819.876 590.21 818.906 589.276 L 818.857 588.233 z"/>
<path transform="translate(0,0)" fill="rgb(254,254,254)" d="M 907.376 588.593 C 911.188 592.135 914.905 597.973 917.238 602.636 C 920.196 608.549 924.601 619.364 921.429 625.954 C 918.285 632.485 905.584 635.121 899.264 637.054 C 894.037 637.98 889.276 638.545 883.943 638.499 C 896.988 620.114 903.829 611.927 907.376 588.593 z"/>
<path transform="translate(0,0)" fill="rgb(36,39,63)" d="M 759.867 554.155 C 756.8 546.376 754.23 538.034 752.101 529.949 C 739.807 483.265 739.821 381.661 765.061 339.827 C 770.447 330.899 775.712 327.096 785.62 324.564 C 788.877 325.449 792.22 326.328 795.266 327.805 C 831.221 345.245 867.977 404.978 882.093 442.65 L 867.264 450.611 C 843.604 466.446 820.506 480.987 800.522 501.598 C 794.181 509.617 786.98 516.872 780.728 524.957 C 773.405 534.427 767.305 544.76 759.867 554.155 z"/>
<path transform="translate(0,0)" fill="rgb(232,54,90)" d="M 803.615 384.002 C 797.016 378.682 781.225 369.599 780.073 360.555 C 779.876 359.005 779.97 358.737 780.111 357.339 C 781.223 356.251 781.331 355.654 783.019 355.604 C 794.162 355.274 811.073 374.353 818.166 381.911 C 837.685 402.711 854.532 424.971 867.264 450.611 C 843.604 466.446 820.506 480.987 800.522 501.598 C 798.395 496.451 797.055 491.466 795.8 486.061 C 797.409 480.777 799.832 476.504 802.617 471.776 C 796.695 466.92 795.587 464.196 794.114 456.68 C 800.569 459.063 813.812 465.155 820.402 462.781 C 817.029 456.533 799.956 450.819 793.239 446.696 C 796.252 443.009 798.845 440.009 803.772 439.255 C 813.944 437.699 833.449 444.601 841.701 450.876 C 842.076 451.162 842.443 451.459 842.815 451.75 L 843.965 451.446 L 843.946 449.925 C 838.348 441.099 814.842 430.179 805.176 423.727 C 801.607 421.345 796.777 418.678 795.91 414.279 L 797.246 413.275 C 810.134 412.226 836.269 431.066 846.704 438.441 C 834.814 421.686 814.163 411.001 797.392 399.545 C 798.524 396.223 799.429 392.372 801.754 389.702 C 808.291 395.362 814.72 400.932 821.935 405.738 C 817.158 396.672 811.108 390.857 803.615 384.002 z"/>
</svg>