<svg version="1.1" xmlns="http://www.w3.org/2000/svg" style="display: block;" viewBox="0 0 2048 2048" width="1024" height="1024">
<path transform="translate(0,0)" fill="rgb(32,32,34)" d="M 0 0 L 363.129 0 L 552.11 0 L 554.699 0 L 1487.81 0 L 2046.32 0 L 2048 0 L 2048 297.764 L 2048 549.837 L 2048 776.538 L 2048 1269.46 L 2048 1359.11 L 2048 1868.29 L 2048 1986.83 L 2048 2048 L 2045.86 2048 L 0 2048 L 0 1987.41 L 0 1984.19 L 0 1871.88 L 0 1868.22 L 0 1625.7 L 0 1622.14 L 0 1360.02 L 0 1357.23 L 0 1269.35 L 0 1265.89 L 0 1015.69 L 0 1012.65 L 0 775.67 L 0 772.6 L 0 552.97 L 0 549.944 L 0 296.02 L 0 1.35281 L 0 0 z"/>
<path transform="translate(0,0)" fill="rgb(229,119,63)" d="M 1025.04 633.946 L 1050.92 633.843 L 1051.03 695.273 C 1042.24 693.942 1033.73 694.054 1024.87 694.268 L 1025.04 633.946 z"/>
<path transform="translate(0,0)" fill="rgb(238,208,89)" d="M 1212.17 97.276 C 1214.43 97.1021 1216.66 97.0573 1218.93 97.0965 C 1232.14 97.3251 1245.25 103.898 1254.15 113.457 C 1260.47 120.243 1265.95 129.701 1267.43 138.944 C 1270.2 156.171 1266.94 178.829 1266.19 196.494 A 9193.12 9193.12 0 0 1 1260.61 321.376 C 1258.38 316.576 1254.88 310.62 1253.79 305.52 C 1251.45 294.563 1253.51 280.735 1253.96 269.462 L 1256.93 191.036 C 1257.52 175.772 1259.74 158.56 1257.36 143.508 C 1255.4 131.17 1249.02 122.355 1239.16 115.103 C 1232.85 111.918 1226.13 109.463 1219.01 109.152 C 1211.42 108.819 1202.94 110.825 1196.48 114.863 C 1182.75 123.45 1170.54 137.449 1158.78 148.628 L 1090.15 214.03 L 1076.17 214.075 C 1082.29 208.145 1087.9 201.668 1093.95 195.663 A 6344.83 6344.83 0 0 1 1152.13 139.576 C 1164.2 128.066 1176.56 114.641 1190.62 105.598 C 1197.54 101.151 1204.18 98.9258 1212.17 97.276 z"/>
<path transform="translate(0,0)" fill="rgb(238,208,89)" d="M 850.055 98.2659 A 146.218 146.218 0 0 1 856.963 97.9004 C 865.871 97.6918 874.969 100.763 882.53 105.397 C 895.422 113.297 906.749 125.8 917.949 135.942 A 3014.4 3014.4 0 0 1 1001.76 214.006 L 985.548 214.34 C 970.833 198.576 953.904 184.601 938.057 169.967 C 923.611 156.627 890.155 121.17 874.207 113.826 C 861.971 108.19 849.825 110.085 837.72 114.601 C 827.434 120.2 820.882 129.572 817.89 140.818 C 812.858 159.734 820.533 246.637 822.578 271.136 C 823.724 284.859 826.713 300.765 824.4 314.326 C 823.442 319.941 819.603 326.093 817.091 331.207 C 814.809 318.171 814.504 304.396 813.479 291.17 A 3585.56 3585.56 0 0 1 807.994 210.7 C 806.702 189.345 802.766 165.882 804.774 144.616 C 805.515 136.767 808.635 129.141 812.903 122.542 C 821.651 109.016 834.636 101.565 850.055 98.2659 z"/>
<path transform="translate(0,0)" fill="rgb(229,119,63)" d="M 1128.06 219.818 C 1140.18 222.701 1151.93 226.465 1163.73 230.417 C 1152.59 247.815 1143.52 266.435 1132.38 283.8 C 1121.47 300.802 1108.91 319.401 1087.99 323.973 C 1078.46 324.174 1067.4 324.6 1059.38 318.555 C 1055.44 315.588 1052.39 311.141 1052.04 306.131 C 1050.63 286.142 1093.84 259.183 1107.68 245.641 C 1115.42 238.071 1120.99 228.069 1128.06 219.818 z"/>
<path transform="translate(0,0)" fill="rgb(229,119,63)" d="M 941.36 222.155 C 943.155 221.945 943.53 222.025 945.16 222.576 C 950.89 229.747 956.602 237.107 963.346 243.361 C 980.691 259.445 1017.92 282.056 1020.96 306.255 C 1021.45 310.166 1020.85 313.938 1018.31 317.056 C 1013.27 323.235 1003.54 324.362 996.139 325.146 C 985.977 325.104 977.112 322.81 968.383 317.525 C 942.953 302.127 920.919 257.735 914.226 229.718 C 923.199 226.74 932.183 224.379 941.36 222.155 z"/>
<path transform="translate(0,0)" fill="rgb(229,119,63)" d="M 1029.19 697.379 C 1040.68 696.456 1051.78 696.674 1062.18 702.376 C 1073.4 708.524 1080.94 719.378 1084.18 731.621 C 1087.73 745.015 1086.1 759.228 1078.79 771.08 C 1070.9 783.862 1059.03 790.412 1044.87 793.841 C 1033.66 794.96 1023.68 794.187 1013.68 788.418 A 50.0842 50.0842 0 0 1 989.943 756.792 C 986.863 743.605 989.769 729.734 997.193 718.494 A 48.9283 48.9283 0 0 1 1029.19 697.379 z"/>
<path transform="translate(0,0)" fill="rgb(33,45,77)" d="M 0 1269.35 C 77.8358 1279.61 128.42 1305.54 187.09 1357.19 C 124.728 1356.98 62.3569 1357.96 0 1357.23 L 0 1269.35 z"/>
<path transform="translate(0,0)" fill="rgb(103,191,113)" d="M 1024.56 946.358 A 145.435 145.435 0 0 1 1076.81 950.928 A 135.719 135.719 0 0 1 1157.82 1015.29 C 1123.69 1014.81 1089.52 1015.14 1055.38 1015.15 A 7839.73 7839.73 0 0 0 922.033 1016.16 C 927.068 1008.94 932.07 1001.64 937.472 994.695 C 958.556 967.589 990.846 950.793 1024.56 946.358 z"/>
<path transform="translate(0,0)" fill="rgb(103,191,113)" d="M 929.776 1018.52 C 960.092 1017.47 990.561 1017.98 1020.9 1017.97 L 1159.63 1018.02 C 1154.91 1035.65 1143.66 1046.61 1131.07 1059.18 C 1127.2 1062.55 1123.32 1065.9 1119.18 1068.94 C 1113.54 1073.07 1107.22 1077.27 1100.25 1078.57 C 1090.8 1080.34 989.735 1080.08 980.164 1078.2 C 962.898 1074.83 935.553 1048.6 926.418 1033.87 C 923.9 1029.82 921.458 1025.92 922.522 1021.02 C 924.965 1018.49 926.363 1018.91 929.776 1018.52 z"/>
<path transform="translate(0,0)" fill="rgb(33,45,77)" d="M 1239.79 555.648 C 1247.41 560.998 1259.13 592.575 1261.82 601.937 C 1259.95 606.389 1257.9 610.166 1254.85 613.932 C 1248.4 621.895 1239.92 628.471 1231.74 634.538 C 1187.31 667.479 1127.86 686.19 1073.17 692.34 C 1067 693.49 1060.36 693.72 1054.09 694.339 L 1053.98 633.819 C 1121.61 629.397 1191.81 605.017 1239.79 555.648 z"/>
<path transform="translate(0,0)" fill="rgb(33,45,77)" d="M 837.638 562.56 C 845.354 564.477 860.518 580.741 868.143 585.779 C 914.382 616.334 967.859 629.932 1022.52 634.109 A 4036.37 4036.37 0 0 0 1022.01 693.198 L 1001.75 692.946 C 934.237 684.077 880.622 666.246 825.636 625.149 C 822.287 614.005 818.306 602.718 816.182 591.273 C 822.026 581.584 829.712 570.617 837.638 562.56 z"/>
<path transform="translate(0,0)" fill="rgb(33,45,77)" d="M 1214.08 113.387 C 1216.01 113.182 1217.9 112.998 1219.84 113.064 A 36.0289 36.0289 0 0 1 1245.07 124.947 C 1249.61 129.925 1253.08 136.293 1254.31 142.956 C 1257.24 158.876 1254.1 179.855 1253.52 196.305 L 1249.96 298.768 C 1236.3 274.285 1217.17 256.222 1193.99 240.835 C 1164.1 222.727 1128.95 214.876 1094.28 214.021 L 1156.45 155.458 C 1169.57 142.985 1183.15 127.302 1198.63 117.881 C 1203.84 114.712 1208.11 113.941 1214.08 113.387 z"/>
<path transform="translate(0,0)" fill="rgb(33,45,77)" d="M 852.456 113.184 C 853.651 113.179 854.812 113.192 856.004 113.282 C 864.352 113.908 872.659 115.93 879.717 120.638 C 896.795 132.032 914.442 152.312 929.714 166.575 C 946.411 182.167 965.326 196.655 980.24 213.927 C 945.982 216.024 913.915 222.447 884.81 241.33 C 860.386 258.743 841.68 278.954 828.226 305.881 C 826.542 269.526 822.973 233.089 821.011 196.694 C 820.185 181.384 818.368 164.627 819.841 149.355 C 820.503 142.496 822.105 135.199 825.927 129.382 C 832.18 119.865 841.818 115.659 852.456 113.184 z"/>
<path transform="translate(0,0)" fill="rgb(238,208,89)" d="M 1306.44 688.467 C 1313.55 694.092 1331.7 752.583 1334.58 764.497 C 1302.71 865.872 1240.98 944.836 1151.35 1001.37 L 1145.27 992.605 C 1134.42 979.055 1120.25 969.058 1105.7 959.878 A 386.173 386.173 0 0 0 1144.58 936.935 A 386.041 386.041 0 0 0 1306.44 688.467 z"/>
<path transform="translate(0,0)" fill="rgb(238,208,89)" d="M 682.598 1251.43 C 699.966 1250.72 717.395 1250.94 734.776 1250.92 C 762.794 1250.89 789.406 1250.75 817.16 1255.59 C 812.731 1258.97 808.293 1262.32 804.522 1266.45 C 781.897 1291.2 781.539 1325.35 783.137 1356.89 L 741.5 1356.85 L 607.337 1357.02 C 606.1 1350.88 605.192 1344.56 604.853 1338.3 C 603.602 1315.15 610.08 1292.99 625.887 1275.67 C 641.834 1258.19 659.503 1252.6 682.598 1251.43 z"/>
<path transform="translate(0,0)" fill="rgb(238,208,89)" d="M 765.066 684.479 C 770.712 696.332 775.938 719.219 780.459 732.78 A 386.465 386.465 0 0 0 975.686 959.352 C 960.625 968.146 947.851 978.224 936.621 991.571 C 933.815 995.222 931.34 999.207 928.753 1003.02 C 911.97 994.879 895.579 982.83 880.914 971.322 C 829.093 930.652 790.975 882.279 762.6 822.898 A 359.499 359.499 0 0 1 748.125 788.331 C 745.181 780.135 742.807 770.648 738.745 762.979 C 738.434 762.392 738.11 761.812 737.792 761.228 C 744.207 735.563 754.376 708.718 765.066 684.479 z"/>
<path transform="translate(0,0)" fill="rgb(238,208,89)" d="M 891.672 1232.41 C 908.103 1231.32 924.637 1232.29 940.635 1236.31 C 962.8 1241.88 982.871 1252.2 994.813 1272.34 C 1010.2 1298.3 1009.87 1328.5 1002.64 1356.96 L 943.98 1356.87 C 944.058 1338.56 946.528 1316.38 942.698 1298.63 L 942.044 1298.34 C 939.965 1317.42 941.126 1337.57 941.109 1356.81 C 924.426 1356.63 907.73 1356.78 891.046 1356.8 L 890.901 1308.75 C 890.909 1308.4 890.927 1308.05 890.923 1307.7 C 890.904 1305.81 890.965 1301.14 889.68 1299.84 C 885.803 1307.63 888.062 1345.66 888.16 1356.86 A 4204.16 4204.16 0 0 0 841.613 1356.93 C 841.651 1348.29 842.982 1302.2 840.051 1297.68 C 836.35 1308.8 838.653 1344.03 838.668 1356.91 L 785.661 1356.96 C 783.771 1326.64 784.331 1293.83 805.359 1269.6 C 826.98 1244.68 859.766 1234.49 891.672 1232.41 z"/>
<path transform="translate(0,0)" fill="rgb(238,208,89)" d="M 1181.71 1230.41 C 1193.24 1229.03 1206.08 1230.32 1217.5 1232.18 C 1245.31 1236.72 1270.99 1247.3 1287.77 1270.83 C 1306.29 1296.79 1309.44 1326.4 1304.33 1357.04 L 1256.71 1357.14 C 1256.89 1338.52 1258.35 1318.64 1256.38 1300.19 C 1251.68 1309.16 1254.04 1345.07 1254.03 1357.12 L 1205.56 1357.14 A 1947.68 1947.68 0 0 0 1205.5 1299.46 L 1204.1 1299.69 C 1201.52 1303.39 1202.96 1349.26 1202.99 1357.12 L 1152.26 1357.03 C 1152.27 1347.59 1154.31 1307.6 1150.43 1301.75 C 1147.85 1310.23 1149.91 1345.5 1149.98 1356.95 L 1082.68 1357.02 C 1081.48 1349.34 1080.11 1341.62 1079.38 1333.89 C 1077.07 1309.48 1081.58 1283.72 1097.57 1264.45 C 1117.58 1240.34 1151.99 1232.97 1181.71 1230.41 z"/>
<path transform="translate(0,0)" fill="rgb(103,191,113)" d="M 980.622 1081.69 C 1019.32 1082.55 1058.29 1082.17 1096.99 1081.64 C 1097 1141.21 1097.68 1200.83 1097.07 1260.39 C 1077.82 1287.4 1073.58 1310.94 1077.96 1343.8 L 1080.32 1356.99 L 1005.24 1356.96 C 1008.35 1343.72 1010.36 1330.28 1009.77 1316.64 C 1008.66 1290.87 999.553 1268.64 980.468 1251.21 A 11441.7 11441.7 0 0 0 980.622 1081.69 z"/>
<path transform="translate(0,0)" fill="rgb(229,119,63)" d="M 1335.54 769.262 C 1338.71 775.657 1339.84 785.108 1341.45 792.182 C 1352.11 838.906 1356.2 884.199 1356.32 932.053 C 1352.02 930.298 1347.9 928.234 1343.75 926.158 C 1301.61 1016.17 1206.97 1091.84 1114.74 1126.53 L 1099.95 1131.37 L 1099.79 1082.3 C 1103.6 1080.64 1107.36 1078.93 1110.96 1076.85 C 1132.19 1064.55 1155.68 1042.36 1162.11 1018.1 C 1159.73 1012.81 1156.1 1007.66 1153.07 1002.7 C 1172.43 991.834 1190.59 978.066 1207.46 963.669 C 1268.73 911.387 1309.89 845.179 1335.54 769.262 z"/>
<path transform="translate(0,0)" fill="rgb(229,119,63)" d="M 737.01 765.596 C 741.7 772.044 746.028 789.919 749.295 798.474 A 418.657 418.657 0 0 0 761.511 826.919 C 798.006 903.52 853.89 962.501 927.098 1005.03 C 924.958 1007.34 922.867 1009.89 921.393 1012.68 C 919.133 1016.97 919.492 1022.58 920.818 1027.1 C 927.522 1049.92 958.399 1070.08 977.967 1081.35 L 977.988 1129.6 L 968.251 1126 A 501.468 501.468 0 0 1 961.999 1123.75 A 455.335 455.335 0 0 1 752.995 967.928 C 740.39 951.066 727.403 932.268 718.709 913.074 C 707.208 887.683 726.895 792.61 737.01 765.596 z"/>
<path transform="translate(0,0)" fill="rgb(238,208,89)" d="M 1324.36 966.736 C 1326.55 976.637 1276.32 1214.89 1269.75 1248.01 C 1257.82 1240.86 1244.99 1235.9 1231.53 1232.46 C 1192.43 1222.47 1146.98 1227.16 1112.02 1247.85 C 1107.74 1250.7 1103.95 1254.14 1100.08 1257.51 C 1099.45 1216.32 1099.96 1175.01 1099.91 1133.8 C 1167.99 1114.1 1238.12 1065.01 1286.4 1013.73 C 1300.21 999.065 1312.48 982.984 1324.36 966.736 z"/>
<path transform="translate(0,0)" fill="rgb(238,208,89)" d="M 714.819 910.605 C 737.536 954.949 766.164 992.703 802.268 1026.97 C 855.002 1077.02 909.955 1107.61 978.044 1132.33 L 977.903 1249.75 C 972.766 1246.5 967.531 1243.76 962.087 1241.07 C 925.905 1226.62 880.527 1224.29 844.313 1240.07 C 835.224 1244.02 823.633 1252.21 813.625 1252.06 C 811.264 1249.13 792.684 1167.67 789.098 1154.94 A 1319.4 1319.4 0 0 0 752.631 1042.92 C 740.783 1011.93 723.116 974.053 716.02 942.384 C 713.728 932.157 714.257 921.014 714.819 910.605 z"/>
<path transform="translate(0,0)" fill="rgb(33,45,77)" d="M 0 552.97 C 20.1918 556.109 40.5149 559.099 60.2987 564.327 C 135.673 584.246 203.248 627.09 259.433 680.326 A 478.731 478.731 0 0 0 102.838 758.907 C 90.8359 768.112 80.2152 778.623 68.5194 788.08 C 45.8759 781.86 23.3238 775.704 0 772.6 L 0 552.97 z"/>
<path transform="translate(0,0)" fill="rgb(33,45,77)" d="M 0 775.67 C 92.851 790.251 193.888 840.182 258.312 909.472 C 197.814 925.263 143.076 953.121 95.5728 993.926 C 84.5325 1003.41 72.5633 1013.93 64.0756 1025.73 C 42.9649 1019.74 21.7383 1015.61 0 1012.65 L 0 775.67 z"/>
<path transform="translate(0,0)" fill="rgb(33,45,77)" d="M 0 1015.69 C 21.542 1018.92 43.1396 1022.61 64.1246 1028.56 C 140.026 1050.06 209.874 1095.76 262.472 1154.13 C 178.047 1177.38 112.348 1214.66 48.7165 1275.07 C 32.7689 1270.37 16.3744 1268.42 0 1265.89 L 0 1015.69 z"/>
<path transform="translate(0,0)" fill="rgb(238,208,89)" d="M 708.464 934.869 C 710.712 934.815 709.588 934.584 711.795 935.742 C 714.965 944.097 715.264 953.429 718.482 961.989 C 731.763 997.309 746.268 1032.17 759.04 1067.69 C 780.249 1126.67 798.428 1189.58 808.713 1251.42 C 780.083 1245.98 749.244 1248.01 720.206 1248.06 C 698.988 1248.14 676.039 1246.9 655.313 1252.01 C 653.974 1249.36 652.85 1246.66 651.775 1243.89 C 644.262 1224.56 639.354 1204.11 634.656 1183.95 C 620.991 1125.33 610.236 1059.32 635.754 1002.42 C 650.729 969.033 674.483 947.819 708.464 934.869 z"/>
<path transform="translate(0,0)" fill="rgb(225,92,36)" d="M 713.673 1018.03 C 719.882 1017.22 726.231 1017.71 732.476 1017.9 C 721.511 1043.99 735.59 1054.52 748.255 1074.83 A 79.7244 79.7244 0 0 1 758.824 1102.41 C 763.72 1128.33 756.504 1146.22 743.109 1167.95 C 739.931 1173.11 735.548 1179.58 734.26 1185.56 C 731.805 1196.97 745.641 1209.19 744.829 1216.45 C 741.181 1217.97 736.365 1217.51 732.372 1218.52 L 731.497 1218.74 C 722.378 1216.05 714.933 1215.83 706.513 1210.23 C 689.315 1198.8 686.511 1176.61 692.621 1158.17 C 696.765 1145.66 708.046 1129.8 705.845 1116.35 C 702.686 1097.05 687.431 1082.07 684.3 1062.68 C 682.421 1051.05 686.061 1039.31 693.005 1029.94 C 698.165 1022.97 705.238 1019.31 713.673 1018.03 z"/>
<path transform="translate(0,0)" fill="rgb(33,45,77)" d="M 1682.98 667.909 C 1763.34 672.263 1847.48 704.406 1910.67 754.263 C 1925.79 766.191 1939.27 779.923 1952.91 793.471 C 1924.89 802.333 1899.32 814.142 1873.6 828.309 A 394.421 394.421 0 0 0 1775.24 907.992 C 1746.02 899.424 1714.19 892.65 1683.68 891.796 C 1684.92 817.284 1683.03 742.453 1682.98 667.909 z"/>
<path transform="translate(0,0)" fill="rgb(33,45,77)" d="M 346.773 666.405 C 350.894 665.802 355.282 665.779 359.45 665.486 L 359.115 895.997 C 326.868 895.258 293.349 901.351 262.031 908.548 C 233.315 879.108 199.099 852.874 163.637 832.118 A 575.372 575.372 0 0 0 72.3988 789.07 C 145.19 718.785 246.744 676.388 346.773 666.405 z"/>
<path transform="translate(0,0)" fill="rgb(33,45,77)" d="M 1681.98 432.945 C 1698.14 433.025 1715.2 436.252 1731.08 439.086 A 460.807 460.807 0 0 1 1973.03 563.177 C 1943.82 570.372 1915.06 582.839 1888.54 596.913 C 1847.94 619.169 1806.84 647.221 1775.77 681.858 A 409.72 409.72 0 0 0 1682.85 664.588 L 1682.86 522.5 C 1682.65 492.642 1681.79 462.81 1681.98 432.945 z"/>
<path transform="translate(0,0)" fill="rgb(33,45,77)" d="M 349.254 433.581 C 352.753 433.176 356.126 432.472 359.561 433.534 C 360.811 441.36 360.01 450.23 359.992 458.173 L 359.887 505.411 C 359.764 557.855 360.486 610.487 359.197 662.914 C 326.6 662.849 293.255 671.179 261.996 679.618 C 231.863 648.723 195.272 621.78 157.533 600.931 A 523.857 523.857 0 0 0 69.1905 563.111 C 69.4319 562.831 69.6669 562.545 69.9146 562.271 C 129.932 495.705 260.451 438.911 349.254 433.581 z"/>
<path transform="translate(0,0)" fill="rgb(33,45,77)" d="M 1683.95 1142.44 C 1797.97 1145.94 1902.56 1196.65 1982.99 1276.43 C 1962.8 1282.96 1943.14 1290.36 1924.4 1300.41 C 1895.16 1314.06 1870.01 1336.77 1844.48 1356.05 A 6827.87 6827.87 0 0 1 1683.94 1356.99 L 1683.95 1142.44 z"/>
<path transform="translate(0,0)" fill="rgb(238,208,89)" d="M 1248.65 624.88 C 1249.11 639.684 1224.08 700.032 1215.99 715.961 C 1181.81 783.336 1126.21 853.209 1051.82 876.953 C 1047.27 878.406 1042.38 879.703 1037.57 879.547 C 1023.12 879.078 997.733 867.408 984.508 860.596 C 902.268 818.232 856.954 728.511 829.984 644.228 L 825.761 629.336 C 884.867 670.899 950.354 695.767 1023.24 696.158 C 1010.24 701.267 1000.03 708.241 992.971 720.659 C 986.093 732.765 984.18 746.213 988.139 759.661 A 54.431 54.431 0 0 0 1013.91 791.514 C 1025.29 797.658 1038.78 798.633 1051.1 794.915 A 52.3678 52.3678 0 0 0 1082.58 769.054 A 52.272 52.272 0 0 0 1086.18 728.691 C 1081.12 712.538 1070.5 703.879 1056.11 696.447 A 334.262 334.262 0 0 0 1248.65 624.88 z"/>
<path transform="translate(0,0)" fill="rgb(33,45,77)" d="M 1683.74 894.207 C 1686.46 894.583 1689.23 894.75 1691.97 895.025 C 1791.13 905.008 1901.15 950.411 1965.38 1029.08 C 1934.89 1035.93 1904.62 1051.85 1877.76 1067.31 C 1840.73 1090.53 1803.05 1116.84 1777.33 1152.77 A 368.784 368.784 0 0 0 1683.9 1140.01 A 16665.2 16665.2 0 0 1 1683.74 894.207 z"/>
<path transform="translate(0,0)" fill="rgb(33,45,77)" d="M 355.1 1142.43 L 357.973 1142.38 C 358.346 1143.03 358.948 1143.61 359.092 1144.35 C 360.391 1151.03 359.056 1189.55 359.066 1199.18 L 359.1 1357.02 L 192.041 1356.93 C 179.792 1347.76 168.409 1337.41 156.252 1328.1 C 142.721 1317.72 128.386 1309.04 113.48 1300.85 C 93.887 1290.52 73.5871 1282.72 52.7411 1275.34 C 140.674 1192.74 235.416 1152.3 355.1 1142.43 z"/>
<path transform="translate(0,0)" fill="rgb(33,45,77)" d="M 355.562 898.415 L 358.007 898.297 L 359.295 899.503 A 18227.1 18227.1 0 0 1 359.024 1139.4 C 327.343 1141.01 296.549 1146.03 265.635 1152.96 C 260.819 1146.71 254.405 1140.88 248.785 1135.32 A 426.388 426.388 0 0 0 161.42 1068.08 A 393.002 393.002 0 0 0 66.9183 1026.58 A 68.2331 68.2331 0 0 1 70.2089 1022.51 C 85.1507 1005.6 103.671 990.248 121.838 976.919 C 192.717 924.916 269.091 904.169 355.562 898.415 z"/>
<path transform="translate(0,0)" fill="rgb(33,45,77)" d="M 0 296.02 C 19.5444 297.85 76.0777 300.428 92.1844 307.752 L 91.8531 308.559 C 99.7054 312.54 111.127 314.099 119.776 316.29 C 131.411 319.238 142.824 322.481 154.194 326.325 C 210.842 345.479 283.48 389.393 324.157 433.584 C 302.308 437.958 280.744 442.158 259.389 448.646 C 192.936 468.837 112.253 509.581 65.93 562.612 C 44.3782 556.733 22.1034 553.061 0 549.944 L 0 296.02 z"/>
<path transform="translate(0,0)" fill="rgb(238,208,89)" d="M 1345.42 930.438 C 1358.35 934.62 1370.81 939.99 1382.41 947.122 C 1418.4 969.239 1444.35 1006.79 1454.02 1047.72 C 1470.61 1117.97 1448.15 1192.28 1411.27 1252.32 C 1396.24 1252.27 1332.22 1250.06 1322.63 1253.41 C 1335.43 1256.72 1399.85 1256.07 1414.72 1254.31 C 1436.75 1265.6 1450.5 1280.63 1461.44 1302.66 C 1468.8 1321.33 1467.91 1337.64 1466.54 1357.27 L 1306.7 1357.13 C 1309.76 1346.24 1310.47 1334.55 1309.44 1323.31 C 1306.82 1294.66 1294.17 1268.78 1272.09 1250.29 C 1274.53 1235.93 1278.01 1221.64 1280.77 1207.31 A 15454.6 15454.6 0 0 1 1312.46 1049.37 A 1663.21 1663.21 0 0 0 1321.96 999.892 C 1324.25 986.435 1325.6 971.943 1329.7 958.94 C 1332.74 949.268 1340.19 939.214 1345.42 930.438 z"/>
<path transform="translate(0,0)" fill="rgb(225,92,36)" d="M 1349.36 1022.02 C 1353.87 1021.74 1358.58 1021.6 1363.09 1021.99 C 1372.94 1022.84 1383.16 1026.47 1389.43 1034.49 C 1413.07 1064.71 1372.26 1082.84 1369.08 1110.25 C 1366.21 1134.91 1390.06 1154.61 1385.82 1181 C 1383.39 1196.13 1376.28 1202.89 1364.63 1211.54 C 1361.75 1212.79 1358.74 1213.94 1355.67 1214.6 C 1348.34 1216.2 1335.15 1217.22 1328.93 1212.67 C 1327.02 1211.27 1326.17 1210.24 1325.86 1207.86 C 1329.21 1203.68 1332.17 1199.89 1334.15 1194.84 C 1341.8 1175.27 1330.94 1160.34 1323.64 1142.78 C 1310.51 1111.23 1316.96 1092.68 1336.09 1066.38 C 1341 1059.63 1346.75 1052.44 1349.84 1044.63 C 1352.77 1037.21 1346.89 1027.99 1349.36 1022.02 z"/>
<path transform="translate(0,0)" fill="rgb(103,191,113)" d="M 813.466 594.733 C 819.453 605.12 825.094 637.028 829.285 650.803 C 839.709 685.059 854.414 719.935 872.534 750.846 C 911.51 817.335 962.816 863.387 1038.75 883.207 C 1049.01 880.323 1058.99 877.206 1068.79 872.969 C 1145.18 839.964 1201.47 762.357 1231.9 687.012 A 360.484 360.484 0 0 0 1244.39 651.397 C 1247.16 641.912 1249.3 631.653 1253.06 622.549 C 1255.76 616.007 1260.84 610.875 1263.56 604.026 C 1277.87 629.884 1293.51 656.242 1305.21 683.361 C 1301.64 698.839 1298.49 714.3 1294.08 729.576 C 1260.56 832.965 1198.48 906.821 1103.18 958.606 C 1097.9 956.003 1092.62 953.488 1087.09 951.453 C 1049.79 937.715 1013.66 941.328 978.125 957.866 C 965.718 952.138 953.416 945.246 941.873 937.927 C 851.321 880.508 790.423 783.631 767.34 679.724 C 780.308 649.622 795.749 622.24 813.466 594.733 z"/>
<path transform="translate(0,0)" fill="rgb(33,45,77)" d="M 2009.06 299.756 C 2015.62 297.026 2039.19 296.84 2046.77 297.881 L 2048 297.764 L 2048 549.837 L 2047.01 549.564 C 2045.98 572.492 2046.61 595.654 2046.61 618.607 L 2046.96 775.939 C 2015.87 775.715 1984.96 784.591 1955.27 792.827 C 1943.7 780.668 1932.26 768.493 1919.34 757.734 C 1881.41 726.151 1826.5 694.981 1778.49 682.943 C 1847.58 610.615 1945.07 561.668 2044.94 553.266 L 2045.79 552.015 L 2044.12 550.865 C 2023.76 550.691 1996.08 557.122 1976.33 562.263 C 1918.92 496.898 1804.78 446.51 1719.68 434.624 C 1782.98 374.99 1859.8 329.624 1945.49 311.373 C 1958.06 308.695 2001.7 304.043 2009.06 299.756 z"/>
<path transform="translate(0,0)" fill="rgb(170,179,196)" d="M 2046.77 297.881 L 2048 297.764 L 2048 549.837 L 2047.01 549.564 C 2046.19 540.348 2046.75 530.643 2046.74 521.361 L 2046.73 467.595 L 2046.77 297.881 z"/>
<path transform="translate(0,0)" fill="rgb(33,45,77)" d="M 2047.01 549.564 L 2048 549.837 L 2048 776.538 L 2048 1269.46 L 2048 1359.11 L 2046.7 1359.22 L 2045.49 1360.01 C 1967.59 1358.16 1889.39 1361.91 1811.49 1359.83 C 1831 1357.27 1858.03 1358.72 1878.34 1358.72 C 1885.78 1358.72 1896.57 1359.98 1903.58 1357.73 C 1885.39 1357.26 1867.09 1356.38 1848.89 1356.83 C 1908.96 1308.32 1965.01 1272.98 2045.05 1269.85 L 2046.31 1268.46 L 2045.56 1267.27 C 2034.02 1264.76 1998.12 1272.22 1986.07 1275.62 C 1931.86 1219.11 1855.51 1172.65 1779.49 1153.34 C 1818.05 1099.52 1906.22 1048.01 1969.84 1030.69 A 544.284 544.284 0 0 1 2021.19 1019.52 C 2029.05 1018.24 2037.79 1018.33 2045.38 1016.25 L 2045.63 1014.7 C 2030.65 1011.61 1984.63 1023.92 1968.4 1028.15 C 1919.71 969.502 1849.33 930.97 1777.51 908.413 A 412.07 412.07 0 0 1 2000.37 784.503 C 2015.79 781.448 2031.35 779.885 2046.96 778.225 L 2047.51 776.937 L 2046.96 775.939 L 2046.61 618.607 C 2046.61 595.654 2045.98 572.492 2047.01 549.564 z"/>
<path transform="translate(0,0)" fill="rgb(170,179,196)" d="M 2046.91 1269.09 L 2048 1269.46 L 2048 1359.11 L 2046.7 1359.22 C 2045.55 1329.43 2046.33 1298.9 2046.91 1269.09 z"/>
<path transform="translate(0,0)" fill="rgb(170,179,196)" d="M 2047.01 549.564 L 2048 549.837 L 2048 776.538 L 2048 1269.46 L 2046.91 1269.09 C 2044.83 1253.42 2046.66 1235.46 2046.7 1219.56 L 2046.78 1112.5 C 2046.85 1001.15 2045.1 889.541 2046.96 778.225 L 2047.51 776.937 L 2046.96 775.939 L 2046.61 618.607 C 2046.61 595.654 2045.98 572.492 2047.01 549.564 z"/>
<path transform="translate(0,0)" fill="rgb(238,208,89)" d="M 681.412 150.388 C 681.715 150.354 682.016 150.307 682.319 150.285 C 707.265 148.508 734.808 154.475 754.173 170.988 C 763.806 179.203 772.432 190.134 775.858 202.487 C 780.348 218.673 777.918 238.118 778.258 254.85 A 8931.89 8931.89 0 0 1 779.015 391.666 C 779.061 415.42 777.904 439.896 780.045 463.56 C 783.144 497.833 800.838 546.755 827.869 569.321 C 780.985 630.194 750.86 703.683 730.671 777.248 L 725.381 798.275 L 646.438 656.309 C 635.34 636.267 622.214 617.051 613.09 595.999 C 607.369 582.801 603.652 569.366 602.203 555.039 C 600.226 535.489 601.761 515.377 601.839 495.727 L 601.931 387.636 L 601.707 274.679 C 601.653 252.685 599.741 229.061 603.328 207.386 C 604.879 198.011 611.389 187.559 617.423 180.311 C 633.594 160.884 656.926 152.632 681.412 150.388 z"/>
<path transform="translate(0,0)" fill="rgb(225,92,36)" d="M 632.671 186.022 C 636.67 186.347 640.568 187.315 644.092 189.28 A 23.6569 23.6569 0 0 1 655.781 204.564 C 657.314 210.837 656.051 217.914 652.372 223.231 C 648.521 228.795 643.067 231.481 636.609 232.815 C 630.983 232.623 626.542 232.027 621.764 228.837 A 24.5746 24.5746 0 0 1 611.095 212.31 A 21.7421 21.7421 0 0 1 615.387 195.415 C 619.675 189.958 625.936 187.008 632.671 186.022 z"/>
<path transform="translate(0,0)" fill="rgb(229,119,63)" d="M 743.681 186.048 C 748.277 185.701 753.313 186.85 757.363 189.039 C 762.39 191.755 765.85 196.669 767.146 202.199 A 25.0666 25.0666 0 0 1 763.54 221.938 C 759.121 228.527 753.739 230.776 746.207 232.219 C 741.368 231.957 736.47 231.008 732.322 228.366 C 727.111 225.048 723.63 219.515 722.565 213.46 C 721.422 206.957 722.86 200.164 726.879 194.887 C 731.235 189.169 736.797 187.059 743.681 186.048 z"/>
<path transform="translate(0,0)" fill="rgb(225,92,36)" d="M 684.085 173.636 L 696.116 173.552 C 701.672 176.586 706.434 179.49 709.91 185.007 C 713.201 190.23 714.613 196.268 713.01 202.321 C 710.864 210.422 704.578 215.328 697.534 219.105 C 693.719 219.807 690.001 220.37 686.154 219.53 A 23.8323 23.8323 0 0 1 670.43 207.894 A 23.5398 23.5398 0 0 1 668.6 188.771 C 671.311 180.971 677.041 177.198 684.085 173.636 z"/>
<path transform="translate(0,0)" fill="rgb(229,119,63)" d="M 701.679 413.042 C 707.443 412.235 712.881 413.652 717.986 416.342 C 722.752 418.853 727.333 422.635 728.817 428.026 C 732.452 441.228 720.144 448.291 714.43 458.356 C 712.293 462.121 711.099 466.506 711.695 470.849 C 713.681 485.338 729.328 514.469 734.156 530.954 C 738.6 546.127 740.993 563.248 732.65 577.625 C 727.664 586.219 718.669 592.638 709.026 594.95 C 701.427 596.771 694.766 595.185 688.212 591.202 C 687.194 590.184 686.168 589.163 685.232 588.067 C 678.997 580.766 686.87 577.014 687.166 569.543 C 688.063 546.91 667.431 523.79 659.332 503.395 C 657.246 498.141 657.582 487.503 654.387 483.931 C 649.191 483.912 645.068 480.73 641.149 477.548 C 636.89 474.089 634.281 469.865 633.927 464.314 C 633.517 457.884 635.449 450.508 640.041 445.821 C 646.911 438.809 655.881 438.499 665.019 438.516 A 108.062 108.062 0 0 1 666.674 436.22 C 675.346 424.565 686.941 415.212 701.679 413.042 z"/>
<path transform="translate(0,0)" fill="rgb(238,208,89)" d="M 652.884 441.607 C 656.064 441.34 658.939 441.313 662.123 441.523 C 662.269 446.977 658.213 453.713 656.61 459.059 C 654.758 465.231 654.971 473.617 654.429 480.128 C 651.485 480.598 649.376 479.715 646.562 478.925 C 643.629 477.77 639.673 473.314 638.272 470.596 C 635.847 465.891 636.114 460.468 637.92 455.613 C 640.892 447.625 645.4 444.825 652.884 441.607 z"/>
<path transform="translate(0,0)" fill="rgb(229,119,63)" d="M 690.765 228.503 C 705.81 228.097 719.858 232.939 731.522 242.41 C 744.861 253.241 752.545 268.309 754.209 285.344 C 755.834 301.985 750.792 319.291 740.008 332.135 C 727.227 347.358 710.059 354.01 690.691 355.589 A 68.7867 68.7867 0 0 1 643.808 336.337 C 631.851 324.646 625.507 308.6 625.451 291.949 C 625.392 274.293 633.091 258.319 645.551 246.051 C 657.771 234.018 673.768 228.306 690.765 228.503 z"/>
<path transform="translate(0,0)" fill="rgb(255,255,255)" d="M 0 1.35281 C 10.5905 3.17958 22.632 2.21528 33.4012 2.18397 L 94.1976 2.07861 L 253.576 2.27689 C 289.147 2.19747 324.799 1.59802 360.362 2.26446 L 360.863 270.104 C 360.79 323.303 359.746 376.553 360.432 429.747 C 349.623 430.357 338.642 431.112 327.971 433.03 C 272.066 378.609 203.789 336.683 128.131 316.077 C 116.477 312.902 104.148 309.383 92.1844 307.752 C 76.0777 300.428 19.5444 297.85 0 296.02 L 0 1.35281 z"/>
<path transform="translate(0,0)" fill="rgb(255,255,255)" d="M 2046.32 0 L 2048 0 L 2048 297.764 L 2046.77 297.881 C 2039.19 296.84 2015.62 297.026 2009.06 299.756 C 1991.43 300.429 1973.21 303.627 1955.91 306.978 C 1864.5 324.676 1783.39 370.229 1716.2 434.22 C 1704.47 432.073 1692.63 430.939 1680.78 429.825 C 1679.87 381.254 1680.59 332.557 1680.62 283.974 L 1680.88 2.1191 C 1711.77 1.43783 1742.81 1.9812 1773.71 2.015 L 1940.11 2.10642 L 2008.09 2.07417 C 2019.21 2.06476 2030.85 2.78759 2041.89 1.86635 C 2043.92 1.697 2044.77 1.22527 2046.32 0 z"/>
<path transform="translate(0,0)" fill="rgb(238,208,89)" d="M 1010.8 216.495 C 1048.28 215.84 1087.47 214.033 1124.6 219.777 C 1117.85 227.853 1112.71 237.215 1105.13 244.644 C 1090.71 258.769 1072.64 269.473 1059.3 284.74 C 1053.87 290.952 1048.53 299.534 1049.45 308.163 C 1049.97 312.949 1052.68 316.682 1056.48 319.484 C 1065.41 326.057 1078.81 327.953 1089.51 325.882 C 1123.88 319.231 1148.58 258.287 1166.71 230.844 C 1182.5 236.604 1196.35 244.635 1209.43 255.217 C 1249.96 288.023 1263.98 332.02 1272.65 381.567 C 1275.04 395.253 1277.72 409.05 1279.17 422.867 C 1283.62 465.395 1270.21 514.424 1243.07 547.696 C 1201.11 599.133 1126.21 624.247 1062.24 630.849 C 1013.93 633.183 964.818 626.953 919.699 609.01 C 874.085 590.87 831.996 562.112 812.303 515.531 C 789.116 460.687 794.034 393.563 816.247 339.253 C 835.951 291.078 861.52 251.435 911.482 230.711 C 917.84 254.136 929.046 275.364 942.889 295.203 C 953.59 310.54 966.779 323.903 986.131 327.026 C 996.419 328.687 1008.2 327.342 1016.75 320.937 C 1020.77 317.924 1023.53 313.925 1023.92 308.825 C 1025.75 284.849 989.134 263.425 973.999 249.571 C 964.418 240.8 955.83 231.058 947.217 221.359 C 968.102 216.986 989.57 216.948 1010.8 216.495 z"/>
<path transform="translate(0,0)" fill="rgb(225,92,36)" d="M 1024.26 428.554 C 1035.73 426.22 1059.88 425.471 1070.04 432.561 C 1072.31 434.145 1073.9 436.266 1074.16 439.104 C 1075.5 453.468 1048.25 467.773 1039.47 476.413 C 1039.14 478.81 1039 480.929 1039.29 483.345 C 1040.59 494.251 1048.36 502.915 1056.76 509.374 C 1081 528.011 1113.54 532.03 1142.79 525.39 C 1150.21 523.705 1157.5 520.738 1164.78 518.455 C 1183.6 512.551 1204.16 506.256 1223.77 503.792 L 1223.82 504.743 C 1216.34 509.971 1198.84 511.124 1189.58 513.626 C 1161.35 521.257 1136.06 533.931 1105.85 530.934 C 1085.19 528.885 1058.57 518.774 1045.03 502.41 C 1042.02 498.74 1039.86 495.117 1037.64 490.952 C 1036.38 493.319 1034.98 495.56 1033.48 497.774 C 1021.34 515.595 1000.12 527.849 979.084 531.66 C 956.513 535.75 936.208 529.214 914.836 523.125 C 909.809 521.692 901.053 520.204 897.242 516.723 C 895.407 515.048 895.536 513.88 895.787 511.604 C 895.802 511.472 895.866 511.35 895.893 511.219 C 896.06 510.407 895.636 510.934 896.95 509.96 C 898.867 508.539 926.952 501.223 929.786 501.645 C 921.012 509.257 908.984 506.65 899.934 513.243 L 899.782 514.8 C 900.032 514.999 900.266 515.221 900.532 515.397 C 904.437 517.977 910.972 519.127 915.464 520.506 C 938.186 527.484 961.851 533.379 985.56 527.458 C 1006.99 522.106 1024.38 508.454 1035.56 489.607 L 1035.49 476.396 C 1026.68 467.914 1003.42 453.882 1003.03 440.584 C 1002.95 437.968 1004 436.095 1005.76 434.262 C 1010 429.86 1018.48 428.693 1024.26 428.554 z"/>
<path transform="translate(0,0)" fill="rgb(32,32,34)" d="M 1150.52 331.314 C 1152.5 331.129 1154.5 330.976 1156.49 331.012 C 1184.3 331.526 1208.97 346.21 1227.31 366.121 C 1225.72 368.978 1223.9 371.665 1222.02 374.332 C 1205.39 397.826 1183.01 408.31 1155.41 412.938 C 1124.42 413.768 1100.22 409.648 1075.89 389.004 A 97.0635 97.0635 0 0 1 1086.01 372.14 C 1102.02 350.495 1123.59 335.332 1150.52 331.314 z"/>
<path transform="translate(0,0)" fill="rgb(238,208,89)" d="M 1181.48 338.48 C 1198.05 342.484 1212.56 353.995 1223.74 366.424 C 1215.79 379.779 1205.51 389.188 1192.8 397.894 C 1184.96 402.569 1177.54 405.944 1168.73 408.388 C 1179.34 400.035 1187.84 391.642 1190.81 377.822 C 1193.92 363.335 1189.02 350.568 1181.48 338.48 z"/>
<path transform="translate(0,0)" fill="rgb(238,208,89)" d="M 1121.22 343.082 C 1122.21 345.584 1115.93 354.428 1114.98 357.932 C 1112.97 365.332 1112.69 373.349 1114.67 380.777 C 1118.53 395.353 1128.15 404.024 1140.81 411.085 C 1130.73 410.431 1121.54 409.183 1111.88 406.097 C 1099.66 401.663 1089.37 396.018 1079.21 387.897 C 1089.03 369.476 1102.99 353.49 1121.22 343.082 z"/>
<path transform="translate(0,0)" fill="rgb(32,32,34)" d="M 912.709 330.328 C 920.134 329.932 926.977 330.286 934.194 332.301 C 962.154 340.108 986.963 361.9 1000.94 386.895 C 980.34 403.716 959.901 412.027 933.2 413.176 C 921.688 413.563 909.512 412.297 898.371 409.359 C 874.844 403.154 856.504 387.942 844.496 367.077 C 864.808 347.171 883.973 334.335 912.709 330.328 z"/>
<path transform="translate(0,0)" fill="rgb(238,208,89)" d="M 891.339 337.899 L 892.725 337.76 C 893.951 339.631 885.239 354.226 884.048 357.593 C 882.519 361.917 882.396 367.55 882.844 372.058 C 884.483 388.563 894.064 399.278 906.452 409.035 C 898.306 406.937 890.936 404.422 883.302 400.861 C 868.102 392.481 857.296 382.917 847.929 368.236 C 860.602 353.934 873.744 345.267 891.339 337.899 z"/>
<path transform="translate(0,0)" fill="rgb(238,208,89)" d="M 953.527 343.607 C 971.836 351.333 987.957 369.319 997.404 386.39 C 987.47 394.77 976.47 400.923 964.216 405.174 C 953.643 408.18 943.886 409.902 932.899 410.45 C 944.558 403.76 954.065 396.651 958.656 383.366 C 963.518 369.294 960.007 356.32 953.527 343.607 z"/>
<path transform="translate(0,0)" fill="rgb(229,119,63)" d="M 363.129 0 L 552.11 0 L 552.427 1356.72 C 527.534 1355 501.952 1356.14 476.977 1356.15 C 438.576 1356.15 400.099 1355.71 361.711 1356.56 L 363.129 0 z"/>
<path transform="translate(0,0)" fill="rgb(229,119,63)" d="M 1559.76 2.48197 C 1599.17 2.11441 1638.94 1.16824 1678.32 2.51452 C 1679.44 40.114 1678.22 78.1658 1678.24 115.816 L 1678.18 394.73 L 1680.91 1357.01 L 1610.36 1356.99 L 1488.95 1357.25 L 1489.91 2.79626 A 3368.8 3368.8 0 0 0 1559.76 2.48197 z"/>
<path transform="translate(0,0)" fill="rgb(255,255,255)" d="M 554.699 0 L 1487.81 0 C 1486.46 57.0393 1487.07 114.203 1487.02 171.261 L 1487.03 460.384 L 1486.28 1357.26 L 1468.67 1357.27 C 1470.51 1340.6 1471.86 1325.84 1466.59 1309.56 C 1458.14 1283.49 1439.51 1263.57 1415.3 1251.29 C 1424.57 1236.92 1432.59 1220.8 1439.02 1204.99 C 1462.44 1147.41 1472.92 1079.4 1447.87 1020.62 C 1430.85 980.702 1400.02 949.34 1359.75 933.008 C 1357.69 844.254 1344.03 760.184 1306.26 679.101 C 1294.9 654.703 1280.93 631.423 1268.21 607.712 C 1263.65 599.193 1260.71 589.919 1256.84 581.082 C 1252.54 571.284 1247.09 561.993 1241.75 552.736 C 1269.54 520.184 1285.05 473.628 1282.57 430.886 C 1281.25 408.186 1275.81 385.023 1271.6 362.657 C 1269.61 352.092 1263.53 335.905 1263.21 326.615 C 1262.62 309.614 1264.72 291.708 1265.55 274.647 C 1267.54 233.855 1270.32 190.96 1271.03 150.273 C 1271.3 134.965 1265.14 120.663 1254.28 109.894 C 1244.71 100.393 1230.83 94.4059 1217.31 94.5747 C 1208.87 94.6801 1199.76 97.0132 1192.47 101.279 C 1176.06 110.874 1161.73 127.14 1148.02 140.186 A 2737.79 2737.79 0 0 0 1072.58 214.105 L 1004.91 214.092 C 978.003 187.869 950.56 162.5 922.774 137.229 C 910.887 126.419 899.61 114.028 886.28 104.986 C 874.577 97.0484 860.261 93.5353 846.297 96.5023 C 831.75 99.593 818.526 109.227 810.587 121.725 C 806.516 128.133 802.783 136.478 801.897 144.058 C 799.9 161.127 803.971 186.176 805.107 204.085 A 5149.31 5149.31 0 0 0 810.947 289.018 C 812.091 304.014 812.388 319.865 815.529 334.563 C 805.933 357.872 798.767 382.366 796.198 407.492 C 792.171 446.892 796.095 492.148 815.182 527.539 C 821.33 538.938 829.093 548.918 837.222 558.926 L 828.822 567.423 C 804.786 547.056 788.84 504.807 784.026 474.505 C 779.67 447.081 781.719 417.824 781.687 390.037 L 780.915 266.942 C 780.803 248.037 782.877 226.946 779.757 208.335 C 778.19 198.982 774.656 190.663 768.944 183.076 C 753.846 163.023 731.832 152.07 707.314 148.662 C 680.357 144.914 650.663 149.713 628.621 166.462 C 614.433 177.242 602.333 193.573 599.919 211.545 C 597.664 228.334 598.98 246.4 599.015 263.321 L 599.186 355.111 A 11305.8 11305.8 0 0 1 599.135 479.141 C 599.028 500.281 598.026 521.64 598.729 542.752 C 599.044 552.227 599.741 562.379 602.04 571.597 C 604.889 583.017 609.419 594.36 614.608 604.905 C 620.834 617.559 628.389 629.625 635.297 641.919 L 679.993 721.238 L 707.545 771.291 C 712.91 781.064 717.991 791.875 724.707 800.771 C 713.875 842.89 711.913 888.187 712.006 931.455 C 704.982 933.476 698.232 935.764 691.663 938.999 C 659.035 955.068 638.584 984.054 627.288 1017.95 C 608.692 1073.75 620.689 1137.98 634.192 1193.72 C 638.964 1213.42 644.057 1234.93 653.18 1253.08 C 639.498 1259.3 627.342 1268.16 618.414 1280.35 C 601.37 1303.63 600.215 1329.49 604.56 1357.02 A 4616.72 4616.72 0 0 1 555.196 1357.11 L 554.699 0 z"/>
<path transform="translate(0,0)" fill="rgb(32,32,34)" d="M 2046.7 1359.22 L 2048 1359.11 L 2048 1868.29 L 2048 1986.83 L 2048 2048 L 2045.86 2048 L 0 2048 L 0 1987.41 L 0 1984.19 L 0 1871.88 L 0 1868.22 L 0 1625.7 L 0 1622.14 L 0 1360.02 L 1811.49 1359.83 C 1889.39 1361.91 1967.59 1358.16 2045.49 1360.01 L 2046.7 1359.22 z"/>
<path transform="translate(0,0)" fill="rgb(229,119,63)" d="M 0 1625.7 L 67.5252 1625.36 A 254.5 254.5 0 0 0 88.013 1653.41 L 88.0086 1868.83 A 6491.46 6491.46 0 0 0 0 1868.22 L 0 1625.7 z"/>
<path transform="translate(0,0)" fill="rgb(229,119,63)" d="M 1965.15 1626.14 A 3031.9 3031.9 0 0 0 2045.04 1626.14 C 2046.36 1706.8 2045.19 1787.53 2045.84 1868.2 C 2015.96 1867.48 1985.93 1868.14 1956.04 1868.18 L 1956.04 1726.46 C 1956.04 1698.65 1957.12 1670.4 1955.46 1642.65 C 1958.9 1637.32 1961.95 1631.63 1965.15 1626.14 z"/>
<path transform="translate(0,0)" fill="rgb(229,119,63)" d="M 1011.38 1443.34 C 1011.94 1443.25 1012.5 1443.15 1013.07 1443.09 C 1041.11 1439.91 1073.93 1449.57 1096.27 1466.57 C 1120.5 1485 1137.86 1513.6 1141.91 1543.88 C 1146.84 1580.71 1132.26 1610.97 1110.66 1639.56 C 1107.87 1626.71 1104.39 1615.05 1097.25 1603.88 C 1083.44 1582.28 1061.91 1570.66 1037.38 1565.25 C 1012.84 1562.14 990.744 1565.96 970.344 1580.64 C 950.524 1594.89 938.579 1614.85 934.535 1638.71 C 920.377 1622.13 909.279 1599.76 906.051 1578.09 A 114.927 114.927 0 0 1 928.004 1491.54 C 948.675 1464.14 977.694 1448.17 1011.38 1443.34 z"/>
<path transform="translate(0,0)" fill="rgb(229,119,63)" d="M 1859.54 1442.38 C 1883.91 1441.38 1909.87 1448.18 1930.5 1461.18 A 113.147 113.147 0 0 1 1980.53 1532.78 C 1989.47 1573.23 1976.07 1605.42 1954.6 1638.84 C 1951.68 1617.66 1943.35 1599.12 1927.8 1584.18 C 1907.38 1564.55 1883.67 1558.52 1856.09 1559.05 C 1838.58 1561.9 1823.11 1566.3 1809.3 1577.96 C 1787.2 1596.63 1778.12 1621.41 1775.56 1649.38 C 1761.39 1623.94 1744.37 1602.98 1741.27 1572.77 C 1738.17 1542.48 1748.61 1512.22 1767.89 1488.95 C 1791.61 1460.32 1822.95 1445.69 1859.54 1442.38 z"/>
<path transform="translate(0,0)" fill="rgb(229,119,63)" d="M 170.203 1439.39 C 173.989 1438.84 178.189 1438.85 182.012 1438.93 A 128.285 128.285 0 0 1 271.156 1478.43 C 293.15 1501.36 306.05 1534.07 305.14 1565.88 A 111.21 111.21 0 0 1 269.845 1644.43 C 267.37 1624.62 261.344 1608.72 248.015 1593.51 C 230.957 1574.05 208.917 1564.15 183.315 1562.6 C 161.978 1563.17 142.295 1568.78 125.281 1582.07 C 103.649 1598.97 91.7813 1623.6 88.3496 1650.43 C 70.818 1626.12 58.767 1609.77 55.0784 1579.05 C 51.1024 1545.93 60.7197 1513.78 81.3588 1487.78 C 103.95 1459.32 134.342 1443.35 170.203 1439.39 z"/>
<path transform="translate(0,0)" fill="rgb(113,195,133)" d="M 1009.54 1567.24 A 124.521 124.521 0 0 1 1022.51 1566.52 C 1044.68 1566.52 1068.14 1575.89 1083.87 1591.58 A 83.2775 83.2775 0 0 1 1105.84 1631.36 C 1110.87 1653.5 1108.17 1695.81 1108.2 1719.62 L 1108.93 1868.01 L 1038.5 1867.96 L 936.86 1868.01 L 936.889 1715.34 C 936.872 1688.99 934.382 1656.42 938.925 1630.76 C 940.559 1621.53 944.914 1612.97 950.169 1605.27 C 964.563 1584.19 984.701 1571.96 1009.54 1567.24 z"/>
<path transform="translate(0,0)" fill="rgb(113,195,133)" d="M 175.787 1565.35 C 177.493 1565.16 179.153 1565.09 180.871 1565.09 C 204.279 1565.04 225.648 1574.17 242.052 1590.87 C 252.546 1601.55 261.773 1616.47 265.26 1631.13 C 269.924 1650.73 267.65 1692.03 267.607 1713.42 L 266.905 1868.05 L 182.731 1868.01 A 7640.03 7640.03 0 0 0 90.8789 1868.7 L 90.9647 1716.82 C 90.9313 1695.24 88.6124 1660.25 92.3338 1640.54 C 95.1343 1625.72 102.087 1611.44 111.383 1599.6 C 127.942 1578.51 149.648 1568.61 175.787 1565.35 z"/>
<path transform="translate(0,0)" fill="rgb(113,195,133)" d="M 1855.68 1562.34 C 1858.85 1561.89 1862.2 1561.97 1865.39 1561.92 C 1887.64 1561.62 1910.89 1571.79 1926.69 1587.34 A 87.2623 87.2623 0 0 1 1950.44 1630.91 C 1955.84 1655.14 1953.05 1694.86 1953 1720.74 L 1953.03 1868.05 L 1877.5 1867.97 L 1778.26 1868.02 L 1778.26 1710.36 C 1778.37 1686.73 1776.17 1657.15 1780.21 1634.39 A 93.3386 93.3386 0 0 1 1797.87 1594.39 C 1812.87 1574.38 1831.34 1565.71 1855.68 1562.34 z"/>
<path transform="translate(0,0)" fill="rgb(229,119,63)" d="M 290.171 1624.61 C 316.773 1625.8 343.875 1624.78 370.522 1624.77 L 522.581 1624.77 L 920.855 1624.71 C 924.57 1631.4 929.661 1637.51 934.244 1643.65 L 934.285 1868.01 L 913.5 1868 L 269.226 1868.34 C 270.143 1841.27 269.721 1814.06 269.792 1786.97 A 11061.6 11061.6 0 0 0 269.59 1647.45 C 277.72 1640.56 284.03 1633.32 290.171 1624.61 z"/>
<path transform="translate(0,0)" fill="rgb(229,119,63)" d="M 1124.97 1624.07 L 1756.88 1624.12 A 2316.81 2316.81 0 0 1 1775.82 1653.31 C 1776.36 1677.47 1775.74 1701.77 1775.72 1725.95 L 1775.7 1868.07 L 1763.3 1868.07 L 1111.71 1868.05 L 1111.1 1643.39 C 1115.54 1636.83 1120.32 1630.48 1124.97 1624.07 z"/>
<path transform="translate(0,0)" fill="rgb(33,45,77)" d="M 0 1871.88 L 1236.12 1870.98 A 70756.3 70756.3 0 0 0 2045.97 1871.35 C 2046.98 1908.69 2047.45 1946.87 2046.15 1984.2 L 2046.11 1986.53 A 2897.02 2897.02 0 0 0 2045.86 2048 L 0 2048 L 0 1987.41 L 0 1984.19 L 0 1871.88 z"/>
<path transform="translate(0,0)" fill="rgb(32,32,34)" d="M 0 1984.19 L 1189.52 1984.48 A 46598.4 46598.4 0 0 1 1749.78 1985.14 L 1962.91 1984.09 C 1990.61 1984.07 2018.46 1983.45 2046.15 1984.2 L 2046.11 1986.53 C 2023.11 1988.42 1999.31 1987.12 1976.19 1987.3 L 1824.87 1987.87 L 1369.81 1987.74 L 0 1987.41 L 0 1984.19 z"/>
<path transform="translate(0,0)" fill="rgb(113,195,133)" d="M 2046.11 1986.53 A 2897.02 2897.02 0 0 0 2045.86 2048 L 0 2048 L 0 1987.41 L 1369.81 1987.74 L 1824.87 1987.87 L 1976.19 1987.3 C 1999.31 1987.12 2023.11 1988.42 2046.11 1986.53 z"/>
<path transform="translate(0,0)" fill="rgb(113,195,133)" d="M 2046.7 1359.22 L 2048 1359.11 L 2048 1868.29 L 2048 1986.83 L 2048 2048 L 2045.86 2048 A 2897.02 2897.02 0 0 1 2046.11 1986.53 L 2046.15 1984.2 C 2047.45 1946.87 2046.98 1908.69 2045.97 1871.35 L 2046.29 1868.89 L 2045.84 1868.2 C 2045.19 1787.53 2046.36 1706.8 2045.04 1626.14 L 2045.45 1623.41 A 3361.66 3361.66 0 0 0 1967.38 1623.42 C 1972.39 1614.81 1976.69 1606.09 1979.83 1596.62 C 1989.59 1567.23 1988.52 1532.48 1974.22 1504.7 C 1959.24 1475.6 1933 1454.79 1901.95 1445.08 A 122.675 122.675 0 0 0 1807.86 1453 C 1777.68 1468.84 1753.12 1495.56 1743.09 1528.47 C 1733.12 1561.22 1739.18 1591.4 1755 1621.02 L 1127.35 1621.01 C 1131.75 1613.19 1135.68 1605.34 1138.68 1596.87 C 1149.43 1566.58 1147.1 1535.71 1132.99 1506.94 C 1118.77 1477.94 1094.08 1456.91 1063.57 1446.63 A 119.903 119.903 0 0 0 970.871 1452.54 C 941.035 1467.67 917.324 1494.15 907.189 1526.19 C 896.547 1559.84 903.265 1591.53 919.242 1621.96 L 291.703 1621.95 C 295.454 1614.67 298.856 1607.31 301.518 1599.55 C 311.983 1569.04 308.681 1536.2 294.506 1507.37 C 279.336 1476.5 251.98 1453.86 219.499 1442.96 A 123.689 123.689 0 0 0 124.019 1449.59 C 93.6445 1464.85 68.1134 1493.78 57.5233 1526.18 C 46.998 1558.38 50.6205 1592.07 65.7124 1622.08 L 0 1622.14 L 0 1360.02 L 1811.49 1359.83 C 1889.39 1361.91 1967.59 1358.16 2045.49 1360.01 L 2046.7 1359.22 z"/>
<path transform="translate(0,0)" fill="rgb(255,255,255)" d="M 2046.7 1359.22 L 2048 1359.11 L 2048 1868.29 L 2048 1986.83 L 2048 2048 L 2045.86 2048 A 2897.02 2897.02 0 0 1 2046.11 1986.53 L 2046.15 1984.2 C 2047.45 1946.87 2046.98 1908.69 2045.97 1871.35 L 2046.29 1868.89 L 2045.84 1868.2 C 2045.19 1787.53 2046.36 1706.8 2045.04 1626.14 L 2045.45 1623.41 C 2043.98 1590.34 2045.2 1556.72 2045.14 1523.59 C 2045.05 1469.09 2044.48 1414.5 2045.49 1360.01 L 2046.7 1359.22 z"/>
</svg>