<svg version="1.1" xmlns="http://www.w3.org/2000/svg" style="display: block;" viewBox="0 0 2048 2048" width="1024" height="1024">
<path transform="translate(0,0)" fill="rgb(253,252,246)" d="M 0 0 L 2048 0 L 2048 2048 L 0 2048 L 0 0 z"/>
<path transform="translate(0,0)" fill="rgb(254,229,167)" d="M 458.16 1805.49 C 429.645 1799.74 401.826 1787.33 375.67 1774.96 C 312.426 1745.04 245.883 1706.7 205.287 1647.84 C 134.301 1544.92 131.674 1408.5 153.582 1289.82 C 175.744 1169.77 235.284 1048.98 311.335 953.957 C 336.718 922.241 365.731 892.213 393.927 862.942 A 1348.39 1348.39 0 0 1 449.338 808.815 C 462.098 796.818 474.911 783.969 489.371 774.006 A 1359.2 1359.2 0 0 0 497.027 899.599 C 505.105 972.375 520.331 1050.26 575.598 1103.1 C 592.994 1119.73 615.266 1134.18 636.934 1144.77 C 584.502 1178.62 560.683 1233.72 547.92 1292.77 C 527.165 1388.78 536.113 1518.9 590.051 1603.15 C 597.201 1614.31 605.496 1624.27 613.908 1634.46 C 604.212 1657.01 598.572 1674.31 598.793 1699.2 C 563.175 1706.04 492.291 1728.08 471.482 1757.91 C 462.234 1771.16 460.01 1789.88 458.16 1805.49 z"/>
<path transform="translate(0,0)" fill="rgb(183,213,220)" d="M 1280.42 182.811 C 1280.69 182.754 1280.97 182.702 1281.24 182.64 C 1289.92 180.66 1298.35 175.66 1306.6 172.29 C 1312.72 169.792 1319.21 168.04 1325.58 166.333 C 1387.68 149.695 1448.11 161.705 1502.31 194.734 C 1600.17 254.369 1675.06 357.077 1729.11 456.351 C 1738.1 472.866 1745.71 490.136 1754.02 506.999 C 1760.82 520.808 1768.35 534.327 1774.78 548.311 C 1790.25 581.989 1803.7 616.841 1816.8 651.496 C 1822.45 666.436 1828.65 681.149 1834.01 696.203 A 2140.77 2140.77 0 0 1 1900.9 924.707 A 1118.12 1118.12 0 0 1 1917.61 1012.55 C 1934.79 1126.65 1926.54 1220.06 1880.02 1326.69 C 1868.08 1354.06 1855.36 1380.42 1839.73 1405.92 C 1810 1454.44 1746.18 1544.49 1689.37 1558.46 C 1670.44 1563.12 1652.48 1559.93 1635.91 1549.78 C 1605.94 1531.42 1593.54 1507.62 1572.01 1482.72 C 1570.96 1484.14 1570.56 1485.27 1569.96 1486.91 A 310.038 310.038 0 0 0 1570.61 1452.52 C 1568.32 1397.76 1554.21 1315.05 1524.03 1268.87 C 1517.25 1258.49 1508.66 1250.47 1499.58 1242.17 A 244.707 244.707 0 0 0 1510.59 1219.25 C 1540.98 1144.69 1524.01 1056.05 1492.82 984.281 C 1479.76 954.217 1462.96 925.319 1446.01 897.298 C 1432.6 875.135 1416.05 854.978 1402.57 833.022 C 1392.28 816.262 1379.46 786.792 1371.59 768.089 C 1392.89 735.781 1402 696.936 1401.72 658.536 C 1401.51 630.798 1397.83 603.163 1394.69 575.645 A 2781.44 2781.44 0 0 0 1370.31 407.834 A 2275.93 2275.93 0 0 0 1351.54 305.147 C 1346.86 282.031 1342.49 258.623 1334.87 236.25 C 1329.76 221.23 1322.68 205.617 1311.07 194.445 C 1302.02 185.736 1292.69 182.64 1280.42 182.811 z"/>
<path transform="translate(0,0)" fill="rgb(51,51,47)" d="M 1280.42 182.811 C 1292.69 182.64 1302.02 185.736 1311.07 194.445 C 1322.68 205.617 1329.76 221.23 1334.87 236.25 C 1342.49 258.623 1346.86 282.031 1351.54 305.147 A 2275.93 2275.93 0 0 1 1370.31 407.834 A 2781.44 2781.44 0 0 1 1394.69 575.645 C 1397.83 603.163 1401.51 630.798 1401.72 658.536 C 1402 696.936 1392.89 735.781 1371.59 768.089 C 1379.46 786.792 1392.28 816.262 1402.57 833.022 C 1416.05 854.978 1432.6 875.135 1446.01 897.298 C 1462.96 925.319 1479.76 954.217 1492.82 984.281 C 1524.01 1056.05 1540.98 1144.69 1510.59 1219.25 A 244.707 244.707 0 0 1 1499.58 1242.17 C 1508.66 1250.47 1517.25 1258.49 1524.03 1268.87 C 1554.21 1315.05 1568.32 1397.76 1570.61 1452.52 A 310.038 310.038 0 0 1 1569.96 1486.91 A 485.986 485.986 0 0 1 1533.84 1659.96 C 1527.74 1675.12 1518.44 1689.33 1512.91 1704.54 C 1513.3 1704.65 1513.68 1704.77 1514.06 1704.88 C 1553.56 1715.91 1625.78 1711.49 1649.07 1751.59 C 1655.45 1762.57 1656.57 1774.54 1659.51 1786.61 C 1664.97 1809.05 1676.14 1845.93 1670 1868.61 C 1667.98 1876.04 1664.14 1880.53 1657.45 1884.18 C 1631.64 1898.28 1599.23 1889.8 1571.31 1892.2 C 1552.25 1893.84 1532.45 1904.47 1513.28 1898.47 C 1503.6 1895.43 1495.32 1888.44 1485.49 1886.11 C 1465.21 1881.28 1441.24 1900.53 1418.45 1900.9 C 1400.13 1901.2 1381.57 1897.5 1363.24 1896.45 A 1471.91 1471.91 0 0 0 1249.68 1895.26 C 1236.75 1895.64 1223.46 1896.44 1210.78 1899.05 C 1196.22 1902.04 1181.79 1907.26 1166.83 1907.74 C 1143.85 1908.46 1121.73 1897.98 1098.48 1897.32 C 1068.21 1896.46 1037.81 1897.13 1007.53 1897.09 C 984.659 1897.06 961.478 1896.07 938.642 1897.18 C 919.56 1898.11 901.096 1904.32 881.969 1904.32 C 858.774 1904.32 836.396 1895.97 812.954 1896.04 C 786.862 1896.12 764.254 1909.76 738.92 1911.3 C 729.479 1911.87 719.879 1910.73 710.57 1909.24 C 670.494 1902.83 631.254 1899.22 590.62 1901.61 C 570.712 1902.78 548.211 1908.17 528.729 1906.53 C 515.482 1905.42 506.13 1896.93 493.842 1893.78 C 486.704 1891.95 479.23 1894.63 472.39 1891.27 C 468.226 1889.22 465.281 1885.36 463.307 1881.26 C 454.09 1862.11 455.811 1826.59 458.16 1805.49 C 460.01 1789.88 462.234 1771.16 471.482 1757.91 C 492.291 1728.08 563.175 1706.04 598.793 1699.2 C 598.572 1674.31 604.212 1657.01 613.908 1634.46 C 605.496 1624.27 597.201 1614.31 590.051 1603.15 C 536.113 1518.9 527.165 1388.78 547.92 1292.77 C 560.683 1233.72 584.502 1178.62 636.934 1144.77 C 615.266 1134.18 592.994 1119.73 575.598 1103.1 C 520.331 1050.26 505.105 972.375 497.027 899.599 A 1359.2 1359.2 0 0 1 489.371 774.006 A 720.401 720.401 0 0 0 480.801 672.202 C 470.557 606.192 452.763 534.763 459.29 467.694 A 108.94 108.94 0 0 1 499.323 392.631 C 530.012 367.571 590.569 348.244 630.342 352.351 C 674.799 356.942 713.001 390.62 739.986 423.957 C 740.079 376.527 750.124 330.619 759.753 284.438 C 765.018 259.185 773.528 225.64 796.996 210.966 C 807.394 204.464 818.981 203.725 830.696 206.505 C 890.136 220.609 968.781 307.139 1000 358.176 C 1043.48 352.158 1088.31 352.346 1132.1 353.461 C 1142.93 330.283 1155.62 308.698 1169.21 287.035 C 1192.65 249.634 1236.18 192.996 1280.42 182.811 z"/>
<path transform="translate(0,0)" fill="rgb(248,246,238)" d="M 1123.28 1064.76 C 1128.6 1062.83 1134.02 1061.03 1139.21 1058.76 C 1137.05 1065.19 1134.85 1071.09 1131.43 1076.99 C 1128.59 1074.35 1123.53 1068.8 1123.28 1064.76 z"/>
<path transform="translate(0,0)" fill="rgb(248,246,238)" d="M 1105.47 1034.22 C 1117.23 1033.11 1128.86 1031.86 1140.52 1029.97 C 1141.18 1035.85 1142.04 1041.75 1142.05 1047.67 C 1135.19 1050.48 1128.37 1053.11 1121.31 1055.37 C 1117.89 1046.75 1110.38 1041.8 1105.47 1034.22 z"/>
<path transform="translate(0,0)" fill="rgb(253,252,246)" d="M 1243.04 999.202 L 1243.4 999.412 C 1240.39 1005.32 1161.44 1039.6 1151.35 1043.8 C 1150.99 1038.56 1150.29 1033.36 1149.64 1028.15 C 1181.85 1021.55 1212.57 1011.45 1243.04 999.202 z"/>
<path transform="translate(0,0)" fill="rgb(253,252,246)" d="M 1224.94 949.794 C 1242.05 953.259 1252.01 965.506 1263.4 977.625 A 586.203 586.203 0 0 1 1232.62 991.888 C 1223.17 996.095 1213.54 999.827 1203.92 1003.61 C 1207.56 986.471 1214.72 963.891 1224.94 949.794 z"/>
<path transform="translate(0,0)" fill="rgb(183,213,220)" d="M 1355.01 922.771 C 1343.14 939.913 1331.96 957.608 1319.78 974.513 C 1307.28 991.844 1293.64 1008.34 1280.05 1024.81 C 1274.4 1015.52 1268.7 1005.7 1259.77 999.192 C 1275.3 985.234 1292.34 975.699 1309.15 963.617 C 1325.96 951.532 1340.54 937.485 1355.01 922.771 z"/>
<path transform="translate(0,0)" fill="rgb(253,252,246)" d="M 1078.65 965.501 C 1101.01 971.317 1119.56 984.469 1131.4 1004.55 C 1134.4 1009.64 1136.57 1014.93 1138.54 1020.48 C 1125.78 1022.86 1112.82 1023.82 1099.86 1024.32 C 1095.97 1012.01 1087.36 993.204 1081.11 981.996 C 1078.33 977.021 1074.52 972.839 1072.21 967.624 C 1074.14 965.447 1075.87 965.862 1078.65 965.501 z"/>
<path transform="translate(0,0)" fill="rgb(254,229,167)" d="M 765.228 911.712 C 777.479 916.231 796.972 937.485 808.648 945.722 C 866.32 986.408 908.726 1001.2 976.336 1017.57 L 974.872 1033.69 C 974.516 1033.7 974.158 1033.75 973.804 1033.71 C 960.945 1032.27 946.084 1025.8 933.771 1021.54 C 863.388 997.21 815.376 967.378 765.228 911.712 z"/>
<path transform="translate(0,0)" fill="rgb(254,229,167)" d="M 986.425 1020.21 C 1025.82 1030.63 1064.78 1034.75 1105.47 1034.22 C 1110.38 1041.8 1117.89 1046.75 1121.31 1055.37 C 1078.22 1063.36 1027.28 1046.22 984.956 1036.99 C 984.925 1031.25 985.6 1025.87 986.425 1020.21 z"/>
<path transform="translate(0,0)" fill="rgb(254,229,167)" d="M 986.778 952.565 C 996.239 957.748 1005.19 963.048 1015.74 965.601 C 998.016 977.102 987.092 989.931 978.908 1009.34 A 2337.05 2337.05 0 0 1 935.852 997.087 C 925.343 994.165 914.298 990.835 904.102 986.984 C 900.45 985.605 898.296 984.132 896.684 980.575 L 897.642 979.35 C 898.15 979.176 923.786 981.222 930.371 980.635 C 952.982 978.619 972.035 969.966 986.778 952.565 z"/>
<path transform="translate(0,0)" fill="rgb(183,213,220)" d="M 1362.63 780.778 C 1363.25 786.365 1354.5 823.669 1352.76 831.061 C 1349.77 843.771 1345.04 858.045 1333.09 864.988 C 1317.58 874.005 1295.48 868.913 1279.29 864.583 L 1269.77 861.1 C 1314.76 834.366 1330.11 820.469 1362.63 780.778 z"/>
<path transform="translate(0,0)" fill="rgb(254,229,167)" d="M 955.804 911.924 C 957.709 915.036 958.653 918.643 960.291 921.906 C 965.063 931.416 971.975 939.314 979.151 947.049 C 977.405 949.189 975.625 951.292 973.562 953.138 C 958.31 966.785 936.799 972.207 916.752 971.491 C 909.811 970.979 903.435 969.963 896.646 968.407 A 814.354 814.354 0 0 1 889.214 938.037 A 126.394 126.394 0 0 0 893.969 938.188 C 917.896 938.448 939.053 928.597 955.804 911.924 z"/>
<path transform="translate(0,0)" fill="rgb(254,229,167)" d="M 856.798 863.239 C 869.722 865.399 883.283 875.001 895.74 879.623 C 915.522 886.962 936.239 892.355 956.803 896.98 C 951.875 903.627 946.602 909.164 940.095 914.256 C 926.532 923.675 912.24 927.345 896.057 929.41 A 31.6632 31.6632 0 0 1 888.004 925.111 C 869.527 911.419 860.519 884.92 856.798 863.239 z"/>
<path transform="translate(0,0)" fill="rgb(254,229,167)" d="M 773.841 792.775 C 780.587 798.94 785.686 807.632 792.175 814.283 C 809.584 832.127 829.066 845.489 850.282 858.242 C 843.004 863.732 835.367 868.324 827.538 872.96 C 811.573 881.822 794.863 888.127 777.891 894.721 C 780.32 859.733 780.135 827.487 773.841 792.775 z"/>
<path transform="translate(0,0)" fill="rgb(253,252,246)" d="M 1125.34 907.536 C 1160.84 903.647 1193.21 896.172 1226.54 883.317 C 1227.59 889.934 1229.05 906.826 1232.16 911.978 C 1232.09 912.588 1232.02 913.199 1231.94 913.807 C 1230.54 924.246 1226.32 936.162 1217.5 942.508 C 1209.33 948.383 1197.99 948.593 1188.37 947.154 C 1165.01 943.661 1139.31 926.235 1125.34 907.536 z"/>
<path transform="translate(0,0)" fill="rgb(254,229,167)" d="M 1029.65 959.635 C 1023.25 956.378 1015.54 954.814 1008.76 952.398 C 989.985 945.714 973.743 931.35 965.73 912.913 C 964.1 909.164 963.397 905.469 965.015 901.71 C 971.75 900.398 987.153 904.524 994.755 905.589 C 1014.37 908.336 1034.05 909.427 1053.8 910.677 C 1063.6 925.47 1072.22 939.141 1079.35 955.486 C 1062.68 953.585 1045.91 956.032 1029.65 959.635 z"/>
<path transform="translate(0,0)" fill="rgb(254,229,167)" d="M 989.215 1010.59 A 70.2424 70.2424 0 0 1 1010.62 980.595 C 1029.05 965.479 1055.81 963.429 1078.65 965.501 C 1075.87 965.862 1074.14 965.447 1072.21 967.624 C 1074.52 972.839 1078.33 977.021 1081.11 981.996 C 1087.36 993.204 1095.97 1012.01 1099.86 1024.32 C 1063.09 1026.08 1024.6 1020.4 989.215 1010.59 z"/>
<path transform="translate(0,0)" fill="rgb(183,213,220)" d="M 1370.6 790.808 C 1376.28 796.891 1386.8 821.56 1389.91 830.158 C 1376.92 859.24 1356.96 890.122 1329.78 907.818 C 1319.61 914.438 1303.36 920.844 1291.1 917.82 C 1283.77 916.014 1280.86 910.796 1277.12 904.85 C 1269.99 892.434 1263.49 881.532 1253.68 870.953 L 1253.88 869.406 C 1260.55 867.016 1274.06 873.7 1280.94 875.372 C 1299.28 879.83 1322.39 883.439 1339.26 872.607 C 1362.44 857.714 1365 815.636 1370.6 790.808 z"/>
<path transform="translate(0,0)" fill="rgb(183,213,220)" d="M 1278.58 924.214 L 1279.99 924.635 C 1296.58 929.484 1313.82 927.669 1328.96 919.251 C 1341.39 912.345 1352.66 902.394 1362.03 891.775 C 1366.97 886.18 1371.74 880.259 1375.98 874.111 C 1380.22 867.948 1389.1 847.784 1395.71 845.578 C 1394.19 853.153 1386.04 863.569 1381.84 870.244 C 1376.58 878.602 1371.87 887.32 1366.17 895.391 C 1347.94 921.173 1323.11 940.652 1297.08 958.056 C 1288.81 963.587 1280.25 969.023 1271.38 973.543 C 1261.2 959.012 1247.93 947.985 1231.04 941.931 C 1234.5 935.636 1243.13 922.492 1241.03 915.116 C 1240.59 913.543 1240.02 912.45 1238.51 911.883 C 1236.03 910.957 1234.61 911.091 1232.16 911.978 C 1229.05 906.826 1227.59 889.934 1226.54 883.317 A 810.485 810.485 0 0 0 1243.2 875.249 C 1250.43 881.65 1256.62 887.839 1261.62 896.177 C 1267 905.172 1271.22 916.71 1278.58 924.214 z"/>
<path transform="translate(0,0)" fill="rgb(254,229,167)" d="M 847.973 872.132 C 851.335 875.404 854.364 893.146 857.002 899.103 C 862.961 912.561 873.34 922.099 880.314 934.61 C 878.479 948.664 886.263 966.377 888.785 980.545 C 872.655 973.304 857.616 964.985 842.472 955.884 C 818.259 942.312 795.516 924.072 775.236 905.232 C 802.68 894.212 822.069 887.99 847.973 872.132 z"/>
<path transform="translate(0,0)" fill="rgb(254,229,167)" d="M 731.479 681.657 L 732.296 682.417 C 734.787 690.275 735.745 699.05 737.401 707.147 C 741.056 725.014 745.85 741.729 753.532 758.296 C 756.102 763.84 765.155 778.074 764.034 783.478 C 761.556 795.422 767.689 811.16 768.863 823.659 C 771.148 847.983 772.29 874.217 768.544 898.387 L 767.276 898.463 C 761.277 890.911 755.223 883.382 750.023 875.245 C 716.447 822.706 718.642 740.996 731.479 681.657 z"/>
<path transform="translate(0,0)" fill="rgb(254,229,167)" d="M 985.203 1047.17 C 1028.1 1057 1079.18 1073.83 1123.28 1064.76 C 1123.53 1068.8 1128.59 1074.35 1131.43 1076.99 L 1130.99 1077.69 C 1120.59 1094.03 1107.17 1106.42 1087.68 1110.5 C 1064.1 1115.43 1036.91 1112.25 1016.68 1098.62 C 998.209 1086.18 989.281 1068.54 985.203 1047.17 z"/>
<path transform="translate(0,0)" fill="rgb(253,252,246)" d="M 1053.8 910.677 C 1074.22 910.944 1094.35 909.577 1114.73 908.642 C 1130.8 931.029 1154.63 950.416 1182.47 955.138 C 1192.37 956.819 1201.97 956.349 1211.9 955.166 C 1204.47 972.211 1197.56 989.128 1193.96 1007.46 C 1178.46 1011.96 1162.71 1015.12 1147.1 1019.16 C 1137.94 993.832 1121.69 973.079 1096.87 961.526 C 1091.27 958.923 1085.32 957.001 1079.35 955.486 C 1072.22 939.141 1063.6 925.47 1053.8 910.677 z"/>
<path transform="translate(0,0)" fill="rgb(253,252,246)" d="M 1509.05 1713.36 L 1510.67 1713.77 C 1540.89 1721.15 1602.96 1723.84 1627.19 1741.31 L 1627.35 1742.83 C 1605.2 1750.67 1574.22 1748.31 1550.68 1748.86 A 6767.02 6767.02 0 0 1 1463.25 1750.33 A 28342.9 28342.9 0 0 1 1126.25 1752.88 C 1126.7 1749.96 1144.71 1739.85 1147.92 1737.17 C 1160.24 1737.03 1198.33 1739.53 1206.89 1736.31 C 1209.05 1735.5 1210.67 1734.14 1212.38 1732.65 C 1221.71 1736.18 1230.65 1738.11 1240.57 1739.24 C 1283.11 1744.07 1452.68 1745.12 1488.78 1728.65 C 1496.63 1725.07 1503.09 1719.49 1509.05 1713.36 z"/>
<path transform="translate(0,0)" fill="rgb(253,252,246)" d="M 1259.77 999.192 C 1268.7 1005.7 1274.4 1015.52 1280.05 1024.81 C 1247.55 1062.57 1218.13 1097.05 1192.29 1139.93 C 1185.23 1133.29 1178.89 1125.5 1172.31 1118.36 C 1161.29 1106.41 1149.86 1094.67 1139.68 1082.01 C 1143.97 1073.04 1146.91 1064.16 1149.2 1054.5 C 1187.09 1040.07 1227.15 1023.38 1259.77 999.192 z"/>
<path transform="translate(0,0)" fill="rgb(253,252,246)" d="M 814.239 214.326 C 818.522 214.398 822.81 214.741 827.008 215.598 C 884.646 227.35 957.48 311.258 989.575 359.121 C 983.422 360.002 977.27 360.834 971.178 362.079 C 937.748 323.863 906.999 283.864 865.719 253.458 C 853.058 244.132 832.26 230.06 815.7 233.011 C 806.926 234.575 802.61 239.379 797.608 246.27 C 767.778 299.037 770.342 406.25 773.993 466.117 C 764.906 476.02 755.338 488.301 744.53 496.239 C 745.126 482.675 746.972 469.14 747.799 455.571 C 749.108 434.094 748.882 412.594 750.718 391.142 C 753.894 354.048 768.75 259.723 787.946 231.958 C 794.604 222.328 802.722 216.468 814.239 214.326 z"/>
<path transform="translate(0,0)" fill="rgb(183,213,220)" d="M 1428.6 1257.09 C 1443.06 1246.82 1458.2 1240.7 1476.23 1243.91 C 1493.34 1246.96 1506.36 1259.24 1515.65 1273.27 C 1545.33 1318.13 1560.89 1408.92 1561.03 1462.36 C 1556.32 1453.73 1551.46 1445.31 1547.49 1436.29 C 1543.43 1427.07 1540.35 1416.05 1534.71 1407.75 C 1534.04 1411.19 1533.31 1412.6 1530.45 1414.53 C 1527.89 1414.63 1528.06 1414.63 1526.14 1412.93 C 1522.92 1404.96 1523.46 1395.28 1523.08 1386.75 C 1509.29 1375.22 1500.27 1350.53 1489.87 1335.19 C 1473.36 1310.82 1448.81 1278.22 1428.6 1257.09 z"/>
<path transform="translate(0,0)" fill="rgb(51,51,47)" d="M 1523.08 1386.75 C 1520.97 1368.97 1516.64 1351.25 1509.2 1334.9 C 1506.41 1328.79 1502.06 1323.11 1500.12 1316.69 C 1499.17 1313.52 1498.96 1311.06 1500.29 1307.93 C 1501.93 1307.01 1501.56 1306.73 1503.12 1307.28 C 1511.26 1310.15 1519.02 1331.45 1522.11 1339.39 C 1527.71 1353.8 1531.53 1369.58 1532.87 1384.99 C 1533.48 1392.13 1532.62 1401.02 1534.71 1407.75 C 1534.04 1411.19 1533.31 1412.6 1530.45 1414.53 C 1527.89 1414.63 1528.06 1414.63 1526.14 1412.93 C 1522.92 1404.96 1523.46 1395.28 1523.08 1386.75 z"/>
<path transform="translate(0,0)" fill="rgb(254,229,167)" d="M 487.168 1754.98 C 519.947 1729.23 560.263 1717.49 600.216 1708.38 C 602.001 1716.42 603.97 1724.08 609.849 1730.24 C 622.381 1743.38 653.91 1742.82 670.96 1744.05 C 734.156 1748.6 796.955 1746.43 860.139 1743.07 C 885.729 1741.7 911.386 1739.22 936.997 1738.61 C 1007.23 1736.94 1077.66 1737.47 1147.92 1737.17 C 1144.71 1739.85 1126.7 1749.96 1126.25 1752.88 C 1097.38 1754.22 1068.15 1753.63 1039.24 1753.94 A 14351.1 14351.1 0 0 1 856.546 1754.99 L 716.501 1756.48 A 10411.1 10411.1 0 0 1 487.168 1754.98 z"/>
<path transform="translate(0,0)" fill="rgb(183,213,220)" d="M 1279.98 218.955 C 1284.39 219.038 1286.75 220.029 1290.01 223.057 C 1311.49 243.02 1326.17 335.423 1329.63 366.926 C 1332.38 391.989 1333.39 417.295 1334.7 442.468 A 310.247 310.247 0 0 0 1274.46 395.094 C 1241.91 375.983 1206.73 365.612 1170.14 357.608 C 1177.59 343.634 1183.54 328.893 1191.27 315.03 C 1209.39 282.503 1244.75 231.401 1279.98 218.955 z"/>
<path transform="translate(0,0)" fill="rgb(253,252,246)" d="M 816.778 241.972 C 818.202 241.94 819.582 242.007 820.999 242.165 C 865.316 247.103 934.376 330.822 960.646 364.494 C 927.196 372.188 896.839 381.922 865.707 396.494 C 834.089 412.54 808.675 433.593 783.061 457.708 C 783.214 441.336 781.493 424.883 781.109 408.503 C 780.096 365.362 783.421 321.679 794.86 279.952 C 798.541 266.526 803.971 249.254 816.778 241.972 z"/>
<path transform="translate(0,0)" fill="rgb(254,229,167)" d="M 1198.7 1146.91 C 1221.36 1176.6 1241.05 1207.44 1259.49 1239.92 C 1267.42 1253.88 1275.61 1267.64 1281.77 1282.51 C 1287.24 1295.71 1292.46 1309.4 1296.65 1323.06 C 1299.27 1331.61 1301.02 1340.56 1303.92 1348.98 C 1304.65 1351.09 1305.66 1352.6 1307.31 1354.1 C 1309.53 1360.12 1300.22 1403.35 1297.37 1411.83 C 1282.21 1412.18 1268.3 1410.95 1253.54 1407.39 C 1265.02 1380.56 1274.46 1353.6 1279.52 1324.75 C 1280.19 1320.93 1281.88 1314.26 1280.74 1310.53 C 1279.77 1307.32 1278.44 1305.49 1275.52 1303.92 L 1273.86 1304.48 C 1268.33 1311.06 1269.19 1328.71 1267.52 1337.37 C 1263.12 1360.15 1253.07 1382.87 1244.88 1404.58 A 239.451 239.451 0 0 1 1213.05 1390.92 C 1217.01 1383.54 1234.01 1349.85 1234.08 1342.7 C 1234.1 1341.23 1233.23 1340.75 1232.34 1339.71 C 1230.94 1339.2 1229.96 1338.42 1228.48 1338.97 C 1226.18 1339.82 1224.79 1341.77 1223.59 1343.81 C 1220.39 1349.22 1219.18 1355.64 1216.82 1361.43 C 1213.33 1369.99 1208.71 1378.33 1204.59 1386.62 A 129.343 129.343 0 0 1 1183.49 1373.75 C 1188.96 1355.27 1196.15 1336.2 1203.56 1318.42 C 1206.55 1311.22 1211.92 1302.91 1213.9 1295.51 C 1214.55 1293.07 1214.17 1292.58 1212.96 1290.61 C 1210.55 1290.14 1209.87 1289.99 1207.53 1291.03 C 1204.74 1292.27 1203.76 1294.06 1202.66 1296.75 C 1199.88 1303.53 1196.35 1309.97 1193.48 1316.71 C 1186.52 1333.09 1180.16 1350.5 1174.87 1367.49 C 1163.55 1358.23 1153.52 1346.15 1149.96 1331.71 C 1138.26 1284.35 1173.22 1188.83 1198.7 1146.91 z"/>
<path transform="translate(0,0)" fill="rgb(183,213,220)" d="M 1142.26 354.489 C 1166.16 304.907 1195.53 258.614 1235.83 220.653 C 1246.32 210.778 1258.27 200.08 1272.05 195.107 C 1280.64 192.006 1288.94 192.054 1297.2 196.117 C 1313.8 204.284 1323.13 231.598 1328.25 247.974 C 1337.8 278.489 1343.28 310.799 1349.21 342.214 A 3260.36 3260.36 0 0 1 1376.25 509.891 C 1380.4 539.879 1383.5 570.109 1388.16 600.009 C 1365.09 561.132 1329.3 503.523 1294.78 474.994 C 1282.18 464.576 1267.83 456.408 1251.93 452.313 C 1218.56 443.718 1181.11 450.671 1151.78 468.164 A 340.854 340.854 0 0 0 1146.94 471.113 C 1147.07 435.478 1146.8 401.035 1155.18 366.123 L 1156.54 366.23 C 1208.32 370.755 1258.8 393.108 1299.64 424.538 C 1304.3 428.122 1335.48 457.045 1337.64 457.644 C 1338.54 457.891 1339.47 457.359 1340.39 457.217 C 1345.29 451.926 1342.97 420.014 1342.65 411.439 C 1341.04 368.92 1326.22 243.321 1297.1 215.538 C 1292.54 211.188 1287.46 208.541 1281.03 208.868 C 1260.32 209.92 1236.28 237.249 1223.94 251.777 A 404.025 404.025 0 0 0 1160.32 356.373 C 1154.31 355.645 1148.31 354.873 1142.26 354.489 z"/>
<path transform="translate(0,0)" fill="rgb(253,252,246)" d="M 1286.75 1031.16 L 1287.35 1032.19 C 1301.79 1057.22 1313.37 1084.32 1326.65 1110 C 1334.67 1125.51 1344.25 1141.21 1353.73 1155.87 C 1366.99 1176.37 1380.96 1196.72 1396.02 1215.94 C 1404.64 1226.94 1415.75 1237.52 1422.85 1249.41 C 1404.47 1265.81 1389.49 1283.34 1378.19 1305.36 C 1358.25 1344.24 1355.04 1391.9 1308.26 1409.16 C 1310.92 1394.97 1319.28 1363.32 1315.8 1350.84 C 1313.82 1348.85 1313.95 1348.93 1311.14 1348.82 C 1308.58 1350.31 1308.49 1351.46 1307.31 1354.1 C 1305.66 1352.6 1304.65 1351.09 1303.92 1348.98 C 1301.02 1340.56 1299.27 1331.61 1296.65 1323.06 C 1292.46 1309.4 1287.24 1295.71 1281.77 1282.51 C 1275.61 1267.64 1267.42 1253.88 1259.49 1239.92 C 1241.05 1207.44 1221.36 1176.6 1198.7 1146.91 C 1223.65 1104.11 1254.15 1068.22 1286.75 1031.16 z"/>
<path transform="translate(0,0)" fill="rgb(253,252,246)" d="M 1365.02 1564.41 C 1395.72 1562.2 1426.89 1568.02 1451.71 1587.19 C 1480.2 1609.19 1500.19 1650.59 1504.44 1685.88 C 1505.49 1694.59 1504.79 1702.71 1499 1709.68 C 1486.46 1724.74 1463.43 1726.51 1445.32 1728.47 C 1444.87 1717.46 1442.93 1704.18 1440.66 1693.31 C 1440.09 1690.57 1439.13 1688.77 1436.8 1687.14 C 1434.05 1686.91 1433.76 1686.8 1431.39 1688.16 C 1428.49 1693.93 1435.21 1721.15 1436.69 1728.91 C 1409.49 1730.62 1382.27 1731.2 1355.04 1732.09 A 1311.75 1311.75 0 0 1 1266.57 1731.28 C 1265.95 1719.09 1268.27 1700.59 1266.97 1690.56 C 1266.49 1686.83 1265.52 1684.83 1262.5 1682.59 C 1261.3 1682.81 1260.51 1682.67 1259.64 1683.64 C 1254.6 1689.28 1256.09 1722.61 1256.64 1731.11 C 1248.53 1730.86 1229.98 1731.47 1223.71 1725.77 C 1219.71 1722.13 1219.1 1713.58 1218.64 1708.37 C 1216.07 1679.02 1224.43 1650.89 1243.53 1628.25 A 178.903 178.903 0 0 1 1365.02 1564.41 z"/>
<path transform="translate(0,0)" fill="rgb(51,51,47)" d="M 1343.86 1685.44 C 1344.79 1685.5 1346.72 1685.6 1347.58 1685.83 C 1349.05 1686.22 1349.91 1686.94 1350.69 1688.19 C 1355.26 1695.54 1350.1 1720.62 1347.86 1729.1 C 1345 1728.93 1343.05 1728.93 1340.63 1727.18 C 1338.57 1720.82 1341.39 1692.07 1343.86 1685.44 z"/>
<path transform="translate(0,0)" fill="rgb(51,51,47)" d="M 1302.52 1644.47 C 1305.27 1644.41 1307.14 1644.34 1309.67 1645.67 C 1315.52 1658.93 1315.13 1714.65 1310.06 1728.81 C 1307.71 1728.73 1305.88 1728.36 1303.63 1727.66 C 1301.97 1725.19 1301.91 1723.85 1301.89 1720.83 C 1301.81 1707.89 1303.47 1694.73 1303.46 1681.66 C 1303.45 1669.34 1301.62 1656.71 1302.52 1644.47 z"/>
<path transform="translate(0,0)" fill="rgb(51,51,47)" d="M 1384.16 1640.51 C 1386.71 1640.71 1388.65 1641.16 1391.05 1641.94 C 1393.1 1644.56 1393.11 1645.66 1393.57 1648.98 C 1395.57 1663.44 1395.43 1678.45 1396.82 1693.02 C 1397.87 1704.07 1401.91 1717.61 1400.85 1728.53 C 1399.07 1728.56 1394.91 1728.96 1393.67 1727.69 C 1385.8 1719.71 1383.36 1652.98 1384.16 1640.51 z"/>
<path transform="translate(0,0)" fill="rgb(254,229,167)" d="M 477.578 1764.77 L 1116.57 1762.24 C 1116.15 1762.3 1115.72 1762.34 1115.3 1762.4 C 1098.96 1764.7 1081.99 1774.77 1066.56 1780.63 C 1039.47 1790.92 1011.55 1800.71 983.638 1808.42 A 1011.59 1011.59 0 0 1 833.125 1839 C 725.387 1852.04 606.758 1847.2 501.526 1820.43 C 490.037 1817.51 478.198 1814.87 466.962 1811.14 C 467.722 1795.72 472.129 1779.15 477.578 1764.77 z"/>
<path transform="translate(0,0)" fill="rgb(254,229,167)" d="M 771.386 1580.42 C 784.036 1579.25 797.626 1579.89 810.233 1581.03 C 846.599 1584.33 883.955 1596.88 907.891 1625.88 C 932.574 1655.78 935.707 1691.48 932.288 1728.73 C 916.684 1730.64 900.803 1730.71 885.128 1732.24 C 885.045 1718.69 886.454 1666.04 879.975 1657.02 C 877.862 1656.14 878 1656.05 875.879 1656.87 C 875.326 1657.53 874.6 1658.08 874.221 1658.85 C 873.009 1661.33 875.472 1725.14 875.622 1732.9 C 862.441 1733.86 849.289 1734.87 836.071 1735.12 C 835.516 1724.38 836.242 1712.77 834.983 1702.22 C 834.476 1697.97 833.732 1693.91 830.275 1691.09 L 828.51 1691.43 C 822.755 1699.1 825.886 1724.99 825.661 1735.43 C 817.35 1736.16 808.863 1736.09 800.521 1736.33 C 794.551 1710.67 790.405 1682.85 790.792 1656.49 C 790.917 1647.98 793.732 1625.13 790.295 1619.03 C 789.535 1617.68 788.891 1618 787.523 1617.78 C 785.964 1618.68 784.914 1619.39 783.878 1620.92 C 776.821 1631.36 783.055 1693.84 785.295 1708.84 L 790.396 1736.95 L 749.443 1737.4 C 747.222 1729.49 745.416 1721.66 744.355 1713.49 C 743.199 1704.6 743.486 1693.31 740.254 1684.98 C 739.445 1682.9 739.181 1682.75 737.262 1681.84 C 735.82 1682.4 735.582 1682.29 734.524 1683.57 C 727.927 1691.52 736.956 1727.72 738.868 1737.87 C 730.129 1737.2 721.331 1737.12 712.571 1736.89 C 709.748 1723.3 706.123 1710.15 704.023 1696.36 C 702.038 1683.33 701.656 1670.61 700.589 1657.52 C 700.25 1653.37 700.234 1648.1 696.817 1645.21 C 694.143 1645.38 694.018 1645.69 691.938 1647.45 C 686.57 1665.59 697.291 1716.46 702.087 1736.17 C 690.881 1735.58 679.647 1735.15 668.498 1733.83 C 666.219 1724.7 666.81 1715.03 664.613 1706.19 C 663.985 1703.66 663.631 1703.71 661.457 1702.56 C 658.425 1702.75 657.793 1702.77 655.287 1704.42 C 652.543 1712.14 657.186 1725.51 658.9 1733.45 C 647.102 1732.35 628.111 1732.08 618.629 1724.13 C 611.154 1717.85 608.739 1707.57 608.189 1698.26 A 96.624 96.624 0 0 1 632.685 1627.59 C 663.206 1593.5 727.089 1583.05 771.386 1580.42 z"/>
<path transform="translate(0,0)" fill="rgb(183,213,220)" d="M 1286.75 1031.16 C 1309.92 1003.17 1330.94 974.793 1351.47 944.831 C 1371.9 915 1391.27 885.532 1403.52 851.23 C 1465.75 939.095 1532.93 1058.82 1513.91 1170.62 C 1509.83 1194.61 1502.02 1216.01 1490.83 1237.53 C 1473.85 1231.29 1455.93 1231.74 1439.4 1239.27 C 1433.68 1241.87 1427.61 1245.29 1422.85 1249.41 C 1415.75 1237.52 1404.64 1226.94 1396.02 1215.94 C 1380.96 1196.72 1366.99 1176.37 1353.73 1155.87 C 1344.25 1141.21 1334.67 1125.51 1326.65 1110 C 1313.37 1084.32 1301.79 1057.22 1287.35 1032.19 L 1286.75 1031.16 z"/>
<path transform="translate(0,0)" fill="rgb(51,51,47)" d="M 1457.02 1068.65 C 1458.12 1068.68 1460.03 1068.58 1461.16 1068.89 C 1463.17 1069.44 1463.66 1070.42 1464.47 1072.25 C 1468.68 1081.79 1465.39 1108.32 1461.86 1118.2 C 1458.87 1117.92 1456.9 1117.87 1454.5 1115.84 C 1454.9 1107.03 1455.1 1074.64 1457.02 1068.65 z"/>
<path transform="translate(0,0)" fill="rgb(51,51,47)" d="M 1423.8 1093.2 C 1424.22 1093.3 1424.64 1093.38 1425.05 1093.5 C 1427.53 1094.27 1428.85 1095.56 1429.92 1097.88 C 1436.53 1112.22 1433.92 1146.39 1428.92 1161.3 C 1427.5 1161.24 1426.34 1161.05 1424.93 1160.74 C 1422.71 1160.26 1423.19 1160.24 1422.09 1158.49 C 1421.57 1148.24 1424.45 1138.16 1424.59 1127.95 C 1424.74 1117.04 1419.87 1103.43 1423.8 1093.2 z"/>
<path transform="translate(0,0)" fill="rgb(51,51,47)" d="M 1362.16 1053.43 C 1362.51 1053.53 1362.88 1053.6 1363.22 1053.74 C 1367.13 1055.29 1369.3 1059.82 1370.97 1063.41 C 1379 1080.7 1384.34 1113.59 1377.52 1131.74 C 1377.4 1131.75 1377.28 1131.77 1377.16 1131.77 C 1374.41 1131.83 1373.46 1132.11 1371.35 1130.29 C 1369.54 1122.34 1371.13 1113.81 1371.1 1105.71 C 1371.07 1098.91 1369.42 1091.37 1367.8 1084.78 C 1365.56 1075.69 1358.17 1062.07 1362.16 1053.43 z"/>
<path transform="translate(0,0)" fill="rgb(51,51,47)" d="M 1406.02 984.279 C 1407.1 984.549 1408.62 984.842 1409.59 985.463 C 1422.19 993.529 1433.04 1028.75 1434.96 1042.98 C 1435.74 1048.7 1436.27 1051.81 1432.65 1056.56 C 1431.23 1055.96 1429.24 1055.07 1428.24 1053.87 C 1424.62 1049.54 1420.18 1019.37 1415.57 1009.88 C 1412.2 1002.94 1405.63 998.076 1402.45 990.858 C 1402.83 987.738 1404.11 986.719 1406.02 984.279 z"/>
<path transform="translate(0,0)" fill="rgb(51,51,47)" d="M 1385.46 1015.29 C 1386.81 1015.34 1388.44 1015.29 1389.68 1015.9 C 1397.74 1019.89 1407.46 1043.49 1410.54 1051.75 C 1416.81 1068.58 1419.42 1090.21 1411.74 1107.02 C 1409.2 1107.64 1407.94 1108.1 1405.41 1107.1 C 1401.97 1101.42 1407.4 1075.6 1404.36 1063.8 C 1400.75 1049.84 1386.85 1029.68 1385.14 1021.8 C 1384.64 1019.53 1385.02 1017.53 1385.46 1015.29 z"/>
<path transform="translate(0,0)" fill="rgb(51,51,47)" d="M 1405.14 926.272 C 1406.32 926.83 1407.36 927.324 1408.37 928.174 C 1414.27 933.148 1419.29 940.494 1423.7 946.757 C 1443.36 974.663 1458.15 1008.28 1462.19 1042.45 C 1462.77 1047.34 1463.68 1051.47 1460.49 1055.5 C 1458.47 1055.62 1456.37 1055.96 1454.5 1055.06 C 1454.2 1054.92 1453.87 1054.79 1453.68 1054.52 C 1451.82 1051.83 1452.08 1044.18 1451.65 1040.65 C 1450.35 1029.96 1447.42 1019.27 1444.11 1009.04 C 1438.05 990.326 1430.21 974.011 1419.07 957.672 C 1413.64 949.692 1405.95 941.465 1402.14 932.648 C 1402.37 929.583 1403.37 928.728 1405.14 926.272 z"/>
<path transform="translate(0,0)" fill="rgb(253,252,246)" d="M 1428.6 1257.09 C 1448.81 1278.22 1473.36 1310.82 1489.87 1335.19 C 1500.27 1350.53 1509.29 1375.22 1523.08 1386.75 C 1523.46 1395.28 1522.92 1404.96 1526.14 1412.93 C 1528.06 1414.63 1527.89 1414.63 1530.45 1414.53 C 1533.31 1412.6 1534.04 1411.19 1534.71 1407.75 C 1540.35 1416.05 1543.43 1427.07 1547.49 1436.29 C 1551.46 1445.31 1556.32 1453.73 1561.03 1462.36 C 1563.45 1538.41 1545.61 1613.49 1513.53 1682.15 C 1504.83 1639.72 1487.86 1600.41 1450.54 1575.49 C 1419.29 1554.62 1379.33 1550.67 1343.11 1557.98 C 1316.76 1563.29 1291.71 1575.66 1269.6 1590.69 C 1269.54 1587.34 1271.48 1584.38 1272.86 1581.42 C 1281.47 1562.88 1289.43 1544.47 1295.8 1525.02 C 1307.42 1489.58 1311.37 1453.7 1314.08 1416.73 C 1363.29 1397.55 1365.71 1349.82 1386.75 1308.83 C 1397.33 1288.21 1411.01 1272.03 1428.6 1257.09 z"/>
<path transform="translate(0,0)" fill="rgb(51,51,47)" d="M 1536.74 1431.44 C 1537.28 1431.95 1537.7 1432.3 1538.16 1432.94 C 1542.8 1439.33 1541.96 1456.85 1540.62 1464.39 C 1539.82 1468.83 1538.34 1469.79 1534.8 1472.11 L 1532.08 1470.42 C 1529.78 1464.08 1534.44 1438.65 1536.74 1431.44 z"/>
<path transform="translate(0,0)" fill="rgb(51,51,47)" d="M 1468.43 1410.33 C 1469.55 1410.65 1470.58 1410.88 1471.63 1411.42 C 1474.19 1412.71 1475.7 1416.91 1476.69 1419.42 C 1484.16 1438.39 1490.62 1494.48 1482.3 1513.69 C 1479.77 1513.39 1478.4 1513.41 1476.45 1511.6 C 1473.67 1506.36 1475.22 1499.11 1476.03 1493.44 C 1479.46 1469.7 1472.95 1443.84 1467.35 1420.93 C 1466.19 1416.22 1465.79 1414.68 1468.43 1410.33 z"/>
<path transform="translate(0,0)" fill="rgb(51,51,47)" d="M 1491.84 1363.37 C 1493.52 1363.71 1494.21 1363.96 1495.65 1364.75 C 1502.29 1374.83 1505.04 1390.82 1507.58 1402.65 C 1510.66 1416.95 1517 1460.89 1509.17 1473.03 C 1506.99 1472.64 1505.24 1472.42 1503.24 1471.4 C 1500.26 1461.83 1503.64 1437.35 1502.11 1424.83 C 1500.79 1413.94 1498.31 1402.44 1495.15 1391.96 C 1493.06 1385.03 1488.82 1376.07 1488.25 1369.03 C 1488.01 1366.09 1489.91 1365.21 1491.84 1363.37 z"/>
<path transform="translate(0,0)" fill="rgb(253,252,246)" d="M 498.702 765.119 A 742.089 742.089 0 0 0 490.219 673.668 C 481.4 615.281 457.404 509.117 471.25 453.432 C 477.973 426.391 496.322 403.789 520.108 389.716 C 553.419 370.009 605.08 355.037 643.29 364.889 C 679.019 374.102 720.857 408.496 739.277 439.869 C 738.426 492.165 726.986 546.547 724.725 599.421 C 723.112 608.107 720.002 610.315 712.899 615.163 C 700.18 623.843 686.178 631.114 672.96 639.045 C 646.432 654.961 619.893 671.222 594.574 689.005 A 1035.9 1035.9 0 0 0 533.935 735.901 C 522.31 745.589 510.987 756.33 498.702 765.119 z"/>
<path transform="translate(0,0)" fill="rgb(51,51,47)" d="M 513.997 438.992 C 516.011 438.931 518.095 438.991 520.088 439.318 C 524.469 440.036 529.034 443.414 531.467 447.07 C 536.086 454.012 535.974 464.907 534.393 472.742 A 56.178 56.178 0 0 1 510.438 508.319 C 507.636 509.355 505.006 510.253 501.97 509.482 C 498.67 508.644 495.791 506.681 494.051 503.722 C 488.799 494.791 490.472 478.751 493.19 469.04 C 496.564 456.991 502.781 445.213 513.997 438.992 z"/>
<path transform="translate(0,0)" fill="rgb(253,252,246)" d="M 514.567 449.763 C 517.348 449.456 519.547 449.918 521.834 451.565 C 524.659 453.599 525.897 456.308 526.266 459.702 C 527.801 473.821 518.249 487.028 510.193 497.664 C 509.32 498.079 507.847 498.845 506.914 498.984 C 504.363 499.365 503.188 498.345 501.35 496.928 C 500.141 493.921 499.824 491.408 499.847 488.157 C 499.943 475.015 505.004 458.942 514.567 449.763 z"/>
<path transform="translate(0,0)" fill="rgb(51,51,47)" d="M 629.635 414.645 C 630.523 414.694 631.534 414.709 632.403 414.927 C 637.661 416.247 643.224 421.428 645.597 426.243 C 651.416 438.045 650.042 454.778 645.984 466.986 C 641.979 479.037 635.592 490.675 623.92 496.574 A 31.2111 31.2111 0 0 1 621.888 496.697 C 617.948 496.8 613.535 494.071 610.867 491.308 C 605.848 486.111 605.003 476.766 605.166 469.931 C 605.591 452.103 616.688 426.743 629.635 414.645 z"/>
<path transform="translate(0,0)" fill="rgb(253,252,246)" d="M 632.061 424.786 C 633.253 425.714 634.508 426.898 635.428 428.114 C 640.432 434.725 640.883 443.45 639.987 451.36 C 638.438 465.036 632.373 478.762 621.604 487.491 C 621.226 487.23 620.833 486.99 620.47 486.709 C 616.855 483.911 615.13 480.164 614.514 475.692 C 612.535 461.331 623.242 436.339 632.061 424.786 z"/>
<path transform="translate(0,0)" fill="rgb(51,51,47)" d="M 567.003 417.02 C 568.521 417.25 570.035 417.463 571.526 417.838 C 576.973 419.208 580.468 422.458 583.123 427.333 C 589.692 439.398 588.908 460.681 585.138 473.68 C 582.041 484.361 577.129 492.355 567.261 497.731 C 564.694 498.388 561.856 498.892 559.253 498.12 C 555.002 496.859 551.935 493.503 550.033 489.616 C 543.038 475.326 546.514 450.607 551.82 436.129 C 554.911 427.694 558.634 420.931 567.003 417.02 z"/>
<path transform="translate(0,0)" fill="rgb(253,252,246)" d="M 566.536 426.407 C 568.632 426.663 570.45 426.895 572.098 428.365 C 578.095 433.713 578.335 443.811 578.372 451.268 C 578.439 464.934 576.387 478.127 566.437 488.23 C 564.905 488.386 563.827 488.782 562.382 488.099 C 559.514 486.744 558.019 484.345 557.235 481.378 C 552.795 464.575 557.932 441.194 566.536 426.407 z"/>
<path transform="translate(0,0)" fill="rgb(51,51,47)" d="M 682.935 425.993 C 685.736 425.958 688.677 425.83 691.36 426.752 C 698.705 429.277 704.274 435.827 707.438 442.687 C 713.514 455.858 713.03 472.312 707.603 485.63 C 703.682 495.253 698.15 501.348 688.535 505.192 C 685.301 505.425 682.043 505.716 678.891 504.775 C 672.246 502.792 666.952 497.841 663.84 491.745 C 657.725 479.763 658.745 464.895 662.972 452.444 C 666.55 441.907 672.726 431.123 682.935 425.993 z"/>
<path transform="translate(0,0)" fill="rgb(253,252,246)" d="M 684.841 434.662 C 691.396 436.696 694.955 440.376 698.109 446.444 C 703.325 456.48 703.276 469.345 699.534 479.854 C 696.964 487.074 693.312 492.344 686.298 495.592 C 685.01 495.664 684.317 495.728 682.972 495.682 C 679.651 495.57 677.186 494.231 674.955 491.831 C 669.828 486.316 669.21 478.119 669.483 470.962 C 669.984 457.841 675.098 443.628 684.841 434.662 z"/>
<path transform="translate(0,0)" fill="rgb(51,51,47)" d="M 595.209 534.325 C 619.906 531.982 648.63 537.389 668.394 553.137 C 677.87 560.688 685.292 571.271 686.396 583.601 C 687.436 595.218 683.498 607.682 676.024 616.622 C 656.117 640.435 624.306 628.022 597.771 630.093 C 582.341 632.002 569.935 640.394 555.011 643.005 C 545.628 644.647 535.161 642.778 527.35 637.175 C 519.838 631.785 516.09 623.663 514.697 614.705 C 512.454 600.277 516.731 586.752 525.293 575.216 C 541.572 553.284 568.318 538.145 595.209 534.325 z"/>
<path transform="translate(0,0)" fill="rgb(253,252,246)" d="M 603.558 543.424 C 622.981 542.668 643.786 547.659 660.022 558.595 C 668.186 564.093 675.169 571.796 676.904 581.772 C 678.544 591.205 675.222 602.293 669.593 609.912 C 655.822 628.55 632.871 621.308 613.385 620.351 C 604.447 619.912 596.073 620.587 587.271 622.117 C 572.18 625.88 559.593 633.745 543.718 634.885 C 540.752 633.55 537.736 632.231 535.105 630.292 C 528.626 625.518 523.495 618.092 522.66 609.972 C 521.408 597.778 528.797 585.431 536.52 576.497 C 553.588 556.753 577.746 545.302 603.558 543.424 z"/>
<path transform="translate(0,0)" fill="rgb(254,229,167)" d="M 498.702 765.119 C 510.987 756.33 522.31 745.589 533.935 735.901 A 1035.9 1035.9 0 0 1 594.574 689.005 C 619.893 671.222 646.432 654.961 672.96 639.045 C 686.178 631.114 700.18 623.843 712.899 615.163 C 720.002 610.315 723.112 608.107 724.725 599.421 C 724.641 619.003 724.697 639.407 728.885 658.621 C 707.576 713.679 707.433 807.861 731.217 860.983 C 734.955 869.332 739.945 877.018 743.843 885.263 C 745.607 888.993 746.286 893.771 748.699 897.096 C 750.689 899.839 753.498 902.197 756.044 904.412 C 755.812 904.692 755.577 904.968 755.349 905.251 C 746.095 916.728 741.515 948.011 737.591 963.414 C 724.463 1014.94 694.49 1114.06 631.837 1120.6 C 615.805 1122.27 604.121 1115.41 592.266 1105.57 C 537.345 1060.01 520.793 993.067 509.639 926.017 C 517.191 941.321 522.648 957.636 529.332 973.334 C 537.617 992.793 547.654 1011.01 558.74 1028.99 C 561.846 1034.03 565.614 1042.71 571.338 1044.94 C 573.847 1044.14 573.905 1044.11 575.405 1041.95 C 576.449 1035.41 564.04 1019.47 560.507 1013.52 C 549.149 994.397 539.857 974.295 531.619 953.647 C 527.142 942.425 523.697 929.297 517.673 918.921 C 514.522 918.321 511.609 919.685 508.648 920.656 C 502.831 870.781 497.379 815.325 498.702 765.119 z"/>
<path transform="translate(0,0)" fill="rgb(51,51,47)" d="M 614.14 902.729 C 615.224 902.79 616.923 902.752 618.003 903.082 C 622.423 904.43 622.513 907.803 623.467 911.708 C 626.734 925.065 635.94 934.088 640.239 946.429 C 641.214 949.228 639.888 950.717 638.742 953.224 C 637.234 953.084 635.899 952.697 634.44 952.309 C 627.95 946.829 623.51 936.916 620.003 929.3 C 616.512 921.719 611.063 910.986 614.14 902.729 z"/>
<path transform="translate(0,0)" fill="rgb(51,51,47)" d="M 571.365 889.434 C 571.855 889.595 572.353 889.732 572.834 889.917 C 574.287 890.478 576.142 891.492 576.959 892.923 C 579.287 897.003 579.438 905.009 580.683 909.728 A 171.568 171.568 0 0 0 588.765 933.125 C 593.13 943.203 598.747 952.673 604.676 961.899 C 608.521 967.881 617.233 976.092 619.094 982.577 C 620.051 985.91 618.406 987.737 616.982 990.649 C 615.487 990.223 614.058 989.812 612.749 988.94 C 607.818 985.653 603.763 978.425 600.56 973.528 C 586.035 951.324 573.975 928.132 569.468 901.625 C 568.567 896.323 568.167 893.885 571.365 889.434 z"/>
<path transform="translate(0,0)" fill="rgb(51,51,47)" d="M 528.904 850.407 C 536.44 853.203 535.455 861.008 536.098 867.954 C 539.731 907.233 569.156 970.437 588.964 1004.6 C 597.001 1018.46 607.543 1031.96 614.324 1046.33 C 613.682 1048.98 612.502 1049.63 610.56 1051.48 C 608.98 1050.78 607.454 1049.93 606.199 1048.72 C 600.578 1043.29 596.066 1034.65 591.82 1028.06 C 563.65 984.4 540.412 934.05 529.569 883.062 C 527.791 874.698 525.536 865.489 525.611 856.89 C 525.639 853.643 526.748 852.701 528.904 850.407 z"/>
<path transform="translate(0,0)" fill="rgb(253,252,246)" d="M 1116.57 1762.24 C 1232.14 1759.64 1347.82 1760.65 1463.4 1759.07 C 1494.01 1758.65 1524.61 1758.8 1555.22 1758.14 C 1582.14 1757.57 1610.92 1758.97 1636.72 1750.18 C 1648.38 1766.56 1665.21 1842.53 1661.77 1861.94 C 1660.84 1867.16 1659.03 1871.68 1654.49 1874.69 C 1648.23 1878.83 1640.38 1881.01 1632.99 1882.05 C 1611.68 1885.04 1590.17 1880.19 1568.86 1882.77 C 1553.11 1884.68 1534.88 1893.63 1519.13 1890.09 C 1505.84 1887.11 1495.56 1876.65 1481.51 1875.69 C 1460.66 1874.26 1442.67 1889.76 1421.95 1891.32 C 1403.6 1892.7 1384.48 1888.59 1366.13 1887.5 C 1333.26 1885.56 1299.85 1885.49 1266.93 1886.21 C 1249.29 1886.6 1230.82 1886.03 1213.42 1889.26 C 1198.01 1892.11 1183.07 1898.68 1167.28 1899.16 C 1152.55 1899.6 1138.21 1893.98 1123.96 1891.03 C 1115.06 1889.2 1106.08 1888.95 1097.03 1888.66 C 1063.87 1887.6 1030.45 1888.54 997.262 1888.61 C 977.079 1888.66 956.469 1887.42 936.351 1888.37 C 919.414 1889.16 903.3 1895.66 886.218 1895.74 C 861.278 1895.85 837.223 1886.86 812.007 1886.99 C 781.783 1887.15 758.157 1902.53 733.127 1902.57 C 717.618 1902.59 702.416 1897.91 687.085 1895.99 C 666.462 1893.4 645.507 1892.78 624.744 1892.23 A 509.372 509.372 0 0 0 573.78 1893.71 C 558.741 1895.03 543.187 1897.92 528.09 1896.89 C 510.254 1895.66 507.085 1882.05 484.543 1883.7 C 479.232 1884.09 475.472 1884.1 472.524 1878.85 C 464.262 1864.15 465.36 1828.02 466.962 1811.14 C 478.198 1814.87 490.037 1817.51 501.526 1820.43 C 606.758 1847.2 725.387 1852.04 833.125 1839 A 1011.59 1011.59 0 0 0 983.638 1808.42 C 1011.55 1800.71 1039.47 1790.92 1066.56 1780.63 C 1081.99 1774.77 1098.96 1764.7 1115.3 1762.4 C 1115.72 1762.34 1116.15 1762.3 1116.57 1762.24 z"/>
<path transform="translate(0,0)" fill="rgb(254,229,167)" d="M 981.402 369.803 C 1031.62 360.541 1085.81 360.146 1136.67 363.537 C 1133.95 373.091 1128.98 390.489 1133.39 399.77 C 1135.63 401.226 1135.48 401.147 1138.11 400.664 C 1145.17 392.849 1138.96 375.153 1144.56 365.556 C 1148.04 364.675 1151.65 365.636 1155.18 366.123 C 1146.8 401.035 1147.07 435.478 1146.94 471.113 C 1115.6 497.821 1095.07 529.39 1092.09 570.918 C 1091.92 573.264 1091.94 575.621 1093.34 577.634 C 1094.19 578.856 1095.68 578.814 1097.04 579.158 C 1099.16 578.23 1099.59 578.254 1100.35 575.911 C 1102.43 569.575 1101.55 561.995 1103.11 555.364 C 1109.69 527.356 1124.82 500.924 1147.78 483.071 C 1169.43 464.481 1202.42 456.837 1230.36 458.871 C 1262.47 461.207 1286.77 476.602 1307.37 500.755 C 1325.33 521.808 1383.27 601.182 1390.17 624.149 C 1395.12 640.634 1393.51 662.289 1392.05 679.393 C 1387.16 736.927 1355.48 784.29 1311.94 820.572 C 1286.56 841.722 1256.97 858.827 1226.88 872.314 C 1173.34 895.144 1100.17 905.202 1041.92 900.088 C 974.715 899.278 885.614 873.33 830.639 834.385 C 777.387 796.66 753.253 748.081 742.449 684.725 C 749.941 669.754 754.615 652.97 759.205 636.917 C 768.242 605.307 776.267 572.002 792.192 543.014 C 807.7 514.784 834.929 488.932 866.418 479.921 C 890.074 473.151 917.17 475.935 938.662 488.002 C 963.074 501.707 988.677 532.671 995.834 559.928 C 999.113 572.42 999.128 585.534 1002.57 597.876 C 1004.33 599.375 1004.72 599.398 1006.9 599.783 C 1008.32 598.782 1008.79 598.749 1009.47 597.048 C 1014.26 584.932 1003.95 552.551 998.324 540.878 C 983.858 510.865 960.045 483.964 927.939 472.809 A 106.018 106.018 0 0 0 846.183 477.921 C 769.918 515.64 763.763 597.439 739.456 669.001 C 735.631 646.827 733.203 623.764 733.848 601.278 C 734.687 570.751 738.737 540.132 742.709 509.869 C 755.941 501.147 777.62 476.134 790.709 463.456 C 841.973 413.8 899.949 383.944 970.3 372.28 C 977.442 380.284 988.109 395.665 996.848 400.829 C 999.029 402.119 999.389 402.159 1001.71 401.582 C 1002.05 400.95 1002.54 400.124 1002.66 399.42 C 1003.55 394.083 985.208 374.653 981.402 369.803 z"/>
<path transform="translate(0,0)" fill="rgb(51,51,47)" d="M 891.306 533.313 C 891.893 533.253 892.48 533.185 893.068 533.133 C 912.462 531.436 929.746 537.694 944.455 550.187 C 956.508 560.423 985.514 598.063 984.924 613.396 C 984.811 616.328 984.266 616.719 982.303 618.639 L 979.914 618.591 C 971.723 612.79 968.509 596.822 963.342 588.154 C 958.118 579.39 951.658 570.57 944.647 563.165 C 933.361 551.244 919.45 542.638 902.592 542.245 C 876.357 541.633 850.037 557.399 831.693 574.92 C 831.818 575.201 831.937 575.486 832.069 575.765 C 842.269 597.233 859.292 610.335 881.33 618.088 L 881.029 614.475 C 879.57 595.996 880.834 569.282 893.917 554.707 C 898.059 550.093 903.389 547.155 909.655 546.905 C 918.858 546.54 927.371 551.889 933.778 558.037 C 948.682 572.338 956.805 592.603 957.273 613.065 C 952.578 618.755 947.553 622.653 940.742 625.605 C 919.863 634.651 891.08 632.083 870.374 623.783 C 846.806 614.335 830.254 595.119 820.469 572.152 C 839.665 552.008 863.726 537.605 891.306 533.313 z"/>
<path transform="translate(0,0)" fill="rgb(254,229,167)" d="M 907.066 555.886 C 910.16 555.961 913.497 556.553 916.354 557.761 C 930.055 563.552 939.728 579.183 944.792 592.631 C 946.774 597.895 949.084 605.347 946.045 610.668 C 943.111 615.805 934.319 617.592 929.051 619.263 C 916.596 621.358 904.739 621.194 892.187 620.704 C 888.918 608.28 889.14 594.232 891.898 581.728 C 894.125 571.631 898.01 561.623 907.066 555.886 z"/>
<path transform="translate(0,0)" fill="rgb(51,51,47)" d="M 1047.87 640.374 C 1064.54 638.917 1093.6 636.094 1107.57 647.424 C 1110.31 649.648 1112.2 652.524 1112.56 656.085 C 1113.01 660.574 1111.17 665.291 1108.18 668.595 C 1102.91 674.414 1094.79 676.66 1087.5 678.749 C 1080.13 689.69 1074.95 703.775 1063.74 711.233 C 1069.13 731.379 1086.15 749.374 1103.9 759.701 C 1123.95 771.363 1153.06 776.793 1175.71 770.739 C 1183.75 768.589 1190.09 765.109 1195.57 758.801 C 1190.13 751.029 1186.36 742.515 1185.47 733.025 C 1174.63 732.691 1155.54 733.064 1145.64 729.714 C 1142.72 728.724 1142.2 727.904 1140.91 725.185 L 1141.95 723.151 C 1150.23 719.292 1173 722.842 1183.34 723.356 C 1184.62 722.766 1184.01 723.253 1184.82 721.543 C 1182.8 716.439 1180.42 711.782 1177.77 706.985 C 1161.24 707.877 1142.7 709.994 1126.51 706.377 C 1124.87 704.866 1123.71 704.455 1123.3 702.203 C 1127.79 696.656 1165.97 698.615 1174.98 697.516 L 1215.94 694.381 C 1215.78 687.798 1212.99 670.733 1217.12 665.936 L 1220.51 664.937 C 1224.99 669.082 1224.47 677.641 1224.71 683.478 A 957.462 957.462 0 0 1 1225.05 693.557 C 1246.52 691.475 1267.56 685.292 1287.4 676.947 C 1295.28 673.632 1319.54 657.279 1325.38 657.963 C 1327.39 660.1 1327.41 659.969 1327.49 662.887 C 1320.48 676.133 1281.97 690.162 1267.54 694.706 C 1253.84 699.024 1238.45 701.263 1224.21 703.261 C 1223.56 709.922 1223.11 716.673 1222.2 723.3 A 1174.97 1174.97 0 0 0 1290.72 721.409 C 1299.38 720.994 1308.44 719.383 1317.03 719.514 C 1319.25 719.547 1320.95 719.793 1322.8 721.099 C 1323.86 723.6 1323.76 723.871 1323.22 726.556 C 1321.5 728.302 1320.85 728.857 1318.36 729.4 C 1312.53 730.667 1305.42 730.206 1299.41 730.649 A 1231.01 1231.01 0 0 1 1225.28 734.039 A 314.283 314.283 0 0 1 1219.74 734.016 C 1217.02 743.502 1213.34 751.412 1208.14 759.792 C 1215.89 762.712 1245.27 771.987 1249.23 778.55 C 1248.94 781.302 1248.58 781.391 1246.65 783.44 C 1238.56 785.398 1210.7 770.708 1202.44 766.932 C 1199.73 769.436 1196.64 771.886 1194.16 774.603 C 1210.33 791.36 1223.09 848.65 1226.88 872.314 C 1173.34 895.144 1100.17 905.202 1041.92 900.088 C 1039.08 890.401 1015.94 862.955 1008.21 853.353 L 1008.79 851.329 C 957.34 832.854 927.434 804.854 899.881 758.831 C 874.74 765.957 845.781 770.285 819.736 765.618 C 814.906 764.753 808.462 762.874 805.835 758.356 C 804.905 756.756 805.388 756.475 805.823 754.849 C 807.699 753.764 809.275 753.241 811.481 753.383 C 815.85 753.663 820.313 755.253 824.642 756.008 C 832.043 757.299 839.675 757.516 847.172 757.429 C 864.299 757.229 880.158 754.375 896.536 749.458 C 893.608 739.109 891.56 728.795 890.56 718.082 A 403.921 403.921 0 0 1 876.444 718.014 C 861.243 717.632 812.189 714.256 803.446 701.921 C 801.892 699.729 802.489 698.59 803.113 696.257 C 808.298 692.612 821.404 700.896 827.33 703.032 C 846.407 709.906 870.588 709.065 890.75 709.079 C 890.998 700.397 890.962 689.398 894.437 681.285 C 895.519 678.76 896.354 677.936 898.842 676.923 C 900.603 677.491 901.298 677.764 902.549 679.224 C 905.27 682.397 900.174 701.744 899.925 707.343 L 899.864 708.906 C 921.477 708.945 943.012 709.04 964.542 706.897 C 973.176 706.037 983.762 702.559 991.739 702.366 C 994.659 702.295 996.369 703.207 998.338 705.232 C 998.327 707.665 998.397 708.447 996.289 710.118 C 986.324 718.016 915.507 718.483 900.372 718.559 C 900.91 728.112 902.567 737.486 904.589 746.821 C 915.746 743.237 926.972 739.747 938.016 735.827 C 944.626 733.48 951.587 730.196 958.387 728.597 C 960.99 727.984 961.184 728.076 963.35 729.403 C 964.526 731.764 964.757 732.164 964.541 734.764 C 957.029 742.773 919.424 752.457 907.955 756 C 914.861 764.38 922.674 769.174 932.729 772.926 C 957.2 782.057 984.505 782.178 1008.36 771.029 C 1034.12 758.987 1045.5 737.083 1054.73 711.461 C 1043.53 704.857 1036.84 698.154 1029.78 687.264 C 1029.43 687.441 1029.07 687.607 1028.73 687.795 C 1026.83 688.842 1024.99 689.938 1022.86 690.464 C 1017.97 691.666 1007.09 693.436 1002.71 691.029 C 1001.65 689.738 1001.32 689.059 1001.23 687.379 C 1000.76 679.196 995.986 673.73 994.701 665.962 C 994.077 662.189 994.862 658.492 997.293 655.485 C 1007.84 642.44 1032.44 641.976 1047.87 640.374 z"/>
<path transform="translate(0,0)" fill="rgb(183,213,220)" d="M 1185.47 733.025 L 1209.36 733.889 C 1205.7 743.117 1201.65 750.933 1195.57 758.801 C 1190.13 751.029 1186.36 742.515 1185.47 733.025 z"/>
<path transform="translate(0,0)" fill="rgb(183,213,220)" d="M 1177.77 706.985 A 1058.28 1058.28 0 0 0 1215.28 703.916 L 1212.63 723.1 C 1204.89 723.404 1190.47 725.862 1183.34 723.356 C 1184.62 722.766 1184.01 723.253 1184.82 721.543 C 1182.8 716.439 1180.42 711.782 1177.77 706.985 z"/>
<path transform="translate(0,0)" fill="rgb(254,229,167)" d="M 1035.86 675.738 C 1028.77 677.595 1021.63 682.483 1014.35 679.028 C 1010.25 677.083 1004.98 672.25 1003.89 667.679 C 1003.33 665.301 1003.43 663.391 1004.9 661.351 C 1011.35 652.402 1031 651.825 1041.3 650.712 C 1040.78 661.865 1039.67 672.994 1039.97 684.165 L 1035.86 675.738 z"/>
<path transform="translate(0,0)" fill="rgb(253,252,246)" d="M 1041.3 650.712 C 1056.11 648.796 1087.04 645.57 1099.57 654.406 C 1101.83 656.002 1102.37 657.009 1103.05 659.638 C 1100.74 664.952 1094.82 666.869 1089.76 668.836 C 1086.76 669.999 1082.77 670.986 1080.32 673.063 C 1072.77 679.436 1066.13 705.999 1052.77 699.78 C 1047.12 697.149 1042.69 689.559 1039.97 684.165 C 1039.67 672.994 1040.78 661.865 1041.3 650.712 z"/>
<path transform="translate(0,0)" fill="rgb(254,229,167)" d="M 1040.62 758.141 C 1037.79 782.725 1027.97 824.848 1037.82 847.814 C 992.902 841.894 952.082 814.771 924.021 779.947 C 940.366 785.984 956.502 789.884 974.034 789.205 C 999.947 788.2 1023.13 777.084 1040.62 758.141 z"/>
<path transform="translate(0,0)" fill="rgb(253,252,246)" d="M 1040.62 758.141 C 1048.23 748.073 1054.07 739.086 1058.55 727.293 C 1077.32 754.967 1100.32 773.955 1133.83 780.222 C 1145.57 782.416 1157.47 782.722 1169.36 782.1 C 1156.17 810.436 1132.99 832.177 1103.38 842.785 C 1083.91 849.76 1058.08 852.713 1037.82 847.814 C 1027.97 824.848 1037.79 782.725 1040.62 758.141 z"/>
<path transform="translate(0,0)" fill="rgb(253,252,246)" d="M 1180.95 779.78 C 1185.47 778.245 1189.79 776.533 1194.16 774.603 C 1210.33 791.36 1223.09 848.65 1226.88 872.314 C 1173.34 895.144 1100.17 905.202 1041.92 900.088 C 1039.08 890.401 1015.94 862.955 1008.21 853.353 L 1008.79 851.329 C 1040.92 859.723 1073.24 862.461 1105.19 851.568 C 1142.73 838.764 1163.95 814.477 1180.95 779.78 z"/>
<path transform="translate(0,0)" fill="rgb(253,252,246)" d="M 981.402 369.803 C 1031.62 360.541 1085.81 360.146 1136.67 363.537 C 1133.95 373.091 1128.98 390.489 1133.39 399.77 C 1135.63 401.226 1135.48 401.147 1138.11 400.664 C 1145.17 392.849 1138.96 375.153 1144.56 365.556 C 1148.04 364.675 1151.65 365.636 1155.18 366.123 C 1146.8 401.035 1147.07 435.478 1146.94 471.113 C 1115.6 497.821 1095.07 529.39 1092.09 570.918 C 1091.92 573.264 1091.94 575.621 1093.34 577.634 C 1094.19 578.856 1095.68 578.814 1097.04 579.158 C 1099.16 578.23 1099.59 578.254 1100.35 575.911 C 1102.43 569.575 1101.55 561.995 1103.11 555.364 C 1109.69 527.356 1124.82 500.924 1147.78 483.071 C 1149.45 486.865 1152.35 543.227 1153.69 552.856 C 1143.01 565.627 1124.01 594.555 1125.63 611.669 C 1125.83 613.772 1125.99 613.659 1127.14 615.192 C 1130.13 614.474 1131.99 612.563 1133.53 609.914 C 1136 605.678 1137.25 600.242 1138.94 595.634 C 1142.66 585.552 1148.31 574.996 1155.61 567.034 C 1159.98 574.426 1153.64 586.5 1158.01 595.253 L 1157.64 607.914 C 1152.59 634.921 1168.03 671.326 1174.98 697.516 C 1165.97 698.615 1127.79 696.656 1123.3 702.203 C 1123.71 704.455 1124.87 704.866 1126.51 706.377 C 1142.7 709.994 1161.24 707.877 1177.77 706.985 C 1180.42 711.782 1182.8 716.439 1184.82 721.543 C 1184.01 723.253 1184.62 722.766 1183.34 723.356 C 1173 722.842 1150.23 719.292 1141.95 723.151 L 1140.91 725.185 C 1142.2 727.904 1142.72 728.724 1145.64 729.714 C 1155.54 733.064 1174.63 732.691 1185.47 733.025 C 1186.36 742.515 1190.13 751.029 1195.57 758.801 C 1190.09 765.109 1183.75 768.589 1175.71 770.739 C 1153.06 776.793 1123.95 771.363 1103.9 759.701 C 1086.15 749.374 1069.13 731.379 1063.74 711.233 C 1074.95 703.775 1080.13 689.69 1087.5 678.749 C 1094.79 676.66 1102.91 674.414 1108.18 668.595 C 1111.17 665.291 1113.01 660.574 1112.56 656.085 C 1112.2 652.524 1110.31 649.648 1107.57 647.424 C 1093.6 636.094 1064.54 638.917 1047.87 640.374 C 1038.63 639.573 1040.8 637.586 1039.85 629.24 C 1033.9 577.16 1022.78 515.861 986.846 475.498 C 970.709 457.372 948.219 442.356 923.364 441.068 C 881.412 438.895 847.101 462.911 817.412 489.605 C 805.018 500.749 793.166 511.932 783.816 525.856 C 766.725 551.31 757.238 580.329 733.848 601.278 C 734.687 570.751 738.737 540.132 742.709 509.869 C 755.941 501.147 777.62 476.134 790.709 463.456 C 841.973 413.8 899.949 383.944 970.3 372.28 C 977.442 380.284 988.109 395.665 996.848 400.829 C 999.029 402.119 999.389 402.159 1001.71 401.582 C 1002.05 400.95 1002.54 400.124 1002.66 399.42 C 1003.55 394.083 985.208 374.653 981.402 369.803 z"/>
<path transform="translate(0,0)" fill="rgb(183,213,220)" d="M 1147.78 483.071 C 1169.43 464.481 1202.42 456.837 1230.36 458.871 C 1262.47 461.207 1286.77 476.602 1307.37 500.755 C 1325.33 521.808 1383.27 601.182 1390.17 624.149 C 1395.12 640.634 1393.51 662.289 1392.05 679.393 C 1387.16 736.927 1355.48 784.29 1311.94 820.572 C 1286.56 841.722 1256.97 858.827 1226.88 872.314 C 1223.09 848.65 1210.33 791.36 1194.16 774.603 C 1196.64 771.886 1199.73 769.436 1202.44 766.932 C 1210.7 770.708 1238.56 785.398 1246.65 783.44 C 1248.58 781.391 1248.94 781.302 1249.23 778.55 C 1245.27 771.987 1215.89 762.712 1208.14 759.792 C 1213.34 751.412 1217.02 743.502 1219.74 734.016 A 314.283 314.283 0 0 0 1225.28 734.039 A 1231.01 1231.01 0 0 0 1299.41 730.649 C 1305.42 730.206 1312.53 730.667 1318.36 729.4 C 1320.85 728.857 1321.5 728.302 1323.22 726.556 C 1323.76 723.871 1323.86 723.6 1322.8 721.099 C 1320.95 719.793 1319.25 719.547 1317.03 719.514 C 1308.44 719.383 1299.38 720.994 1290.72 721.409 A 1174.97 1174.97 0 0 1 1222.2 723.3 C 1223.11 716.673 1223.56 709.922 1224.21 703.261 C 1238.45 701.263 1253.84 699.024 1267.54 694.706 C 1281.97 690.162 1320.48 676.133 1327.49 662.887 C 1327.41 659.969 1327.39 660.1 1325.38 657.963 C 1319.54 657.279 1295.28 673.632 1287.4 676.947 C 1267.56 685.292 1246.52 691.475 1225.05 693.557 A 957.462 957.462 0 0 0 1224.71 683.478 C 1224.47 677.641 1224.99 669.082 1220.51 664.937 L 1217.12 665.936 C 1212.99 670.733 1215.78 687.798 1215.94 694.381 L 1174.98 697.516 C 1168.03 671.326 1152.59 634.921 1157.64 607.914 L 1158.01 595.253 C 1153.64 586.5 1159.98 574.426 1155.61 567.034 C 1148.31 574.996 1142.66 585.552 1138.94 595.634 C 1137.25 600.242 1136 605.678 1133.53 609.914 C 1131.99 612.563 1130.13 614.474 1127.14 615.192 C 1125.99 613.659 1125.83 613.772 1125.63 611.669 C 1124.01 594.555 1143.01 565.627 1153.69 552.856 C 1152.35 543.227 1149.45 486.865 1147.78 483.071 z"/>
<path transform="translate(0,0)" fill="rgb(51,51,47)" d="M 1153.69 552.856 C 1172.12 534.137 1193.2 521.766 1220.15 521.656 C 1241.26 521.569 1268.26 528.077 1283.56 543.587 C 1288.59 548.683 1292.04 555.283 1291.99 562.562 C 1291.9 574.147 1283.96 584.14 1275.85 591.696 C 1253.43 612.604 1221.5 623.43 1191.07 622.178 C 1181.65 621.791 1168.16 620.83 1161.18 613.809 C 1159.54 612.157 1158.5 610.046 1157.64 607.914 L 1158.01 595.253 C 1153.64 586.5 1159.98 574.426 1155.61 567.034 C 1148.31 574.996 1142.66 585.552 1138.94 595.634 C 1137.25 600.242 1136 605.678 1133.53 609.914 C 1131.99 612.563 1130.13 614.474 1127.14 615.192 C 1125.99 613.659 1125.83 613.772 1125.63 611.669 C 1124.01 594.555 1143.01 565.627 1153.69 552.856 z"/>
<path transform="translate(0,0)" fill="rgb(183,213,220)" d="M 1155.61 567.034 C 1170.19 548.467 1186.71 534.198 1211 531.443 C 1230.2 529.266 1256.87 534.198 1272.13 546.704 C 1276.94 550.646 1280.82 555.931 1281.11 562.339 C 1281.49 570.547 1276.39 577.586 1270.86 583.136 C 1264.25 589.782 1256.12 595.722 1247.72 599.9 C 1244.75 580.703 1236.64 553.927 1220.16 541.915 C 1214.45 537.753 1207.64 535.852 1200.64 537.151 C 1188.71 539.365 1179.77 549.042 1173.46 558.826 C 1166.31 569.903 1161.3 582.519 1158.01 595.253 C 1153.64 586.5 1159.98 574.426 1155.61 567.034 z"/>
<path transform="translate(0,0)" fill="rgb(183,213,220)" d="M 1199.99 546.019 C 1205.18 545.897 1209.15 546.02 1213.61 548.889 C 1229.35 558.994 1236.37 586.602 1239.6 603.816 C 1228.49 608.882 1217.32 611.289 1205.24 612.7 C 1198.4 613.1 1191.73 612.591 1184.93 611.802 C 1179.21 611.139 1171.55 610.508 1167.76 605.758 C 1165.71 600.027 1167.41 594.829 1169.39 589.281 C 1175.01 573.554 1184.14 553.609 1199.99 546.019 z"/>
<path transform="translate(0,0)" fill="rgb(254,229,167)" d="M 759.045 918.657 C 812.023 986.957 895.101 1020.69 975.417 1044.74 A 138.33 138.33 0 0 0 977.894 1058.63 A 77.1267 77.1267 0 0 0 1011.84 1107.29 C 1034.46 1121.43 1065.14 1125.75 1090.99 1119.61 C 1113.13 1114.36 1127.9 1100.94 1139.68 1082.01 C 1149.86 1094.67 1161.29 1106.41 1172.31 1118.36 C 1178.89 1125.5 1185.23 1133.29 1192.29 1139.93 C 1166.56 1180.23 1128.03 1283.13 1138.63 1329.94 C 1144.49 1355.84 1165.64 1374.89 1187.37 1388.3 C 1219.58 1408.19 1265.88 1429.52 1304.49 1419.76 C 1307.67 1418.96 1311.05 1417.98 1314.08 1416.73 C 1311.37 1453.7 1307.42 1489.58 1295.8 1525.02 C 1289.43 1544.47 1281.47 1562.88 1272.86 1581.42 C 1271.48 1584.38 1269.54 1587.34 1269.6 1590.69 C 1237.83 1616.71 1212.53 1640.79 1208.45 1684.49 C 1208.1 1688.27 1207.97 1692.08 1207.85 1695.88 C 1208.42 1703.41 1212.3 1718.8 1208.44 1725.24 C 1202.45 1730.02 1192.8 1728.27 1185.57 1727.8 L 941.601 1728.81 A 167.442 167.442 0 0 0 943.102 1699.78 C 941.999 1664.83 931.342 1632.53 905.16 1608.38 C 869.572 1575.57 819.263 1568.89 772.819 1571.08 C 729.134 1573.15 677.349 1581.82 641.021 1607.59 C 632.87 1613.37 626.241 1620.16 619.518 1627.51 C 563.482 1565.92 545.037 1458.75 546.998 1377.91 C 548.689 1308.2 566.169 1219.86 618.506 1170.57 C 645.863 1144.81 682.715 1132.77 720.021 1134.1 C 749.852 1135.16 777.09 1145.69 801.115 1163.09 C 930.523 1256.83 893.848 1478.44 1002.66 1595.01 C 1033.93 1628.52 1076.55 1651.77 1122.95 1653.16 C 1155.45 1654.13 1187.42 1644.48 1211.36 1621.76 C 1245.03 1589.8 1259.63 1540.27 1269.56 1496.2 C 1271.93 1485.69 1275.43 1474 1275.39 1463.22 C 1275.38 1460.07 1274.98 1458.49 1272.67 1456.36 L 1270.22 1456.61 C 1269.48 1457.2 1268.57 1457.63 1267.99 1458.39 C 1266.48 1460.34 1255.54 1514.31 1252.52 1524.46 C 1247.34 1541.85 1241.23 1559.07 1232.81 1575.18 C 1217.1 1605.23 1196.63 1628.38 1163.37 1638.56 C 1128.06 1649.36 1088.48 1641.65 1056.43 1624.62 C 947.115 1566.52 932.867 1406.21 899.794 1300.08 C 884.052 1249.56 857.233 1195.65 815.633 1161.84 C 803.951 1152.34 790.932 1145.1 777.666 1138.12 C 784.677 1139.57 791.9 1140.88 798.546 1143.61 C 804.423 1146.03 810.191 1149.54 816.199 1151.5 C 818.337 1152.2 819.878 1152.31 821.987 1151.55 C 822.51 1149.61 822.425 1149.42 821.52 1147.68 C 817.269 1139.48 802.303 1134.65 793.944 1132.09 C 786.747 1129.87 773.514 1126.27 766.609 1130.18 C 760.97 1133.38 749.932 1129.17 743.668 1127.87 A 97.9996 97.9996 0 0 1 793.439 1129.41 C 802.417 1132.1 818.819 1144.18 827.067 1142.27 C 829.037 1140.54 829.975 1140.52 830.31 1137.82 C 825.313 1131.09 813.504 1127.4 806.035 1123.96 C 787.161 1115.28 762.017 1113.27 741.848 1118.07 C 736.559 1119.33 731.774 1122.66 726.441 1123.52 C 717.311 1124.99 707.428 1124.28 698.145 1125.03 C 679.586 1126.52 663.352 1132.34 646.069 1138.78 A 1060.01 1060.01 0 0 1 630.838 1130.98 C 640.005 1129.26 648.433 1127.07 656.815 1122.89 C 709.638 1096.56 731.775 1022.33 745.81 969.066 C 750.085 952.837 753.237 936.015 758.553 920.108 L 759.045 918.657 z"/>
<path transform="translate(0,0)" fill="rgb(51,51,47)" d="M 640.999 1435.42 C 641.932 1435.59 643.569 1435.85 644.404 1436.22 C 647.999 1437.82 647.939 1441.07 648.236 1444.46 C 648.775 1450.61 648.62 1457.56 650.382 1463.48 C 652.935 1472.05 658.149 1480.21 660.337 1488.76 C 661.239 1492.29 660.225 1493.22 658.71 1496.29 C 656.965 1495.83 655.38 1495.23 653.701 1494.59 C 645.634 1486.41 641.197 1468.96 639.147 1457.95 C 637.698 1450.18 636.273 1442.27 640.999 1435.42 z"/>
<path transform="translate(0,0)" fill="rgb(253,252,246)" d="M 1207.85 1695.88 C 1208.42 1703.41 1212.3 1718.8 1208.44 1725.24 C 1202.45 1730.02 1192.8 1728.27 1185.57 1727.8 C 1180.1 1726.33 1173.88 1726.69 1168.24 1726.5 C 1182.26 1716.93 1195.78 1707.92 1207.85 1695.88 z"/>
<path transform="translate(0,0)" fill="rgb(51,51,47)" d="M 1245.67 1488.25 C 1249.04 1488.5 1250.5 1488.64 1252.76 1491.1 C 1253.92 1494.82 1254.08 1498.36 1253.71 1502.24 C 1250.89 1531.44 1234.8 1580.79 1211.7 1600 C 1209.28 1599.61 1208.08 1599.03 1206.09 1597.62 C 1204.89 1593.56 1207.35 1591.31 1209.68 1588.2 C 1212.55 1584.36 1216.09 1580.95 1218.65 1576.9 C 1230 1558.91 1237.16 1536.9 1241.07 1516.15 C 1242.74 1507.24 1243.38 1498.16 1245.42 1489.32 L 1245.67 1488.25 z"/>
<path transform="translate(0,0)" fill="rgb(51,51,47)" d="M 852.794 1178.4 C 853.924 1178.64 854.806 1178.77 855.885 1179.29 C 860.924 1181.74 865.985 1190.44 869.163 1195 C 892.45 1228.39 911.945 1266.93 923.841 1305.99 C 925.523 1311.51 926.605 1314.74 923.748 1320.08 L 919.426 1319.13 C 916.501 1317.07 908.389 1290.23 906.06 1284.34 A 475.024 475.024 0 0 0 877.656 1226.06 C 873.611 1219.13 851.912 1189.53 850.785 1185.41 C 850.02 1182.62 851.575 1180.74 852.794 1178.4 z"/>
<path transform="translate(0,0)" fill="rgb(51,51,47)" d="M 606.408 1387.96 C 607.42 1388.22 608.44 1388.46 609.433 1388.79 C 610.285 1389.07 611.977 1389.88 612.315 1390.79 C 613.997 1395.32 612.209 1405.29 612.071 1410.37 C 611.829 1419.28 613.013 1428.26 614.27 1437.07 C 618.389 1465.91 628.149 1491.66 642.273 1517 C 645.422 1522.65 649.857 1527.21 652.803 1533 C 652.87 1536.37 652.305 1536.91 650.606 1539.7 C 649.461 1539.47 647.719 1539.23 646.659 1538.63 C 629.977 1529.17 611.148 1470.7 607.409 1451.88 C 604.528 1437.37 597.958 1400.64 606.408 1387.96 z"/>
<path transform="translate(0,0)" fill="rgb(51,51,47)" d="M 586.972 1308.27 C 587.876 1308.43 589.188 1308.63 590.023 1308.94 C 592.036 1309.69 593.802 1310.84 594.064 1313.17 C 594.468 1316.78 592.326 1322.17 591.344 1325.76 C 585.716 1346.3 582.863 1366.02 582.388 1387.32 C 581.41 1431.16 592.698 1470.56 609.684 1510.56 C 613.604 1519.79 621.107 1529.6 623.619 1539.01 C 624.441 1542.09 623.176 1543.22 621.709 1545.73 C 620.987 1545.43 620.263 1545.13 619.557 1544.79 C 608.758 1539.64 591.682 1492.88 587.244 1479.97 A 272.404 272.404 0 0 1 577.246 1341.17 C 579.376 1330.19 582.041 1318.35 586.972 1308.27 z"/>
</svg>