<svg version="1.1" xmlns="http://www.w3.org/2000/svg" style="display: block;" viewBox="0 0 2048 2048" width="1024" height="1024">
<path transform="translate(0,0)" fill="rgb(88,137,142)" d="M 0 0 L 2046.79 0 L 2048 0 L 2048 2048 L 0 2048 L 0 2047.02 L 0 0 z"/>
<path transform="translate(0,0)" fill="rgb(0,1,1)" d="M 493.206 886.257 C 498.605 885.914 503.656 885.96 508.645 888.273 A 25.5416 25.5416 0 0 1 522.161 903.47 A 25.3121 25.3121 0 0 1 520.698 923.047 C 517.012 930.19 511.516 933.635 504.124 936.16 C 499.57 936.715 494.61 936.895 490.245 935.278 C 483.196 932.666 477.676 926.892 474.947 919.947 C 472.393 913.449 472.348 906.123 475.451 899.802 C 479.198 892.172 485.51 888.914 493.206 886.257 z"/>
<path transform="translate(0,0)" fill="rgb(254,174,83)" d="M 495.498 890.216 C 499.921 890.184 504.3 890.452 508.265 892.623 A 21.1538 21.1538 0 0 1 518.389 905.222 A 21.6301 21.6301 0 0 1 516.239 922.289 C 512.714 928.252 508.312 930.43 501.799 931.982 C 497.619 932.094 493.736 932.286 489.886 930.42 C 484.394 927.758 480.209 922.646 478.443 916.839 C 476.699 911.101 477.227 904.916 480.373 899.762 C 483.929 893.938 489.147 891.803 495.498 890.216 z"/>
<path transform="translate(0,0)" fill="rgb(0,1,1)" d="M 417.003 1033.51 C 420.964 1038.23 423.711 1044.54 426.715 1049.93 C 435.132 1065.06 444.9 1074.21 458.674 1084.37 C 438.157 1097.41 427.623 1111.23 417.813 1133.27 C 414.585 1130.03 413.043 1123.67 411.084 1119.5 C 403.31 1102.96 390.219 1093.27 375.178 1083.74 C 400.516 1066.94 402.156 1059.37 417.003 1033.51 z"/>
<path transform="translate(0,0)" fill="rgb(254,174,83)" d="M 417.295 1042.65 C 419.95 1045.86 421.866 1050.65 424.122 1054.26 C 431.861 1066.61 439.631 1075.33 451.135 1084.27 C 436.022 1094.01 426.287 1105.85 418.123 1121.8 C 415.456 1119.38 413.633 1114.55 411.593 1111.45 C 403.921 1099.8 395.46 1091.84 383.998 1083.98 C 399.797 1072.3 408.087 1059.69 417.295 1042.65 z"/>
<path transform="translate(0,0)" fill="rgb(153,176,176)" d="M 2046.79 0 L 2048 0 L 2048 2048 L 0 2048 L 0 2047.02 C 22.0672 2046.58 44.3426 2047.47 66.439 2047.47 L 236.359 2047.37 L 726.914 2047.05 L 2046.59 2046.8 L 2046.79 0 z"/>
<path transform="translate(0,0)" fill="rgb(0,1,1)" d="M 308.192 875.37 L 309.872 876.721 C 321.801 907.453 333.02 922.084 356.711 944.029 C 340.932 957.45 329.404 970.196 320.073 988.814 C 316.841 995.263 314.62 1002.47 310.779 1008.55 C 310.634 1008.78 310.48 1009.01 310.331 1009.23 C 305.631 1003.85 302.575 995.955 299.194 989.586 C 288.86 970.117 278.081 957.055 261.093 943.127 C 284.972 925.522 296.82 901.927 308.192 875.37 z"/>
<path transform="translate(0,0)" fill="rgb(254,174,83)" d="M 308.509 886.774 C 313.825 892.385 316.589 903.66 320.861 910.557 C 328.72 923.246 339.416 933.889 350.021 944.268 C 331.836 959.831 318.659 977.507 310.017 999.883 C 299.863 977.323 286.835 958.861 267.992 942.829 C 287.179 927.686 298.425 908.644 308.509 886.774 z"/>
<path transform="translate(0,0)" fill="rgb(0,1,1)" d="M 1524.63 199.337 A 62.9245 62.9245 0 0 1 1551.93 204.016 C 1570.73 211.734 1584.16 226.317 1591.88 244.856 C 1598.89 241.095 1605.79 240.406 1613.46 242.561 C 1628.16 246.69 1638.68 260.757 1645.7 273.564 C 1652.03 285.114 1656.64 297.788 1658.15 310.914 C 1659.14 319.598 1659.01 328.449 1659.52 337.177 C 1661.19 365.505 1661.74 393.542 1661.96 421.909 A 15628.6 15628.6 0 0 1 1663.23 580.578 L 1665.3 744.093 C 1665.82 776.907 1668.2 811.127 1665.65 843.816 C 1663.49 871.427 1655.5 899.525 1644.88 925.023 C 1625.58 971.35 1598.9 1010.12 1567.6 1049.15 C 1540.61 1082.81 1506.62 1116.15 1488.07 1155.52 C 1482.33 1167.7 1478.58 1180.56 1474.81 1193.43 C 1543.28 1191.88 1612.04 1193.02 1680.55 1192.97 L 1680.28 1811.83 L 1817.8 1811.86 C 1840.04 1811.91 1863.09 1810.53 1885.22 1812.09 C 1887.97 1812.28 1892.84 1812.34 1894.61 1814.39 C 1891.3 1815.73 1888.02 1816.23 1884.45 1816.41 C 1872.79 1816.99 1860.81 1816.3 1849.11 1816.28 L 1776.26 1816.24 L 1524.88 1816.36 L 514.621 1816.25 A 18081.4 18081.4 0 0 1 243.61 1816.2 A 3229.35 3229.35 0 0 0 192.028 1816.18 C 180.111 1816.26 166.385 1817.7 154.769 1815.25 L 153.913 1813.28 L 155.441 1811.71 C 165.244 1809.48 209.632 1811.11 222.75 1811.07 L 384.974 1811.43 L 384.178 1192.71 A 11888.5 11888.5 0 0 1 544.558 1192.84 C 550.329 1097.23 599.405 1025.86 660.941 956.756 C 675.851 940.011 696.072 922.747 708.596 904.671 C 720.316 887.756 724.842 863.999 735.154 845.673 C 723.588 824.125 713.255 802.748 705 779.698 C 671.816 687.048 690.881 620.899 730.96 536.049 C 723.085 492.124 722.622 442.129 729.309 398.016 C 733.991 367.129 742.78 319.62 769.821 300.553 A 42.5594 42.5594 0 0 1 802.72 293.638 C 853.611 303.566 911.645 395.148 938.982 436.055 C 956.192 435.712 973.55 433.42 990.791 432.68 C 1040.14 430.562 1088.52 431.84 1137.35 439.473 C 1149.82 413.468 1165.93 388.245 1182.67 364.796 C 1202.92 336.412 1238.93 292.961 1274.78 287.227 C 1287.08 285.26 1298.85 286.846 1308.93 294.585 C 1348.29 324.824 1345.69 414.687 1342.56 460.433 C 1341.28 479.229 1336.83 500.127 1339.42 518.84 C 1341.41 533.169 1346.25 547.262 1350.2 561.163 A 1443.19 1443.19 0 0 1 1362.4 607.458 C 1370.15 638.802 1373.84 670.13 1378.54 701.995 C 1388.76 694.533 1400.03 690.373 1412.05 686.758 C 1409.86 670.118 1410.26 652.458 1409.49 635.652 L 1404.81 523.378 A 6142.44 6142.44 0 0 1 1398.68 380.628 C 1397.76 357.414 1395.11 333.17 1396.83 310.001 C 1397.94 294.918 1402 280.752 1409.59 267.631 C 1415.96 256.635 1425.69 245.155 1438.56 242.151 C 1448.37 239.86 1455.29 243.234 1463.35 248.262 C 1465.87 240.481 1469.28 233.908 1474.33 227.496 C 1487.66 210.557 1503.38 202.018 1524.63 199.337 z"/>
<path transform="translate(0,0)" fill="rgb(235,235,235)" d="M 1046.94 1002.12 C 1051.04 1001.47 1055.19 1001.25 1059.18 1002.6 A 19.2198 19.2198 0 0 1 1070.47 1013.04 A 20.8695 20.8695 0 0 1 1070.52 1029.81 C 1067.98 1035.67 1063.88 1038.83 1058.12 1041.19 C 1054.3 1041.46 1050.31 1041.7 1046.62 1040.51 C 1041.48 1038.86 1036.99 1035.1 1034.63 1030.22 A 19.4371 19.4371 0 0 1 1033.87 1015.31 C 1036.26 1008.55 1040.74 1005.19 1046.94 1002.12 z"/>
<path transform="translate(0,0)" fill="rgb(254,174,83)" d="M 1426.02 337.382 C 1424.69 334.291 1423.92 331.364 1423.86 327.965 C 1423.78 322.709 1425.95 317.078 1429.75 313.41 C 1433.72 309.571 1438.44 308.193 1443.84 308.18 C 1449.92 308.628 1454.92 310.508 1458.84 315.393 C 1459.13 315.75 1459.37 316.136 1459.64 316.508 C 1463.49 322.198 1463.89 326.231 1463.68 333.018 C 1461.28 339.405 1459.34 342.155 1453.66 345.964 C 1449.23 347.054 1444.42 347.569 1439.9 346.813 C 1433.64 345.765 1429.49 342.546 1426.02 337.382 z"/>
<path transform="translate(0,0)" fill="rgb(0,1,1)" d="M 1444.71 312.947 C 1450.49 314.58 1453.66 316.065 1457.45 320.715 C 1458.38 324.388 1459.09 327.618 1459.15 331.416 C 1457.8 334.342 1456.58 337.248 1454.65 339.848 C 1451.53 341.796 1448.45 343.393 1444.71 343.636 C 1438.04 344.067 1433.28 340.478 1428.63 336.18 C 1427.46 330.919 1427.48 326.26 1430.54 321.582 C 1434.02 316.258 1438.74 314.292 1444.71 312.947 z"/>
<path transform="translate(0,0)" fill="rgb(254,174,83)" d="M 1002.91 436.58 C 1028.79 435.001 1057.1 434.57 1082.89 436.955 C 1083.68 445.073 1084.77 453.199 1081.76 461.034 C 1078.33 469.957 1070.55 473.943 1062.29 477.425 C 1051.34 480.191 1039.36 481.158 1028.09 480.667 C 1015.52 480.12 1000.83 477.429 992.15 467.511 C 984.369 458.618 985.022 448.076 985.487 437.086 L 1002.91 436.58 z"/>
<path transform="translate(0,0)" fill="rgb(13,12,12)" d="M 1631.05 857.6 C 1640.83 857.952 1652.54 850.97 1661.71 847.521 C 1652.77 893.289 1638.52 935.702 1614.11 975.67 L 1612.65 975.813 L 1612.01 975.27 C 1608.84 972.805 1606.38 970.467 1602.26 970.029 C 1597.25 963.047 1594.76 953.051 1593.73 944.631 C 1589.79 936.085 1592.73 915.334 1595.18 906.357 C 1600.2 887.961 1614.21 867.125 1631.05 857.6 z"/>
<path transform="translate(0,0)" fill="rgb(254,174,83)" d="M 1155.07 1204.04 C 1155.09 1204.35 1155.15 1204.67 1155.14 1204.98 C 1154.75 1214.77 1137.78 1233.89 1130.74 1240.37 A 111.482 111.482 0 0 1 1049.09 1269.19 C 1017.42 1267.51 991.059 1252.9 970.19 1229.56 C 963.73 1221.47 958.652 1213.07 954.047 1203.81 C 965.243 1210.45 976.349 1216.74 988.681 1221.1 C 1047.96 1242.06 1100.35 1230.32 1155.07 1204.04 z"/>
<path transform="translate(0,0)" fill="rgb(254,174,83)" d="M 1163.37 1160.91 L 1164.6 1161.62 C 1166.71 1171.07 1162.53 1187.45 1158.94 1196.49 C 1133.69 1211.95 1102.71 1222.8 1073.25 1226.07 C 1032.98 1230.55 983.221 1222.2 950.855 1196.25 C 947.137 1185.28 945.051 1174.88 943.788 1163.36 C 954.453 1169.98 966.577 1174.31 978.381 1178.46 C 1051.21 1204.1 1095.98 1193.3 1163.37 1160.91 z"/>
<path transform="translate(0,0)" fill="rgb(254,174,83)" d="M 1154.65 1125.89 L 1156.43 1125.78 C 1162.43 1130.69 1163.84 1148.39 1165.13 1156.09 A 1809.85 1809.85 0 0 1 1121.75 1174.69 C 1064.3 1197.86 1011.76 1188.66 956.43 1165.1 C 952.46 1163.34 948.595 1160.86 944.783 1158.75 C 945.343 1147.67 947.753 1137.73 950.858 1127.1 A 426.656 426.656 0 0 0 966.083 1134.14 C 1033.98 1163.59 1088.59 1151.96 1154.65 1125.89 z"/>
<path transform="translate(0,0)" fill="rgb(254,174,83)" d="M 1029.44 1058.92 C 1036.11 1059.5 1042.6 1062.77 1049.49 1063.16 C 1064.69 1064.02 1071.16 1057.48 1088.63 1062.82 C 1118.25 1071.87 1141.42 1094.5 1155.52 1121.38 C 1130.26 1128.96 1108.25 1140.12 1081.76 1144.08 C 1031.26 1150.34 998.877 1144.46 952.74 1123.61 C 971.05 1088.16 992.413 1072.25 1029.44 1058.92 z"/>
<path transform="translate(0,0)" fill="rgb(13,12,12)" d="M 1517.23 1384.57 C 1521.69 1384.51 1524.68 1381.51 1528.48 1379.54 C 1542.1 1397.09 1549.11 1422.76 1552.34 1444.42 C 1553.6 1452.91 1553.95 1461.88 1555.82 1470.23 C 1556.42 1472.91 1557.34 1474.34 1559.29 1476.22 C 1560.95 1486.87 1560.88 1502.33 1559.17 1513.07 C 1558.57 1503.63 1559.5 1494.03 1558.29 1484.68 L 1557.99 1486.43 C 1555.11 1503.46 1552.28 1595.51 1542.97 1603.12 C 1540.34 1603.24 1539.46 1603.06 1537.12 1604.39 C 1522.6 1599.23 1500.9 1578.01 1493.46 1564.65 C 1489.08 1558.87 1486.02 1552.36 1482.83 1545.88 C 1470.06 1516.64 1465.61 1481.91 1475.52 1451.02 C 1476.16 1447.86 1477.39 1444.82 1478.45 1441.78 L 1480.6 1435.93 C 1481.73 1432.23 1483.74 1428.75 1485.46 1425.3 C 1490.52 1410.91 1504.92 1393.51 1517.23 1384.57 z"/>
<path transform="translate(0,0)" fill="rgb(0,1,1)" d="M 1475.52 1451.02 L 1478.43 1448.14 C 1478.46 1449.69 1478.45 1451.21 1478.44 1452.76 C 1478.41 1454.97 1478.33 1454.05 1478.76 1456.08 C 1473.4 1485.84 1474.24 1513.46 1485.8 1541.67 L 1482.83 1545.88 C 1470.06 1516.64 1465.61 1481.91 1475.52 1451.02 z"/>
<path transform="translate(0,0)" fill="rgb(234,59,48)" d="M 519.408 1379.68 C 532.557 1387.35 545.116 1395.55 554.995 1407.31 C 575.351 1431.55 585.264 1465.3 582.502 1496.72 C 579.372 1532.32 563.01 1565.05 535.596 1588.06 C 525.134 1596.12 514.025 1601.61 502.039 1606.98 C 484.583 1528.31 480.915 1453.23 519.408 1379.68 z"/>
<path transform="translate(0,0)" fill="rgb(234,59,48)" d="M 1344.82 831.826 C 1345.06 832.048 1345.37 832.217 1345.55 832.492 C 1347.55 835.485 1346.95 848.797 1347.32 853.131 C 1348.62 868.264 1352.22 881.837 1357.78 895.934 C 1339.92 910.371 1319.41 921.626 1299.06 932.093 C 1229.23 967.993 1163.41 983.567 1085.63 992.176 C 1082.06 992.08 1078.37 991.923 1075.6 989.353 C 1074.58 988.401 1073.79 987.739 1073.59 986.302 C 1072.17 976.334 1073.91 947.163 1073.99 934.963 C 1095.53 931.479 1117.09 929.275 1138.54 924.901 C 1212 909.921 1286.64 879.892 1344.82 831.826 z"/>
<path transform="translate(0,0)" fill="rgb(234,59,48)" d="M 737.648 848.442 C 830.167 902.998 928.656 935.753 1036.89 935.996 L 1037.19 986.928 C 1030.97 990.017 1023.8 995.007 1016.9 995.736 C 909.674 990.664 807.71 957.304 714.641 904.741 C 720.762 885.773 729.743 866.765 737.648 848.442 z"/>
<path transform="translate(0,0)" fill="rgb(235,235,235)" d="M 660.894 1665.36 C 682.458 1662.18 706.325 1666.05 726.098 1674.98 C 759.969 1690.28 784.805 1714.71 798.084 1749.7 C 792.428 1770.8 788.915 1789.99 794.498 1811.46 L 737.773 1811.47 C 737.883 1793.68 739.503 1774.06 736.892 1756.52 L 736.044 1756.49 C 730.604 1767.14 733.255 1797.91 733.239 1811.3 L 678.786 1811.49 C 678.287 1796.93 678.37 1782.32 678.226 1767.75 C 678.258 1765.88 678.436 1763.72 678.127 1761.88 C 677.747 1759.61 677.038 1758.22 675.338 1756.73 C 672.136 1765.09 674.235 1800.36 674.328 1811.4 L 617.968 1811.1 C 617.955 1800.55 619.949 1762.76 615.905 1754.69 C 610.529 1762.97 613.168 1799.53 613.181 1811.1 L 551.088 1811.28 A 87.3636 87.3636 0 0 1 549.601 1803.36 C 545.136 1773.34 555.19 1741.17 573.156 1717.1 C 595.137 1687.65 624.77 1670.54 660.894 1665.36 z"/>
<path transform="translate(0,0)" fill="rgb(235,235,235)" d="M 913.033 1663.38 C 923.481 1662.5 933.915 1662.51 944.285 1664.19 C 980.116 1669.99 1012.91 1691.73 1033.74 1721.18 C 1053.33 1748.88 1061.03 1777.86 1055.22 1811.3 A 5738.35 5738.35 0 0 1 987.389 1811.91 C 987.332 1803.6 988.566 1760.2 985.847 1755.77 C 980.935 1761.86 983.688 1801.56 983.794 1811.4 L 929.242 1811.4 L 929.171 1766.75 C 929.226 1764.83 929.342 1762.82 929.138 1760.9 C 928.918 1758.83 928.092 1757.15 926.487 1755.82 C 923.594 1761.89 925.031 1801.94 925.013 1811.28 A 2277.41 2277.41 0 0 1 869.744 1811.46 C 869.493 1797.08 871.017 1769.29 868.512 1756.55 L 867.317 1755.99 L 865.614 1757.55 C 863.068 1766.51 865.228 1799.81 865.367 1811.27 L 799.394 1811.38 C 797.921 1806.83 796.634 1802.36 796.06 1797.61 C 792.402 1767.31 805.577 1735.1 824.007 1711.61 C 846.415 1683.06 877.349 1667.5 913.033 1663.38 z"/>
<path transform="translate(0,0)" fill="rgb(235,235,235)" d="M 1366.02 1664.4 C 1370.1 1664.14 1374.19 1663.94 1378.28 1664.07 A 131.374 131.374 0 0 1 1470.94 1706.39 C 1499.47 1736.98 1509.41 1770.48 1508 1811.5 A 3303.01 3303.01 0 0 0 1444.68 1811.72 C 1443.92 1794.93 1445.87 1777.11 1443.54 1760.53 L 1442.84 1760.11 C 1437.4 1769.22 1440.23 1799.65 1440.36 1811.66 L 1383.98 1811.88 A 1552.09 1552.09 0 0 0 1383.83 1760.37 L 1381.67 1760.49 C 1378.01 1768 1379.95 1801.18 1379.7 1811.85 L 1326.07 1811.89 C 1325.97 1795.04 1326.91 1777.57 1324.92 1760.84 L 1323.13 1761.03 L 1324.16 1758.31 L 1324.66 1759.57 L 1323.38 1759.58 C 1319.23 1775.72 1321.74 1795.26 1321.91 1811.87 C 1307.26 1811.94 1257.02 1814.2 1246.32 1810.97 C 1244.06 1808.48 1243.59 1806.17 1243.22 1802.92 C 1239.51 1769.84 1252.72 1737.29 1273.78 1712.26 C 1298.05 1683.41 1328.38 1667.63 1366.02 1664.4 z"/>
<path transform="translate(0,0)" fill="rgb(235,235,235)" d="M 561.011 1330.67 C 563.178 1332.08 563.864 1336.34 564.691 1338.85 C 603.735 1457.82 666.048 1565.37 730.771 1671.89 C 710.767 1663.12 689.794 1659.55 667.965 1660.8 C 629.366 1663 599.707 1680.3 574.199 1708.63 C 562.428 1722.54 555.452 1738.44 548.832 1755.22 C 529.275 1709.47 513.821 1659.92 502.922 1611.41 C 529.465 1599.84 550.039 1584.66 565.951 1560.09 C 584.692 1531.15 592.203 1493.13 584.661 1459.4 C 576.071 1420.99 554.927 1396.27 522.337 1375.7 C 534.322 1359.72 547.361 1345.24 561.011 1330.67 z"/>
<path transform="translate(0,0)" fill="rgb(235,235,235)" d="M 711.086 908.43 C 719.535 910.945 728.452 916.792 736.298 920.836 C 752.487 929.178 768.735 937.732 785.494 944.882 C 867.165 979.724 930.29 992.312 1018.08 999.953 C 1012.96 1006.63 1009.75 1014.05 1009.6 1022.57 C 1009.35 1035.99 1017.06 1046.21 1025.92 1055.33 C 1001.41 1064.94 982.72 1075.7 964.996 1095.62 C 951.047 1113.97 942.818 1132.26 940.619 1155.27 C 854.776 1113.31 749.819 1003.01 698.288 923.579 L 711.086 908.43 z"/>
<path transform="translate(0,0)" fill="rgb(254,174,83)" d="M 388.906 1197.07 L 488.003 1197.4 C 506.723 1197.4 525.604 1196.7 544.304 1197.47 C 543.47 1241.7 550.328 1282.09 560.363 1324.95 C 539.633 1345.81 518.653 1368.89 506.307 1395.79 C 456.401 1504.52 501.393 1640.93 540.009 1746.2 C 542.064 1751.8 544.579 1757.12 547.13 1762.51 C 543.68 1779.27 543.3 1794.57 546.325 1811.37 C 494.163 1810.65 441.922 1811.25 389.751 1811.3 L 388.906 1197.07 z"/>
<path transform="translate(0,0)" fill="rgb(254,174,83)" d="M 1473.83 1197.93 A 16914.1 16914.1 0 0 1 1675.92 1197.8 L 1676.09 1811.56 L 1512.09 1811.37 C 1512.23 1792.98 1511.36 1776.82 1507.16 1758.83 C 1531.47 1691.73 1560.63 1584.34 1559.17 1513.07 C 1560.88 1502.33 1560.95 1486.87 1559.29 1476.22 C 1557.31 1427.72 1544.34 1381.96 1507.8 1348.23 C 1499.93 1340.97 1491 1335.71 1482.66 1329.14 C 1467.71 1317.36 1467.05 1290.25 1466.28 1272.85 A 269.707 269.707 0 0 1 1473.83 1197.93 z"/>
<path transform="translate(0,0)" fill="rgb(254,174,83)" d="M 1109.08 1260.96 C 1111.73 1262.69 1297.37 1493.01 1308.58 1510.27 L 1308.05 1677.16 C 1291.89 1686.45 1278.16 1699.23 1266.86 1714 C 1244.32 1743.46 1234.7 1774.68 1239.67 1811.47 L 1116.5 1811.27 L 1059.49 1811.37 C 1061.63 1799.76 1062.15 1788.15 1060.71 1776.42 C 1056.18 1739.59 1033.13 1707.23 1004.35 1684.98 C 1001.07 1669.58 995.69 1654.78 990.799 1639.85 L 970.841 1578.4 C 952.893 1522.85 936.309 1466.87 917.384 1411.64 C 929.173 1393.95 944.263 1377.22 957.603 1360.63 A 6365.6 6365.6 0 0 0 1029.31 1270.71 C 1057.07 1277.63 1083.55 1272.95 1109.08 1260.96 z"/>
<path transform="translate(0,0)" fill="rgb(235,235,235)" d="M 639.383 997.716 C 637.981 995.224 636.469 993.849 637.003 990.95 C 654.458 968.869 674.291 946.751 694.588 927.231 C 756.889 1017.17 843.474 1106.64 939.75 1160.27 C 940.876 1192.08 952.95 1221.14 976.564 1242.94 C 990.61 1255.9 1006.65 1264.34 1024.8 1270 C 1013.88 1282.7 1004.05 1296.24 993.649 1309.35 C 980.359 1326.1 966.515 1342.4 953.304 1359.22 C 941.063 1374.81 929.22 1390.64 915.929 1405.37 C 908.595 1386.58 902.75 1367.15 896.243 1348.05 C 877.833 1294.03 860.704 1239.6 841.541 1185.85 C 838.336 1176.86 836.765 1164.43 830.714 1157.04 L 829.027 1156.89 C 827.816 1159.58 828.727 1161.47 829.732 1164.15 C 846.814 1209.57 861.337 1256.37 876.677 1302.44 A 7812.85 7812.85 0 0 1 951.632 1532.33 L 982.431 1628.12 C 988.098 1645.56 995.031 1663.16 998.859 1681.11 C 963.778 1660.96 928.391 1652.65 888.592 1663.61 C 853.357 1673.32 825.262 1696.77 807.481 1728.5 A 104.971 104.971 0 0 0 800.622 1743.28 C 790.256 1722.24 776.404 1700.7 756.461 1687.46 C 749.716 1682.98 741.401 1679.75 736.598 1673.03 C 722.307 1653.02 710.173 1630.01 697.595 1608.86 C 636.07 1505.41 570.491 1381.37 551.378 1262 C 551.682 1261.29 551.951 1260.4 552.417 1259.79 C 552.409 1259.68 552.418 1259.57 552.391 1259.46 C 549.344 1247.38 548.839 1234.73 548.722 1222.31 C 548.058 1151.91 568.399 1091.02 606.47 1032.43 C 614.28 1020.41 622.553 1006.31 632.576 996.079 C 635.066 996.302 636.463 997.03 638.617 998.266 L 639.383 997.716 z"/>
<path transform="translate(0,0)" fill="rgb(13,12,12)" d="M 632.576 996.079 C 635.066 996.302 636.463 997.03 638.617 998.266 L 639.383 997.716 C 654.086 1015.18 670.493 1049.67 671.269 1072.73 C 680.471 1104.26 668.778 1151.59 653.415 1179.74 C 634.984 1213.52 597.558 1247.25 560.13 1258.11 C 557.583 1258.85 555.061 1259.52 552.417 1259.79 C 552.409 1259.68 552.418 1259.57 552.391 1259.46 C 549.344 1247.38 548.839 1234.73 548.722 1222.31 C 548.058 1151.91 568.399 1091.02 606.47 1032.43 C 614.28 1020.41 622.553 1006.31 632.576 996.079 z"/>
<path transform="translate(0,0)" fill="rgb(235,235,235)" d="M 1282.03 290.373 C 1290.24 290.594 1296.72 291.951 1303.77 296.383 C 1343.52 321.376 1340.97 414.647 1338.47 456.629 C 1337.26 476.845 1332.81 499.371 1335.4 519.502 C 1337.33 534.446 1342.58 549.144 1346.68 563.608 A 1429.22 1429.22 0 0 1 1360.9 618.512 C 1367.39 646.707 1369.08 675.701 1375.23 703.805 L 1375.59 705.426 C 1347.78 736.291 1345.62 785.139 1345.93 824.772 C 1330.7 839.481 1312.92 851.131 1294.72 861.809 C 1227.74 901.1 1151.81 922.222 1074.91 930.633 C 1071.51 925.464 1068.49 921.113 1062.71 918.412 C 1057.93 916.185 1052.75 915.684 1047.84 917.812 C 1041.17 920.706 1039.01 925.369 1036.54 931.859 C 976.907 929.938 918.691 921.856 862.083 902.511 C 836.905 893.907 754.987 860.695 739.505 843.198 C 731.779 834.467 726.783 820.753 721.663 810.312 A 582.446 582.446 0 0 1 708.59 777.528 C 675.632 685.237 695.886 619.941 735.466 536.03 C 728.507 494.235 726.55 449.951 731.584 407.819 C 735.316 376.584 745.659 324.02 771.776 304.407 C 780.078 298.172 790.167 295.388 800.45 297.23 C 850.394 306.176 910.077 400.443 937.227 440.204 C 952.045 439.977 967.015 438.49 981.814 437.532 C 981.453 441.981 980.78 446.296 981.125 450.775 C 981.755 458.962 985.158 467.07 991.503 472.437 C 1005.81 484.536 1028.38 485.708 1046.23 484.21 C 1059.14 483.126 1072.9 480.091 1081.47 469.489 C 1089.37 459.728 1088.98 449.263 1087.43 437.584 C 1104.85 438.523 1121.9 442.119 1139.26 443.208 C 1145.27 434.261 1150 424.033 1155.51 414.713 C 1169.73 390.627 1184.93 366.725 1202.74 345.104 C 1222.33 321.336 1249.61 293.448 1282.03 290.373 z"/>
<path transform="translate(0,0)" fill="rgb(0,1,1)" d="M 1105.87 694.978 C 1108.82 695.119 1111.6 695.315 1114.49 695.892 C 1116.53 697.872 1116.16 698.229 1116.32 701.115 C 1113.84 701.112 1111.44 700.948 1108.98 700.743 C 1106.64 698.742 1106.68 697.873 1105.87 694.978 z"/>
<path transform="translate(0,0)" fill="rgb(0,1,1)" d="M 978.98 733.391 C 981.016 733.099 983.122 732.711 985.178 732.959 C 987.201 733.203 987.535 733.037 988.769 734.739 C 988.296 735.632 988.18 735.994 987.363 736.764 C 984.309 739.644 979.186 739.371 975.244 739.605 C 972.578 739.976 969.92 740.474 967.249 739.905 C 965.177 739.463 965.921 739.936 964.807 738.16 C 964.99 737.894 965.145 737.606 965.356 737.362 C 968.686 733.52 974.319 733.737 978.98 733.391 z"/>
<path transform="translate(0,0)" fill="rgb(0,1,1)" d="M 966.216 699.373 C 973.451 699.034 983.96 699.152 990.837 701.495 C 992.837 702.177 992.685 703.102 993.562 704.915 C 993.246 704.999 992.934 705.101 992.613 705.167 C 987.198 706.283 972.077 706.863 967.712 703.744 C 966.427 702.826 966.513 700.825 966.216 699.373 z"/>
<path transform="translate(0,0)" fill="rgb(0,1,1)" d="M 1090.39 725.795 C 1097.6 726.47 1108.89 730.554 1115.42 733.84 C 1117.95 735.117 1117.79 735.466 1118.57 738.068 C 1118.16 738.113 1117.74 738.188 1117.33 738.204 C 1111.07 738.43 1095.61 734.341 1091 729.886 C 1089.77 728.689 1090.33 727.384 1090.39 725.795 z"/>
<path transform="translate(0,0)" fill="rgb(0,1,1)" d="M 1085.88 517.274 C 1087.62 518.084 1086.7 517.52 1088.51 519.164 C 1089.66 526.329 1093.32 547.977 1090.8 553.208 C 1089.73 552.549 1089.42 552.547 1088.77 551.524 C 1084.22 544.249 1083.87 525.172 1085.88 517.274 z"/>
<path transform="translate(0,0)" fill="rgb(0,1,1)" d="M 965.837 516.202 L 968.42 517.482 C 968.873 518.694 969.224 519.66 969.399 520.95 C 970.486 528.922 970.285 546.825 965.681 553.405 L 963.913 552.23 C 962.304 547.78 964.77 521.628 965.837 516.202 z"/>
<path transform="translate(0,0)" fill="rgb(0,1,1)" d="M 1094.51 706.374 C 1103.9 711.721 1113.96 713.39 1123.92 717.076 C 1126.48 718.023 1127.73 718.491 1128.87 720.996 L 1127.65 723.541 C 1119.91 721.068 1111.99 719.189 1104.27 716.633 C 1099.94 715.197 1094.72 713.991 1092.57 709.716 L 1094.51 706.374 z"/>
<path transform="translate(0,0)" fill="rgb(0,1,1)" d="M 991.699 716.438 C 995.914 716.085 997.398 716.233 1000.82 718.852 L 999.489 720.866 C 989.512 723.438 978.497 723.119 968.222 724.826 C 965.405 725.117 962.811 725.395 959.977 725.048 L 959.167 723.523 L 960.116 721.575 C 970.338 718.339 981.073 717.452 991.699 716.438 z"/>
<path transform="translate(0,0)" fill="rgb(0,1,1)" d="M 1169.06 752.144 C 1177.74 751.141 1188.65 754.648 1197.19 756.694 C 1211.29 760.07 1266.74 776.161 1273.42 787.092 C 1266.15 788.308 1252.44 779.93 1245.34 776.941 C 1234.23 772.255 1222.23 767.279 1210.49 764.393 C 1198.5 761.443 1185.87 760.01 1174.01 756.666 C 1170.86 755.778 1170.5 755.034 1169.06 752.144 z"/>
<path transform="translate(0,0)" fill="rgb(0,1,1)" d="M 910.216 758.322 C 913.215 757.868 914.597 757.594 917.473 758.878 L 917.178 760.121 C 907.737 764.299 895.304 765.444 885.186 767.96 A 281.095 281.095 0 0 0 808.697 799.056 C 806.479 800.516 805.316 800.678 802.677 800.71 L 802.344 799.598 C 802.506 799.342 802.646 799.072 802.83 798.831 C 815.42 782.326 887.85 761.868 910.216 758.322 z"/>
<path transform="translate(0,0)" fill="rgb(0,1,1)" d="M 1208.34 724.406 C 1237.37 721.925 1267.74 724.523 1296.62 727.665 C 1302.73 728.331 1310.03 728.475 1315.91 730.145 C 1317.97 730.731 1318.04 730.673 1319.08 732.634 L 1318.21 734.201 C 1308.72 734.22 1298.69 732.261 1289.24 731.136 C 1264.16 728.966 1239.2 727.53 1214.02 728.306 C 1206.51 728.538 1183.3 732.973 1177.96 730.204 L 1178.08 728.866 C 1186.77 725.08 1198.89 725.187 1208.34 724.406 z"/>
<path transform="translate(0,0)" fill="rgb(0,1,1)" d="M 1316.12 647.173 L 1317.53 648.659 L 1316.95 650.387 C 1311.99 653.515 1260.62 668.305 1251.26 671.518 C 1227.98 679.507 1205.73 689.131 1183.23 699.062 L 1181.61 697.699 L 1181.43 695.351 C 1190.02 685.063 1297.37 652.614 1316.12 647.173 z"/>
<path transform="translate(0,0)" fill="rgb(0,1,1)" d="M 876.323 732.439 C 884.545 732.106 898 730.632 905.34 734.829 L 905.325 734.847 L 902.995 734.12 L 902.454 735.631 C 887.78 737.462 872.321 736.544 857.51 737.246 A 637.197 637.197 0 0 0 778.143 746.235 C 769.663 748.051 761.984 749.704 753.249 749.149 L 755.171 747.618 L 752.792 748.847 C 754.123 748.239 755.473 747.654 756.789 747.015 C 776.48 737.448 852.935 733.286 876.323 732.439 z"/>
<path transform="translate(0,0)" fill="rgb(0,1,1)" d="M 752.713 670.057 C 786.619 670.263 857.583 692.282 891.331 703.192 C 897.39 705.15 906.789 706.912 912.018 710.37 C 913.27 711.198 913.09 713.71 913.274 715.162 C 898.207 711.017 883.344 705.384 868.437 700.646 A 997.021 997.021 0 0 0 806.268 683.371 C 799.579 681.751 754.751 673.724 754.311 673.503 C 752.902 672.792 753.069 671.469 752.713 670.057 z"/>
<path transform="translate(0,0)" fill="rgb(254,174,83)" d="M 922.202 578.533 C 946.932 595.777 959.862 623.326 969.387 651.216 C 948.851 663.819 926.533 667.687 902.916 664.486 C 898.5 663.737 894.2 662.76 889.857 661.666 C 894.422 660.244 901.206 657.099 905.907 657.865 C 911.251 654.961 916.663 646.797 918.593 641.14 C 918.002 636.5 921.222 629.742 921.639 624.546 C 920.487 621.778 923.018 610.481 923.198 606.646 C 923.487 600.468 922.8 593.787 921.134 587.826 C 920.433 585.316 920.605 586.669 920.63 584.025 L 922.333 583.012 C 921.654 581.159 921.664 580.428 922.202 578.533 z"/>
<path transform="translate(0,0)" fill="rgb(0,1,1)" d="M 922.202 578.533 C 946.932 595.777 959.862 623.326 969.387 651.216 C 948.851 663.819 926.533 667.687 902.916 664.486 C 898.5 663.737 894.2 662.76 889.857 661.666 C 894.422 660.244 901.206 657.099 905.907 657.865 L 905.524 660.853 C 927.279 662.779 944.155 658.726 963.926 649.594 C 955.456 625.634 943.764 599.514 923.216 583.642 C 923.233 584.13 923.242 584.618 923.267 585.105 C 923.457 588.945 924.879 592.771 925.514 596.574 C 927.99 611.417 927.127 628.247 918.593 641.14 C 918.002 636.5 921.222 629.742 921.639 624.546 C 920.487 621.778 923.018 610.481 923.198 606.646 C 923.487 600.468 922.8 593.787 921.134 587.826 C 920.433 585.316 920.605 586.669 920.63 584.025 L 922.333 583.012 C 921.654 581.159 921.664 580.428 922.202 578.533 z"/>
<path transform="translate(0,0)" fill="rgb(254,174,83)" d="M 1155.05 568.495 C 1153.71 572.136 1147.67 573.526 1148.05 576.51 C 1150.14 576.566 1152.1 576.552 1154.17 576.316 A 49.8501 49.8501 0 0 0 1145.78 601.482 C 1143.44 632.249 1162.62 644.651 1162.48 654.801 L 1165.88 657.708 L 1165.28 658.916 L 1168.95 658.378 C 1172.64 656.529 1176.98 658.333 1181.01 657.947 C 1182.72 657.784 1183.56 657.969 1185.15 658.528 C 1180.29 659.895 1175.64 660.938 1170.64 661.699 L 1163.99 662.57 C 1147.71 664.009 1132.32 661.836 1116.69 657.22 C 1111.37 655.651 1101.6 653.137 1099.37 647.496 C 1098.06 644.191 1099.19 640.112 1100.26 636.897 C 1109.03 610.308 1129.61 581.266 1155.05 568.495 z"/>
<path transform="translate(0,0)" fill="rgb(0,1,1)" d="M 1155.05 568.495 C 1153.71 572.136 1147.67 573.526 1148.05 576.51 C 1150.14 576.566 1152.1 576.552 1154.17 576.316 A 49.8501 49.8501 0 0 0 1145.78 601.482 C 1143.44 632.249 1162.62 644.651 1162.48 654.801 C 1161.49 654.181 1161.06 653.96 1160.19 653.282 C 1150.48 645.664 1143.71 628.725 1142.28 616.778 C 1140.68 602.59 1142.58 591.647 1147.46 578.252 C 1124.44 595.35 1110.61 618.699 1102.25 645.947 C 1117.61 653.236 1133.24 657.963 1150.25 659.315 C 1155.29 658.977 1160.23 658.864 1165.28 658.916 L 1168.95 658.378 C 1172.64 656.529 1176.98 658.333 1181.01 657.947 C 1182.72 657.784 1183.56 657.969 1185.15 658.528 C 1180.29 659.895 1175.64 660.938 1170.64 661.699 L 1163.99 662.57 C 1147.71 664.009 1132.32 661.836 1116.69 657.22 C 1111.37 655.651 1101.6 653.137 1099.37 647.496 C 1098.06 644.191 1099.19 640.112 1100.26 636.897 C 1109.03 610.308 1129.61 581.266 1155.05 568.495 z"/>
<path transform="translate(0,0)" fill="rgb(0,1,1)" d="M 1032.06 650.338 C 1041.77 649.384 1053.09 648.275 1062.13 652.624 C 1066.25 654.606 1069.73 657.892 1071.19 662.315 C 1072.69 666.875 1071.71 671.8 1069.55 675.974 C 1064.07 686.561 1053.26 692.277 1042.44 695.979 L 1042.06 718.447 C 1048.99 731.652 1060.31 743.679 1073.88 750.111 C 1089.16 757.355 1108.28 758.325 1123.94 751.574 C 1130.12 748.911 1135.49 744.998 1141.9 742.72 C 1142.23 742.603 1142.56 742.494 1142.89 742.381 L 1142.27 743.116 C 1140.4 745.334 1138.54 747.602 1136.28 749.433 C 1125.34 758.262 1109.53 761.706 1095.72 760.347 C 1074.28 758.238 1058.56 747.593 1045.11 731.33 L 1038.82 722.16 C 1036.79 726.07 1034.68 729.978 1032.36 733.726 A 62.8376 62.8376 0 0 1 991.426 762.44 C 977.996 765.316 964.827 763.511 953.345 755.776 C 951.02 754.209 947.655 752.036 947.143 749.211 C 956.443 749.835 964.828 759.516 981.128 759.258 C 996.582 759.013 1012.25 751.094 1022.58 739.804 C 1034.14 727.175 1037.78 714.124 1036.98 697.239 C 1033.97 695.919 1031.18 694.331 1028.38 692.622 C 1019.92 687.449 1010.98 679.533 1008.96 669.358 C 1008.2 665.499 1008.73 661.583 1011.15 658.409 C 1016.08 651.958 1024.67 651.459 1032.06 650.338 z"/>
<path transform="translate(0,0)" fill="rgb(234,59,48)" d="M 1034.9 654.338 C 1041.41 653.656 1049.62 653.194 1055.94 655.114 C 1060.09 656.376 1064.32 658.727 1066.24 662.823 C 1067.67 665.891 1067.51 669.311 1066.35 672.434 C 1063.15 680.975 1053.9 685.784 1046.09 689.34 C 1045.53 689.533 1044.97 689.733 1044.41 689.921 C 1039.48 691.566 1036.86 691.582 1032.29 689.193 C 1025.12 685.444 1016.48 678.653 1014.16 670.5 C 1013.34 667.613 1013.58 664.541 1015.29 662.017 C 1019.48 655.862 1028.2 655.408 1034.9 654.338 z"/>
<path transform="translate(0,0)" fill="rgb(0,1,1)" d="M 1186.14 557.912 C 1216.88 553.124 1246.55 558.416 1272.78 575.563 C 1266.14 601.543 1235.72 633.291 1212.93 646.785 C 1207.87 649.781 1202.72 652.505 1197.15 654.426 L 1196.95 654.01 C 1197.84 651.142 1202.85 650.408 1205.07 647.884 L 1204.84 646.004 L 1203.79 644.887 C 1202.32 646.291 1201.39 647.237 1199.53 648.104 C 1198.6 645.724 1207.76 639.788 1209.31 637.273 C 1211.38 633.931 1212.67 626.078 1213.93 622.027 C 1214.03 621.546 1214.16 621.067 1214.25 620.582 C 1218.06 600.892 1213.66 585.996 1202.29 569.929 L 1196.27 563.039 C 1185.44 562.476 1175.19 562.097 1164.9 566.005 C 1162.94 566.752 1162.77 566.2 1160.88 565.453 C 1169.15 561.666 1177.14 559.275 1186.14 557.912 z"/>
<path transform="translate(0,0)" fill="rgb(254,174,83)" d="M 1210.74 560.446 C 1230.22 561.566 1251.46 566.502 1267.79 577.656 C 1255.3 604.051 1233.59 632.136 1207.23 645.895 C 1210.35 639.426 1214.08 633.667 1216.47 626.821 C 1217.66 623.199 1218.5 619.277 1219 615.49 C 1221.25 598.419 1215.73 580.605 1205.56 566.972 C 1204.07 565.365 1202.68 563.704 1201.28 562.026 L 1201.94 560.89 L 1210.74 560.446 z"/>
<path transform="translate(0,0)" fill="rgb(13,12,12)" d="M 1160.88 565.453 C 1162.77 566.2 1162.94 566.752 1164.9 566.005 C 1175.19 562.097 1185.44 562.476 1196.27 563.039 L 1202.29 569.929 C 1213.66 585.996 1218.06 600.892 1214.25 620.582 C 1214.16 621.067 1214.03 621.546 1213.93 622.027 C 1212.67 626.078 1211.38 633.931 1209.31 637.273 C 1207.76 639.788 1198.6 645.724 1199.53 648.104 C 1201.39 647.237 1202.32 646.291 1203.79 644.887 L 1204.84 646.004 L 1205.07 647.884 C 1202.85 650.408 1197.84 651.142 1196.95 654.01 L 1197.15 654.426 C 1193.23 656.447 1189.39 657.487 1185.15 658.528 C 1183.56 657.969 1182.72 657.784 1181.01 657.947 C 1176.98 658.333 1172.64 656.529 1168.95 658.378 L 1165.28 658.916 L 1165.88 657.708 L 1162.48 654.801 C 1162.62 644.651 1143.44 632.249 1145.78 601.482 A 49.8501 49.8501 0 0 1 1154.17 576.316 C 1152.1 576.552 1150.14 576.566 1148.05 576.51 C 1147.67 573.526 1153.71 572.136 1155.05 568.495 C 1156.78 567.084 1158.85 566.358 1160.88 565.453 z"/>
<path transform="translate(0,0)" fill="rgb(13,12,12)" d="M 863.26 650.638 C 848.512 645.851 831.98 626.953 823.58 614.406 C 817.821 605.803 804.572 585.123 807.878 574.442 C 809.044 570.672 812.266 568.408 815.695 566.8 C 836.513 557.034 868.387 554.36 890.089 562.496 C 900.729 565.144 914.147 570.902 922.202 578.533 C 921.664 580.428 921.654 581.159 922.333 583.012 L 920.63 584.025 C 920.605 586.669 920.433 585.316 921.134 587.826 C 922.8 593.787 923.487 600.468 923.198 606.646 C 923.018 610.481 920.487 621.778 921.639 624.546 C 921.222 629.742 918.002 636.5 918.593 641.14 C 916.663 646.797 911.251 654.961 905.907 657.865 C 901.206 657.099 894.422 660.244 889.857 661.666 C 881.024 659.982 870.623 655.793 863.26 650.638 z"/>
<path transform="translate(0,0)" fill="rgb(254,174,83)" d="M 863.26 650.638 C 848.512 645.851 831.98 626.953 823.58 614.406 C 817.821 605.803 804.572 585.123 807.878 574.442 C 809.044 570.672 812.266 568.408 815.695 566.8 C 836.513 557.034 868.387 554.36 890.089 562.496 C 889.646 562.617 889.207 562.752 888.761 562.857 C 881.063 564.673 852.155 552.845 837.628 562.917 C 850.134 561.473 867.65 558.003 879.426 563.438 C 878.761 565.029 877.748 565.351 876.397 566.404 C 865.614 574.809 861.611 593.335 860.335 606.246 C 859.204 617.685 863.125 630.235 860.408 641.084 L 860.472 643.734 L 862.577 643.069 L 861.303 643.497 L 860.146 644.837 L 861.152 647.446 L 859.802 645.443 C 861.088 647.839 861.88 648.17 864.217 649.646 L 863.26 650.638 z"/>
<path transform="translate(0,0)" fill="rgb(0,1,1)" d="M 863.26 650.638 C 848.512 645.851 831.98 626.953 823.58 614.406 C 817.821 605.803 804.572 585.123 807.878 574.442 C 809.044 570.672 812.266 568.408 815.695 566.8 C 836.513 557.034 868.387 554.36 890.089 562.496 C 889.646 562.617 889.207 562.752 888.761 562.857 C 881.063 564.673 852.155 552.845 837.628 562.917 C 850.134 561.473 867.65 558.003 879.426 563.438 C 878.761 565.029 877.748 565.351 876.397 566.404 C 865.614 574.809 861.611 593.335 860.335 606.246 C 859.204 617.685 863.125 630.235 860.408 641.084 C 853.488 622.647 852.014 603.503 860.261 585.133 C 863.994 576.815 869.146 570.02 875.759 563.743 C 854.148 560.308 829.455 563.347 810.663 575.214 C 816.618 600.19 834.615 628.661 857.021 642.018 C 858.146 642.689 859.274 643.208 860.472 643.734 L 862.577 643.069 L 861.303 643.497 L 860.146 644.837 L 861.152 647.446 L 859.802 645.443 C 861.088 647.839 861.88 648.17 864.217 649.646 L 863.26 650.638 z"/>
<path transform="translate(0,0)" fill="rgb(0,1,1)" d="M 786.55 308.264 C 792.479 307.747 797.456 308.213 803.073 310.318 C 848.299 327.274 887.435 411.696 906.395 454.018 C 895.324 461.983 880.811 466.939 868.308 472.471 A 2793.93 2793.93 0 0 0 825.453 491.985 C 801.83 502.817 771.068 519.384 746.847 526.119 C 735.558 474.5 734.608 373.218 761.357 328.317 C 767.419 318.141 774.978 311.222 786.55 308.264 z"/>
<path transform="translate(0,0)" fill="rgb(234,59,48)" d="M 787.45 312.19 C 793.613 311.913 798.022 312.355 803.711 314.822 C 842.637 331.701 885.486 413.505 900.786 452.975 C 875.564 465.282 849.674 476.307 824.163 488.024 C 799.639 499.341 775.277 511.385 749.899 520.701 C 742.666 467.248 737.586 383.79 762.502 334.874 C 768.038 324.006 775.645 315.93 787.45 312.19 z"/>
<path transform="translate(0,0)" fill="rgb(0,1,1)" d="M 1280 302.219 C 1285.1 301.665 1290.13 302.173 1294.95 303.928 C 1306.24 308.034 1313.46 317.724 1318.12 328.375 C 1334.97 366.839 1334.72 475.966 1319.28 515.286 C 1291.98 510.992 1265.87 501.058 1240.3 490.899 C 1214.96 480.278 1187.38 470.504 1164.25 455.609 C 1167.72 431.585 1185.28 398.631 1198.15 377.801 C 1216.99 347.292 1243.38 310.919 1280 302.219 z"/>
<path transform="translate(0,0)" fill="rgb(234,59,48)" d="M 1282.09 306.215 C 1284.76 306.111 1287.28 306.358 1289.9 306.908 C 1298.81 308.772 1305.85 315.088 1310.52 322.673 C 1335.28 362.9 1327.39 465.696 1317.26 511.048 C 1290.42 505.994 1264.32 496.326 1239.13 486.009 C 1215.17 476.755 1191.04 466.116 1168.43 453.928 C 1177.48 426.791 1188.03 401.196 1203.47 376.952 C 1221.85 348.102 1246.94 314.037 1282.09 306.215 z"/>
<path transform="translate(0,0)" fill="rgb(235,235,235)" d="M 1466.25 318.401 C 1463.21 313.545 1459.72 309.479 1454.38 307.09 C 1447.26 303.904 1438.84 303.451 1431.63 306.673 C 1426.56 308.939 1422.94 312.859 1421.06 318.071 C 1418.92 324.007 1418.95 332.052 1421.7 337.788 C 1424.41 343.436 1429.6 347.374 1435.52 349.211 C 1442.61 351.411 1451.28 350.96 1457.82 347.306 C 1467.91 341.675 1465.58 334.303 1468.47 325.062 C 1472.89 334.851 1478.09 344.75 1486.86 351.273 C 1492.32 355.334 1500.05 359.915 1507.05 358.995 L 1507.97 357.466 C 1506.39 355.322 1491.65 350.253 1486.48 345.432 C 1467.84 328.045 1469.2 302.652 1468.98 279.397 C 1468.89 270.325 1468.23 261.246 1468.23 252.182 C 1468.23 240.553 1474.92 231.033 1482.85 223.086 C 1495.05 210.857 1511.47 202.749 1528.99 203.057 C 1545.73 203.351 1562.41 211.204 1574.07 223.076 C 1579.59 228.693 1584.26 235.538 1586.32 243.21 C 1589.1 253.526 1588.09 288.945 1587.9 301.874 C 1587.52 328.031 1581.52 335.82 1563.48 353.385 L 1563.63 355.091 L 1565.66 356.105 C 1570.02 354.4 1573.87 350.134 1577 346.687 C 1604.6 316.228 1583.86 260.94 1593.83 250.033 C 1597.04 246.52 1601.83 245.254 1606.46 245.324 C 1615.5 245.461 1623.31 250.244 1629.39 256.634 C 1641.57 269.452 1650.63 289.459 1653.54 306.819 C 1656.08 321.988 1655.91 338.322 1656.65 353.693 C 1659.06 403.531 1658.24 453.676 1658.92 503.573 L 1661.1 709.748 C 1661.62 754.387 1663.3 799.45 1661.97 844.067 C 1651.19 847.792 1640.59 851.17 1631.05 857.6 C 1614.21 867.125 1600.2 887.961 1595.18 906.357 C 1592.73 915.334 1589.79 936.085 1593.73 944.631 C 1594.76 953.051 1597.25 963.047 1602.26 970.029 C 1604.78 974.475 1607.42 978.598 1610.38 982.755 C 1585.21 1026.28 1549.01 1062.77 1518.33 1102.29 C 1507.33 1116.45 1496.15 1130.97 1487.77 1146.86 C 1474.29 1172.42 1465.93 1204.14 1462.98 1232.73 C 1460.38 1257.81 1460.46 1286.17 1466.86 1310.6 C 1467.94 1314.72 1469.15 1320.47 1471.45 1323.99 C 1477.4 1333.11 1494.09 1342.42 1502.88 1349.95 C 1511.9 1357.68 1519.42 1366.85 1526.29 1376.51 C 1523.28 1379.15 1520 1381.7 1517.23 1384.57 C 1504.92 1393.51 1490.52 1410.91 1485.46 1425.3 C 1483.74 1428.75 1481.73 1432.23 1480.6 1435.93 L 1478.45 1441.78 C 1477.39 1444.82 1476.16 1447.86 1475.52 1451.02 C 1465.61 1481.91 1470.06 1516.64 1482.83 1545.88 C 1486.02 1552.36 1489.08 1558.87 1493.46 1564.65 C 1500.9 1578.01 1522.6 1599.23 1537.12 1604.39 C 1539.22 1605.26 1541.28 1606.19 1543.34 1607.12 C 1546.85 1618.45 1512.1 1730.72 1504.89 1752.73 C 1487.53 1715.32 1464.99 1686.33 1425.7 1670.14 C 1387.72 1654.49 1349.89 1659.12 1312.92 1674.53 C 1312.52 1642.39 1312.91 1610.22 1312.95 1578.08 C 1312.98 1554.81 1312.37 1531.39 1313.53 1508.15 C 1306.93 1498.68 1299.05 1489.79 1291.79 1480.8 L 1245.83 1424.36 C 1227.39 1401.59 1209.7 1378.25 1191.39 1355.38 C 1165.54 1323.11 1139.32 1291.23 1113.98 1258.54 A 123.924 123.924 0 0 0 1132.47 1244.81 C 1156.85 1222.68 1167.94 1195.6 1169.56 1163.06 C 1187.22 1150.21 1205.25 1138 1222.26 1124.26 A 597.307 597.307 0 0 0 1349.94 979.228 C 1360.29 962.715 1373.09 942.524 1378.94 923.911 C 1378.03 921.592 1378.82 922.468 1376.51 921.341 C 1372.46 925.008 1369.03 936.812 1366.37 942.049 C 1359.14 956.311 1350.66 969.972 1342.22 983.543 C 1298.34 1054.1 1238.08 1110.57 1169.93 1157.22 C 1168.24 1142.57 1165.03 1129.47 1158.12 1116.36 C 1141.86 1085.54 1112.8 1065.1 1080.06 1054.8 A 90.4849 90.4849 0 0 0 1085.32 1050.37 C 1092.66 1043.65 1096.74 1035.14 1096.85 1025.11 C 1096.98 1013.43 1092.29 1004.64 1084.41 996.495 C 1105.45 993.418 1126.55 991.553 1147.5 987.708 C 1222.28 973.982 1302.76 944.694 1362.97 897.271 C 1361.8 894.607 1360.63 891.929 1359.63 889.194 C 1344.76 848.589 1346.14 767.469 1364.99 728.346 C 1376.15 705.201 1389 699.096 1412.17 691.046 C 1413.2 703.798 1413.7 766.169 1417.66 773.97 L 1418.98 774.109 C 1419.28 773.605 1419.71 773.157 1419.87 772.596 C 1421.14 768.308 1415.32 671.403 1414.59 655.906 L 1403.05 385.145 C 1402.1 359.563 1398.15 332.212 1401 306.769 C 1402.69 291.665 1408.38 275.681 1417.32 263.322 C 1423.2 255.183 1431.78 246.653 1442.12 245.27 C 1447.44 244.559 1452.83 245.255 1457.14 248.66 C 1470.35 259.087 1464.12 300.207 1466.06 316.856 L 1466.25 318.401 z"/>
<path transform="translate(0,0)" fill="rgb(0,1,1)" d="M 1506.78 285.118 A 37.7848 37.7848 0 0 1 1514.52 286.068 C 1522.95 287.972 1528.49 293.596 1532.87 300.694 C 1537.51 293.611 1543.08 287.252 1551.76 285.432 C 1557.88 284.149 1564.24 286.014 1569.28 289.562 C 1574.99 293.589 1579.41 300.007 1580.49 306.979 C 1581.49 313.454 1579.88 320.435 1575.71 325.556 C 1570.84 331.514 1564.54 333.62 1557.19 334.559 C 1555.78 334.315 1554.38 334.087 1553 333.674 C 1543.67 330.869 1539.07 323.807 1534.67 315.72 C 1530.69 323.669 1525.1 331.228 1516.2 334.003 C 1510.41 335.809 1504.01 334.806 1498.78 331.844 A 25.4191 25.4191 0 0 1 1486.71 315.871 C 1485.1 309.274 1485.98 301.702 1489.68 295.938 C 1493.81 289.513 1499.61 286.871 1506.78 285.118 z"/>
<path transform="translate(0,0)" fill="rgb(254,174,83)" d="M 1541.56 322.304 A 47.2064 47.2064 0 0 1 1538.11 316.242 C 1535.78 311.284 1535.88 306.136 1537.85 301.075 C 1539.6 296.581 1543.11 292.767 1547.55 290.841 C 1553.52 288.254 1559.37 289.019 1565.19 291.54 C 1569.81 294.922 1573.42 298.167 1574.9 303.901 L 1575.2 305.327 C 1576.83 310.57 1576.93 316.326 1574.24 321.275 C 1572.06 325.273 1567.79 328.05 1563.48 329.228 C 1558.45 330.601 1552.27 330.308 1547.73 327.547 C 1545.49 326.182 1543.37 324.19 1541.56 322.304 z"/>
<path transform="translate(0,0)" fill="rgb(0,1,1)" d="M 1543.93 320.021 C 1542.41 316.929 1541.27 313.293 1541.41 309.818 C 1541.57 305.754 1543.1 302.181 1546.25 299.556 C 1551.29 295.365 1556.08 295.106 1562.39 295.465 C 1566.1 298.546 1569.02 301.249 1571.37 305.5 L 1572.42 308.74 C 1572.53 314.299 1572.7 319.426 1568.51 323.629 C 1566.08 326.053 1562.84 327.169 1559.44 327.141 C 1553.23 327.09 1548.34 324.14 1543.93 320.021 z"/>
<path transform="translate(0,0)" fill="rgb(254,174,83)" d="M 1524.57 323.909 C 1524.36 324.153 1524.16 324.414 1523.93 324.641 C 1520.25 328.205 1513.3 331.18 1508.19 331.067 C 1503.26 330.957 1498.88 327.901 1495.76 324.275 C 1491.69 319.539 1489.66 313.519 1490.19 307.284 C 1490.64 302.08 1492.66 296.52 1496.89 293.234 C 1500.7 290.282 1506.5 288.935 1511.22 289.558 C 1517.23 290.384 1522.1 292.741 1525.75 297.723 C 1527.61 300.258 1528.7 302.672 1529.68 305.636 C 1530.44 312.527 1529.77 317.382 1525.38 322.985 C 1525.13 323.307 1524.84 323.601 1524.57 323.909 z"/>
<path transform="translate(0,0)" fill="rgb(0,1,1)" d="M 1514.24 295.601 C 1519.51 298.322 1522.42 299.979 1525.22 305.325 C 1526.06 311.483 1525.72 315.187 1523.23 320.855 C 1519.84 323.777 1517.05 326.105 1512.43 326.619 A 14.8733 14.8733 0 0 1 1501.14 323.184 A 16.3799 16.3799 0 0 1 1495.29 311.552 C 1495.07 307.509 1496.47 303.647 1499.3 300.745 C 1503.62 296.328 1508.34 295.823 1514.24 295.601 z"/>
<path transform="translate(0,0)" fill="rgb(0,1,1)" d="M 1616.37 316.192 C 1619.04 316.042 1621.88 316.279 1624.48 316.913 C 1631.35 318.586 1637.41 322.809 1641.01 328.921 A 24.1064 24.1064 0 0 1 1643.51 347.954 A 22.7228 22.7228 0 0 1 1632.47 361.635 C 1624.75 365.816 1617.07 364.779 1609.05 362.484 C 1603.74 370.916 1597.89 378.827 1591.61 386.558 C 1602.48 395.367 1611.67 404.096 1615.73 417.993 C 1620.18 433.187 1620.81 492.882 1618.19 508.959 A 69.7826 69.7826 0 0 1 1610.65 530.735 C 1600.25 550.213 1580.41 565.346 1559.34 571.583 C 1533.31 579.291 1508.14 574.331 1484.74 561.665 C 1480.15 559.05 1475.57 555.876 1471.52 552.496 C 1456.68 540.099 1447.65 524.014 1445.93 504.647 C 1444.65 490.37 1443.32 418.35 1445.8 408.009 C 1447.51 400.866 1451.21 395.827 1455.79 390.327 C 1451.34 388.536 1444.15 386.439 1441.38 382.37 C 1440.53 381.128 1440.9 381.324 1441.37 379.7 C 1447.56 380.204 1453.15 386.018 1459.76 386.825 C 1479.18 389.199 1499.87 387.872 1519.42 387.522 C 1541.99 387.118 1564.54 387.279 1587.05 385.256 C 1594.44 378.104 1600.22 368.886 1606.16 360.52 C 1603.76 357.281 1601.4 354.088 1599.93 350.303 C 1597.33 343.582 1597.17 335.404 1600.34 328.849 C 1603.74 321.834 1609.24 318.589 1616.37 316.192 z"/>
<path transform="translate(0,0)" fill="rgb(254,174,83)" d="M 1608.01 324.11 C 1612.79 321.06 1616.69 319.205 1622.46 320.448 A 22.1669 22.1669 0 0 1 1636.88 331.126 C 1639.83 336.251 1640.58 341.921 1638.93 347.613 C 1638.1 350.48 1636.47 352.737 1634.47 354.901 C 1631.09 358.195 1627.06 359.712 1622.42 360.474 C 1617.52 361.277 1612.94 359.902 1609.04 356.879 C 1604.68 353.494 1602.01 348.449 1601.4 342.978 C 1600.56 335.526 1603.49 329.764 1608.01 324.11 z"/>
<path transform="translate(0,0)" fill="rgb(0,1,1)" d="M 1609.67 329.308 C 1613.76 326.061 1617.12 324.05 1622.52 324.863 C 1627.01 325.538 1630.89 328.167 1633.48 331.847 A 18.07 18.07 0 0 1 1636.22 346.248 C 1635.73 348.262 1634.64 350.062 1633.57 351.817 C 1632.25 352.854 1630.87 353.949 1629.37 354.711 C 1625.2 356.831 1619.25 357.512 1614.91 355.533 C 1610.76 353.642 1608.1 350.116 1606.8 345.816 C 1604.97 339.771 1606.85 334.648 1609.67 329.308 z"/>
<path transform="translate(0,0)" fill="rgb(234,59,48)" d="M 1459.44 392.139 C 1480.42 390.361 1502.83 392.031 1523.97 391.931 C 1545.44 391.828 1567.13 390.188 1588.56 390.926 C 1597.53 397.163 1605.86 404.096 1610.04 414.554 C 1616.18 429.901 1616.44 485.602 1614.41 503.124 A 74.7738 74.7738 0 0 1 1609 523.89 C 1602.76 538.541 1590.05 553.561 1575.03 559.577 C 1569.22 563.776 1562.49 566.076 1555.68 568.123 C 1543.66 570.707 1533.03 572.087 1520.77 570.585 L 1513.78 568.927 C 1500.95 567.872 1482.31 556.207 1472.69 547.788 C 1457.72 534.69 1450.85 518.518 1449.72 498.848 C 1448.95 485.501 1449.47 471.961 1449.25 458.583 C 1449 442.639 1445.89 424.279 1449.86 408.701 C 1451.64 401.743 1454.81 397.371 1459.44 392.139 z"/>
<path transform="translate(0,0)" fill="rgb(0,1,1)" d="M 1514.62 564.928 C 1506.74 562.236 1498.43 558.416 1491.59 553.61 C 1477.1 543.427 1466.42 525.767 1463.36 508.405 C 1459.99 489.299 1464.1 468.812 1475.53 453.018 C 1486.89 437.336 1505.28 426.132 1524.45 423.353 C 1541.82 420.835 1559.72 424.872 1573.71 435.637 C 1589.26 447.603 1600.11 467.908 1602.62 487.275 C 1605.09 506.323 1599.53 523.805 1587.75 538.72 C 1584.28 543.116 1579.98 546.93 1576.66 551.37 C 1576.42 551.682 1576.21 552.009 1575.99 552.329 C 1568.43 557.175 1561.57 561.738 1552.85 564.217 C 1544.5 566.202 1536.6 567.184 1528.02 567.314 L 1514.62 564.928 z"/>
<path transform="translate(0,0)" fill="rgb(13,12,12)" d="M 1526.52 428.338 C 1539.46 426.571 1553.55 429.207 1564.67 436.118 C 1580.53 445.979 1593.26 464.361 1597.19 482.597 C 1601.04 500.46 1596.31 517.5 1586.57 532.609 C 1575.17 550.292 1560.43 558.212 1540.24 562.71 C 1540.06 562.768 1539.89 562.848 1539.71 562.883 C 1525.34 565.626 1506.19 557.883 1494.55 549.614 C 1480.63 539.716 1471.22 523.317 1468.52 506.546 C 1465.64 488.619 1469.88 468.544 1480.94 454.036 C 1492.6 438.743 1507.72 431.01 1526.52 428.338 z"/>
</svg>