<svg version="1.1" xmlns="http://www.w3.org/2000/svg" style="display: block;" viewBox="0 0 2048 2048" width="1024" height="1024">
<path transform="translate(0,0)" fill="rgb(249,106,193)" d="M 0 0 L 2048 0 L 2048 2048 L 0 2048 L 0 0 z"/>
<path transform="translate(0,0)" fill="rgb(0,0,0)" d="M 1514.64 259.78 C 1514.71 260.401 1514.77 261.024 1514.86 261.644 C 1515.14 263.721 1515.79 265.337 1516.61 267.249 C 1519.2 273.348 1521.57 280.494 1522.72 287.016 C 1524.87 299.337 1528.2 336.998 1525.19 348.026 C 1524.05 348.837 1523.28 349.294 1521.95 349.822 L 1519.94 347.989 C 1517.88 337.685 1519.13 326.945 1518.31 316.491 C 1517.03 300.199 1514.08 283.891 1512.94 267.58 C 1512.74 264.726 1513.44 262.343 1514.64 259.78 z"/>
<path transform="translate(0,0)" fill="rgb(0,0,0)" d="M 1566.8 594.634 C 1568.67 597.203 1571.57 600.493 1572.61 603.498 C 1577.94 619.002 1569.66 642.837 1577.54 656.804 C 1575.6 663.382 1574.95 667.487 1569.31 671.871 C 1568.46 670.468 1567.65 669.116 1567.37 667.473 C 1566.21 660.699 1567.34 653.123 1567.09 646.249 C 1566.65 634.348 1560.47 604.106 1566.8 594.634 z"/>
<path transform="translate(0,0)" fill="rgb(0,0,0)" d="M 1508.75 238.15 C 1507.4 237.129 1507.15 236.645 1506.52 235.035 C 1504.86 230.755 1501.54 227.313 1500.13 222.94 C 1496.92 213.018 1497.17 201.782 1494.31 191.617 C 1488.89 172.294 1479.41 154.491 1473.58 135.531 C 1472.89 133.286 1472.95 131.154 1473.3 128.863 C 1488.32 151.485 1511.4 210.739 1508.75 238.15 z"/>
<path transform="translate(0,0)" fill="rgb(0,0,0)" d="M 427.698 302.853 A 1085.94 1085.94 0 0 0 443.911 314.508 C 448.547 317.766 456.647 324.56 462.689 323.05 C 464.34 322.637 464.368 321.857 465.2 320.526 C 463.806 314.439 465.903 309.367 465.129 303.481 C 464.441 298.25 461.851 293.407 461.091 288.144 C 459.42 276.571 464.197 254.242 466.68 242.371 C 467.744 241.462 470.928 239.157 471.378 237.888 C 472.793 233.901 470.432 220.943 471.053 215.568 C 472.064 206.804 477.718 198.582 478.327 189.906 C 478.844 182.532 476.783 175.195 477.903 167.787 C 479.636 156.335 488.865 150.925 493.739 141.327 C 497.853 133.227 498.464 122.896 501.917 114.364 C 507.851 99.7023 518.702 88.0196 527.225 74.8463 C 537.985 58.2165 552.995 37.1518 573.925 33.2629 C 592.987 29.7209 614.786 42.6971 631.765 49.4475 C 644.502 54.5115 658.074 56.318 670.757 61.9383 C 678.249 65.2583 686.009 68.7198 693.028 72.9584 C 712.404 84.6593 733.603 102.072 751.692 116.198 C 762.145 124.36 773.517 132.235 783.011 141.499 C 789.023 147.365 813.756 177.897 816.698 179.344 C 817.13 179.557 817.623 179.61 818.082 179.757 C 825.828 182.239 852.477 172.936 863.057 171.351 C 909.123 164.448 947.051 160.747 993.763 161.828 C 999.624 161.964 1006.25 161.507 1011.96 162.515 C 1022.07 164.299 1031.1 168.185 1041.57 169.169 C 1060.18 170.917 1079.1 168.622 1097.72 171.433 C 1109.13 173.155 1138.28 185.251 1147.82 180.487 C 1154.66 177.078 1164.33 162.048 1171.6 156.256 C 1187.01 143.962 1201.76 129.872 1217.62 118.324 C 1249.29 95.2508 1281.7 80.7778 1317.44 65.6628 C 1326.81 61.6994 1336.47 58.0208 1346.37 55.6067 C 1362.89 51.5766 1398.8 47.0111 1414.42 53.3039 C 1414.67 53.6245 1414.9 53.9645 1415.17 54.2656 C 1421.28 60.9941 1430.46 60.8189 1436.62 66.5774 C 1445.87 75.2429 1466.25 115.945 1473.3 128.863 C 1472.95 131.154 1472.89 133.286 1473.58 135.531 C 1479.41 154.491 1488.89 172.294 1494.31 191.617 C 1497.17 201.782 1496.92 213.018 1500.13 222.94 C 1501.54 227.313 1504.86 230.755 1506.52 235.035 C 1507.15 236.645 1507.4 237.129 1508.75 238.15 C 1506.8 241.846 1508.52 248.23 1509.62 252.074 C 1510.48 255.043 1511.29 257.843 1514.03 259.533 C 1514.22 259.649 1514.44 259.697 1514.64 259.78 C 1513.44 262.343 1512.74 264.726 1512.94 267.58 C 1514.08 283.891 1517.03 300.199 1518.31 316.491 C 1519.13 326.945 1517.88 337.685 1519.94 347.989 L 1521.95 349.822 C 1520.9 356.206 1521.97 364.171 1522.14 370.713 C 1524.25 378.808 1527.43 404.056 1522.49 410.822 C 1521.52 412.15 1519.34 413.135 1517.95 413.889 C 1518.28 416.95 1518.68 418.998 1519.95 421.796 C 1527.16 442.37 1540.87 460.673 1548.52 481.427 C 1552.84 493.141 1556.82 505.919 1559.19 518.173 C 1561.29 529.08 1562.26 540.371 1565.37 551.028 C 1561.34 564.572 1569.32 580.735 1566.8 594.634 C 1560.47 604.106 1566.65 634.348 1567.09 646.249 C 1567.34 653.123 1566.21 660.699 1567.37 667.473 C 1567.65 669.116 1568.46 670.468 1569.31 671.871 C 1571.51 681.636 1566.83 690.536 1568.79 699.619 L 1569.61 699.984 C 1570.53 702.442 1571.26 704.674 1571.02 707.337 C 1570.68 711.222 1559.78 764.451 1559.48 765.126 C 1558.65 766.985 1557.04 768.757 1555.75 770.319 C 1556.31 775.972 1552.31 786.526 1548.82 791.023 C 1548.64 791.254 1548.42 791.458 1548.23 791.675 C 1548.47 795.557 1548.95 799.707 1548.11 803.543 C 1542.97 827.074 1517.05 869.487 1504.3 890.652 C 1500.29 897.317 1493.08 900.737 1488.79 906.999 C 1487.02 909.583 1486.95 911.523 1487.46 914.508 C 1492.06 920.594 1502.69 923.106 1509.72 925.857 C 1532.31 934.697 1561.56 987.447 1577.75 1008.03 C 1585.1 1017.37 1594.92 1025.07 1601.47 1034.98 C 1606.64 1042.8 1610.48 1052.31 1614.24 1060.91 C 1620.93 1076.19 1626.12 1092.03 1630.97 1107.97 C 1633.51 1116.33 1636.66 1124.59 1638.65 1133.11 C 1645.9 1164.3 1642.51 1195.19 1639.22 1226.51 C 1637.34 1244.45 1636.39 1261.89 1629.73 1278.85 L 1630.35 1279.41 L 1631.38 1280.37 C 1654.5 1301.6 1673.08 1335.84 1683.08 1365.44 C 1711.18 1448.55 1718.87 1499.4 1687.47 1583.68 C 1681.71 1599.14 1676.26 1615.21 1668.99 1630.02 C 1672.38 1630.67 1676.08 1631.39 1678.97 1633.37 C 1685.56 1637.86 1689.55 1645.95 1696.2 1650.74 C 1708.97 1659.92 1726.99 1664.5 1737.19 1677.04 C 1739.37 1679.71 1741.19 1683.35 1740.26 1686.89 C 1739.42 1690.09 1736.55 1691.13 1733.98 1692.79 C 1748.34 1701.36 1761.99 1711.51 1771.84 1725.19 C 1771.55 1731.8 1772.79 1737.74 1774.12 1744.17 C 1774.43 1744.5 1774.75 1744.82 1775.06 1745.16 L 1776.44 1746.65 C 1778.62 1748.98 1780.46 1750.94 1781.45 1754.05 C 1783.62 1760.88 1780.59 1769.87 1777.42 1775.94 C 1786.25 1803.54 1782.88 1812.14 1771.06 1837.68 C 1768.09 1844.08 1766.48 1850.89 1763.94 1857.44 C 1762.48 1861.2 1760.21 1864.54 1758.86 1868.36 C 1758.64 1868.97 1758.43 1869.59 1758.22 1870.21 C 1750.62 1875.8 1743.61 1882.2 1736.17 1888.02 C 1736.06 1890.18 1735.91 1892.34 1735.82 1894.51 C 1735.78 1895.34 1735.79 1896.18 1735.73 1897.02 C 1735.27 1903.42 1731.24 1910.24 1725.85 1913.72 C 1717.57 1919.07 1706.31 1919.21 1697.14 1922.58 C 1689.02 1925.56 1681.38 1930.42 1673.53 1934.09 C 1668.39 1936.5 1662.68 1938.17 1657.77 1940.93 C 1649.8 1945.42 1645.92 1955.21 1636.9 1959.12 C 1623.83 1964.79 1608.85 1965.45 1595.34 1969.8 C 1581.48 1974.26 1568.26 1980.75 1554.38 1985.21 C 1541.89 1989.23 1528.8 1991.35 1516.41 1995.65 C 1505.16 1999.54 1494.28 2004.73 1482.76 2007.82 C 1469.44 2011.39 1455.95 2014.76 1442.12 2015.4 C 1435.83 2015.69 1418.99 2013.68 1414.15 2015.7 C 1413.04 2016.16 1411.29 2018.09 1410.29 2018.92 C 1389.78 2020.22 1369.9 2027.36 1349.55 2028.33 C 1332.9 2029.11 1316.39 2023.19 1299.61 2025.2 C 1290.58 2026.28 1281.48 2028.86 1272.55 2030.68 C 1253.58 2034.53 1233.39 2037.55 1213.99 2037.29 C 1196.09 2037.05 1178.9 2031.82 1161.19 2030.66 C 1145.63 2029.63 1129.88 2034.91 1114.27 2035.11 C 1105.23 2035.23 1096 2035.01 1087.01 2033.98 C 1077.13 2032.85 1064.18 2029 1054.47 2030.29 C 1051.87 2030.64 1049.44 2032.12 1046.92 2032.85 C 1042.74 2034.06 1037.6 2034.07 1033.25 2034.49 A 283.958 283.958 0 0 1 958.059 2032.42 C 946.293 2030.62 934.662 2027.22 922.777 2026.33 C 898.719 2024.54 874.838 2030.55 851.722 2028.61 C 835.491 2027.25 818.503 2023.76 802.702 2019.86 C 791.655 2017.13 780.472 2013.62 769.189 2012.06 C 756.73 2010.35 743.402 2009.28 730.846 2009.1 C 715.714 2008.88 700.927 2009.92 685.857 2007.71 C 656.371 2003.39 627.287 1998.78 598.731 1989.98 C 586.16 1986.1 574.864 1979.22 561.968 1976 C 547.736 1972.45 532.452 1975.6 518.43 1972.01 C 499.514 1967.17 482.724 1957.63 464.188 1952.01 C 445.539 1946.35 424.864 1945.44 407.046 1937.46 C 389.28 1929.51 374.134 1917.01 356.156 1909.35 C 332.171 1899.13 305.816 1892.19 283.177 1879.08 C 265.976 1869.12 254.987 1855.63 241.096 1842.12 C 233.298 1834.53 223.515 1829.98 215.396 1822.94 C 203.025 1812.22 185.997 1771.95 182.088 1756.23 C 179.356 1745.24 182.944 1738.55 188.353 1729.37 C 195.123 1717.87 192.451 1702.09 189.151 1689.79 C 189.036 1689.37 188.912 1688.94 188.792 1688.51 C 194.304 1673.03 202.238 1661.86 210.306 1647.87 C 215.917 1638.14 221.04 1626.62 228.486 1618.22 C 245.013 1599.58 272.871 1594.31 294.58 1584.29 C 301.974 1580.87 308.188 1576.28 315.109 1572.13 L 317.421 1574.01 L 318.248 1571.98 L 316.526 1570.71 C 316.082 1567.88 319.965 1567.15 319.602 1562.75 C 318.97 1555.09 317.069 1547.16 315.972 1539.52 C 313.227 1520.4 311.06 1501.69 310.923 1482.36 C 310.857 1473.03 316.517 1465.42 316.63 1456.46 C 314.584 1456 315.544 1456.43 313.779 1455.11 C 313.37 1450.55 312.49 1446.4 311.295 1441.98 C 316.048 1428.65 320.658 1415.59 321.621 1401.33 C 322.013 1395.52 319.719 1389.94 321.235 1384.17 C 324.974 1369.94 334.211 1356.89 341.141 1344.09 C 347.754 1331.87 352.913 1318.89 359.574 1306.69 C 365.991 1294.93 374.102 1284.34 382.015 1273.57 C 370.307 1262.01 355.694 1257.82 342.338 1248.74 C 325.34 1237.19 315.232 1218.28 301.171 1203.68 C 291.918 1194.07 280.011 1186.7 271.926 1176.02 C 264.513 1166.22 262.736 1154.21 256.948 1143.69 C 252.561 1135.71 246.311 1129.53 240.463 1122.66 C 230.799 1111.32 223.874 1094.11 221.348 1079.32 C 220.913 1076.78 221.738 1076.63 223.132 1074.6 C 222.471 1069.98 217.77 1068.44 216.795 1063.87 C 221.511 1048.65 195.315 1007.16 191.911 989.697 C 188.661 973.027 193.049 954.984 194.184 938.328 C 194.923 927.487 192.143 916.656 192.952 905.637 C 193.921 892.428 197.189 879.44 198.4 866.259 C 199.569 853.521 198.472 840.583 199.947 827.867 C 201.253 816.608 203.971 805.28 204.659 793.987 C 205.716 776.645 202.431 759.599 202.335 742.418 C 202.247 726.69 205.664 713.425 209.553 698.44 C 211.177 692.183 213.592 682.764 212.537 676.354 C 209.818 659.84 201.718 645.034 194.967 630.02 C 189.983 618.934 185.288 607.136 181.537 595.573 C 177.833 584.156 174.703 572.038 172.077 560.325 C 169.523 548.931 168.711 535.326 162.799 525.162 C 162.817 518.31 165.517 511.843 165.347 505.299 C 165.113 496.312 162.823 487.726 163.425 478.639 L 164.244 477.194 C 164.603 476.548 164.918 475.877 165.312 475.252 C 169.968 467.85 166.947 450.266 168.754 440.927 C 169.736 435.849 171.805 430.959 173.163 425.973 C 175.046 419.063 175.979 411.871 177.867 404.927 C 181.362 392.065 188.27 376.712 194.965 365.18 C 196.829 361.967 205.291 347.468 208.035 345.901 C 208.905 345.405 210.133 345.818 210.973 345.272 C 212.358 344.374 214.852 339.962 215.948 338.472 C 227.378 322.922 237.052 311.628 256.477 306.405 C 291.171 316.236 272.588 303.628 293.289 294.092 C 311.475 285.715 332.668 293.42 350.143 299.666 C 354.416 297.647 358.323 295.812 363.068 295.211 C 381.774 292.84 396.406 299.681 411.017 310.686 C 416.507 307.796 421.866 305.009 427.698 302.853 z"/>
<path transform="translate(0,0)" fill="rgb(221,128,53)" d="M 1413.66 1015.31 C 1418.6 1016.53 1421.35 1014.2 1425.76 1017.93 C 1434.9 1025.66 1440.57 1041.98 1440.99 1053.72 C 1441.34 1063.31 1439.15 1075.65 1432.35 1082.67 L 1430.18 1082.41 C 1422.84 1073.93 1403.49 1043.3 1400.73 1032.77 C 1398.45 1024.1 1409.34 1023.57 1412.78 1017.11 C 1413.09 1016.52 1413.37 1015.91 1413.66 1015.31 z"/>
<path transform="translate(0,0)" fill="rgb(221,128,53)" d="M 1373.79 1059.96 C 1375.61 1060.85 1377.36 1061.69 1378.9 1063.03 C 1385.33 1068.64 1413.61 1110.65 1411.93 1118.5 C 1411.46 1120.72 1409.85 1119.2 1409.98 1122.78 C 1411.85 1123.04 1411.03 1122.77 1412.48 1123.45 C 1409.16 1126.37 1406.38 1129.77 1403.5 1133.11 C 1402.03 1133.2 1400.59 1133.21 1399.13 1133.21 C 1395.58 1129.51 1393.93 1124.68 1391.18 1120.4 C 1388.69 1116.54 1385.58 1113.02 1382.87 1109.3 C 1377.56 1102.01 1359.21 1075.6 1360.55 1067.25 C 1362.28 1065.17 1363.67 1064.41 1366.08 1063.36 L 1373.79 1059.96 z"/>
<path transform="translate(0,0)" fill="rgb(221,128,53)" d="M 1330.85 1085.68 C 1340.83 1091.55 1351.67 1107.72 1355.75 1118.53 C 1361.42 1133.53 1374.81 1157.48 1374.1 1173.2 C 1372 1177.75 1365.29 1181.9 1361.01 1184.26 L 1359.47 1184.81 C 1352.62 1182.01 1331.23 1136.81 1327.66 1127.68 C 1325.14 1121.24 1324.13 1113.37 1320.98 1107.38 C 1319.62 1104.81 1316.92 1102.64 1314.81 1100.67 C 1319.11 1093.8 1324.3 1090.17 1330.85 1085.68 z"/>
<path transform="translate(0,0)" fill="rgb(221,128,53)" d="M 1284.46 1113.13 C 1286.35 1113 1287.33 1113.09 1289.06 1113.85 C 1297.38 1124.14 1322.07 1198.22 1324.58 1213.44 C 1318.93 1218.97 1313.63 1224.25 1306.34 1227.62 C 1304.5 1226.53 1302.85 1225.3 1301.22 1223.92 C 1298.27 1221.43 1296.58 1219.46 1294.88 1215.98 C 1289.48 1204.92 1286.5 1192.35 1282.11 1180.82 C 1277.5 1168.69 1271.08 1156.98 1267.29 1144.59 C 1265.12 1137.52 1263.84 1130.48 1263.11 1123.13 L 1264.73 1122.04 L 1265.49 1122.89 L 1263.3 1121.78 C 1266.66 1117.12 1279.07 1114.57 1284.46 1113.13 z"/>
<path transform="translate(0,0)" fill="rgb(221,128,53)" d="M 1227.94 1133.36 C 1228.22 1133.29 1228.5 1133.2 1228.79 1133.15 C 1230.39 1132.85 1232.98 1132.64 1234.31 1133.72 C 1237.51 1136.34 1238.06 1141.56 1238.41 1145.41 C 1239.73 1159.69 1248.3 1173.63 1252.58 1187.35 C 1258.57 1206.54 1261.26 1227.46 1263.41 1247.39 C 1257.9 1255.65 1252.14 1259.1 1243.21 1262.93 C 1240.22 1259.86 1237.8 1256.92 1236.08 1252.95 C 1231.97 1243.4 1230.52 1231.67 1228.19 1221.54 C 1225.41 1209.5 1221.52 1197.7 1218.96 1185.62 C 1215.47 1169.21 1213.43 1152.72 1209.03 1136.46 L 1227.94 1133.36 z"/>
<path transform="translate(0,0)" fill="rgb(221,128,53)" d="M 748.941 1114.5 C 755.994 1117.81 761.118 1124.14 768.87 1126.55 C 770.617 1127.1 771.787 1127.43 773.285 1128.56 C 768.793 1147.63 759.688 1166.85 753.221 1185.44 C 747.523 1201.82 734.751 1258.13 722.818 1267.73 C 720.795 1269.36 719.222 1269.54 716.78 1269.2 L 715.158 1268.67 C 706.044 1265.72 697.612 1259.45 689.253 1254.76 C 696.243 1243.66 699.382 1229.29 703.824 1216.99 C 711.325 1196.23 736.088 1127.5 748.941 1114.5 z"/>
<path transform="translate(0,0)" fill="rgb(221,128,53)" d="M 1166.5 1142.58 C 1170.58 1141.75 1177.39 1142.11 1181.23 1143.68 C 1186.86 1157.18 1188.97 1173.23 1192.07 1187.5 C 1198.96 1219.2 1207.45 1248.9 1207.37 1281.66 C 1197.63 1289.01 1189.65 1297.2 1178.55 1302.76 C 1176.05 1304.24 1173.77 1305.31 1171.04 1306.33 C 1169.3 1305.18 1169.59 1304.5 1169.07 1302.56 C 1169.66 1301.42 1170.13 1300.27 1170.46 1299.02 C 1171.93 1293.52 1165.46 1273.86 1164.47 1266.62 C 1162.57 1252.68 1163.31 1239.11 1162.88 1225.14 C 1161.97 1195.22 1151.75 1168.97 1137.3 1143.12 C 1137.68 1143.19 1138.06 1143.26 1138.44 1143.35 C 1148.59 1145.66 1156.46 1143.07 1166.5 1142.58 z"/>
<path transform="translate(0,0)" fill="rgb(221,128,53)" d="M 809.035 1130.42 C 811.204 1131.3 812.602 1131.9 814.964 1132.05 C 820.408 1132.37 824.327 1136 828.674 1139.01 C 822.926 1152.14 821.182 1167.83 816.868 1181.62 C 816.096 1184.09 812.055 1193.45 812.35 1195.02 C 812.713 1196.94 813.917 1195.68 813.771 1198.7 C 812.249 1200.62 810.247 1202.77 809.508 1205.13 C 804.15 1222.26 798.426 1251.42 797.004 1268.87 C 796.508 1274.95 796.706 1283.43 791.52 1287.53 C 787.169 1290.97 781.049 1291.52 775.744 1290.78 C 764.349 1288.43 756.521 1285.63 747.527 1278.08 C 751.851 1264.29 758.384 1251.03 762.901 1237.2 C 772.007 1209.31 781.658 1160.81 797.292 1137.02 C 800.309 1132.44 803.835 1131.37 809.035 1130.42 z"/>
<path transform="translate(0,0)" fill="rgb(221,128,53)" d="M 1620.2 1317.45 C 1631.41 1323.37 1646.27 1351.63 1651.94 1363.4 C 1655.25 1370.26 1659.13 1377.5 1661.3 1384.79 C 1662.45 1388.65 1661.35 1392.47 1662.01 1396.4 C 1663.82 1407.25 1673.76 1428.62 1670.04 1438.89 C 1669.45 1440.52 1669.35 1441.77 1669.23 1443.47 C 1675.15 1452.93 1669.18 1465.98 1669.25 1476.58 C 1669.29 1483.4 1670.84 1490.19 1670.96 1497.02 C 1671.05 1502.52 1668.93 1526.88 1667.57 1531.43 C 1665.82 1537.29 1662.81 1542.72 1661.43 1548.72 C 1659.7 1556.29 1658.72 1563.92 1656.67 1571.45 C 1638.45 1638.26 1606.42 1679.55 1558.97 1728.24 C 1551.8 1735.6 1545.74 1744.09 1538.35 1751.18 C 1526.27 1762.78 1509.91 1768.49 1495.53 1776.46 C 1486.71 1781.34 1463.36 1798.68 1454.39 1798.51 C 1445.71 1803.26 1430.33 1806.26 1420.5 1805.99 L 1420 1804.92 C 1422.23 1800.97 1423.98 1796.96 1424.96 1792.5 C 1426.15 1787.1 1425.34 1770.82 1428.15 1767.46 A 130.609 130.609 0 0 1 1434.94 1769 C 1440.05 1767.07 1443.38 1762.96 1447.15 1759.15 A 144.771 144.771 0 0 1 1445.02 1747.1 C 1441.31 1720.07 1446.15 1692.38 1453.74 1666.48 C 1455.7 1659.78 1457.29 1652.49 1461.65 1646.9 C 1473.05 1632.3 1465.32 1633.22 1469.81 1622.79 C 1471.93 1617.86 1479.04 1617.86 1480.99 1606.32 C 1480.1 1603.83 1479.56 1603.95 1477.2 1602.66 C 1477.92 1600.44 1480.36 1599.52 1482.28 1598.24 C 1490.07 1577.07 1504.24 1560.53 1515.13 1541.17 C 1520.55 1531.54 1520.45 1520.03 1525.37 1510.39 C 1529.33 1502.62 1535.29 1495.25 1540.13 1487.95 C 1546.38 1478.52 1551.52 1468.4 1557.51 1458.79 C 1562.4 1450.93 1568.45 1443.23 1572.66 1435.02 C 1576.42 1427.7 1577.06 1419.08 1580.65 1411.61 C 1589.32 1393.56 1597.78 1380.11 1598.98 1359.58 L 1601.66 1359.02 C 1611.71 1350.35 1616.7 1329.82 1620.2 1317.45 z"/>
<path transform="translate(0,0)" fill="rgb(0,0,0)" d="M 1614.26 1487.44 L 1617.41 1487.92 A 49.71 49.71 0 0 1 1631.95 1503.87 C 1639.19 1516.25 1647.75 1541.79 1644.68 1556.18 C 1643.36 1562.38 1639.81 1568.1 1638.47 1574.37 C 1637.13 1580.65 1637.12 1587.89 1635.16 1593.93 C 1633.16 1600.09 1628.14 1605.37 1625.31 1611.18 C 1622.45 1617.04 1621.47 1623.63 1618.38 1629.48 C 1614.03 1637.68 1607.37 1644.81 1601.27 1651.72 C 1583.29 1672.07 1566.18 1688.21 1541.9 1701 C 1537.25 1700.32 1534.36 1699.66 1530.18 1702.19 C 1525.17 1694.58 1517.42 1684.94 1515.72 1675.96 C 1514.92 1671.69 1515.86 1670.68 1518.14 1667.36 L 1517.13 1665.95 C 1515.09 1665.76 1514.18 1665.64 1512.28 1664.74 L 1512.99 1662.69 C 1515.18 1662.99 1514.44 1662.81 1516.35 1663.33 C 1516.77 1663.45 1517.17 1663.57 1517.58 1663.69 L 1518.33 1661.61 C 1517.06 1659.14 1514.15 1661.14 1511.49 1659.21 C 1507.65 1648.13 1519.48 1626.96 1522.16 1613.6 C 1526.4 1611.63 1529.41 1608.56 1532.7 1605.32 C 1535.61 1602.45 1540.08 1598.56 1541.74 1594.81 C 1546.57 1583.92 1540.27 1552.13 1544.7 1537.43 C 1546.97 1529.91 1552.99 1523.02 1558.02 1517.15 C 1572.8 1499.92 1591.19 1489.13 1614.26 1487.44 z"/>
<path transform="translate(0,0)" fill="rgb(221,128,53)" d="M 983.212 1095.51 A 206.55 206.55 0 0 1 988.713 1095.52 C 1026.35 1096.08 1069.3 1115.99 1095.39 1142.82 C 1116.12 1164.15 1126.75 1200.35 1126.18 1229.73 C 1125.42 1269.51 1108.24 1310.66 1079.56 1338.32 C 1055.88 1361.15 1019.09 1375.78 986.25 1374.99 C 963.072 1374.76 938.437 1373.72 918.346 1360.79 C 910.886 1355.99 903.21 1348.42 895.083 1345.14 C 889.795 1343 883.731 1341.81 878.216 1340.31 C 875.613 1337.16 874.435 1332.18 873.117 1328.33 C 870.514 1320.73 863.96 1315.92 859.451 1309.5 C 856.515 1305.31 854.336 1300.59 852.111 1296 C 851.605 1294.96 851.048 1293.92 850.759 1292.79 C 848.469 1283.82 849.197 1273.54 847.521 1264.3 C 845.47 1253 842.244 1241.73 841.142 1230.28 C 838.719 1205.11 849.541 1177.1 862.224 1155.9 C 893.736 1103.22 929.219 1109.59 981.398 1096 L 983.212 1095.51 z"/>
<path transform="translate(0,0)" fill="rgb(0,0,0)" d="M 974.077 1193.14 C 984.888 1191.79 996.677 1194.39 1006.57 1198.82 C 1019.55 1204.62 1028.98 1215.67 1033.87 1228.9 C 1039.24 1243.41 1039.81 1259.59 1032.98 1273.77 C 1025.1 1290.1 1010.3 1297.48 994.029 1302.94 C 987.171 1303.72 977.908 1302.97 971.332 1301.15 C 955.994 1296.9 939.763 1284 932.261 1269.92 C 923.366 1253.21 930.707 1234.26 935.826 1217.63 C 941.632 1212.03 947.869 1205.88 954.625 1201.47 C 955.131 1201.14 955.649 1200.83 956.157 1200.51 C 961.788 1196.89 967.739 1195.14 974.077 1193.14 z"/>
<path transform="translate(0,0)" fill="rgb(221,49,119)" d="M 322.472 1596.56 L 323.134 1596.19 C 325.651 1596.2 325.63 1596.29 326.933 1598.72 C 330.164 1604.74 331.308 1613.44 333.442 1620.05 C 335.856 1627.53 339.435 1634.62 342.915 1641.65 C 354.316 1664.67 367.425 1690.45 385.893 1708.69 C 390.763 1713.5 396.694 1717.1 401.691 1721.78 C 407.785 1727.48 412.969 1734.18 419.353 1739.57 C 431.449 1749.8 446.559 1756.88 460.177 1764.88 C 487.309 1780.82 515.831 1795.89 545.631 1806.28 C 558.108 1810.63 571.798 1814.13 584.828 1816.36 C 589.709 1817.2 594.864 1817.05 599.643 1818.25 C 617.378 1822.7 635.169 1827.83 652.963 1831.9 C 660.814 1833.7 668.845 1834.68 676.726 1836.34 C 684.548 1837.98 692.37 1840.29 700.271 1841.46 C 731.283 1846.07 763.588 1846.01 794.866 1848.14 C 816.292 1849.6 837.428 1854.31 858.858 1855.59 C 872.074 1856.38 885.407 1855.84 898.653 1856.4 C 916.292 1857.14 933.71 1858.75 951.405 1858.85 C 967.28 1858.93 983.111 1857.88 998.997 1858.21 C 1017.98 1858.61 1036.66 1862.48 1055.5 1864.01 C 1071.9 1865.34 1087.98 1864.45 1104.32 1863.01 C 1104.41 1863.13 1104.48 1863.27 1104.59 1863.37 C 1104.76 1863.51 1104.96 1863.59 1105.14 1863.71 C 1105.47 1863.94 1105.75 1864.24 1106.11 1864.43 C 1109.6 1866.27 1127.93 1864.89 1132.94 1865.21 C 1153.72 1866.5 1174.4 1869.89 1195.26 1870.93 C 1214.48 1871.89 1233.93 1870.01 1253.15 1869.36 C 1287.03 1868.22 1322.33 1869.12 1355.54 1861.29 C 1372.53 1857.29 1388.14 1850.99 1403.46 1842.69 C 1408.2 1840.13 1412.71 1835.47 1417.65 1833.67 C 1429.27 1829.41 1442.48 1827.09 1454.49 1823.85 C 1469.59 1819.77 1484.58 1813.95 1498.83 1807.47 C 1516.01 1799.65 1534.61 1786.18 1548.74 1773.65 C 1558.66 1764.86 1567.26 1753.91 1576.3 1744.18 C 1590.42 1728.96 1605.72 1714.13 1618.3 1697.62 C 1629.64 1682.74 1639.72 1665.49 1649.56 1649.5 A 132.118 132.118 0 0 1 1655.81 1652.54 C 1662.52 1655.98 1688.25 1668.73 1690.21 1674.81 C 1689.21 1676.99 1687.51 1680.07 1687.86 1682.53 C 1689.41 1693.66 1725.52 1709.35 1727.19 1724.91 C 1729.35 1744.91 1723.3 1778.31 1710.3 1794.43 C 1705.95 1799.83 1699.41 1803 1694.97 1808.16 C 1690.3 1813.59 1687.94 1820.98 1683.29 1826.65 C 1667.18 1841.85 1648.37 1857.38 1627.34 1865.11 C 1612.11 1870.71 1596.63 1874.63 1581.84 1881.59 C 1573.91 1885.31 1566.7 1890.42 1559.06 1894.7 C 1548.19 1900.8 1535.89 1905.26 1523.97 1908.78 C 1506.68 1913.89 1487.88 1913.6 1470.46 1918.81 C 1446.26 1926.06 1422.98 1936.15 1398.59 1942.72 C 1389.5 1945.17 1379.41 1948.07 1369.98 1948.66 C 1355.75 1949.54 1341.15 1947.1 1326.85 1947.92 C 1310.43 1948.87 1293.69 1952.38 1277.24 1952.05 C 1265.39 1951.81 1253.85 1948.69 1241.88 1948.83 C 1214.06 1949.17 1186.37 1956.49 1158.46 1955.54 C 1154.54 1955.41 1149.96 1953.84 1146.02 1953.2 C 1136.54 1951.65 1125.92 1950.24 1116.39 1949.46 C 1113.3 1949.21 1110.42 1950.87 1107.35 1951.06 C 1098.79 1951.59 1089.97 1950.2 1081.3 1950.55 C 1070.5 1950.99 1060.69 1954.67 1050.11 1956.13 C 1036.97 1957.93 1022.4 1956.59 1009.13 1956.26 C 980.641 1955.54 952.642 1949.32 924.375 1947.16 C 907.662 1945.89 890.287 1948.61 873.691 1946.72 C 857.034 1944.83 841.337 1938.96 824.258 1937.72 C 815.665 1937.1 806.899 1936.2 798.284 1936.48 C 775.9 1937.2 755.991 1940.62 733.143 1937.88 C 719.002 1936.19 705.142 1931.8 691.237 1928.79 C 671.107 1924.44 650.042 1921.04 629.621 1918.45 C 602.124 1914.97 573.017 1917.59 545.952 1910.25 C 531.196 1906.25 517.728 1897.22 503.056 1892.81 C 486.491 1887.84 467.986 1887.43 452.671 1882.63 C 442.197 1879.35 432.317 1873.48 421.995 1869.58 C 408.905 1864.64 394.955 1862.19 382.128 1856.56 C 354.719 1844.54 330.817 1825.71 305.149 1810.71 C 294.157 1804.28 282.011 1799.98 271.009 1793.53 C 247.793 1779.91 252.984 1764.46 233.152 1750.78 C 225.99 1745.83 214.033 1741.57 211.834 1732.44 C 210.345 1726.25 211.511 1691.16 213.22 1684.34 C 214.616 1678.77 217.343 1673.39 220.497 1668.61 C 225.434 1661.12 231.234 1654.01 236.687 1646.89 C 255.314 1622.56 267.587 1617.05 295.903 1606.11 C 301.917 1603.78 310.333 1598.41 316.431 1597.57 C 318.485 1597.29 320.433 1596.98 322.472 1596.56 z"/>
<path transform="translate(0,0)" fill="rgb(0,0,0)" d="M 381.52 1837.72 C 383.474 1837.97 384.774 1838.1 386.483 1839.18 C 388.052 1840.17 387.699 1840.71 388.016 1842.4 C 386.553 1845.72 384.489 1847.24 381.679 1849.46 C 379.373 1849.32 377.655 1849.18 375.524 1848.26 C 373.97 1846.13 373.832 1846.25 374.118 1843.65 C 376.117 1840.34 378.087 1839.38 381.52 1837.72 z"/>
<path transform="translate(0,0)" fill="rgb(221,128,53)" d="M 317.843 308.176 C 325.055 308.005 334.365 310.031 340.798 313.195 C 357.396 321.36 360.117 343.509 357.156 359.927 C 355.836 367.246 349.556 381.433 351.878 388.028 C 353.206 388.575 354.614 389.23 356.009 389.612 C 359.733 390.631 361.65 389.211 364.849 387.572 C 382.518 378.52 381.796 351.404 377.565 334.529 C 376.137 328.834 369.953 321.072 371.761 315.481 C 372.085 315.425 372.406 315.333 372.734 315.314 C 375.785 315.142 379.632 316.82 382.517 317.777 C 394.394 321.72 402.426 329.933 407.759 341.096 C 409.224 344.161 410.381 347.665 413.06 349.905 C 413.559 350.323 414.094 350.696 414.611 351.091 C 415.746 364.116 404.947 377.46 406.515 389.789 C 406.751 391.65 406.929 392.342 408.524 393.326 C 411.078 394.9 413.755 395.165 416.651 394.462 C 442.501 388.183 431.533 351.267 435.309 345.312 C 439.186 345.587 441.865 351.142 445.895 352.522 C 450.599 354.132 455.65 351.702 460.342 352.657 C 466.992 354.011 470.939 361.048 474.1 366.5 C 493.272 399.574 495.115 450.67 494.582 488.26 C 494.547 490.696 495.651 500.762 494.778 502.44 C 494.193 503.564 492.814 504.17 492.309 505.332 C 490.669 509.104 493.623 520.424 491.979 526.031 C 487.771 540.379 486.531 556.249 484.424 571.05 C 482.196 586.711 479.366 602.457 477.705 618.175 C 477.292 622.081 477.699 626.045 477.223 629.929 C 476.49 635.921 474.504 641.743 474.024 647.769 C 472.438 667.647 472.368 687.92 471.963 707.848 C 471.601 725.665 470.722 743.89 472.223 761.675 C 477.515 824.369 499.633 891.066 538.165 941.43 C 554.755 963.115 576.932 979.527 593.953 1000.63 L 594.824 1001.73 C 586.796 1010.63 579.053 1021.33 572.827 1031.55 C 557.933 1056 546.822 1082.15 534.288 1107.74 C 529.316 1117.9 522.989 1127.45 518.63 1137.9 C 516.598 1142.76 514.749 1147.81 514.474 1153.11 C 515.811 1156.62 518.595 1158.99 521.858 1160.75 C 524.057 1161.93 526.544 1162.57 528.963 1161.66 C 532.172 1160.46 536.269 1155.47 537.877 1152.42 C 541.204 1146.12 543.514 1139.1 546.538 1132.61 C 552.368 1120.1 558.812 1107.69 565.291 1095.5 C 579.156 1069.41 595.069 1044.7 608.155 1018.23 C 616.694 1024.34 625.099 1030.78 632.435 1038.31 C 615.366 1066.06 602.679 1096.86 588.852 1126.3 C 581.163 1142.67 571.995 1158.68 565.404 1175.51 C 563.197 1181.15 557.884 1192.76 559.895 1198.67 C 560.782 1201.27 562.827 1203.05 565.318 1204.05 C 568.578 1205.35 572.454 1205.41 575.66 1203.95 C 580.067 1201.93 583.069 1195.9 585.188 1191.81 C 588.059 1186.26 588.782 1180.66 590.995 1174.99 C 594.424 1166.22 598.824 1157.33 602.96 1148.85 C 610.047 1134.32 616.642 1119.23 624.213 1104.99 C 633.009 1088.44 642.596 1073.12 649.624 1055.61 C 654.258 1058.17 658.401 1059.51 663.481 1060.72 L 662.308 1062.62 C 665.317 1067.38 673.139 1067.9 676.54 1072.8 C 674.085 1085.27 658.971 1107.96 652.873 1120.85 C 648.32 1130.48 646.636 1141.59 642.55 1151.48 C 636.139 1167.01 626.521 1181.62 621.344 1197.65 C 617.656 1209.06 609.484 1224.25 611.387 1236.26 C 611.943 1239.77 614.516 1241.71 617.169 1243.74 C 620.507 1244.3 623.75 1244.25 626.926 1242.89 C 636.713 1238.71 639.125 1222.54 641.487 1213.36 C 647.296 1190.76 662.157 1156.9 673.267 1135.87 C 678.355 1126.23 684.997 1117.29 689.482 1107.37 C 687.915 1106.24 688.426 1106.99 687.934 1105.14 C 694.178 1101.06 693.645 1094.6 699.116 1089.93 C 706.747 1087.88 719.249 1097.25 727.288 1099.62 C 721.899 1109.24 717.976 1120.35 713.28 1130.4 C 707.373 1143.03 700.449 1155.24 695.184 1168.17 C 693.419 1172.5 685.805 1191.13 686.249 1194.55 C 686.378 1195.55 687.019 1196.41 687.405 1197.33 C 686.191 1199.25 685.101 1201.21 684.047 1203.21 C 678.484 1213.81 663.196 1251.85 668.261 1263.04 C 673.4 1274.39 699.206 1280.53 709.611 1285.93 C 714.451 1288.44 718.372 1292.7 723.335 1294.95 C 746.572 1305.48 788.855 1321.58 811.917 1303.84 C 817.089 1299.86 821.209 1289.16 825.6 1287.66 C 828.066 1288.6 828.55 1288.56 829.969 1290.73 L 828.859 1295.07 C 830.327 1302.14 834.432 1311.21 838.177 1317.44 C 842.007 1323.81 858.643 1344.34 865.175 1347.18 C 867.829 1348.34 874.364 1346.98 876.49 1348.41 C 879.895 1350.7 878.598 1360.51 883.221 1364.66 C 916.497 1394.54 963.957 1402.65 1007.07 1399.84 C 1044.84 1397.39 1080.66 1377.03 1107.25 1350.79 C 1114.96 1343.18 1121.64 1334.31 1128.77 1326.13 C 1129.15 1326.19 1129.53 1326.29 1129.91 1326.3 C 1139.17 1326.71 1147.56 1332.95 1157.37 1333.27 C 1172.63 1333.77 1256.67 1291.27 1269.58 1278.93 C 1271.66 1276.94 1273.89 1275.15 1276.1 1273.32 C 1277.59 1273.63 1277.05 1273.48 1278.41 1273.91 L 1279.31 1274.21 C 1287 1270.61 1293.94 1265.52 1301.19 1261.15 C 1308.02 1257.04 1315.25 1253.45 1321.83 1248.96 C 1342.3 1234.96 1359.9 1218.26 1378 1201.49 C 1383.29 1196.59 1390.28 1191.91 1394.75 1186.4 C 1394.38 1185.39 1393.61 1183.88 1394.28 1182.83 C 1395.64 1180.67 1402.8 1177.55 1405.23 1175.47 C 1408.14 1172.98 1410.14 1169.25 1412.2 1166.04 C 1417.14 1158.32 1421.88 1150.35 1427.39 1143.01 C 1434.09 1134.08 1445.17 1124.6 1449.45 1114.34 C 1452.5 1107.01 1451.2 1097.87 1454.51 1090.35 C 1456.81 1085.11 1458.91 1079.75 1461.11 1074.45 C 1464.54 1075.39 1468.06 1076.2 1471.58 1076.76 C 1476.72 1077.58 1482.39 1076.51 1486.57 1073.3 C 1492.15 1069 1493.72 1061.58 1494.35 1054.95 C 1494.95 1048.54 1495.6 1032.86 1491.58 1028.23 L 1490.94 1027.49 C 1491.18 1026.16 1491.43 1024.9 1491.84 1023.6 C 1498.77 1001.93 1513.39 981.771 1533.43 970.726 C 1534.51 971.357 1535.57 972.005 1536.64 972.657 C 1544.68 977.554 1564.57 1001.7 1565.78 1010.65 C 1566.33 1014.77 1562.52 1020.85 1560.77 1024.42 C 1558.74 1028.58 1555.8 1033.22 1554.49 1037.63 C 1552.38 1044.73 1553.41 1053.63 1548.3 1059.36 C 1546.7 1061.14 1545.45 1062.87 1545.05 1065.3 C 1544.33 1069.7 1544.58 1074.69 1544.48 1079.17 C 1544.36 1084.56 1543.8 1090.64 1544.63 1095.95 C 1547.15 1112.02 1558.49 1127.92 1567.3 1141.26 C 1565.91 1149.21 1570.54 1159.05 1570.13 1167.81 C 1569.71 1176.75 1566.79 1185.49 1565.82 1194.39 C 1563.19 1218.41 1575.02 1241.54 1586.56 1261.65 C 1590.29 1268.15 1594.32 1275.23 1594.39 1282.93 C 1594.49 1295.98 1588.29 1310.57 1584.49 1322.99 C 1580.91 1334.66 1578.66 1346.86 1574.92 1358.37 C 1569.88 1373.93 1562.55 1388.18 1555.85 1403 C 1552.2 1411.08 1549.08 1419.62 1544.81 1427.38 C 1534.89 1445.42 1521.9 1461.74 1512.3 1480.04 C 1503.81 1496.22 1501.34 1514.31 1492.95 1530.53 C 1486.88 1542.25 1476.13 1550.28 1469.71 1561.51 C 1458.56 1580.99 1452.47 1603.01 1443.17 1623.24 C 1439.68 1630.82 1434.01 1637.41 1430.9 1645.17 C 1426.82 1655.34 1428.01 1666.38 1425.78 1676.96 C 1417.75 1715.03 1410.22 1753.63 1399.66 1791.09 C 1395.44 1806.06 1388.41 1819.26 1374.25 1826.94 C 1365.62 1831.62 1341.88 1841.55 1332.6 1838.86 C 1329.59 1835.12 1348.16 1799.1 1346.62 1787.83 C 1346 1783.26 1346.55 1778.63 1346.32 1774.02 C 1345.8 1763.51 1335.56 1744.11 1327.57 1737.3 C 1323.92 1734.18 1321.03 1733.24 1316.31 1733.73 C 1308.81 1738.28 1318.01 1768.73 1317.5 1778.04 C 1316.84 1789.96 1312.16 1802.56 1306.45 1812.92 C 1303.04 1819.1 1291.4 1837.26 1286.09 1841.48 C 1284.06 1843.08 1280.2 1844.04 1277.73 1844.68 C 1272.65 1846 1268.18 1846.5 1263.53 1843.76 C 1261.93 1841.07 1261.4 1839.25 1262.04 1836.11 C 1263.1 1830.99 1266.41 1826.15 1268.51 1821.36 C 1273.24 1810.54 1273.95 1800.1 1274.82 1788.59 C 1272.63 1774.11 1268.4 1751.36 1256.66 1741.26 C 1254.03 1739 1249.13 1738.41 1245.8 1738.84 C 1242.59 1739.26 1241.2 1740.55 1239.29 1743.04 C 1238.78 1745.81 1239.93 1747.54 1241.12 1749.94 L 1241.66 1751.02 C 1239.68 1755.2 1245.13 1777.4 1245.18 1784.92 C 1245.21 1791.64 1243.79 1798.32 1241.92 1804.75 C 1238.49 1816.59 1227.52 1838.16 1216.29 1843.77 C 1211.4 1846.21 1207.62 1845.32 1202.72 1843.55 C 1199.98 1842.56 1197.34 1845.23 1194 1844.47 L 1192.51 1841.49 C 1192.75 1839.16 1193.74 1837.69 1195.44 1836.13 C 1196.34 1835.31 1197.43 1834.64 1198.2 1833.66 C 1200.36 1830.93 1201.3 1826.45 1202.34 1823.09 C 1207.06 1807.92 1210.02 1794.55 1207.53 1778.64 C 1205.73 1767.13 1201.37 1754.11 1191.6 1747.08 C 1190.07 1745.98 1189.62 1743.55 1188.95 1741.79 C 1187.39 1740.22 1185.61 1739.61 1183.5 1739.08 C 1181.59 1738.6 1179.16 1738.57 1177.54 1739.82 C 1166.22 1748.57 1184.74 1780.32 1181.79 1792.87 C 1181.69 1793.27 1181.57 1793.66 1181.46 1794.05 C 1177.58 1808.65 1166.38 1829.01 1155.18 1839.3 C 1153.73 1840.63 1152.31 1841.81 1150.32 1842.06 C 1146.8 1842.5 1142.87 1840.71 1139.34 1840.29 C 1133.59 1839.6 1127.56 1839.91 1121.75 1839.44 C 1114.39 1824.91 1110.54 1778.96 1109.67 1761.31 C 1109.26 1753.19 1110.23 1744.69 1109.09 1736.66 L 1106.49 1735.86 L 1105.93 1734.76 C 1106.79 1734.5 1108.24 1734.25 1108.83 1733.4 C 1110.02 1731.71 1114.99 1688.59 1116.32 1682.58 C 1125.92 1639.15 1141.96 1612.52 1165.95 1576 C 1179.53 1575.13 1194.7 1577.98 1207.88 1574.95 C 1221.86 1571.73 1229.61 1558.56 1242.91 1554.22 C 1258.28 1549.2 1274.05 1555.17 1289.88 1547.84 C 1313.01 1537.14 1324.88 1516.31 1333.15 1493.31 L 1331.34 1490.78 C 1331.75 1481.54 1339.65 1460.88 1344.34 1452.42 C 1344.52 1452.1 1344.7 1451.79 1344.89 1451.47 C 1346.42 1450.82 1347.85 1450.18 1349.3 1449.36 C 1365.6 1440.18 1378.61 1424.08 1383.52 1405.96 C 1388.38 1388.02 1387.09 1357.68 1377.41 1341.39 C 1372.04 1332.34 1364.08 1325.03 1353.6 1322.73 C 1323.51 1316.14 1317.43 1337.27 1296.76 1341.26 C 1288.83 1342.79 1275.23 1337.89 1269.14 1341.81 C 1260.62 1356 1259.91 1378.3 1258.78 1394.65 C 1237.24 1424.01 1217.89 1456.51 1196.99 1486.61 C 1183.43 1506.13 1167.44 1523.99 1154 1543.57 C 1147.76 1552.66 1142.74 1563.04 1137.49 1572.76 C 1119.82 1605.49 1103.01 1638.36 1093.47 1674.45 C 1091.71 1681.14 1093.88 1687.77 1092.28 1693.93 C 1091.51 1696.91 1089.63 1699.55 1088.83 1702.56 C 1085.7 1714.3 1085.09 1729.34 1084.44 1741.51 C 1084.03 1749.34 1084.47 1790.05 1088.28 1794.31 L 1086.88 1793.98 L 1087.06 1795.56 C 1088.17 1796.54 1089.04 1797.48 1089.93 1798.66 C 1087.15 1806.28 1093.42 1815.29 1093.62 1823.26 C 1093.7 1826.1 1093.08 1828.87 1091.06 1830.97 C 1086.92 1835.29 1076.52 1833.74 1070.82 1833.99 C 1063.05 1834.33 1055.28 1835.59 1047.51 1835.53 C 1024.37 1835.34 1001.53 1832.1 978.466 1831.11 C 965.055 1830.54 951.757 1831.39 938.368 1831.23 C 929.859 1831.14 921.501 1829.79 912.948 1830.1 L 911.535 1830.15 C 927.778 1806.74 933.574 1782.69 932.961 1754.34 C 932.539 1734.84 926.794 1720.03 912.583 1706.36 C 909.54 1705.65 905.418 1703.98 902.561 1705.11 C 895.194 1714.17 903.07 1736.98 903.516 1748.34 C 904.348 1769.53 899.065 1794.91 884.282 1810.85 C 862.276 1834.58 852.636 1825.2 825.25 1826.2 L 823.76 1826.26 C 832.173 1813.57 839.776 1802.99 843.728 1788.04 C 849.301 1766.97 848.537 1739.9 836.876 1720.84 C 833.3 1715 827.797 1709.28 820.785 1707.93 C 817.606 1707.32 815.033 1708.68 812.459 1710.42 C 810.118 1718.29 815.553 1725.8 815.996 1733.62 C 817.296 1756.58 815.899 1779.74 799.629 1797.37 C 781.046 1817.5 766.255 1815.68 741.571 1816.72 C 753.04 1806.08 762.408 1787.57 765.313 1772.21 C 766.093 1768.09 764.188 1764.29 765.439 1760.45 C 766.26 1757.93 766.108 1758.44 765.169 1756.03 C 758.096 1737.94 763.303 1728.3 746.119 1713.48 C 741.798 1709.76 737.692 1707.53 731.933 1707.93 C 729.659 1709.2 728.89 1709.65 727.753 1712.16 C 724.564 1719.19 729.188 1722.56 730.761 1728.78 C 735.264 1746.6 732.942 1768.26 723.684 1784.18 C 716.609 1796.35 705.928 1805.29 692.152 1808.76 C 670.857 1814.11 651.999 1806.97 631.255 1803.23 C 622.6 1801.67 613.53 1802.98 604.821 1801.19 C 546.577 1789.15 494.141 1763.45 443.931 1732.27 C 432.023 1724.88 422.318 1714.37 413.426 1703.69 C 386.546 1671.4 369.656 1635.03 360.584 1594.04 C 354.582 1566.93 345.622 1520.16 345.354 1493.06 C 345.163 1473.67 348.134 1453.99 349.621 1434.67 C 350.218 1426.91 349.335 1411.26 353.6 1404.88 C 356.146 1401.07 360.838 1382 363.046 1375.66 C 371.263 1352.06 380.253 1329.18 393.671 1307.95 C 401.17 1296.09 409.715 1284.09 419.002 1273.61 C 432.683 1258.16 452.792 1244.44 460.69 1225.03 C 460.331 1223.44 460.011 1221.99 459.169 1220.57 C 457.297 1217.4 454.196 1214.81 450.565 1213.97 C 439.22 1211.36 425.464 1224.91 416.173 1230.35 C 402.321 1223.6 390.279 1215.35 377.297 1207.16 C 369.363 1202.16 360.774 1197.57 353.372 1191.82 C 320.691 1166.47 291.559 1139.03 273.639 1101.01 C 268.504 1090.11 265.624 1078.22 260.444 1067.43 C 255.885 1057.94 246.507 1050.83 241.71 1040.95 C 233.708 1024.46 233.973 1000.88 230.424 982.834 C 228.272 971.889 224.553 961.141 222.906 950.111 C 221.386 939.931 225.023 929.151 223.608 918.853 C 222.821 913.13 219.64 899.762 219.833 894.96 C 219.914 892.938 223.297 890.679 224.727 889.363 C 226.076 885.914 224.306 883.488 223.783 880.099 C 223.28 876.845 224.919 874.886 226.749 872.378 C 226.928 872.133 227.114 871.892 227.297 871.649 C 225.895 860.775 225.24 849.64 223.198 838.881 L 220.001 836.767 L 219.782 835.277 C 221.556 835.392 221.681 835.591 223.349 834.732 C 224.203 828.346 224.015 821.812 225.29 815.5 C 227.576 804.182 231.271 793.004 232.28 781.458 C 232.834 775.125 229.378 765.625 230.897 760.109 C 231.762 756.968 234.937 755.657 234.89 751.86 C 234.798 744.594 230.226 736.916 230.774 729.779 C 231.451 720.944 234.601 712.16 235.728 703.328 C 238.495 681.658 232.791 654.967 225.153 634.705 C 216.474 611.682 205.518 589.745 197.266 566.485 C 194.893 559.795 191.76 553.061 190.507 546.055 C 189.302 539.312 190.306 532.718 189.586 526.015 C 187.771 509.122 181.707 492.08 183.9 474.831 C 185.004 466.143 193.865 435.892 193.451 430.965 C 191.737 410.565 220.232 359.497 234.789 344.838 C 243.289 336.277 256.27 329.916 263.119 320.134 C 263.3 319.875 263.47 319.608 263.646 319.344 C 278.171 326.304 288.563 332.651 298.863 345.271 C 300.55 361.097 297.983 376.874 300.375 392.568 L 313.834 392.67 C 321.725 379.967 326.853 366.182 324.618 350.975 C 322.611 337.315 314.295 327.688 303.681 319.724 C 306.817 313.79 312.417 311.779 317.843 308.176 z"/>
<path transform="translate(0,0)" fill="rgb(0,0,0)" d="M 456.252 405.102 C 462.151 407.176 464.165 411.543 466.96 416.781 C 466.077 422.882 464.756 428.865 463.443 434.885 C 421.988 478.613 390.783 438.141 347.982 441.297 C 332.451 442.442 320.037 449.204 305.396 453.319 C 294.609 456.351 283.531 457.059 272.406 457.685 C 269.762 457.309 268.224 456.632 266.63 454.455 C 264.7 451.819 264.883 448.638 265.21 445.565 C 266.519 443.219 267.661 441.754 270.006 440.365 C 281.559 433.518 296.366 431.324 309.063 427.266 C 317.877 424.448 326.504 420.232 335.547 418.252 C 340.911 417.077 346.323 416.379 351.827 416.574 C 377.846 417.493 412.113 440.287 436.844 428.87 C 446.644 424.346 452.708 414.919 456.252 405.102 z"/>
<path transform="translate(0,0)" fill="rgb(0,0,0)" d="M 345.702 480.273 C 349.392 480.361 353.011 481.397 356.715 481.629 C 374.643 482.75 391.321 483.054 406.885 493.202 C 423.312 503.914 432.242 519.131 436.071 538.127 C 439.83 556.775 438.081 573.202 427.287 589.191 C 416.467 605.217 400.011 615.735 381.179 619.219 C 362.707 622.249 340.927 620.912 324.232 611.644 C 308.526 602.925 294.541 587.064 289.592 569.709 C 288.463 565.749 285.315 553.056 286.872 549.413 C 287.599 547.711 289.527 548.124 289.536 545.482 C 289.546 542.94 288.294 540.292 288.249 537.626 C 288.118 529.958 294.348 517.171 298.141 510.485 C 309.588 490.308 324.757 486.225 345.702 480.273 z"/>
<path transform="translate(0,0)" fill="rgb(0,0,0)" d="M 352.751 858.073 C 360.087 857.782 365.543 859.52 371.848 863.256 C 405.339 883.101 416.322 895.152 419.972 934.095 C 420.956 944.6 422.234 953.72 427.756 963.038 C 441.62 986.431 468.927 997.708 475.641 1026.43 C 479.528 1043.05 474.704 1062.76 465.641 1077.02 C 451.856 1098.72 429.965 1115.17 404.788 1120.69 C 400.162 1120.06 395.542 1120.78 390.882 1120.26 C 372.83 1118.26 354.103 1110.41 340.286 1098.53 C 330.172 1089.82 327.049 1079.56 322.632 1067.67 C 321.136 1063.64 318.802 1059 318.511 1054.7 C 318.381 1052.77 318.38 1050.79 317.607 1048.98 C 315.167 1043.26 310.801 1037.84 307.732 1032.35 A 378.922 378.922 0 0 1 291.209 998.146 C 289.356 993.791 290.655 985.28 288.519 981.986 C 287.227 979.992 285.566 981.117 284.578 977.814 C 280.549 964.35 283.844 921.052 290.034 908.172 C 292.85 902.312 297.193 897.273 301.327 892.311 C 315.914 874.803 331.424 865.881 352.751 858.073 z"/>
<path transform="translate(0,0)" fill="rgb(0,0,0)" d="M 478.22 1349.09 C 488.414 1350.56 498.468 1351.97 507.987 1356.12 C 544.592 1372.1 557.793 1408.52 577.144 1440.02 C 585.078 1452.93 595.902 1463.78 603.809 1476.67 C 609.29 1485.61 611.509 1494.72 615.896 1503.88 C 623.456 1519.66 620.739 1567.9 617.36 1586.31 C 612.948 1610.33 591.668 1646.68 570.997 1660.44 C 555.673 1670.64 534.236 1675.03 516.267 1671.25 L 514.484 1670.9 C 508.426 1669.69 503.401 1667.84 498.226 1664.39 C 486.159 1656.33 466.798 1636.12 458.718 1624.03 C 444.69 1603.05 448.161 1582.06 445.562 1558.46 C 444.931 1552.73 441.752 1544.75 443.135 1539.26 C 443.296 1538.62 443.726 1538.02 443.685 1537.37 C 443.411 1533.02 414.976 1507.18 410.395 1501.7 A 89.1182 89.1182 0 0 1 397.95 1481.95 C 395.904 1477.52 395.064 1471.87 393.96 1467.09 C 389.207 1446.54 387.752 1428.88 395.946 1408.87 C 400.834 1396.93 424.56 1364.67 435.898 1360.25 C 441.757 1357.96 450.564 1352.33 456.539 1351.57 C 463.451 1350.7 471.071 1352.96 477.483 1349.52 C 477.733 1349.38 477.974 1349.23 478.22 1349.09 z"/>
<path transform="translate(0,0)" fill="rgb(221,128,53)" d="M 1548.23 791.675 L 1544.48 790.42 C 1543.64 790.593 1542.68 790.493 1541.94 790.938 C 1538.47 793.02 1533.51 809.571 1531.33 813.851 C 1527.75 820.867 1523.53 827.555 1519.84 834.517 C 1510.31 852.494 1502.16 870.35 1489.19 886.268 C 1480.4 897.047 1469.8 905.884 1460.73 916.354 C 1452.24 926.164 1445.48 937.262 1436.19 946.392 C 1426.13 956.282 1415.95 966.958 1404.9 975.73 C 1390.37 987.271 1374.01 996.626 1358.32 1006.46 C 1350.9 1011.11 1344.07 1016.6 1336.4 1020.88 C 1289.61 1047.01 1223.79 1066.78 1170.5 1071.04 C 1150.02 1072.67 1129.1 1071.98 1108.55 1072.24 C 1091.65 1072.45 1074.69 1074 1057.78 1073.5 C 1036.15 1072.85 1014.43 1067.09 992.586 1066.55 C 968.353 1065.96 944.478 1072.12 920.164 1071.79 C 897.079 1071.48 875.295 1067.82 852.6 1064.42 C 768.153 1051.76 695.969 1030.6 624.04 982.868 C 609.567 973.265 594.438 963.096 582.335 950.594 A 317.106 317.106 0 0 1 492.563 751.25 C 490.771 725.177 492.76 699.03 495.063 673.093 C 498.544 633.876 503.789 595.127 508.69 556.063 L 515.051 506.06 C 515.879 499.989 517.837 494.073 518.542 488.011 C 519.517 479.623 519.128 470.518 518.956 462.046 C 518.554 442.252 509.363 394.136 501.148 375.766 C 497.156 366.841 488.627 358.477 486.785 348.793 C 484.69 337.783 487.262 301.614 487.514 287.999 C 487.181 287.665 485.92 286.436 485.697 286.08 C 484.176 283.654 487.662 283.253 487.535 280.326 C 487.395 277.095 485.75 273.978 485.862 270.653 C 486.027 265.744 488.812 260.709 489.492 255.752 C 490.702 246.941 490.755 237.955 492.02 229.106 C 494.474 211.95 498.578 194.031 502.743 177.181 C 505.916 164.342 512.769 154.01 518.551 142.358 C 530.344 118.593 543.453 89.8354 558.572 68.1287 C 562.009 63.1946 569.574 53.6763 575.211 51.4737 C 580.94 49.2352 592.061 52.9066 598.43 52.9305 C 607.941 52.9663 620.202 49.1973 629.397 52.0684 C 644.622 56.822 668.784 76.7676 683.755 85.5908 C 699.656 94.9623 721.706 105.278 736.228 115.377 C 744.255 120.96 752.24 128.197 759.431 134.834 C 772.37 146.776 804.917 191.96 818.619 196.912 C 829.623 200.888 859.808 190.056 872.773 187.901 C 882.376 186.305 892.338 186.117 902.029 185.19 C 915.591 183.892 929.195 182.056 942.789 181.215 C 976.546 179.125 1010.66 184.173 1044.22 186.822 C 1058.57 187.954 1073.12 187.524 1087.4 189.358 C 1103.92 191.48 1124.08 194.153 1139.21 201.442 C 1145.83 198.67 1152.97 196.95 1159.87 194.989 C 1173.42 179.986 1187.8 167.549 1203.1 154.471 C 1212.34 146.573 1220.29 137.026 1229.89 129.582 C 1257.85 107.912 1315.58 82.0288 1349.43 71.552 C 1357.27 69.1251 1365.57 68.833 1373.43 66.6432 C 1382.94 63.9968 1391.98 58.8888 1401.73 57.263 C 1406 56.5499 1409.75 55.8146 1413.61 53.7516 C 1413.88 53.6066 1414.15 53.4532 1414.42 53.3039 C 1414.67 53.6245 1414.9 53.9645 1415.17 54.2656 C 1421.28 60.9941 1430.46 60.8189 1436.62 66.5774 C 1445.87 75.2429 1466.25 115.945 1473.3 128.863 C 1472.95 131.154 1472.89 133.286 1473.58 135.531 C 1479.41 154.491 1488.89 172.294 1494.31 191.617 C 1497.17 201.782 1496.92 213.018 1500.13 222.94 C 1501.54 227.313 1504.86 230.755 1506.52 235.035 C 1507.15 236.645 1507.4 237.129 1508.75 238.15 C 1506.8 241.846 1508.52 248.23 1509.62 252.074 C 1510.48 255.043 1511.29 257.843 1514.03 259.533 C 1514.22 259.649 1514.44 259.697 1514.64 259.78 C 1513.44 262.343 1512.74 264.726 1512.94 267.58 C 1514.08 283.891 1517.03 300.199 1518.31 316.491 C 1519.13 326.945 1517.88 337.685 1519.94 347.989 L 1521.95 349.822 C 1520.9 356.206 1521.97 364.171 1522.14 370.713 C 1524.25 378.808 1527.43 404.056 1522.49 410.822 C 1521.52 412.15 1519.34 413.135 1517.95 413.889 C 1518.28 416.95 1518.68 418.998 1519.95 421.796 C 1527.16 442.37 1540.87 460.673 1548.52 481.427 C 1552.84 493.141 1556.82 505.919 1559.19 518.173 C 1561.29 529.08 1562.26 540.371 1565.37 551.028 C 1561.34 564.572 1569.32 580.735 1566.8 594.634 C 1560.47 604.106 1566.65 634.348 1567.09 646.249 C 1567.34 653.123 1566.21 660.699 1567.37 667.473 C 1567.65 669.116 1568.46 670.468 1569.31 671.871 C 1571.51 681.636 1566.83 690.536 1568.79 699.619 L 1569.61 699.984 C 1570.53 702.442 1571.26 704.674 1571.02 707.337 C 1570.68 711.222 1559.78 764.451 1559.48 765.126 C 1558.65 766.985 1557.04 768.757 1555.75 770.319 C 1556.31 775.972 1552.31 786.526 1548.82 791.023 C 1548.64 791.254 1548.42 791.458 1548.23 791.675 z"/>
<path transform="translate(0,0)" fill="rgb(0,0,0)" d="M 1522.14 370.713 C 1524.25 378.808 1527.43 404.056 1522.49 410.822 C 1521.52 412.15 1519.34 413.135 1517.95 413.889 C 1516.08 409.184 1515.69 382.105 1516.65 375.872 C 1517.08 373.043 1519.94 372.114 1522.14 370.713 z"/>
<path transform="translate(0,0)" fill="rgb(0,0,0)" d="M 1555.75 770.319 L 1552.92 768.51 C 1550.12 762.978 1557.63 753.301 1558.96 747.343 C 1560.28 741.461 1559.38 733.636 1559.82 727.471 C 1560.57 717.216 1561.44 707.05 1569.61 699.984 C 1570.53 702.442 1571.26 704.674 1571.02 707.337 C 1570.68 711.222 1559.78 764.451 1559.48 765.126 C 1558.65 766.985 1557.04 768.757 1555.75 770.319 z"/>
<path transform="translate(0,0)" fill="rgb(0,0,0)" d="M 1519.95 421.796 C 1527.16 442.37 1540.87 460.673 1548.52 481.427 C 1552.84 493.141 1556.82 505.919 1559.19 518.173 C 1561.29 529.08 1562.26 540.371 1565.37 551.028 C 1564.08 552.246 1564.85 551.859 1563.02 552.125 C 1562.18 551.39 1561.9 551.208 1561.21 550.442 C 1558.81 547.782 1557.63 544.005 1556.61 540.638 C 1553.81 531.429 1552.66 521.735 1550.37 512.388 C 1546.84 498.054 1541.75 483.186 1536.56 469.359 C 1532.54 458.639 1522.73 450.912 1518.93 440.481 C 1516.57 433.996 1516.88 427.921 1519.95 421.796 z"/>
<path transform="translate(0,0)" fill="rgb(0,0,0)" d="M 1045.15 971.043 C 1046.38 971.176 1046.06 971.088 1047.28 971.439 C 1052.29 972.878 1057.7 975.75 1060.16 980.588 C 1061.71 983.639 1061.63 987.382 1060.59 990.583 C 1058.45 997.233 1052.69 1001.91 1046.52 1004.7 C 1022.62 1015.51 997.733 1010.11 974.265 1001.78 C 968.463 999.689 963.931 995.414 959.418 991.38 C 959.073 987.957 958.277 984.499 957.672 981.11 C 959.24 979.376 960.823 977.634 962.609 976.119 C 973.526 966.864 976.487 976.127 987.133 976.606 C 1006.78 977.491 1026.24 977.024 1045.15 971.043 z"/>
<path transform="translate(0,0)" fill="rgb(0,0,0)" d="M 1195.17 832.82 L 1196.81 832.624 C 1198.44 832.417 1200.08 832.188 1201.72 832.108 C 1240.95 830.195 1278.71 837.62 1315.18 851.603 C 1325.7 855.634 1335.6 859.157 1344.05 866.921 C 1349.48 871.911 1355.22 878.937 1355.67 886.575 C 1354.97 888.071 1354.97 888.899 1353.37 889.662 C 1350.59 890.995 1347.53 891.024 1344.73 889.743 C 1344.16 889.484 1343.61 889.196 1343.05 888.923 C 1332.86 885.326 1321.12 884.234 1310.56 881.217 C 1292.47 876.044 1268.46 863.641 1250.81 862.262 C 1235.11 861.036 1206.91 864.189 1193.61 861.579 C 1190.11 860.894 1187.21 859.279 1185.29 856.204 C 1183.46 853.265 1183.41 849.936 1184.22 846.67 C 1185.94 839.757 1189.37 836.525 1195.17 832.82 z"/>
<path transform="translate(0,0)" fill="rgb(0,0,0)" d="M 792.652 783.402 C 793.936 783.137 793.376 783.196 794.832 783.166 C 815.318 782.747 850.134 779.495 865.844 794.497 C 866.236 796.998 864.971 799.436 863.641 801.504 C 852.964 818.106 817.096 809.932 800.841 808.881 C 795.577 808.541 790.313 809.089 785.07 809.527 C 763.431 811.333 743.508 815.44 722.427 820.243 C 721.106 820.447 719.814 820.691 718.5 820.934 C 703.403 823.737 676.197 840.109 662.403 835.353 C 660.129 831.63 659.983 827.265 659.418 823.016 C 687.217 800.411 757.52 786.003 792.652 783.402 z"/>
<path transform="translate(0,0)" fill="rgb(0,0,0)" d="M 818.174 828.386 C 824.78 827.622 832.004 827.652 838.56 828.767 C 845.998 830.032 863.545 833.685 867.889 839.686 C 868.207 845.695 865.383 849.909 862.094 854.717 C 849.7 858.903 835.287 857.455 822.236 858.38 C 782.677 861.184 754.166 865.209 717.007 880.28 C 705.09 883.81 693.914 894.759 681.151 891.171 C 677.705 890.203 672.874 887.882 671.628 884.158 C 670.842 881.807 671.202 880.027 672.553 877.938 C 676.402 871.99 688.906 868.452 695.086 865.671 C 707.403 860.131 719.319 853.532 731.888 848.56 C 759.427 837.667 789.102 832.94 818.174 828.386 z"/>
<path transform="translate(0,0)" fill="rgb(0,0,0)" d="M 1246.07 782.461 C 1278.42 780.726 1341.6 793.969 1368 812.491 C 1377.07 818.857 1384.25 826.36 1386.19 837.648 C 1385.58 838.928 1385.61 839.669 1384.19 840.253 C 1373.31 844.75 1342.64 830.231 1331.94 825.64 C 1304.2 817.209 1274.69 807.105 1245.29 808.448 C 1236.33 808.857 1227.39 810.764 1218.47 811.708 C 1207.6 812.86 1196.81 812.999 1185.9 812.897 C 1183.09 808.422 1181.26 804.613 1179.64 799.595 C 1181.08 796.955 1182.47 794.008 1184.23 791.564 C 1184.81 790.756 1185.98 789.712 1186.86 789.263 C 1190.88 787.224 1237.98 783.231 1246.07 782.461 z"/>
<path transform="translate(0,0)" fill="rgb(0,0,0)" d="M 1390.7 97.0924 C 1394.89 97.1342 1401.47 96.5043 1405.07 98.8448 C 1424.34 111.376 1443.94 171.58 1452.17 193.827 C 1454.02 198.825 1457.73 204.332 1458.85 209.348 C 1459.67 213.015 1458.37 216.484 1459.57 220.299 C 1462.26 228.828 1466.43 236.76 1467.89 245.699 C 1470.48 261.504 1471.42 277.564 1473.16 293.466 C 1474.38 304.658 1476.4 315.755 1477.53 326.961 C 1478.49 336.368 1477.55 347.913 1479.89 356.903 C 1480.23 358.204 1480.43 358.388 1480.67 359.826 C 1481.61 365.222 1479.28 371.655 1475.76 375.744 C 1473.53 378.337 1471.6 378.81 1468.3 379.087 C 1465.14 377.221 1464.49 375.421 1462.65 372.308 L 1460.7 373.36 C 1454.88 372.493 1438 348.311 1430.52 342.484 C 1426.14 339.073 1420.23 337.507 1415.15 335.331 C 1412.19 331.897 1409.18 328.166 1405.76 325.189 C 1394.39 315.314 1357.58 290.536 1344.42 284.168 C 1331.84 278.082 1318.02 272.857 1304.86 268.185 C 1297.1 265.433 1288.75 263.269 1281.43 259.504 C 1277.67 257.573 1274.8 255.434 1272.06 252.226 C 1270.67 244.912 1280.01 230.059 1283.72 223.65 C 1288.4 215.562 1294.02 208.033 1299.03 200.152 C 1305.08 190.637 1310.66 180.43 1317.48 171.456 C 1323.38 163.688 1330.12 156.562 1336.06 148.816 C 1347.25 134.205 1366.68 104.127 1385.9 99.5176 C 1387.39 99.1585 1387.94 98.9442 1389.21 98.1062 C 1389.71 97.7745 1390.2 97.4304 1390.7 97.0924 z"/>
<path transform="translate(0,0)" fill="rgb(0,0,0)" d="M 1005.75 707.423 C 1006.14 707.344 1006.54 707.245 1006.94 707.186 C 1022.13 704.986 1065.22 712.348 1077.09 722.185 C 1085.95 729.527 1088.43 738.477 1089.19 749.43 C 1096.4 757.111 1085.35 759.637 1087.69 770.95 C 1084.4 784.002 1050.04 803.293 1038.66 812.074 A 139.371 139.371 0 0 0 1063.76 858.437 C 1081 879.511 1105.77 893.619 1133.57 892.323 C 1149.1 891.599 1164.29 886.552 1179 881.999 C 1189.23 878.834 1203.73 873.466 1214.48 874.727 C 1218.09 875.151 1221.69 874.772 1225.31 874.55 C 1234.12 874.008 1293.62 900.578 1304.03 907.725 C 1309.31 911.346 1315.29 916.906 1316.18 923.609 C 1316.56 926.511 1315.88 928.615 1314.2 930.926 C 1297.78 938.359 1241.07 906.645 1217.26 905.271 C 1202.03 904.392 1185.21 912.991 1170.84 917.443 C 1155.53 922.187 1137.95 925.624 1121.9 925.108 C 1080.68 923.782 1056.7 898.41 1030.18 870.362 C 1027.96 868.014 1025.9 865.973 1022.52 865.862 C 1018.2 867.229 1015.07 871.026 1011.87 874.105 C 1010.53 875.831 1009.35 877.747 1008.21 879.612 C 1005.69 883.752 1002.99 886.865 999.412 890.129 C 992.569 896.378 984.795 901.04 976.714 905.502 C 946.188 922.355 920.907 923.24 887.083 914.242 C 875.319 911.113 865.536 905.238 853.091 904.022 C 841.62 902.901 828.487 905.912 817.095 907.899 C 801.599 910.602 780.717 917.159 765.912 922.6 C 749.512 928.628 732.849 940.813 714.779 939.94 C 709.198 936.106 707.589 930.328 705.297 924.268 C 723.073 906.563 763.788 890.029 787.733 884.289 C 802.545 880.739 818.159 877.548 833.212 875.282 C 838.317 874.514 844.72 875.247 849.463 874.114 C 850.135 873.953 852.051 872.067 852.708 871.547 C 860.378 873.008 869.778 880.361 877.069 883.804 C 881.802 886.039 886.715 887.292 891.792 888.464 C 921.496 895.319 949.144 889.383 974.875 873.003 C 990.782 862.877 1005.76 831.267 1009.86 813.171 C 1008.2 805.772 973.004 793.578 964.961 788.205 C 956.17 782.333 947.355 773.253 945.536 762.471 C 943.669 751.401 947.551 739.49 954.197 730.625 C 963.867 717.725 982.514 711.063 998.099 709.173 C 1000.52 708.88 1002.61 708.448 1004.93 707.695 C 1005.21 707.607 1005.48 707.514 1005.75 707.423 z"/>
<path transform="translate(0,0)" fill="rgb(0,0,0)" d="M 973.488 188.469 C 974.317 188.409 975.148 188.364 975.979 188.352 C 984.192 188.238 992.314 189.216 1000.49 189.748 C 1039.94 192.312 1071.64 200.789 1100.05 230.042 C 1119.51 250.068 1129.27 270.897 1128.91 298.933 C 1114.56 324.802 1105.21 310.734 1090.85 324.766 C 1079.59 335.768 1079.21 350.14 1064.17 358.904 C 1055.08 359.14 1045.55 357.827 1036.57 358.841 C 1030.07 359.574 1027.16 361.939 1023.25 366.987 C 1021.35 369.609 1019.47 372.465 1017.05 374.625 C 1007.91 382.776 992.649 384.6 980.812 383.61 C 970.871 382.778 958.623 379.806 952.179 371.631 C 948.35 366.774 947.908 362.029 948.672 356.092 L 948.838 354.892 C 941.074 349.888 931.338 350.13 923.908 344.011 C 919.678 340.528 919.712 336.337 916.771 332.294 C 913.691 328.059 908.587 325.19 905.879 320.722 C 902.402 314.985 900.19 307.928 897.373 301.806 C 890.534 286.946 880.331 272.61 879.087 255.844 C 877.886 239.667 889.533 237.445 899.451 227.926 C 904.089 223.475 907.248 217.265 911.549 212.418 C 926.498 195.569 951.994 189.904 973.488 188.469 z"/>
<path transform="translate(0,0)" fill="rgb(0,0,0)" d="M 591.1 80.8423 C 607.934 81.4878 624.398 101.007 637.243 105.363 C 664.255 114.521 663.351 125.393 681.128 142.228 C 685.159 146.045 690.625 147.464 694.678 151.088 C 700.715 156.486 724.754 187.401 729.594 194.18 C 734.212 200.649 745.027 214.816 743.315 223.082 C 742.131 228.801 737.668 236.091 732.813 239.458 C 722.708 246.466 695.744 254.959 683.058 260.262 C 675.333 263.492 667.101 266.458 659.7 270.365 C 651.362 274.767 643.47 280.006 635.127 284.418 C 623.585 290.521 611.59 295.809 600.722 303.098 L 599.061 304.226 A 380.413 380.413 0 0 0 561.381 333.64 C 549.648 343.896 538.722 354.666 525.114 362.438 L 517.092 355.443 C 516.865 346.434 520.473 338.299 521.035 329.459 C 521.53 321.674 519.521 313.833 519.684 306.022 C 519.882 296.497 523.771 277.941 522.023 270.079 C 520.025 261.094 525.513 256.268 526.588 247.897 C 529.521 225.073 529.755 200.46 535.127 178.051 C 543.039 145.044 560.559 99.598 591.1 80.8423 z"/>
<path transform="translate(0,0)" fill="rgb(0,0,0)" d="M 1276.53 466.625 C 1287.13 465.912 1298.15 467.01 1308.29 470.201 C 1318.27 473.34 1327.55 478.77 1336.25 484.491 C 1375.1 510.049 1373.79 547.457 1393.73 584.344 C 1393.93 584.728 1394.15 585.107 1394.36 585.488 C 1402.81 590.813 1413.14 592.527 1420.84 599.128 C 1423.78 601.655 1425.24 604.061 1425.52 607.969 C 1418.09 618.25 1386.22 613.396 1374.01 622.97 C 1362.54 631.973 1355.28 643.742 1345.63 654.32 C 1340.1 660.38 1333.15 664.997 1326.51 669.756 C 1304.67 685.414 1291.5 691.109 1265.11 696.328 C 1257.56 697.61 1245.77 695.39 1238.08 694.176 C 1215.35 690.591 1194.65 679.52 1174.3 669.304 C 1166.26 665.271 1158.28 660.602 1149.53 658.304 C 1139.5 655.668 1121.23 656.266 1114.81 647.527 C 1113.44 642.856 1114.91 638.391 1115.64 633.671 C 1121.43 628.011 1129.55 624.222 1134.39 617.735 C 1140.48 609.569 1142.39 598.424 1144.84 588.764 C 1151.11 564.028 1158.08 541.935 1175.07 522.246 C 1182.03 514.178 1190.19 506.875 1197.95 499.587 C 1225.18 474.019 1240.18 469.211 1276.53 466.625 z"/>
<path transform="translate(0,0)" fill="rgb(254,253,254)" d="M 1302.3 530.846 C 1341.99 542.6 1344.09 565.694 1361.57 597.569 C 1348.45 611.822 1336.74 629.784 1322.17 642.191 C 1316.64 646.968 1310.98 651.428 1305.12 655.788 C 1309 642.441 1312.05 629.333 1315.34 615.852 C 1318.56 602.638 1312.17 588.473 1313.65 579.32 C 1314.27 575.425 1314.79 572.628 1313.78 568.731 C 1311.74 560.861 1309.03 540.1 1302.99 535.075 C 1300.58 533.069 1302.62 535.309 1300.38 532.557 L 1302.3 530.846 z"/>
<path transform="translate(0,0)" fill="rgb(254,253,254)" d="M 1221.06 533.088 L 1222.34 533.828 C 1223.8 538.6 1210.87 580.878 1209.28 589.434 C 1208.41 594.129 1209.5 599.604 1209.59 604.419 C 1210.1 631.636 1214.31 647.681 1229.99 670.778 C 1221.08 665.714 1210.65 662.834 1201.36 658.213 C 1187.84 650.872 1174.92 642.376 1161.43 634.95 C 1168.97 613.633 1171.72 590.998 1182.41 570.705 C 1190.19 555.936 1204.71 538.15 1221.06 533.088 z"/>
<path transform="translate(0,0)" fill="rgb(0,0,0)" d="M 759.032 474.401 C 765.687 476.53 783.475 473.641 791.984 474.111 C 804.845 474.82 820.137 481.517 831.827 486.904 C 861.003 500.348 872.765 514.253 885.47 542.762 C 889.036 550.766 893.008 558.823 895.609 567.201 C 899.568 579.958 902.565 593.378 907.296 605.844 C 914.282 624.252 922.525 621.863 937.614 629.432 C 940.153 630.706 941.169 632.307 942.141 634.936 C 942.058 637.83 941.649 639.156 940.159 641.637 C 928.787 649.051 902.369 642.378 887.303 647.657 C 880.93 649.889 874.943 656.616 869.504 660.648 C 856.968 669.941 831.339 685.75 816.469 690.192 C 809.946 692.141 802.73 692.775 795.987 693.66 C 771.387 699.549 725.772 686.244 702.833 675.352 C 692.231 670.317 680.943 663.765 672.384 655.65 C 665.171 648.811 658.555 640.881 650.596 634.883 C 641.236 627.828 610.823 616.366 607.526 605.77 C 606.843 603.577 606.833 602.563 608.162 600.615 C 611.332 595.966 621.73 593.031 626.967 591.643 C 633.587 583.304 640.459 574.999 646.001 565.889 C 652.402 555.369 657.658 543.973 664.624 533.817 C 678.857 513.064 701.772 494.474 724.684 484.353 C 735.411 479.615 747.464 479.213 758.204 474.761 C 758.482 474.645 758.756 474.521 759.032 474.401 z"/>
<path transform="translate(0,0)" fill="rgb(254,253,254)" d="M 728.87 539.166 L 729.814 540.543 C 730.988 546.344 724.984 553.934 722.978 559.509 C 718.488 571.985 715.323 590.385 715.046 603.484 C 714.781 616.032 725.277 654.357 725.081 655.805 C 725.026 656.209 724.702 656.528 724.513 656.889 C 724.116 656.952 723.722 657.053 723.321 657.077 C 714.161 657.627 697.449 645.452 690.456 639.786 C 679.611 630.288 666.28 622.179 657.147 611.084 C 660.014 609.01 662.817 606.757 665.126 604.062 C 671.848 596.213 677.085 586.665 683.019 578.176 C 690.402 567.615 699.08 557.452 705.296 546.173 A 906.748 906.748 0 0 0 728.87 539.166 z"/>
<path transform="translate(0,0)" fill="rgb(254,253,254)" d="M 814.072 526.198 C 818.439 526.717 822.896 527.234 826.964 529.011 C 846.41 537.502 870.86 579.242 879.085 598.628 C 872.168 621.979 863.514 632.534 844.353 647.24 C 834.415 654.43 825.19 659.695 813.406 663.19 C 832.173 632.433 837.435 596.8 826.581 562.361 C 823.603 552.911 818.025 543.41 816.228 533.768 C 815.729 531.091 815.027 528.747 814.072 526.198 z"/>
</svg>