<svg version="1.1" xmlns="http://www.w3.org/2000/svg" style="display: block;" viewBox="0 0 2048 2048" width="1024" height="1024">
<path transform="translate(0,0)" fill="rgb(23,24,26)" d="M 0 0 L 1024.19 0 L 2046 0 L 2048 0 L 2048 2048 L 2046.58 2048 L 1693.15 2048 L 1584.42 2048 L 1541.68 2048 L 1450.41 2048 L 1436.71 2048 L 1345.17 2048 L 1326.24 2048 L 1236.3 2048 L 1200.96 2048 L 1025.06 2048 L 845.111 2048 L 813.968 2048 L 717.22 2048 L 703.867 2048 L 608.866 2048 L 595.065 2048 L 501.823 2048 L 462.643 2048 L 358.642 2048 L 0 2048 L 0 1900.08 L 0 1855.76 L 0 1776.01 L 0 1731.79 L 0 1652.33 L 0 1608.01 L 0 974.652 L 0 787.7 L 0 1.39312 L 0 0 z"/>
<path transform="translate(0,0)" fill="rgb(254,159,148)" d="M 786.696 898.785 C 786.892 902.483 787.112 906.119 786.888 909.818 C 770.125 910.29 752.244 914.773 735.595 917.515 L 629.874 935.283 C 609.54 938.814 588.918 943.789 568.385 945.333 L 570.189 942.966 L 568.882 945.121 C 610.969 934.325 654.144 925.843 696.731 917.22 C 726.742 911.143 756.619 904.555 786.696 898.785 z"/>
<path transform="translate(0,0)" fill="rgb(254,159,148)" d="M 1260.16 897.385 C 1301.13 903.745 1341.75 912.171 1382.49 919.782 C 1414.19 925.703 1446.11 930.547 1477.56 937.713 C 1465.01 938.286 1450.46 934.229 1437.99 932.211 C 1424.96 930.104 1411.71 928.564 1398.62 926.804 A 4937.2 4937.2 0 0 0 1314.69 916.254 C 1296.42 914.054 1277.64 912.317 1259.57 908.804 L 1260.16 897.385 z"/>
<path transform="translate(0,0)" fill="rgb(254,159,148)" d="M 791.84 875.853 C 778.64 870.715 750.374 870.344 735.572 869.034 C 679.078 864.033 622.554 859.266 565.875 857.401 C 575.579 852.911 738.581 859.525 762.647 860.652 C 774.382 861.202 786.057 862.678 797.789 863.048 C 795.098 867.152 793.509 871.284 791.84 875.853 z"/>
<path transform="translate(0,0)" fill="rgb(254,159,148)" d="M 811.022 845.23 C 796.648 839.32 776.47 836.13 760.971 831.435 C 722.241 819.702 683.71 807.15 645.182 794.765 C 626.277 788.687 606.232 783.745 587.902 776.28 C 591.355 777.274 595.194 776.999 598.723 778.014 A 5767.29 5767.29 0 0 0 743.635 816.6 C 757.85 820.185 806.781 831.118 818.195 837.472 L 811.022 845.23 z"/>
<path transform="translate(0,0)" fill="rgb(254,159,148)" d="M 1251.26 862.994 A 9461.63 9461.63 0 0 1 1425.62 857.515 C 1443.02 857.147 1477.55 854.348 1493.36 857.109 C 1486.55 859.15 1456.3 859.63 1447.56 860.185 C 1398.62 863.294 1349.8 867.752 1300.91 871.362 C 1289.38 872.213 1265.18 871.379 1255.37 873.856 C 1253.8 870.326 1252.58 866.626 1251.26 862.994 z"/>
<path transform="translate(0,0)" fill="rgb(254,159,148)" d="M 1231.81 838.503 C 1267.57 827.41 1304.21 818.748 1340.28 808.651 C 1388.02 795.283 1435.64 780.659 1483.79 768.907 C 1466.95 777.353 1435.77 785.454 1416.76 791.59 C 1376.94 804.44 1337.62 818.125 1297.37 829.618 C 1282.51 833.861 1251.28 840.774 1239.16 846.159 C 1236.33 843.81 1234.13 841.34 1231.81 838.503 z"/>
<path transform="translate(0,0)" fill="rgb(241,238,238)" d="M 1284.47 616.015 A 64.6747 64.6747 0 0 1 1294.86 617.736 C 1322.52 624.431 1351.28 645.348 1365.62 669.984 C 1371.7 680.438 1376.03 692.698 1372.59 704.799 C 1366.42 726.508 1342.79 743.909 1323.87 753.961 C 1309.6 760.919 1295.86 765.202 1280.33 768.338 C 1289.43 762.795 1297.22 757.166 1303.63 748.52 C 1318.23 728.825 1324.28 698.812 1320.7 674.77 C 1317.06 650.337 1304.19 630.423 1284.47 616.015 z"/>
<path transform="translate(0,0)" fill="rgb(241,238,238)" d="M 1238.44 617.096 L 1241.14 617.107 C 1240.79 619.231 1234.04 623.074 1232.04 624.813 C 1227.13 629.088 1222.82 634.353 1219.39 639.875 C 1206.23 661.039 1203 690.599 1208.6 714.607 C 1214.14 738.316 1226.67 755.975 1247.33 768.714 C 1233.76 766.933 1221.52 763.447 1208.74 758.602 C 1204.28 756.835 1200 754.666 1195.78 752.407 C 1179.52 743.702 1158.45 728.167 1153.35 709.443 C 1149.76 696.257 1156.22 681.704 1162.92 670.536 C 1180.06 641.968 1206.66 625.113 1238.44 617.096 z"/>
<path transform="translate(0,0)" fill="rgb(241,238,238)" d="M 804.399 617.295 C 811.029 618.532 817.6 620.062 823.966 622.305 C 850.035 631.492 875.543 650.17 887.51 675.661 C 893.376 688.155 895.31 702.393 890.16 715.506 C 881.882 736.581 858.941 750.716 839.254 759.497 C 825.209 765.336 810.459 768.178 795.575 770.876 C 803.474 766.591 810.089 761.824 816.105 755.126 C 832.972 736.347 840.946 708.43 839.561 683.504 C 837.991 655.264 824.914 635.639 804.399 617.295 z"/>
<path transform="translate(0,0)" fill="rgb(241,238,238)" d="M 759.638 617.226 L 760.413 617.314 L 760.76 617.931 C 753.093 623.646 745.585 629.217 740.345 637.359 C 725.343 660.671 720.455 686.899 726.516 714.071 C 732.373 740.324 745.779 757.182 768.219 771.237 C 754.201 768.143 740.94 764.727 727.582 759.3 C 721.332 756.288 715.315 753.092 709.456 749.364 C 691.566 737.98 674.4 721.74 670.006 700.128 C 667.473 687.666 670.73 675.887 677.771 665.477 C 695.933 638.624 728.809 623.3 759.638 617.226 z"/>
<path transform="translate(0,0)" fill="rgb(213,92,110)" d="M 1325 244.117 L 1325.92 244.497 C 1333.07 253.158 1337.48 269.57 1341.48 280.059 C 1364.74 341.069 1389.18 416.28 1391.38 481.938 C 1374.74 454.391 1354.62 434.724 1327.12 418.105 C 1286.36 395.721 1240.55 388.78 1194.97 383.742 C 1194.57 363.996 1198.52 345.478 1207.8 327.959 C 1231.77 282.713 1277.74 258.476 1325 244.117 z"/>
<path transform="translate(0,0)" fill="rgb(213,92,110)" d="M 717.771 245.252 C 754.734 253.321 790.058 268.118 816.652 295.878 C 840.115 320.369 849.747 350.255 848.909 383.715 C 800.891 390.189 758.38 398.855 715.421 422.865 C 685.774 440.467 667.607 463.484 652.741 494.093 C 654.741 411.402 686.631 321.102 717.771 245.252 z"/>
<path transform="translate(0,0)" fill="rgb(241,238,238)" d="M 818.195 837.472 C 833.278 825.249 848.72 813.322 865.689 803.796 C 910.725 778.513 951.012 767.816 957.424 709.54 C 960.524 681.37 950.232 660.928 945.209 634.116 C 936.327 586.701 941.058 520.349 981.833 487.678 C 995.804 476.485 1012.45 471.005 1030.33 473.162 C 1050.48 475.594 1066.61 487.243 1078.82 502.998 C 1103.65 535.039 1108.89 581.029 1103.48 620.103 C 1100.43 642.13 1091.98 661.138 1087.88 682.235 C 1083.4 705.306 1087.68 733.015 1101.84 752.143 C 1119.5 776.007 1151.69 787.565 1176.86 801.714 C 1196.29 812.637 1214.74 824.072 1231.81 838.503 C 1234.13 841.34 1236.33 843.81 1239.16 846.159 C 1243.46 851.645 1247.62 857.046 1251.26 862.994 C 1252.58 866.626 1253.8 870.326 1255.37 873.856 C 1257.81 881.508 1259.83 889.326 1260.16 897.385 L 1259.57 908.804 C 1254.43 943.947 1232.71 971.032 1204.95 991.859 C 1138.24 1041.92 1049.3 1054.13 968.296 1042.31 C 909.015 1033.66 844.455 1008.82 807.628 959.241 C 796.476 944.228 789.552 928.352 786.888 909.818 C 787.112 906.119 786.892 902.483 786.696 898.785 C 787.398 891.028 789.782 883.336 791.84 875.853 C 793.509 871.284 795.098 867.152 797.789 863.048 C 802.093 857.037 806.601 851.156 811.022 845.23 L 818.195 837.472 z"/>
<path transform="translate(0,0)" fill="rgb(23,24,26)" d="M 1045.4 766.318 C 1052.57 772.303 1057.29 778.259 1058.03 788.008 C 1058.69 796.608 1055.21 805.088 1049.44 811.375 C 1043.97 817.322 1037.92 820.373 1030.23 822.416 C 1030.48 820.72 1030.24 821.338 1031.02 819.896 C 1040.51 802.52 1046.3 786.309 1045.4 766.318 z"/>
<path transform="translate(0,0)" fill="rgb(213,92,110)" d="M 1014.99 824.043 C 1012.06 822.761 1008.98 821.311 1006.23 819.667 C 998.535 815.077 992.724 806.867 990.5 798.235 C 988.347 789.874 989.292 780.759 993.79 773.31 A 25.8782 25.8782 0 0 1 1010.34 761.238 C 1019.08 759.246 1037.81 761.589 1045.4 766.318 C 1046.3 786.309 1040.51 802.52 1031.02 819.896 C 1030.24 821.338 1030.48 820.72 1030.23 822.416 C 1028.94 829.326 1029.42 839.115 1030.76 846.051 C 1036.32 874.878 1067.91 899.132 1096.1 903.267 C 1101.36 904.039 1106.93 904.323 1112.23 903.804 C 1121.06 902.94 1133.69 898.048 1141.58 903.373 C 1142.43 905.183 1142.93 905.615 1142.69 907.677 C 1142.3 911.003 1140.34 913.459 1137.75 915.439 C 1127.64 923.173 1110.16 923.199 1097.99 921.679 C 1064.75 917.527 1043.25 899.812 1023.4 874.211 C 1007.17 897.299 986.229 915.094 957.905 920.836 C 943.377 923.78 923.444 923.653 910.867 914.714 C 908.082 912.735 905.28 909.653 905.124 906.05 C 905.061 904.617 905.416 903.286 906.49 902.332 C 911.855 897.564 938.299 905.35 948.122 904.916 C 966.338 904.112 986.461 891.413 998.437 877.983 C 1012.46 862.26 1016.12 844.537 1014.99 824.043 z"/>
<path transform="translate(0,0)" fill="rgb(128,139,194)" d="M 0 0 L 1024.19 0 L 2046 0 L 2046.03 1.07893 C 2013.88 2.42738 1981.37 1.42763 1949.19 1.40686 L 1778.05 1.4219 L 1257.78 1.24077 L 1112.19 1.31145 C 1083.12 1.30602 1053.73 0.446123 1024.7 1.92929 C 1023.65 14.398 1024.28 27.3199 1024.34 39.8497 L 1024.66 103.542 L 1024.76 279.159 C 1024.96 312.603 1026.52 346.526 1025.66 379.904 L 920.173 380.085 C 913.596 319.243 892.735 273.019 844.085 233.859 C 801.084 199.246 742.199 176.968 687.089 172.71 C 675.879 191.357 666.881 211.183 657.894 230.971 C 609.734 337.022 575.506 472.544 592.669 589.507 C 541.086 673.533 504.24 759.492 492.959 858.158 C 488.697 895.435 488.413 934.579 497.045 971.255 C 509.608 1024.64 540.205 1080.14 582.795 1115.01 C 575.791 1135.99 564.092 1156.65 559.611 1178.28 C 544.462 1221.28 529.753 1275.65 533.024 1321.3 C 499.975 1292.66 468.966 1260.86 436.838 1231.13 A 20950 20950 0 0 1 204.739 1015.46 L 147.593 962.422 C 137.633 953.321 116.615 937.731 109.948 927.323 C 99.9903 911.777 111.958 896.032 109.094 879.781 C 108.282 875.175 106.857 872.647 103.585 869.303 C 88.7246 854.113 68.9459 842.201 52.0931 829.22 C 34.521 815.685 18.0147 800.64 0 787.7 L 0 1.39312 L 0 0 z"/>
<path transform="translate(0,0)" fill="rgb(67,72,97)" d="M 2046 0 L 2048 0 L 2048 2048 L 2046.58 2048 L 1693.15 2048 L 1584.42 2048 C 1588.09 2035.22 1593.04 2022.89 1596.48 2010.02 C 1612.74 1949.22 1616.12 1896.19 1613.78 1833.47 C 1611.89 1823.24 1612.82 1811.51 1612.13 1801.01 A 987.779 987.779 0 0 0 1605.92 1741.9 C 1596.35 1680.46 1584.18 1623.62 1570.8 1563.05 C 1558.42 1506.95 1545.88 1450.94 1529.19 1395.93 C 1522.39 1372.56 1516.41 1349.03 1510.05 1325.54 C 1514.33 1291.68 1508.42 1252.99 1501.01 1219.82 C 1498.41 1208.16 1494.86 1196.74 1492.39 1185.06 C 1487.03 1162.77 1479.58 1134.77 1467.02 1115.59 C 1474.21 1108.38 1482.51 1102.31 1489.64 1094.86 C 1517.31 1065.93 1537.7 1027.56 1547.37 988.789 C 1567.23 909.235 1552.61 815.414 1525.42 739.104 C 1506.86 687.01 1481.3 637.172 1452.89 589.823 C 1457.66 564.173 1458.38 538.168 1458.01 512.154 C 1456.27 388.709 1411.95 277.592 1358.29 168.513 C 1298.12 181.508 1236.68 200.961 1191.02 244.336 C 1153.04 280.429 1128.28 326.949 1126.91 379.947 A 5099.09 5099.09 0 0 0 1025.66 379.904 C 1026.52 346.526 1024.96 312.603 1024.76 279.159 L 1024.66 103.542 L 1024.34 39.8497 C 1024.28 27.3199 1023.65 14.398 1024.7 1.92929 C 1053.73 0.446123 1083.12 1.30602 1112.19 1.31145 L 1257.78 1.24077 L 1778.05 1.4219 L 1949.19 1.40686 C 1981.37 1.42763 2013.88 2.42738 2046.03 1.07893 L 2046 0 z"/>
<path transform="translate(0,0)" fill="rgb(241,238,238)" d="M 2046 0 L 2048 0 L 2048 2048 L 2046.58 2048 L 2046.72 634.007 L 2046.72 209.949 L 2046.72 73.8013 C 2046.7 49.7907 2047.94 24.9934 2046.03 1.07893 L 2046 0 z"/>
<path transform="translate(0,0)" fill="rgb(104,186,222)" d="M 1613.78 1833.47 L 1614.38 1825.99 C 1624.23 1828.09 1651.04 1864.17 1656.45 1872.5 C 1691.27 1926.15 1700.18 1985.4 1693.15 2048 L 1584.42 2048 C 1588.09 2035.22 1593.04 2022.89 1596.48 2010.02 C 1612.74 1949.22 1616.12 1896.19 1613.78 1833.47 z"/>
<path transform="translate(0,0)" fill="rgb(241,238,238)" d="M 1619.02 906.559 C 1619.3 864.006 1612.71 820.696 1607.3 778.516 C 1597.32 700.853 1585.57 614.375 1647.29 553.577 C 1678.69 522.65 1728.72 512.631 1771.35 513.173 C 1815.11 513.73 1863.46 525.143 1894.82 557.774 C 1959.23 624.795 1956.49 807 1954.16 896.612 L 1953.83 908.31 C 1952.21 909.198 1951.38 909.276 1949.49 909.341 C 1926.14 910.156 1902.5 909.521 1879.12 909.628 L 1716.59 909.844 L 1652.02 909.864 C 1642.11 909.873 1630.06 911.332 1620.47 909.188 L 1619.02 906.559 z"/>
<path transform="translate(0,0)" fill="rgb(213,92,110)" d="M 1678.68 546.316 C 1685.34 546.051 1691.06 547.128 1696.99 550.319 A 33.9429 33.9429 0 0 1 1713.8 572.081 C 1715.82 580.295 1714.67 589.322 1710.01 596.462 C 1704.55 604.82 1697.12 607.872 1687.83 609.991 C 1680.5 610.066 1674.46 609.534 1667.91 605.78 A 32.8663 32.8663 0 0 1 1652.51 585.413 C 1650.37 576.76 1652.39 567.594 1657.31 560.238 C 1662.48 552.491 1669.72 548.211 1678.68 546.316 z"/>
<path transform="translate(0,0)" fill="rgb(213,92,110)" d="M 1856.63 546.325 C 1863.48 546.738 1869.49 548.135 1875.18 552.14 A 31.6135 31.6135 0 0 1 1888.18 573.892 A 32.8595 32.8595 0 0 1 1881.73 598.421 C 1875.31 606.701 1867.11 609.426 1857.15 610.594 C 1850.05 610.318 1843.6 609.24 1837.67 605.109 C 1831.15 600.563 1827.17 593.595 1825.85 585.818 C 1824.28 576.501 1826.43 566.468 1832.25 558.951 C 1838.61 550.746 1846.72 547.644 1856.63 546.325 z"/>
<path transform="translate(0,0)" fill="rgb(213,92,110)" d="M 1764.51 543.135 C 1771.14 542.657 1778.05 543.114 1784.13 546.015 C 1792.04 549.796 1797.5 556.849 1800.11 565.134 C 1802.86 573.867 1802.38 583.574 1797.74 591.586 C 1792.71 600.28 1784.69 604.51 1775.25 606.887 C 1768.91 607.342 1763.41 606.932 1757.5 604.47 A 31.4337 31.4337 0 0 1 1740.01 586.593 C 1736.94 578.66 1736.91 569.506 1740.48 561.73 C 1745.28 551.264 1754.21 546.726 1764.51 543.135 z"/>
<path transform="translate(0,0)" fill="rgb(213,92,110)" d="M 1763.7 628.383 C 1784.29 625.568 1808.43 632.642 1825.77 643.647 C 1845.7 656.297 1860.16 676.107 1865.08 699.24 C 1870.62 725.27 1866.24 754.041 1851.59 776.426 C 1835.97 800.294 1809.47 815.191 1781.99 820.748 L 1780.66 820.954 A 87.5528 87.5528 0 0 1 1714.96 804.163 C 1694.13 788.448 1680.3 766.1 1676.81 740.158 A 98.486 98.486 0 0 1 1696.9 665.41 C 1712.98 644.83 1737.91 631.458 1763.7 628.383 z"/>
<path transform="translate(0,0)" fill="rgb(104,186,222)" d="M 1619.02 906.559 L 1620.47 909.188 C 1630.06 911.332 1642.11 909.873 1652.02 909.864 L 1716.59 909.844 L 1879.12 909.628 C 1902.5 909.521 1926.14 910.156 1949.49 909.341 C 1951.38 909.276 1952.21 909.198 1953.83 908.31 L 1953.7 909.298 C 1950.5 934.849 1951.66 962.865 1950.17 988.803 C 1947.54 1034.71 1942.79 1081.14 1937.12 1126.77 A 1228.95 1228.95 0 0 1 1906.25 1281.36 C 1863.18 1444.46 1787 1602.03 1651.95 1708.49 C 1637.23 1720.09 1622.11 1732.4 1605.92 1741.9 C 1596.35 1680.46 1584.18 1623.62 1570.8 1563.05 C 1558.42 1506.95 1545.88 1450.94 1529.19 1395.93 C 1532.16 1386.37 1533.88 1375.97 1535.77 1366.12 C 1548.99 1297.3 1534.83 1234.09 1509.87 1170.08 C 1523.69 1158.36 1538.88 1150.27 1551.35 1136.6 C 1606.12 1076.58 1622.67 985.583 1619.02 906.559 z"/>
<path transform="translate(0,0)" fill="rgb(23,24,26)" d="M 0 787.7 C 18.0147 800.64 34.521 815.685 52.0931 829.22 C 68.9459 842.201 88.7246 854.113 103.585 869.303 C 106.857 872.647 108.282 875.175 109.094 879.781 C 111.958 896.032 99.9903 911.777 109.948 927.323 C 116.615 937.731 137.633 953.321 147.593 962.422 L 204.739 1015.46 A 20950 20950 0 0 0 436.838 1231.13 C 468.966 1260.86 499.975 1292.66 533.024 1321.3 C 529.753 1275.65 544.462 1221.28 559.611 1178.28 C 564.092 1156.65 575.791 1135.99 582.795 1115.01 C 615.087 1139.37 639.385 1157.19 676.008 1175.28 C 812.802 1242.85 1005.41 1257.5 1155.33 1236.44 C 1265.77 1220.92 1378.8 1186.35 1467.02 1115.59 C 1479.58 1134.77 1487.03 1162.77 1492.39 1185.06 C 1494.86 1196.74 1498.41 1208.16 1501.01 1219.82 C 1508.42 1252.99 1514.33 1291.68 1510.05 1325.54 C 1516.41 1349.03 1522.39 1372.56 1529.19 1395.93 C 1545.88 1450.94 1558.42 1506.95 1570.8 1563.05 C 1584.18 1623.62 1596.35 1680.46 1605.92 1741.9 A 987.779 987.779 0 0 1 1612.13 1801.01 C 1612.82 1811.51 1611.89 1823.24 1613.78 1833.47 C 1616.12 1896.19 1612.74 1949.22 1596.48 2010.02 C 1593.04 2022.89 1588.09 2035.22 1584.42 2048 L 1541.68 2048 L 1450.41 2048 L 1436.71 2048 L 1345.17 2048 L 1326.24 2048 L 1236.3 2048 L 1200.96 2048 L 1025.06 2048 L 845.111 2048 L 813.968 2048 L 717.22 2048 L 703.867 2048 L 608.866 2048 L 595.065 2048 L 501.823 2048 L 462.643 2048 L 358.642 2048 L 0 2048 L 0 1900.08 L 0 1855.76 L 0 1776.01 L 0 1731.79 L 0 1652.33 L 0 1608.01 L 0 974.652 L 0 787.7 z"/>
<path transform="translate(0,0)" fill="rgb(241,238,238)" d="M 1236.3 2048 C 1240.24 2035.48 1247.91 2024.26 1259.7 2017.94 C 1271 2011.88 1284.75 2011.34 1296.86 2015.19 C 1307.97 2018.73 1317.6 2026.64 1322.57 2037.28 C 1324.17 2040.69 1325.3 2044.37 1326.24 2048 L 1236.3 2048 z"/>
<path transform="translate(0,0)" fill="rgb(241,238,238)" d="M 501.823 2048 C 507.186 2034.27 513.746 2023.67 527.915 2017.59 C 540.358 2012.24 555.089 2011.99 567.539 2017.44 C 581.136 2023.38 589.885 2034.44 595.065 2048 L 501.823 2048 z"/>
<path transform="translate(0,0)" fill="rgb(241,238,238)" d="M 1450.41 2048 C 1454.87 2034.78 1461.64 2024.37 1474.45 2017.78 A 46.8453 46.8453 0 0 1 1511.37 2015.46 C 1523.66 2019.76 1533.27 2028.9 1538.88 2040.55 C 1540.01 2042.9 1540.96 2045.5 1541.68 2048 L 1450.41 2048 z"/>
<path transform="translate(0,0)" fill="rgb(241,238,238)" d="M 1345.17 2048 C 1350.09 2034.29 1357.55 2023.47 1371.21 2017.14 C 1382.9 2011.72 1396.5 2011.63 1408.49 2016.21 A 44.8376 44.8376 0 0 1 1433.75 2040 C 1434.89 2042.59 1435.79 2045.33 1436.71 2048 L 1345.17 2048 z"/>
<path transform="translate(0,0)" fill="rgb(241,238,238)" d="M 608.866 2048 C 614.122 2034.5 621.734 2023.75 635.431 2017.68 A 49.0224 49.0224 0 0 1 674.548 2017.3 C 688.892 2023.34 697.311 2034.42 703.867 2048 L 608.866 2048 z"/>
<path transform="translate(0,0)" fill="rgb(241,238,238)" d="M 717.22 2048 C 723.513 2034.08 733.432 2020.93 748.321 2015.59 C 760.791 2011.11 775.648 2012.19 787.452 2018.14 C 800.278 2024.59 807.734 2035.58 813.968 2048 L 717.22 2048 z"/>
<path transform="translate(0,0)" fill="rgb(104,186,222)" d="M 402.264 1855.34 C 412.533 1841.98 422.934 1827.79 437.07 1818.31 C 434.475 1894.48 438.604 1975.04 462.643 2048 L 358.642 2048 C 348.844 2000.14 359.021 1946.12 374.726 1900.74 C 382.249 1884.31 392.038 1870.15 402.264 1855.34 z"/>
<path transform="translate(0,0)" fill="rgb(67,72,97)" d="M 1152.88 1716.07 C 1168.59 1715.85 1184.35 1713.42 1199.88 1711.15 C 1242.51 1704.92 1283.94 1695.03 1325.95 1685.85 A 1054.89 1054.89 0 0 0 1268.61 1787.09 C 1226.47 1871.63 1200.53 1952.88 1200.96 2048 L 1025.06 2048 C 1024.95 1971.75 1023.38 1895.1 1025.59 1818.89 A 6813.3 6813.3 0 0 0 1194.09 1819.27 C 1183.64 1784.22 1167.15 1749.68 1152.88 1716.07 z"/>
<path transform="translate(0,0)" fill="rgb(104,186,222)" d="M 727.759 1685.1 A 743.155 743.155 0 0 0 849.954 1710.45 C 864.939 1712.38 880.013 1713.43 895 1715.35 C 879.826 1749.39 863.292 1783.46 849.584 1818.09 C 890.391 1819.16 931.453 1818.02 972.293 1818.09 C 989.857 1818.12 1008.11 1817.29 1025.59 1818.89 C 1023.38 1895.1 1024.95 1971.75 1025.06 2048 L 845.111 2048 C 847.137 1941.74 811.034 1841.83 763.014 1748.34 C 752.193 1727.27 738.537 1707.5 728.276 1686.19 L 727.759 1685.1 z"/>
<path transform="translate(0,0)" fill="rgb(213,92,110)" d="M 985.194 1515.37 C 1010.64 1517.94 1037.92 1515.88 1063.55 1515.62 A 11063.9 11063.9 0 0 1 1152.88 1716.07 C 1167.15 1749.68 1183.64 1784.22 1194.09 1819.27 A 6813.3 6813.3 0 0 1 1025.59 1818.89 C 1008.11 1817.29 989.857 1818.12 972.293 1818.09 C 931.453 1818.02 890.391 1819.16 849.584 1818.09 C 863.292 1783.46 879.826 1749.39 895 1715.35 C 902.834 1704.06 916.911 1667.5 923.487 1652.65 L 985.194 1515.37 z"/>
<path transform="translate(0,0)" fill="rgb(213,92,110)" d="M 0 787.7 C 18.0147 800.64 34.521 815.685 52.0931 829.22 C 68.9459 842.201 88.7246 854.113 103.585 869.303 C 106.857 872.647 108.282 875.175 109.094 879.781 C 111.958 896.032 99.9903 911.777 109.948 927.323 C 116.615 937.731 137.633 953.321 147.593 962.422 L 204.739 1015.46 A 20950 20950 0 0 0 436.838 1231.13 C 468.966 1260.86 499.975 1292.66 533.024 1321.3 C 536.323 1324.36 540.081 1327.35 542.921 1330.83 C 528.29 1370.82 512.736 1409.64 503.181 1451.33 C 486.331 1436.09 468.971 1421.52 452.304 1406.06 C 446.456 1398.82 437.495 1392.03 430.582 1385.71 C 409.364 1366.3 387.15 1347.88 366.426 1327.97 C 353.452 1314.93 339.305 1302.81 325.817 1290.29 A 4401.54 4401.54 0 0 1 278.51 1245.03 C 267.537 1233.52 255.492 1222.8 243.982 1211.82 A 3482.88 3482.88 0 0 0 194.15 1164.6 C 165.377 1135.91 135.734 1108.02 106.451 1079.85 C 78.4055 1052.22 51.0918 1023.67 22.4084 996.709 A 924.942 924.942 0 0 1 0 974.652 L 0 787.7 z"/>
<path transform="translate(0,0)" fill="rgb(213,92,110)" d="M 22.7082 1608.05 C 50.0957 1608.07 77.6014 1607.54 104.974 1608.22 A 7328.82 7328.82 0 0 0 193.749 1608.1 C 221.854 1608.08 249.988 1607.79 278.088 1608.1 L 365.798 1608.21 L 451.902 1608.14 L 464.608 1608.17 A 2086.42 2086.42 0 0 1 456.913 1653.23 A 1994.1 1994.1 0 0 0 444.355 1732.43 A 580.424 580.424 0 0 0 440.13 1776.11 C 438.635 1790.14 437.921 1804.23 437.07 1818.31 C 422.934 1827.79 412.533 1841.98 402.264 1855.34 C 392.038 1870.15 382.249 1884.31 374.726 1900.74 C 359.021 1946.12 348.844 2000.14 358.642 2048 L 0 2048 L 0 1900.08 L 0 1855.76 L 0 1776.01 L 0 1731.79 L 0 1652.33 L 0 1608.01 L 22.7082 1608.05 z"/>
<path transform="translate(0,0)" fill="rgb(241,238,238)" d="M 0 1652.33 C 41.9733 1652.47 83.9942 1652.13 125.958 1652.82 L 125.986 1731.55 L 0 1731.79 L 0 1652.33 z"/>
<path transform="translate(0,0)" fill="rgb(241,238,238)" d="M 0 1776.01 C 41.9178 1775.99 83.9521 1775.36 125.859 1776 L 126.028 1855.64 L 0 1855.76 L 0 1776.01 z"/>
<path transform="translate(0,0)" fill="rgb(241,238,238)" d="M 185.876 1775.94 C 216.234 1775.29 246.718 1775.87 277.087 1775.89 L 440.13 1776.11 C 438.635 1790.14 437.921 1804.23 437.07 1818.31 C 422.934 1827.79 412.533 1841.98 402.264 1855.34 C 393.969 1854.78 385.328 1855.62 377.004 1855.82 A 2337.31 2337.31 0 0 1 335.211 1856.33 A 12582.3 12582.3 0 0 1 185.932 1856.03 C 185.578 1829.35 185.885 1802.62 185.876 1775.94 z"/>
<path transform="translate(0,0)" fill="rgb(241,238,238)" d="M 185.923 1652.02 C 276.135 1651.88 366.753 1650.7 456.913 1653.23 A 1994.1 1994.1 0 0 0 444.355 1732.43 C 358.342 1730.38 272.007 1731.85 185.961 1731.82 L 185.923 1652.02 z"/>
<path transform="translate(0,0)" fill="rgb(104,186,222)" d="M 582.795 1115.01 C 615.087 1139.37 639.385 1157.19 676.008 1175.28 C 812.802 1242.85 1005.41 1257.5 1155.33 1236.44 C 1265.77 1220.92 1378.8 1186.35 1467.02 1115.59 C 1479.58 1134.77 1487.03 1162.77 1492.39 1185.06 C 1494.86 1196.74 1498.41 1208.16 1501.01 1219.82 C 1508.42 1252.99 1514.33 1291.68 1510.05 1325.54 C 1414.36 1375.65 1301.89 1405.82 1195.22 1420.83 A 1194.46 1194.46 0 0 1 1136.37 1427.4 C 1125.75 1428.36 1114.87 1428.76 1104.32 1430.29 C 1091.85 1457.2 1082.93 1462.49 1059.88 1479.74 C 1046.55 1470.12 1032.29 1464.97 1015.55 1467.94 C 1003.89 1470 994.089 1475.5 983.985 1481.36 C 963.654 1467.3 949.52 1453.9 939.896 1430.72 C 806.155 1421.63 664.103 1389.54 542.921 1330.83 C 540.081 1327.35 536.323 1324.36 533.024 1321.3 C 529.753 1275.65 544.462 1221.28 559.611 1178.28 C 564.092 1156.65 575.791 1135.99 582.795 1115.01 z"/>
<path transform="translate(0,0)" fill="rgb(213,92,110)" d="M 939.896 1430.72 C 940.116 1426.76 939.157 1422.23 938.741 1418.25 C 937.605 1407.38 937.051 1397.11 939.069 1386.31 C 943.288 1363.71 957.773 1341.5 976.971 1328.77 C 994.748 1316.99 1018.91 1313.78 1039.57 1318.11 C 1062.43 1322.91 1082.71 1337.75 1095.22 1357.36 C 1110.07 1380.65 1110.1 1404.1 1104.32 1430.29 C 1091.85 1457.2 1082.93 1462.49 1059.88 1479.74 C 1046.55 1470.12 1032.29 1464.97 1015.55 1467.94 C 1003.89 1470 994.089 1475.5 983.985 1481.36 C 963.654 1467.3 949.52 1453.9 939.896 1430.72 z"/>
<path transform="translate(0,0)" fill="rgb(104,186,222)" d="M 1059.23 1362.94 C 1069.63 1372.82 1076.44 1385.29 1076.6 1399.91 C 1076.71 1410.31 1074.31 1421.38 1067.89 1429.74 L 1060.77 1430.41 L 1058.94 1429.45 C 1055.79 1420.04 1058.59 1375.32 1059.23 1362.94 z"/>
<path transform="translate(0,0)" fill="rgb(23,24,26)" d="M 1067.89 1429.74 C 1064.34 1440.03 1052.2 1450.21 1042.6 1454.86 C 1030.19 1460.87 1017.71 1461.63 1004.78 1456.82 C 992.206 1452.15 981.894 1444.13 975.882 1431.94 C 983.763 1431.16 992.4 1431.92 1000.36 1431.9 A 2408.76 2408.76 0 0 0 1040.89 1431.21 C 1047.36 1431.07 1054.39 1431.44 1060.77 1430.41 L 1067.89 1429.74 z"/>
<path transform="translate(0,0)" fill="rgb(67,72,97)" d="M 1012.18 1349.64 C 1028.44 1349.89 1046.84 1350.7 1059.23 1362.94 C 1058.59 1375.32 1055.79 1420.04 1058.94 1429.45 L 1060.77 1430.41 C 1054.39 1431.44 1047.36 1431.07 1040.89 1431.21 A 2408.76 2408.76 0 0 1 1000.36 1431.9 C 992.4 1431.92 983.763 1431.16 975.882 1431.94 L 975.656 1431.17 C 971.94 1428.1 969.451 1419.73 968.301 1415.15 C 965.079 1402.34 968.686 1386.62 975.483 1375.52 C 984.023 1361.56 996.43 1353.32 1012.18 1349.64 z"/>
<path transform="translate(0,0)" fill="rgb(104,186,222)" d="M 975.656 1431.17 C 971.94 1428.1 969.451 1419.73 968.301 1415.15 C 965.079 1402.34 968.686 1386.62 975.483 1375.52 C 984.023 1361.56 996.43 1353.32 1012.18 1349.64 C 1012.51 1376.84 1011.94 1404.03 1012.03 1431.22 C 999.99 1431.06 987.66 1430.38 975.656 1431.17 z"/>
<path transform="translate(0,0)" fill="rgb(213,92,110)" d="M 582.795 1115.01 C 615.087 1139.37 639.385 1157.19 676.008 1175.28 C 812.802 1242.85 1005.41 1257.5 1155.33 1236.44 C 1265.77 1220.92 1378.8 1186.35 1467.02 1115.59 C 1479.58 1134.77 1487.03 1162.77 1492.39 1185.06 C 1480.31 1190.37 1468.59 1197.96 1456.94 1204.21 C 1440.99 1212.78 1424.4 1220.52 1407.82 1227.77 A 942.088 942.088 0 0 1 1040.99 1305 C 900.331 1305.74 755.738 1281.72 628.447 1219.97 C 605.725 1208.95 577.585 1196.1 559.611 1178.28 C 564.092 1156.65 575.791 1135.99 582.795 1115.01 z"/>
</svg>