<svg version="1.1" xmlns="http://www.w3.org/2000/svg" style="display: block;" viewBox="0 0 2048 2048" width="1024" height="1024">
<defs>
	<linearGradient id="Gradient1" gradientUnits="userSpaceOnUse" x1="481.557" y1="1620.13" x2="486.154" y2="1616.12">
		<stop class="stop0" offset="0" stop-opacity="1" stop-color="rgb(54,32,25)"/>
		<stop class="stop1" offset="1" stop-opacity="1" stop-color="rgb(38,32,31)"/>
	</linearGradient>
</defs>
<path transform="translate(0,0)" fill="rgb(246,243,232)" d="M 0 0 L 2048 0 L 2048 2048 L 0 2048 L 0 0 z"/>
<path transform="translate(0,0)" fill="rgb(218,136,123)" d="M 1580.33 326.835 A 487.655 487.655 0 0 1 1823.01 613.365 C 1863.57 738.229 1846.23 874.312 1786.88 990.15 C 1736.6 1088.28 1652.7 1158.64 1569.58 1228.18 C 1551.11 1243.63 1529.9 1257.29 1512.59 1273.9 C 1492.74 1252.99 1472.32 1235.84 1449.09 1218.77 C 1449.25 1170.48 1436.11 1074.84 1411.24 1032.73 A 2300.77 2300.77 0 0 0 1578.62 814.631 C 1600.72 781.562 1626.78 743.013 1635.77 703.835 C 1648.89 646.632 1610.83 461.167 1596.28 394.81 C 1591.3 372.084 1584.86 349.64 1580.33 326.835 z"/>
<path transform="translate(0,0)" fill="rgb(56,43,46)" d="M 866.258 280.451 C 874.408 257.061 881.944 234.159 892.418 211.633 C 912.9 167.586 950.539 103.955 998.42 87.4575 C 1007.59 84.2964 1016.04 85.4044 1024.67 89.696 C 1063.8 109.146 1102.49 188.98 1118.95 229.198 C 1127.02 248.903 1133.38 269.171 1140.52 289.214 C 1151.86 294.954 1161.73 300.514 1171.47 308.816 C 1214.38 285.775 1262.47 272.933 1310.76 267.994 L 1310.25 266.29 C 1307.1 255.791 1301.64 246.461 1298.08 236.186 C 1290.69 214.852 1294.06 187.71 1304.64 167.971 C 1321.25 136.955 1355.38 117.051 1388.12 107.344 C 1429.09 95.1988 1478.94 97.8312 1516.73 118.731 C 1538.62 130.842 1557.79 150.736 1564.57 175.329 C 1570.07 195.264 1567.29 212.732 1557.01 230.494 A 100.267 100.267 0 0 1 1554.32 234.937 C 1563.1 265.492 1571.08 296.444 1580.33 326.835 C 1584.86 349.64 1591.3 372.084 1596.28 394.81 C 1610.83 461.167 1648.89 646.632 1635.77 703.835 C 1626.78 743.013 1600.72 781.562 1578.62 814.631 A 2300.77 2300.77 0 0 1 1411.24 1032.73 C 1436.11 1074.84 1449.25 1170.48 1449.09 1218.77 C 1472.32 1235.84 1492.74 1252.99 1512.59 1273.9 C 1522.44 1283.64 1530.59 1295.11 1538.68 1306.32 C 1549.48 1321.29 1559.75 1337.01 1567.82 1353.63 C 1590.73 1400.83 1600.74 1458.35 1601.02 1510.57 C 1601.41 1581.24 1575.75 1670.47 1538.4 1730.22 C 1566.85 1743.46 1586.17 1768.3 1596.77 1797.41 C 1605.12 1820.34 1609.46 1848.13 1598.19 1870.93 C 1590.78 1885.94 1578.63 1893.1 1563.36 1898.1 C 1545.26 1904.03 1525.96 1907.25 1507.23 1910.56 C 1457.28 1919.39 1403.44 1927.19 1353.37 1914.77 C 1340.64 1919.58 1325.92 1923.45 1313.86 1929.54 C 1305.62 1933.7 1300.16 1940.69 1292.77 1945.84 C 1287.02 1949.85 1278.64 1952.03 1271.98 1953.96 C 1211.5 1971.48 1147 1968.5 1084.78 1969.89 C 1073.68 1970.14 1061.16 1975.13 1049.89 1976.69 C 1026.19 1979.96 1002.25 1980.99 978.349 1981.58 C 881.14 1983.95 761.792 1971.61 666.88 1950.37 A 418.095 418.095 0 0 1 627.033 1939.27 C 617.837 1936.2 608.384 1932.2 598.935 1930.09 C 575.914 1924.95 528.95 1931.34 510.034 1923.67 C 508.662 1923.12 508.65 1923.05 507.607 1922.34 L 507.864 1920.83 C 523.387 1917.54 553.529 1919.37 570.241 1919.91 C 566.553 1917.58 561.409 1913.47 557.154 1912.61 C 547.015 1910.56 534.435 1912.05 524.044 1911.87 C 507.081 1911.58 421.688 1909.75 414.802 1902.44 L 415.511 1900.73 C 416.67 1900.33 417.731 1899.96 418.97 1899.91 C 432.398 1899.32 447.117 1901.28 460.684 1901.64 C 487.54 1902.37 514.411 1902.17 541.273 1902.54 L 532.281 1896.07 C 499.85 1896 467.671 1894.16 435.315 1892.15 C 414.657 1890.87 392.301 1890.64 372.172 1885.62 C 396.777 1880.39 424.598 1883.55 449.721 1884.14 C 474.351 1884.73 499.082 1884.79 523.678 1886.21 L 516.955 1879.49 C 481.985 1878.7 446.962 1877.25 411.984 1877.36 C 386.543 1877.44 358.971 1880.45 333.797 1876.85 C 357.903 1869.4 421.912 1866.04 448.028 1867.72 C 433.886 1862.89 419.462 1858.75 406.132 1851.87 C 364.33 1830.31 318.562 1783.91 297.919 1741.97 C 282.883 1711.43 273.32 1673.36 280.309 1639.3 C 228.477 1566.24 201.481 1471.17 202.326 1381.86 C 203.332 1275.49 231.369 1194.61 292.141 1107.63 C 307.248 1086.01 323.028 1064.57 340.846 1045.08 C 402.136 978.033 473.508 920.845 538.234 857.318 C 486.855 785.509 474.663 685.456 488.558 599.908 C 490.254 589.467 492.428 579.026 495.713 568.959 C 498.712 559.77 503.619 550.188 504.854 540.615 C 506.99 524.054 504.447 499.157 504.827 481.401 C 506.773 390.638 525.663 295.546 565.716 213.818 C 573.374 198.192 582.569 178.708 595.487 166.817 C 602.898 159.995 610.86 158.351 620.674 158.769 C 632.216 159.261 643.608 162.648 654.502 166.256 C 722.015 188.614 774.145 244.724 820.684 295.882 C 835.284 289.581 850.439 282.859 866.258 280.451 z"/>
<path transform="translate(0,0)" fill="rgb(205,81,70)" d="M 1463.23 264.15 C 1471.01 265.357 1476.85 267.222 1483.56 271.579 A 107.596 107.596 0 0 1 1479.06 273.366 C 1471.7 270.739 1464.19 268.643 1456.68 266.502 L 1459.04 266.293 L 1457.26 266.171 L 1463.23 264.15 z"/>
<path transform="translate(0,0)" fill="rgb(246,243,232)" d="M 1395.68 1886.8 L 1396.41 1887.48 C 1397.87 1891.82 1396.47 1898.52 1396.12 1903.11 C 1390.78 1903.05 1385.54 1902.64 1380.23 1902.17 L 1379.08 1901.83 L 1378.77 1900.61 C 1383.69 1895.37 1389.95 1891.15 1395.68 1886.8 z"/>
<path transform="translate(0,0)" fill="rgb(65,55,59)" d="M 501.096 649.11 C 501.998 647.553 503.155 646.408 504.361 645.069 C 510.679 657.747 518.282 669.582 525.715 681.618 C 519.571 678.898 515.283 667.658 511.368 661.964 C 510.735 661.042 510.173 660.073 509.592 659.118 L 509.253 660.48 L 511.719 659.841 L 509.629 661.598 C 514.347 670.953 520.317 681.267 527.199 689.154 C 528.236 690.344 528.719 691.488 529.182 692.978 L 528.319 694.225 C 519.538 686.899 506.637 659.682 501.096 649.11 z"/>
<path transform="translate(0,0)" fill="rgb(231,185,85)" d="M 1144.56 1381.44 C 1150.02 1384.01 1158.45 1397.62 1163.15 1403.07 L 1160.66 1415.76 L 1160.17 1416.54 C 1156.25 1414.18 1146.49 1387.18 1144.56 1381.44 z"/>
<path transform="translate(0,0)" fill="rgb(38,34,33)" d="M 914.555 212.151 L 915.194 211.859 L 916.413 212.444 C 919.081 219.975 921.408 227.645 924.116 235.148 C 925.182 238.103 927.022 240.165 927.996 243.538 L 928.35 244.8 L 928.987 244.473 C 926.304 233.906 921.034 224.111 918.827 213.262 L 919.495 211.804 C 926.642 229.678 932.071 248.18 939.841 265.831 C 938.116 266.047 936.312 266.015 934.573 266.082 C 928.446 247.885 920.054 230.609 914.555 212.151 z"/>
<path transform="translate(0,0)" fill="rgb(246,243,232)" d="M 884.076 275.336 C 888.259 261.43 892.515 246.807 899.192 233.89 L 911.612 268.037 C 906.566 272.333 890.773 273.922 884.076 275.336 z"/>
<path transform="translate(0,0)" fill="rgb(231,185,85)" d="M 1165.36 931.883 L 1166.54 932.213 C 1173.49 940.123 1177.37 957.564 1180.92 967.586 C 1175.67 969.125 1170.52 970.924 1165.35 972.72 A 2363.02 2363.02 0 0 0 1148.66 938.971 C 1154.45 936.949 1159.85 934.569 1165.36 931.883 z"/>
<path transform="translate(0,0)" fill="rgb(246,243,232)" d="M 974.741 120.65 C 978.32 112.078 993.774 102.136 1002.11 98.7139 A 94.4583 94.4583 0 0 1 1006.59 97.0194 C 999.703 115.415 994.324 134.723 986.887 152.818 C 983.973 141.666 979.299 131.198 974.741 120.65 z"/>
<path transform="translate(0,0)" fill="rgb(231,185,85)" d="M 1209.7 1272.38 L 1208.87 1271.06 C 1222.31 1255.02 1253.31 1244.77 1272.76 1237.71 C 1261.81 1247.96 1251.73 1259.12 1241.8 1270.34 C 1238.75 1266.9 1234.94 1263.43 1229.99 1263.35 C 1229.34 1263.33 1228.69 1263.53 1228.04 1263.62 C 1228.24 1265.24 1229.48 1266.34 1230.77 1267.27 C 1233.47 1269.24 1236.79 1270.78 1239.73 1272.38 C 1237.55 1275.02 1235.44 1277.9 1233.09 1280.37 C 1225.77 1275.91 1217.98 1274.14 1209.7 1272.38 z"/>
<path transform="translate(0,0)" fill="rgb(231,185,85)" d="M 1181.04 1301.43 C 1190.94 1304.61 1200.73 1307.7 1209.55 1313.32 L 1206.01 1316.84 C 1202.08 1321.73 1198.94 1328.13 1195.64 1333.52 C 1183.76 1325.61 1173.84 1320.55 1159.89 1317.11 C 1163.06 1313.4 1166.74 1308.01 1170.91 1305.57 C 1172.53 1304.62 1173.83 1305.44 1175.56 1305.83 L 1174.66 1304.2 C 1176.32 1302.06 1178.48 1302.1 1181.04 1301.43 z"/>
<path transform="translate(0,0)" fill="rgb(65,55,59)" d="M 1181.04 1301.43 C 1190.94 1304.61 1200.73 1307.7 1209.55 1313.32 L 1206.01 1316.84 C 1196.58 1311.34 1185.94 1308.88 1175.56 1305.83 L 1174.66 1304.2 C 1176.32 1302.06 1178.48 1302.1 1181.04 1301.43 z"/>
<path transform="translate(0,0)" fill="rgb(231,185,85)" d="M 1131.69 1344.68 C 1146.79 1348.1 1161.94 1368.39 1171.91 1379.7 C 1170.53 1384.46 1168.57 1389.13 1166.86 1393.78 C 1166.3 1395.11 1165.84 1395.81 1164.98 1396.93 C 1164.6 1396.77 1164.2 1396.65 1163.83 1396.45 C 1160.44 1394.63 1157.31 1390.62 1154.78 1387.72 C 1143.05 1374.28 1136.76 1361.81 1131.69 1344.68 z"/>
<path transform="translate(0,0)" fill="rgb(246,243,232)" d="M 501.318 702.722 C 506.384 707.444 515.933 726.238 521.282 733.917 C 526.924 742.016 534.617 749.225 539.435 757.659 C 538.787 760.144 535.681 761.128 533.503 762.43 L 523.779 768.723 C 506.734 749.086 503.903 727.616 501.318 702.722 z"/>
<path transform="translate(0,0)" fill="rgb(246,243,232)" d="M 974.741 120.65 C 979.299 131.198 983.973 141.666 986.887 152.818 C 986.107 154.354 985.425 155.792 984.393 157.177 C 987.831 163.445 981.724 181.144 979.712 188.131 C 979.503 188.857 979.274 189.577 979.038 190.294 C 975.498 175.382 968.79 160.348 963.505 145.953 C 962.776 142.123 961.123 139.31 959.2 135.95 C 961.094 133.442 962.966 130.861 965.02 128.481 C 966.899 126.303 968.529 124.02 971.447 123.766 C 972.662 122.847 973.67 121.729 974.741 120.65 z"/>
<path transform="translate(0,0)" fill="rgb(65,55,59)" d="M 974.741 120.65 C 979.299 131.198 983.973 141.666 986.887 152.818 C 986.107 154.354 985.425 155.792 984.393 157.177 C 979.324 146.552 975.593 134.801 971.447 123.766 C 972.662 122.847 973.67 121.729 974.741 120.65 z"/>
<path transform="translate(0,0)" fill="rgb(231,185,85)" d="M 1154.04 1323.46 C 1168.37 1325.34 1180.17 1330.44 1192.4 1337.96 C 1188.43 1347.01 1183.87 1355.84 1179.5 1364.71 L 1178.09 1366.16 C 1176.13 1365.23 1149.04 1340.92 1143.28 1336.56 L 1154.04 1323.46 z"/>
<path transform="translate(0,0)" fill="rgb(246,243,232)" d="M 902.74 229.723 L 902.332 228.862 C 902.368 226.258 903.147 224.361 904.073 221.986 C 905.782 217.603 907.744 210.852 912.39 208.835 L 914.555 212.151 C 920.054 230.609 928.446 247.885 934.573 266.082 C 930.937 267.521 920.955 269.012 917.192 267.612 C 916.696 267.427 916.253 267.124 915.784 266.88 C 914.467 267.29 912.983 267.929 911.612 268.037 L 899.192 233.89 C 900.522 232.727 901.619 231.098 902.74 229.723 z"/>
<path transform="translate(0,0)" fill="rgb(65,55,59)" d="M 902.74 229.723 C 907.73 241.826 911.875 254.387 915.784 266.88 C 914.467 267.29 912.983 267.929 911.612 268.037 L 899.192 233.89 C 900.522 232.727 901.619 231.098 902.74 229.723 z"/>
<path transform="translate(0,0)" fill="rgb(231,185,85)" d="M 1209.7 1272.38 C 1217.98 1274.14 1225.77 1275.91 1233.09 1280.37 L 1229.97 1284.31 C 1226.9 1289.2 1224.03 1294.3 1219.83 1298.32 L 1218.11 1298.49 L 1216.9 1297.4 L 1214.84 1303.53 C 1214.89 1307.51 1211.25 1310.01 1209.55 1313.32 C 1200.73 1307.7 1190.94 1304.61 1181.04 1301.43 C 1178.81 1300.88 1178.3 1301.22 1176.89 1299.29 C 1178.22 1295.39 1182.86 1292.17 1185.88 1289.43 C 1186.72 1288.63 1187.67 1287.66 1188.64 1287.03 C 1190.86 1285.58 1193.17 1286.43 1195.49 1287 C 1193.6 1285.32 1194.18 1286.32 1193.58 1284.08 C 1196.13 1279.99 1200.22 1277.6 1204.6 1275.79 C 1206.13 1273.8 1207.4 1273.3 1209.7 1272.38 z"/>
<path transform="translate(0,0)" fill="rgb(65,55,59)" d="M 1209.7 1272.38 C 1217.98 1274.14 1225.77 1275.91 1233.09 1280.37 L 1229.97 1284.31 C 1221.65 1280.56 1213.53 1277.68 1204.6 1275.79 C 1206.13 1273.8 1207.4 1273.3 1209.7 1272.38 z"/>
<path transform="translate(0,0)" fill="rgb(65,55,59)" d="M 1195.49 1287 L 1197.03 1286.29 C 1198.29 1285.69 1199.39 1285.12 1200.55 1284.37 L 1200.69 1285.98 L 1201.05 1284.43 C 1200.56 1285.23 1200.01 1286.03 1199.64 1286.88 C 1202.1 1286.59 1201.02 1286.97 1202.94 1285.92 C 1207.51 1289.62 1212.78 1293.24 1216.9 1297.4 L 1214.84 1303.53 C 1206.62 1294.82 1197.41 1291.29 1185.88 1289.43 C 1186.72 1288.63 1187.67 1287.66 1188.64 1287.03 C 1190.86 1285.58 1193.17 1286.43 1195.49 1287 z"/>
<path transform="translate(0,0)" fill="rgb(231,185,85)" d="M 1185.88 1289.43 C 1197.41 1291.29 1206.62 1294.82 1214.84 1303.53 C 1214.89 1307.51 1211.25 1310.01 1209.55 1313.32 C 1200.73 1307.7 1190.94 1304.61 1181.04 1301.43 C 1178.81 1300.88 1178.3 1301.22 1176.89 1299.29 C 1178.22 1295.39 1182.86 1292.17 1185.88 1289.43 z"/>
<path transform="translate(0,0)" fill="rgb(246,243,232)" d="M 916.534 197.641 C 918.516 192.786 921.02 186.47 924.322 182.417 C 925.716 180.705 924.927 181.128 926.939 180.936 L 928.095 183.893 C 936.042 208.303 944.583 232.35 953.493 256.427 C 954.253 259.631 955.049 260.878 953.742 263.969 C 950.152 266.477 944.11 266.402 939.841 265.831 C 932.071 248.18 926.642 229.678 919.495 211.804 C 918.33 207.101 917.394 202.406 916.534 197.641 z"/>
<path transform="translate(0,0)" fill="rgb(246,243,232)" d="M 956.196 139.44 L 959.444 147.216 L 960.207 146.331 C 960.304 145.034 960.323 144.068 960.049 142.778 C 959.976 142.432 959.88 142.092 959.796 141.749 C 960.109 142.282 961.417 144.577 961.821 144.96 C 962.294 145.409 962.944 145.622 963.505 145.953 C 968.79 160.348 975.498 175.382 979.038 190.294 C 979.115 193.684 978.977 194.226 977.335 197.193 C 975.873 209.214 973.777 221.137 972.259 233.145 C 962.539 208.457 954.475 183.299 946.386 158.049 C 945.789 156.4 945.024 154.618 945.201 152.816 C 945.727 147.478 952.451 142.773 956.196 139.44 z"/>
<path transform="translate(0,0)" fill="rgb(65,55,59)" d="M 959.444 147.216 L 960.207 146.331 C 960.304 145.034 960.323 144.068 960.049 142.778 C 959.976 142.432 959.88 142.092 959.796 141.749 C 960.109 142.282 961.417 144.577 961.821 144.96 C 962.294 145.409 962.944 145.622 963.505 145.953 C 968.79 160.348 975.498 175.382 979.038 190.294 C 979.115 193.684 978.977 194.226 977.335 197.193 C 969.21 182.207 963.709 163.717 959.444 147.216 z"/>
<path transform="translate(0,0)" fill="rgb(246,243,232)" d="M 1448.7 1836.88 C 1448.94 1837.15 1449.23 1837.38 1449.42 1837.69 C 1457.16 1850.21 1453.57 1887.51 1451.26 1901.48 A 521.123 521.123 0 0 1 1412.75 1903.21 C 1410.63 1903.14 1410.41 1903.43 1408.61 1902.12 C 1407.04 1894.64 1409.03 1885.17 1409.78 1877.57 C 1421.76 1863.38 1436.03 1850.54 1448.7 1836.88 z"/>
<path transform="translate(0,0)" fill="rgb(246,243,232)" d="M 942.082 160.946 C 943.522 159.263 944.254 158.677 946.386 158.049 C 954.475 183.299 962.539 208.457 972.259 233.145 C 971.085 234.826 970.405 235.796 968.73 237.03 C 971.9 244.442 971.759 254.028 968.598 261.449 C 967.867 263.167 966.828 264.342 965.32 265.399 C 962.792 264.99 961.094 264.583 959.742 262.137 C 959.102 260.979 959.016 260.257 958.64 259.015 C 958.355 258.072 958.04 257.138 957.747 256.197 L 955.253 257.264 L 953.493 256.427 C 944.583 232.35 936.042 208.303 928.095 183.893 L 929.456 179.925 L 931.365 179.06 C 930.669 176.882 930.146 175.187 930.843 172.919 C 931.988 169.192 937.177 160.963 940.902 159.425 L 942.082 160.946 z"/>
<path transform="translate(0,0)" fill="rgb(65,55,59)" d="M 928.095 183.893 L 929.456 179.925 L 931.365 179.06 C 936.044 192.224 939.859 205.665 944.558 218.821 C 948.928 231.053 954.548 243.618 957.747 256.197 L 955.253 257.264 L 953.493 256.427 C 944.583 232.35 936.042 208.303 928.095 183.893 z"/>
<path transform="translate(0,0)" fill="rgb(65,55,59)" d="M 942.082 160.946 C 943.522 159.263 944.254 158.677 946.386 158.049 C 954.475 183.299 962.539 208.457 972.259 233.145 C 971.085 234.826 970.405 235.796 968.73 237.03 A 809.885 809.885 0 0 1 942.082 160.946 z"/>
<path transform="translate(0,0)" fill="rgb(246,243,232)" d="M 546.587 756.502 C 531.484 739.071 516.328 719.363 505.664 698.853 C 499.242 686.5 496.715 662.742 501.096 649.11 C 506.637 659.682 519.538 686.899 528.319 694.225 C 540.295 712.817 557.43 729.076 572.927 744.659 A 698.026 698.026 0 0 1 546.587 756.502 z"/>
<path transform="translate(0,0)" fill="rgb(231,185,85)" d="M 1263.96 1052.76 C 1266.45 1050.84 1268.94 1048.99 1271.16 1046.74 C 1273.78 1050.11 1276.56 1053.43 1279.05 1056.89 C 1270.32 1064.62 1260.47 1070.14 1250.16 1075.5 C 1215.9 1093.29 1181.35 1100.43 1142.66 1098.05 C 1125.1 1096.97 1107.12 1093.19 1091.43 1084.99 C 1091.52 1082.04 1091.05 1078.25 1092.93 1075.82 C 1095.19 1075.88 1094.15 1075.62 1096.08 1076.5 C 1107.13 1082.54 1124.04 1085.35 1136.55 1085.1 C 1144.47 1086.56 1153.35 1086.01 1161.36 1085.59 C 1197.82 1083.68 1233.73 1073.52 1263.96 1052.76 z"/>
<path transform="translate(0,0)" fill="rgb(246,243,232)" d="M 535.579 375.029 C 532.345 363.805 539.692 343.674 542.485 332.26 C 552.768 355.76 567.084 378.306 576.021 402.155 C 580.69 414.617 581.646 429.378 584.226 442.512 C 585.789 450.466 588.238 458.294 589.289 466.328 L 588.675 467.427 C 587.746 468.603 586.853 469.903 585.81 470.974 C 578.271 460.977 571.713 450.037 565.478 439.195 C 553.315 420.343 543.256 400.397 532.834 380.558 C 533.401 378.45 534.467 376.885 535.579 375.029 z"/>
<path transform="translate(0,0)" fill="rgb(65,55,59)" d="M 565.478 439.195 C 568.895 437.088 566.204 436.936 567.432 433.458 A 1416.52 1416.52 0 0 0 588.675 467.427 C 587.746 468.603 586.853 469.903 585.81 470.974 C 578.271 460.977 571.713 450.037 565.478 439.195 z"/>
<path transform="translate(0,0)" fill="rgb(65,55,59)" d="M 535.579 375.029 C 541.994 388.237 549.15 400.997 556.385 413.768 C 560.003 420.153 564.513 426.758 567.432 433.458 C 566.204 436.936 568.895 437.088 565.478 439.195 C 553.315 420.343 543.256 400.397 532.834 380.558 C 533.401 378.45 534.467 376.885 535.579 375.029 z"/>
<path transform="translate(0,0)" fill="rgb(231,185,85)" d="M 1462.14 1719.13 L 1462.9 1719.77 C 1462.07 1729.87 1428.33 1778.43 1420.71 1788.22 C 1415.3 1795.19 1409.26 1801.53 1403.15 1807.87 C 1404.09 1800.62 1404.83 1793.6 1404.82 1786.28 C 1404.45 1781.5 1404.11 1776.6 1402.92 1771.95 C 1399.6 1759.03 1391.67 1748.61 1380.29 1741.81 C 1398.42 1739.51 1412.25 1734.28 1427.31 1723.84 C 1439.71 1724.25 1450.4 1723.29 1462.14 1719.13 z"/>
<path transform="translate(0,0)" fill="rgb(246,243,232)" d="M 611.792 175.896 C 613.288 179.121 604.251 191.467 602.32 195.156 C 571.946 253.173 574.324 322.711 575.002 386.343 C 571.478 379.733 568.121 373.024 564.699 366.36 A 1806.11 1806.11 0 0 0 544.017 324.137 A 75.2684 75.2684 0 0 1 544.456 321.659 C 550.561 290.18 585.972 193.38 611.792 175.896 z"/>
<path transform="translate(0,0)" fill="rgb(231,185,85)" d="M 1369.77 1324.88 C 1385.27 1329.44 1412.73 1359.88 1424.29 1373.55 C 1439.86 1391.97 1476.22 1443.04 1473.24 1466.95 C 1472.78 1470.63 1470.84 1472.27 1468.15 1474.44 C 1465.87 1475.74 1463.45 1476.94 1460.96 1477.78 C 1448.96 1481.84 1435.05 1476.66 1424.43 1470.99 C 1425.11 1465.83 1425.84 1460.63 1426.24 1455.44 C 1429.75 1409.19 1398.91 1358.42 1369.77 1324.88 z"/>
<path transform="translate(0,0)" fill="rgb(231,185,85)" d="M 1485.01 1588.34 C 1486.48 1588.56 1487.88 1588.8 1489.26 1589.37 C 1491.78 1590.4 1493.55 1592.85 1494.49 1595.34 C 1501.07 1612.82 1487.2 1658.98 1479.68 1676.01 C 1470.05 1697.79 1454.88 1709.71 1432.94 1718.13 C 1436.83 1712.23 1440.04 1706.48 1442.55 1699.86 C 1455.22 1666.48 1451.01 1632.43 1436.59 1600.59 C 1452.73 1596.61 1468.72 1591.61 1485.01 1588.34 z"/>
<path transform="translate(0,0)" fill="rgb(246,243,232)" d="M 334.683 1572.44 C 334.641 1572.78 334.635 1573.12 334.557 1573.45 C 333.812 1576.6 321.562 1595.97 318.836 1602.05 C 300.46 1643.02 307.459 1686.86 328.073 1725.75 C 356.168 1778.77 407.498 1818.8 464.711 1835.84 A 143.558 143.558 0 0 0 499.506 1841.96 C 503.365 1847.26 505.675 1855.05 508.182 1861.15 C 450.097 1857.48 402.11 1834.92 359.701 1795.25 C 324.923 1762.71 297.653 1716.43 296.272 1667.85 C 295.223 1630.91 309.726 1598.91 334.683 1572.44 z"/>
<path transform="translate(0,0)" fill="rgb(205,81,70)" d="M 1476.99 261.005 C 1479.83 259.158 1481.82 257.536 1485.36 257.694 C 1494.06 260.78 1503.73 271.848 1507.55 279.964 C 1512.11 289.66 1511.91 300.129 1507.93 309.985 C 1502.1 324.431 1489.86 336.055 1475.43 341.736 A 61.9515 61.9515 0 0 1 1427.99 340.914 C 1415.3 335.299 1403.84 324.908 1398.95 311.685 C 1395.75 303.046 1395.9 293.145 1400.06 284.843 C 1403.61 277.758 1410.54 270.96 1418.21 268.618 C 1420.47 267.927 1422.28 267.76 1424.61 267.95 L 1425.29 268.94 C 1415.58 279.925 1407.82 290.043 1409.27 305.755 C 1409.51 308.298 1409.97 309.378 1411.86 311.02 C 1420.12 301.516 1403.25 274.512 1452.39 271.159 C 1461.32 270.55 1469.79 271.073 1478.01 274.912 L 1479.55 274.574 L 1479.06 273.366 A 107.596 107.596 0 0 0 1483.56 271.579 C 1476.85 267.222 1471.01 265.357 1463.23 264.15 C 1467.59 262.59 1472.38 261.505 1476.99 261.005 z"/>
<path transform="translate(0,0)" fill="rgb(50,26,29)" d="M 1463.23 264.15 C 1467.59 262.59 1472.38 261.505 1476.99 261.005 C 1487.49 267.027 1492.01 273.208 1497.5 283.835 C 1493.12 279.441 1488.93 274.779 1483.56 271.579 C 1476.85 267.222 1471.01 265.357 1463.23 264.15 z"/>
<path transform="translate(0,0)" fill="rgb(231,185,85)" d="M 1274.92 1616.48 C 1287.8 1616.32 1300.72 1616.77 1313.59 1616.98 A 101.709 101.709 0 0 1 1315.28 1623.46 C 1321.29 1650.41 1322.18 1691.36 1306.27 1715.35 C 1299.78 1725.13 1292.3 1728.74 1281.23 1730.88 C 1275.02 1731.33 1268.82 1732.17 1263.01 1729.47 C 1257.47 1723.34 1239.41 1664.53 1238.57 1654.3 C 1237.77 1644.46 1239.72 1632.31 1246.72 1624.86 C 1254.45 1616.64 1264.5 1616.74 1274.92 1616.48 z"/>
<path transform="translate(0,0)" fill="rgb(9,8,6)" d="M 1278.41 1663.33 C 1280.08 1655.34 1279.07 1642.46 1282.49 1635.55 C 1282.67 1635.79 1282.87 1636.01 1283.03 1636.28 C 1287.03 1643.15 1284.35 1655.2 1283.19 1662.64 L 1278.41 1663.33 z"/>
<path transform="translate(0,0)" fill="rgb(38,34,33)" d="M 1278.41 1663.33 L 1283.19 1662.64 C 1279.28 1678.06 1275.39 1691.34 1264.35 1703.26 C 1267.42 1689.49 1275.36 1677.3 1278.41 1663.33 z"/>
<path transform="translate(0,0)" fill="rgb(231,185,85)" d="M 1271.8 1079.88 C 1272.05 1081.43 1272.27 1082.91 1272.31 1084.48 C 1272.85 1109.02 1260.78 1137.3 1243.43 1154.52 C 1228.65 1169.2 1208.86 1176.45 1188.14 1176.25 C 1160.03 1175.97 1136.45 1162.25 1117.29 1142.64 C 1107.37 1130.12 1100.63 1117.67 1094.74 1102.82 C 1104.37 1106.61 1114 1109.89 1124.17 1111.95 C 1172.67 1121.75 1231.1 1106.99 1271.8 1079.88 z"/>
<path transform="translate(0,0)" fill="rgb(38,34,33)" d="M 1207.64 1114.13 C 1212.22 1113.85 1216.52 1114.05 1220.81 1115.89 C 1226.53 1118.34 1231.07 1122.87 1233.29 1128.72 C 1235.61 1134.86 1235.22 1141.93 1232.46 1147.86 C 1228.78 1155.73 1223.28 1158.78 1215.37 1161.45 C 1210.21 1161.76 1205.49 1161.78 1200.66 1159.65 C 1194.53 1156.95 1190.06 1151.88 1187.96 1145.54 C 1185.93 1139.42 1186.36 1132.39 1189.5 1126.71 C 1193.5 1119.47 1199.93 1116.26 1207.64 1114.13 z"/>
<path transform="translate(0,0)" fill="rgb(185,68,61)" d="M 595.442 915.032 C 699.902 993.026 867.267 998.697 991.47 980.624 C 1040.63 973.471 1091.61 961.732 1138.08 943.972 L 1142.75 953.055 C 1011.66 1008.1 842.433 1027.26 704.715 987.652 C 681.992 981.117 658.683 972.664 637.285 962.634 C 627.888 958.229 617.91 950.177 608.119 947.328 C 607.57 947.168 607.015 947.027 606.463 946.877 C 602.912 936.221 599.467 925.521 595.442 915.032 z"/>
<path transform="translate(0,0)" fill="rgb(205,81,70)" d="M 1307.61 835.997 C 1307.7 836.131 1307.8 836.259 1307.88 836.399 C 1310.5 840.986 1311.65 846.685 1313.06 851.742 C 1317.9 869.083 1319.08 882.627 1313.63 900.18 C 1301.04 940.716 1262.02 965.894 1226.23 984.593 C 1216.39 978.948 1205.39 975.987 1194.25 974.255 L 1191.57 973.778 L 1191.28 972.699 C 1192.92 971.345 1195.28 969.837 1196.07 967.814 C 1197.1 965.186 1181.19 930.882 1179.05 926 C 1229.47 903.363 1268.46 874.978 1307.61 835.997 z"/>
<path transform="translate(0,0)" fill="rgb(38,34,33)" d="M 1246.49 905.118 C 1250.5 904.735 1254.12 904.583 1258.03 905.772 C 1263.49 907.433 1268.13 910.995 1270.57 916.215 A 20.2953 20.2953 0 0 1 1271.11 932.193 C 1268.12 939.972 1262.29 943.81 1254.95 947.037 C 1251.15 947.836 1247.98 948.184 1244.17 947.204 C 1238.93 945.855 1234.86 943.321 1232.21 938.504 C 1229.36 933.335 1228.87 926.708 1230.69 921.126 C 1233.53 912.406 1238.75 909.033 1246.49 905.118 z"/>
<path transform="translate(0,0)" fill="rgb(231,185,85)" d="M 1248.16 910.999 C 1250.34 910.997 1252.69 910.928 1254.84 911.459 C 1258.52 912.371 1261.99 915.057 1263.62 918.506 C 1265.32 922.12 1265.01 926.233 1263.6 929.889 C 1261.44 935.492 1257.42 938.003 1252.22 940.486 C 1250.51 940.527 1248.7 940.598 1247.01 940.322 C 1243.52 939.751 1239.79 937.252 1237.97 934.22 C 1235.85 930.67 1235.99 926.452 1237.15 922.595 C 1238.95 916.596 1242.96 913.971 1248.16 910.999 z"/>
<path transform="translate(0,0)" fill="rgb(246,243,232)" d="M 1507.83 1737.67 C 1514.13 1738.84 1520.63 1739.84 1526.66 1742.08 C 1549.57 1750.56 1566.45 1773.9 1576.05 1795.45 C 1584.16 1813.64 1592.15 1841.33 1584.21 1860.73 C 1580.28 1870.32 1574.51 1874.04 1565.47 1877.92 A 111.799 111.799 0 0 0 1558.97 1802.94 C 1551.44 1786.82 1540.59 1775.08 1523.64 1769 A 136.527 136.527 0 0 1 1528.54 1775.45 C 1548.69 1804.08 1557.16 1844.85 1549.07 1879.08 C 1548.35 1882.09 1547.38 1882.7 1544.79 1884.21 C 1537.59 1885.93 1530.23 1887.07 1522.95 1888.36 C 1523.2 1871.93 1524.26 1856.04 1520.39 1839.88 C 1515.5 1819.47 1505.09 1804.99 1487.32 1793.98 C 1502.77 1826.17 1511.41 1857.52 1505.51 1893.28 C 1493.54 1895.21 1481.58 1897.25 1469.52 1898.61 C 1473.34 1872.22 1471.48 1850.49 1456.17 1828.1 C 1477.61 1800.07 1495.81 1771.05 1507.83 1737.67 z"/>
<path transform="translate(0,0)" fill="rgb(231,185,85)" d="M 1097.04 1073.41 L 1094.02 1071.4 C 1092.77 1068.92 1092.47 1067.64 1093.22 1064.88 C 1101.01 1036.26 1119.44 1007.86 1145.38 992.743 C 1161.92 983.1 1182.7 979.402 1201.31 984.468 C 1231.23 992.616 1253.68 1015.93 1268.86 1042.02 L 1260.14 1048.7 C 1260.66 1048.65 1261.19 1048.61 1261.71 1048.54 C 1263.67 1048.3 1265.21 1047.81 1267.04 1047.13 L 1263.96 1052.76 C 1233.73 1073.52 1197.82 1083.68 1161.36 1085.59 C 1153.35 1086.01 1144.47 1086.56 1136.55 1085.1 C 1124.04 1085.35 1107.13 1082.54 1096.08 1076.5 L 1097.04 1073.41 z"/>
<path transform="translate(0,0)" fill="rgb(9,8,6)" d="M 1097.04 1073.41 C 1111.14 1079.1 1125.36 1080.19 1140.37 1081.22 C 1140.9 1081.38 1141.42 1081.56 1141.96 1081.7 C 1143.78 1082.18 1144.48 1082.21 1146.25 1081.82 L 1147.7 1082.94 C 1142.77 1084.65 1137.65 1081.49 1133.45 1083.16 L 1133.83 1083.79 C 1137.55 1083.89 1141.26 1084 1144.98 1084.23 A 306.245 306.245 0 0 1 1136.55 1085.1 C 1124.04 1085.35 1107.13 1082.54 1096.08 1076.5 L 1097.04 1073.41 z"/>
<path transform="translate(0,0)" fill="rgb(38,34,33)" d="M 1260.14 1048.7 C 1260.66 1048.65 1261.19 1048.61 1261.71 1048.54 C 1263.67 1048.3 1265.21 1047.81 1267.04 1047.13 L 1263.96 1052.76 C 1233.73 1073.52 1197.82 1083.68 1161.36 1085.59 C 1153.35 1086.01 1144.47 1086.56 1136.55 1085.1 A 306.245 306.245 0 0 0 1144.98 1084.23 C 1141.26 1084 1137.55 1083.89 1133.83 1083.79 L 1133.45 1083.16 C 1137.65 1081.49 1142.77 1084.65 1147.7 1082.94 L 1146.25 1081.82 C 1144.48 1082.21 1143.78 1082.18 1141.96 1081.7 C 1141.42 1081.56 1140.9 1081.38 1140.37 1081.22 C 1173.43 1081.28 1207.98 1075.09 1238.04 1060.77 C 1245.6 1057.17 1252.73 1052.6 1260.14 1048.7 z"/>
<path transform="translate(0,0)" fill="rgb(205,81,70)" d="M 1021.25 101.371 C 1021.73 101.689 1022.22 101.994 1022.7 102.325 C 1063.65 130.806 1112.91 234.832 1121.69 284.277 C 1113.08 281.11 1104.55 278.182 1095.71 275.701 C 1059.76 265.488 1023.39 263.511 986.303 260.89 C 983.912 218.705 1002.35 139.113 1021.25 101.371 z"/>
<path transform="translate(0,0)" fill="rgb(231,185,85)" d="M 1305.1 1303.19 A 60.8829 60.8829 0 0 1 1343.41 1312.66 C 1363.98 1325.76 1392.43 1363.66 1403.51 1384.96 A 144.014 144.014 0 0 1 1416.6 1421.14 C 1419.96 1436.87 1422.32 1458.82 1412.82 1472.77 C 1403.31 1486.72 1382.33 1490.08 1366.92 1492.78 C 1349.63 1496.24 1331.16 1497.37 1313.57 1498.29 C 1314.7 1493.12 1315.31 1488.08 1315.24 1482.78 C 1314.7 1443.06 1285.01 1381.39 1256.64 1353.81 C 1269.22 1335.95 1284.63 1312.09 1305.1 1303.19 z"/>
<path transform="translate(0,0)" fill="rgb(38,34,33)" d="M 1351.3 1389.06 C 1356.07 1388.74 1360.01 1388.92 1364.46 1390.84 C 1375.07 1395.42 1382.6 1405.76 1386.32 1416.43 C 1389.41 1425.31 1390.07 1435.58 1385.52 1444.11 C 1381.95 1450.8 1377.35 1453.93 1370.24 1456.01 C 1364.73 1456.19 1359.23 1456.11 1354.01 1454.16 C 1345.49 1450.97 1338.94 1444.32 1335.38 1436.01 C 1331.3 1426.5 1330.63 1414.06 1334.67 1404.42 C 1338.06 1396.34 1343.49 1392.4 1351.3 1389.06 z"/>
<path transform="translate(0,0)" fill="rgb(231,185,85)" d="M 1354.4 1394.08 C 1358.53 1394.46 1362.09 1395.13 1365.67 1397.35 C 1374.56 1402.88 1380.69 1413.69 1382.92 1423.7 C 1384.42 1430.43 1384.28 1437.89 1380.3 1443.77 C 1377.18 1448.4 1373.95 1449.91 1368.6 1451.02 C 1363.94 1450.95 1359.23 1450.59 1354.93 1448.66 C 1347.85 1445.48 1342.5 1438.92 1339.91 1431.7 C 1337.02 1423.63 1336.54 1413.51 1340.39 1405.67 C 1343.56 1399.22 1347.83 1396.45 1354.4 1394.08 z"/>
<path transform="translate(0,0)" fill="rgb(218,136,123)" d="M 1310.76 267.994 C 1331.77 342.31 1338.84 439.352 1340.37 516.708 A 612.111 612.111 0 0 0 1294.87 492.631 C 1267.28 414.938 1232.42 363.846 1171.47 308.816 C 1214.38 285.775 1262.47 272.933 1310.76 267.994 z"/>
<path transform="translate(0,0)" fill="rgb(246,243,232)" d="M 1449.26 1235.52 C 1460.49 1241.94 1471.1 1253.04 1480.14 1262.17 C 1516.06 1298.44 1547.04 1340.55 1563.52 1389.39 C 1590.76 1470.12 1590.56 1535.83 1566.89 1617.42 A 522.964 522.964 0 0 1 1531.92 1708.07 C 1529.49 1712.81 1527.27 1720.92 1523.01 1724.15 C 1520.16 1726.3 1516.69 1725.36 1513.37 1725.18 C 1529.65 1681.96 1542.28 1637.9 1544.89 1591.55 C 1549.91 1502.52 1506.14 1391.33 1446.99 1325.25 C 1449.82 1295.48 1449.95 1265.39 1449.26 1235.52 z"/>
<path transform="translate(0,0)" fill="rgb(246,243,232)" d="M 1384.77 173.813 C 1393.34 191.607 1397.59 214.311 1392.18 233.717 C 1389.97 241.669 1385.34 247.849 1378 251.723 C 1367.03 257.515 1353.15 256.82 1341.54 253.338 C 1330.77 250.104 1320.84 243.418 1315.6 233.234 C 1308.73 219.853 1309.99 201.951 1314.38 187.948 C 1321.94 163.86 1341.38 146.841 1363.27 135.622 C 1401.47 116.055 1449.95 111.633 1490.81 125.261 C 1513.26 132.749 1533.68 146.431 1544.24 168.207 C 1550.61 181.338 1554.72 200.269 1549.39 214.361 C 1546.88 221.004 1542.11 225.258 1535.79 228.191 C 1532.03 229.568 1528.41 231.157 1524.76 232.786 C 1517.39 236.125 1506.34 233.435 1498.79 231.389 C 1501.26 214.746 1501.35 200.508 1495.23 184.619 C 1487.62 164.883 1475.52 155.489 1456.56 146.969 C 1465.06 156.01 1471.97 164.998 1477.39 176.22 C 1485.02 192.016 1489.86 212.221 1483.52 229.291 C 1480.65 237.001 1475.29 242.629 1467.78 245.942 C 1447.51 254.891 1424.05 250.308 1404.24 242.821 A 141.932 141.932 0 0 0 1404.84 218.151 C 1403.6 200.77 1398.17 185.524 1384.77 173.813 z"/>
<path transform="translate(0,0)" fill="rgb(205,81,70)" d="M 1445.34 212.736 C 1448.36 212.527 1451.67 212.61 1454.53 213.714 C 1458.58 215.274 1461.99 218.49 1463.65 222.509 C 1465.63 227.32 1465.08 232.657 1462.9 237.3 C 1460.34 242.765 1456.01 244.727 1450.63 246.778 C 1445.42 247.403 1440.96 245.929 1436.03 244.518 L 1435.58 243.709 C 1435.34 243.257 1435.1 242.8 1434.85 242.351 C 1433.93 240.718 1432.92 239.115 1432.25 237.357 C 1430.48 232.716 1430.63 226.419 1432.98 222.006 C 1435.74 216.825 1439.98 214.555 1445.34 212.736 z"/>
<path transform="translate(0,0)" fill="rgb(205,81,70)" d="M 1340.52 215.864 C 1342.91 215.662 1345.33 215.523 1347.72 215.781 C 1353.67 216.425 1359.46 220.833 1362.97 225.491 C 1365.98 229.481 1367.76 234.634 1366.69 239.627 C 1365.56 244.892 1362.15 248.133 1357.82 250.97 C 1354.96 251.54 1352.03 252.182 1349.11 251.745 C 1343.45 250.898 1337.88 246.889 1334.65 242.261 C 1331.65 237.944 1330.17 232.619 1331.43 227.433 C 1332.78 221.878 1335.84 218.857 1340.52 215.864 z"/>
<path transform="translate(0,0)" fill="rgb(50,26,29)" d="M 1524.76 232.786 C 1522.19 232.162 1518.68 231.628 1516.52 230.035 C 1513.69 227.937 1512.05 225.322 1511.36 221.863 C 1510.03 215.167 1512.63 207.445 1516.45 201.969 C 1519.45 197.66 1523.73 193.819 1529.12 193.063 C 1533.02 192.515 1537 193.879 1539.97 196.423 C 1543.08 199.085 1544.29 202.895 1544.48 206.877 C 1544.93 216.27 1541.9 221.411 1535.79 228.191 C 1532.03 229.568 1528.41 231.157 1524.76 232.786 z"/>
<path transform="translate(0,0)" fill="rgb(205,81,70)" d="M 1525.52 199.074 C 1528.26 198.929 1532.2 198.478 1534.72 199.759 C 1537.09 200.961 1539 203.565 1539.98 205.974 C 1541.74 210.327 1541.13 215.076 1539.23 219.28 C 1537 224.219 1534.06 226.17 1529.16 228.146 C 1525.2 228.271 1520.81 228.702 1517.83 225.517 C 1515.39 222.914 1514.73 218.923 1515.23 215.497 C 1516.19 208.848 1520.13 202.912 1525.52 199.074 z"/>
<path transform="translate(0,0)" fill="rgb(231,185,85)" d="M 1428.3 1602.24 L 1429.79 1602.63 C 1431.63 1605.32 1432.83 1607.95 1433.98 1610.98 C 1444.29 1638.18 1446.52 1672.36 1434.14 1699.37 C 1418.14 1734.27 1370.72 1731.88 1338.87 1727.69 C 1332.92 1726.9 1320.85 1723.51 1315.23 1725.62 L 1314.54 1727.62 C 1314.92 1728.72 1315.3 1730.06 1315.94 1731.06 C 1323.46 1742.71 1359 1743.12 1372.08 1746.11 C 1381.08 1748.17 1388.45 1754.76 1393.21 1762.47 C 1400.63 1774.5 1402.07 1792.25 1398.69 1805.9 C 1393.58 1826.53 1365.87 1842.7 1348.95 1852.86 C 1336.95 1859.5 1324.89 1865.81 1312.12 1870.86 C 1300.04 1826.42 1279.51 1784.89 1265.73 1740.87 C 1272.25 1742.17 1278.67 1742.46 1285.2 1741.06 C 1297.11 1738.5 1307.03 1731.57 1313.47 1721.22 C 1331.83 1691.7 1328.57 1648.73 1320.55 1616.59 A 766.065 766.065 0 0 0 1428.3 1602.24 z"/>
<path transform="translate(0,0)" fill="rgb(65,55,59)" d="M 1312.69 1795.31 C 1316.02 1786.56 1321.64 1778.61 1330.42 1774.69 A 24.5317 24.5317 0 0 1 1350.51 1774.77 C 1359.48 1778.76 1365.55 1786.97 1368.77 1796.04 C 1370.05 1799.67 1370.94 1803.23 1370.96 1807.09 L 1369.82 1808.35 C 1361.31 1798.57 1358.93 1777.65 1341.93 1777.02 C 1336.45 1776.82 1329.52 1780.17 1325.65 1783.93 C 1322.13 1787.36 1320.74 1792.61 1317.53 1795.89 L 1316.91 1793.86 C 1318.24 1790.38 1319.39 1787.82 1322.03 1785.13 C 1322.24 1784.91 1322.46 1784.7 1322.68 1784.49 L 1322.45 1782.49 L 1323.26 1783.64 L 1323.55 1782.25 C 1319.68 1785.85 1317.68 1791.06 1313.8 1794.4 C 1313.43 1794.71 1313.06 1795.01 1312.69 1795.31 z"/>
<path transform="translate(0,0)" fill="rgb(38,34,33)" d="M 1312.69 1795.31 C 1313.06 1795.01 1313.43 1794.71 1313.8 1794.4 C 1317.68 1791.06 1319.68 1785.85 1323.55 1782.25 L 1323.26 1783.64 L 1322.45 1782.49 L 1322.68 1784.49 C 1322.46 1784.7 1322.24 1784.91 1322.03 1785.13 C 1319.39 1787.82 1318.24 1790.38 1316.91 1793.86 L 1317.53 1795.89 C 1315.56 1803.9 1314.28 1811.68 1315.2 1819.96 C 1316.06 1827.68 1320.22 1835.31 1326.44 1839.99 C 1331.47 1843.78 1337.86 1845.6 1344.12 1844.59 C 1352.23 1843.28 1357.17 1838.08 1361.82 1831.74 C 1362.89 1830.29 1362.15 1830.75 1363.96 1830.43 C 1364.06 1831.47 1364.23 1832.45 1363.99 1833.5 C 1362.8 1838.73 1354.89 1844.41 1350.35 1846.46 A 27.9465 27.9465 0 0 1 1328.23 1846.96 A 28.3408 28.3408 0 0 1 1312.63 1830.99 C 1308.12 1819.1 1307.72 1807.13 1312.69 1795.31 z"/>
<path transform="translate(0,0)" fill="rgb(38,34,33)" d="M 1380.36 1625.15 C 1386.68 1624.64 1392.14 1625.33 1397.64 1628.73 C 1407.64 1634.93 1413.91 1646.8 1416.59 1657.99 C 1419.37 1669.61 1418.69 1683.6 1411.95 1693.83 C 1407.24 1700.98 1401.45 1704.06 1393.26 1705.81 C 1387.7 1706.11 1382.42 1706.29 1377.1 1704.38 C 1369.49 1701.64 1363.75 1695.82 1360.36 1688.56 C 1354.71 1676.49 1355.04 1659.28 1359.53 1646.86 C 1363.48 1635.93 1370.05 1629.81 1380.36 1625.15 z"/>
<path transform="translate(0,0)" fill="rgb(231,185,85)" d="M 1380.19 1631.03 C 1383.35 1630.91 1386.63 1630.96 1389.65 1631.97 C 1398.73 1635.01 1405.4 1643.63 1409.13 1652.09 C 1413.75 1662.56 1414.78 1674.89 1410.39 1685.63 C 1407.04 1693.83 1402.42 1698.01 1394.41 1701.4 C 1390.18 1702.13 1385.86 1702.25 1381.67 1701.15 C 1374.81 1699.33 1369.47 1694.66 1366.15 1688.46 C 1360.31 1677.56 1360.52 1662.14 1364.19 1650.45 C 1367.11 1641.15 1371.68 1635.57 1380.19 1631.03 z"/>
<path transform="translate(0,0)" fill="rgb(205,81,70)" d="M 606.463 946.877 C 607.015 947.027 607.57 947.168 608.119 947.328 C 617.91 950.177 627.888 958.229 637.285 962.634 C 658.683 972.664 681.992 981.117 704.715 987.652 C 842.433 1027.26 1011.66 1008.1 1142.75 953.055 L 1155.09 977.722 C 1123.52 992.008 1105.41 1014.78 1088.94 1044.29 C 1084.33 1045.97 1079.62 1047.32 1074.9 1048.67 C 1049.09 1056.03 1022.49 1060.4 995.926 1063.94 C 904.893 1076.04 814.444 1070.98 726.054 1045.57 C 701.14 1038.41 676.185 1030.61 653.443 1017.95 C 643.9 1012.63 632.289 1007.09 624.66 999.2 C 615.917 990.162 610.157 959.865 606.463 946.877 z"/>
<path transform="translate(0,0)" fill="rgb(56,43,46)" d="M 944.488 1009.04 C 949.318 1008.7 954.123 1009.12 958.59 1011.11 C 964.297 1013.65 968.936 1018.44 971.017 1024.35 C 973.026 1030.05 972.657 1036.58 969.757 1041.92 C 966.151 1048.56 960.823 1051.19 953.792 1053.05 C 948.85 1053.17 943.869 1053.39 939.139 1051.72 C 933.427 1049.69 928.419 1045.64 925.981 1040.01 C 923.881 1035.16 924.012 1029.52 926.011 1024.67 C 929.519 1016.14 936.391 1012.26 944.488 1009.04 z"/>
<path transform="translate(0,0)" fill="rgb(231,185,85)" d="M 946.306 1017.22 C 948.977 1017.18 951.858 1017.59 954.406 1018.42 C 958.013 1019.59 961.351 1022.6 962.962 1026.02 C 964.602 1029.5 964.561 1033.38 963.115 1036.92 C 960.958 1042.2 956.561 1044.46 951.54 1046.46 C 947.915 1046.33 944.303 1046.27 940.962 1044.7 C 937.008 1042.83 933.669 1039.44 932.39 1035.2 A 11.9036 11.9036 0 0 1 933.461 1025.82 C 936.416 1020.74 940.946 1018.89 946.306 1017.22 z"/>
<path transform="translate(0,0)" fill="rgb(205,81,70)" d="M 622.951 175.745 C 623.244 175.781 623.538 175.806 623.829 175.854 C 686.042 185.984 767.013 251.335 802.628 303.609 C 783.307 315.166 763.338 325.485 744.42 337.757 C 725.313 350.152 707.755 364.687 690.614 379.635 C 660.76 403.424 635.992 433.889 609.456 461.138 C 580.652 377.691 588.954 256.298 622.951 175.745 z"/>
<path transform="translate(0,0)" fill="rgb(205,81,70)" d="M 334.683 1572.44 C 344.451 1559.42 367.379 1549.24 383.365 1546.87 C 401.937 1544.13 418.336 1548.92 434.85 1557.14 C 441.255 1638.74 453.939 1714.75 480.357 1792.58 C 485.893 1808.89 491.16 1826.84 499.506 1841.96 A 143.558 143.558 0 0 1 464.711 1835.84 C 407.498 1818.8 356.168 1778.77 328.073 1725.75 C 307.459 1686.86 300.46 1643.02 318.836 1602.05 C 321.562 1595.97 333.812 1576.6 334.557 1573.45 C 334.635 1573.12 334.641 1572.78 334.683 1572.44 z"/>
<path transform="translate(0,0)" fill="rgb(231,185,85)" d="M 1295.85 1235.98 C 1303.24 1237.85 1310.49 1240.88 1317.43 1244 A 354.604 354.604 0 0 1 1502.2 1442.71 C 1542.27 1548.84 1536.26 1648.45 1489.6 1751.37 C 1469.2 1796.38 1422.91 1849.59 1382.32 1878.35 A 302.524 302.524 0 0 1 1314 1914 C 1315.6 1903.42 1316.06 1893.56 1315.27 1882.88 C 1322.53 1879.02 1330.83 1876.42 1338.39 1873.12 C 1356.99 1864.98 1372.98 1853.75 1388.36 1840.58 C 1427.07 1807.42 1449.37 1771.09 1471.09 1725.9 C 1476.85 1713.9 1482.96 1701.88 1487.82 1689.47 C 1495.75 1669.23 1511.96 1608.02 1502.97 1588.76 C 1501.08 1584.73 1497.14 1579.13 1492.64 1577.81 C 1479.7 1574.04 1439.43 1587.26 1424.33 1590.3 C 1400.68 1595.05 1377.13 1598.41 1353.13 1600.85 A 622.128 622.128 0 0 1 1318.27 1603.51 C 1299.84 1604.31 1265.32 1601.24 1249.78 1610.37 C 1239.02 1616.7 1235 1628.37 1232.12 1639.75 L 1210.07 1567.33 C 1228.09 1571.42 1248.09 1571.74 1266.57 1571.94 A 776.195 776.195 0 0 0 1418.15 1559.48 C 1434.15 1556.72 1484.49 1548.9 1492.51 1537.52 C 1492.71 1535.22 1493.01 1533.61 1491.44 1531.62 C 1486.9 1525.88 1469.52 1532.7 1463.25 1534.44 C 1403.45 1551.08 1342.02 1556.25 1280.16 1556.18 C 1255.11 1556.16 1229.03 1555.71 1204.45 1550.6 C 1203.03 1545.75 1201.49 1540.92 1200.31 1536 C 1192.47 1503.22 1218.17 1427.95 1232.27 1396.91 C 1238.06 1384.16 1245.09 1372.36 1252.53 1360.55 C 1268.53 1378.7 1282.92 1400.83 1292.87 1422.77 C 1300.51 1439.61 1313.59 1472.86 1306.05 1491.22 C 1303.08 1498.44 1296.96 1504.01 1289.78 1506.89 C 1278.43 1511.46 1264.69 1510.26 1253.77 1505.05 C 1241.47 1499.17 1235.52 1490.41 1230.92 1478.12 L 1229.8 1478.03 C 1226.78 1472.87 1227.32 1457.33 1228.95 1451.57 C 1229.53 1449.51 1230.53 1447.7 1231.48 1445.81 A 121.788 121.788 0 0 0 1234.89 1438.35 L 1234.43 1437.29 C 1233.14 1438.62 1232.62 1439.71 1231.92 1441.37 C 1231.19 1443.1 1230.89 1443.58 1229.56 1445 C 1224.72 1450.18 1225.17 1462 1225.42 1468.87 C 1225.6 1473.63 1226.1 1477.92 1227.41 1482.52 L 1228.49 1486.44 C 1227.2 1487.15 1227.77 1487.05 1226.87 1487.11 C 1230.19 1497.48 1237.72 1506.78 1246.73 1512.78 C 1254.68 1518.08 1263.98 1520.72 1273.52 1520.78 C 1287.7 1520.87 1292.53 1514.2 1303.1 1512.99 C 1325.09 1510.46 1346.81 1511.15 1368.8 1506.99 C 1386.94 1503.56 1408.21 1497.05 1419.12 1481.02 C 1426.5 1485.07 1434.09 1488.75 1442.41 1490.36 C 1452.01 1492.23 1465.3 1491.25 1473.42 1485.27 C 1478.07 1481.85 1480.66 1476.74 1481.54 1471.11 C 1485.61 1445.28 1461.86 1406.78 1447.27 1386.33 C 1419.28 1347.1 1372.38 1299.24 1323.07 1291.52 C 1309.59 1289.41 1297.69 1292.36 1286.69 1300.39 C 1276.38 1307.91 1267.97 1318.22 1260.08 1328.13 C 1221.68 1376.36 1198.46 1437.53 1189.19 1498.16 C 1180.12 1477.39 1173.35 1455 1165.96 1433.55 C 1184.87 1374 1218.11 1316.28 1259.49 1269.46 C 1270.2 1257.35 1282.09 1244.64 1295.85 1235.98 z"/>
<path transform="translate(0,0)" fill="rgb(38,34,33)" d="M 1226.87 1487.11 C 1222.03 1477.43 1222.5 1463.07 1225.1 1452.8 C 1227.39 1443.76 1232.15 1433.88 1240.61 1429.14 C 1244.67 1426.86 1249.29 1426.16 1253.78 1427.52 C 1262 1430.02 1266.78 1437.93 1270.82 1444.91 C 1272.41 1448.67 1273.94 1452.42 1275.04 1456.36 C 1276.58 1461.9 1279.43 1474.58 1276.56 1479.63 C 1272.37 1473.04 1272.05 1463.03 1269.82 1455.53 C 1268.75 1451.93 1267.07 1448.49 1265.82 1444.94 C 1261.41 1439.8 1255.84 1432.45 1248.41 1432.02 C 1244.55 1431.8 1241.62 1433.24 1239.01 1435.97 C 1231.29 1444.09 1229.34 1458.16 1230.04 1468.99 A 170.809 170.809 0 0 0 1230.92 1478.12 L 1229.8 1478.03 C 1226.78 1472.87 1227.32 1457.33 1228.95 1451.57 C 1229.53 1449.51 1230.53 1447.7 1231.48 1445.81 A 121.788 121.788 0 0 0 1234.89 1438.35 L 1234.43 1437.29 C 1233.14 1438.62 1232.62 1439.71 1231.92 1441.37 C 1231.19 1443.1 1230.89 1443.58 1229.56 1445 C 1224.72 1450.18 1225.17 1462 1225.42 1468.87 C 1225.6 1473.63 1226.1 1477.92 1227.41 1482.52 L 1228.49 1486.44 C 1227.2 1487.15 1227.77 1487.05 1226.87 1487.11 z"/>
<path transform="translate(0,0)" fill="rgb(246,243,232)" d="M 1538.27 248.298 L 1539.03 248.347 C 1542.55 251.976 1544.81 263.757 1546.42 268.865 C 1556.67 301.494 1564.2 334.623 1572.06 367.892 A 2344.55 2344.55 0 0 1 1609.66 560.412 C 1615.36 599.48 1625.69 657.229 1619.48 695.33 C 1608.58 762.181 1482.17 918.518 1434.42 978.095 C 1422.99 992.351 1410.47 1005.59 1399.53 1020.25 C 1388.63 998.225 1376.57 976.873 1366.34 954.485 C 1378.52 965.221 1391.48 971.73 1406.71 977.031 C 1393.88 967.373 1377.68 961.373 1365.72 950.942 C 1358.03 944.242 1351.25 928.728 1345.23 919.65 C 1340.14 911.972 1334.64 904.848 1328.65 897.854 C 1329.6 893.374 1330.03 888.784 1330.59 884.241 L 1331.68 885.944 C 1332.77 887.695 1333.83 889.337 1335.15 890.94 C 1346.77 905.067 1362.55 916.498 1381.04 918.311 C 1361.02 909.85 1345.98 897.677 1331.09 881.875 C 1330.58 869.684 1328.36 858.468 1325.5 846.655 C 1333.03 852.34 1341.43 856.515 1349.91 860.585 C 1342.01 853.632 1333.5 848.369 1324.26 843.386 C 1324.2 842.891 1324 841.116 1323.83 840.702 C 1321.55 835.143 1319.92 829.456 1318.19 823.65 C 1328.82 810.699 1340 798.266 1350.23 784.983 C 1375.99 749.94 1397.25 715.129 1406.7 672.096 C 1417.79 673.181 1481.51 682.98 1487.33 679.801 L 1486.59 678.155 C 1468.45 665.695 1430.01 661.481 1408.06 659.747 A 1123.37 1123.37 0 0 0 1404.57 614.295 A 903.806 903.806 0 0 1 1470.98 602.331 C 1477.86 601.382 1490.82 602.346 1496.43 598.16 L 1496.51 596.452 C 1496.22 596.239 1495.95 595.984 1495.64 595.813 C 1492.73 594.26 1487.08 594.637 1483.68 594.487 A 288.357 288.357 0 0 0 1401.46 602.7 C 1395.37 585.347 1387.54 569.539 1377.96 553.882 C 1401.8 536.176 1432 528.994 1454.48 511.409 C 1424.9 517.506 1397.72 530.446 1371.21 544.466 A 1218.38 1218.38 0 0 0 1356.93 528.553 C 1358.34 438.926 1346.69 354.302 1329.26 266.743 C 1344.06 272.041 1364.49 277.741 1379.93 271.242 C 1386.04 268.669 1391.43 263.593 1397.82 261.805 C 1400.93 260.936 1402.97 261.443 1405.73 263.118 C 1403.35 275.342 1387.77 278.885 1390.57 304.457 C 1392.12 318.703 1400.6 331.725 1411.62 340.604 C 1426.59 352.673 1445.1 357.279 1464.07 354.973 C 1480.66 352.957 1496.1 343.324 1506.2 330.139 C 1515.47 318.046 1519.71 303.124 1517.54 287.957 C 1514.8 268.73 1502.98 259.755 1488.57 249.048 C 1505.7 251.596 1521.22 251.708 1538.27 248.298 z"/>
<path transform="translate(0,0)" fill="rgb(218,136,123)" d="M 538.234 857.318 A 309.169 309.169 0 0 0 558.854 881.368 C 565.614 888.614 574.096 895.816 579.073 904.399 C 584.355 913.509 586.228 925.943 588.84 936.144 C 595.075 960.506 600.163 987.452 610.448 1010.36 C 605.256 1027.11 596.609 1043.15 588.734 1058.77 C 571.962 1092.04 553.911 1124.19 534.877 1156.22 C 525.522 1171.97 515.84 1187.8 507.403 1204.05 A 647.969 647.969 0 0 0 435.505 1460.01 C 433.923 1485.6 434.77 1511.17 434.866 1536.79 C 406.916 1526.76 381.925 1523.69 354.342 1536.65 C 323.936 1550.93 298.881 1580.07 287.604 1611.56 C 284.36 1620.61 282.272 1629.9 280.309 1639.3 C 228.477 1566.24 201.481 1471.17 202.326 1381.86 C 203.332 1275.49 231.369 1194.61 292.141 1107.63 C 307.248 1086.01 323.028 1064.57 340.846 1045.08 C 402.136 978.033 473.508 920.845 538.234 857.318 z"/>
<path transform="translate(0,0)" fill="rgb(246,243,232)" d="M 585.81 470.974 C 591.571 479.45 595.182 489.517 601.191 497.527 L 602.206 497.243 C 603.807 496.793 603.029 497.216 604.443 495.519 C 610.895 487.773 615.653 478.074 621.639 469.847 A 418.293 418.293 0 0 1 677.094 407.202 C 705.2 381.281 735.88 356.774 768.885 337.319 A 433.112 433.112 0 0 1 1053.01 282.676 C 1081 286.885 1122.61 295.629 1146.84 309.185 C 1159.04 316.013 1169.43 325.215 1178.31 335.969 C 1170.57 334.937 1165.13 335.315 1158.81 340.365 C 1146.32 350.338 1142.52 371.817 1141.35 386.876 C 1136.68 447.443 1167.68 552.766 1207.73 598.762 A 304.858 304.858 0 0 0 1212.92 604.555 C 1205.43 593.162 1197.7 581.303 1191.52 569.153 C 1165.9 518.763 1141.13 439.343 1152.68 383.43 C 1154.82 373.063 1159.35 358.082 1168.76 352.237 C 1173.26 349.444 1178.34 349.405 1183.3 350.894 C 1212.08 359.53 1243.27 416.059 1256.44 442.261 C 1272.75 474.713 1293.52 513.502 1281.02 550.366 C 1273.49 572.574 1258.58 587.418 1241.79 603.003 C 1265.53 591.275 1287.09 567.976 1295.6 542.684 C 1299.04 532.463 1299.12 523.335 1297.2 512.736 C 1318.34 523.878 1339.38 536.037 1353.79 555.605 C 1324.58 572.608 1294.46 595.151 1272.11 620.56 C 1287.46 610.678 1301.86 599.388 1317 589.183 C 1330.91 579.809 1345.58 571.604 1359.68 562.55 C 1370.04 575.304 1379.32 590.098 1383.75 606.047 C 1357.05 613.334 1322.19 622.473 1299.47 639.073 C 1328.47 630.536 1357.07 623.155 1386.67 617.022 C 1389.76 630.624 1390.82 644.859 1390.4 658.794 C 1369.99 658.253 1350.16 658.596 1329.94 661.841 C 1333.78 662.263 1336.19 662.371 1339.15 665.217 C 1339.3 665.371 1339.38 665.59 1339.5 665.776 C 1334.22 665.657 1328.97 665.37 1323.73 666.13 C 1345.66 668.46 1367.89 666.709 1389.79 670.091 C 1374.04 735.219 1320.96 803.608 1270.29 846.853 C 1251.59 862.814 1230.67 877.133 1209.67 889.899 C 1080.72 968.304 871.944 990.469 726.612 954.481 C 707.996 949.871 688.531 944.717 670.873 937.171 C 683.467 926.883 697.284 917.807 710.479 908.277 A 1643.83 1643.83 0 0 1 821.103 833.915 C 839.625 822.413 858.863 812.073 876.985 799.923 C 822.22 815.73 736.075 869.298 692.445 906.291 C 682.151 915.02 672.857 924.653 663.939 934.765 C 597.44 903.758 546.714 860.069 521.049 789.466 C 520.248 787.262 519.453 785.067 518.801 782.812 C 521.921 781.803 524.392 780.305 527.585 781.236 L 528.237 782 C 529.838 780.065 530.078 780.494 532.435 780.098 L 531.431 778.425 C 532.637 776.386 532.853 776.397 534.81 775.197 C 538.552 772.902 546.772 768.184 551.071 769.236 C 552.419 767.604 553.463 767.239 555.339 766.343 C 563.862 761.36 574.972 757.759 584.323 754.558 L 595.038 768.686 C 593.495 763.299 591.187 758.155 589.058 752.978 C 663.061 727.189 745.833 716.675 824.021 719.451 C 843.725 720.151 863.415 722.462 883.042 724.286 C 850.978 712.644 814.055 710.066 780.223 709.826 C 710.202 709.329 644.614 718.826 578.449 742.132 C 566.591 730.468 555.254 718.661 544.714 705.78 C 538.61 698.32 533.15 690.218 526.866 682.94 L 525.715 681.618 C 518.282 669.582 510.679 657.747 504.361 645.069 C 498.937 632.904 502.785 618.381 504.717 605.707 C 510.283 615.352 514.958 625.749 521.556 634.722 L 522.945 633.952 C 534.095 648.869 542.959 666.905 556.769 679.544 L 557.256 679.261 L 554.828 675.849 L 555.699 674.72 C 549.001 664.257 541.036 654.455 534.06 644.135 C 523.627 628.703 514.546 612.193 506.36 595.468 A 394.58 394.58 0 0 1 514.619 567.925 C 532.135 601.439 555.282 639.685 586.495 661.591 C 576.954 647.108 564.689 634.689 554.518 620.65 C 539.981 600.583 528.638 579.69 515.987 558.546 C 521.76 548.378 522.251 540.737 522.302 529.29 A 57.8963 57.8963 0 0 0 524.01 533.333 C 531.964 550.665 567.141 605.336 583.879 611.593 C 583.525 607.929 550.453 566.972 544.692 558.254 C 535.473 544.304 528.406 529.543 521.141 514.527 C 521.633 508.116 520.774 478.005 523.326 474.331 L 525.682 469.732 C 520.287 460.271 523.791 435.59 526.538 424.916 L 530.834 421.454 L 526.95 413.648 C 528.713 402.605 530.2 391.432 532.834 380.558 C 543.256 400.397 553.315 420.343 565.478 439.195 C 571.713 450.037 578.271 460.977 585.81 470.974 z"/>
<path transform="translate(0,0)" fill="rgb(65,55,59)" d="M 551.071 769.236 C 552.419 767.604 553.463 767.239 555.339 766.343 L 562.259 773.884 L 558.629 777.159 L 551.071 769.236 z"/>
<path transform="translate(0,0)" fill="rgb(65,55,59)" d="M 1306.65 665.417 C 1314.4 663.841 1322.07 662.716 1329.94 661.841 C 1333.78 662.263 1336.19 662.371 1339.15 665.217 C 1339.3 665.371 1339.38 665.59 1339.5 665.776 C 1334.22 665.657 1328.97 665.37 1323.73 666.13 C 1317.96 666.236 1312.39 665.921 1306.65 665.417 z"/>
<path transform="translate(0,0)" fill="rgb(65,55,59)" d="M 562.259 773.884 C 573.956 786.101 588.687 798.639 597.957 812.732 C 582.808 803.088 570.716 790.279 558.629 777.159 L 562.259 773.884 z"/>
<path transform="translate(0,0)" fill="rgb(65,55,59)" d="M 521.556 634.722 L 522.945 633.952 C 534.095 648.869 542.959 666.905 556.769 679.544 L 557.256 679.261 L 554.828 675.849 L 555.699 674.72 C 560.249 679.025 579.954 700.358 582.45 704.593 C 583.467 706.32 584.203 707.003 583.67 708.964 C 567.033 701.173 530.743 652.344 521.556 634.722 z"/>
<path transform="translate(0,0)" fill="rgb(65,55,59)" d="M 528.237 782 C 529.838 780.065 530.078 780.494 532.435 780.098 C 553.389 804.827 574.245 830.337 598.878 851.562 C 597.104 852.853 595.638 854.007 593.576 854.817 C 573.086 835.797 542.808 805.874 528.237 782 z"/>
<path transform="translate(0,0)" fill="rgb(65,55,59)" d="M 525.682 469.732 C 536.978 490.744 547.518 512.151 561.526 531.546 C 570.851 544.458 584.072 556.204 591.845 569.887 C 567.491 555.386 548.702 524.666 536.201 499.944 C 532.147 491.928 528.534 481.53 523.326 474.331 L 525.682 469.732 z"/>
<path transform="translate(0,0)" fill="rgb(65,55,59)" d="M 530.834 421.454 C 539.629 440.869 550.326 458.775 561.764 476.714 C 571.343 491.738 588.475 512.184 593.026 529.001 C 574.25 506.594 556.882 480.884 542.533 455.441 C 536.888 445.431 532.153 434.943 526.538 424.916 L 530.834 421.454 z"/>
<path transform="translate(0,0)" fill="rgb(65,55,59)" d="M 1066.35 307.151 C 1072.4 306.713 1078.41 306.259 1084.19 308.547 C 1087.54 309.875 1090.75 312.294 1091.87 315.871 C 1092.7 318.529 1092.38 321.361 1091.24 323.866 C 1087.31 332.545 1077.59 335.893 1069.36 339.061 C 1064.6 340.642 1054.05 344.99 1049.26 343.874 C 1046.33 343.193 1045.88 342.384 1044.2 340.114 C 1043.18 334.683 1045.34 329.304 1047.71 324.465 C 1052.14 315.379 1056.85 310.491 1066.35 307.151 z"/>
<path transform="translate(0,0)" fill="rgb(65,55,59)" d="M 861.841 326.204 C 866.607 326.064 871.45 325.829 876.154 326.758 C 884.411 328.389 898.186 333.319 902.517 340.761 C 903.889 343.12 903.672 344.283 902.944 346.791 C 897.247 352.413 887.708 352.562 880.108 353.726 C 869.257 355.393 852.952 357.916 842.539 353.818 C 839.187 352.498 837.596 350.821 836.213 347.561 C 836.11 344.852 836.277 343.158 837.745 340.814 C 842.518 333.193 853.431 328.012 861.841 326.204 z"/>
<path transform="translate(0,0)" fill="rgb(56,43,46)" d="M 598.878 851.562 C 650.361 802.828 763.227 770.596 832.555 760.995 C 842.561 759.609 860.061 756.582 869.526 757.058 C 870.501 757.107 870.848 757.293 871.665 757.602 C 866.848 761.066 842.598 765.096 835.159 766.986 A 1172.6 1172.6 0 0 0 744.157 794.203 A 640.375 640.375 0 0 0 662.215 828.473 C 639.507 840.004 617.632 853.184 594.65 864.182 L 592.861 863.887 C 592.254 860.98 592.15 859.934 593.01 857.033 C 593.227 856.302 593.388 855.556 593.576 854.817 C 595.638 854.007 597.104 852.853 598.878 851.562 z"/>
<path transform="translate(0,0)" fill="rgb(56,43,46)" d="M 1181.63 606.387 C 1190.75 605.462 1204.72 604.518 1212.44 610.238 C 1215.62 612.591 1217.53 616.007 1218 619.922 C 1219.97 636.609 1204.06 659.871 1194.4 672.387 C 1196.95 683.487 1197.85 694.069 1197.95 705.445 C 1207.4 711.578 1216.77 717.867 1227.56 721.411 C 1239.84 725.443 1254.48 726.928 1266.24 720.659 C 1276.53 715.175 1283.13 704.581 1286.1 693.557 C 1290.68 676.571 1287.7 658.722 1274.42 646.417 C 1270.14 642.445 1263.99 638.351 1261.06 633.333 L 1262.75 635.595 L 1264.06 634.842 C 1278.36 644.524 1289.42 652.427 1293.53 670.085 C 1297.2 685.809 1294.39 704.321 1285.45 717.9 C 1278.55 728.379 1267.31 734.513 1255.1 736.562 C 1233.26 740.229 1213.27 731.948 1195.6 719.821 C 1190.94 735.754 1184.3 748.141 1172.38 759.789 C 1153.68 775.924 1134 785.529 1108.79 784.133 C 1093.38 783.281 1077.36 777.365 1067.09 765.438 A 37.6661 37.6661 0 0 1 1058.01 736.277 C 1059.08 727.051 1065.32 712.578 1073.03 706.68 C 1074.17 708.094 1073.31 708.575 1072.58 710.051 C 1066.96 721.322 1059.76 730.834 1062.67 744.39 C 1064.52 753.033 1070.72 759.789 1077.97 764.483 C 1092.14 773.669 1110.56 776.22 1126.89 772.34 C 1146.36 767.713 1164.84 753.129 1175.13 736.17 C 1187.16 716.335 1188.08 697.015 1182.48 674.828 C 1166.99 669.314 1148.93 663.94 1135.31 654.628 C 1130.87 651.591 1126.11 647.613 1125.29 641.953 C 1124.71 637.955 1126.64 634.035 1129.07 630.982 C 1141.06 615.931 1163.2 608.349 1181.63 606.387 z"/>
<path transform="translate(0,0)" fill="rgb(205,81,70)" d="M 1187.67 612.434 C 1192.71 611.952 1197.99 612.384 1202.98 613.126 C 1206.66 613.674 1209.51 614.103 1211.82 617.22 C 1211.07 629.291 1198.59 654.28 1189.48 662.481 C 1183.24 664.736 1171.12 659.147 1164.72 657.054 C 1152.87 652.458 1141.07 648.008 1130.45 640.89 C 1131.46 639.599 1132.49 638.355 1133.57 637.123 C 1148.46 620.144 1165.53 613.916 1187.67 612.434 z"/>
<path transform="translate(0,0)" fill="rgb(65,55,59)" d="M 1175.46 482.7 C 1168.33 462.614 1156.55 410.365 1165.13 391.677 C 1166.55 388.584 1168.8 385.187 1172.08 383.881 C 1175.53 382.505 1179.26 383.691 1182.35 385.405 C 1211.22 401.442 1240.16 472.216 1248.44 504.968 C 1252.41 520.678 1259.17 549.778 1249.98 564.518 C 1247.86 567.913 1245.23 569.928 1241.83 571.905 C 1238.05 573.3 1234.91 573.967 1230.88 573.16 C 1221.4 571.261 1213.67 563.809 1208.61 555.921 C 1192.89 535.87 1182.93 507.051 1175.46 482.7 z"/>
<path transform="translate(0,0)" fill="rgb(38,34,33)" d="M 1179.79 463.123 C 1184.33 461.813 1189.36 461.117 1193.65 463.628 C 1196.66 465.387 1198.11 467.726 1199.08 471.035 L 1198.03 471.768 L 1197.3 471.334 L 1196.72 476.725 C 1195.92 474.272 1195.2 471.291 1193.36 469.398 C 1190.42 466.377 1185.57 466.954 1181.74 466.973 L 1179.79 463.123 z"/>
<path transform="translate(0,0)" fill="rgb(56,43,46)" d="M 1175.46 482.7 C 1168.33 462.614 1156.55 410.365 1165.13 391.677 C 1166.55 388.584 1168.8 385.187 1172.08 383.881 C 1175.53 382.505 1179.26 383.691 1182.35 385.405 C 1211.22 401.442 1240.16 472.216 1248.44 504.968 C 1252.41 520.678 1259.17 549.778 1249.98 564.518 C 1247.86 567.913 1245.23 569.928 1241.83 571.905 L 1240.03 570.897 L 1240.04 569.213 C 1241.84 566.99 1244.09 564.477 1245.25 561.84 C 1253.43 543.267 1235.94 486.38 1228.27 466.611 C 1222.91 452.8 1193.49 398.326 1178.27 393.804 C 1175.36 392.938 1174.81 393.295 1172.25 394.558 C 1168.12 400.576 1167.89 408.987 1168.42 416.09 C 1168.94 422.974 1174.39 460.856 1178.49 464.41 L 1179.79 463.123 L 1181.74 466.973 C 1185.57 466.954 1190.42 466.377 1193.36 469.398 C 1195.2 471.291 1195.92 474.272 1196.72 476.725 L 1197.3 471.334 L 1198.03 471.768 L 1199.08 471.035 C 1200.86 476.121 1199.94 482.107 1197.8 486.981 C 1197.22 488.313 1196.44 489.479 1195.64 490.688 C 1193.8 494.517 1190.48 497.293 1187.43 500.174 C 1191.22 509.314 1209.75 548.258 1210.37 554.094 L 1208.61 555.921 C 1192.89 535.87 1182.93 507.051 1175.46 482.7 z"/>
<path transform="translate(0,0)" fill="rgb(246,243,232)" d="M 1181.74 466.973 C 1185.57 466.954 1190.42 466.377 1193.36 469.398 C 1195.2 471.291 1195.92 474.272 1196.72 476.725 C 1194.21 484.756 1190.93 487.997 1184.64 493.141 C 1182.4 486.952 1178.45 478.736 1178.61 472.077 C 1178.68 469.344 1179.9 468.829 1181.74 466.973 z"/>
<path transform="translate(0,0)" fill="rgb(56,43,46)" d="M 846.741 416.29 C 849.723 415.937 852.702 415.865 855.7 415.795 C 905.851 414.637 950.549 437.91 986.108 472.077 C 1019.69 504.347 1058.79 566.426 1075.09 610.018 C 1076.73 614.406 1080.4 620.151 1080.48 624.719 L 1079.31 624.492 C 1072.05 609.878 1066.22 595.231 1058.12 580.888 C 1024.15 520.792 980.297 459.561 909.981 440.44 C 880.656 432.466 848.623 433.6 821.902 449.133 C 777.814 474.763 760.294 525.306 747.709 571.661 L 743.409 591.531 C 759.983 619.376 789.212 645.297 817.064 661.45 C 862.807 687.979 918.064 695.667 969.538 685.252 C 984.008 682.324 997.874 677.155 1012.11 673.323 C 961.137 699.143 897.907 700.246 844.059 683.312 C 800.983 669.766 746.127 632.346 724.757 591.321 C 729.4 548.169 745.549 498.95 770.826 463.677 A 117.038 117.038 0 0 1 846.741 416.29 z"/>
<path transform="translate(0,0)" fill="rgb(65,55,59)" d="M 871.965 470.399 C 881.306 471.037 888.47 474.404 895.718 480.279 C 926.013 504.836 942.403 563.593 946.219 601.092 C 948.206 620.618 948.315 646.071 934.825 661.959 C 930.778 666.726 925.603 669.99 919.247 670.292 C 907.929 670.831 898.231 663.722 890.191 656.632 C 870.336 636.059 858.721 606.12 849.663 579.352 A 142.109 142.109 0 0 0 857.986 577.727 C 866.697 575.761 877.635 572.008 882.368 563.843 C 884.256 560.585 884.624 557.313 883.467 553.696 C 882.14 549.552 877.782 546.625 873.918 545.174 C 863.026 541.083 852.919 544.593 842.87 548.92 C 840.153 527.313 839.039 498.798 853.451 480.639 C 858.576 474.181 863.881 471.371 871.965 470.399 z"/>
<path transform="translate(0,0)" fill="rgb(246,243,232)" d="M 1325.23 910.225 C 1341.91 931.284 1356.78 963.188 1369.55 987.173 C 1377.06 1001.27 1385.49 1015.2 1392.19 1029.69 C 1421.15 1092.34 1432.08 1161.11 1432.04 1229.7 C 1432.03 1255.49 1430.23 1281.28 1429.7 1307.07 C 1397.33 1275.13 1337.15 1224.88 1290.68 1225.08 C 1236.11 1225.31 1189.23 1261.29 1152.86 1298.79 C 1143.03 1308.92 1134.57 1320.12 1125.37 1330.78 C 1113.82 1298.38 1097.8 1267.98 1085.04 1236.09 C 1081.9 1228.22 1073.7 1200.65 1070.12 1196.26 L 1070.55 1199.3 L 1070.85 1198.64 L 1069.82 1199.37 C 1070.14 1199.87 1070.52 1200.33 1070.77 1200.86 C 1073.04 1205.64 1074.86 1219.77 1076.86 1226.25 C 1083.91 1249.14 1092.21 1271.9 1100.34 1294.45 C 1129.4 1375.05 1158.95 1455.79 1184.95 1537.42 C 1203.65 1596.15 1219.17 1655.83 1238.1 1714.45 C 1248.41 1746.4 1260.88 1778.1 1273.58 1809.18 C 1281.88 1829.48 1292.25 1850.52 1297.39 1871.87 C 1301.69 1889.77 1301.01 1908.91 1293.91 1926.01 C 1286.71 1929.66 1279.55 1932.36 1271.63 1934.08 C 1277.89 1907.97 1276.62 1879.93 1262.4 1856.44 C 1257.5 1848.34 1251.49 1842.39 1243.58 1837.22 C 1256.01 1874.17 1264.58 1900.99 1254.35 1940.01 C 1239.38 1943.06 1224.36 1945.91 1209.14 1947.36 C 1216.56 1922 1218.45 1893.51 1205.46 1869.44 C 1199.96 1859.24 1192.45 1852.04 1182.29 1846.63 C 1198.3 1877.36 1202.12 1915.66 1191.76 1948.82 C 1191.67 1949.1 1191.58 1949.38 1191.48 1949.66 A 1213.91 1213.91 0 0 0 1153.89 1951.1 C 1156.61 1924.59 1153.22 1890.55 1135.81 1869.04 C 1129.8 1861.62 1123.2 1857.65 1114.56 1854 C 1133.48 1882.6 1137.64 1918.06 1136.75 1951.71 C 1123.95 1952.23 1111.08 1953.03 1098.28 1953.08 C 1105.1 1922.44 1099.78 1892.71 1082.89 1866.13 C 1070.28 1846.27 1053.86 1831.43 1032.97 1820.62 C 1024.88 1816.44 1016.12 1812.95 1008.37 1808.2 C 1014.2 1808.53 1021.2 1809.49 1026.51 1806.58 C 1017.38 1800.97 982.379 1800.55 969.773 1798.85 L 974.262 1789.97 C 980.868 1790.09 988.317 1790.89 994.824 1790.02 C 996.685 1789.47 998.307 1789 1000.25 1788.83 C 1002.14 1788.67 1004.05 1788.57 1005.95 1788.43 L 1006.5 1787.28 C 1003.48 1785.3 1000.43 1787.28 997.282 1785 C 991.015 1784.12 984.729 1783.7 978.42 1783.25 C 979.905 1779.19 981.488 1775.67 983.801 1772.01 C 985.396 1770.18 986.813 1768.46 988.14 1766.42 C 989.797 1761.98 991.267 1757.86 993.951 1753.91 L 995.944 1753.62 L 996.516 1750.98 C 999.554 1749.4 1004.15 1750.05 1007.62 1749.49 L 1008.57 1749.33 L 995.715 1749 C 997.27 1745.04 998.964 1738.95 1001.87 1735.85 C 1006.78 1730.61 1016.79 1732.49 1023.44 1732.35 C 1017.86 1729.97 1011.93 1728.82 1006.03 1727.47 C 1012.29 1706.77 1020.62 1686.78 1026.14 1665.8 C 1040.51 1611.15 1040 1548.84 1024.91 1494.39 C 1000.44 1406.14 942.611 1324.07 861.761 1279.02 C 806.432 1248.19 743.18 1238.89 681.994 1256.52 C 646.887 1266.63 619.013 1284.37 593.637 1310.41 C 586.15 1318.09 578.676 1326.02 573.475 1335.48 C 585.108 1328.44 595.248 1319.31 606.148 1311.23 A 256.71 256.71 0 0 1 668.198 1278.1 A 219.345 219.345 0 0 1 836.99 1286.35 C 911.422 1321.82 972.71 1395.6 999.815 1473.03 C 1028.57 1555.18 1023.57 1638.75 989.385 1718.6 C 977.273 1746.89 961.953 1773.08 948.752 1800.76 C 934.599 1802.47 920.633 1804.65 906.904 1808.58 C 878.099 1816.84 835.727 1836.92 815.816 1860.21 A 466.215 466.215 0 0 1 866.18 1835.43 C 911.146 1817.06 964.178 1804.88 1010.63 1824.78 C 1040.67 1837.65 1064.88 1860.69 1076.89 1891.34 C 1084.98 1911.99 1088.04 1932.76 1078.86 1953.47 C 1079.76 1935.63 1079.43 1920.33 1072.36 1903.56 C 1063.52 1882.57 1050 1869.71 1029 1861.21 C 1032.94 1865.51 1036.93 1869.8 1040.44 1874.47 C 1058.45 1898.43 1064.48 1928.03 1060.27 1957.33 C 1046.63 1961.14 1031.46 1961.02 1017.37 1961.37 A 107.368 107.368 0 0 0 1006.52 1886.55 C 998.598 1872.49 988.468 1865.19 973.142 1860.86 C 995.437 1891.46 1005.33 1925.2 1003.5 1962.89 A 684.975 684.975 0 0 1 953.092 1963.46 C 957.604 1939.79 957.118 1919.18 946.664 1897.05 C 939.503 1881.89 929.155 1872.96 913.501 1867.36 C 932.418 1900.14 943.219 1924.66 939.404 1963.29 C 841.264 1963.07 653.418 1943.73 568.537 1898.96 C 541.731 1884.82 527.346 1865.19 518.356 1836.49 C 532.726 1846.8 575.129 1883.22 591.988 1883.52 C 587.583 1876.01 524.584 1839.95 512.842 1822.56 C 505.428 1811.57 498.216 1786.58 494.02 1773.28 C 517.757 1794.96 547.494 1826.93 577.066 1838.64 C 567.04 1827.34 553.145 1818.39 541.545 1808.64 C 528.37 1797.56 499.772 1773.55 491.372 1760.21 C 484.705 1749.62 478.095 1724.07 476.969 1711.29 C 477.302 1709.07 476.888 1707.68 476.467 1705.47 L 476.079 1707.33 L 477.863 1705.45 L 478.142 1706.09 L 480.207 1706.3 C 478.627 1703.45 475.526 1700.69 473.342 1698.22 C 469.09 1681.55 466.555 1664.08 463.545 1647.14 C 473.348 1660.19 483.456 1673 494.589 1684.95 C 500.665 1691.47 532.69 1725.94 539.013 1726.15 C 536.66 1718.99 504.441 1687.96 496.683 1678.97 C 484.631 1665.01 474.014 1649.45 461.491 1635.99 C 458.681 1620.21 455.124 1601.75 455.785 1585.72 C 455.32 1582.82 454.911 1581.02 456.282 1578.26 C 452.205 1572.62 452.898 1542.93 454.126 1534.99 L 458.517 1532.61 L 453.49 1525.32 C 453.34 1511.37 452.282 1495.92 454.648 1482.16 C 454.241 1479.28 454.431 1476.69 454.666 1473.82 C 451.866 1463.12 456.879 1441.45 458.432 1429.83 C 466.614 1443.93 503.02 1501.62 515.546 1507.21 L 517.03 1505.98 C 516.902 1502.69 501.948 1485.36 498.905 1481.16 C 484.662 1461.49 473.362 1439.51 458.695 1420.33 A 1526.09 1526.09 0 0 0 465.536 1378.54 C 480.078 1405.84 501.374 1441.87 524.559 1462.65 C 519.206 1447.42 506.405 1433.42 497.437 1420.11 C 486.552 1403.95 476.335 1387.54 467.385 1370.23 C 470.565 1358.29 473.165 1346.3 475.66 1334.2 A 294.734 294.734 0 0 0 483.943 1348.56 C 491.771 1361.36 521.34 1409.89 533.308 1412.77 C 533.802 1410.78 533.03 1409.98 531.986 1408.23 C 526.204 1398.54 517.839 1389.63 511.339 1380.23 C 499.459 1363.04 488.837 1345.06 478.13 1327.13 C 482.171 1316.74 485.391 1305.92 488.899 1295.33 C 503.697 1317.67 517.694 1349.52 537.717 1367.7 L 538.369 1366.93 C 537.452 1363.29 536.089 1360.13 534.246 1356.86 C 529.801 1348.97 523.566 1341.54 518.615 1333.84 C 509.069 1319.01 500.179 1303.72 491.219 1288.53 C 495.223 1278.48 499.349 1268.59 503.915 1258.78 C 515.456 1280.03 531.475 1313.58 552.07 1326.98 C 545.84 1313.95 535.898 1301.99 528.119 1289.77 C 520.248 1277.39 513.579 1264.1 506.684 1251.15 L 519.559 1222.72 C 531.469 1241.8 546.182 1273.66 562.397 1288.24 C 558.65 1276.48 530.214 1227.56 522.25 1216.82 C 526.711 1208.24 531.763 1196.31 538.177 1189.14 L 539.278 1189.87 C 540.109 1188.04 541.139 1186.79 542.348 1185.19 L 541.552 1184.39 C 540.937 1178.27 553.991 1160.67 557.548 1154.86 C 568.051 1176.74 582.524 1207.54 601.104 1223.32 C 595.776 1210.48 587.318 1198.52 580.344 1186.48 C 573.289 1174.29 566.958 1161.63 560.49 1149.13 C 564.937 1140.95 570.094 1133.13 575.05 1125.26 C 582.623 1139.01 600.436 1172.39 612.067 1181.23 L 613.941 1180.96 C 614.252 1178.36 613.339 1176.77 612.086 1174.55 C 608.473 1168.14 603.665 1162.18 599.73 1155.93 A 565.838 565.838 0 0 1 578.747 1118.82 C 581.32 1113.94 590.014 1094.16 594.014 1092.22 L 598.406 1089.05 C 596.792 1085.79 596.484 1085.01 597.83 1081.58 C 600.908 1073.75 605.871 1066.72 609.45 1059.13 C 616.469 1069.4 638.742 1108.42 647.788 1112.36 L 648.341 1111.18 C 645.621 1103.85 640.194 1097.05 635.946 1090.5 C 627.954 1078.18 619.231 1065.51 612.336 1052.57 C 615.2 1045.35 618.088 1038.21 621.454 1031.21 C 635.509 1048.7 649.432 1069.36 667.252 1083.21 C 667.064 1082.8 666.881 1082.38 666.686 1081.97 C 659.349 1066.45 627.977 1036.51 626.45 1023.31 L 627.64 1022.25 C 638.275 1024.51 660.655 1050.78 679.535 1058.14 C 673.044 1048.89 662.055 1042.06 653.07 1035.29 C 753.49 1083.73 871.359 1097.03 981.381 1083.07 C 1014.99 1078.8 1048.31 1071.29 1081.18 1063.25 A 119.687 119.687 0 0 0 1107.36 1153.3 C 1123.54 1173.38 1148.31 1187.57 1174.07 1190.03 C 1200.4 1192.54 1228.83 1185.54 1249.29 1168.39 A 102.415 102.415 0 0 0 1285.48 1099.01 C 1286.22 1089.84 1285.49 1080.87 1284.03 1071.8 C 1288.34 1068.44 1294 1065.38 1294.73 1059.62 C 1292.02 1051.98 1285.73 1045.66 1281.06 1039.13 C 1266.7 1019.05 1261.92 1007.57 1239.4 994.242 C 1276.85 971.098 1307.36 952.481 1325.23 910.225 z"/>
<path transform="translate(0,0)" fill="rgb(38,34,33)" d="M 999.568 1765.32 L 1002.64 1765.88 L 998.605 1770.28 C 993.633 1770.61 988.636 1770.73 983.801 1772.01 C 985.396 1770.18 986.813 1768.46 988.14 1766.42 A 712.811 712.811 0 0 1 999.568 1765.32 z"/>
<path transform="translate(0,0)" fill="rgb(9,8,6)" d="M 1002.64 1765.88 C 1008.67 1765.79 1014.52 1765.57 1020.45 1766.85 C 1015.84 1770.84 1004.45 1770.02 998.605 1770.28 L 1002.64 1765.88 z"/>
<path transform="translate(0,0)" fill="rgb(9,8,6)" d="M 1008.57 1749.33 C 1011.91 1749.48 1016.02 1749.14 1018.79 1751.15 L 1018.98 1752.55 C 1012.35 1755.27 1004.08 1754.26 997.019 1754.34 L 995.944 1753.62 L 996.516 1750.98 C 999.554 1749.4 1004.15 1750.05 1007.62 1749.49 L 1008.57 1749.33 z"/>
<path transform="translate(0,0)" fill="rgb(38,34,33)" d="M 997.282 1785 C 1004.21 1784.93 1017.7 1783.64 1023.41 1787.62 C 1017.18 1791.59 1002.24 1790.31 994.824 1790.02 C 996.685 1789.47 998.307 1789 1000.25 1788.83 C 1002.14 1788.67 1004.05 1788.57 1005.95 1788.43 L 1006.5 1787.28 C 1003.48 1785.3 1000.43 1787.28 997.282 1785 z"/>
<path transform="translate(0,0)" fill="rgb(65,55,59)" d="M 504.976 1649.26 C 507.887 1650.79 511.602 1653.94 514.891 1653.84 C 519.791 1657.02 534.81 1673.49 536.04 1678.75 L 534.653 1678.74 C 524.273 1672 512.197 1659.43 504.976 1649.26 z"/>
<path transform="translate(0,0)" fill="rgb(65,55,59)" d="M 594.014 1092.22 L 598.406 1089.05 C 607.197 1104.02 625.609 1130.75 629.876 1146.49 L 629.202 1147.52 C 617.791 1138.98 602.264 1105.9 594.014 1092.22 z"/>
<path transform="translate(0,0)" fill="rgb(65,55,59)" d="M 539.278 1189.87 C 540.109 1188.04 541.139 1186.79 542.348 1185.19 C 548.405 1194.32 552.783 1204.62 558.108 1214.19 C 566.056 1228.48 576.43 1243.08 582.206 1258.33 C 564.19 1243.07 549.767 1211.23 539.278 1189.87 z"/>
<path transform="translate(0,0)" fill="url(#Gradient1)" d="M 456.282 1578.26 C 475.403 1603.89 494.56 1629.13 514.891 1653.84 C 511.602 1653.94 507.887 1650.79 504.976 1649.26 C 494.037 1640.75 464.109 1599.08 455.785 1585.72 C 455.32 1582.82 454.911 1581.02 456.282 1578.26 z"/>
<path transform="translate(0,0)" fill="rgb(65,55,59)" d="M 454.126 1534.99 L 458.517 1532.61 C 466.982 1544.3 475.362 1556.11 484.256 1567.48 C 490.651 1575.66 497.667 1583.51 503.797 1591.86 C 510.591 1596.27 517.98 1608.17 522.54 1614.9 C 512.251 1608.73 502.973 1598.38 495.414 1589.15 C 482.493 1578.15 464.625 1549.93 454.126 1534.99 z"/>
<path transform="translate(0,0)" fill="rgb(65,55,59)" d="M 454.666 1473.82 C 468.049 1491 479.524 1509.51 492.65 1526.85 C 501.907 1539.07 513.952 1549.26 521.27 1562.85 C 494.24 1545.9 472.773 1507.91 454.648 1482.16 C 454.241 1479.28 454.431 1476.69 454.666 1473.82 z"/>
<path transform="translate(0,0)" fill="rgb(65,55,59)" d="M 476.969 1711.29 C 477.302 1709.07 476.888 1707.68 476.467 1705.47 L 476.079 1707.33 L 477.863 1705.45 L 478.142 1706.09 L 480.207 1706.3 C 493.311 1721.32 506.757 1735.8 520.479 1750.25 C 532.4 1761.01 551.382 1774.74 559.894 1787.91 C 544.356 1780.47 530.473 1766.67 518.137 1754.69 C 503.735 1740.82 490.294 1726.19 476.969 1711.29 z"/>
<path transform="translate(0,0)" fill="rgb(65,55,59)" d="M 751.341 1394.33 C 753.4 1394.31 755.384 1394.56 757.361 1395.15 C 762.865 1396.79 767.367 1401.93 769.686 1407.02 C 771.889 1411.85 772.427 1417.55 770.184 1422.47 C 765.275 1433.24 731.424 1442.13 719.475 1447.15 C 679.993 1463.76 644.038 1487.03 609.368 1511.96 C 595.649 1521.82 582.848 1536.33 567.137 1542.72 C 562.152 1542.15 557.911 1541.4 553.714 1538.49 C 549.574 1535.61 545.99 1530.59 545.288 1525.52 C 544.523 1520.01 546.993 1514.63 550.306 1510.37 C 557.32 1501.35 567.826 1493.75 576.769 1486.67 C 616.43 1455.26 701.761 1400.91 751.341 1394.33 z"/>
<path transform="translate(0,0)" fill="rgb(65,55,59)" d="M 830.436 1602.3 C 833.713 1601.8 837.759 1601.52 840.977 1602.42 C 845.366 1603.63 848.686 1607.32 850.822 1611.2 C 853.703 1616.44 854.636 1622.91 852.913 1628.68 C 851.62 1633 849.104 1636.57 844.872 1638.28 C 830.747 1644.02 814.72 1646.46 800.142 1651.18 C 770.974 1660.62 742.402 1673.39 715.187 1687.47 C 695.277 1697.77 675.607 1709.28 657.153 1722.02 C 646.029 1729.69 635.754 1739.15 623.98 1745.77 C 618.644 1746.68 613.895 1746.58 609.219 1743.53 C 604.695 1740.58 600.988 1736.46 599.989 1731.01 C 599 1725.62 601.092 1720.33 604.145 1715.97 C 610.992 1706.19 622.982 1698.16 632.562 1691.06 C 687.45 1650.4 762.952 1614.18 830.436 1602.3 z"/>
<path transform="translate(0,0)" fill="rgb(65,55,59)" d="M 792.468 1495.15 C 795.249 1494.87 798.293 1494.63 801.076 1494.91 C 806.026 1495.41 810.968 1499.47 813.82 1503.33 C 816.88 1507.46 818.388 1513.03 817.329 1518.11 C 816.54 1521.89 814.121 1526.33 811.098 1528.8 C 803.562 1534.96 772.234 1543.13 760.943 1547.61 C 711.977 1567.06 668.047 1593.07 625.104 1623.28 C 611.504 1632.85 599.504 1645.09 585.364 1653.71 C 579.877 1655.28 576.726 1655.14 571.575 1652.43 C 566.994 1650.02 562.719 1646.59 561.274 1641.41 C 559.818 1636.17 561.196 1630.45 563.9 1625.87 C 570.35 1614.93 583.235 1605.76 593.097 1597.87 C 649.332 1552.91 722.542 1512.85 792.468 1495.15 z"/>
</svg>