<svg width="24" height="24" viewBox="0 0 24 24" fill="none" xmlns="http://www.w3.org/2000/svg">
  <path fill-rule="evenodd" clip-rule="evenodd"
    d="M9.26074 8.44939C9.41336 8.16693 9.5 7.84358 9.5 7.5C9.5 6.39543 8.60457 5.5 7.5 5.5C6.39543 5.5 5.5 6.39543 5.5 7.5C5.5 8.60457 6.39543 9.5 7.5 9.5C7.85969 9.5 8.1972 9.40505 8.48884 9.23884L8.25 9L9 8.25L9.26074 8.44939ZM10.0618 9.06197C10.3398 8.607 10.5 8.07221 10.5 7.5C10.5 5.84315 9.15685 4.5 7.5 4.5C5.84315 4.5 4.5 5.84315 4.5 7.5C4.5 9.15685 5.84315 10.5 7.5 10.5C8.13687 10.5 8.7274 10.3015 9.2131 9.9631L11.25 12L9.2131 14.0369C8.7274 13.6985 8.13687 13.5 7.5 13.5C5.84315 13.5 4.5 14.8431 4.5 16.5C4.5 18.1569 5.84315 19.5 7.5 19.5C9.15685 19.5 10.5 18.1569 10.5 16.5C10.5 15.9278 10.3398 15.393 10.0618 14.938L12.4 13.15L17.2431 17.9931C17.716 18.466 18.3939 18.6712 19.0496 18.5401L21.75 18L10.0618 9.06197ZM8.48884 14.7612L8.25 15L9 15.75L9.26074 15.5506C9.41336 15.8331 9.5 16.1564 9.5 16.5C9.5 17.6046 8.60457 18.5 7.5 18.5C6.39543 18.5 5.5 17.6046 5.5 16.5C5.5 15.3954 6.39543 14.5 7.5 14.5C7.85969 14.5 8.1972 14.595 8.48884 14.7612ZM15.8654 10.5L21.75 6L19.0496 5.45992C18.3939 5.32877 17.716 5.53402 17.2431 6.00686L14.1466 9.10345L15.8654 10.5Z"
    fill="#282F35" fill-opacity="0.9" />
</svg>